<?xml version="1.0" encoding="utf-8"?>
<!-- Generator: Adobe Illustrator 26.5.0, SVG Export Plug-In . SVG Version: 6.00 Build 0)  -->
<svg version="1.1" id="Calque_1" xmlns="http://www.w3.org/2000/svg" xmlns:xlink="http://www.w3.org/1999/xlink" x="0px" y="0px"
	 viewBox="0 0 1417.3 3401.6" style="enable-background:new 0 0 1417.3 3401.6;" xml:space="preserve">
<style type="text/css">
	.st0{fill:#D9D8D6;}
	.st1{fill:#050703;}
</style>
<rect class="st0" width="1417.3" height="3401.6"/>
<g>
	<path class="st1" d="M128.9,1726.1c4.6,0,8,3.5,8,8s-3.5,7.9-8,7.9c-4.6,0-7.9-3.4-7.9-7.9S124.3,1726.1,128.9,1726.1z
		 M121.2,1808.5v-58h15.5v58H121.2z"/>
	<path class="st1" d="M148.4,1779.4c0-17.8,13.2-30.4,31.3-30.4c12.1,0,19.4,5.2,23.3,10.4l-10.1,9.4c-2.9-4.1-7.1-6.2-12.5-6.2
		c-9.5,0-16.1,6.7-16.1,16.8c0,10.1,6.6,16.9,16.1,16.9c5.4,0,9.6-2.4,12.5-6.4l10.1,9.4c-3.8,5.3-11.2,10.6-23.3,10.6
		C161.6,1809.9,148.4,1797.3,148.4,1779.4z"/>
	<path class="st1" d="M221,1726.1c4.6,0,8,3.5,8,8s-3.5,7.9-8,7.9c-4.6,0-7.9-3.4-7.9-7.9S216.5,1726.1,221,1726.1z M213.3,1808.5
		v-58h15.5v58H213.3z"/>
	<path class="st1" d="M243.1,1820.9c2.9-2.5,5-7.6,5-12.4c0-0.6,0-1.1-0.1-1.8c-3.8-1.3-5.5-3.8-5.5-7.9c0-4.9,3.8-8.5,9-8.5
		c6.4,0,10.8,5.2,10.8,12.4c0,11-8.5,20.5-19.2,21.6V1820.9z"/>
	<path class="st1" d="M136.4,1928.5l-23.8-58h16.6l15.5,40.3l15.6-40.3h16.6l-23.8,58H136.4z"/>
	<path class="st1" d="M180.1,1899.4c0-16.4,11.8-30.4,31.2-30.4c19.6,0,31.3,13.9,31.3,30.4s-11.8,30.5-31.3,30.5
		C191.9,1929.9,180.1,1915.9,180.1,1899.4z M226.7,1899.4c0-9-5.5-16.8-15.4-16.8c-9.7,0-15.2,7.8-15.2,16.8
		c0,9.1,5.5,16.9,15.2,16.9C221.1,1916.3,226.7,1908.5,226.7,1899.4z"/>
	<path class="st1" d="M254.1,1902.3v-31.8h15.5v33.7c0,6.7,4.7,12.1,12.4,12.1s12.4-5.4,12.4-12.1v-33.7h15.5v31.8
		c0,15.2-10.6,27.7-27.8,27.7S254.1,1917.5,254.1,1902.3z"/>
	<path class="st1" d="M320,1920.9l6.7-11c4.4,4.1,13.1,8,20.4,8c6.7,0,10-2.5,10-6.1c0-9.5-35-1.7-35-24.5c0-9.7,8.5-18.2,24.2-18.2
		c10,0,17.9,3.4,23.8,7.9l-6.2,10.8c-3.6-3.6-10.3-6.7-17.5-6.7c-5.6,0-9.2,2.4-9.2,5.6c0,8.5,35,1.3,35,24.7
		c0,10.7-9.2,18.5-25.7,18.5C336.1,1929.9,326.3,1926.5,320,1920.9z"/>
	<path class="st1" d="M408.2,1870.5h10.1v-15.8h15.5v15.8h11.9v13.3h-11.9v20.4c0,6.7,5.5,12,12.2,12v13.7
		c-15.4,0-27.7-12.5-27.7-27.8v-18.2h-10.1V1870.5z"/>
	<path class="st1" d="M490.5,1883.9c-1.2-0.2-2.3-0.2-3.2-0.2h-2.2c-6.1,0-13.4,4.1-13.4,15.1c0,5,0,29.6,0,29.6h-15.5v-58h15.5v10
		c4.3-6.5,10.1-11.3,18.8-11.3V1883.9z"/>
	<path class="st1" d="M496.4,1899.4c0-16.4,11.8-30.4,31.2-30.4c19.6,0,31.3,13.9,31.3,30.4s-11.8,30.5-31.3,30.5
		C508.2,1929.9,496.4,1915.9,496.4,1899.4z M543,1899.4c0-9-5.5-16.8-15.4-16.8c-9.7,0-15.2,7.8-15.2,16.8c0,9.1,5.5,16.9,15.2,16.9
		C537.5,1916.3,543,1908.5,543,1899.4z"/>
	<path class="st1" d="M570.5,1902.3v-31.8h15.5v33.7c0,6.7,4.7,12.1,12.4,12.1s12.4-5.4,12.4-12.1v-33.7h15.5v31.8
		c0,15.2-10.6,27.7-27.8,27.7S570.5,1917.5,570.5,1902.3z"/>
	<path class="st1" d="M656.7,1928.5l-23.8-58h16.6l15.5,40.3l15.6-40.3h16.6l-23.8,58H656.7z"/>
	<path class="st1" d="M700.4,1899.4c0-16.8,12.7-30.4,30.6-30.4c17.8,0,29.6,13,29.6,31.8v3.6h-43.9c1.1,7.1,7,13,17,13
		c4.9,0,11.8-2,15.6-5.6l7,10.1c-5.9,5.3-15.1,8-24.4,8C714,1929.9,700.4,1918,700.4,1899.4z M745.7,1893.9
		c-0.5-5.5-4.3-12.4-14.6-12.4c-9.7,0-13.8,6.6-14.4,12.4H745.7z"/>
	<path class="st1" d="M806.5,1883.9c-1.2-0.2-2.3-0.2-3.2-0.2h-2.2c-6.1,0-13.4,4.1-13.4,15.1c0,5,0,29.6,0,29.6h-15.5v-58h15.5v10
		c4.3-6.5,10.1-11.3,18.8-11.3V1883.9z"/>
	<path class="st1" d="M812.4,1899.4c0-16.8,12.7-30.4,30.6-30.4c17.8,0,29.6,13,29.6,31.8v3.6h-43.9c1.1,7.1,7,13,17,13
		c4.9,0,11.8-2,15.6-5.6l7,10.1c-5.9,5.3-15.1,8-24.4,8C825.9,1929.9,812.4,1918,812.4,1899.4z M857.6,1893.9
		c-0.5-5.5-4.3-12.4-14.6-12.4c-9.7,0-13.8,6.6-14.4,12.4H857.6z"/>
	<path class="st1" d="M881.7,1928.5v-11.4l26.6-33.2h-26.6v-13.3h47.9v10.9l-27.2,33.7h27.7v13.3H881.7z"/>
	<path class="st1" d="M967.7,1870.5h10.1v-15.8h15.5v15.8h11.9v13.3h-11.9v20.4c0,6.7,5.5,12,12.2,12v13.7
		c-15.4,0-27.7-12.5-27.7-27.8v-18.2h-10.1V1870.5z"/>
	<path class="st1" d="M1012.1,1899.4c0-16.4,11.8-30.4,31.2-30.4c19.6,0,31.3,13.9,31.3,30.4s-11.8,30.5-31.3,30.5
		C1023.8,1929.9,1012.1,1915.9,1012.1,1899.4z M1058.6,1899.4c0-9-5.5-16.8-15.4-16.8c-9.7,0-15.2,7.8-15.2,16.8
		c0,9.1,5.5,16.9,15.2,16.9C1053.1,1916.3,1058.6,1908.5,1058.6,1899.4z"/>
	<path class="st1" d="M1086.1,1902.3v-31.8h15.5v33.7c0,6.7,4.7,12.1,12.4,12.1s12.4-5.4,12.4-12.1v-33.7h15.5v31.8
		c0,15.2-10.6,27.7-27.8,27.7S1086.1,1917.5,1086.1,1902.3z"/>
	<path class="st1" d="M1152,1920.9l6.7-11c4.4,4.1,13.1,8,20.4,8c6.7,0,10-2.5,10-6.1c0-9.5-35-1.7-35-24.5
		c0-9.7,8.5-18.2,24.2-18.2c10,0,17.9,3.4,23.8,7.9l-6.2,10.8c-3.6-3.6-10.3-6.7-17.5-6.7c-5.6,0-9.2,2.4-9.2,5.6
		c0,8.5,35,1.3,35,24.7c0,10.7-9.2,18.5-25.7,18.5C1168.1,1929.9,1158.2,1926.5,1152,1920.9z"/>
	<path class="st1" d="M120.9,2048.5v-80h15.5v80H120.9z"/>
	<path class="st1" d="M147.9,2019.4c0-16.8,12.7-30.4,30.6-30.4c17.8,0,29.6,13,29.6,31.8v3.6h-43.9c1.1,7.1,7,13,17,13
		c4.9,0,11.8-2,15.6-5.6l7,10.1c-5.9,5.3-15.1,8-24.4,8C161.5,2049.9,147.9,2038,147.9,2019.4z M193.2,2013.9
		c-0.5-5.5-4.3-12.4-14.6-12.4c-9.7,0-13.8,6.6-14.4,12.4H193.2z"/>
	<path class="st1" d="M214.8,2040.9l6.7-11c4.4,4.1,13.1,8,20.4,8c6.7,0,10-2.5,10-6.1c0-9.5-35-1.7-35-24.5
		c0-9.7,8.5-18.2,24.2-18.2c10,0,17.9,3.4,23.8,7.9l-6.2,10.8c-3.6-3.6-10.3-6.7-17.5-6.7c-5.6,0-9.2,2.4-9.2,5.6
		c0,8.5,35,1.3,35,24.7c0,10.7-9.2,18.5-25.7,18.5C230.9,2049.9,221,2046.5,214.8,2040.9z"/>
	<path class="st1" d="M367.9,1990.5v58h-15.5v-8.9c-6.5,8.8-14.4,10.3-18.6,10.3c-17.6,0-27.8-14-27.8-30.5s11.4-30.4,27.8-30.4
		c4.2,0,12.1,1.6,18.6,11.4v-10H367.9z M352.4,2019.4c0-9-5.3-16.8-15.1-16.8c-9.7,0-15,7.8-15,16.8c0,9.1,5.3,16.9,15,16.9
		C347.1,2036.3,352.4,2028.5,352.4,2019.4z"/>
	<path class="st1" d="M379.4,2019.4c0-17.8,13.2-30.4,31.3-30.4c12.1,0,19.4,5.2,23.3,10.4l-10.1,9.4c-2.9-4.1-7.1-6.2-12.5-6.2
		c-9.5,0-16.1,6.7-16.1,16.8c0,10.1,6.6,16.9,16.1,16.9c5.4,0,9.6-2.4,12.5-6.4l10.1,9.4c-3.8,5.3-11.2,10.6-23.3,10.6
		C392.6,2049.9,379.4,2037.3,379.4,2019.4z"/>
	<path class="st1" d="M440.5,2019.4c0-17.8,13.2-30.4,31.3-30.4c12.1,0,19.4,5.2,23.3,10.4l-10.1,9.4c-2.9-4.1-7.1-6.2-12.5-6.2
		c-9.5,0-16.1,6.7-16.1,16.8c0,10.1,6.6,16.9,16.1,16.9c5.4,0,9.6-2.4,12.5-6.4l10.1,9.4c-3.8,5.3-11.2,10.6-23.3,10.6
		C453.7,2049.9,440.5,2037.3,440.5,2019.4z"/>
	<path class="st1" d="M501.6,2019.4c0-16.8,12.7-30.4,30.6-30.4c17.8,0,29.6,13,29.6,31.8v3.6h-43.9c1.1,7.1,7,13,17,13
		c4.9,0,11.8-2,15.6-5.6l7,10.1c-5.9,5.3-15.1,8-24.4,8C515.1,2049.9,501.6,2038,501.6,2019.4z M546.8,2013.9
		c-0.5-5.5-4.3-12.4-14.6-12.4c-9.7,0-13.8,6.6-14.4,12.4H546.8z"/>
	<path class="st1" d="M568.4,2040.9l6.7-11c4.4,4.1,13.1,8,20.4,8c6.7,0,10-2.5,10-6.1c0-9.5-35-1.7-35-24.5
		c0-9.7,8.5-18.2,24.2-18.2c10,0,17.9,3.4,23.8,7.9l-6.2,10.8c-3.6-3.6-10.3-6.7-17.5-6.7c-5.6,0-9.2,2.4-9.2,5.6
		c0,8.5,35,1.3,35,24.7c0,10.7-9.2,18.5-25.7,18.5C584.5,2049.9,574.7,2046.5,568.4,2040.9z"/>
	<path class="st1" d="M626.9,2040.9l6.7-11c4.4,4.1,13.1,8,20.4,8c6.7,0,10-2.5,10-6.1c0-9.5-35-1.7-35-24.5
		c0-9.7,8.5-18.2,24.2-18.2c10,0,17.9,3.4,23.8,7.9l-6.2,10.8c-3.6-3.6-10.3-6.7-17.5-6.7c-5.6,0-9.2,2.4-9.2,5.6
		c0,8.5,35,1.3,35,24.7c0,10.7-9.2,18.5-25.7,18.5C642.9,2049.9,633.1,2046.5,626.9,2040.9z"/>
	<path class="st1" d="M686.6,2019.4c0-16.4,11.8-30.4,31.2-30.4c19.6,0,31.3,13.9,31.3,30.4s-11.8,30.5-31.3,30.5
		C698.4,2049.9,686.6,2035.9,686.6,2019.4z M733.2,2019.4c0-9-5.5-16.8-15.4-16.8c-9.7,0-15.2,7.8-15.2,16.8
		c0,9.1,5.5,16.9,15.2,16.9C727.7,2036.3,733.2,2028.5,733.2,2019.4z"/>
	<path class="st1" d="M768.6,1966.1c4.6,0,8,3.5,8,8s-3.5,7.9-8,7.9s-7.9-3.4-7.9-7.9S764,1966.1,768.6,1966.1z M760.9,2048.5v-58
		h15.5v58H760.9z"/>
	<path class="st1" d="M826.1,2003.9c-1.2-0.2-2.3-0.2-3.2-0.2h-2.2c-6.1,0-13.4,4.1-13.4,15.1c0,5,0,29.6,0,29.6h-15.5v-58h15.5v10
		c4.3-6.5,10.1-11.3,18.8-11.3V2003.9z"/>
	<path class="st1" d="M831.9,2019.4c0-16.8,12.7-30.4,30.6-30.4c17.8,0,29.6,13,29.6,31.8v3.6h-43.9c1.1,7.1,7,13,17,13
		c4.9,0,11.8-2,15.6-5.6l7,10.1c-5.9,5.3-15.1,8-24.4,8C845.5,2049.9,831.9,2038,831.9,2019.4z M877.2,2013.9
		c-0.5-5.5-4.3-12.4-14.6-12.4c-9.7,0-13.8,6.6-14.4,12.4H877.2z"/>
	<path class="st1" d="M898.8,2040.9l6.7-11c4.4,4.1,13.1,8,20.4,8c6.7,0,10-2.5,10-6.1c0-9.5-35-1.7-35-24.5
		c0-9.7,8.5-18.2,24.2-18.2c10,0,17.9,3.4,23.8,7.9l-6.2,10.8c-3.6-3.6-10.3-6.7-17.5-6.7c-5.6,0-9.2,2.4-9.2,5.6
		c0,8.5,35,1.3,35,24.7c0,10.7-9.2,18.5-25.7,18.5C914.9,2049.9,905,2046.5,898.8,2040.9z"/>
	<path class="st1" d="M1009.1,1990.5v10c6.5-9.8,14.4-11.4,18.6-11.4c16.4,0,27.8,13.9,27.8,30.4s-10.2,30.5-27.8,30.5
		c-4.2,0-12.1-1.6-18.6-10.3v31h-15.5v-80H1009.1z M1039.2,2019.4c0-9-5.3-16.8-15-16.8c-9.8,0-15.1,7.8-15.1,16.8
		c0,9.1,5.3,16.9,15.1,16.9C1033.9,2036.3,1039.2,2028.5,1039.2,2019.4z"/>
	<path class="st1" d="M1063.4,2019.4c0-16.4,11.8-30.4,31.2-30.4c19.6,0,31.3,13.9,31.3,30.4s-11.8,30.5-31.3,30.5
		C1075.2,2049.9,1063.4,2035.9,1063.4,2019.4z M1110,2019.4c0-9-5.5-16.8-15.4-16.8c-9.7,0-15.2,7.8-15.2,16.8
		c0,9.1,5.5,16.9,15.2,16.9C1104.5,2036.3,1110,2028.5,1110,2019.4z"/>
	<path class="st1" d="M1137.5,2022.3v-31.8h15.5v33.7c0,6.7,4.7,12.1,12.4,12.1s12.4-5.4,12.4-12.1v-33.7h15.5v31.8
		c0,15.2-10.6,27.7-27.8,27.7S1137.5,2037.5,1137.5,2022.3z"/>
	<path class="st1" d="M1242.6,2003.9c-1.2-0.2-2.3-0.2-3.2-0.2h-2.2c-6.1,0-13.4,4.1-13.4,15.1c0,5,0,29.6,0,29.6h-15.5v-58h15.5v10
		c4.3-6.5,10.1-11.3,18.8-11.3V2003.9z"/>
	<path class="st1" d="M1281.6,1999.4c0-5.3,4.4-9.7,9.7-9.7s9.7,4.4,9.7,9.7c0,5.3-4.4,9.7-9.7,9.7S1281.6,2004.7,1281.6,1999.4z
		 M1281.6,2040.1c0-5.3,4.4-9.7,9.7-9.7s9.7,4.4,9.7,9.7c0,5.3-4.4,9.7-9.7,9.7S1281.6,2045.3,1281.6,2040.1z"/>
</g>
<g>
	<g>
		<g>
			<g>
				<path class="st1" d="M495,275.4c0-33.8,22-63.3,56-63.3c7.2,0,23,2.8,33.5,19h0.2v-15.8h41v120.5h-41v-15.2h-0.2
					c-10.5,16.2-26,18.2-33.5,18.2C518,338.9,495,309.4,495,275.4z M584.7,275.4c0-15-8.5-26.3-23.8-26.3c-15,0-23.5,11.3-23.5,26.3
					c0,15.2,8.5,26.8,23.5,26.8C576.2,302.1,584.7,290.6,584.7,275.4z"/>
				<path class="st1" d="M646.9,275.4c0-38.3,28.8-63.3,65.8-63.3c25.5,0,41.2,11.2,48.5,21l-25.8,25.5c-4.2-5.5-11.2-9.5-20.8-9.5
					c-13.8,0-25.8,9-25.8,26.3s12,26.8,25.8,26.8c9.2,0,16.8-4.8,21-9.8c9.2,9.2,16.5,17,25.5,25.8c-7.2,9.5-23.2,20.8-48.5,20.8
					C675.7,338.9,646.9,313.9,646.9,275.4z"/>
				<path class="st1" d="M773.7,275.4c0-38.3,28.8-63.3,65.8-63.3c25.5,0,41.2,11.2,48.5,21l-25.8,25.5c-4.2-5.5-11.2-9.5-20.8-9.5
					c-13.8,0-25.8,9-25.8,26.3s12,26.8,25.8,26.8c9.2,0,16.8-4.8,21-9.8c9.2,9.2,16.5,17,25.5,25.8c-7.2,9.5-23.2,20.8-48.5,20.8
					C802.4,338.9,773.7,313.9,773.7,275.4z"/>
				<path class="st1" d="M1029.7,215.4v61.8c0,36.2-23.8,61.8-61.5,61.8c-41.2,0-61.5-27.8-61.5-61.8v-61.8h41v66.3
					c0,11.2,3.2,20.5,20.5,20.5c17,0,20.5-9.2,20.5-20.5v-66.3H1029.7z"/>
				<path class="st1" d="M1050.9,275.4c0-35,26.2-63.3,64.2-63.3c34,0,60.5,25.5,60.5,68.3v7.5h-82.8c2.8,10,12.5,19.8,28.5,19.8
					c6.5,0,20.2-3,27.5-7.8l16.5,25.5c-11.8,9.2-32,13.5-49,13.5C1079.7,338.9,1050.9,315.1,1050.9,275.4z M1115.2,243.4
					c-15.2,0-21,12-22.5,19.3h44.8C1135.7,254.1,1131.2,243.4,1115.2,243.4z"/>
				<path class="st1" d="M1194.4,174.1c0-11.2,9.2-20,20.8-20c11,0,20.2,8.8,20.2,20c0,11-9.2,20-20.2,20
					C1203.7,194.1,1194.4,185.1,1194.4,174.1z M1194.4,335.9V215.4h41v120.5H1194.4z"/>
				<path class="st1" d="M1262.9,335.9V169.4h41v166.5H1262.9z"/>
			</g>
		</g>
	</g>
	<g>
		<g>
			<path class="st1" d="M162.4,154.8c55.3-55.3,145.2-55.3,200.5,0c55.3,55.3,55.3,145.2,0,200.5c-55.3,55.3-145.3,55.3-200.5,0
				C107.1,300.1,107.1,210.1,162.4,154.8z M171,163.5c-50.5,50.5-50.5,132.7,0,183.3c50.5,50.5,132.7,50.5,183.3,0
				c50.5-50.5,50.5-132.7,0-183.3C303.7,113,221.5,113,171,163.5z"/>
			<path class="st1" d="M339.2,190.1L211.1,317.8l113.3,0c4.6,0,8.4,3.7,8.4,8.4c0,4.6-3.8,8.4-8.4,8.4l-132.5,0
				c-2.6,0-5-1.2-6.5-3.1c-1.5-1.5-2.5-3.6-2.5-5.8l0-132c0-4.6,3.7-8.4,8.4-8.4c4.7,0,8.4,3.7,8.4,8.4l0,111.8l127.6-127.2
				c3.3-3.3,8.6-3.3,11.9,0C342.5,181.5,342.5,186.8,339.2,190.1"/>
		</g>
	</g>
</g>
<g>
	<g>
		<path class="st1" d="M205.7,726.3c0,12.7-8.3,24.8-26.2,24.8h-57.1v-93.2h51.4c18.3,0,26.3,14,26.3,24.6
			c0,10.1-6.6,17.9-13.7,20.7C199,704.9,205.7,715.4,205.7,726.3z M148.3,693.2h18.9c3.6,0,6.7-2.8,6.7-7c0-3.9-3.1-6.6-6.7-6.6
			h-18.9V693.2z M179.5,722.1c0-3.9-2.9-7.3-7.7-7.3h-23.5v14.4h23.5C176.6,729.3,179.5,726.5,179.5,722.1z"/>
		<path class="st1" d="M212.9,717.2c0-19.6,14.7-35.4,36-35.4c19,0,33.9,14.3,33.9,38.2v4.2h-46.3c1.5,5.6,7,11.1,16,11.1
			c3.6,0,11.3-1.7,15.4-4.3l9.2,14.3c-6.6,5.2-17.9,7.6-27.4,7.6C229,752.8,212.9,739.5,212.9,717.2z M248.8,699.3
			c-8.5,0-11.8,6.7-12.6,10.8h25.1C260.3,705.3,257.8,699.3,248.8,699.3z"/>
		<path class="st1" d="M289.7,743c3.1-5.3,6-10.1,9.1-15.4c5.7,4.2,16.7,8.1,23.8,8.1c6.2,0,8-1.7,8-4.1c0-3.4-4.5-3.9-10.4-4.8
			c-10.9-1.7-28.1-5.5-28.1-22.7c0-11.9,10.4-22.4,29.1-22.4c10.5,0,20.3,3.2,27.7,8.3c-2.8,5.3-5.3,9.4-8.1,14.6
			c-4.5-3.2-12-6.4-19.5-6.4c-4.3,0-7.4,1.5-7.4,4.2s4.2,3.4,9.8,4.2c10.8,1.7,28.6,5.9,28.6,23.4c0,13.2-11.6,22.8-30.9,22.8
			C309.3,752.8,296.9,749,289.7,743z"/>
		<path class="st1" d="M360.7,717.2c0-18.9,13.6-35.4,37-35.4s37.1,16.5,37.1,35.4c0,19-13.7,35.6-37.1,35.6
			S360.7,736.3,360.7,717.2z M411,717.2c0-8.4-4.8-14.7-13.3-14.7c-8.4,0-13.2,6.3-13.2,14.7c0,8.5,4.8,15,13.2,15
			C406.2,732.2,411,725.8,411,717.2z"/>
		<path class="st1" d="M446.7,660.5c0-6.3,5.2-11.2,11.6-11.2c6.2,0,11.3,4.9,11.3,11.2c0,6.2-5.2,11.2-11.3,11.2
			C451.8,671.7,446.7,666.7,446.7,660.5z M446.7,751.1v-67.5h23v67.5H446.7z"/>
		<path class="st1" d="M531.1,751.1v-37.5c0-8-4.3-11.1-11.2-11.1c-6.3,0-11.9,4.5-11.9,14.6v34h-23v-67.5h23v8.8
			c4.5-5.7,12.9-10.6,24.5-10.6c14.7,0,21.6,9.2,21.6,20.9v48.4H531.1z"/>
		<path class="st1" d="M600.5,717.2c0-18.9,12.3-35.4,31.4-35.4c4.1,0,12.9,1.5,18.8,10.6h0.1v-34.6h23v93.2h-23v-8.5h-0.1
			c-5.9,9.1-14.6,10.2-18.8,10.2C613.4,752.8,600.5,736.3,600.5,717.2z M650.8,717.2c0-8.4-4.8-14.7-13.3-14.7
			c-8.4,0-13.2,6.3-13.2,14.7c0,8.5,4.8,15,13.2,15C646,732.2,650.8,725.8,650.8,717.2z"/>
		<path class="st1" d="M688.2,699.7c4.3-3.5,7.4-10.8,7.4-17.6c0-0.8,0-1.8-0.1-2.8c-5.7-1.8-8.1-5.6-8.1-11.5
			c0-7.1,5.7-12.3,13.2-12.3c9.2,0,15.7,7.6,15.7,17.9c0,16.1-12.3,30-28,31.4V699.7z"/>
		<path class="st1" d="M723.9,717.2c0-18.9,12.3-35.4,31.4-35.4c4.1,0,12.9,1.5,18.8,10.6h0.1v-8.8h23v67.5h-23v-8.5H774
			c-5.9,9.1-14.6,10.2-18.8,10.2C736.7,752.8,723.9,736.3,723.9,717.2z M774.1,717.2c0-8.4-4.8-14.7-13.3-14.7
			c-8.4,0-13.2,6.3-13.2,14.7c0,8.5,4.8,15,13.2,15C769.4,732.2,774.1,725.8,774.1,717.2z"/>
		<path class="st1" d="M812.5,660.5c0-6.3,5.2-11.2,11.6-11.2c6.2,0,11.3,4.9,11.3,11.2c0,6.2-5.2,11.2-11.3,11.2
			C817.7,671.7,812.5,666.7,812.5,660.5z M812.5,751.1v-67.5h23v67.5H812.5z"/>
		<path class="st1" d="M847.3,717.2c0-18.9,12.3-35.4,31.4-35.4c4.1,0,12.9,1.5,18.8,10.6h0.1v-34.6h23v93.2h-23v-8.5h-0.1
			c-5.9,9.1-14.6,10.2-18.8,10.2C860.2,752.8,847.3,736.3,847.3,717.2z M897.6,717.2c0-8.4-4.8-14.7-13.3-14.7
			c-8.4,0-13.2,6.3-13.2,14.7c0,8.5,4.8,15,13.2,15C892.8,732.2,897.6,725.8,897.6,717.2z"/>
		<path class="st1" d="M932.4,717.2c0-19.6,14.7-35.4,36-35.4c19,0,33.9,14.3,33.9,38.2v4.2H956c1.5,5.6,7,11.1,16,11.1
			c3.6,0,11.3-1.7,15.4-4.3l9.2,14.3c-6.6,5.2-17.9,7.6-27.4,7.6C948.5,752.8,932.4,739.5,932.4,717.2z M968.4,699.3
			c-8.5,0-11.8,6.7-12.6,10.8h25.1C979.9,705.3,977.4,699.3,968.4,699.3z"/>
		<path class="st1" d="M1101.6,683.1c0,14.6-11.1,23.8-21.4,23.8v6.4c0,6-5,10.9-11.1,10.9c-6,0-10.9-4.9-10.9-10.9v-21.6
			c10.5,0,15.4-2.1,15.4-7.6c0-3.6-3.5-5.3-6.4-5.6c-4.6-0.6-10.2,2.8-12.5,5.9l-14-15.4c7.6-8.8,18.9-13.6,31.2-13.6
			C1090.4,655.5,1101.6,670.1,1101.6,683.1z M1058,741.9c0-6,5-10.9,10.9-10.9c6.3,0,11.1,4.9,11.1,10.9c0,5.9-4.8,10.8-11.1,10.8
			C1063.1,752.7,1058,747.8,1058,741.9z"/>
		<path class="st1" d="M183.9,891.1l-36-51v51h-25.8v-93.2h27.2l34,47.9v-47.9h25.6v93.2H183.9z"/>
		<path class="st1" d="M220.1,857.2c0-18.9,13.6-35.4,37-35.4s37.1,16.5,37.1,35.4c0,19-13.7,35.6-37.1,35.6
			S220.1,876.3,220.1,857.2z M270.4,857.2c0-8.4-4.8-14.7-13.3-14.7c-8.4,0-13.2,6.3-13.2,14.7c0,8.5,4.8,15,13.2,15
			C265.6,872.2,270.4,865.8,270.4,857.2z"/>
		<path class="st1" d="M302.6,883c3.1-5.3,6-10.1,9.1-15.4c5.7,4.2,16.7,8.1,23.8,8.1c6.2,0,8-1.7,8-4.1c0-3.4-4.5-3.9-10.4-4.8
			c-10.9-1.7-28.1-5.5-28.1-22.7c0-11.9,10.4-22.4,29.1-22.4c10.5,0,20.3,3.2,27.7,8.3c-2.8,5.3-5.3,9.4-8.1,14.6
			c-4.5-3.2-12-6.4-19.5-6.4c-4.3,0-7.4,1.5-7.4,4.2s4.2,3.4,9.8,4.2c10.8,1.7,28.6,5.9,28.6,23.4c0,13.2-11.6,22.8-30.9,22.8
			C322.2,892.8,309.7,889,302.6,883z"/>
		<path class="st1" d="M408.2,857.2c0-21.4,16.1-35.4,36.8-35.4c14.3,0,23.1,6.3,27.2,11.8l-14.4,14.3c-2.4-3.1-6.3-5.3-11.6-5.3
			c-7.7,0-14.4,5-14.4,14.7s6.7,15,14.4,15c5.2,0,9.4-2.7,11.8-5.5c5.2,5.2,9.2,9.5,14.3,14.4c-4.1,5.3-13,11.6-27.2,11.6
			C424.3,892.8,408.2,878.8,408.2,857.2z"/>
		<path class="st1" d="M479.1,857.2c0-18.9,13.6-35.4,37-35.4s37.1,16.5,37.1,35.4c0,19-13.7,35.6-37.1,35.6
			S479.1,876.3,479.1,857.2z M529.4,857.2c0-8.4-4.8-14.7-13.3-14.7c-8.4,0-13.2,6.3-13.2,14.7c0,8.5,4.8,15,13.2,15
			C524.6,872.2,529.4,865.8,529.4,857.2z"/>
		<path class="st1" d="M611.2,891.1v-37.5c0-8-4.3-11.1-11.2-11.1c-6.3,0-11.9,4.5-11.9,14.6v34h-23v-67.5h23v8.8
			c4.5-5.7,12.9-10.6,24.5-10.6c14.7,0,21.6,9.2,21.6,20.9v48.4H611.2z"/>
		<path class="st1" d="M646,883c3.1-5.3,6-10.1,9.1-15.4c5.7,4.2,16.7,8.1,23.8,8.1c6.2,0,8-1.7,8-4.1c0-3.4-4.5-3.9-10.4-4.8
			c-10.9-1.7-28.1-5.5-28.1-22.7c0-11.9,10.4-22.4,29.1-22.4c10.5,0,20.3,3.2,27.7,8.3c-2.8,5.3-5.3,9.4-8.1,14.6
			c-4.5-3.2-12-6.4-19.5-6.4c-4.3,0-7.4,1.5-7.4,4.2s4.2,3.4,9.8,4.2c10.8,1.7,28.6,5.9,28.6,23.4c0,13.2-11.6,22.8-30.9,22.8
			C665.6,892.8,653.2,889,646,883z"/>
		<path class="st1" d="M717,857.2c0-19.6,14.7-35.4,36-35.4c19,0,33.9,14.3,33.9,38.2v4.2h-46.3c1.5,5.6,7,11.1,16,11.1
			c3.6,0,11.3-1.7,15.4-4.3l9.2,14.3c-6.6,5.2-17.9,7.6-27.4,7.6C733.1,892.8,717,879.5,717,857.2z M753,839.3
			c-8.5,0-11.8,6.7-12.6,10.8h25.1C764.5,845.3,761.9,839.3,753,839.3z"/>
		<path class="st1" d="M797.4,800.5c0-6.3,5.2-11.2,11.6-11.2c6.2,0,11.3,4.9,11.3,11.2c0,6.2-5.2,11.2-11.3,11.2
			C802.5,811.7,797.4,806.7,797.4,800.5z M797.4,891.1v-67.5h23v67.5H797.4z"/>
		<path class="st1" d="M835.7,891.1v-93.2h23v93.2H835.7z"/>
		<path class="st1" d="M874.1,891.1v-93.2h23v93.2H874.1z"/>
		<path class="st1" d="M908.9,857.2c0-19.6,14.7-35.4,36-35.4c19,0,33.9,14.3,33.9,38.2v4.2h-46.3c1.5,5.6,7,11.1,16,11.1
			c3.6,0,11.3-1.7,15.4-4.3l9.2,14.3c-6.6,5.2-17.9,7.6-27.4,7.6C925,892.8,908.9,879.5,908.9,857.2z M944.9,839.3
			c-8.5,0-11.8,6.7-12.6,10.8h25.1C956.4,845.3,953.9,839.3,944.9,839.3z"/>
		<path class="st1" d="M989.3,891.1v-67.5h23v8.8c4.6-5.7,13.6-10.9,20.7-10.9v22.1c-1.3-0.3-2.7-0.3-4.6-0.3
			c-6.6,0-16.1,1.8-16.1,13.7v34H989.3z"/>
		<path class="st1" d="M1039.7,883c3.1-5.3,6-10.1,9.1-15.4c5.7,4.2,16.7,8.1,23.8,8.1c6.2,0,8-1.7,8-4.1c0-3.4-4.5-3.9-10.4-4.8
			c-10.9-1.7-28.1-5.5-28.1-22.7c0-11.9,10.4-22.4,29.1-22.4c10.5,0,20.3,3.2,27.7,8.3c-2.8,5.3-5.3,9.4-8.1,14.6
			c-4.5-3.2-12-6.4-19.5-6.4c-4.3,0-7.4,1.5-7.4,4.2s4.2,3.4,9.8,4.2c10.8,1.7,28.6,5.9,28.6,23.4c0,13.2-11.6,22.8-30.9,22.8
			C1059.3,892.8,1046.8,889,1039.7,883z"/>
		<path class="st1" d="M118.4,997.2c0-18.9,12.3-35.4,31.4-35.4c4.1,0,12.9,1.5,18.8,10.6h0.1v-34.6h23v93.2h-23v-8.5h-0.1
			c-5.9,9.1-14.6,10.2-18.8,10.2C131.2,1032.8,118.4,1016.3,118.4,997.2z M168.6,997.2c0-8.4-4.8-14.7-13.3-14.7
			c-8.4,0-13.2,6.3-13.2,14.7c0,8.5,4.8,15,13.2,15C163.9,1012.2,168.6,1005.8,168.6,997.2z"/>
		<path class="st1" d="M203.5,997.2c0-19.6,14.7-35.4,36-35.4c19,0,33.9,14.3,33.9,38.2v4.2H227c1.5,5.6,7,11.1,16,11.1
			c3.6,0,11.3-1.7,15.4-4.3l9.2,14.3c-6.6,5.2-17.9,7.6-27.4,7.6C219.6,1032.8,203.5,1019.5,203.5,997.2z M239.5,979.3
			c-8.5,0-11.8,6.7-12.6,10.8h25.1C250.9,985.3,248.4,979.3,239.5,979.3z"/>
		<path class="st1" d="M335.8,1031.1l-25.1-67.5h23.9l13.7,42.6l14-42.6h24.2l-25.5,67.5H335.8z"/>
		<path class="st1" d="M389.4,997.2c0-19.6,14.7-35.4,36-35.4c19,0,33.9,14.3,33.9,38.2v4.2h-46.3c1.5,5.6,7,11.1,16,11.1
			c3.6,0,11.3-1.7,15.4-4.3l9.2,14.3c-6.6,5.2-17.9,7.6-27.4,7.6C405.5,1032.8,389.4,1019.5,389.4,997.2z M425.4,979.3
			c-8.5,0-11.8,6.7-12.6,10.8h25.1C436.9,985.3,434.3,979.3,425.4,979.3z"/>
		<path class="st1" d="M515.8,1031.1v-37.5c0-8-4.3-11.1-11.2-11.1c-6.3,0-11.9,4.5-11.9,14.6v34h-23v-67.5h23v8.8
			c4.5-5.7,12.9-10.6,24.5-10.6c14.7,0,21.6,9.2,21.6,20.9v48.4H515.8z"/>
		<path class="st1" d="M583.2,983.8v17.1c0,6.3,1.8,11.5,11.5,11.5v20.4c-23.1,0-34.4-15.4-34.4-34.4v-14.6H549v-20.2h11.2v-19.2h23
			v19.2h13.6v20.2H583.2z"/>
		<path class="st1" d="M603.5,997.2c0-19.6,14.7-35.4,36-35.4c19,0,33.9,14.3,33.9,38.2v4.2H627c1.5,5.6,7,11.1,16,11.1
			c3.6,0,11.3-1.7,15.4-4.3l9.2,14.3c-6.6,5.2-17.9,7.6-27.4,7.6C619.6,1032.8,603.5,1019.5,603.5,997.2z M639.4,979.3
			c-8.5,0-11.8,6.7-12.6,10.8h25.1C650.9,985.3,648.4,979.3,639.4,979.3z"/>
		<path class="st1" d="M714.9,1023c3.1-5.3,6-10.1,9.1-15.4c5.7,4.2,16.7,8.1,23.8,8.1c6.2,0,8-1.7,8-4.1c0-3.4-4.5-3.9-10.4-4.8
			c-10.9-1.7-28.1-5.5-28.1-22.7c0-11.9,10.4-22.4,29.1-22.4c10.5,0,20.3,3.2,27.7,8.3c-2.8,5.3-5.3,9.4-8.1,14.6
			c-4.5-3.2-12-6.4-19.5-6.4c-4.3,0-7.4,1.5-7.4,4.2s4.2,3.4,9.8,4.2c10.8,1.7,28.6,5.9,28.6,23.4c0,13.2-11.6,22.8-30.9,22.8
			C734.5,1032.8,722,1029,714.9,1023z"/>
		<path class="st1" d="M785.9,997.2c0-18.9,13.6-35.4,37-35.4s37.1,16.5,37.1,35.4c0,19-13.7,35.6-37.1,35.6
			S785.9,1016.3,785.9,997.2z M836.1,997.2c0-8.4-4.8-14.7-13.3-14.7c-8.4,0-13.2,6.3-13.2,14.7c0,8.5,4.8,15,13.2,15
			C831.4,1012.2,836.1,1005.8,836.1,997.2z"/>
		<path class="st1" d="M917.9,1031.1v-37.5c0-8-4.3-11.1-11.2-11.1c-6.3,0-11.9,4.5-11.9,14.6v34h-23v-67.5h23v8.8
			c4.5-5.7,12.9-10.6,24.5-10.6c14.7,0,21.6,9.2,21.6,20.9v48.4H917.9z"/>
		<path class="st1" d="M985.2,983.8v17.1c0,6.3,1.8,11.5,11.5,11.5v20.4c-23.1,0-34.4-15.4-34.4-34.4v-14.6h-11.2v-20.2h11.2v-19.2
			h23v19.2h13.6v20.2H985.2z"/>
		<path class="st1" d="M1038.9,997.2c0-18.9,12.3-35.4,31.4-35.4c4.1,0,12.9,1.5,18.8,10.6h0.1v-8.8h23v67.5h-23v-8.5h-0.1
			c-5.9,9.1-14.6,10.2-18.8,10.2C1051.7,1032.8,1038.9,1016.3,1038.9,997.2z M1077.9,944.3c1.5,1.5,2.2,3.5,2.2,5.5
			s-0.7,4.1-2.2,5.6c-1.7,1.5-3.5,2.4-5.6,2.4c-1.8,0-4.1-1.1-5.6-2.4l-8.8-9c-1.7-1.4-2.4-3.4-2.4-5.5c0-2,0.7-4.1,2.4-5.7
			c1.4-1.4,3.6-2.2,5.5-2.2c2.1,0,4.1,0.8,5.6,2.4L1077.9,944.3z M1089.1,997.2c0-8.4-4.8-14.7-13.3-14.7c-8.4,0-13.2,6.3-13.2,14.7
			c0,8.5,4.8,15,13.2,15C1084.4,1012.2,1089.1,1005.8,1089.1,997.2z"/>
		<path class="st1" d="M139.2,1171.1l-25.1-67.5h23.9l13.7,42.6l14-42.6H190l-25.5,67.5H139.2z"/>
		<path class="st1" d="M192.8,1137.2c0-18.9,13.6-35.4,37-35.4s37.1,16.5,37.1,35.4c0,19-13.7,35.6-37.1,35.6
			S192.8,1156.3,192.8,1137.2z M243.1,1137.2c0-8.4-4.8-14.7-13.3-14.7c-8.4,0-13.2,6.3-13.2,14.7c0,8.5,4.8,15,13.2,15
			C238.3,1152.2,243.1,1145.8,243.1,1137.2z"/>
		<path class="st1" d="M307.8,1123.8v17.1c0,6.3,1.8,11.5,11.5,11.5v20.4c-23.1,0-34.4-15.4-34.4-34.4v-14.6h-11.2v-20.2h11.2v-19.2
			h23v19.2h13.6v20.2H307.8z"/>
		<path class="st1" d="M331.6,1171.1v-67.5h23v8.8c4.6-5.7,13.6-10.9,20.7-10.9v22.1c-1.3-0.3-2.7-0.3-4.6-0.3
			c-6.6,0-16.1,1.8-16.1,13.7v34H331.6z"/>
		<path class="st1" d="M382,1137.2c0-19.6,14.7-35.4,36-35.4c19,0,33.9,14.3,33.9,38.2v4.2h-46.3c1.5,5.6,7,11.1,16,11.1
			c3.6,0,11.3-1.7,15.4-4.3l9.2,14.3c-6.6,5.2-17.9,7.6-27.4,7.6C398.1,1172.8,382,1159.5,382,1137.2z M418,1119.3
			c-8.5,0-11.8,6.7-12.6,10.8h25.1C429.4,1125.3,426.9,1119.3,418,1119.3z"/>
		<path class="st1" d="M493.4,1137.2c0-18.9,12.3-35.4,31.4-35.4c4.1,0,12.9,1.5,18.8,10.6h0.1v-34.6h23v93.2h-23v-8.5h-0.1
			c-5.9,9.1-14.6,10.2-18.8,10.2C506.3,1172.8,493.4,1156.3,493.4,1137.2z M543.7,1137.2c0-8.4-4.8-14.7-13.3-14.7
			c-8.4,0-13.2,6.3-13.2,14.7c0,8.5,4.8,15,13.2,15C538.9,1152.2,543.7,1145.8,543.7,1137.2z"/>
		<path class="st1" d="M582,1080.5c0-6.3,5.2-11.2,11.6-11.2c6.2,0,11.3,4.9,11.3,11.2c0,6.2-5.2,11.2-11.3,11.2
			C587.2,1091.7,582,1086.7,582,1080.5z M582,1171.1v-67.5h23v67.5H582z"/>
		<path class="st1" d="M616.9,1163c3.1-5.3,6-10.1,9.1-15.4c5.7,4.2,16.7,8.1,23.8,8.1c6.2,0,8-1.7,8-4.1c0-3.4-4.5-3.9-10.4-4.8
			c-10.9-1.7-28.1-5.5-28.1-22.7c0-11.9,10.4-22.4,29.1-22.4c10.5,0,20.3,3.2,27.7,8.3c-2.8,5.3-5.3,9.4-8.1,14.6
			c-4.5-3.2-12-6.4-19.5-6.4c-4.3,0-7.4,1.5-7.4,4.2s4.2,3.4,9.8,4.2c10.8,1.7,28.6,5.9,28.6,23.4c0,13.2-11.6,22.8-30.9,22.8
			C636.5,1172.8,624,1169,616.9,1163z"/>
		<path class="st1" d="M714.5,1162.6h-0.1v34.3h-23v-93.2h23v8.8h0.1c5.9-9.1,14.7-10.6,18.8-10.6c19,0,31.4,16.5,31.4,35.4
			c0,19-12.9,35.6-31.4,35.6C729,1172.8,720.4,1171.7,714.5,1162.6z M740.8,1137.2c0-8.4-4.8-14.7-13.2-14.7
			c-8.5,0-13.3,6.3-13.3,14.7c0,8.5,4.8,15,13.3,15C736,1152.2,740.8,1145.8,740.8,1137.2z"/>
		<path class="st1" d="M773,1137.2c0-18.9,13.6-35.4,37-35.4s37.1,16.5,37.1,35.4c0,19-13.7,35.6-37.1,35.6S773,1156.3,773,1137.2z
			 M823.3,1137.2c0-8.4-4.8-14.7-13.3-14.7c-8.4,0-13.2,6.3-13.2,14.7c0,8.5,4.8,15,13.2,15C818.5,1152.2,823.3,1145.8,823.3,1137.2
			z"/>
		<path class="st1" d="M855.5,1163c3.1-5.3,6-10.1,9.1-15.4c5.7,4.2,16.7,8.1,23.8,8.1c6.2,0,8-1.7,8-4.1c0-3.4-4.5-3.9-10.4-4.8
			c-10.9-1.7-28.1-5.5-28.1-22.7c0-11.9,10.4-22.4,29.1-22.4c10.5,0,20.3,3.2,27.7,8.3c-2.8,5.3-5.3,9.4-8.1,14.6
			c-4.5-3.2-12-6.4-19.5-6.4c-4.3,0-7.4,1.5-7.4,4.2s4.2,3.4,9.8,4.2c10.8,1.7,28.6,5.9,28.6,23.4c0,13.2-11.6,22.8-30.9,22.8
			C875.1,1172.8,862.6,1169,855.5,1163z"/>
		<path class="st1" d="M929.9,1080.5c0-6.3,5.2-11.2,11.6-11.2c6.2,0,11.3,4.9,11.3,11.2c0,6.2-5.2,11.2-11.3,11.2
			C935.1,1091.7,929.9,1086.7,929.9,1080.5z M929.9,1171.1v-67.5h23v67.5H929.9z"/>
		<path class="st1" d="M997.3,1123.8v17.1c0,6.3,1.8,11.5,11.5,11.5v20.4c-23.1,0-34.4-15.4-34.4-34.4v-14.6h-11.2v-20.2h11.2v-19.2
			h23v19.2h13.6v20.2H997.3z"/>
		<path class="st1" d="M1021.1,1080.5c0-6.3,5.2-11.2,11.6-11.2c6.2,0,11.3,4.9,11.3,11.2c0,6.2-5.2,11.2-11.3,11.2
			C1026.2,1091.7,1021.1,1086.7,1021.1,1080.5z M1021.1,1171.1v-67.5h23v67.5H1021.1z"/>
		<path class="st1" d="M1055.9,1137.2c0-18.9,13.6-35.4,37-35.4s37.1,16.5,37.1,35.4c0,19-13.7,35.6-37.1,35.6
			S1055.9,1156.3,1055.9,1137.2z M1106.2,1137.2c0-8.4-4.8-14.7-13.3-14.7c-8.4,0-13.2,6.3-13.2,14.7c0,8.5,4.8,15,13.2,15
			C1101.4,1152.2,1106.2,1145.8,1106.2,1137.2z"/>
		<path class="st1" d="M1187.9,1171.1v-37.5c0-8-4.3-11.1-11.2-11.1c-6.3,0-11.9,4.5-11.9,14.6v34h-23v-67.5h23v8.8
			c4.5-5.7,12.9-10.6,24.5-10.6c14.7,0,21.6,9.2,21.6,20.9v48.4H1187.9z"/>
		<path class="st1" d="M145,1302.6h-0.1v34.3h-23v-93.2h23v8.8h0.1c5.9-9.1,14.7-10.6,18.8-10.6c19,0,31.4,16.5,31.4,35.4
			c0,19-12.9,35.6-31.4,35.6C159.5,1312.8,150.8,1311.7,145,1302.6z M171.3,1277.2c0-8.4-4.8-14.7-13.2-14.7
			c-8.5,0-13.3,6.3-13.3,14.7c0,8.5,4.8,15,13.3,15C166.5,1292.2,171.3,1285.8,171.3,1277.2z"/>
		<path class="st1" d="M203.5,1277.2c0-18.9,13.6-35.4,37-35.4s37.1,16.5,37.1,35.4c0,19-13.7,35.6-37.1,35.6
			S203.5,1296.3,203.5,1277.2z M253.7,1277.2c0-8.4-4.8-14.7-13.3-14.7c-8.4,0-13.2,6.3-13.2,14.7c0,8.5,4.8,15,13.2,15
			C249,1292.2,253.7,1285.8,253.7,1277.2z"/>
		<path class="st1" d="M358.3,1243.6v34.6c0,20.3-13.3,34.6-34.4,34.6c-23.1,0-34.4-15.5-34.4-34.6v-34.6h23v37.1
			c0,6.3,1.8,11.5,11.5,11.5c9.5,0,11.5-5.2,11.5-11.5v-37.1H358.3z"/>
		<path class="st1" d="M373.7,1311.1v-67.5h23v8.8c4.6-5.7,13.6-10.9,20.7-10.9v22.1c-1.3-0.3-2.7-0.3-4.6-0.3
			c-6.6,0-16.1,1.8-16.1,13.7v34H373.7z"/>
		<path class="st1" d="M479.6,1311.1l-25.1-67.5h23.9l13.7,42.6l14-42.6h24.2l-25.5,67.5H479.6z"/>
		<path class="st1" d="M533.2,1277.2c0-18.9,13.6-35.4,37-35.4s37.1,16.5,37.1,35.4c0,19-13.7,35.6-37.1,35.6
			S533.2,1296.3,533.2,1277.2z M583.4,1277.2c0-8.4-4.8-14.7-13.3-14.7c-8.4,0-13.2,6.3-13.2,14.7c0,8.5,4.8,15,13.2,15
			C578.7,1292.2,583.4,1285.8,583.4,1277.2z"/>
		<path class="st1" d="M688,1243.6v34.6c0,20.3-13.3,34.6-34.4,34.6c-23.1,0-34.4-15.5-34.4-34.6v-34.6h23v37.1
			c0,6.3,1.8,11.5,11.5,11.5c9.5,0,11.5-5.2,11.5-11.5v-37.1H688z"/>
		<path class="st1" d="M699.9,1303c3.1-5.3,6-10.1,9.1-15.4c5.7,4.2,16.7,8.1,23.8,8.1c6.2,0,8-1.7,8-4.1c0-3.4-4.5-3.9-10.4-4.8
			c-10.9-1.7-28.1-5.5-28.1-22.7c0-11.9,10.4-22.4,29.1-22.4c10.5,0,20.3,3.2,27.7,8.3c-2.8,5.3-5.3,9.4-8.1,14.6
			c-4.5-3.2-12-6.4-19.5-6.4c-4.3,0-7.4,1.5-7.4,4.2s4.2,3.4,9.8,4.2c10.8,1.7,28.6,5.9,28.6,23.4c0,13.2-11.6,22.8-30.9,22.8
			C719.5,1312.8,707.1,1309,699.9,1303z"/>
		<path class="st1" d="M805.5,1277.2c0-18.9,12.3-35.4,31.4-35.4c4.1,0,12.9,1.5,18.8,10.6h0.1v-8.8h23v67.5h-23v-8.5h-0.1
			c-5.9,9.1-14.6,10.2-18.8,10.2C818.4,1312.8,805.5,1296.3,805.5,1277.2z M855.7,1277.2c0-8.4-4.8-14.7-13.3-14.7
			c-8.4,0-13.2,6.3-13.2,14.7c0,8.5,4.8,15,13.2,15C851,1292.2,855.7,1285.8,855.7,1277.2z"/>
		<path class="st1" d="M894.1,1220.5c0-6.3,5.2-11.2,11.6-11.2c6.2,0,11.3,4.9,11.3,11.2c0,6.2-5.2,11.2-11.3,11.2
			C899.3,1231.7,894.1,1226.7,894.1,1220.5z M894.1,1311.1v-67.5h23v67.5H894.1z"/>
		<path class="st1" d="M929,1277.2c0-18.9,12.3-35.4,31.4-35.4c4.1,0,12.9,1.5,18.8,10.6h0.1v-34.6h23v93.2h-23v-8.5h-0.1
			c-5.9,9.1-14.6,10.2-18.8,10.2C941.8,1312.8,929,1296.3,929,1277.2z M979.2,1277.2c0-8.4-4.8-14.7-13.3-14.7
			c-8.4,0-13.2,6.3-13.2,14.7c0,8.5,4.8,15,13.2,15C974.5,1292.2,979.2,1285.8,979.2,1277.2z"/>
		<path class="st1" d="M1014.1,1277.2c0-19.6,14.7-35.4,36-35.4c19,0,33.9,14.3,33.9,38.2v4.2h-46.3c1.5,5.6,7,11.1,16,11.1
			c3.6,0,11.3-1.7,15.4-4.3l9.2,14.3c-6.6,5.2-17.9,7.6-27.4,7.6C1030.2,1312.8,1014.1,1299.5,1014.1,1277.2z M1050,1259.3
			c-8.5,0-11.8,6.7-12.6,10.8h25.1C1061.5,1265.3,1059,1259.3,1050,1259.3z"/>
		<path class="st1" d="M1094.4,1311.1v-67.5h23v8.8c4.6-5.7,13.6-10.9,20.7-10.9v22.1c-1.3-0.3-2.7-0.3-4.6-0.3
			c-6.6,0-16.1,1.8-16.1,13.7v34H1094.4z"/>
		<path class="st1" d="M118.4,1417.2c0-18.9,12.3-35.4,31.4-35.4c4.1,0,12.9,1.5,18.8,10.6h0.1v-34.6h23v93.2h-23v-8.5h-0.1
			c-5.9,9.1-14.6,10.2-18.8,10.2C131.2,1452.8,118.4,1436.3,118.4,1417.2z M168.6,1417.2c0-8.4-4.8-14.7-13.3-14.7
			c-8.4,0-13.2,6.3-13.2,14.7c0,8.5,4.8,15,13.2,15C163.9,1432.2,168.6,1425.8,168.6,1417.2z"/>
		<path class="st1" d="M203.5,1417.2c0-18.9,12.3-35.4,31.4-35.4c4.1,0,12.9,1.5,18.8,10.6h0.1v-8.8h23v67.5h-23v-8.5h-0.1
			c-5.9,9.1-14.6,10.2-18.8,10.2C216.4,1452.8,203.5,1436.3,203.5,1417.2z M253.7,1417.2c0-8.4-4.8-14.7-13.3-14.7
			c-8.4,0-13.2,6.3-13.2,14.7c0,8.5,4.8,15,13.2,15C249,1432.2,253.7,1425.8,253.7,1417.2z"/>
		<path class="st1" d="M338.2,1451.1v-37.5c0-8-4.3-11.1-11.2-11.1c-6.3,0-11.9,4.5-11.9,14.6v34h-23v-67.5h23v8.8
			c4.5-5.7,12.9-10.6,24.5-10.6c14.7,0,21.6,9.2,21.6,20.9v48.4H338.2z"/>
		<path class="st1" d="M373,1443c3.1-5.3,6-10.1,9.1-15.4c5.7,4.2,16.7,8.1,23.8,8.1c6.2,0,8-1.7,8-4.1c0-3.4-4.5-3.9-10.4-4.8
			c-10.9-1.7-28.1-5.5-28.1-22.7c0-11.9,10.4-22.4,29.1-22.4c10.5,0,20.3,3.2,27.7,8.3c-2.8,5.3-5.3,9.4-8.1,14.6
			c-4.5-3.2-12-6.4-19.5-6.4c-4.3,0-7.4,1.5-7.4,4.2s4.2,3.4,9.8,4.2c10.8,1.7,28.6,5.9,28.6,23.4c0,13.2-11.6,22.8-30.9,22.8
			C392.6,1452.8,380.2,1449,373,1443z"/>
		<path class="st1" d="M499.4,1451.1l-25.1-67.5h23.9l13.7,42.6l14-42.6h24.2l-25.5,67.5H499.4z"/>
		<path class="st1" d="M553.1,1417.2c0-18.9,13.6-35.4,37-35.4s37.1,16.5,37.1,35.4c0,19-13.7,35.6-37.1,35.6
			S553.1,1436.3,553.1,1417.2z M603.3,1417.2c0-8.4-4.8-14.7-13.3-14.7c-8.4,0-13.2,6.3-13.2,14.7c0,8.5,4.8,15,13.2,15
			C598.6,1432.2,603.3,1425.8,603.3,1417.2z"/>
		<path class="st1" d="M635.5,1443c3.1-5.3,6-10.1,9.1-15.4c5.7,4.2,16.7,8.1,23.8,8.1c6.2,0,8-1.7,8-4.1c0-3.4-4.5-3.9-10.4-4.8
			c-10.9-1.7-28.1-5.5-28.1-22.7c0-11.9,10.4-22.4,29.1-22.4c10.5,0,20.3,3.2,27.7,8.3c-2.8,5.3-5.3,9.4-8.1,14.6
			c-4.5-3.2-12-6.4-19.5-6.4c-4.3,0-7.4,1.5-7.4,4.2s4.2,3.4,9.8,4.2c10.8,1.7,28.6,5.9,28.6,23.4c0,13.2-11.6,22.8-30.9,22.8
			C655.1,1452.8,642.7,1449,635.5,1443z"/>
		<path class="st1" d="M767.7,1442.6h-0.1v34.3h-23v-93.2h23v8.8h0.1c5.9-9.1,14.7-10.6,18.8-10.6c19,0,31.4,16.5,31.4,35.4
			c0,19-12.9,35.6-31.4,35.6C782.2,1452.8,773.6,1451.7,767.7,1442.6z M794,1417.2c0-8.4-4.8-14.7-13.2-14.7
			c-8.5,0-13.3,6.3-13.3,14.7c0,8.5,4.8,15,13.3,15C789.2,1432.2,794,1425.8,794,1417.2z"/>
		<path class="st1" d="M829.7,1451.1v-67.5h23v8.8c4.6-5.7,13.6-10.9,20.7-10.9v22.1c-1.3-0.3-2.7-0.3-4.6-0.3
			c-6.6,0-16.1,1.8-16.1,13.7v34H829.7z"/>
		<path class="st1" d="M880.1,1417.2c0-18.9,13.6-35.4,37-35.4s37.1,16.5,37.1,35.4c0,19-13.7,35.6-37.1,35.6
			S880.1,1436.3,880.1,1417.2z M930.4,1417.2c0-8.4-4.8-14.7-13.3-14.7c-8.4,0-13.2,6.3-13.2,14.7c0,8.5,4.8,15,13.2,15
			C925.6,1432.2,930.4,1425.8,930.4,1417.2z"/>
		<path class="st1" d="M955.6,1459c9.7,0,11.5-5.2,11.5-11.5v-63.8h23v61.5c0,18.9-11.5,34.3-34.4,34.3
			C955.6,1479.4,955.6,1479.4,955.6,1459z M966.8,1360.5c0-6.3,5.2-11.2,11.6-11.2c6.2,0,11.3,4.9,11.3,11.2
			c0,6.2-5.2,11.2-11.3,11.2C971.9,1371.7,966.8,1366.7,966.8,1360.5z"/>
		<path class="st1" d="M1001.8,1417.2c0-19.6,14.7-35.4,36-35.4c19,0,33.9,14.3,33.9,38.2v4.2h-46.3c1.5,5.6,7,11.1,16,11.1
			c3.6,0,11.3-1.7,15.4-4.3l9.2,14.3c-6.6,5.2-17.9,7.6-27.4,7.6C1017.8,1452.8,1001.8,1439.5,1001.8,1417.2z M1037.7,1399.3
			c-8.5,0-11.8,6.7-12.6,10.8h25.1C1049.2,1405.3,1046.7,1399.3,1037.7,1399.3z"/>
		<path class="st1" d="M1111.1,1403.8v17.1c0,6.3,1.8,11.5,11.5,11.5v20.4c-23.1,0-34.4-15.4-34.4-34.4v-14.6h-11.2v-20.2h11.2
			v-19.2h23v19.2h13.6v20.2H1111.1z"/>
		<path class="st1" d="M1131.4,1443c3.1-5.3,6-10.1,9.1-15.4c5.7,4.2,16.7,8.1,23.8,8.1c6.2,0,8-1.7,8-4.1c0-3.4-4.5-3.9-10.4-4.8
			c-10.9-1.7-28.1-5.5-28.1-22.7c0-11.9,10.4-22.4,29.1-22.4c10.5,0,20.3,3.2,27.7,8.3c-2.8,5.3-5.3,9.4-8.1,14.6
			c-4.5-3.2-12-6.4-19.5-6.4c-4.3,0-7.4,1.5-7.4,4.2s4.2,3.4,9.8,4.2c10.8,1.7,28.6,5.9,28.6,23.4c0,13.2-11.6,22.8-30.9,22.8
			C1151,1452.8,1138.5,1449,1131.4,1443z"/>
		<path class="st1" d="M1242.1,1441.9c0-6,5-10.9,10.9-10.9c6.3,0,11.1,4.9,11.1,10.9c0,5.9-4.8,10.8-11.1,10.8
			C1247.2,1452.7,1242.1,1447.8,1242.1,1441.9z M1242.4,1356.9h21.6v56.6c0,6-4.8,10.8-10.8,10.8c-6,0-10.8-4.8-10.8-10.8V1356.9z"
			/>
	</g>
</g>
<g>
	<g>
		<path class="st1" d="M120.5,1589.8h16.1c3,0,5.5,2.4,5.5,5.4c0,3.1-2.5,5.4-5.5,5.4h-16.1c-3,0-5.3-2.3-5.3-5.4
			C115.2,1592.2,117.5,1589.8,120.5,1589.8z"/>
		<path class="st1" d="M151.1,1589.8h16.1c3,0,5.5,2.4,5.5,5.4c0,3.1-2.5,5.4-5.5,5.4h-16.1c-3,0-5.3-2.3-5.3-5.4
			C145.8,1592.2,148.1,1589.8,151.1,1589.8z"/>
		<path class="st1" d="M181.7,1589.8h16.1c3,0,5.5,2.4,5.5,5.4c0,3.1-2.5,5.4-5.5,5.4h-16.1c-3,0-5.3-2.3-5.3-5.4
			C176.4,1592.2,178.7,1589.8,181.7,1589.8z"/>
		<path class="st1" d="M212.3,1589.8h16.1c3,0,5.5,2.4,5.5,5.4c0,3.1-2.5,5.4-5.5,5.4h-16.1c-3,0-5.3-2.3-5.3-5.4
			C207,1592.2,209.3,1589.8,212.3,1589.8z"/>
		<path class="st1" d="M242.9,1589.8H259c3,0,5.5,2.4,5.5,5.4c0,3.1-2.5,5.4-5.5,5.4h-16.1c-3,0-5.3-2.3-5.3-5.4
			C237.6,1592.2,239.9,1589.8,242.9,1589.8z"/>
		<path class="st1" d="M273.5,1589.8h16.1c3,0,5.5,2.4,5.5,5.4c0,3.1-2.5,5.4-5.5,5.4h-16.1c-3,0-5.3-2.3-5.3-5.4
			C268.2,1592.2,270.5,1589.8,273.5,1589.8z"/>
		<path class="st1" d="M304.1,1589.8h16.1c3,0,5.5,2.4,5.5,5.4c0,3.1-2.5,5.4-5.5,5.4h-16.1c-3,0-5.3-2.3-5.3-5.4
			C298.8,1592.2,301.1,1589.8,304.1,1589.8z"/>
		<path class="st1" d="M334.7,1589.8h16.1c3,0,5.5,2.4,5.5,5.4c0,3.1-2.5,5.4-5.5,5.4h-16.1c-3,0-5.3-2.3-5.3-5.4
			C329.4,1592.2,331.7,1589.8,334.7,1589.8z"/>
		<path class="st1" d="M365.3,1589.8h16.1c3,0,5.5,2.4,5.5,5.4c0,3.1-2.5,5.4-5.5,5.4h-16.1c-3,0-5.3-2.3-5.3-5.4
			C360,1592.2,362.3,1589.8,365.3,1589.8z"/>
		<path class="st1" d="M395.9,1589.8H412c3,0,5.5,2.4,5.5,5.4c0,3.1-2.5,5.4-5.5,5.4h-16.1c-3,0-5.3-2.3-5.3-5.4
			C390.6,1592.2,392.9,1589.8,395.9,1589.8z"/>
		<path class="st1" d="M426.5,1589.8h16.1c3,0,5.5,2.4,5.5,5.4c0,3.1-2.5,5.4-5.5,5.4h-16.1c-3,0-5.3-2.3-5.3-5.4
			C421.2,1592.2,423.5,1589.8,426.5,1589.8z"/>
		<path class="st1" d="M457.1,1589.8h16.1c3,0,5.5,2.4,5.5,5.4c0,3.1-2.5,5.4-5.5,5.4h-16.1c-3,0-5.3-2.3-5.3-5.4
			C451.8,1592.2,454.1,1589.8,457.1,1589.8z"/>
		<path class="st1" d="M487.7,1589.8h16.1c3,0,5.5,2.4,5.5,5.4c0,3.1-2.5,5.4-5.5,5.4h-16.1c-3,0-5.3-2.3-5.3-5.4
			C482.4,1592.2,484.7,1589.8,487.7,1589.8z"/>
		<path class="st1" d="M518.3,1589.8h16.1c3,0,5.5,2.4,5.5,5.4c0,3.1-2.5,5.4-5.5,5.4h-16.1c-3,0-5.3-2.3-5.3-5.4
			C513,1592.2,515.3,1589.8,518.3,1589.8z"/>
		<path class="st1" d="M548.9,1589.8H565c3,0,5.5,2.4,5.5,5.4c0,3.1-2.5,5.4-5.5,5.4h-16.1c-3,0-5.3-2.3-5.3-5.4
			C543.6,1592.2,545.9,1589.8,548.9,1589.8z"/>
		<path class="st1" d="M579.5,1589.8h16.1c3,0,5.5,2.4,5.5,5.4c0,3.1-2.5,5.4-5.5,5.4h-16.1c-3,0-5.3-2.3-5.3-5.4
			C574.2,1592.2,576.5,1589.8,579.5,1589.8z"/>
		<path class="st1" d="M610.1,1589.8h16.1c3,0,5.5,2.4,5.5,5.4c0,3.1-2.5,5.4-5.5,5.4h-16.1c-3,0-5.3-2.3-5.3-5.4
			C604.8,1592.2,607.1,1589.8,610.1,1589.8z"/>
		<path class="st1" d="M640.7,1589.8h16.1c3,0,5.5,2.4,5.5,5.4c0,3.1-2.5,5.4-5.5,5.4h-16.1c-3,0-5.3-2.3-5.3-5.4
			C635.4,1592.2,637.7,1589.8,640.7,1589.8z"/>
		<path class="st1" d="M671.3,1589.8h16.1c3,0,5.5,2.4,5.5,5.4c0,3.1-2.5,5.4-5.5,5.4h-16.1c-3,0-5.3-2.3-5.3-5.4
			C666,1592.2,668.3,1589.8,671.3,1589.8z"/>
		<path class="st1" d="M701.9,1589.8H718c3,0,5.5,2.4,5.5,5.4c0,3.1-2.5,5.4-5.5,5.4h-16.1c-3,0-5.3-2.3-5.3-5.4
			C696.6,1592.2,698.9,1589.8,701.9,1589.8z"/>
		<path class="st1" d="M732.5,1589.8h16.1c3,0,5.5,2.4,5.5,5.4c0,3.1-2.5,5.4-5.5,5.4h-16.1c-3,0-5.3-2.3-5.3-5.4
			C727.2,1592.2,729.5,1589.8,732.5,1589.8z"/>
		<path class="st1" d="M763.1,1589.8h16.1c3,0,5.5,2.4,5.5,5.4c0,3.1-2.5,5.4-5.5,5.4h-16.1c-3,0-5.3-2.3-5.3-5.4
			C757.8,1592.2,760.1,1589.8,763.1,1589.8z"/>
		<path class="st1" d="M793.7,1589.8h16.1c3,0,5.5,2.4,5.5,5.4c0,3.1-2.5,5.4-5.5,5.4h-16.1c-3,0-5.3-2.3-5.3-5.4
			C788.4,1592.2,790.7,1589.8,793.7,1589.8z"/>
		<path class="st1" d="M824.3,1589.8h16.1c3,0,5.5,2.4,5.5,5.4c0,3.1-2.5,5.4-5.5,5.4h-16.1c-3,0-5.3-2.3-5.3-5.4
			C819,1592.2,821.3,1589.8,824.3,1589.8z"/>
		<path class="st1" d="M854.9,1589.8H871c3,0,5.5,2.4,5.5,5.4c0,3.1-2.5,5.4-5.5,5.4h-16.1c-3,0-5.3-2.3-5.3-5.4
			C849.6,1592.2,851.9,1589.8,854.9,1589.8z"/>
		<path class="st1" d="M885.5,1589.8h16.1c3,0,5.5,2.4,5.5,5.4c0,3.1-2.5,5.4-5.5,5.4h-16.1c-3,0-5.3-2.3-5.3-5.4
			C880.2,1592.2,882.5,1589.8,885.5,1589.8z"/>
		<path class="st1" d="M916.1,1589.8h16.1c3,0,5.5,2.4,5.5,5.4c0,3.1-2.5,5.4-5.5,5.4h-16.1c-3,0-5.3-2.3-5.3-5.4
			C910.8,1592.2,913.1,1589.8,916.1,1589.8z"/>
		<path class="st1" d="M946.7,1589.8h16.1c3,0,5.5,2.4,5.5,5.4c0,3.1-2.5,5.4-5.5,5.4h-16.1c-3,0-5.3-2.3-5.3-5.4
			C941.4,1592.2,943.7,1589.8,946.7,1589.8z"/>
		<path class="st1" d="M977.3,1589.8h16.1c3,0,5.5,2.4,5.5,5.4c0,3.1-2.5,5.4-5.5,5.4h-16.1c-3,0-5.3-2.3-5.3-5.4
			C972,1592.2,974.3,1589.8,977.3,1589.8z"/>
		<path class="st1" d="M1007.9,1589.8h16.1c3,0,5.5,2.4,5.5,5.4c0,3.1-2.5,5.4-5.5,5.4h-16.1c-3,0-5.3-2.3-5.3-5.4
			C1002.6,1592.2,1004.9,1589.8,1007.9,1589.8z"/>
		<path class="st1" d="M1038.5,1589.8h16.1c3,0,5.5,2.4,5.5,5.4c0,3.1-2.5,5.4-5.5,5.4h-16.1c-3,0-5.3-2.3-5.3-5.4
			C1033.2,1592.2,1035.5,1589.8,1038.5,1589.8z"/>
		<path class="st1" d="M1069.1,1589.8h16.1c3,0,5.5,2.4,5.5,5.4c0,3.1-2.5,5.4-5.5,5.4h-16.1c-3,0-5.3-2.3-5.3-5.4
			C1063.8,1592.2,1066.1,1589.8,1069.1,1589.8z"/>
		<path class="st1" d="M1099.7,1589.8h16.1c3,0,5.5,2.4,5.5,5.4c0,3.1-2.5,5.4-5.5,5.4h-16.1c-3,0-5.3-2.3-5.3-5.4
			C1094.4,1592.2,1096.7,1589.8,1099.7,1589.8z"/>
		<path class="st1" d="M1130.3,1589.8h16.1c3,0,5.5,2.4,5.5,5.4c0,3.1-2.5,5.4-5.5,5.4h-16.1c-3,0-5.3-2.3-5.3-5.4
			C1125,1592.2,1127.3,1589.8,1130.3,1589.8z"/>
		<path class="st1" d="M1160.9,1589.8h16.1c3,0,5.5,2.4,5.5,5.4c0,3.1-2.5,5.4-5.5,5.4h-16.1c-3,0-5.3-2.3-5.3-5.4
			C1155.6,1592.2,1157.9,1589.8,1160.9,1589.8z"/>
		<path class="st1" d="M1191.5,1589.8h16.1c3,0,5.5,2.4,5.5,5.4c0,3.1-2.5,5.4-5.5,5.4h-16.1c-3,0-5.3-2.3-5.3-5.4
			C1186.2,1592.2,1188.5,1589.8,1191.5,1589.8z"/>
		<path class="st1" d="M1222.1,1589.8h16.1c3,0,5.5,2.4,5.5,5.4c0,3.1-2.5,5.4-5.5,5.4h-16.1c-3,0-5.3-2.3-5.3-5.4
			C1216.8,1592.2,1219.1,1589.8,1222.1,1589.8z"/>
		<path class="st1" d="M1252.7,1589.8h16.1c3,0,5.5,2.4,5.5,5.4c0,3.1-2.5,5.4-5.5,5.4h-16.1c-3,0-5.3-2.3-5.3-5.4
			C1247.4,1592.2,1249.7,1589.8,1252.7,1589.8z"/>
	</g>
</g>
</svg>
