<?xml version="1.0" encoding="utf-8"?>
<!-- Generator: Adobe Illustrator 26.5.0, SVG Export Plug-In . SVG Version: 6.00 Build 0)  -->
<svg version="1.1" id="Calque_1" xmlns="http://www.w3.org/2000/svg" xmlns:xlink="http://www.w3.org/1999/xlink" x="0px" y="0px"
	 viewBox="0 0 141.7 388.3" style="enable-background:new 0 0 141.7 388.3;" xml:space="preserve">
<style type="text/css">
	.st0{clip-path:url(#SVGID_00000051356568872317146240000011186846102704281005_);}
	.st1{fill:#D9D8D6;}
	.st2{fill:#050703;}
</style>
<g>
	<defs>
		<rect id="SVGID_1_" width="141.7" height="388.3"/>
	</defs>
	<clipPath id="SVGID_00000001630775512019899170000016412390000997544852_">
		<use xlink:href="#SVGID_1_"  style="overflow:visible;"/>
	</clipPath>
	<g style="clip-path:url(#SVGID_00000001630775512019899170000016412390000997544852_);">
		<rect x="-1.4" y="47.4" class="st1" width="144.6" height="342.3"/>
		<g>
			<g>
				<path class="st2" d="M12.8,59.2c0.5,0,0.8,0.3,0.8,0.8c0,0.5-0.3,0.8-0.8,0.8c-0.5,0-0.8-0.3-0.8-0.8
					C12,59.5,12.4,59.2,12.8,59.2z M12,67.4v-5.8h1.5v5.8H12z"/>
				<path class="st2" d="M14.8,64.5c0-1.8,1.3-3,3.1-3c1.2,0,1.9,0.5,2.3,1l-1,0.9c-0.3-0.4-0.7-0.6-1.2-0.6c-0.9,0-1.6,0.7-1.6,1.7
					c0,1,0.7,1.7,1.6,1.7c0.5,0,1-0.2,1.2-0.6l1,0.9c-0.4,0.5-1.1,1.1-2.3,1.1C16.1,67.5,14.8,66.3,14.8,64.5z"/>
				<path class="st2" d="M22,59.2c0.5,0,0.8,0.3,0.8,0.8c0,0.5-0.3,0.8-0.8,0.8c-0.5,0-0.8-0.3-0.8-0.8C21.2,59.5,21.6,59.2,22,59.2
					z M21.3,67.4v-5.8h1.5v5.8H21.3z"/>
				<path class="st2" d="M24.2,68.6c0.3-0.3,0.5-0.8,0.5-1.2c0-0.1,0-0.1,0-0.2c-0.4-0.1-0.6-0.4-0.6-0.8c0-0.5,0.4-0.9,0.9-0.9
					c0.6,0,1.1,0.5,1.1,1.2c0,1.1-0.9,2.1-1.9,2.2V68.6z"/>
				<path class="st2" d="M13.6,79.4l-2.4-5.8h1.7l1.5,4l1.6-4h1.7l-2.4,5.8H13.6z"/>
				<path class="st2" d="M17.9,76.5c0-1.6,1.2-3,3.1-3c2,0,3.1,1.4,3.1,3s-1.2,3-3.1,3C19.1,79.5,17.9,78.1,17.9,76.5z M22.6,76.5
					c0-0.9-0.6-1.7-1.5-1.7c-1,0-1.5,0.8-1.5,1.7c0,0.9,0.6,1.7,1.5,1.7C22,78.2,22.6,77.4,22.6,76.5z"/>
				<path class="st2" d="M25.3,76.8v-3.2h1.5V77c0,0.7,0.5,1.2,1.2,1.2s1.2-0.5,1.2-1.2v-3.4h1.5v3.2c0,1.5-1.1,2.8-2.8,2.8
					S25.3,78.3,25.3,76.8z"/>
				<path class="st2" d="M31.9,78.6l0.7-1.1c0.4,0.4,1.3,0.8,2,0.8c0.7,0,1-0.3,1-0.6c0-0.9-3.5-0.2-3.5-2.4c0-1,0.9-1.8,2.4-1.8
					c1,0,1.8,0.3,2.4,0.8l-0.6,1.1c-0.4-0.4-1-0.7-1.8-0.7c-0.6,0-0.9,0.2-0.9,0.6c0,0.9,3.5,0.1,3.5,2.5c0,1.1-0.9,1.8-2.6,1.8
					C33.5,79.5,32.6,79.2,31.9,78.6z"/>
				<path class="st2" d="M40.8,73.6h1V72h1.5v1.6h1.2v1.3h-1.2v2c0,0.7,0.6,1.2,1.2,1.2v1.4c-1.5,0-2.8-1.2-2.8-2.8v-1.8h-1V73.6z"
					/>
				<path class="st2" d="M49,74.9c-0.1,0-0.2,0-0.3,0h-0.2c-0.6,0-1.3,0.4-1.3,1.5c0,0.5,0,3,0,3h-1.5v-5.8h1.5v1
					c0.4-0.6,1-1.1,1.9-1.1V74.9z"/>
				<path class="st2" d="M49.6,76.5c0-1.6,1.2-3,3.1-3c2,0,3.1,1.4,3.1,3s-1.2,3-3.1,3C50.7,79.5,49.6,78.1,49.6,76.5z M54.2,76.5
					c0-0.9-0.6-1.7-1.5-1.7c-1,0-1.5,0.8-1.5,1.7c0,0.9,0.6,1.7,1.5,1.7C53.7,78.2,54.2,77.4,54.2,76.5z"/>
				<path class="st2" d="M57,76.8v-3.2h1.5V77c0,0.7,0.5,1.2,1.2,1.2S61,77.6,61,77v-3.4h1.5v3.2c0,1.5-1.1,2.8-2.8,2.8
					S57,78.3,57,76.8z"/>
				<path class="st2" d="M65.6,79.4l-2.4-5.8h1.7l1.5,4l1.6-4h1.7l-2.4,5.8H65.6z"/>
				<path class="st2" d="M70,76.5c0-1.7,1.3-3,3.1-3c1.8,0,3,1.3,3,3.2V77h-4.4c0.1,0.7,0.7,1.3,1.7,1.3c0.5,0,1.2-0.2,1.6-0.6
					l0.7,1c-0.6,0.5-1.5,0.8-2.4,0.8C71.3,79.5,70,78.3,70,76.5z M74.5,75.9c0-0.6-0.4-1.2-1.5-1.2c-1,0-1.4,0.7-1.4,1.2H74.5z"/>
				<path class="st2" d="M80.6,74.9c-0.1,0-0.2,0-0.3,0H80c-0.6,0-1.3,0.4-1.3,1.5c0,0.5,0,3,0,3h-1.5v-5.8h1.5v1
					c0.4-0.6,1-1.1,1.9-1.1V74.9z"/>
				<path class="st2" d="M81.2,76.5c0-1.7,1.3-3,3.1-3c1.8,0,3,1.3,3,3.2V77h-4.4c0.1,0.7,0.7,1.3,1.7,1.3c0.5,0,1.2-0.2,1.6-0.6
					l0.7,1c-0.6,0.5-1.5,0.8-2.4,0.8C82.5,79.5,81.2,78.3,81.2,76.5z M85.7,75.9c0-0.6-0.4-1.2-1.5-1.2c-1,0-1.4,0.7-1.4,1.2H85.7z"
					/>
				<path class="st2" d="M88.1,79.4v-1.1l2.7-3.3h-2.7v-1.3h4.8v1.1l-2.7,3.4h2.8v1.3H88.1z"/>
				<path class="st2" d="M96.7,73.6h1V72h1.5v1.6h1.2v1.3h-1.2v2c0,0.7,0.6,1.2,1.2,1.2v1.4c-1.5,0-2.8-1.2-2.8-2.8v-1.8h-1V73.6z"
					/>
				<path class="st2" d="M101.1,76.5c0-1.6,1.2-3,3.1-3c2,0,3.1,1.4,3.1,3s-1.2,3-3.1,3C102.3,79.5,101.1,78.1,101.1,76.5z
					 M105.8,76.5c0-0.9-0.6-1.7-1.5-1.7c-1,0-1.5,0.8-1.5,1.7c0,0.9,0.6,1.7,1.5,1.7C105.2,78.2,105.8,77.4,105.8,76.5z"/>
				<path class="st2" d="M108.5,76.8v-3.2h1.5V77c0,0.7,0.5,1.2,1.2,1.2s1.2-0.5,1.2-1.2v-3.4h1.5v3.2c0,1.5-1.1,2.8-2.8,2.8
					C109.6,79.5,108.5,78.3,108.5,76.8z"/>
				<path class="st2" d="M115.1,78.6l0.7-1.1c0.4,0.4,1.3,0.8,2,0.8c0.7,0,1-0.3,1-0.6c0-0.9-3.5-0.2-3.5-2.4c0-1,0.9-1.8,2.4-1.8
					c1,0,1.8,0.3,2.4,0.8l-0.6,1.1c-0.4-0.4-1-0.7-1.8-0.7c-0.6,0-0.9,0.2-0.9,0.6c0,0.9,3.5,0.1,3.5,2.5c0,1.1-0.9,1.8-2.6,1.8
					C116.7,79.5,115.8,79.2,115.1,78.6z"/>
				<path class="st2" d="M12,91.4v-8h1.5v8H12z"/>
				<path class="st2" d="M14.7,88.5c0-1.7,1.3-3,3.1-3c1.8,0,3,1.3,3,3.2V89h-4.4c0.1,0.7,0.7,1.3,1.7,1.3c0.5,0,1.2-0.2,1.6-0.6
					l0.7,1c-0.6,0.5-1.5,0.8-2.4,0.8C16.1,91.5,14.7,90.3,14.7,88.5z M19.2,87.9c0-0.6-0.4-1.2-1.5-1.2c-1,0-1.4,0.7-1.4,1.2H19.2z"
					/>
				<path class="st2" d="M21.4,90.6l0.7-1.1c0.4,0.4,1.3,0.8,2,0.8c0.7,0,1-0.3,1-0.6c0-0.9-3.5-0.2-3.5-2.4c0-1,0.9-1.8,2.4-1.8
					c1,0,1.8,0.3,2.4,0.8l-0.6,1.1c-0.4-0.4-1-0.7-1.8-0.7c-0.6,0-0.9,0.2-0.9,0.6c0,0.9,3.5,0.1,3.5,2.5c0,1.1-0.9,1.8-2.6,1.8
					C23,91.5,22,91.2,21.4,90.6z"/>
				<path class="st2" d="M36.7,85.6v5.8h-1.5v-0.9c-0.6,0.9-1.4,1-1.9,1c-1.8,0-2.8-1.4-2.8-3s1.1-3,2.8-3c0.4,0,1.2,0.2,1.9,1.1v-1
					H36.7z M35.2,88.5c0-0.9-0.5-1.7-1.5-1.7c-1,0-1.5,0.8-1.5,1.7c0,0.9,0.5,1.7,1.5,1.7C34.6,90.2,35.2,89.4,35.2,88.5z"/>
				<path class="st2" d="M37.9,88.5c0-1.8,1.3-3,3.1-3c1.2,0,1.9,0.5,2.3,1l-1,0.9c-0.3-0.4-0.7-0.6-1.2-0.6c-0.9,0-1.6,0.7-1.6,1.7
					s0.7,1.7,1.6,1.7c0.5,0,1-0.2,1.2-0.6l1,0.9c-0.4,0.5-1.1,1.1-2.3,1.1C39.2,91.5,37.9,90.3,37.9,88.5z"/>
				<path class="st2" d="M44,88.5c0-1.8,1.3-3,3.1-3c1.2,0,1.9,0.5,2.3,1l-1,0.9c-0.3-0.4-0.7-0.6-1.2-0.6c-0.9,0-1.6,0.7-1.6,1.7
					s0.7,1.7,1.6,1.7c0.5,0,1-0.2,1.2-0.6l1,0.9c-0.4,0.5-1.1,1.1-2.3,1.1C45.3,91.5,44,90.3,44,88.5z"/>
				<path class="st2" d="M50.1,88.5c0-1.7,1.3-3,3.1-3c1.8,0,3,1.3,3,3.2V89h-4.4c0.1,0.7,0.7,1.3,1.7,1.3c0.5,0,1.2-0.2,1.6-0.6
					l0.7,1c-0.6,0.5-1.5,0.8-2.4,0.8C51.4,91.5,50.1,90.3,50.1,88.5z M54.6,87.9c0-0.6-0.4-1.2-1.5-1.2c-1,0-1.4,0.7-1.4,1.2H54.6z"
					/>
				<path class="st2" d="M56.8,90.6l0.7-1.1c0.4,0.4,1.3,0.8,2,0.8c0.7,0,1-0.3,1-0.6c0-0.9-3.5-0.2-3.5-2.4c0-1,0.9-1.8,2.4-1.8
					c1,0,1.8,0.3,2.4,0.8l-0.6,1.1c-0.4-0.4-1-0.7-1.8-0.7c-0.6,0-0.9,0.2-0.9,0.6c0,0.9,3.5,0.1,3.5,2.5c0,1.1-0.9,1.8-2.6,1.8
					C58.4,91.5,57.4,91.2,56.8,90.6z"/>
				<path class="st2" d="M62.6,90.6l0.7-1.1c0.4,0.4,1.3,0.8,2,0.8c0.7,0,1-0.3,1-0.6c0-0.9-3.5-0.2-3.5-2.4c0-1,0.9-1.8,2.4-1.8
					c1,0,1.8,0.3,2.4,0.8L67,87.3c-0.4-0.4-1-0.7-1.8-0.7c-0.6,0-0.9,0.2-0.9,0.6c0,0.9,3.5,0.1,3.5,2.5c0,1.1-0.9,1.8-2.6,1.8
					C64.2,91.5,63.2,91.2,62.6,90.6z"/>
				<path class="st2" d="M68.6,88.5c0-1.6,1.2-3,3.1-3c2,0,3.1,1.4,3.1,3s-1.2,3-3.1,3C69.8,91.5,68.6,90.1,68.6,88.5z M73.2,88.5
					c0-0.9-0.6-1.7-1.5-1.7c-1,0-1.5,0.8-1.5,1.7c0,0.9,0.6,1.7,1.5,1.7C72.7,90.2,73.2,89.4,73.2,88.5z"/>
				<path class="st2" d="M76.8,83.2c0.5,0,0.8,0.3,0.8,0.8c0,0.5-0.3,0.8-0.8,0.8c-0.5,0-0.8-0.3-0.8-0.8
					C76,83.5,76.3,83.2,76.8,83.2z M76,91.4v-5.8h1.5v5.8H76z"/>
				<path class="st2" d="M82.5,86.9c-0.1,0-0.2,0-0.3,0H82c-0.6,0-1.3,0.4-1.3,1.5c0,0.5,0,3,0,3h-1.5v-5.8h1.5v1
					c0.4-0.6,1-1.1,1.9-1.1V86.9z"/>
				<path class="st2" d="M83.1,88.5c0-1.7,1.3-3,3.1-3c1.8,0,3,1.3,3,3.2V89h-4.4c0.1,0.7,0.7,1.3,1.7,1.3c0.5,0,1.2-0.2,1.6-0.6
					l0.7,1c-0.6,0.5-1.5,0.8-2.4,0.8C84.5,91.5,83.1,90.3,83.1,88.5z M87.6,87.9c0-0.6-0.4-1.2-1.5-1.2c-1,0-1.4,0.7-1.4,1.2H87.6z"
					/>
				<path class="st2" d="M89.8,90.6l0.7-1.1c0.4,0.4,1.3,0.8,2,0.8c0.7,0,1-0.3,1-0.6c0-0.9-3.5-0.2-3.5-2.4c0-1,0.9-1.8,2.4-1.8
					c1,0,1.8,0.3,2.4,0.8l-0.6,1.1c-0.4-0.4-1-0.7-1.8-0.7c-0.6,0-0.9,0.2-0.9,0.6c0,0.9,3.5,0.1,3.5,2.5c0,1.1-0.9,1.8-2.6,1.8
					C91.4,91.5,90.4,91.2,89.8,90.6z"/>
				<path class="st2" d="M100.8,85.6v1c0.6-1,1.4-1.1,1.9-1.1c1.6,0,2.8,1.4,2.8,3s-1,3-2.8,3c-0.4,0-1.2-0.2-1.9-1v3.1h-1.5v-8
					H100.8z M103.8,88.5c0-0.9-0.5-1.7-1.5-1.7c-1,0-1.5,0.8-1.5,1.7c0,0.9,0.5,1.7,1.5,1.7C103.3,90.2,103.8,89.4,103.8,88.5z"/>
				<path class="st2" d="M106.3,88.5c0-1.6,1.2-3,3.1-3c2,0,3.1,1.4,3.1,3s-1.2,3-3.1,3C107.4,91.5,106.3,90.1,106.3,88.5z
					 M110.9,88.5c0-0.9-0.6-1.7-1.5-1.7c-1,0-1.5,0.8-1.5,1.7c0,0.9,0.6,1.7,1.5,1.7C110.4,90.2,110.9,89.4,110.9,88.5z"/>
				<path class="st2" d="M113.7,88.8v-3.2h1.5V89c0,0.7,0.5,1.2,1.2,1.2s1.2-0.5,1.2-1.2v-3.4h1.5v3.2c0,1.5-1.1,2.8-2.8,2.8
					C114.7,91.5,113.7,90.3,113.7,88.8z"/>
				<path class="st2" d="M124.2,86.9c-0.1,0-0.2,0-0.3,0h-0.2c-0.6,0-1.3,0.4-1.3,1.5c0,0.5,0,3,0,3h-1.5v-5.8h1.5v1
					c0.4-0.6,1-1.1,1.9-1.1V86.9z"/>
				<path class="st2" d="M128.1,86.5c0-0.5,0.4-1,1-1s1,0.4,1,1s-0.4,1-1,1S128.1,87,128.1,86.5z M128.1,90.5c0-0.5,0.4-1,1-1
					s1,0.4,1,1c0,0.5-0.4,1-1,1S128.1,91.1,128.1,90.5z"/>
			</g>
		</g>
		<g>
			<g>
				<g>
					<g>
						<path class="st2" d="M13.9,195.7c0-3.4,2.2-6.3,5.6-6.3c0.7,0,2.3,0.3,3.3,1.9h0v-1.6H27v12h-4.1v-1.5h0
							c-1,1.6-2.6,1.8-3.3,1.8C16.2,202.1,13.9,199.1,13.9,195.7z M22.9,195.7c0-1.5-0.8-2.6-2.4-2.6c-1.5,0-2.3,1.1-2.3,2.6
							c0,1.5,0.8,2.7,2.3,2.7C22,198.4,22.9,197.3,22.9,195.7z"/>
						<path class="st2" d="M29.1,195.7c0-3.8,2.9-6.3,6.6-6.3c2.5,0,4.1,1.1,4.8,2.1l-2.6,2.5c-0.4-0.5-1.1-0.9-2.1-0.9
							c-1.4,0-2.6,0.9-2.6,2.6s1.2,2.7,2.6,2.7c0.9,0,1.7-0.5,2.1-1c0.9,0.9,1.6,1.7,2.5,2.6c-0.7,0.9-2.3,2.1-4.8,2.1
							C32,202.1,29.1,199.6,29.1,195.7z"/>
						<path class="st2" d="M41.8,195.7c0-3.8,2.9-6.3,6.6-6.3c2.5,0,4.1,1.1,4.8,2.1l-2.6,2.5c-0.4-0.5-1.1-0.9-2.1-0.9
							c-1.4,0-2.6,0.9-2.6,2.6s1.2,2.7,2.6,2.7c0.9,0,1.7-0.5,2.1-1c0.9,0.9,1.6,1.7,2.5,2.6c-0.7,0.9-2.3,2.1-4.8,2.1
							C44.7,202.1,41.8,199.6,41.8,195.7z"/>
						<path class="st2" d="M67.4,189.7v6.2c0,3.6-2.4,6.2-6.1,6.2c-4.1,0-6.1-2.8-6.1-6.2v-6.2h4.1v6.6c0,1.1,0.3,2,2,2
							c1.7,0,2-0.9,2-2v-6.6H67.4z"/>
						<path class="st2" d="M69.5,195.7c0-3.5,2.6-6.3,6.4-6.3c3.4,0,6,2.5,6,6.8v0.8h-8.3c0.3,1,1.2,2,2.8,2c0.7,0,2-0.3,2.8-0.8
							l1.6,2.5c-1.2,0.9-3.2,1.3-4.9,1.3C72.4,202.1,69.5,199.7,69.5,195.7z M75.9,192.5c-1.5,0-2.1,1.2-2.2,1.9h4.5
							C78,193.6,77.5,192.5,75.9,192.5z"/>
						<path class="st2" d="M83.9,185.6c0-1.1,0.9-2,2.1-2c1.1,0,2,0.9,2,2c0,1.1-0.9,2-2,2C84.8,187.6,83.9,186.7,83.9,185.6z
							 M83.9,201.8v-12H88v12H83.9z"/>
						<path class="st2" d="M90.7,201.8v-16.6h4.1v16.6H90.7z"/>
					</g>
				</g>
			</g>
			<g>
				<g>
					<path class="st2" d="M128.1,203.7c-5.5,5.5-14.5,5.5-20.1,0c-5.5-5.5-5.5-14.5,0-20.1c5.5-5.5,14.5-5.5,20.1,0
						C133.6,189.2,133.6,198.2,128.1,203.7z M108.9,184.5c-5.1,5.1-5.1,13.3,0,18.3c5.1,5.1,13.3,5.1,18.3,0
						c5.1-5.1,5.1-13.3,0-18.3C122.2,179.5,113.9,179.5,108.9,184.5z"/>
					<path class="st2" d="M110.4,187.2l12.8,12.8l-11.3,0c-0.5,0-0.8,0.4-0.8,0.8c0,0.5,0.4,0.8,0.8,0.8l13.2,0
						c0.3,0,0.5-0.1,0.7-0.3c0.2-0.2,0.2-0.4,0.2-0.6l0-13.2c0-0.5-0.4-0.8-0.8-0.8c-0.5,0-0.8,0.4-0.8,0.8l0,11.2L111.6,186
						c-0.3-0.3-0.9-0.3-1.2,0C110.1,186.3,110.1,186.9,110.4,187.2"/>
				</g>
			</g>
		</g>
		<g>
			<g>
				<path class="st2" d="M22.1,225.3c0,1.3-0.8,2.5-2.6,2.5h-5.7v-9.3h5.1c1.8,0,2.6,1.4,2.6,2.5c0,1-0.7,1.8-1.4,2.1
					C21.4,223.1,22.1,224.2,22.1,225.3z M16.4,221.9h1.9c0.4,0,0.7-0.3,0.7-0.7c0-0.4-0.3-0.7-0.7-0.7h-1.9V221.9z M19.5,224.8
					c0-0.4-0.3-0.7-0.8-0.7h-2.4v1.4h2.4C19.2,225.6,19.5,225.3,19.5,224.8z"/>
				<path class="st2" d="M22.8,224.4c0-2,1.5-3.5,3.6-3.5c1.9,0,3.4,1.4,3.4,3.8v0.4h-4.6c0.2,0.6,0.7,1.1,1.6,1.1
					c0.4,0,1.1-0.2,1.5-0.4l0.9,1.4c-0.7,0.5-1.8,0.8-2.7,0.8C24.4,227.9,22.8,226.6,22.8,224.4z M26.4,222.6
					c-0.9,0-1.2,0.7-1.3,1.1h2.5C27.6,223.2,27.3,222.6,26.4,222.6z"/>
				<path class="st2" d="M30.5,226.9c0.3-0.5,0.6-1,0.9-1.5c0.6,0.4,1.7,0.8,2.4,0.8c0.6,0,0.8-0.2,0.8-0.4c0-0.3-0.4-0.4-1-0.5
					c-1.1-0.2-2.8-0.5-2.8-2.3c0-1.2,1-2.2,2.9-2.2c1.1,0,2,0.3,2.8,0.8c-0.3,0.5-0.5,0.9-0.8,1.5c-0.4-0.3-1.2-0.6-1.9-0.6
					c-0.4,0-0.7,0.2-0.7,0.4c0,0.3,0.4,0.3,1,0.4c1.1,0.2,2.9,0.6,2.9,2.3c0,1.3-1.2,2.3-3.1,2.3C32.5,227.9,31.2,227.5,30.5,226.9z
					"/>
				<path class="st2" d="M37.6,224.4c0-1.9,1.4-3.5,3.7-3.5s3.7,1.7,3.7,3.5c0,1.9-1.4,3.6-3.7,3.6S37.6,226.3,37.6,224.4z
					 M42.6,224.4c0-0.8-0.5-1.5-1.3-1.5c-0.8,0-1.3,0.6-1.3,1.5c0,0.9,0.5,1.5,1.3,1.5C42.1,225.9,42.6,225.2,42.6,224.4z"/>
				<path class="st2" d="M46.2,218.7c0-0.6,0.5-1.1,1.2-1.1c0.6,0,1.1,0.5,1.1,1.1c0,0.6-0.5,1.1-1.1,1.1
					C46.7,219.8,46.2,219.3,46.2,218.7z M46.2,227.7V221h2.3v6.8H46.2z"/>
				<path class="st2" d="M54.6,227.7V224c0-0.8-0.4-1.1-1.1-1.1c-0.6,0-1.2,0.4-1.2,1.5v3.4H50V221h2.3v0.9c0.4-0.6,1.3-1.1,2.5-1.1
					c1.5,0,2.2,0.9,2.2,2.1v4.8H54.6z"/>
				<path class="st2" d="M61.6,224.4c0-1.9,1.2-3.5,3.1-3.5c0.4,0,1.3,0.2,1.9,1.1h0v-3.5h2.3v9.3h-2.3v-0.9h0c-0.6,0.9-1.5,1-1.9,1
					C62.9,227.9,61.6,226.3,61.6,224.4z M66.6,224.4c0-0.8-0.5-1.5-1.3-1.5c-0.8,0-1.3,0.6-1.3,1.5c0,0.9,0.5,1.5,1.3,1.5
					C66.1,225.9,66.6,225.2,66.6,224.4z"/>
				<path class="st2" d="M70.3,222.6c0.4-0.4,0.7-1.1,0.7-1.8c0-0.1,0-0.2,0-0.3c-0.6-0.2-0.8-0.6-0.8-1.1c0-0.7,0.6-1.2,1.3-1.2
					c0.9,0,1.6,0.8,1.6,1.8c0,1.6-1.2,3-2.8,3.1V222.6z"/>
				<path class="st2" d="M73.9,224.4c0-1.9,1.2-3.5,3.1-3.5c0.4,0,1.3,0.2,1.9,1.1h0V221h2.3v6.8h-2.3v-0.9h0c-0.6,0.9-1.5,1-1.9,1
					C75.2,227.9,73.9,226.3,73.9,224.4z M78.9,224.4c0-0.8-0.5-1.5-1.3-1.5c-0.8,0-1.3,0.6-1.3,1.5c0,0.9,0.5,1.5,1.3,1.5
					C78.5,225.9,78.9,225.2,78.9,224.4z"/>
				<path class="st2" d="M82.8,218.7c0-0.6,0.5-1.1,1.2-1.1c0.6,0,1.1,0.5,1.1,1.1c0,0.6-0.5,1.1-1.1,1.1
					C83.3,219.8,82.8,219.3,82.8,218.7z M82.8,227.7V221h2.3v6.8H82.8z"/>
				<path class="st2" d="M86.3,224.4c0-1.9,1.2-3.5,3.1-3.5c0.4,0,1.3,0.2,1.9,1.1h0v-3.5h2.3v9.3h-2.3v-0.9h0c-0.6,0.9-1.5,1-1.9,1
					C87.5,227.9,86.3,226.3,86.3,224.4z M91.3,224.4c0-0.8-0.5-1.5-1.3-1.5c-0.8,0-1.3,0.6-1.3,1.5c0,0.9,0.5,1.5,1.3,1.5
					C90.8,225.9,91.3,225.2,91.3,224.4z"/>
				<path class="st2" d="M94.8,224.4c0-2,1.5-3.5,3.6-3.5c1.9,0,3.4,1.4,3.4,3.8v0.4h-4.6c0.2,0.6,0.7,1.1,1.6,1.1
					c0.4,0,1.1-0.2,1.5-0.4l0.9,1.4c-0.7,0.5-1.8,0.8-2.7,0.8C96.4,227.9,94.8,226.6,94.8,224.4z M98.4,222.6
					c-0.9,0-1.2,0.7-1.3,1.1h2.5C99.5,223.2,99.3,222.6,98.4,222.6z"/>
				<path class="st2" d="M111.7,220.9c0,1.5-1.1,2.4-2.1,2.4v0.6c0,0.6-0.5,1.1-1.1,1.1s-1.1-0.5-1.1-1.1v-2.2
					c1.1,0,1.5-0.2,1.5-0.8c0-0.4-0.3-0.5-0.6-0.6c-0.5-0.1-1,0.3-1.2,0.6l-1.4-1.5c0.8-0.9,1.9-1.4,3.1-1.4
					C110.6,218.2,111.7,219.6,111.7,220.9z M107.3,226.8c0-0.6,0.5-1.1,1.1-1.1c0.6,0,1.1,0.5,1.1,1.1c0,0.6-0.5,1.1-1.1,1.1
					C107.8,227.9,107.3,227.4,107.3,226.8z"/>
				<path class="st2" d="M19.9,241.7l-3.6-5.1v5.1h-2.6v-9.3h2.7l3.4,4.8v-4.8h2.6v9.3H19.9z"/>
				<path class="st2" d="M23.5,238.4c0-1.9,1.4-3.5,3.7-3.5s3.7,1.7,3.7,3.5c0,1.9-1.4,3.6-3.7,3.6S23.5,240.3,23.5,238.4z
					 M28.6,238.4c0-0.8-0.5-1.5-1.3-1.5c-0.8,0-1.3,0.6-1.3,1.5c0,0.9,0.5,1.5,1.3,1.5C28.1,239.9,28.6,239.2,28.6,238.4z"/>
				<path class="st2" d="M31.8,240.9c0.3-0.5,0.6-1,0.9-1.5c0.6,0.4,1.7,0.8,2.4,0.8c0.6,0,0.8-0.2,0.8-0.4c0-0.3-0.4-0.4-1-0.5
					c-1.1-0.2-2.8-0.5-2.8-2.3c0-1.2,1-2.2,2.9-2.2c1.1,0,2,0.3,2.8,0.8c-0.3,0.5-0.5,0.9-0.8,1.5c-0.4-0.3-1.2-0.6-1.9-0.6
					c-0.4,0-0.7,0.2-0.7,0.4c0,0.3,0.4,0.3,1,0.4c1.1,0.2,2.9,0.6,2.9,2.3c0,1.3-1.2,2.3-3.1,2.3C33.7,241.9,32.5,241.5,31.8,240.9z
					"/>
				<path class="st2" d="M42.3,238.4c0-2.1,1.6-3.5,3.7-3.5c1.4,0,2.3,0.6,2.7,1.2l-1.4,1.4c-0.2-0.3-0.6-0.5-1.2-0.5
					c-0.8,0-1.4,0.5-1.4,1.5s0.7,1.5,1.4,1.5c0.5,0,0.9-0.3,1.2-0.5c0.5,0.5,0.9,1,1.4,1.4c-0.4,0.5-1.3,1.2-2.7,1.2
					C43.9,241.9,42.3,240.5,42.3,238.4z"/>
				<path class="st2" d="M49.4,238.4c0-1.9,1.4-3.5,3.7-3.5s3.7,1.7,3.7,3.5c0,1.9-1.4,3.6-3.7,3.6S49.4,240.3,49.4,238.4z
					 M54.5,238.4c0-0.8-0.5-1.5-1.3-1.5c-0.8,0-1.3,0.6-1.3,1.5c0,0.9,0.5,1.5,1.3,1.5C54,239.9,54.5,239.2,54.5,238.4z"/>
				<path class="st2" d="M62.6,241.7V238c0-0.8-0.4-1.1-1.1-1.1c-0.6,0-1.2,0.4-1.2,1.5v3.4H58V235h2.3v0.9c0.4-0.6,1.3-1.1,2.5-1.1
					c1.5,0,2.2,0.9,2.2,2.1v4.8H62.6z"/>
				<path class="st2" d="M66.1,240.9c0.3-0.5,0.6-1,0.9-1.5c0.6,0.4,1.7,0.8,2.4,0.8c0.6,0,0.8-0.2,0.8-0.4c0-0.3-0.4-0.4-1-0.5
					c-1.1-0.2-2.8-0.5-2.8-2.3c0-1.2,1-2.2,2.9-2.2c1.1,0,2,0.3,2.8,0.8c-0.3,0.5-0.5,0.9-0.8,1.5c-0.4-0.3-1.2-0.6-1.9-0.6
					c-0.4,0-0.7,0.2-0.7,0.4c0,0.3,0.4,0.3,1,0.4c1.1,0.2,2.9,0.6,2.9,2.3c0,1.3-1.2,2.3-3.1,2.3C68.1,241.9,66.8,241.5,66.1,240.9z
					"/>
				<path class="st2" d="M73.2,238.4c0-2,1.5-3.5,3.6-3.5c1.9,0,3.4,1.4,3.4,3.8v0.4h-4.6c0.2,0.6,0.7,1.1,1.6,1.1
					c0.4,0,1.1-0.2,1.5-0.4l0.9,1.4c-0.7,0.5-1.8,0.8-2.7,0.8C74.8,241.9,73.2,240.6,73.2,238.4z M76.8,236.6
					c-0.9,0-1.2,0.7-1.3,1.1h2.5C78,237.2,77.7,236.6,76.8,236.6z"/>
				<path class="st2" d="M81.3,232.7c0-0.6,0.5-1.1,1.2-1.1c0.6,0,1.1,0.5,1.1,1.1c0,0.6-0.5,1.1-1.1,1.1
					C81.8,233.8,81.3,233.3,81.3,232.7z M81.3,241.7V235h2.3v6.8H81.3z"/>
				<path class="st2" d="M85.1,241.7v-9.3h2.3v9.3H85.1z"/>
				<path class="st2" d="M88.9,241.7v-9.3h2.3v9.3H88.9z"/>
				<path class="st2" d="M92.4,238.4c0-2,1.5-3.5,3.6-3.5c1.9,0,3.4,1.4,3.4,3.8v0.4h-4.6c0.2,0.6,0.7,1.1,1.6,1.1
					c0.4,0,1.1-0.2,1.5-0.4l0.9,1.4c-0.7,0.5-1.8,0.8-2.7,0.8C94,241.9,92.4,240.6,92.4,238.4z M96,236.6c-0.9,0-1.2,0.7-1.3,1.1
					h2.5C97.2,237.2,96.9,236.6,96,236.6z"/>
				<path class="st2" d="M100.4,241.7V235h2.3v0.9c0.5-0.6,1.4-1.1,2.1-1.1v2.2c-0.1,0-0.3,0-0.5,0c-0.7,0-1.6,0.2-1.6,1.4v3.4
					H100.4z"/>
				<path class="st2" d="M105.5,240.9c0.3-0.5,0.6-1,0.9-1.5c0.6,0.4,1.7,0.8,2.4,0.8c0.6,0,0.8-0.2,0.8-0.4c0-0.3-0.4-0.4-1-0.5
					c-1.1-0.2-2.8-0.5-2.8-2.3c0-1.2,1-2.2,2.9-2.2c1,0,2,0.3,2.8,0.8c-0.3,0.5-0.5,0.9-0.8,1.5c-0.4-0.3-1.2-0.6-1.9-0.6
					c-0.4,0-0.7,0.2-0.7,0.4c0,0.3,0.4,0.3,1,0.4c1.1,0.2,2.9,0.6,2.9,2.3c0,1.3-1.2,2.3-3.1,2.3
					C107.4,241.9,106.2,241.5,105.5,240.9z"/>
				<path class="st2" d="M13.4,252.4c0-1.9,1.2-3.5,3.1-3.5c0.4,0,1.3,0.2,1.9,1.1h0v-3.5h2.3v9.3h-2.3v-0.9h0c-0.6,0.9-1.5,1-1.9,1
					C14.6,255.9,13.4,254.3,13.4,252.4z M18.4,252.4c0-0.8-0.5-1.5-1.3-1.5c-0.8,0-1.3,0.6-1.3,1.5c0,0.9,0.5,1.5,1.3,1.5
					C17.9,253.9,18.4,253.2,18.4,252.4z"/>
				<path class="st2" d="M21.9,252.4c0-2,1.5-3.5,3.6-3.5c1.9,0,3.4,1.4,3.4,3.8v0.4h-4.6c0.2,0.6,0.7,1.1,1.6,1.1
					c0.4,0,1.1-0.2,1.5-0.4l0.9,1.4c-0.7,0.5-1.8,0.8-2.7,0.8C23.5,255.9,21.9,254.6,21.9,252.4z M25.5,250.6
					c-0.9,0-1.2,0.7-1.3,1.1h2.5C26.6,251.2,26.4,250.6,25.5,250.6z"/>
				<path class="st2" d="M35.1,255.7l-2.5-6.8H35l1.4,4.3l1.4-4.3h2.4l-2.5,6.8H35.1z"/>
				<path class="st2" d="M40.5,252.4c0-2,1.5-3.5,3.6-3.5c1.9,0,3.4,1.4,3.4,3.8v0.4h-4.6c0.2,0.6,0.7,1.1,1.6,1.1
					c0.4,0,1.1-0.2,1.5-0.4l0.9,1.4c-0.7,0.5-1.8,0.8-2.7,0.8C42.1,255.9,40.5,254.6,40.5,252.4z M44.1,250.6
					c-0.9,0-1.2,0.7-1.3,1.1h2.5C45.2,251.2,45,250.6,44.1,250.6z"/>
				<path class="st2" d="M53.1,255.7V252c0-0.8-0.4-1.1-1.1-1.1c-0.6,0-1.2,0.4-1.2,1.5v3.4h-2.3V249h2.3v0.9
					c0.4-0.6,1.3-1.1,2.5-1.1c1.5,0,2.2,0.9,2.2,2.1v4.8H53.1z"/>
				<path class="st2" d="M59.8,251v1.7c0,0.6,0.2,1.1,1.1,1.1v2c-2.3,0-3.4-1.5-3.4-3.4V251h-1.1v-2h1.1v-1.9h2.3v1.9h1.4v2H59.8z"
					/>
				<path class="st2" d="M61.9,252.4c0-2,1.5-3.5,3.6-3.5c1.9,0,3.4,1.4,3.4,3.8v0.4h-4.6c0.2,0.6,0.7,1.1,1.6,1.1
					c0.4,0,1.1-0.2,1.5-0.4l0.9,1.4c-0.7,0.5-1.8,0.8-2.7,0.8C63.5,255.9,61.9,254.6,61.9,252.4z M65.5,250.6
					c-0.9,0-1.2,0.7-1.3,1.1h2.5C66.6,251.2,66.4,250.6,65.5,250.6z"/>
				<path class="st2" d="M73,254.9c0.3-0.5,0.6-1,0.9-1.5c0.6,0.4,1.7,0.8,2.4,0.8c0.6,0,0.8-0.2,0.8-0.4c0-0.3-0.4-0.4-1-0.5
					c-1.1-0.2-2.8-0.5-2.8-2.3c0-1.2,1-2.2,2.9-2.2c1,0,2,0.3,2.8,0.8c-0.3,0.5-0.5,0.9-0.8,1.5c-0.4-0.3-1.2-0.6-1.9-0.6
					c-0.4,0-0.7,0.2-0.7,0.4c0,0.3,0.4,0.3,1,0.4c1.1,0.2,2.9,0.6,2.9,2.3c0,1.3-1.2,2.3-3.1,2.3C75,255.9,73.7,255.5,73,254.9z"/>
				<path class="st2" d="M80.1,252.4c0-1.9,1.4-3.5,3.7-3.5s3.7,1.7,3.7,3.5c0,1.9-1.4,3.6-3.7,3.6S80.1,254.3,80.1,252.4z
					 M85.1,252.4c0-0.8-0.5-1.5-1.3-1.5c-0.8,0-1.3,0.6-1.3,1.5c0,0.9,0.5,1.5,1.3,1.5C84.7,253.9,85.1,253.2,85.1,252.4z"/>
				<path class="st2" d="M93.3,255.7V252c0-0.8-0.4-1.1-1.1-1.1c-0.6,0-1.2,0.4-1.2,1.5v3.4h-2.3V249H91v0.9
					c0.4-0.6,1.3-1.1,2.5-1.1c1.5,0,2.2,0.9,2.2,2.1v4.8H93.3z"/>
				<path class="st2" d="M100,251v1.7c0,0.6,0.2,1.1,1.1,1.1v2c-2.3,0-3.4-1.5-3.4-3.4V251h-1.1v-2h1.1v-1.9h2.3v1.9h1.4v2H100z"/>
				<path class="st2" d="M105.4,252.4c0-1.9,1.2-3.5,3.1-3.5c0.4,0,1.3,0.2,1.9,1.1h0V249h2.3v6.8h-2.3v-0.9h0c-0.6,0.9-1.5,1-1.9,1
					C106.7,255.9,105.4,254.3,105.4,252.4z M109.3,247.1c0.2,0.2,0.2,0.3,0.2,0.5s-0.1,0.4-0.2,0.6c-0.2,0.2-0.3,0.2-0.6,0.2
					c-0.2,0-0.4-0.1-0.6-0.2l-0.9-0.9c-0.2-0.1-0.2-0.3-0.2-0.5c0-0.2,0.1-0.4,0.2-0.6c0.1-0.1,0.4-0.2,0.5-0.2
					c0.2,0,0.4,0.1,0.6,0.2L109.3,247.1z M110.4,252.4c0-0.8-0.5-1.5-1.3-1.5c-0.8,0-1.3,0.6-1.3,1.5c0,0.9,0.5,1.5,1.3,1.5
					C110,253.9,110.4,253.2,110.4,252.4z"/>
				<path class="st2" d="M15.4,269.7l-2.5-6.8h2.4l1.4,4.3l1.4-4.3h2.4l-2.5,6.8H15.4z"/>
				<path class="st2" d="M20.8,266.4c0-1.9,1.4-3.5,3.7-3.5s3.7,1.7,3.7,3.5c0,1.9-1.4,3.6-3.7,3.6S20.8,268.3,20.8,266.4z
					 M25.8,266.4c0-0.8-0.5-1.5-1.3-1.5c-0.8,0-1.3,0.6-1.3,1.5c0,0.9,0.5,1.5,1.3,1.5C25.4,267.9,25.8,267.2,25.8,266.4z"/>
				<path class="st2" d="M32.3,265v1.7c0,0.6,0.2,1.1,1.1,1.1v2c-2.3,0-3.4-1.5-3.4-3.4V265h-1.1v-2H30v-1.9h2.3v1.9h1.4v2H32.3z"/>
				<path class="st2" d="M34.7,269.7V263H37v0.9c0.5-0.6,1.4-1.1,2.1-1.1v2.2c-0.1,0-0.3,0-0.5,0c-0.7,0-1.6,0.2-1.6,1.4v3.4H34.7z"
					/>
				<path class="st2" d="M39.7,266.4c0-2,1.5-3.5,3.6-3.5c1.9,0,3.4,1.4,3.4,3.8v0.4h-4.6c0.2,0.6,0.7,1.1,1.6,1.1
					c0.4,0,1.1-0.2,1.5-0.4l0.9,1.4c-0.7,0.5-1.8,0.8-2.7,0.8C41.3,269.9,39.7,268.6,39.7,266.4z M43.3,264.6
					c-0.9,0-1.2,0.7-1.3,1.1h2.5C44.5,265.2,44.2,264.6,43.3,264.6z"/>
				<path class="st2" d="M50.9,266.4c0-1.9,1.2-3.5,3.1-3.5c0.4,0,1.3,0.2,1.9,1.1h0v-3.5h2.3v9.3h-2.3v-0.9h0c-0.6,0.9-1.5,1-1.9,1
					C52.1,269.9,50.9,268.3,50.9,266.4z M55.9,266.4c0-0.8-0.5-1.5-1.3-1.5c-0.8,0-1.3,0.6-1.3,1.5c0,0.9,0.5,1.5,1.3,1.5
					C55.4,267.9,55.9,267.2,55.9,266.4z"/>
				<path class="st2" d="M59.7,260.7c0-0.6,0.5-1.1,1.2-1.1c0.6,0,1.1,0.5,1.1,1.1c0,0.6-0.5,1.1-1.1,1.1
					C60.2,261.8,59.7,261.3,59.7,260.7z M59.7,269.7V263H62v6.8H59.7z"/>
				<path class="st2" d="M63.2,268.9c0.3-0.5,0.6-1,0.9-1.5c0.6,0.4,1.7,0.8,2.4,0.8c0.6,0,0.8-0.2,0.8-0.4c0-0.3-0.4-0.4-1-0.5
					c-1.1-0.2-2.8-0.5-2.8-2.3c0-1.2,1-2.2,2.9-2.2c1.1,0,2,0.3,2.8,0.8c-0.3,0.5-0.5,0.9-0.8,1.5c-0.4-0.3-1.2-0.6-1.9-0.6
					c-0.4,0-0.7,0.2-0.7,0.4c0,0.3,0.4,0.3,1,0.4c1.1,0.2,2.9,0.6,2.9,2.3c0,1.3-1.2,2.3-3.1,2.3C65.2,269.9,63.9,269.5,63.2,268.9z
					"/>
				<path class="st2" d="M73,268.9L73,268.9l0,3.4h-2.3V263H73v0.9h0c0.6-0.9,1.5-1.1,1.9-1.1c1.9,0,3.1,1.7,3.1,3.5
					c0,1.9-1.3,3.6-3.1,3.6C74.4,269.9,73.6,269.8,73,268.9z M75.6,266.4c0-0.8-0.5-1.5-1.3-1.5c-0.9,0-1.3,0.6-1.3,1.5
					c0,0.9,0.5,1.5,1.3,1.5C75.1,267.9,75.6,267.2,75.6,266.4z"/>
				<path class="st2" d="M78.8,266.4c0-1.9,1.4-3.5,3.7-3.5s3.7,1.7,3.7,3.5c0,1.9-1.4,3.6-3.7,3.6S78.8,268.3,78.8,266.4z
					 M83.8,266.4c0-0.8-0.5-1.5-1.3-1.5c-0.8,0-1.3,0.6-1.3,1.5c0,0.9,0.5,1.5,1.3,1.5C83.4,267.9,83.8,267.2,83.8,266.4z"/>
				<path class="st2" d="M87.1,268.9c0.3-0.5,0.6-1,0.9-1.5c0.6,0.4,1.7,0.8,2.4,0.8c0.6,0,0.8-0.2,0.8-0.4c0-0.3-0.4-0.4-1-0.5
					c-1.1-0.2-2.8-0.5-2.8-2.3c0-1.2,1-2.2,2.9-2.2c1,0,2,0.3,2.8,0.8c-0.3,0.5-0.5,0.9-0.8,1.5c-0.4-0.3-1.2-0.6-1.9-0.6
					c-0.4,0-0.7,0.2-0.7,0.4c0,0.3,0.4,0.3,1,0.4c1.1,0.2,2.9,0.6,2.9,2.3c0,1.3-1.2,2.3-3.1,2.3C89,269.9,87.8,269.5,87.1,268.9z"
					/>
				<path class="st2" d="M94.5,260.7c0-0.6,0.5-1.1,1.2-1.1c0.6,0,1.1,0.5,1.1,1.1c0,0.6-0.5,1.1-1.1,1.1
					C95,261.8,94.5,261.3,94.5,260.7z M94.5,269.7V263h2.3v6.8H94.5z"/>
				<path class="st2" d="M101.2,265v1.7c0,0.6,0.2,1.1,1.1,1.1v2c-2.3,0-3.4-1.5-3.4-3.4V265h-1.1v-2H99v-1.9h2.3v1.9h1.4v2H101.2z"
					/>
				<path class="st2" d="M103.6,260.7c0-0.6,0.5-1.1,1.2-1.1c0.6,0,1.1,0.5,1.1,1.1c0,0.6-0.5,1.1-1.1,1.1
					C104.1,261.8,103.6,261.3,103.6,260.7z M103.6,269.7V263h2.3v6.8H103.6z"/>
				<path class="st2" d="M107.1,266.4c0-1.9,1.4-3.5,3.7-3.5s3.7,1.7,3.7,3.5c0,1.9-1.4,3.6-3.7,3.6S107.1,268.3,107.1,266.4z
					 M112.1,266.4c0-0.8-0.5-1.5-1.3-1.5c-0.8,0-1.3,0.6-1.3,1.5c0,0.9,0.5,1.5,1.3,1.5C111.7,267.9,112.1,267.2,112.1,266.4z"/>
				<path class="st2" d="M120.3,269.7V266c0-0.8-0.4-1.1-1.1-1.1c-0.6,0-1.2,0.4-1.2,1.5v3.4h-2.3V263h2.3v0.9
					c0.4-0.6,1.3-1.1,2.5-1.1c1.5,0,2.2,0.9,2.2,2.1v4.8H120.3z"/>
				<path class="st2" d="M16,282.9L16,282.9l0,3.4h-2.3V277H16v0.9h0c0.6-0.9,1.5-1.1,1.9-1.1c1.9,0,3.1,1.7,3.1,3.5
					c0,1.9-1.3,3.6-3.1,3.6C17.5,283.9,16.6,283.8,16,282.9z M18.7,280.4c0-0.8-0.5-1.5-1.3-1.5c-0.9,0-1.3,0.6-1.3,1.5
					c0,0.9,0.5,1.5,1.3,1.5C18.2,281.9,18.7,281.2,18.7,280.4z"/>
				<path class="st2" d="M21.9,280.4c0-1.9,1.4-3.5,3.7-3.5s3.7,1.7,3.7,3.5c0,1.9-1.4,3.6-3.7,3.6S21.9,282.3,21.9,280.4z
					 M26.9,280.4c0-0.8-0.5-1.5-1.3-1.5c-0.8,0-1.3,0.6-1.3,1.5c0,0.9,0.5,1.5,1.3,1.5C26.4,281.9,26.9,281.2,26.9,280.4z"/>
				<path class="st2" d="M37.4,277v3.5c0,2-1.3,3.5-3.4,3.5c-2.3,0-3.4-1.6-3.4-3.5V277h2.3v3.7c0,0.6,0.2,1.1,1.1,1.1
					c1,0,1.1-0.5,1.1-1.1V277H37.4z"/>
				<path class="st2" d="M38.9,283.7V277h2.3v0.9c0.5-0.6,1.4-1.1,2.1-1.1v2.2c-0.1,0-0.3,0-0.5,0c-0.7,0-1.6,0.2-1.6,1.4v3.4H38.9z
					"/>
				<path class="st2" d="M49.5,283.7L47,277h2.4l1.4,4.3l1.4-4.3h2.4l-2.5,6.8H49.5z"/>
				<path class="st2" d="M54.8,280.4c0-1.9,1.4-3.5,3.7-3.5s3.7,1.7,3.7,3.5c0,1.9-1.4,3.6-3.7,3.6S54.8,282.3,54.8,280.4z
					 M59.9,280.4c0-0.8-0.5-1.5-1.3-1.5c-0.8,0-1.3,0.6-1.3,1.5c0,0.9,0.5,1.5,1.3,1.5C59.4,281.9,59.9,281.2,59.9,280.4z"/>
				<path class="st2" d="M70.3,277v3.5c0,2-1.3,3.5-3.4,3.5c-2.3,0-3.4-1.6-3.4-3.5V277h2.3v3.7c0,0.6,0.2,1.1,1.1,1.1
					c1,0,1.1-0.5,1.1-1.1V277H70.3z"/>
				<path class="st2" d="M71.5,282.9c0.3-0.5,0.6-1,0.9-1.5c0.6,0.4,1.7,0.8,2.4,0.8c0.6,0,0.8-0.2,0.8-0.4c0-0.3-0.4-0.4-1-0.5
					c-1.1-0.2-2.8-0.5-2.8-2.3c0-1.2,1-2.2,2.9-2.2c1,0,2,0.3,2.8,0.8c-0.3,0.5-0.5,0.9-0.8,1.5c-0.4-0.3-1.2-0.6-1.9-0.6
					c-0.4,0-0.7,0.2-0.7,0.4c0,0.3,0.4,0.3,1,0.4c1.1,0.2,2.9,0.6,2.9,2.3c0,1.3-1.2,2.3-3.1,2.3C73.5,283.9,72.2,283.5,71.5,282.9z
					"/>
				<path class="st2" d="M82.1,280.4c0-1.9,1.2-3.5,3.1-3.5c0.4,0,1.3,0.2,1.9,1.1h0V277h2.3v6.8h-2.3v-0.9h0c-0.6,0.9-1.5,1-1.9,1
					C83.4,283.9,82.1,282.3,82.1,280.4z M87.1,280.4c0-0.8-0.5-1.5-1.3-1.5c-0.8,0-1.3,0.6-1.3,1.5c0,0.9,0.5,1.5,1.3,1.5
					C86.6,281.9,87.1,281.2,87.1,280.4z"/>
				<path class="st2" d="M90.9,274.7c0-0.6,0.5-1.1,1.2-1.1c0.6,0,1.1,0.5,1.1,1.1c0,0.6-0.5,1.1-1.1,1.1
					C91.4,275.8,90.9,275.3,90.9,274.7z M90.9,283.7V277h2.3v6.8H90.9z"/>
				<path class="st2" d="M94.4,280.4c0-1.9,1.2-3.5,3.1-3.5c0.4,0,1.3,0.2,1.9,1.1h0v-3.5h2.3v9.3h-2.3v-0.9h0c-0.6,0.9-1.5,1-1.9,1
					C95.7,283.9,94.4,282.3,94.4,280.4z M99.4,280.4c0-0.8-0.5-1.5-1.3-1.5c-0.8,0-1.3,0.6-1.3,1.5c0,0.9,0.5,1.5,1.3,1.5
					C99,281.9,99.4,281.2,99.4,280.4z"/>
				<path class="st2" d="M102.9,280.4c0-2,1.5-3.5,3.6-3.5c1.9,0,3.4,1.4,3.4,3.8v0.4h-4.6c0.2,0.6,0.7,1.1,1.6,1.1
					c0.4,0,1.1-0.2,1.5-0.4l0.9,1.4c-0.7,0.5-1.8,0.8-2.7,0.8C104.5,283.9,102.9,282.6,102.9,280.4z M106.5,278.6
					c-0.9,0-1.2,0.7-1.3,1.1h2.5C107.7,279.2,107.4,278.6,106.5,278.6z"/>
				<path class="st2" d="M111,283.7V277h2.3v0.9c0.5-0.6,1.4-1.1,2.1-1.1v2.2c-0.1,0-0.3,0-0.5,0c-0.7,0-1.6,0.2-1.6,1.4v3.4H111z"
					/>
				<path class="st2" d="M13.4,294.4c0-1.9,1.2-3.5,3.1-3.5c0.4,0,1.3,0.2,1.9,1.1h0v-3.5h2.3v9.3h-2.3v-0.9h0c-0.6,0.9-1.5,1-1.9,1
					C14.6,297.9,13.4,296.3,13.4,294.4z M18.4,294.4c0-0.8-0.5-1.5-1.3-1.5c-0.8,0-1.3,0.6-1.3,1.5c0,0.9,0.5,1.5,1.3,1.5
					C17.9,295.9,18.4,295.2,18.4,294.4z"/>
				<path class="st2" d="M21.9,294.4c0-1.9,1.2-3.5,3.1-3.5c0.4,0,1.3,0.2,1.9,1.1h0V291h2.3v6.8h-2.3v-0.9h0c-0.6,0.9-1.5,1-1.9,1
					C23.2,297.9,21.9,296.3,21.9,294.4z M26.9,294.4c0-0.8-0.5-1.5-1.3-1.5c-0.8,0-1.3,0.6-1.3,1.5c0,0.9,0.5,1.5,1.3,1.5
					C26.4,295.9,26.9,295.2,26.9,294.4z"/>
				<path class="st2" d="M35.3,297.7V294c0-0.8-0.4-1.1-1.1-1.1c-0.6,0-1.2,0.4-1.2,1.5v3.4h-2.3V291H33v0.9
					c0.4-0.6,1.3-1.1,2.5-1.1c1.5,0,2.2,0.9,2.2,2.1v4.8H35.3z"/>
				<path class="st2" d="M38.8,296.9c0.3-0.5,0.6-1,0.9-1.5c0.6,0.4,1.7,0.8,2.4,0.8c0.6,0,0.8-0.2,0.8-0.4c0-0.3-0.4-0.4-1-0.5
					c-1.1-0.2-2.8-0.5-2.8-2.3c0-1.2,1-2.2,2.9-2.2c1.1,0,2,0.3,2.8,0.8c-0.3,0.5-0.5,0.9-0.8,1.5c-0.4-0.3-1.2-0.6-1.9-0.6
					c-0.4,0-0.7,0.2-0.7,0.4c0,0.3,0.4,0.3,1,0.4c1.1,0.2,2.9,0.6,2.9,2.3c0,1.3-1.2,2.3-3.1,2.3C40.8,297.9,39.5,297.5,38.8,296.9z
					"/>
				<path class="st2" d="M51.5,297.7L49,291h2.4l1.4,4.3l1.4-4.3h2.4l-2.5,6.8H51.5z"/>
				<path class="st2" d="M56.8,294.4c0-1.9,1.4-3.5,3.7-3.5s3.7,1.7,3.7,3.5c0,1.9-1.4,3.6-3.7,3.6S56.8,296.3,56.8,294.4z
					 M61.9,294.4c0-0.8-0.5-1.5-1.3-1.5c-0.8,0-1.3,0.6-1.3,1.5c0,0.9,0.5,1.5,1.3,1.5C61.4,295.9,61.9,295.2,61.9,294.4z"/>
				<path class="st2" d="M65.1,296.9c0.3-0.5,0.6-1,0.9-1.5c0.6,0.4,1.7,0.8,2.4,0.8c0.6,0,0.8-0.2,0.8-0.4c0-0.3-0.4-0.4-1-0.5
					c-1.1-0.2-2.8-0.5-2.8-2.3c0-1.2,1-2.2,2.9-2.2c1.1,0,2,0.3,2.8,0.8c-0.3,0.5-0.5,0.9-0.8,1.5c-0.4-0.3-1.2-0.6-1.9-0.6
					c-0.4,0-0.7,0.2-0.7,0.4c0,0.3,0.4,0.3,1,0.4c1.1,0.2,2.9,0.6,2.9,2.3c0,1.3-1.2,2.3-3.1,2.3C67,297.9,65.8,297.5,65.1,296.9z"
					/>
				<path class="st2" d="M78.3,296.9L78.3,296.9l0,3.4H76V291h2.3v0.9h0c0.6-0.9,1.5-1.1,1.9-1.1c1.9,0,3.1,1.7,3.1,3.5
					c0,1.9-1.3,3.6-3.1,3.6C79.7,297.9,78.9,297.8,78.3,296.9z M80.9,294.4c0-0.8-0.5-1.5-1.3-1.5c-0.9,0-1.3,0.6-1.3,1.5
					c0,0.9,0.5,1.5,1.3,1.5C80.4,295.9,80.9,295.2,80.9,294.4z"/>
				<path class="st2" d="M84.5,297.7V291h2.3v0.9c0.5-0.6,1.4-1.1,2.1-1.1v2.2c-0.1,0-0.3,0-0.5,0c-0.7,0-1.6,0.2-1.6,1.4v3.4H84.5z
					"/>
				<path class="st2" d="M89.5,294.4c0-1.9,1.4-3.5,3.7-3.5s3.7,1.7,3.7,3.5c0,1.9-1.4,3.6-3.7,3.6S89.5,296.3,89.5,294.4z
					 M94.6,294.4c0-0.8-0.5-1.5-1.3-1.5c-0.8,0-1.3,0.6-1.3,1.5c0,0.9,0.5,1.5,1.3,1.5C94.1,295.9,94.6,295.2,94.6,294.4z"/>
				<path class="st2" d="M97.1,298.5c1,0,1.1-0.5,1.1-1.1V291h2.3v6.1c0,1.9-1.1,3.4-3.4,3.4C97.1,300.6,97.1,300.6,97.1,298.5z
					 M98.2,288.7c0-0.6,0.5-1.1,1.2-1.1c0.6,0,1.1,0.5,1.1,1.1c0,0.6-0.5,1.1-1.1,1.1C98.7,289.8,98.2,289.3,98.2,288.7z"/>
				<path class="st2" d="M101.7,294.4c0-2,1.5-3.5,3.6-3.5c1.9,0,3.4,1.4,3.4,3.8v0.4H104c0.2,0.6,0.7,1.1,1.6,1.1
					c0.4,0,1.1-0.2,1.5-0.4l0.9,1.4c-0.7,0.5-1.8,0.8-2.7,0.8C103.3,297.9,101.7,296.6,101.7,294.4z M105.3,292.6
					c-0.9,0-1.2,0.7-1.3,1.1h2.5C106.4,293.2,106.2,292.6,105.3,292.6z"/>
				<path class="st2" d="M112.6,293v1.7c0,0.6,0.2,1.1,1.1,1.1v2c-2.3,0-3.4-1.5-3.4-3.4V293h-1.1v-2h1.1v-1.9h2.3v1.9h1.4v2H112.6z
					"/>
				<path class="st2" d="M114.7,296.9c0.3-0.5,0.6-1,0.9-1.5c0.6,0.4,1.7,0.8,2.4,0.8c0.6,0,0.8-0.2,0.8-0.4c0-0.3-0.4-0.4-1-0.5
					c-1.1-0.2-2.8-0.5-2.8-2.3c0-1.2,1-2.2,2.9-2.2c1,0,2,0.3,2.8,0.8c-0.3,0.5-0.5,0.9-0.8,1.5c-0.4-0.3-1.2-0.6-1.9-0.6
					c-0.4,0-0.7,0.2-0.7,0.4c0,0.3,0.4,0.3,1,0.4c1.1,0.2,2.9,0.6,2.9,2.3c0,1.3-1.2,2.3-3.1,2.3
					C116.6,297.9,115.4,297.5,114.7,296.9z"/>
				<path class="st2" d="M125.7,296.8c0-0.6,0.5-1.1,1.1-1.1c0.6,0,1.1,0.5,1.1,1.1c0,0.6-0.5,1.1-1.1,1.1
					C126.2,297.9,125.7,297.4,125.7,296.8z M125.8,288.3h2.2v5.7c0,0.6-0.5,1.1-1.1,1.1s-1.1-0.5-1.1-1.1V288.3z"/>
			</g>
		</g>
		<g>
			<g>
				<path class="st2" d="M13.4,171H15c0.3,0,0.5,0.2,0.5,0.5c0,0.3-0.2,0.5-0.5,0.5h-1.6c-0.3,0-0.5-0.2-0.5-0.5
					C12.9,171.2,13.1,171,13.4,171z"/>
				<path class="st2" d="M16.5,171h1.6c0.3,0,0.5,0.2,0.5,0.5c0,0.3-0.2,0.5-0.5,0.5h-1.6c-0.3,0-0.5-0.2-0.5-0.5
					C16,171.2,16.2,171,16.5,171z"/>
				<path class="st2" d="M19.6,171h1.6c0.3,0,0.5,0.2,0.5,0.5c0,0.3-0.2,0.5-0.5,0.5h-1.6c-0.3,0-0.5-0.2-0.5-0.5
					C19,171.2,19.3,171,19.6,171z"/>
				<path class="st2" d="M22.6,171h1.6c0.3,0,0.5,0.2,0.5,0.5c0,0.3-0.2,0.5-0.5,0.5h-1.6c-0.3,0-0.5-0.2-0.5-0.5
					C22.1,171.2,22.3,171,22.6,171z"/>
				<path class="st2" d="M25.7,171h1.6c0.3,0,0.5,0.2,0.5,0.5c0,0.3-0.2,0.5-0.5,0.5h-1.6c-0.3,0-0.5-0.2-0.5-0.5
					C25.1,171.2,25.4,171,25.7,171z"/>
				<path class="st2" d="M28.7,171h1.6c0.3,0,0.5,0.2,0.5,0.5c0,0.3-0.2,0.5-0.5,0.5h-1.6c-0.3,0-0.5-0.2-0.5-0.5
					C28.2,171.2,28.4,171,28.7,171z"/>
				<path class="st2" d="M31.8,171h1.6c0.3,0,0.5,0.2,0.5,0.5c0,0.3-0.2,0.5-0.5,0.5h-1.6c-0.3,0-0.5-0.2-0.5-0.5
					C31.3,171.2,31.5,171,31.8,171z"/>
				<path class="st2" d="M34.9,171h1.6c0.3,0,0.5,0.2,0.5,0.5c0,0.3-0.2,0.5-0.5,0.5h-1.6c-0.3,0-0.5-0.2-0.5-0.5
					C34.3,171.2,34.6,171,34.9,171z"/>
				<path class="st2" d="M37.9,171h1.6c0.3,0,0.5,0.2,0.5,0.5c0,0.3-0.2,0.5-0.5,0.5h-1.6c-0.3,0-0.5-0.2-0.5-0.5
					C37.4,171.2,37.6,171,37.9,171z"/>
				<path class="st2" d="M41,171h1.6c0.3,0,0.5,0.2,0.5,0.5c0,0.3-0.2,0.5-0.5,0.5H41c-0.3,0-0.5-0.2-0.5-0.5
					C40.4,171.2,40.7,171,41,171z"/>
				<path class="st2" d="M44,171h1.6c0.3,0,0.5,0.2,0.5,0.5c0,0.3-0.2,0.5-0.5,0.5H44c-0.3,0-0.5-0.2-0.5-0.5
					C43.5,171.2,43.7,171,44,171z"/>
				<path class="st2" d="M47.1,171h1.6c0.3,0,0.5,0.2,0.5,0.5c0,0.3-0.2,0.5-0.5,0.5h-1.6c-0.3,0-0.5-0.2-0.5-0.5
					C46.6,171.2,46.8,171,47.1,171z"/>
				<path class="st2" d="M50.2,171h1.6c0.3,0,0.5,0.2,0.5,0.5c0,0.3-0.2,0.5-0.5,0.5h-1.6c-0.3,0-0.5-0.2-0.5-0.5
					C49.6,171.2,49.9,171,50.2,171z"/>
				<path class="st2" d="M53.2,171h1.6c0.3,0,0.5,0.2,0.5,0.5c0,0.3-0.2,0.5-0.5,0.5h-1.6c-0.3,0-0.5-0.2-0.5-0.5
					C52.7,171.2,52.9,171,53.2,171z"/>
				<path class="st2" d="M56.3,171h1.6c0.3,0,0.5,0.2,0.5,0.5c0,0.3-0.2,0.5-0.5,0.5h-1.6c-0.3,0-0.5-0.2-0.5-0.5
					C55.7,171.2,56,171,56.3,171z"/>
				<path class="st2" d="M59.3,171h1.6c0.3,0,0.5,0.2,0.5,0.5c0,0.3-0.2,0.5-0.5,0.5h-1.6c-0.3,0-0.5-0.2-0.5-0.5
					C58.8,171.2,59,171,59.3,171z"/>
				<path class="st2" d="M62.4,171H64c0.3,0,0.5,0.2,0.5,0.5c0,0.3-0.2,0.5-0.5,0.5h-1.6c-0.3,0-0.5-0.2-0.5-0.5
					C61.9,171.2,62.1,171,62.4,171z"/>
				<path class="st2" d="M65.5,171h1.6c0.3,0,0.5,0.2,0.5,0.5c0,0.3-0.2,0.5-0.5,0.5h-1.6c-0.3,0-0.5-0.2-0.5-0.5
					C64.9,171.2,65.2,171,65.5,171z"/>
				<path class="st2" d="M68.5,171h1.6c0.3,0,0.5,0.2,0.5,0.5c0,0.3-0.2,0.5-0.5,0.5h-1.6c-0.3,0-0.5-0.2-0.5-0.5
					C68,171.2,68.2,171,68.5,171z"/>
				<path class="st2" d="M71.6,171h1.6c0.3,0,0.5,0.2,0.5,0.5c0,0.3-0.2,0.5-0.5,0.5h-1.6c-0.3,0-0.5-0.2-0.5-0.5
					C71,171.2,71.3,171,71.6,171z"/>
				<path class="st2" d="M74.6,171h1.6c0.3,0,0.5,0.2,0.5,0.5c0,0.3-0.2,0.5-0.5,0.5h-1.6c-0.3,0-0.5-0.2-0.5-0.5
					C74.1,171.2,74.3,171,74.6,171z"/>
				<path class="st2" d="M77.7,171h1.6c0.3,0,0.5,0.2,0.5,0.5c0,0.3-0.2,0.5-0.5,0.5h-1.6c-0.3,0-0.5-0.2-0.5-0.5
					C77.2,171.2,77.4,171,77.7,171z"/>
				<path class="st2" d="M80.8,171h1.6c0.3,0,0.5,0.2,0.5,0.5c0,0.3-0.2,0.5-0.5,0.5h-1.6c-0.3,0-0.5-0.2-0.5-0.5
					C80.2,171.2,80.5,171,80.8,171z"/>
				<path class="st2" d="M83.8,171h1.6c0.3,0,0.5,0.2,0.5,0.5c0,0.3-0.2,0.5-0.5,0.5h-1.6c-0.3,0-0.5-0.2-0.5-0.5
					C83.3,171.2,83.5,171,83.8,171z"/>
				<path class="st2" d="M86.9,171h1.6c0.3,0,0.5,0.2,0.5,0.5c0,0.3-0.2,0.5-0.5,0.5h-1.6c-0.3,0-0.5-0.2-0.5-0.5
					C86.3,171.2,86.6,171,86.9,171z"/>
				<path class="st2" d="M89.9,171h1.6c0.3,0,0.5,0.2,0.5,0.5c0,0.3-0.2,0.5-0.5,0.5h-1.6c-0.3,0-0.5-0.2-0.5-0.5
					C89.4,171.2,89.6,171,89.9,171z"/>
				<path class="st2" d="M93,171h1.6c0.3,0,0.5,0.2,0.5,0.5c0,0.3-0.2,0.5-0.5,0.5H93c-0.3,0-0.5-0.2-0.5-0.5
					C92.5,171.2,92.7,171,93,171z"/>
				<path class="st2" d="M96.1,171h1.6c0.3,0,0.5,0.2,0.5,0.5c0,0.3-0.2,0.5-0.5,0.5h-1.6c-0.3,0-0.5-0.2-0.5-0.5
					C95.5,171.2,95.8,171,96.1,171z"/>
				<path class="st2" d="M99.1,171h1.6c0.3,0,0.5,0.2,0.5,0.5c0,0.3-0.2,0.5-0.5,0.5h-1.6c-0.3,0-0.5-0.2-0.5-0.5
					C98.6,171.2,98.8,171,99.1,171z"/>
				<path class="st2" d="M102.2,171h1.6c0.3,0,0.5,0.2,0.5,0.5c0,0.3-0.2,0.5-0.5,0.5h-1.6c-0.3,0-0.5-0.2-0.5-0.5
					C101.6,171.2,101.9,171,102.2,171z"/>
				<path class="st2" d="M105.2,171h1.6c0.3,0,0.5,0.2,0.5,0.5c0,0.3-0.2,0.5-0.5,0.5h-1.6c-0.3,0-0.5-0.2-0.5-0.5
					C104.7,171.2,104.9,171,105.2,171z"/>
				<path class="st2" d="M108.3,171h1.6c0.3,0,0.5,0.2,0.5,0.5c0,0.3-0.2,0.5-0.5,0.5h-1.6c-0.3,0-0.5-0.2-0.5-0.5
					C107.8,171.2,108,171,108.3,171z"/>
				<path class="st2" d="M111.4,171h1.6c0.3,0,0.5,0.2,0.5,0.5c0,0.3-0.2,0.5-0.5,0.5h-1.6c-0.3,0-0.5-0.2-0.5-0.5
					C110.8,171.2,111.1,171,111.4,171z"/>
				<path class="st2" d="M114.4,171h1.6c0.3,0,0.5,0.2,0.5,0.5c0,0.3-0.2,0.5-0.5,0.5h-1.6c-0.3,0-0.5-0.2-0.5-0.5
					C113.9,171.2,114.1,171,114.4,171z"/>
				<path class="st2" d="M117.5,171h1.6c0.3,0,0.5,0.2,0.5,0.5c0,0.3-0.2,0.5-0.5,0.5h-1.6c-0.3,0-0.5-0.2-0.5-0.5
					C116.9,171.2,117.2,171,117.5,171z"/>
				<path class="st2" d="M120.5,171h1.6c0.3,0,0.5,0.2,0.5,0.5c0,0.3-0.2,0.5-0.5,0.5h-1.6c-0.3,0-0.5-0.2-0.5-0.5
					C120,171.2,120.2,171,120.5,171z"/>
				<path class="st2" d="M123.6,171h1.6c0.3,0,0.5,0.2,0.5,0.5c0,0.3-0.2,0.5-0.5,0.5h-1.6c-0.3,0-0.5-0.2-0.5-0.5
					C123.1,171.2,123.3,171,123.6,171z"/>
				<path class="st2" d="M126.7,171h1.6c0.3,0,0.5,0.2,0.5,0.5c0,0.3-0.2,0.5-0.5,0.5h-1.6c-0.3,0-0.5-0.2-0.5-0.5
					C126.1,171.2,126.4,171,126.7,171z"/>
			</g>
		</g>
		<g>
			<rect x="-1.4" y="-1.4" class="st2" width="144.6" height="48.8"/>
		</g>
	</g>
</g>
</svg>
