<?xml version="1.0" encoding="utf-8"?>
<!-- Generator: Adobe Illustrator 27.2.0, SVG Export Plug-In . SVG Version: 6.00 Build 0)  -->
<svg version="1.1" id="Calque_1" xmlns="http://www.w3.org/2000/svg" xmlns:xlink="http://www.w3.org/1999/xlink" x="0px" y="0px"
	 viewBox="0 0 141.73 388.35" style="enable-background:new 0 0 141.73 388.35;" xml:space="preserve">
<style type="text/css">
	.st0{fill:#D7D7D5;}
</style>
<g>
	<rect y="47.42" class="st0" width="141.73" height="340.92"/>
	<g>
		<rect width="141.73" height="47.42"/>
	</g>
</g>
<g>
	<g>
		<path d="M12.85,82.63V65.64h4.18v16.99H12.85z"/>
		<path d="M19.84,66.12c0-1.15,0.94-2.04,2.12-2.04c1.12,0,2.07,0.89,2.07,2.04c0,1.12-0.94,2.04-2.07,2.04
			C20.79,68.16,19.84,67.24,19.84,66.12z M19.84,82.63v-12.3h4.18v12.3H19.84z"/>
		<path d="M31.04,81.07h-0.03v1.56h-4.18V65.64h4.18v6.3h0.03c1.07-1.66,2.68-1.94,3.42-1.94c3.47,0,5.71,3.01,5.71,6.45
			c0,3.47-2.35,6.48-5.71,6.48C33.69,82.93,32.11,82.73,31.04,81.07z M35.84,76.45c0-1.53-0.87-2.68-2.4-2.68
			c-1.56,0-2.42,1.15-2.42,2.68c0,1.56,0.87,2.73,2.42,2.73C34.97,79.18,35.84,78.01,35.84,76.45z"/>
		<path d="M42.34,82.63v-12.3h4.18v1.61c0.84-1.05,2.47-1.99,3.78-1.99v4.03c-0.23-0.05-0.48-0.05-0.84-0.05
			c-1.2,0-2.93,0.33-2.93,2.5v6.2H42.34z"/>
		<path d="M51.53,76.45c0-3.57,2.68-6.45,6.56-6.45c3.47,0,6.17,2.6,6.17,6.96v0.77h-8.44c0.28,1.02,1.28,2.02,2.91,2.02
			c0.66,0,2.07-0.31,2.81-0.79l1.68,2.6c-1.2,0.94-3.27,1.38-5,1.38C54.46,82.93,51.53,80.51,51.53,76.45z M58.08,73.19
			c-1.56,0-2.14,1.22-2.3,1.96h4.57C60.18,74.29,59.72,73.19,58.08,73.19z"/>
		<path d="M12.21,106.66c0.56-0.97,1.1-1.84,1.66-2.81c1.05,0.77,3.04,1.48,4.34,1.48c1.12,0,1.45-0.31,1.45-0.74
			c0-0.61-0.82-0.71-1.89-0.87c-1.99-0.31-5.13-0.99-5.13-4.13c0-2.17,1.89-4.08,5.31-4.08c1.91,0,3.7,0.59,5.05,1.51
			c-0.51,0.97-0.97,1.71-1.48,2.65c-0.82-0.59-2.19-1.17-3.55-1.17c-0.79,0-1.35,0.28-1.35,0.77s0.77,0.61,1.79,0.77
			c1.96,0.31,5.2,1.07,5.2,4.26c0,2.4-2.12,4.16-5.64,4.16C15.79,108.45,13.52,107.76,12.21,106.66z"/>
		<path d="M25.15,101.97c0-3.57,2.68-6.45,6.56-6.45c3.47,0,6.17,2.6,6.17,6.96v0.77h-8.44c0.28,1.02,1.28,2.02,2.91,2.02
			c0.66,0,2.07-0.31,2.81-0.79l1.68,2.6c-1.2,0.94-3.27,1.38-5,1.38C28.08,108.45,25.15,106.02,25.15,101.97z M31.7,98.7
			c-1.56,0-2.14,1.22-2.3,1.96h4.57C33.8,99.8,33.34,98.7,31.7,98.7z"/>
		<path d="M39.79,108.14v-12.3h4.18v1.61c0.84-1.05,2.47-1.99,3.78-1.99v4.03c-0.23-0.05-0.48-0.05-0.84-0.05
			c-1.2,0-2.93,0.33-2.93,2.5v6.2H39.79z"/>
		<path d="M52.78,108.14l-4.57-12.3h4.36l2.5,7.76l2.55-7.76h4.41l-4.64,12.3H52.78z"/>
		<path d="M63.19,91.63c0-1.15,0.94-2.04,2.12-2.04c1.12,0,2.07,0.89,2.07,2.04c0,1.12-0.94,2.04-2.07,2.04
			C64.13,93.67,63.19,92.76,63.19,91.63z M63.19,108.14v-12.3h4.18v12.3H63.19z"/>
		<path d="M69.54,101.97c0-3.9,2.93-6.45,6.71-6.45c2.6,0,4.21,1.15,4.95,2.14l-2.63,2.6c-0.43-0.56-1.15-0.97-2.12-0.97
			c-1.4,0-2.63,0.92-2.63,2.68c0,1.76,1.22,2.73,2.63,2.73c0.94,0,1.71-0.48,2.14-0.99c0.94,0.94,1.68,1.73,2.6,2.63
			c-0.74,0.97-2.37,2.12-4.95,2.12C72.47,108.45,69.54,105.89,69.54,101.97z"/>
		<path d="M82.47,101.97c0-3.57,2.68-6.45,6.56-6.45c3.47,0,6.17,2.6,6.17,6.96v0.77h-8.44c0.28,1.02,1.28,2.02,2.91,2.02
			c0.66,0,2.07-0.31,2.81-0.79l1.68,2.6c-1.2,0.94-3.27,1.38-5,1.38C85.41,108.45,82.47,106.02,82.47,101.97z M89.03,98.7
			c-1.56,0-2.14,1.22-2.3,1.96h4.57C91.12,99.8,90.66,98.7,89.03,98.7z"/>
	</g>
	<g>
		<g>
			<path d="M126.14,89.84c-5.53,5.53-14.52,5.53-20.05,0c-5.53-5.53-5.53-14.52,0-20.05c5.53-5.53,14.52-5.53,20.05,0
				C131.67,75.31,131.67,84.31,126.14,89.84z M106.95,70.65c-5.05,5.05-5.05,13.27,0,18.33c5.05,5.05,13.27,5.05,18.33,0
				c5.05-5.05,5.05-13.27,0-18.33C120.22,65.59,112,65.59,106.95,70.65z"/>
			<path d="M108.45,73.31l12.82,12.77l-11.33,0c-0.46,0-0.84,0.37-0.84,0.84c0,0.46,0.38,0.84,0.84,0.84l13.25,0
				c0.26,0,0.5-0.12,0.65-0.31c0.15-0.15,0.25-0.36,0.25-0.58l0-13.2c0-0.46-0.37-0.84-0.84-0.84c-0.47,0-0.84,0.37-0.84,0.84
				l0,11.18l-12.76-12.72c-0.33-0.33-0.86-0.33-1.19,0C108.12,72.45,108.12,72.97,108.45,73.31"/>
		</g>
	</g>
</g>
<g>
	<path d="M13.28,130.23c0.54,0,0.95,0.41,0.95,0.95s-0.41,0.94-0.95,0.94c-0.54,0-0.94-0.4-0.94-0.94S12.74,130.23,13.28,130.23z
		 M12.37,139.95v-6.85h1.83v6.85H12.37z"/>
	<path d="M15.59,136.52c0-2.1,1.56-3.59,3.7-3.59c1.43,0,2.3,0.61,2.75,1.23l-1.19,1.11c-0.34-0.48-0.84-0.74-1.47-0.74
		c-1.12,0-1.9,0.79-1.9,1.98c0,1.19,0.78,2,1.9,2c0.64,0,1.13-0.28,1.47-0.75l1.19,1.11c-0.45,0.62-1.32,1.25-2.75,1.25
		C17.15,140.12,15.59,138.63,15.59,136.52z"/>
	<path d="M24.16,130.23c0.54,0,0.95,0.41,0.95,0.95s-0.41,0.94-0.95,0.94c-0.54,0-0.94-0.4-0.94-0.94S23.62,130.23,24.16,130.23z
		 M23.25,139.95v-6.85h1.83v6.85H23.25z"/>
	<path d="M26.77,141.42c0.34-0.3,0.6-0.89,0.6-1.46c0-0.07,0-0.13-0.01-0.21c-0.45-0.16-0.65-0.45-0.65-0.94
		c0-0.58,0.45-1.01,1.06-1.01c0.75,0,1.28,0.61,1.28,1.46c0,1.3-1.01,2.42-2.27,2.55V141.42z"/>
	<path d="M14.17,154.12l-2.81-6.85h1.96l1.83,4.76l1.84-4.76h1.96l-2.81,6.85H14.17z"/>
	<path d="M19.33,150.69c0-1.94,1.39-3.59,3.69-3.59c2.31,0,3.7,1.64,3.7,3.59c0,1.94-1.39,3.6-3.7,3.6
		C20.72,154.29,19.33,152.63,19.33,150.69z M24.83,150.69c0-1.06-0.65-1.98-1.81-1.98c-1.15,0-1.8,0.92-1.8,1.98
		c0,1.08,0.65,2,1.8,2C24.18,152.69,24.83,151.77,24.83,150.69z"/>
	<path d="M28.07,151.03v-3.76h1.83v3.98c0,0.79,0.55,1.43,1.46,1.43c0.91,0,1.46-0.64,1.46-1.43v-3.98h1.83v3.76
		c0,1.8-1.25,3.27-3.29,3.27C29.32,154.31,28.07,152.83,28.07,151.03z"/>
	<path d="M35.86,153.23l0.79-1.3c0.52,0.48,1.54,0.95,2.41,0.95c0.79,0,1.18-0.3,1.18-0.72c0-1.12-4.14-0.2-4.14-2.89
		c0-1.15,1.01-2.15,2.86-2.15c1.18,0,2.11,0.4,2.81,0.94l-0.74,1.28c-0.43-0.43-1.22-0.79-2.07-0.79c-0.67,0-1.09,0.28-1.09,0.67
		c0,1.01,4.14,0.16,4.14,2.92c0,1.26-1.09,2.18-3.03,2.18C37.75,154.29,36.59,153.9,35.86,153.23z"/>
	<path d="M46.27,147.28h1.19v-1.87h1.83v1.87h1.4v1.57h-1.4v2.41c0,0.79,0.65,1.42,1.45,1.42v1.62c-1.81,0-3.27-1.47-3.27-3.29
		v-2.15h-1.19V147.28z"/>
	<path d="M56,148.86c-0.14-0.03-0.27-0.03-0.38-0.03h-0.26c-0.72,0-1.59,0.48-1.59,1.79c0,0.6,0,3.5,0,3.5h-1.83v-6.85h1.83v1.18
		c0.51-0.77,1.19-1.33,2.23-1.33V148.86z"/>
	<path d="M56.69,150.69c0-1.94,1.39-3.59,3.69-3.59c2.31,0,3.7,1.64,3.7,3.59c0,1.94-1.39,3.6-3.7,3.6
		C58.08,154.29,56.69,152.63,56.69,150.69z M62.19,150.69c0-1.06-0.65-1.98-1.81-1.98c-1.15,0-1.8,0.92-1.8,1.98
		c0,1.08,0.65,2,1.8,2C61.54,152.69,62.19,151.77,62.19,150.69z"/>
	<path d="M65.43,151.03v-3.76h1.83v3.98c0,0.79,0.55,1.43,1.46,1.43c0.91,0,1.46-0.64,1.46-1.43v-3.98h1.83v3.76
		c0,1.8-1.25,3.27-3.29,3.27C66.68,154.31,65.43,152.83,65.43,151.03z"/>
	<path d="M75.62,154.12l-2.81-6.85h1.96l1.83,4.76l1.84-4.76h1.96l-2.81,6.85H75.62z"/>
	<path d="M80.78,150.69c0-1.98,1.5-3.59,3.61-3.59c2.1,0,3.5,1.53,3.5,3.76v0.43h-5.19c0.13,0.84,0.82,1.53,2.01,1.53
		c0.58,0,1.39-0.24,1.84-0.67l0.82,1.19c-0.69,0.62-1.79,0.95-2.88,0.95C82.39,154.29,80.78,152.89,80.78,150.69z M86.13,150.04
		c-0.06-0.65-0.51-1.46-1.73-1.46c-1.15,0-1.63,0.78-1.7,1.46H86.13z"/>
	<path d="M93.31,148.86c-0.14-0.03-0.27-0.03-0.38-0.03h-0.26c-0.72,0-1.59,0.48-1.59,1.79c0,0.6,0,3.5,0,3.5h-1.83v-6.85h1.83v1.18
		c0.51-0.77,1.19-1.33,2.23-1.33V148.86z"/>
	<path d="M94.01,150.69c0-1.98,1.5-3.59,3.61-3.59c2.1,0,3.5,1.53,3.5,3.76v0.43h-5.19c0.13,0.84,0.82,1.53,2.01,1.53
		c0.58,0,1.39-0.24,1.84-0.67l0.82,1.19c-0.69,0.62-1.79,0.95-2.88,0.95C95.61,154.29,94.01,152.89,94.01,150.69z M99.35,150.04
		c-0.06-0.65-0.51-1.46-1.73-1.46c-1.15,0-1.63,0.78-1.7,1.46H99.35z"/>
	<path d="M102.2,154.12v-1.35l3.15-3.93h-3.15v-1.57h5.66v1.29l-3.22,3.98h3.27v1.57H102.2z"/>
	<path d="M11.56,161.45h1.19v-1.87h1.83v1.87h1.4v1.57h-1.4v2.41c0,0.79,0.65,1.42,1.45,1.42v1.62c-1.81,0-3.27-1.47-3.27-3.29
		v-2.15h-1.19V161.45z"/>
	<path d="M16.81,164.87c0-1.94,1.39-3.59,3.69-3.59c2.31,0,3.7,1.64,3.7,3.59c0,1.94-1.39,3.6-3.7,3.6
		C18.2,168.47,16.81,166.81,16.81,164.87z M22.31,164.87c0-1.06-0.65-1.98-1.81-1.98c-1.15,0-1.8,0.92-1.8,1.98c0,1.08,0.65,2,1.8,2
		C21.65,166.86,22.31,165.94,22.31,164.87z"/>
	<path d="M25.55,165.21v-3.76h1.83v3.98c0,0.79,0.55,1.43,1.46,1.43s1.46-0.64,1.46-1.43v-3.98h1.83v3.76c0,1.8-1.25,3.27-3.29,3.27
		C26.8,168.48,25.55,167.01,25.55,165.21z"/>
	<path d="M33.33,167.4l0.79-1.3c0.52,0.48,1.54,0.95,2.41,0.95c0.79,0,1.18-0.3,1.18-0.72c0-1.12-4.14-0.2-4.14-2.89
		c0-1.15,1.01-2.15,2.86-2.15c1.18,0,2.11,0.4,2.81,0.94l-0.74,1.28c-0.43-0.43-1.22-0.79-2.07-0.79c-0.67,0-1.09,0.28-1.09,0.67
		c0,1.01,4.14,0.16,4.14,2.92c0,1.26-1.09,2.18-3.03,2.18C35.23,168.47,34.07,168.07,33.33,167.4z"/>
	<path d="M44.53,168.3v-9.45h1.83v9.45H44.53z"/>
	<path d="M47.72,164.87c0-1.98,1.5-3.59,3.61-3.59c2.1,0,3.5,1.53,3.5,3.76v0.43h-5.19c0.13,0.84,0.82,1.53,2.01,1.53
		c0.58,0,1.39-0.24,1.84-0.67l0.82,1.19c-0.69,0.62-1.79,0.95-2.88,0.95C49.32,168.47,47.72,167.06,47.72,164.87z M53.06,164.21
		c-0.06-0.65-0.51-1.46-1.73-1.46c-1.15,0-1.63,0.78-1.7,1.46H53.06z"/>
	<path d="M55.61,167.4l0.79-1.3c0.52,0.48,1.54,0.95,2.41,0.95c0.79,0,1.18-0.3,1.18-0.72c0-1.12-4.14-0.2-4.14-2.89
		c0-1.15,1.01-2.15,2.86-2.15c1.18,0,2.11,0.4,2.81,0.94l-0.74,1.28c-0.43-0.43-1.22-0.79-2.07-0.79c-0.67,0-1.09,0.28-1.09,0.67
		c0,1.01,4.14,0.16,4.14,2.92c0,1.26-1.09,2.18-3.03,2.18C57.51,168.47,56.35,168.07,55.61,167.4z"/>
	<path d="M19.23,175.62v6.85H17.4v-1.05c-0.77,1.03-1.7,1.22-2.2,1.22c-2.08,0-3.29-1.66-3.29-3.6c0-1.94,1.35-3.59,3.29-3.59
		c0.5,0,1.43,0.18,2.2,1.35v-1.18H19.23z M17.4,179.04c0-1.06-0.62-1.98-1.79-1.98c-1.15,0-1.77,0.92-1.77,1.98
		c0,1.08,0.62,2,1.77,2C16.78,181.04,17.4,180.12,17.4,179.04z"/>
	<path d="M20.59,179.04c0-2.1,1.56-3.59,3.7-3.59c1.43,0,2.3,0.61,2.75,1.23l-1.19,1.11c-0.34-0.48-0.84-0.74-1.47-0.74
		c-1.12,0-1.9,0.79-1.9,1.98c0,1.19,0.78,2,1.9,2c0.64,0,1.13-0.28,1.47-0.75l1.19,1.11c-0.45,0.62-1.32,1.25-2.75,1.25
		C22.15,182.64,20.59,181.15,20.59,179.04z"/>
	<path d="M27.8,179.04c0-2.1,1.56-3.59,3.7-3.59c1.43,0,2.3,0.61,2.75,1.23l-1.19,1.11c-0.34-0.48-0.84-0.74-1.47-0.74
		c-1.12,0-1.9,0.79-1.9,1.98c0,1.19,0.78,2,1.9,2c0.64,0,1.13-0.28,1.47-0.75l1.19,1.11c-0.45,0.62-1.32,1.25-2.75,1.25
		C29.36,182.64,27.8,181.15,27.8,179.04z"/>
	<path d="M35.02,179.04c0-1.98,1.5-3.59,3.61-3.59c2.1,0,3.5,1.53,3.5,3.76v0.43h-5.19c0.13,0.84,0.82,1.53,2.01,1.53
		c0.58,0,1.39-0.24,1.84-0.67l0.82,1.19c-0.69,0.62-1.79,0.95-2.88,0.95C36.62,182.64,35.02,181.24,35.02,179.04z M40.36,178.39
		c-0.06-0.65-0.51-1.46-1.73-1.46c-1.15,0-1.63,0.78-1.7,1.46H40.36z"/>
	<path d="M42.91,181.58l0.79-1.3c0.52,0.48,1.54,0.95,2.41,0.95c0.79,0,1.18-0.3,1.18-0.72c0-1.12-4.14-0.2-4.14-2.89
		c0-1.15,1.01-2.15,2.86-2.15c1.18,0,2.11,0.4,2.81,0.94l-0.74,1.28c-0.43-0.43-1.22-0.79-2.07-0.79c-0.67,0-1.09,0.28-1.09,0.67
		c0,1.01,4.14,0.16,4.14,2.92c0,1.26-1.09,2.18-3.03,2.18C44.81,182.64,43.65,182.24,42.91,181.58z"/>
	<path d="M49.82,181.58l0.79-1.3c0.52,0.48,1.54,0.95,2.41,0.95c0.79,0,1.18-0.3,1.18-0.72c0-1.12-4.14-0.2-4.14-2.89
		c0-1.15,1.01-2.15,2.86-2.15c1.18,0,2.11,0.4,2.81,0.94l-0.74,1.28c-0.43-0.43-1.22-0.79-2.07-0.79c-0.67,0-1.09,0.28-1.09,0.67
		c0,1.01,4.14,0.16,4.14,2.92c0,1.26-1.09,2.18-3.03,2.18C51.71,182.64,50.55,182.24,49.82,181.58z"/>
	<path d="M56.87,179.04c0-1.94,1.39-3.59,3.69-3.59c2.31,0,3.7,1.64,3.7,3.59c0,1.94-1.39,3.6-3.7,3.6
		C58.26,182.64,56.87,180.98,56.87,179.04z M62.37,179.04c0-1.06-0.65-1.98-1.81-1.98c-1.15,0-1.8,0.92-1.8,1.98
		c0,1.08,0.65,2,1.8,2C61.72,181.04,62.37,180.12,62.37,179.04z"/>
	<path d="M66.55,172.75c0.54,0,0.95,0.41,0.95,0.95s-0.41,0.94-0.95,0.94c-0.54,0-0.94-0.4-0.94-0.94S66.02,172.75,66.55,172.75z
		 M65.65,182.47v-6.85h1.83v6.85H65.65z"/>
	<path d="M73.34,177.21c-0.14-0.03-0.27-0.03-0.38-0.03h-0.26c-0.72,0-1.59,0.48-1.59,1.79c0,0.6,0,3.5,0,3.5h-1.83v-6.85h1.83v1.18
		c0.51-0.77,1.19-1.33,2.23-1.33V177.21z"/>
	<path d="M74.04,179.04c0-1.98,1.5-3.59,3.61-3.59c2.1,0,3.5,1.53,3.5,3.76v0.43h-5.19c0.13,0.84,0.82,1.53,2.01,1.53
		c0.58,0,1.39-0.24,1.84-0.67l0.82,1.19c-0.69,0.62-1.79,0.95-2.88,0.95C75.64,182.64,74.04,181.24,74.04,179.04z M79.38,178.39
		c-0.06-0.65-0.51-1.46-1.73-1.46c-1.15,0-1.63,0.78-1.7,1.46H79.38z"/>
	<path d="M81.93,181.58l0.79-1.3c0.52,0.48,1.54,0.95,2.41,0.95c0.79,0,1.18-0.3,1.18-0.72c0-1.12-4.14-0.2-4.14-2.89
		c0-1.15,1.01-2.15,2.86-2.15c1.18,0,2.11,0.4,2.81,0.94l-0.74,1.28c-0.43-0.43-1.22-0.79-2.07-0.79c-0.67,0-1.09,0.28-1.09,0.67
		c0,1.01,4.14,0.16,4.14,2.92c0,1.26-1.09,2.18-3.03,2.18C83.83,182.64,82.67,182.24,81.93,181.58z"/>
	<path d="M92.7,179.04c0-1.98,1.5-3.59,3.61-3.59c2.1,0,3.5,1.53,3.5,3.76v0.43h-5.19c0.13,0.84,0.82,1.53,2.01,1.53
		c0.58,0,1.39-0.24,1.84-0.67l0.82,1.19c-0.69,0.62-1.79,0.95-2.88,0.95C94.3,182.64,92.7,181.24,92.7,179.04z M98.05,178.39
		c-0.06-0.65-0.51-1.46-1.73-1.46c-1.15,0-1.63,0.78-1.7,1.46H98.05z"/>
	<path d="M100.4,175.62h1.19v-1.87h1.83v1.87h1.4v1.57h-1.4v2.41c0,0.79,0.65,1.42,1.45,1.42v1.62c-1.81,0-3.27-1.47-3.27-3.29
		v-2.15h-1.19V175.62z"/>
	<path d="M12.34,196.64v-9.45h1.83v9.45H12.34z"/>
	<path d="M15.59,190.66c0.34-0.3,0.6-0.89,0.6-1.46c0-0.07,0-0.13-0.01-0.21c-0.45-0.16-0.65-0.45-0.65-0.94
		c0-0.58,0.45-1.01,1.06-1.01c0.75,0,1.28,0.61,1.28,1.46c0,1.3-1.01,2.42-2.27,2.55V190.66z"/>
	<path d="M18.78,193.21c0-1.98,1.5-3.59,3.61-3.59c2.1,0,3.5,1.53,3.5,3.76v0.43H20.7c0.13,0.84,0.82,1.53,2.01,1.53
		c0.58,0,1.39-0.24,1.84-0.67l0.82,1.19c-0.69,0.62-1.79,0.95-2.88,0.95C20.38,196.81,18.78,195.41,18.78,193.21z M24.12,192.56
		c-0.06-0.65-0.51-1.46-1.73-1.46c-1.15,0-1.63,0.78-1.7,1.46H24.12z"/>
	<path d="M26.67,195.75l0.79-1.3c0.52,0.48,1.54,0.95,2.41,0.95c0.79,0,1.18-0.3,1.18-0.72c0-1.12-4.14-0.2-4.14-2.89
		c0-1.15,1.01-2.15,2.86-2.15c1.18,0,2.11,0.4,2.81,0.94l-0.74,1.28c-0.43-0.43-1.22-0.79-2.07-0.79c-0.67,0-1.09,0.28-1.09,0.67
		c0,1.01,4.14,0.16,4.14,2.92c0,1.26-1.09,2.18-3.03,2.18C28.57,196.81,27.41,196.42,26.67,195.75z"/>
	<path d="M35.98,189.8v1.18c0.77-1.16,1.7-1.35,2.2-1.35c1.94,0,3.29,1.64,3.29,3.59s-1.2,3.6-3.29,3.6c-0.5,0-1.43-0.18-2.2-1.22
		v3.66h-1.83v-9.45H35.98z M39.54,193.21c0-1.06-0.62-1.98-1.77-1.98c-1.16,0-1.79,0.92-1.79,1.98c0,1.08,0.62,2,1.79,2
		C38.92,195.21,39.54,194.29,39.54,193.21z"/>
	<path d="M49.72,189.8v6.85h-1.83v-1.05c-0.77,1.03-1.7,1.22-2.2,1.22c-2.08,0-3.29-1.66-3.29-3.6s1.35-3.59,3.29-3.59
		c0.5,0,1.43,0.18,2.2,1.35v-1.18H49.72z M47.89,193.21c0-1.06-0.62-1.98-1.79-1.98c-1.15,0-1.77,0.92-1.77,1.98
		c0,1.08,0.62,2,1.77,2C47.26,195.21,47.89,194.29,47.89,193.21z"/>
	<path d="M51.08,193.21c0-2.1,1.56-3.59,3.7-3.59c1.43,0,2.3,0.61,2.75,1.23l-1.19,1.11c-0.34-0.48-0.84-0.74-1.47-0.74
		c-1.12,0-1.9,0.79-1.9,1.98s0.78,2,1.9,2c0.64,0,1.13-0.28,1.47-0.75l1.19,1.11c-0.45,0.62-1.32,1.25-2.75,1.25
		C52.64,196.81,51.08,195.32,51.08,193.21z"/>
	<path d="M58.29,193.21c0-1.98,1.5-3.59,3.61-3.59c2.1,0,3.5,1.53,3.5,3.76v0.43h-5.19c0.13,0.84,0.82,1.53,2.01,1.53
		c0.58,0,1.39-0.24,1.84-0.67l0.82,1.19c-0.69,0.62-1.79,0.95-2.88,0.95C59.89,196.81,58.29,195.41,58.29,193.21z M63.63,192.56
		c-0.06-0.65-0.51-1.46-1.73-1.46c-1.15,0-1.63,0.78-1.7,1.46H63.63z"/>
	<path d="M72.31,189.8v1.18c0.77-1.16,1.7-1.35,2.2-1.35c1.94,0,3.29,1.64,3.29,3.59s-1.2,3.6-3.29,3.6c-0.5,0-1.43-0.18-2.2-1.22
		v3.66h-1.83v-9.45H72.31z M75.87,193.21c0-1.06-0.62-1.98-1.77-1.98c-1.16,0-1.79,0.92-1.79,1.98c0,1.08,0.62,2,1.79,2
		C75.24,195.21,75.87,194.29,75.87,193.21z"/>
	<path d="M83.21,191.38c-0.14-0.03-0.27-0.03-0.38-0.03h-0.26c-0.72,0-1.59,0.48-1.59,1.79c0,0.6,0,3.5,0,3.5h-1.83v-6.85h1.83v1.18
		c0.51-0.77,1.19-1.33,2.23-1.33V191.38z"/>
	<path d="M83.9,193.21c0-1.94,1.39-3.59,3.69-3.59c2.31,0,3.7,1.64,3.7,3.59s-1.39,3.6-3.7,3.6
		C85.29,196.81,83.9,195.15,83.9,193.21z M89.4,193.21c0-1.06-0.65-1.98-1.81-1.98c-1.15,0-1.8,0.92-1.8,1.98c0,1.08,0.65,2,1.8,2
		C88.75,195.21,89.4,194.29,89.4,193.21z"/>
	<path d="M91.29,197.8c0.79,0,1.45-0.62,1.45-1.42v-6.59h1.83v6.34c0,1.81-1.46,3.29-3.27,3.29V197.8z M93.64,186.92
		c0.54,0,0.95,0.41,0.95,0.95s-0.41,0.94-0.95,0.94c-0.54,0-0.94-0.4-0.94-0.94S93.1,186.92,93.64,186.92z"/>
	<path d="M95.95,193.21c0-1.98,1.5-3.59,3.61-3.59c2.1,0,3.5,1.53,3.5,3.76v0.43h-5.19c0.13,0.84,0.82,1.53,2.01,1.53
		c0.58,0,1.39-0.24,1.84-0.67l0.82,1.19c-0.69,0.62-1.79,0.95-2.88,0.95C97.55,196.81,95.95,195.41,95.95,193.21z M101.29,192.56
		c-0.06-0.65-0.51-1.46-1.73-1.46c-1.15,0-1.63,0.78-1.7,1.46H101.29z"/>
	<path d="M103.64,189.8h1.19v-1.87h1.83v1.87h1.4v1.57h-1.4v2.41c0,0.79,0.65,1.42,1.45,1.42v1.62c-1.81,0-3.27-1.47-3.27-3.29
		v-2.15h-1.19V189.8z"/>
</g>
</svg>
