<?xml version="1.0" encoding="utf-8"?>
<!-- Generator: Adobe Illustrator 27.2.0, SVG Export Plug-In . SVG Version: 6.00 Build 0)  -->
<svg version="1.1" id="Calque_1" xmlns="http://www.w3.org/2000/svg" xmlns:xlink="http://www.w3.org/1999/xlink" x="0px" y="0px"
	 viewBox="0 0 141.73 388.35" style="enable-background:new 0 0 141.73 388.35;" xml:space="preserve">
<style type="text/css">
	.st0{fill:#D7D7D5;}
</style>
<g>
	
		<rect x="0" y="47.42" transform="matrix(-1 -4.559920e-11 4.559920e-11 -1 141.7323 435.769)" class="st0" width="141.73" height="340.92"/>
	<g>
		<rect width="141.73" height="47.42"/>
	</g>
</g>
<g>
	<path d="M43.8,84.37V67.38h4.18v16.99H43.8z"/>
	<path d="M50.79,67.86c0-1.15,0.94-2.04,2.12-2.04c1.12,0,2.07,0.89,2.07,2.04c0,1.12-0.94,2.04-2.07,2.04
		C51.74,69.9,50.79,68.98,50.79,67.86z M50.79,84.37v-12.3h4.18v12.3H50.79z"/>
	<path d="M61.99,82.81h-0.03v1.56h-4.18V67.38h4.18v6.3h0.03c1.07-1.66,2.68-1.94,3.42-1.94c3.47,0,5.71,3.01,5.71,6.45
		c0,3.47-2.35,6.48-5.71,6.48C64.65,84.67,63.06,84.47,61.99,82.81z M66.79,78.19c0-1.53-0.87-2.68-2.4-2.68
		c-1.56,0-2.42,1.15-2.42,2.68c0,1.56,0.87,2.73,2.42,2.73C65.92,80.92,66.79,79.75,66.79,78.19z"/>
	<path d="M73.3,84.37v-12.3h4.18v1.61c0.84-1.05,2.47-1.99,3.78-1.99v4.03c-0.23-0.05-0.48-0.05-0.84-0.05
		c-1.2,0-2.93,0.33-2.93,2.5v6.2H73.3z"/>
	<path d="M82.48,78.19c0-3.57,2.68-6.45,6.56-6.45c3.47,0,6.17,2.6,6.17,6.96v0.77h-8.44c0.28,1.02,1.28,2.02,2.91,2.02
		c0.66,0,2.07-0.31,2.81-0.79l1.68,2.6c-1.2,0.94-3.27,1.38-5,1.38C85.41,84.67,82.48,82.25,82.48,78.19z M89.04,74.93
		c-1.56,0-2.14,1.22-2.3,1.96h4.57C91.13,76.02,90.67,74.93,89.04,74.93z"/>
	<path d="M43.17,108.4c0.56-0.97,1.1-1.84,1.66-2.81c1.05,0.77,3.04,1.48,4.34,1.48c1.12,0,1.45-0.31,1.45-0.74
		c0-0.61-0.82-0.71-1.89-0.87c-1.99-0.31-5.13-0.99-5.13-4.13c0-2.17,1.89-4.08,5.31-4.08c1.91,0,3.7,0.59,5.05,1.51
		c-0.51,0.97-0.97,1.71-1.48,2.65c-0.82-0.59-2.19-1.17-3.55-1.17c-0.79,0-1.35,0.28-1.35,0.77s0.77,0.61,1.79,0.77
		c1.96,0.31,5.2,1.07,5.2,4.26c0,2.4-2.12,4.16-5.64,4.16C46.74,110.18,44.47,109.5,43.17,108.4z"/>
	<path d="M56.1,103.7c0-3.57,2.68-6.45,6.56-6.45c3.47,0,6.17,2.6,6.17,6.96v0.77h-8.44c0.28,1.02,1.28,2.02,2.91,2.02
		c0.66,0,2.07-0.31,2.81-0.79l1.68,2.6c-1.2,0.94-3.27,1.38-5,1.38C59.03,110.18,56.1,107.76,56.1,103.7z M62.66,100.44
		c-1.56,0-2.14,1.22-2.3,1.96h4.57C64.75,101.54,64.29,100.44,62.66,100.44z"/>
	<path d="M70.74,109.88v-12.3h4.18v1.61c0.84-1.05,2.47-1.99,3.78-1.99v4.03c-0.23-0.05-0.48-0.05-0.84-0.05
		c-1.2,0-2.93,0.33-2.93,2.5v6.2H70.74z"/>
	<path d="M83.73,109.88l-4.57-12.3h4.36l2.5,7.76l2.55-7.76h4.41l-4.64,12.3H83.73z"/>
	<path d="M94.14,93.37c0-1.15,0.94-2.04,2.12-2.04c1.12,0,2.07,0.89,2.07,2.04c0,1.12-0.94,2.04-2.07,2.04
		C95.08,95.41,94.14,94.49,94.14,93.37z M94.14,109.88v-12.3h4.18v12.3H94.14z"/>
	<path d="M100.49,103.7c0-3.9,2.93-6.45,6.71-6.45c2.6,0,4.21,1.15,4.95,2.14l-2.63,2.6c-0.43-0.56-1.15-0.97-2.12-0.97
		c-1.4,0-2.63,0.92-2.63,2.68c0,1.76,1.22,2.73,2.63,2.73c0.94,0,1.71-0.48,2.14-0.99c0.94,0.94,1.68,1.73,2.6,2.63
		c-0.74,0.97-2.37,2.12-4.95,2.12C103.42,110.18,100.49,107.63,100.49,103.7z"/>
	<path d="M113.42,103.7c0-3.57,2.68-6.45,6.56-6.45c3.47,0,6.17,2.6,6.17,6.96v0.77h-8.44c0.28,1.02,1.28,2.02,2.91,2.02
		c0.66,0,2.07-0.31,2.81-0.79l1.68,2.6c-1.2,0.94-3.27,1.38-5,1.38C116.36,110.18,113.42,107.76,113.42,103.7z M119.98,100.44
		c-1.56,0-2.14,1.22-2.3,1.96h4.57C122.07,101.54,121.61,100.44,119.98,100.44z"/>
</g>
<g>
	<g>
		<path d="M13.62,91.58c-5.53-5.53-5.53-14.52,0-20.05c5.53-5.53,14.52-5.53,20.05,0c5.53,5.53,5.53,14.52,0,20.05
			C28.15,97.1,19.15,97.1,13.62,91.58z M32.81,72.39c-5.05-5.05-13.27-5.05-18.33,0c-5.05,5.05-5.05,13.27,0,18.33
			c5.05,5.05,13.27,5.05,18.33,0C37.87,85.66,37.87,77.44,32.81,72.39z"/>
		<path d="M30.15,73.89L17.38,86.71l0-11.33c0-0.46-0.37-0.84-0.84-0.84c-0.46,0-0.84,0.38-0.84,0.84l0,13.25
			c0,0.26,0.12,0.5,0.31,0.65c0.15,0.15,0.36,0.25,0.58,0.25l13.2,0c0.46,0,0.84-0.37,0.84-0.84c0-0.47-0.37-0.84-0.84-0.84
			l-11.18,0l12.72-12.76c0.33-0.33,0.33-0.86,0-1.19C31.01,73.56,30.48,73.56,30.15,73.89"/>
	</g>
</g>
<g>
	<path d="M21.71,134.08c0.54,0,0.95,0.41,0.95,0.95s-0.41,0.94-0.95,0.94c-0.54,0-0.94-0.4-0.94-0.94S21.17,134.08,21.71,134.08z
		 M20.8,143.81v-6.85h1.83v6.85H20.8z"/>
	<path d="M24.02,140.38c0-2.1,1.56-3.59,3.7-3.59c1.43,0,2.3,0.61,2.75,1.23l-1.19,1.11c-0.34-0.48-0.84-0.74-1.47-0.74
		c-1.12,0-1.9,0.79-1.9,1.98c0,1.19,0.78,2,1.9,2c0.64,0,1.13-0.28,1.47-0.75l1.19,1.11c-0.45,0.62-1.32,1.25-2.75,1.25
		C25.58,143.98,24.02,142.49,24.02,140.38z"/>
	<path d="M32.59,134.08c0.54,0,0.95,0.41,0.95,0.95s-0.41,0.94-0.95,0.94c-0.54,0-0.94-0.4-0.94-0.94S32.06,134.08,32.59,134.08z
		 M31.69,143.81v-6.85h1.83v6.85H31.69z"/>
	<path d="M35.2,145.28c0.34-0.3,0.6-0.89,0.6-1.46c0-0.07,0-0.13-0.01-0.21c-0.45-0.16-0.65-0.45-0.65-0.94
		c0-0.58,0.45-1.01,1.06-1.01c0.75,0,1.28,0.61,1.28,1.46c0,1.3-1.01,2.42-2.27,2.55V145.28z"/>
	<path d="M22.6,157.98l-2.81-6.85h1.96l1.83,4.76l1.84-4.76h1.96l-2.81,6.85H22.6z"/>
	<path d="M27.76,154.55c0-1.94,1.39-3.59,3.69-3.59c2.31,0,3.7,1.64,3.7,3.59s-1.39,3.6-3.7,3.6
		C29.15,158.15,27.76,156.49,27.76,154.55z M33.26,154.55c0-1.06-0.65-1.98-1.81-1.98c-1.15,0-1.8,0.92-1.8,1.98
		c0,1.08,0.65,2,1.8,2C32.61,156.55,33.26,155.63,33.26,154.55z"/>
	<path d="M36.51,154.89v-3.76h1.83v3.98c0,0.79,0.55,1.43,1.46,1.43c0.91,0,1.46-0.64,1.46-1.43v-3.98h1.83v3.76
		c0,1.8-1.25,3.27-3.29,3.27C37.75,158.17,36.51,156.69,36.51,154.89z"/>
	<path d="M44.29,157.09l0.79-1.3c0.52,0.48,1.54,0.95,2.41,0.95c0.79,0,1.18-0.3,1.18-0.72c0-1.12-4.14-0.2-4.14-2.89
		c0-1.15,1.01-2.15,2.86-2.15c1.18,0,2.11,0.4,2.81,0.94l-0.74,1.28c-0.43-0.43-1.22-0.79-2.07-0.79c-0.67,0-1.09,0.28-1.09,0.67
		c0,1.01,4.14,0.16,4.14,2.92c0,1.26-1.09,2.18-3.03,2.18C46.19,158.15,45.02,157.75,44.29,157.09z"/>
	<path d="M54.7,151.14h1.19v-1.87h1.83v1.87h1.4v1.57h-1.4v2.41c0,0.79,0.65,1.42,1.45,1.42v1.62c-1.81,0-3.27-1.47-3.27-3.29v-2.15
		H54.7V151.14z"/>
	<path d="M64.43,152.72c-0.14-0.03-0.27-0.03-0.38-0.03h-0.26c-0.72,0-1.59,0.48-1.59,1.79c0,0.6,0,3.5,0,3.5h-1.83v-6.85h1.83v1.18
		c0.51-0.77,1.19-1.33,2.23-1.33V152.72z"/>
	<path d="M65.12,154.55c0-1.94,1.39-3.59,3.69-3.59c2.31,0,3.7,1.64,3.7,3.59s-1.39,3.6-3.7,3.6
		C66.51,158.15,65.12,156.49,65.12,154.55z M70.62,154.55c0-1.06-0.65-1.98-1.81-1.98c-1.15,0-1.8,0.92-1.8,1.98
		c0,1.08,0.65,2,1.8,2C69.97,156.55,70.62,155.63,70.62,154.55z"/>
	<path d="M73.87,154.89v-3.76h1.83v3.98c0,0.79,0.55,1.43,1.46,1.43s1.46-0.64,1.46-1.43v-3.98h1.83v3.76c0,1.8-1.25,3.27-3.29,3.27
		C75.11,158.17,73.87,156.69,73.87,154.89z"/>
	<path d="M84.06,157.98l-2.81-6.85h1.96l1.83,4.76l1.84-4.76h1.96l-2.81,6.85H84.06z"/>
	<path d="M89.22,154.55c0-1.98,1.5-3.59,3.61-3.59c2.1,0,3.5,1.53,3.5,3.76v0.43h-5.19c0.13,0.84,0.82,1.53,2.01,1.53
		c0.58,0,1.39-0.24,1.84-0.67l0.82,1.19c-0.69,0.62-1.79,0.95-2.88,0.95C90.82,158.15,89.22,156.75,89.22,154.55z M94.56,153.9
		c-0.06-0.65-0.51-1.46-1.73-1.46c-1.15,0-1.63,0.78-1.7,1.46H94.56z"/>
	<path d="M101.74,152.72c-0.14-0.03-0.27-0.03-0.38-0.03h-0.26c-0.72,0-1.59,0.48-1.59,1.79c0,0.6,0,3.5,0,3.5h-1.83v-6.85h1.83
		v1.18c0.51-0.77,1.19-1.33,2.23-1.33V152.72z"/>
	<path d="M102.44,154.55c0-1.98,1.5-3.59,3.61-3.59c2.1,0,3.5,1.53,3.5,3.76v0.43h-5.19c0.13,0.84,0.82,1.53,2.01,1.53
		c0.58,0,1.39-0.24,1.84-0.67l0.82,1.19c-0.69,0.62-1.79,0.95-2.88,0.95C104.04,158.15,102.44,156.75,102.44,154.55z M107.78,153.9
		c-0.06-0.65-0.51-1.46-1.73-1.46c-1.15,0-1.63,0.78-1.7,1.46H107.78z"/>
	<path d="M110.63,157.98v-1.35l3.15-3.93h-3.15v-1.57h5.66v1.29l-3.22,3.98h3.27v1.57H110.63z"/>
	<path d="M19.99,165.31h1.19v-1.87h1.83v1.87h1.4v1.57h-1.4v2.41c0,0.79,0.65,1.42,1.45,1.42v1.62c-1.81,0-3.27-1.47-3.27-3.29
		v-2.15h-1.19V165.31z"/>
	<path d="M25.24,168.72c0-1.94,1.39-3.59,3.69-3.59c2.31,0,3.7,1.64,3.7,3.59c0,1.94-1.39,3.6-3.7,3.6
		C26.63,172.32,25.24,170.67,25.24,168.72z M30.74,168.72c0-1.06-0.65-1.98-1.81-1.98c-1.15,0-1.8,0.92-1.8,1.98
		c0,1.08,0.65,2,1.8,2C30.09,170.72,30.74,169.8,30.74,168.72z"/>
	<path d="M33.98,169.06v-3.76h1.83v3.98c0,0.79,0.55,1.43,1.46,1.43s1.46-0.64,1.46-1.43v-3.98h1.83v3.76c0,1.8-1.25,3.27-3.29,3.27
		C35.23,172.34,33.98,170.86,33.98,169.06z"/>
	<path d="M41.76,171.26l0.79-1.3c0.52,0.48,1.54,0.95,2.41,0.95c0.79,0,1.18-0.3,1.18-0.72c0-1.12-4.14-0.2-4.14-2.89
		c0-1.15,1.01-2.15,2.86-2.15c1.18,0,2.11,0.4,2.81,0.94l-0.74,1.28c-0.43-0.43-1.22-0.79-2.07-0.79c-0.67,0-1.09,0.28-1.09,0.67
		c0,1.01,4.14,0.16,4.14,2.92c0,1.26-1.09,2.18-3.03,2.18C43.66,172.32,42.5,171.93,41.76,171.26z"/>
	<path d="M52.96,172.15v-9.45h1.83v9.45H52.96z"/>
	<path d="M56.15,168.72c0-1.98,1.5-3.59,3.61-3.59c2.1,0,3.5,1.53,3.5,3.76v0.43h-5.19c0.13,0.84,0.82,1.53,2.01,1.53
		c0.58,0,1.39-0.24,1.84-0.67l0.82,1.19c-0.69,0.62-1.79,0.95-2.88,0.95C57.75,172.32,56.15,170.92,56.15,168.72z M61.49,168.07
		c-0.06-0.65-0.51-1.46-1.73-1.46c-1.15,0-1.63,0.78-1.7,1.46H61.49z"/>
	<path d="M64.04,171.26l0.79-1.3c0.52,0.48,1.54,0.95,2.41,0.95c0.79,0,1.18-0.3,1.18-0.72c0-1.12-4.14-0.2-4.14-2.89
		c0-1.15,1.01-2.15,2.86-2.15c1.18,0,2.11,0.4,2.81,0.94l-0.74,1.28c-0.43-0.43-1.22-0.79-2.07-0.79c-0.67,0-1.09,0.28-1.09,0.67
		c0,1.01,4.14,0.16,4.14,2.92c0,1.26-1.09,2.18-3.03,2.18C65.94,172.32,64.78,171.93,64.04,171.26z"/>
	<path d="M27.66,179.48v6.85h-1.83v-1.05c-0.77,1.03-1.7,1.22-2.2,1.22c-2.08,0-3.29-1.66-3.29-3.6c0-1.94,1.35-3.59,3.29-3.59
		c0.5,0,1.43,0.18,2.2,1.35v-1.18H27.66z M25.83,182.9c0-1.06-0.62-1.98-1.79-1.98c-1.15,0-1.77,0.92-1.77,1.98
		c0,1.08,0.62,2,1.77,2C25.21,184.9,25.83,183.98,25.83,182.9z"/>
	<path d="M29.02,182.9c0-2.1,1.56-3.59,3.7-3.59c1.43,0,2.3,0.61,2.75,1.23l-1.19,1.11c-0.34-0.48-0.84-0.74-1.47-0.74
		c-1.12,0-1.9,0.79-1.9,1.98s0.78,2,1.9,2c0.64,0,1.13-0.28,1.47-0.75l1.19,1.11c-0.45,0.62-1.32,1.25-2.75,1.25
		C30.58,186.5,29.02,185.01,29.02,182.9z"/>
	<path d="M36.24,182.9c0-2.1,1.56-3.59,3.7-3.59c1.43,0,2.3,0.61,2.75,1.23l-1.19,1.11c-0.34-0.48-0.84-0.74-1.47-0.74
		c-1.12,0-1.9,0.79-1.9,1.98s0.78,2,1.9,2c0.64,0,1.13-0.28,1.47-0.75l1.19,1.11c-0.45,0.62-1.32,1.25-2.75,1.25
		C37.8,186.5,36.24,185.01,36.24,182.9z"/>
	<path d="M43.45,182.9c0-1.98,1.5-3.59,3.61-3.59c2.1,0,3.5,1.53,3.5,3.76v0.43h-5.19c0.13,0.84,0.82,1.53,2.01,1.53
		c0.58,0,1.39-0.24,1.84-0.67l0.82,1.19c-0.69,0.62-1.79,0.95-2.88,0.95C45.05,186.5,43.45,185.09,43.45,182.9z M48.79,182.25
		c-0.06-0.65-0.51-1.46-1.73-1.46c-1.15,0-1.63,0.78-1.7,1.46H48.79z"/>
	<path d="M51.35,185.43l0.79-1.3c0.52,0.48,1.54,0.95,2.41,0.95c0.79,0,1.18-0.3,1.18-0.72c0-1.12-4.14-0.2-4.14-2.89
		c0-1.15,1.01-2.15,2.86-2.15c1.18,0,2.11,0.4,2.81,0.94l-0.74,1.28c-0.43-0.43-1.22-0.79-2.07-0.79c-0.67,0-1.09,0.28-1.09,0.67
		c0,1.01,4.14,0.16,4.14,2.92c0,1.26-1.09,2.18-3.03,2.18C53.24,186.5,52.08,186.1,51.35,185.43z"/>
	<path d="M58.25,185.43l0.79-1.3c0.52,0.48,1.54,0.95,2.41,0.95c0.79,0,1.18-0.3,1.18-0.72c0-1.12-4.14-0.2-4.14-2.89
		c0-1.15,1.01-2.15,2.86-2.15c1.18,0,2.11,0.4,2.81,0.94l-0.74,1.28c-0.43-0.43-1.22-0.79-2.07-0.79c-0.67,0-1.09,0.28-1.09,0.67
		c0,1.01,4.14,0.16,4.14,2.92c0,1.26-1.09,2.18-3.03,2.18C60.15,186.5,58.98,186.1,58.25,185.43z"/>
	<path d="M65.31,182.9c0-1.94,1.39-3.59,3.69-3.59c2.31,0,3.7,1.64,3.7,3.59c0,1.94-1.39,3.6-3.7,3.6
		C66.69,186.5,65.31,184.84,65.31,182.9z M70.81,182.9c0-1.06-0.65-1.98-1.81-1.98c-1.15,0-1.8,0.92-1.8,1.98c0,1.08,0.65,2,1.8,2
		C70.15,184.9,70.81,183.98,70.81,182.9z"/>
	<path d="M74.99,176.6c0.54,0,0.95,0.41,0.95,0.95s-0.41,0.94-0.95,0.94s-0.94-0.4-0.94-0.94S74.45,176.6,74.99,176.6z
		 M74.08,186.33v-6.85h1.83v6.85H74.08z"/>
	<path d="M81.77,181.07c-0.14-0.03-0.27-0.03-0.38-0.03h-0.26c-0.72,0-1.59,0.48-1.59,1.79c0,0.6,0,3.5,0,3.5h-1.83v-6.85h1.83v1.18
		c0.51-0.77,1.19-1.33,2.23-1.33V181.07z"/>
	<path d="M82.47,182.9c0-1.98,1.5-3.59,3.61-3.59c2.1,0,3.5,1.53,3.5,3.76v0.43H84.4c0.13,0.84,0.82,1.53,2.01,1.53
		c0.58,0,1.39-0.24,1.84-0.67l0.82,1.19c-0.69,0.62-1.79,0.95-2.88,0.95C84.07,186.5,82.47,185.09,82.47,182.9z M87.81,182.25
		c-0.06-0.65-0.51-1.46-1.73-1.46c-1.15,0-1.63,0.78-1.7,1.46H87.81z"/>
	<path d="M90.36,185.43l0.79-1.3c0.52,0.48,1.54,0.95,2.41,0.95c0.79,0,1.18-0.3,1.18-0.72c0-1.12-4.14-0.2-4.14-2.89
		c0-1.15,1.01-2.15,2.86-2.15c1.18,0,2.11,0.4,2.81,0.94l-0.74,1.28c-0.43-0.43-1.22-0.79-2.07-0.79c-0.67,0-1.09,0.28-1.09,0.67
		c0,1.01,4.14,0.16,4.14,2.92c0,1.26-1.09,2.18-3.03,2.18C92.26,186.5,91.1,186.1,90.36,185.43z"/>
	<path d="M101.13,182.9c0-1.98,1.5-3.59,3.61-3.59c2.1,0,3.5,1.53,3.5,3.76v0.43h-5.19c0.13,0.84,0.82,1.53,2.01,1.53
		c0.58,0,1.39-0.24,1.84-0.67l0.82,1.19c-0.69,0.62-1.79,0.95-2.88,0.95C102.74,186.5,101.13,185.09,101.13,182.9z M106.48,182.25
		c-0.06-0.65-0.51-1.46-1.73-1.46c-1.15,0-1.63,0.78-1.7,1.46H106.48z"/>
	<path d="M108.83,179.48h1.19v-1.87h1.83v1.87h1.4v1.57h-1.4v2.41c0,0.79,0.65,1.42,1.45,1.42v1.62c-1.81,0-3.27-1.47-3.27-3.29
		v-2.15h-1.19V179.48z"/>
	<path d="M20.77,200.5v-9.45h1.83v9.45H20.77z"/>
	<path d="M24.02,194.52c0.34-0.3,0.6-0.89,0.6-1.46c0-0.07,0-0.13-0.01-0.21c-0.45-0.16-0.65-0.45-0.65-0.94
		c0-0.58,0.45-1.01,1.06-1.01c0.75,0,1.28,0.61,1.28,1.46c0,1.3-1.01,2.42-2.27,2.55V194.52z"/>
	<path d="M27.21,197.07c0-1.98,1.5-3.59,3.61-3.59c2.1,0,3.5,1.53,3.5,3.76v0.43h-5.19c0.13,0.84,0.82,1.53,2.01,1.53
		c0.58,0,1.39-0.24,1.84-0.67l0.82,1.19c-0.69,0.62-1.79,0.95-2.88,0.95C28.81,200.67,27.21,199.27,27.21,197.07z M32.55,196.42
		c-0.06-0.65-0.51-1.46-1.73-1.46c-1.15,0-1.63,0.78-1.7,1.46H32.55z"/>
	<path d="M35.1,199.61l0.79-1.3c0.52,0.48,1.54,0.95,2.41,0.95c0.79,0,1.18-0.3,1.18-0.72c0-1.12-4.14-0.2-4.14-2.89
		c0-1.15,1.01-2.15,2.86-2.15c1.18,0,2.11,0.4,2.81,0.94l-0.74,1.28c-0.43-0.43-1.22-0.79-2.07-0.79c-0.67,0-1.09,0.28-1.09,0.67
		c0,1.01,4.14,0.16,4.14,2.92c0,1.26-1.09,2.18-3.03,2.18C37,200.67,35.84,200.27,35.1,199.61z"/>
	<path d="M44.41,193.66v1.18c0.77-1.16,1.7-1.35,2.2-1.35c1.94,0,3.29,1.64,3.29,3.59c0,1.94-1.2,3.6-3.29,3.6
		c-0.5,0-1.43-0.18-2.2-1.22v3.66h-1.83v-9.45H44.41z M47.97,197.07c0-1.06-0.62-1.98-1.77-1.98c-1.16,0-1.79,0.92-1.79,1.98
		c0,1.08,0.62,2,1.79,2C47.35,199.07,47.97,198.15,47.97,197.07z"/>
	<path d="M58.15,193.66v6.85h-1.83v-1.05c-0.77,1.03-1.7,1.22-2.2,1.22c-2.08,0-3.29-1.66-3.29-3.6c0-1.94,1.35-3.59,3.29-3.59
		c0.5,0,1.43,0.18,2.2,1.35v-1.18H58.15z M56.32,197.07c0-1.06-0.62-1.98-1.79-1.98c-1.15,0-1.77,0.92-1.77,1.98
		c0,1.08,0.62,2,1.77,2C55.7,199.07,56.32,198.15,56.32,197.07z"/>
	<path d="M59.51,197.07c0-2.1,1.56-3.59,3.7-3.59c1.43,0,2.3,0.61,2.75,1.23l-1.19,1.11c-0.34-0.48-0.84-0.74-1.47-0.74
		c-1.12,0-1.9,0.79-1.9,1.98s0.78,2,1.9,2c0.64,0,1.13-0.28,1.47-0.75l1.19,1.11c-0.45,0.62-1.32,1.25-2.75,1.25
		C61.07,200.67,59.51,199.18,59.51,197.07z"/>
	<path d="M66.72,197.07c0-1.98,1.5-3.59,3.61-3.59c2.1,0,3.5,1.53,3.5,3.76v0.43h-5.19c0.13,0.84,0.82,1.53,2.01,1.53
		c0.58,0,1.39-0.24,1.84-0.67l0.82,1.19c-0.69,0.62-1.79,0.95-2.88,0.95C68.32,200.67,66.72,199.27,66.72,197.07z M72.07,196.42
		c-0.06-0.65-0.51-1.46-1.73-1.46c-1.15,0-1.63,0.78-1.7,1.46H72.07z"/>
	<path d="M80.74,193.66v1.18c0.77-1.16,1.7-1.35,2.2-1.35c1.94,0,3.29,1.64,3.29,3.59c0,1.94-1.2,3.6-3.29,3.6
		c-0.5,0-1.43-0.18-2.2-1.22v3.66h-1.83v-9.45H80.74z M84.3,197.07c0-1.06-0.62-1.98-1.77-1.98c-1.16,0-1.79,0.92-1.79,1.98
		c0,1.08,0.62,2,1.79,2C83.67,199.07,84.3,198.15,84.3,197.07z"/>
	<path d="M91.64,195.24c-0.14-0.03-0.27-0.03-0.38-0.03H91c-0.72,0-1.59,0.48-1.59,1.79c0,0.6,0,3.5,0,3.5h-1.83v-6.85h1.83v1.18
		c0.51-0.77,1.19-1.33,2.23-1.33V195.24z"/>
	<path d="M92.33,197.07c0-1.94,1.39-3.59,3.69-3.59c2.31,0,3.7,1.64,3.7,3.59c0,1.94-1.39,3.6-3.7,3.6
		C93.72,200.67,92.33,199.01,92.33,197.07z M97.83,197.07c0-1.06-0.65-1.98-1.81-1.98c-1.15,0-1.8,0.92-1.8,1.98
		c0,1.08,0.65,2,1.8,2C97.18,199.07,97.83,198.15,97.83,197.07z"/>
	<path d="M99.72,201.66c0.79,0,1.45-0.62,1.45-1.42v-6.59h1.83v6.34c0,1.81-1.46,3.29-3.27,3.29V201.66z M102.07,190.78
		c0.54,0,0.95,0.41,0.95,0.95s-0.41,0.94-0.95,0.94c-0.54,0-0.94-0.4-0.94-0.94S101.53,190.78,102.07,190.78z"/>
	<path d="M104.38,197.07c0-1.98,1.5-3.59,3.61-3.59c2.1,0,3.5,1.53,3.5,3.76v0.43h-5.19c0.13,0.84,0.82,1.53,2.01,1.53
		c0.58,0,1.39-0.24,1.84-0.67l0.82,1.19c-0.69,0.62-1.79,0.95-2.88,0.95C105.98,200.67,104.38,199.27,104.38,197.07z M109.72,196.42
		c-0.06-0.65-0.51-1.46-1.73-1.46c-1.15,0-1.63,0.78-1.7,1.46H109.72z"/>
	<path d="M112.08,193.66h1.19v-1.87h1.83v1.87h1.4v1.57h-1.4v2.41c0,0.79,0.65,1.42,1.45,1.42v1.62c-1.81,0-3.27-1.47-3.27-3.29
		v-2.15h-1.19V193.66z"/>
</g>
</svg>
