<?xml version="1.0" encoding="utf-8"?>
<!-- Generator: Adobe Illustrator 26.5.0, SVG Export Plug-In . SVG Version: 6.00 Build 0)  -->
<svg version="1.1" id="Calque_1" xmlns="http://www.w3.org/2000/svg" xmlns:xlink="http://www.w3.org/1999/xlink" x="0px" y="0px"
	 viewBox="0 0 2976.4 1488.2" style="enable-background:new 0 0 2976.4 1488.2;" xml:space="preserve">
<style type="text/css">
	.st0{clip-path:url(#SVGID_00000042709739088068714890000008671480939132094863_);}
	.st1{clip-path:url(#SVGID_00000175281834601147142510000006497560082307013296_);}
	.st2{clip-path:url(#SVGID_00000180356422136839134470000017343470732777926321_);fill:#FFD100;}
	.st3{clip-path:url(#SVGID_00000180356422136839134470000017343470732777926321_);}
	.st4{fill:#005CB9;}
	.st5{font-family:'CastoBlack-Black';}
	.st6{font-size:174.4565px;}
	.st7{font-family:'CastoRegular';}
	.st8{font-size:69.7826px;}
	.st9{clip-path:url(#SVGID_00000095327088832676832620000013898834293233050022_);fill:#005CB9;}
	.st10{clip-path:url(#SVGID_00000123429103649695149460000005504252933639629242_);}
	.st11{clip-path:url(#SVGID_00000027573192786348436500000017218670553022806716_);fill:#FFD100;}
	.st12{clip-path:url(#SVGID_00000027573192786348436500000017218670553022806716_);}
	.st13{clip-path:url(#SVGID_00000172410010924124298870000013757538469195602567_);fill:#005CB9;}
	
		.st14{clip-path:url(#SVGID_00000042709739088068714890000008671480939132094863_);fill:none;stroke:#FFFFFF;stroke-width:6;stroke-miterlimit:10;}
</style>
<g>
	<defs>
		<rect id="SVGID_1_" width="2976.4" height="1488.2"/>
	</defs>
	<clipPath id="SVGID_00000085224573215706004740000009023728127158802576_">
		<use xlink:href="#SVGID_1_"  style="overflow:visible;"/>
	</clipPath>
	<g style="clip-path:url(#SVGID_00000085224573215706004740000009023728127158802576_);">
		<defs>
			<rect id="SVGID_00000043446911698463234760000000285252266686327998_" x="-14.2" y="-14.2" width="1502.4" height="1516.5"/>
		</defs>
		<clipPath id="SVGID_00000119114452544111210450000008391531812737110179_">
			<use xlink:href="#SVGID_00000043446911698463234760000000285252266686327998_"  style="overflow:visible;"/>
		</clipPath>
		<g style="clip-path:url(#SVGID_00000119114452544111210450000008391531812737110179_);">
			<g>
				<defs>
					<rect id="SVGID_00000101792866812496140370000003005689585341621893_" x="-14.2" y="-14.2" width="1516.5" height="1516.5"/>
				</defs>
				<clipPath id="SVGID_00000006707533385054455000000013992438576802587807_">
					<use xlink:href="#SVGID_00000101792866812496140370000003005689585341621893_"  style="overflow:visible;"/>
				</clipPath>
				
					<rect x="-14" y="-13.9" style="clip-path:url(#SVGID_00000006707533385054455000000013992438576802587807_);fill:#FFD100;" width="1516.4" height="1516.2"/>
				<g style="clip-path:url(#SVGID_00000006707533385054455000000013992438576802587807_);">
					<text transform="matrix(1 0 0 1 391.3186 805.1097)" class="st4 st5 st6">livraison</text>
				</g>
				<g style="clip-path:url(#SVGID_00000006707533385054455000000013992438576802587807_);">
					<text transform="matrix(1 0 0 1 322.0589 938.9178)" class="st4 st5 st6">à domicile</text>
				</g>
				<g style="clip-path:url(#SVGID_00000006707533385054455000000013992438576802587807_);">
					<text transform="matrix(1 0 0 1 354.9934 1100.1877)" class="st4 st7 st8">Pas de temps à perdre ?</text>
				</g>
				<g style="clip-path:url(#SVGID_00000006707533385054455000000013992438576802587807_);">
					<text transform="matrix(1 0 0 1 567.4818 1169.9705)" class="st4 st5 st8">Gagnez-en</text>
				</g>
				<g style="clip-path:url(#SVGID_00000006707533385054455000000013992438576802587807_);">
					<defs>
						<rect id="SVGID_00000028318314681111629060000002906168624986952337_" x="-14.2" y="-14.2" width="1516.5" height="1516.5"/>
					</defs>
					<clipPath id="SVGID_00000033368211466536482100000003455002489117691039_">
						<use xlink:href="#SVGID_00000028318314681111629060000002906168624986952337_"  style="overflow:visible;"/>
					</clipPath>
					<path style="clip-path:url(#SVGID_00000033368211466536482100000003455002489117691039_);fill:#005CB9;" d="M870.2,511.7
						c-23.6,0-44.1,15.7-44.1,43.7c0,27.9,20.7,43.6,44.1,43.6c23.4,0,43.9-15.8,43.9-43.6C914.1,527.4,893.5,511.7,870.2,511.7"/>
					<path style="clip-path:url(#SVGID_00000033368211466536482100000003455002489117691039_);fill:#005CB9;" d="M619.6,511.7
						c-23.6,0-44.1,15.7-44.1,43.7c0,27.9,20.8,43.6,44.1,43.6c23.4,0,44-15.8,44-43.6C663.6,527.4,643.1,511.7,619.6,511.7"/>
					<path style="clip-path:url(#SVGID_00000033368211466536482100000003455002489117691039_);fill:#005CB9;" d="M970.8,514.3h-2.5
						v-25.6v-19.9v-10c0-63.3-51.4-114.7-114.7-114.7c-3.2,0-6.2,0.2-9.4,0.4c-11.4-23.1-35-38.9-62.5-38.9H598.5
						c-38.5,0-69.7,31.2-69.7,69.8v93.5v19.9v25.6h-11.2c-9.2,0-16.5,7.4-16.5,16.5c0,9.1,7.4,16.5,16.5,16.5h35.1l1-6.8
						c6.4-33.3,34.4-51.9,66-51.9c33.4,0,62.9,21,66.7,58.6h117c3.8-37.6,33.4-58.6,67-58.6c31.3,0,59.2,18.4,65.7,51.7l1,7h6.1
						h27.6c9.2,0,16.5-7.4,16.5-16.5C987.4,521.7,980,514.3,970.8,514.3 M881.3,450.7c-11,0-20.1-8.3-21.3-19v-59.2
						c43.2,0,78.2,35,78.2,78.2H881.3z"/>
				</g>
			</g>
		</g>
	</g>
	<g style="clip-path:url(#SVGID_00000085224573215706004740000009023728127158802576_);">
		<defs>
			<rect id="SVGID_00000099636979617315564770000004563518806962551479_" x="1488.2" y="-14.2" width="1502.4" height="1516.5"/>
		</defs>
		<clipPath id="SVGID_00000030486405393537257510000006295216968064094380_">
			<use xlink:href="#SVGID_00000099636979617315564770000004563518806962551479_"  style="overflow:visible;"/>
		</clipPath>
		<g style="clip-path:url(#SVGID_00000030486405393537257510000006295216968064094380_);">
			<g>
				<defs>
					<rect id="SVGID_00000003087692763834721900000017058147779045099433_" x="1474" y="-14.2" width="1516.5" height="1516.5"/>
				</defs>
				<clipPath id="SVGID_00000153704076219949369990000001501829167488587194_">
					<use xlink:href="#SVGID_00000003087692763834721900000017058147779045099433_"  style="overflow:visible;"/>
				</clipPath>
				
					<rect x="1474" y="-14.2" style="clip-path:url(#SVGID_00000153704076219949369990000001501829167488587194_);fill:#FFD100;" width="1516.5" height="1516.5"/>
				<g style="clip-path:url(#SVGID_00000153704076219949369990000001501829167488587194_);">
					<text transform="matrix(1 0 0 1 1898.99 804.8109)" class="st4 st5 st6">location</text>
				</g>
				<g style="clip-path:url(#SVGID_00000153704076219949369990000001501829167488587194_);">
					<text transform="matrix(1 0 0 1 1772.5085 938.619)" class="st4 st5 st6">de véhicule</text>
				</g>
				<g style="clip-path:url(#SVGID_00000153704076219949369990000001501829167488587194_);">
					<text transform="matrix(1 0 0 1 1881.6287 1099.8918)" class="st4 st7 st8">Besoin d’un véhicule ?</text>
				</g>
				<g style="clip-path:url(#SVGID_00000153704076219949369990000001501829167488587194_);">
					<text transform="matrix(1 0 0 1 1858.2517 1169.6746)" class="st4 st5 st8">Louez un véhicule pour</text>
				</g>
				<g style="clip-path:url(#SVGID_00000153704076219949369990000001501829167488587194_);">
					<text transform="matrix(1 0 0 1 1872.9753 1239.4568)" class="st4 st5 st8">8,90€ par demi-heure</text>
				</g>
				<g style="clip-path:url(#SVGID_00000153704076219949369990000001501829167488587194_);">
					<defs>
						<rect id="SVGID_00000063616918642519975710000015462843742192854463_" x="1474" y="-14.2" width="1516.5" height="1516.5"/>
					</defs>
					<clipPath id="SVGID_00000116220328232239505080000013683206208424986038_">
						<use xlink:href="#SVGID_00000063616918642519975710000015462843742192854463_"  style="overflow:visible;"/>
					</clipPath>
					<path style="clip-path:url(#SVGID_00000116220328232239505080000013683206208424986038_);fill:#005CB9;" d="M2143.7,412.4
						c0.6,4.1,4.5,6.9,8.8,6.2c4.2-0.7,7.1-4.7,6.5-8.8c-4-27,14.1-53.6,42.4-61.9c27.3-8.1,55.2,3.3,66.5,27
						c1.8,3.8,6.4,5.3,10.3,3.5c0.3-0.1,0.5-0.2,0.7-0.4c3.4-2.1,4.7-6.3,3-9.8c-14.4-30.3-50-45-84.6-34.8
						C2161.6,343.8,2138.5,377.8,2143.7,412.4"/>
					<path style="clip-path:url(#SVGID_00000116220328232239505080000013683206208424986038_);fill:#005CB9;" d="M2495.1,491
						l-5.5-3.5c-0.6,0.7-1.3,1.3-2.2,1.7c-2.2,1.1-4.9,1-7.1-0.4c-3.4-2.2-4.3-6.7-2.1-10l0.4-0.7l-5.9-4.3l-0.5,0.8
						c-0.8,1.2-1.8,2-2.9,2.5c-2.2,1.1-4.9,1-7.1-0.4c-3.4-2.2-4.3-6.7-2.1-10l1-1.7l-6.5-4.7l-0.6,0.9c-0.7,1.1-1.7,2-2.9,2.5
						c-2.2,1.1-4.9,1-7.2-0.4c-3.3-2.1-4.3-6.6-2.2-10l1.1-1.7l-47.1-34.6c0.4-3.6-1.2-7.3-4.5-9.5c-2.9-1.9-6.5-2.1-9.5-0.8
						l-0.1-0.1c3-11.4,3.5-23.4,1.3-35.2c-3.9-21.3-15.8-39.7-33.5-52c-24-16.6-55.2-19-81.5-6.2c-8.1,3.9-15.4,9.2-21.8,15.6
						c13.4,4.9,25.1,13.2,33.6,24.6c3.7-0.4,7.6,0.2,11.1,1.8c5.4,2.4,9.5,6.7,11.5,12.2c4,10.5-0.7,22.6-10.8,27.5
						c-0.5,0.3-1.1,0.6-1.7,0.8c-5.5,2.1-11.4,1.9-16.7-0.4c-5.4-2.4-9.5-6.7-11.6-12.2c-1.3-3.3-1.6-6.8-1.3-10.1
						c-6.7-10.8-17.7-18.1-30.2-20.9c-12.3,26.6-8.9,57.6,7.8,81c-4.2,2.3-9.1,4.3-14.8,5.6c-5.4,1.3-10.5,1.7-15.1,1.5
						c-0.6-23.4-11.5-48.3-32.2-67.2c-0.5-0.4-0.9-0.8-1.4-1.2c-6.8,8.8-10.6,19.4-10.4,30.4c1,1.6,1.9,3.2,2.5,5
						c3.2,9.8-1.4,20.5-10.7,25.1c-0.8,0.4-1.7,0.8-2.7,1.1c-10.9,3.5-22.6-2.5-26.1-13.4c-3.1-9.6,1.3-20.3,10.3-24.9
						c1.3-13.9,6.6-27.1,15.1-38.4c-23.9-12.1-50.7-13.7-72.3-3.2c-7.2,3.5-13.6,8.3-18.9,14.1l-82.9,90.7
						c-27.4,30-20.4,81,15.5,113.9c28.2,25.7,66.7,33.5,95.8,19.4c7.2-3.5,13.5-8.3,18.9-14.1l82.9-90.7
						c7.7-8.4,12.6-18.5,15.1-29.4c6.3,0.4,13.2-0.1,20.7-1.9c5.9-1.4,11.1-3.3,15.8-5.6c2.4-1.2,4.7-2.5,6.7-3.8
						c2.4,2.2,5.1,4.3,7.8,6.1c24,16.6,55.2,19.1,81.5,6.3c5.7-2.8,11-6.3,15.9-10.3c0.1,3.3,1.7,6.4,4.6,8.3
						c3.1,2.1,6.9,2.2,10,0.7c0.9-0.4,1.8-1.1,2.5-1.8l34.8,19.6l14.7,9.6l1.7-2.6c2.2-3.3,6.6-4.3,10-2.1c3.4,2.2,4.3,6.6,2.2,10
						l-1.7,2.6l6.8,4.4l1-1.6c2.2-3.3,6.6-4.3,10-2.1c3.4,2.1,4.3,6.6,2.2,10l-1.1,1.6l6.2,4l0.9-1.3c2.2-3.4,6.6-4.3,10-2.1
						c3.4,2.1,4.3,6.6,2.2,10l-0.9,1.4l1.6,1c0.5,0.3,0.9,0.5,1.3,0.7l2.5,1.6c5.3,3.4,11.7,3.6,17,1c2.8-1.4,5.2-3.4,6.9-6.2
						C2505.4,507,2503.1,496.3,2495.1,491"/>
				</g>
			</g>
		</g>
	</g>
	
		<line style="clip-path:url(#SVGID_00000085224573215706004740000009023728127158802576_);fill:none;stroke:#FFFFFF;stroke-width:6;stroke-miterlimit:10;" x1="1488.2" y1="1502.4" x2="1488.2" y2="-14.2"/>
</g>
</svg>
