<?xml version="1.0" encoding="utf-8"?>
<!-- Generator: Adobe Illustrator 26.5.0, SVG Export Plug-In . SVG Version: 6.00 Build 0)  -->
<svg version="1.1" id="Calque_1" xmlns="http://www.w3.org/2000/svg" xmlns:xlink="http://www.w3.org/1999/xlink" x="0px" y="0px"
	 viewBox="0 0 2976.4 1488.2" style="enable-background:new 0 0 2976.4 1488.2;" xml:space="preserve">
<style type="text/css">
	.st0{display:none;fill:none;stroke:#FFFFFF;stroke-width:6;stroke-miterlimit:10;}
	.st1{clip-path:url(#SVGID_00000045588720040706297200000008024039277625813435_);}
	.st2{clip-path:url(#SVGID_00000150070043892104142200000000221515015908371868_);}
	.st3{clip-path:url(#SVGID_00000119094410176533436100000000579818548316080308_);fill:#005CB9;}
	.st4{clip-path:url(#SVGID_00000119094410176533436100000000579818548316080308_);}
	.st5{fill:#FFFFFF;}
	.st6{font-family:'CastoBlack-Black';}
	.st7{font-size:174.4565px;}
	.st8{font-family:'CastoRegular';}
	.st9{font-size:69.7826px;}
	.st10{clip-path:url(#SVGID_00000157266589443619845120000000261488517005229494_);fill:#FFFFFF;}
	.st11{clip-path:url(#SVGID_00000183214962948581046740000009770679044098992512_);}
	.st12{clip-path:url(#SVGID_00000039840328428585354660000017221530554380273298_);fill:#FFD100;}
	.st13{clip-path:url(#SVGID_00000039840328428585354660000017221530554380273298_);}
	.st14{fill:#005CB9;}
	.st15{clip-path:url(#SVGID_00000132767072152875417440000013683244863612030639_);fill:#005CB9;}
</style>
<line class="st0" x1="1488.2" y1="1502.4" x2="1488.2" y2="-14.2"/>
<g>
	<defs>
		<rect id="SVGID_1_" width="2976.4" height="1488.2"/>
	</defs>
	<clipPath id="SVGID_00000070841263553340575110000003795114906450125712_">
		<use xlink:href="#SVGID_1_"  style="overflow:visible;"/>
	</clipPath>
	<g style="clip-path:url(#SVGID_00000070841263553340575110000003795114906450125712_);">
		<defs>
			<rect id="SVGID_00000173842844363778873910000002491866269698389916_" x="-14.2" y="-14.2" width="1502.4" height="1516.5"/>
		</defs>
		<clipPath id="SVGID_00000075883706426654445510000016189639018689434788_">
			<use xlink:href="#SVGID_00000173842844363778873910000002491866269698389916_"  style="overflow:visible;"/>
		</clipPath>
		<g style="clip-path:url(#SVGID_00000075883706426654445510000016189639018689434788_);">
			<g>
				<defs>
					<rect id="SVGID_00000043451519935714297530000006839513217244725406_" x="-14.2" y="-14.2" width="1516.5" height="1516.5"/>
				</defs>
				<clipPath id="SVGID_00000059278693108607044810000008307960750854423230_">
					<use xlink:href="#SVGID_00000043451519935714297530000006839513217244725406_"  style="overflow:visible;"/>
				</clipPath>
				
					<rect x="-14.2" y="-14.2" style="clip-path:url(#SVGID_00000059278693108607044810000008307960750854423230_);fill:#005CB9;" width="1516.5" height="1516.5"/>
				<g style="clip-path:url(#SVGID_00000059278693108607044810000008307960750854423230_);">
					<text transform="matrix(1 0 0 1 352.1809 804.8099)" class="st5 st6 st7">avantage</text>
				</g>
				<g style="clip-path:url(#SVGID_00000059278693108607044810000008307960750854423230_);">
					<text transform="matrix(1 0 0 1 532.3948 938.618)" class="st5 st6 st7">carte</text>
				</g>
				<g style="clip-path:url(#SVGID_00000059278693108607044810000008307960750854423230_);">
					<text transform="matrix(1.0071 0 0 1 471.9544 1099.8918)" class="st5 st8 st9">Carte castorama</text>
				</g>
				<g style="clip-path:url(#SVGID_00000059278693108607044810000008307960750854423230_);">
					<text transform="matrix(1 0 0 1 430.844 1169.6741)" class="st5 st6 st9">Bien accompagné, </text>
				</g>
				<g style="clip-path:url(#SVGID_00000059278693108607044810000008307960750854423230_);">
					<text transform="matrix(1 0 0 1 402.8616 1239.4568)" class="st5 st6 st9">en avant les projets !</text>
				</g>
				<g style="clip-path:url(#SVGID_00000059278693108607044810000008307960750854423230_);">
					<defs>
						<rect id="SVGID_00000158711368483329145170000005376337978039429043_" x="-14.2" y="-14.2" width="1516.5" height="1516.5"/>
					</defs>
					<clipPath id="SVGID_00000093896194128358859900000008721171852612266406_">
						<use xlink:href="#SVGID_00000158711368483329145170000005376337978039429043_"  style="overflow:visible;"/>
					</clipPath>
					<path style="clip-path:url(#SVGID_00000093896194128358859900000008721171852612266406_);fill:#FFFFFF;" d="M950.6,417.9
						c-0.1-29.6-24.1-53.5-53.8-53.4l-8.1,0l30,83.1c5.6,15.6,4.9,32.4-2.2,47.4c-7,15-19.5,26.4-35.1,32L685,598l212.5-0.6
						c29.6-0.1,53.5-24.2,53.4-53.8L950.6,417.9z"/>
					<path style="clip-path:url(#SVGID_00000093896194128358859900000008721171852612266406_);fill:#FFFFFF;" d="M902.9,453.3
						l-34.9-96.6l-273.3,98.8c-1.9,0.7-3.8,1-5.7,1c-6.9,0-13.4-4.3-15.9-11.2c-3.2-8.8,1.4-18.5,10.2-21.6l272-98.3
						c-8.3-12.3-22.2-20.2-37.4-20.2c-5.2,0-10.4,0.9-15.4,2.7L567,393c-23.4,8.5-35.6,34.4-27.1,57.8l42.8,118.3
						c8.2,22.7,34.8,35.4,57.8,27.1l235.3-85.1c11.3-4.1,20.4-12.4,25.5-23.3C906.4,476.9,907,464.6,902.9,453.3"/>
				</g>
			</g>
		</g>
	</g>
	<g style="clip-path:url(#SVGID_00000070841263553340575110000003795114906450125712_);">
		<defs>
			<rect id="SVGID_00000156571131910159394350000013818960015825928118_" x="1488.2" y="-14.2" width="1502.4" height="1516.5"/>
		</defs>
		<clipPath id="SVGID_00000040570566319413045940000001310940226087430814_">
			<use xlink:href="#SVGID_00000156571131910159394350000013818960015825928118_"  style="overflow:visible;"/>
		</clipPath>
		<g style="clip-path:url(#SVGID_00000040570566319413045940000001310940226087430814_);">
			<g>
				<defs>
					<rect id="SVGID_00000048503137784633120370000002364634683132449952_" x="1474" y="-14.2" width="1516.5" height="1516.5"/>
				</defs>
				<clipPath id="SVGID_00000071549850555951803030000009888144403374842248_">
					<use xlink:href="#SVGID_00000048503137784633120370000002364634683132449952_"  style="overflow:visible;"/>
				</clipPath>
				
					<rect x="1474" y="-14.2" style="clip-path:url(#SVGID_00000071549850555951803030000009888144403374842248_);fill:#FFD100;" width="1516.5" height="1516.5"/>
				<g style="clip-path:url(#SVGID_00000071549850555951803030000009888144403374842248_);">
					<text transform="matrix(1 0 0 1 1898.99 804.8109)" class="st14 st6 st7">location</text>
				</g>
				<g style="clip-path:url(#SVGID_00000071549850555951803030000009888144403374842248_);">
					<text transform="matrix(1 0 0 1 1772.5085 938.619)" class="st14 st6 st7">de véhicule</text>
				</g>
				<g style="clip-path:url(#SVGID_00000071549850555951803030000009888144403374842248_);">
					<text transform="matrix(1 0 0 1 1881.6287 1099.8918)" class="st14 st8 st9">Besoin d’un véhicule ?</text>
				</g>
				<g style="clip-path:url(#SVGID_00000071549850555951803030000009888144403374842248_);">
					<text transform="matrix(1 0 0 1 1858.2517 1169.6746)" class="st14 st6 st9">Louez un véhicule pour</text>
				</g>
				<g style="clip-path:url(#SVGID_00000071549850555951803030000009888144403374842248_);">
					<text transform="matrix(1 0 0 1 1872.9753 1239.4568)" class="st14 st6 st9">8,90€ par demi-heure</text>
				</g>
				<g style="clip-path:url(#SVGID_00000071549850555951803030000009888144403374842248_);">
					<defs>
						<rect id="SVGID_00000072997139660447782410000011269807572145198254_" x="1474" y="-14.2" width="1516.5" height="1516.5"/>
					</defs>
					<clipPath id="SVGID_00000017504379548146052110000016059338422171450012_">
						<use xlink:href="#SVGID_00000072997139660447782410000011269807572145198254_"  style="overflow:visible;"/>
					</clipPath>
					<path style="clip-path:url(#SVGID_00000017504379548146052110000016059338422171450012_);fill:#005CB9;" d="M2143.7,412.4
						c0.6,4.1,4.5,6.9,8.8,6.2c4.2-0.7,7.1-4.7,6.5-8.8c-4-27,14.1-53.6,42.4-61.9c27.3-8.1,55.2,3.3,66.5,27
						c1.8,3.8,6.4,5.3,10.3,3.5c0.3-0.1,0.5-0.2,0.7-0.4c3.4-2.1,4.7-6.3,3-9.8c-14.4-30.3-50-45-84.6-34.8
						C2161.6,343.8,2138.5,377.8,2143.7,412.4"/>
					<path style="clip-path:url(#SVGID_00000017504379548146052110000016059338422171450012_);fill:#005CB9;" d="M2495.1,491
						l-5.5-3.5c-0.6,0.7-1.3,1.3-2.2,1.7c-2.2,1.1-4.9,1-7.1-0.4c-3.4-2.2-4.3-6.7-2.1-10l0.4-0.7l-5.9-4.3l-0.5,0.8
						c-0.8,1.2-1.8,2-2.9,2.5c-2.2,1.1-4.9,1-7.1-0.4c-3.4-2.2-4.3-6.7-2.1-10l1-1.7l-6.5-4.7l-0.6,0.9c-0.7,1.1-1.7,2-2.9,2.5
						c-2.2,1.1-4.9,1-7.2-0.4c-3.3-2.1-4.3-6.6-2.2-10l1.1-1.7l-47.1-34.6c0.4-3.6-1.2-7.3-4.5-9.5c-2.9-1.9-6.5-2.1-9.5-0.8
						l-0.1-0.1c3-11.4,3.5-23.4,1.3-35.2c-3.9-21.3-15.8-39.7-33.5-52c-24-16.6-55.2-19-81.5-6.2c-8.1,3.9-15.4,9.2-21.8,15.6
						c13.4,4.9,25.1,13.2,33.6,24.6c3.7-0.4,7.6,0.2,11.1,1.8c5.4,2.4,9.5,6.7,11.5,12.2c4,10.5-0.7,22.6-10.8,27.5
						c-0.5,0.3-1.1,0.6-1.7,0.8c-5.5,2.1-11.4,1.9-16.7-0.4c-5.4-2.4-9.5-6.7-11.6-12.2c-1.3-3.3-1.6-6.8-1.3-10.1
						c-6.7-10.8-17.7-18.1-30.2-20.9c-12.3,26.6-8.9,57.6,7.8,81c-4.2,2.3-9.1,4.3-14.8,5.6c-5.4,1.3-10.5,1.7-15.1,1.5
						c-0.6-23.4-11.5-48.3-32.2-67.2c-0.5-0.4-0.9-0.8-1.4-1.2c-6.8,8.8-10.6,19.4-10.4,30.4c1,1.6,1.9,3.2,2.5,5
						c3.2,9.8-1.4,20.5-10.7,25.1c-0.8,0.4-1.7,0.8-2.7,1.1c-10.9,3.5-22.6-2.5-26.1-13.4c-3.1-9.6,1.3-20.3,10.3-24.9
						c1.3-13.9,6.6-27.1,15.1-38.4c-23.9-12.1-50.7-13.7-72.3-3.2c-7.2,3.5-13.6,8.3-18.9,14.1l-82.9,90.7
						c-27.4,30-20.4,81,15.5,113.9c28.2,25.7,66.7,33.5,95.8,19.4c7.2-3.5,13.5-8.3,18.9-14.1l82.9-90.7
						c7.7-8.4,12.6-18.5,15.1-29.4c6.3,0.4,13.2-0.1,20.7-1.9c5.9-1.4,11.1-3.3,15.8-5.6c2.4-1.2,4.7-2.5,6.7-3.8
						c2.4,2.2,5.1,4.3,7.8,6.1c24,16.6,55.2,19.1,81.5,6.3c5.7-2.8,11-6.3,15.9-10.3c0.1,3.3,1.7,6.4,4.6,8.3
						c3.1,2.1,6.9,2.2,10,0.7c0.9-0.4,1.8-1.1,2.5-1.8l34.8,19.6l14.7,9.6l1.7-2.6c2.2-3.3,6.6-4.3,10-2.1c3.4,2.2,4.3,6.6,2.2,10
						l-1.7,2.6l6.8,4.4l1-1.6c2.2-3.3,6.6-4.3,10-2.1c3.4,2.1,4.3,6.6,2.2,10l-1.1,1.6l6.2,4l0.9-1.3c2.2-3.4,6.6-4.3,10-2.1
						c3.4,2.1,4.3,6.6,2.2,10l-0.9,1.4l1.6,1c0.5,0.3,0.9,0.5,1.3,0.7l2.5,1.6c5.3,3.4,11.7,3.6,17,1c2.8-1.4,5.2-3.4,6.9-6.2
						C2505.4,507,2503.1,496.3,2495.1,491"/>
				</g>
			</g>
		</g>
	</g>
</g>
</svg>
