<?xml version="1.0" encoding="utf-8"?>
<!-- Generator: Adobe Illustrator 26.5.0, SVG Export Plug-In . SVG Version: 6.00 Build 0)  -->
<svg version="1.1" id="Calque_1" xmlns="http://www.w3.org/2000/svg" xmlns:xlink="http://www.w3.org/1999/xlink" x="0px" y="0px"
	 viewBox="0 0 2976.4 1488.2" style="enable-background:new 0 0 2976.4 1488.2;" xml:space="preserve">
<style type="text/css">
	.st0{clip-path:url(#SVGID_00000116950319132575097100000003118081111912647347_);}
	.st1{clip-path:url(#SVGID_00000119825848580513692650000007381779699128078760_);}
	.st2{clip-path:url(#SVGID_00000149373384066002935340000016933450258469658042_);fill:#FFD100;}
	.st3{clip-path:url(#SVGID_00000149373384066002935340000016933450258469658042_);}
	.st4{fill:#005CB9;}
	.st5{font-family:'CastoBlack-Black';}
	.st6{font-size:174.4565px;}
	.st7{font-family:'CastoRegular';}
	.st8{font-size:69.7826px;}
	.st9{clip-path:url(#SVGID_00000028314843588684511270000010658550516818180287_);fill:#005CB9;}
	.st10{clip-path:url(#SVGID_00000061470815241775294280000009109417129450569397_);}
	.st11{clip-path:url(#SVGID_00000092447735620322630870000013020115288329559987_);fill:#FFD100;}
	.st12{clip-path:url(#SVGID_00000092447735620322630870000013020115288329559987_);fill:#005CB9;}
	.st13{clip-path:url(#SVGID_00000092447735620322630870000013020115288329559987_);}
	.st14{clip-path:url(#SVGID_00000006672491945456731300000008209610245478826171_);fill:#005CB9;}
	.st15{clip-path:url(#SVGID_00000006672491945456731300000008209610245478826171_);fill:#FFD100;}
	
		.st16{clip-path:url(#SVGID_00000116950319132575097100000003118081111912647347_);fill:none;stroke:#FFFFFF;stroke-width:6;stroke-miterlimit:10;}
</style>
<g>
	<defs>
		<rect id="SVGID_1_" width="2976.4" height="1488.2"/>
	</defs>
	<clipPath id="SVGID_00000091005563379694287510000000532850777285623176_">
		<use xlink:href="#SVGID_1_"  style="overflow:visible;"/>
	</clipPath>
	<g style="clip-path:url(#SVGID_00000091005563379694287510000000532850777285623176_);">
		<defs>
			<rect id="SVGID_00000087403721475055954040000009565506531909509567_" x="-14.2" y="-14.2" width="1502.4" height="1516.5"/>
		</defs>
		<clipPath id="SVGID_00000157285502501860757150000009263508623899445694_">
			<use xlink:href="#SVGID_00000087403721475055954040000009565506531909509567_"  style="overflow:visible;"/>
		</clipPath>
		<g style="clip-path:url(#SVGID_00000157285502501860757150000009263508623899445694_);">
			<g>
				<defs>
					<rect id="SVGID_00000178900782088565469870000007480514894954636173_" x="-14.2" y="-14.2" width="1516.5" height="1516.5"/>
				</defs>
				<clipPath id="SVGID_00000088824017027705204960000009695154280232079238_">
					<use xlink:href="#SVGID_00000178900782088565469870000007480514894954636173_"  style="overflow:visible;"/>
				</clipPath>
				
					<rect x="-14.2" y="-14.2" style="clip-path:url(#SVGID_00000088824017027705204960000009695154280232079238_);fill:#FFD100;" width="1516.5" height="1516.5"/>
				<g style="clip-path:url(#SVGID_00000088824017027705204960000009695154280232079238_);">
					<text transform="matrix(1 0 0 1 410.8011 804.8109)" class="st4 st5 st6">location</text>
				</g>
				<g style="clip-path:url(#SVGID_00000088824017027705204960000009695154280232079238_);">
					<text transform="matrix(1 0 0 1 284.3196 938.619)" class="st4 st5 st6">de véhicule</text>
				</g>
				<g style="clip-path:url(#SVGID_00000088824017027705204960000009695154280232079238_);">
					<text transform="matrix(1 0 0 1 393.4397 1099.8918)" class="st4 st7 st8">Besoin d’un véhicule ?</text>
				</g>
				<g style="clip-path:url(#SVGID_00000088824017027705204960000009695154280232079238_);">
					<text transform="matrix(1 0 0 1 370.0628 1169.6746)" class="st4 st5 st8">Louez un véhicule pour</text>
				</g>
				<g style="clip-path:url(#SVGID_00000088824017027705204960000009695154280232079238_);">
					<text transform="matrix(1 0 0 1 384.7864 1239.4568)" class="st4 st5 st8">8,90€ par demi-heure</text>
				</g>
				<g style="clip-path:url(#SVGID_00000088824017027705204960000009695154280232079238_);">
					<defs>
						<rect id="SVGID_00000119822091543142051300000000648183323073985946_" x="-14.2" y="-14.2" width="1516.5" height="1516.5"/>
					</defs>
					<clipPath id="SVGID_00000110467327201937846330000015078499914834724792_">
						<use xlink:href="#SVGID_00000119822091543142051300000000648183323073985946_"  style="overflow:visible;"/>
					</clipPath>
					<path style="clip-path:url(#SVGID_00000110467327201937846330000015078499914834724792_);fill:#005CB9;" d="M655.5,412.4
						c0.6,4.1,4.5,6.9,8.8,6.2c4.2-0.7,7.1-4.7,6.5-8.8c-4-27,14.1-53.6,42.4-61.9c27.3-8.1,55.2,3.3,66.5,27
						c1.8,3.8,6.4,5.3,10.3,3.5c0.3-0.1,0.5-0.2,0.7-0.4c3.4-2.1,4.7-6.3,3-9.8c-14.4-30.3-50-45-84.6-34.8
						C673.4,343.8,650.3,377.8,655.5,412.4"/>
					<path style="clip-path:url(#SVGID_00000110467327201937846330000015078499914834724792_);fill:#005CB9;" d="M1006.9,491
						l-5.5-3.5c-0.6,0.7-1.3,1.3-2.2,1.7c-2.2,1.1-4.9,1-7.1-0.4c-3.4-2.2-4.3-6.7-2.1-10l0.4-0.7l-5.9-4.3l-0.5,0.8
						c-0.8,1.2-1.8,2-2.9,2.5c-2.2,1.1-4.9,1-7.1-0.4c-3.4-2.2-4.3-6.7-2.1-10l1-1.7l-6.5-4.7l-0.6,0.9c-0.7,1.1-1.7,2-2.9,2.5
						c-2.2,1.1-4.9,1-7.2-0.4c-3.3-2.1-4.3-6.6-2.2-10l1.1-1.7l-47.1-34.6c0.4-3.6-1.2-7.3-4.5-9.5c-2.9-1.9-6.5-2.1-9.5-0.8
						l-0.1-0.1c3-11.4,3.5-23.4,1.3-35.2c-3.9-21.3-15.8-39.7-33.5-52c-24-16.6-55.2-19-81.5-6.2c-8.1,3.9-15.4,9.2-21.8,15.6
						c13.4,4.9,25.1,13.2,33.6,24.6c3.7-0.4,7.6,0.2,11.1,1.8c5.4,2.4,9.5,6.7,11.5,12.2c4,10.5-0.7,22.6-10.8,27.5
						c-0.5,0.3-1.1,0.6-1.7,0.8c-5.5,2.1-11.4,1.9-16.7-0.4c-5.4-2.4-9.5-6.7-11.6-12.2c-1.3-3.3-1.6-6.8-1.3-10.1
						c-6.7-10.8-17.7-18.1-30.2-20.9c-12.3,26.6-8.9,57.6,7.8,81c-4.2,2.3-9.1,4.3-14.8,5.6c-5.4,1.3-10.5,1.7-15.1,1.5
						c-0.6-23.4-11.5-48.3-32.2-67.2c-0.5-0.4-0.9-0.8-1.4-1.2c-6.8,8.8-10.6,19.4-10.4,30.4c1,1.6,1.9,3.2,2.5,5
						c3.2,9.8-1.4,20.5-10.7,25.1c-0.8,0.4-1.7,0.8-2.7,1.1c-10.9,3.5-22.6-2.5-26.1-13.4c-3.1-9.6,1.3-20.3,10.3-24.9
						c1.3-13.9,6.6-27.1,15.1-38.4c-23.9-12.1-50.7-13.7-72.3-3.2c-7.2,3.5-13.6,8.3-18.9,14.1l-82.9,90.7
						c-27.4,30-20.4,81,15.5,113.9c28.2,25.7,66.7,33.5,95.8,19.4c7.2-3.5,13.5-8.3,18.9-14.1l82.9-90.7
						c7.7-8.4,12.6-18.5,15.1-29.4c6.3,0.4,13.2-0.1,20.7-1.9c5.9-1.4,11.1-3.3,15.8-5.6c2.4-1.2,4.7-2.5,6.7-3.8
						c2.4,2.2,5.1,4.3,7.8,6.1c24,16.6,55.2,19.1,81.5,6.3c5.7-2.8,11-6.3,15.9-10.3c0.1,3.3,1.7,6.4,4.6,8.3
						c3.1,2.1,6.9,2.2,10,0.7c0.9-0.4,1.8-1.1,2.5-1.8l34.8,19.6l14.7,9.6l1.7-2.6c2.2-3.3,6.6-4.3,10-2.1c3.4,2.2,4.3,6.6,2.2,10
						l-1.7,2.6l6.8,4.4l1-1.6c2.2-3.3,6.6-4.3,10-2.1c3.4,2.1,4.3,6.6,2.2,10l-1.1,1.6l6.2,4l0.8-1.3c2.2-3.4,6.6-4.3,10-2.1
						c3.4,2.1,4.3,6.6,2.2,10l-0.9,1.4l1.6,1c0.5,0.3,0.9,0.5,1.3,0.7l2.5,1.6c5.3,3.4,11.7,3.6,17,1c2.8-1.4,5.2-3.4,6.9-6.2
						C1017.3,507,1014.9,496.3,1006.9,491"/>
				</g>
			</g>
		</g>
	</g>
	<g style="clip-path:url(#SVGID_00000091005563379694287510000000532850777285623176_);">
		<defs>
			<rect id="SVGID_00000076572500567997945410000012237422143400010402_" x="1488.2" y="-14.2" width="1502.4" height="1516.5"/>
		</defs>
		<clipPath id="SVGID_00000163788763651727455870000011708555415540461221_">
			<use xlink:href="#SVGID_00000076572500567997945410000012237422143400010402_"  style="overflow:visible;"/>
		</clipPath>
		<g style="clip-path:url(#SVGID_00000163788763651727455870000011708555415540461221_);">
			<g>
				<defs>
					<rect id="SVGID_00000137128911244471896740000013126903190068251041_" x="1474" y="-14.2" width="1516.5" height="1516.5"/>
				</defs>
				<clipPath id="SVGID_00000052105720091265352740000015070879802717664151_">
					<use xlink:href="#SVGID_00000137128911244471896740000013126903190068251041_"  style="overflow:visible;"/>
				</clipPath>
				
					<rect x="1474" y="-14.2" style="clip-path:url(#SVGID_00000052105720091265352740000015070879802717664151_);fill:#FFD100;" width="1516.5" height="1516.5"/>
				
					<rect x="1914.6" y="689.7" style="clip-path:url(#SVGID_00000052105720091265352740000015070879802717664151_);fill:#005CB9;" width="28.1" height="114"/>
				<g style="clip-path:url(#SVGID_00000052105720091265352740000015070879802717664151_);">
					<defs>
						<rect id="SVGID_00000119088100872878013260000002150636333211032499_" x="1474" y="-14.2" width="1516.5" height="1516.5"/>
					</defs>
					<clipPath id="SVGID_00000052077766565283161320000001283481040682774461_">
						<use xlink:href="#SVGID_00000119088100872878013260000002150636333211032499_"  style="overflow:visible;"/>
					</clipPath>
					<path style="clip-path:url(#SVGID_00000052077766565283161320000001283481040682774461_);fill:#005CB9;" d="M1957.3,762.2
						c0-23.1,16.6-43.3,45.2-43.3s45.4,20.2,45.4,43.3c0,23.3-16.8,43.5-45.4,43.5S1957.3,785.5,1957.3,762.2 M2018.7,762.2
						c0-10.3-5.8-18-16.3-18c-10.3,0-16.1,7.7-16.1,18c0,10.4,5.8,18.3,16.1,18.3C2012.9,780.6,2018.7,772.7,2018.7,762.2"/>
					<path style="clip-path:url(#SVGID_00000052077766565283161320000001283481040682774461_);fill:#005CB9;" d="M2058.1,762.2
						c0-26.2,19.7-43.3,45-43.3c17.5,0,28.2,7.7,33.2,14.4l-17.6,17.5c-2.9-3.8-7.7-6.5-14.2-6.5c-9.4,0-17.6,6.2-17.6,18
						c0,11.8,8.2,18.3,17.6,18.3c6.3,0,11.5-3.3,14.4-6.7c6.3,6.3,11.3,11.6,17.5,17.6c-5,6.5-15.9,14.2-33.2,14.2
						C2077.8,805.7,2058.1,788.6,2058.1,762.2"/>
					<path style="clip-path:url(#SVGID_00000052077766565283161320000001283481040682774461_);fill:#005CB9;" d="M2144.9,762.2
						c0-23.1,15.1-43.3,38.3-43.3c5,0,15.7,1.9,22.9,13h0.2v-10.8h28.1v82.5h-28.1v-10.4h-0.2c-7.2,11.1-17.8,12.5-22.9,12.5
						C2160.6,805.7,2144.9,785.5,2144.9,762.2 M2206.3,762.2c0-10.3-5.8-18-16.3-18c-10.3,0-16.1,7.7-16.1,18
						c0,10.4,5.8,18.3,16.1,18.3C2200.5,780.6,2206.3,772.7,2206.3,762.2"/>
					<path style="clip-path:url(#SVGID_00000052077766565283161320000001283481040682774461_);fill:#005CB9;" d="M2288.7,745.8v20.9
						c0,7.7,2.2,14,14,14v25c-28.2,0-42.1-18.8-42.1-42.1v-17.8h-13.7v-24.7h13.7v-23.5h28.1v23.5h16.6v24.7H2288.7z"/>
					<path style="clip-path:url(#SVGID_00000052077766565283161320000001283481040682774461_);fill:#005CB9;" d="M2317.8,692.9
						c0-7.7,6.3-13.7,14.2-13.7c7.5,0,13.9,6,13.9,13.7c0,7.5-6.3,13.7-13.9,13.7C2324.1,706.6,2317.8,700.5,2317.8,692.9
						 M2317.8,721.2h28.1v82.5h-28.1V721.2z"/>
					<path style="clip-path:url(#SVGID_00000052077766565283161320000001283481040682774461_);fill:#005CB9;" d="M2360.4,762.2
						c0-23.1,16.6-43.3,45.2-43.3c28.6,0,45.4,20.2,45.4,43.3c0,23.3-16.8,43.5-45.4,43.5C2377,805.7,2360.4,785.5,2360.4,762.2
						 M2421.9,762.2c0-10.3-5.8-18-16.3-18c-10.3,0-16.1,7.7-16.1,18c0,10.4,5.8,18.3,16.1,18.3
						C2416.1,780.6,2421.9,772.7,2421.9,762.2"/>
					<path style="clip-path:url(#SVGID_00000052077766565283161320000001283481040682774461_);fill:#005CB9;" d="M2521.8,803.7
						v-45.9c0-9.8-5.3-13.5-13.7-13.5c-7.7,0-14.6,5.5-14.6,17.8v41.6h-28.1v-82.5h28.1v10.8c5.5-7,15.7-13,30-13
						c18,0,26.4,11.3,26.4,25.5v59.2H2521.8z"/>
					<path style="clip-path:url(#SVGID_00000052077766565283161320000001283481040682774461_);fill:#005CB9;" d="M1781.3,893.5
						c0-23.1,15.1-43.3,38.3-43.3c5,0,15.7,1.9,22.9,13h0.2v-42.3h28.1v114h-28.1v-10.4h-0.2c-7.2,11.1-17.8,12.5-22.9,12.5
						C1797,937,1781.3,916.8,1781.3,893.5 M1842.7,893.5c0-10.3-5.8-18-16.3-18c-10.3,0-16.1,7.7-16.1,18c0,10.4,5.8,18.3,16.1,18.3
						C1836.9,911.8,1842.7,903.9,1842.7,893.5"/>
					<path style="clip-path:url(#SVGID_00000052077766565283161320000001283481040682774461_);fill:#005CB9;" d="M1885.4,893.5
						c0-24,18-43.3,44-43.3c23.3,0,41.4,17.5,41.4,46.7v5.1h-56.7c1.9,6.8,8.6,13.5,19.5,13.5c4.5,0,13.9-2.1,18.8-5.3l11.3,17.5
						c-8,6.3-21.9,9.2-33.6,9.2C1905,937,1885.4,920.7,1885.4,893.5 M1929.4,871.6c-10.4,0-14.4,8.2-15.4,13.2h30.6
						C1943.4,878.9,1940.3,871.6,1929.4,871.6"/>
					<path style="clip-path:url(#SVGID_00000052077766565283161320000001283481040682774461_);fill:#005CB9;" d="M2082.2,934.9V889
						c0-9.8-5.3-13.5-13.7-13.5c-7.7,0-14.6,5.5-14.6,17.8v41.6h-28.1v-82.5h28.1v10.8c5.5-7,15.7-13,30-13
						c13.2,0,21.2,6.2,24.5,15.1c5.6-7.4,14.9-15.1,31.8-15.1c18,0,26.4,11.3,26.4,25.5v59.2h-28.1V889c0-9.8-5.3-13.5-13.7-13.5
						c-15.2,0-14.6,17.8-14.6,17.8v41.6H2082.2z"/>
					<path style="clip-path:url(#SVGID_00000052077766565283161320000001283481040682774461_);fill:#005CB9;" d="M2181.2,893.5
						c0-23.1,15.1-43.3,38.3-43.3c5,0,15.8,1.9,22.9,13h0.2v-10.8h28.1v82.5h-28.1v-10.4h-0.2c-7.2,11.1-17.8,12.5-22.9,12.5
						C2196.9,937,2181.2,916.8,2181.2,893.5 M2242.6,893.5c0-10.3-5.8-18-16.3-18c-10.3,0-16.1,7.7-16.1,18
						c0,10.4,5.8,18.3,16.1,18.3C2236.8,911.8,2242.6,903.9,2242.6,893.5"/>
					<path style="clip-path:url(#SVGID_00000052077766565283161320000001283481040682774461_);fill:#005CB9;" d="M2325,877.1V898
						c0,7.7,2.2,14,14,14v25c-28.2,0-42.1-18.8-42.1-42.1v-17.8h-13.7v-24.7h13.7V829h28.1v23.5h16.6v24.7H2325z"/>
					<path style="clip-path:url(#SVGID_00000052077766565283161320000001283481040682774461_);fill:#005CB9;" d="M2348.1,893.5
						c0-24,18-43.3,44-43.3c23.3,0,41.4,17.5,41.4,46.7v5.1h-56.7c1.9,6.8,8.6,13.5,19.5,13.5c4.4,0,13.9-2.1,18.8-5.3l11.3,17.5
						c-8,6.3-21.9,9.2-33.6,9.2C2367.8,937,2348.1,920.7,2348.1,893.5 M2392.1,871.6c-10.4,0-14.4,8.2-15.4,13.2h30.6
						C2406.1,878.9,2403,871.6,2392.1,871.6 M2392.4,817.8c2.1-1.9,4.3-2.9,7-2.9c2.2,0,4.8,1,6.7,2.7c1.9,2.1,2.7,4.5,2.7,7
						c0,2.6-0.9,5-2.7,6.7l-11,11c-1.5,1.7-4.3,2.9-6.7,2.9c-2.6,0-5-1-6.8-2.9c-2.1-1.9-2.9-4.3-2.9-6.8c0-2.2,0.9-4.8,2.9-6.7
						L2392.4,817.8z"/>
					<path style="clip-path:url(#SVGID_00000052077766565283161320000001283481040682774461_);fill:#005CB9;" d="M2444.1,934.9
						v-82.5h28.1v10.8c5.7-7,16.6-13.4,25.3-13.4v27c-1.5-0.3-3.3-0.3-5.6-0.3c-8,0-19.7,2.2-19.7,16.8v41.6H2444.1z"/>
					<path style="clip-path:url(#SVGID_00000052077766565283161320000001283481040682774461_);fill:#005CB9;" d="M2510,824.2
						c0-7.7,6.3-13.7,14.2-13.7c7.5,0,13.9,6,13.9,13.7c0,7.5-6.3,13.7-13.9,13.7C2516.4,837.9,2510,831.7,2510,824.2 M2510,852.4
						h28.1v82.5H2510V852.4z"/>
					<path style="clip-path:url(#SVGID_00000052077766565283161320000001283481040682774461_);fill:#005CB9;" d="M2552.7,893.5
						c0-24,18-43.3,44-43.3c23.3,0,41.4,17.5,41.4,46.7v5.1h-56.7c1.9,6.8,8.6,13.5,19.5,13.5c4.4,0,13.9-2.1,18.8-5.3l11.3,17.5
						c-8,6.3-21.9,9.2-33.6,9.2C2572.4,937,2552.7,920.7,2552.7,893.5 M2596.7,871.6c-10.4,0-14.4,8.2-15.4,13.2h30.6
						C2610.7,878.9,2607.6,871.6,2596.7,871.6"/>
					
						<rect x="2650.9" y="820.9" style="clip-path:url(#SVGID_00000052077766565283161320000001283481040682774461_);fill:#005CB9;" width="28.1" height="114"/>
					<path style="clip-path:url(#SVGID_00000052077766565283161320000001283481040682774461_);fill:#005CB9;" d="M1953.7,1080.5
						c0,7.3-5,12.3-13.5,12.3H1919v-45.7h18.9c8.1,0,13.1,4.8,13.1,11.6c0,5.4-3.5,9.2-7.5,10.3
						C1949.6,1069.6,1953.7,1075.1,1953.7,1080.5 M1924.8,1067h12.1c5.3,0,8-3.2,8-7.3c0-4.1-2.7-7.4-8-7.4h-12.1V1067z
						 M1939.1,1087.8c5.3,0,8.6-3,8.6-7.9c0-4.2-2.9-7.9-8.6-7.9h-14.3v15.8H1939.1z"/>
					<path style="clip-path:url(#SVGID_00000052077766565283161320000001283481040682774461_);fill:#005CB9;" d="M1960.7,1076.3
						c0-9.6,7-17.3,16.6-17.3c10.2,0,16.2,7.8,16.2,17.7v1.3h-27.3c0.4,6.2,4.8,11.1,12.1,11.1c3.9,0,7.5-1.5,10.2-4.2l2.8,3.7
						c-3.4,3.3-7.9,5.1-13.4,5.1C1967.9,1093.7,1960.7,1086.6,1960.7,1076.3 M1988.4,1074.1c-0.1-4.9-3.4-10.6-11.1-10.6
						c-7.2,0-10.8,5.6-11,10.6H1988.4z"/>
					<path style="clip-path:url(#SVGID_00000052077766565283161320000001283481040682774461_);fill:#005CB9;" d="M1999.2,1088.5
						l2.6-3.7c2.3,2.5,6.5,4.7,11.2,4.7c5.1,0,8-2.4,8-5.7c0-8-20.9-3.1-20.9-15.3c0-5.2,4.5-9.5,12.5-9.5c5.8,0,9.8,2.1,12.5,4.8
						l-2.5,3.6c-2-2.4-5.6-4.2-10-4.2c-4.7,0-7.5,2.3-7.5,5.2c0,7.2,20.9,2.5,20.9,15.3c0,5.5-4.5,10-13.1,10
						C2007.2,1093.7,2002.6,1091.9,1999.2,1088.5"/>
					<path style="clip-path:url(#SVGID_00000052077766565283161320000001283481040682774461_);fill:#005CB9;" d="M2032.6,1076.3
						c0-9.6,6.4-17.3,16.7-17.3c10.3,0,16.7,7.7,16.7,17.3c0,9.6-6.4,17.4-16.7,17.4C2039,1093.7,2032.6,1085.9,2032.6,1076.3
						 M2060.4,1076.3c0-6.7-4-12.7-11.2-12.7c-7.2,0-11.2,6-11.2,12.7c0,6.8,4,12.8,11.2,12.8
						C2056.5,1089.1,2060.4,1083,2060.4,1076.3"/>
					<path style="clip-path:url(#SVGID_00000052077766565283161320000001283481040682774461_);fill:#005CB9;" d="M2077.5,1048.1
						c1.7,0,3.1,1.4,3.1,3.2s-1.4,3.1-3.1,3.1c-1.7,0-3.1-1.4-3.1-3.1S2075.8,1048.1,2077.5,1048.1 M2074.9,1059.8h5.2v33.1h-5.2
						V1059.8z"/>
					<path style="clip-path:url(#SVGID_00000052077766565283161320000001283481040682774461_);fill:#005CB9;" d="M2113.9,1092.8
						v-21.6c0-5.9-3.1-7.7-7.7-7.7c-4.1,0-10,2.9-10,12.7v16.6h-5.2v-33.1h5.2v4.8c2.4-2.8,7-5.6,12.1-5.6c7,0,10.7,3.5,10.7,10.7
						v23.2H2113.9z"/>
					<path style="clip-path:url(#SVGID_00000052077766565283161320000001283481040682774461_);fill:#005CB9;" d="M2178.2,1047.2
						v45.7h-5.2v-4.9c-3.1,4.6-7.8,5.7-10.7,5.7c-10.3,0-16.7-7.8-16.7-17.4c0-9.6,6.4-17.3,16.7-17.3c2.6,0,7.5,1,10.7,5.8v-17.5
						H2178.2z M2173.4,1076.3c0-6.7-4-12.7-11.2-12.7c-7.2,0-11.2,6-11.2,12.7c0,6.8,4,12.8,11.2,12.8
						C2169.5,1089.1,2173.4,1083,2173.4,1076.3"/>
					<path style="clip-path:url(#SVGID_00000052077766565283161320000001283481040682774461_);fill:#005CB9;" d="M2186.6,1076.3
						c0-9.6,7-17.3,16.6-17.3c10.2,0,16.2,7.8,16.2,17.7v1.3h-27.3c0.4,6.2,4.8,11.1,12.1,11.1c3.9,0,7.5-1.5,10.2-4.2l2.8,3.7
						c-3.4,3.3-7.9,5.1-13.4,5.1C2193.8,1093.7,2186.6,1086.6,2186.6,1076.3 M2214.3,1074.1c-0.1-4.9-3.4-10.6-11.1-10.6
						c-7.2,0-10.8,5.6-11,10.6H2214.3z"/>
					<path style="clip-path:url(#SVGID_00000052077766565283161320000001283481040682774461_);fill:#005CB9;" d="M2296.7,1069.6
						v23.2h-5.1v-21.6c0-5.3-2.5-7.3-6.4-7.6c-7.2,0-11.2,4.6-11.2,9.6v19.7h-5.1v-21.6c0-5.9-3.1-7.7-7.6-7.7
						c-4.1,0-10,2.9-10,12.7v16.6h-5.2v-33.1h5.2v4.8c2.4-2.8,7-5.6,12.1-5.6c5.2,0,8.6,2,9.9,6c2.7-3.4,6.6-6,12.7-6
						C2293,1058.9,2296.7,1062.4,2296.7,1069.6"/>
					<path style="clip-path:url(#SVGID_00000052077766565283161320000001283481040682774461_);fill:#005CB9;" d="M2337.7,1059.8
						v33.1h-5.2v-4.9c-3.1,4.6-7.8,5.7-10.7,5.7c-10.3,0-16.7-7.8-16.7-17.4c0-9.6,6.4-17.3,16.7-17.3c2.6,0,7.5,1,10.7,5.8v-4.9
						H2337.7z M2333,1076.3c0-6.7-4-12.7-11.2-12.7c-7.2,0-11.2,6-11.2,12.7c0,6.8,4,12.8,11.2,12.8
						C2329,1089.1,2333,1083,2333,1076.3"/>
					<path style="clip-path:url(#SVGID_00000052077766565283161320000001283481040682774461_);fill:#005CB9;" d="M2355.3,1080.1
						c0,1.4,0.2,9,8.7,9v4.6c-13.6,0-13.9-11.4-13.9-13.5v-15.9h-5.9v-4.5h5.9v-9h5.2v9h8.7v4.5h-8.7V1080.1z"/>
					<path style="clip-path:url(#SVGID_00000052077766565283161320000001283481040682774461_);fill:#005CB9;" d="M2369.3,1076.3
						c0-9.6,7-17.3,16.6-17.3c10.2,0,16.2,7.8,16.2,17.7v1.3h-27.3c0.4,6.2,4.8,11.1,12.1,11.1c3.9,0,7.5-1.5,10.2-4.2l2.8,3.7
						c-3.4,3.3-7.9,5.1-13.4,5.1C2376.5,1093.7,2369.3,1086.6,2369.3,1076.3 M2396.9,1074.1c-0.1-4.9-3.4-10.6-11.1-10.6
						c-7.2,0-10.8,5.6-11,10.6H2396.9z M2386.7,1045.7c0.5-0.5,1-0.7,1.6-0.7c0.6,0,1.2,0.2,1.6,0.7c0.5,0.5,0.7,1,0.7,1.6
						s-0.2,1.2-0.7,1.6l-5.5,5.5c-0.4,0.4-1,0.7-1.6,0.7c-0.5,0-1.1-0.2-1.6-0.7c-0.4-0.4-0.6-1-0.6-1.6c0-0.6,0.2-1.2,0.6-1.6
						L2386.7,1045.7z"/>
					<path style="clip-path:url(#SVGID_00000052077766565283161320000001283481040682774461_);fill:#005CB9;" d="M2427.9,1064.6
						c-0.7-0.1-1.4-0.1-2.1-0.1c-4.1,0-10,1.9-10,11.8v16.6h-5.2v-33.1h5.2v4.8c2.4-2.8,7-5.6,12.1-5.6V1064.6z"/>
					<path style="clip-path:url(#SVGID_00000052077766565283161320000001283481040682774461_);fill:#005CB9;" d="M2437.3,1048.1
						c1.7,0,3.2,1.4,3.2,3.2s-1.4,3.1-3.2,3.1c-1.7,0-3.1-1.4-3.1-3.1S2435.6,1048.1,2437.3,1048.1 M2434.7,1059.8h5.2v33.1h-5.2
						V1059.8z"/>
					<path style="clip-path:url(#SVGID_00000052077766565283161320000001283481040682774461_);fill:#005CB9;" d="M2449,1076.3
						c0-9.6,7-17.3,16.6-17.3c10.2,0,16.2,7.8,16.2,17.7v1.3h-27.3c0.4,6.2,4.8,11.1,12.1,11.1c3.9,0,7.5-1.5,10.2-4.2l2.8,3.7
						c-3.4,3.3-7.9,5.1-13.4,5.1C2456.2,1093.7,2449,1086.6,2449,1076.3 M2476.6,1074.1c-0.1-4.9-3.4-10.6-11.1-10.6
						c-7.2,0-10.8,5.6-11,10.6H2476.6z"/>
					
						<rect x="2490.3" y="1047.2" style="clip-path:url(#SVGID_00000052077766565283161320000001283481040682774461_);fill:#005CB9;" width="5.2" height="45.7"/>
					<path style="clip-path:url(#SVGID_00000052077766565283161320000001283481040682774461_);fill:#005CB9;" d="M2535.5,1071.3v6.4
						c0,1.4-1.2,2.5-2.5,2.5c-1.4,0-2.5-1.1-2.5-2.5v-11.1c11.9,0,12.5-7,12.5-8.5v-0.3c0-3.4-2.7-6.4-8.1-6.4
						c-5.3,0-8.6,2.2-11.2,5.6l-3.5-3.7c3.4-4.3,8.5-7,15.1-7c7.7,0,13.7,4.1,13.7,11.7C2549,1063.2,2546.4,1069.5,2535.5,1071.3
						 M2532.9,1086.5c2,0,3.6,1.6,3.6,3.6c0,2-1.6,3.5-3.6,3.5c-2,0-3.5-1.5-3.5-3.5C2529.4,1088,2530.9,1086.5,2532.9,1086.5"/>
					<polygon style="clip-path:url(#SVGID_00000052077766565283161320000001283481040682774461_);fill:#005CB9;" points="
						1826.5,1161.3 1826.5,1115.6 1832.3,1115.6 1832.3,1156.3 1853.9,1156.3 1853.9,1161.3 					"/>
					<path style="clip-path:url(#SVGID_00000052077766565283161320000001283481040682774461_);fill:#005CB9;" d="M1859.5,1144.7
						c0-9.6,6.4-17.3,16.7-17.3c10.3,0,16.7,7.7,16.7,17.3c0,9.6-6.4,17.4-16.7,17.4C1865.9,1162.1,1859.5,1154.3,1859.5,1144.7
						 M1887.3,1144.7c0-6.7-4-12.7-11.2-12.7c-7.2,0-11.2,6-11.2,12.7c0,6.8,4,12.8,11.2,12.8
						C1883.4,1157.6,1887.3,1151.5,1887.3,1144.7"/>
					<path style="clip-path:url(#SVGID_00000052077766565283161320000001283481040682774461_);fill:#005CB9;" d="M1901.3,1148.6
						v-0.3v-20.1h5.2v20.3c0,1.2,0.3,9,8.8,9c8.7,0,8.9-7.9,8.9-9.2v-20.1h5.2v20.1v0.3c0,2.1-0.5,13.5-14.1,13.5
						C1901.8,1162.1,1901.3,1150.7,1901.3,1148.6"/>
					<path style="clip-path:url(#SVGID_00000052077766565283161320000001283481040682774461_);fill:#005CB9;" d="M1937.9,1144.7
						c0-9.6,7-17.3,16.6-17.3c10.2,0,16.2,7.8,16.2,17.7v1.3h-27.3c0.4,6.2,4.8,11.1,12.1,11.1c3.9,0,7.5-1.5,10.2-4.2l2.8,3.7
						c-3.4,3.3-7.9,5.1-13.4,5.1C1945.1,1162.1,1937.9,1155.1,1937.9,1144.7 M1965.6,1142.6c-0.1-4.9-3.4-10.6-11.1-10.6
						c-7.2,0-10.8,5.6-11,10.6H1965.6z"/>
					<polygon style="clip-path:url(#SVGID_00000052077766565283161320000001283481040682774461_);fill:#005CB9;" points="
						1977.6,1161.3 1977.6,1157.3 1996.3,1132.8 1977.6,1132.8 1977.6,1128.2 2003.1,1128.2 2003.1,1132.1 1984.4,1156.8 
						2003.4,1156.8 2003.4,1161.3 					"/>
					<path style="clip-path:url(#SVGID_00000052077766565283161320000001283481040682774461_);fill:#005CB9;" d="M2030.3,1148.6
						v-0.3v-20.1h5.2v20.3c0,1.2,0.3,9,8.8,9c8.7,0,8.9-7.9,8.9-9.2v-20.1h5.2v20.1v0.3c0,2.1-0.5,13.5-14.1,13.5
						C2030.8,1162.1,2030.3,1150.7,2030.3,1148.6"/>
					<path style="clip-path:url(#SVGID_00000052077766565283161320000001283481040682774461_);fill:#005CB9;" d="M2091.7,1161.3
						v-21.6c0-5.9-3.1-7.7-7.7-7.7c-4.1,0-10,2.9-10,12.7v16.6h-5.2v-33.1h5.2v4.8c2.4-2.8,7-5.6,12.1-5.6c7,0,10.7,3.5,10.7,10.7
						v23.2H2091.7z"/>
					<path style="clip-path:url(#SVGID_00000052077766565283161320000001283481040682774461_);fill:#005CB9;" d="M2123.4,1144.7
						c0-9.6,6.4-17.3,16.7-17.3c10.3,0,16.7,7.7,16.7,17.3c0,9.6-6.4,17.4-16.7,17.4C2129.8,1162.1,2123.4,1154.3,2123.4,1144.7
						 M2151.2,1144.7c0-6.7-4-12.7-11.2-12.7c-7.2,0-11.2,6-11.2,12.7c0,6.8,4,12.8,11.2,12.8
						C2147.3,1157.6,2151.2,1151.5,2151.2,1144.7"/>
					<path style="clip-path:url(#SVGID_00000052077766565283161320000001283481040682774461_);fill:#005CB9;" d="M2165.2,1148.6
						v-0.3v-20.1h5.2v20.3c0,1.2,0.3,9,8.8,9c8.7,0,8.9-7.9,8.9-9.2v-20.1h5.2v20.1v0.3c0,2.1-0.5,13.5-14.1,13.5
						C2165.7,1162.1,2165.2,1150.7,2165.2,1148.6"/>
					<path style="clip-path:url(#SVGID_00000052077766565283161320000001283481040682774461_);fill:#005CB9;" d="M2211,1148.6
						c0,1.4,0.2,9,8.7,9v4.6c-13.6,0-13.9-11.4-13.9-13.5v-15.9h-5.9v-4.5h5.9v-9h5.2v9h8.7v4.5h-8.7V1148.6z"/>
					<path style="clip-path:url(#SVGID_00000052077766565283161320000001283481040682774461_);fill:#005CB9;" d="M2229.9,1116.6
						c1.7,0,3.1,1.4,3.1,3.2s-1.4,3.1-3.1,3.1s-3.1-1.4-3.1-3.1S2228.2,1116.6,2229.9,1116.6 M2227.3,1128.2h5.2v33.1h-5.2V1128.2z"
						/>
					
						<rect x="2243.5" y="1115.6" style="clip-path:url(#SVGID_00000052077766565283161320000001283481040682774461_);fill:#005CB9;" width="5.2" height="45.7"/>
					<path style="clip-path:url(#SVGID_00000052077766565283161320000001283481040682774461_);fill:#005CB9;" d="M2307.8,1115.6
						v45.7h-5.2v-4.9c-3.1,4.6-7.8,5.7-10.7,5.7c-10.3,0-16.7-7.8-16.7-17.4c0-9.6,6.4-17.3,16.7-17.3c2.6,0,7.5,1,10.7,5.8v-17.5
						H2307.8z M2303.1,1144.7c0-6.7-4-12.7-11.2-12.7c-7.2,0-11.2,6-11.2,12.7c0,6.8,4,12.8,11.2,12.8
						C2299.1,1157.6,2303.1,1151.5,2303.1,1144.7"/>
					<path style="clip-path:url(#SVGID_00000052077766565283161320000001283481040682774461_);fill:#005CB9;" d="M2316.3,1144.7
						c0-9.6,7-17.3,16.6-17.3c10.2,0,16.2,7.8,16.2,17.7v1.3h-27.3c0.4,6.2,4.8,11.1,12.1,11.1c3.9,0,7.5-1.5,10.2-4.2l2.8,3.7
						c-3.4,3.3-7.9,5.1-13.4,5.1C2323.5,1162.1,2316.3,1155.1,2316.3,1144.7 M2343.9,1142.6c-0.1-4.9-3.4-10.6-11.1-10.6
						c-7.2,0-10.8,5.6-11,10.6H2343.9z"/>
					<path style="clip-path:url(#SVGID_00000052077766565283161320000001283481040682774461_);fill:#005CB9;" d="M2380.8,1128.2v4.9
						c3.2-4.7,8.1-5.8,10.7-5.8c10.3,0,16.7,7.7,16.7,17.3c0,9.6-6.4,17.4-16.7,17.4c-2.9,0-7.6-1.1-10.7-5.7v17.5h-5.2v-45.7
						H2380.8z M2402.7,1144.7c0-6.7-4-12.7-11.2-12.7c-7.2,0-11.2,6-11.2,12.7c0,6.8,4,12.8,11.2,12.8
						C2398.7,1157.6,2402.7,1151.5,2402.7,1144.7"/>
					<path style="clip-path:url(#SVGID_00000052077766565283161320000001283481040682774461_);fill:#005CB9;" d="M2434,1133.1
						c-0.7-0.1-1.4-0.1-2.1-0.1c-4.1,0-10,1.9-10,11.8v16.6h-5.2v-33.1h5.2v4.8c2.4-2.8,7-5.6,12.1-5.6V1133.1z"/>
					<path style="clip-path:url(#SVGID_00000052077766565283161320000001283481040682774461_);fill:#005CB9;" d="M2438.4,1144.7
						c0-9.6,6.4-17.3,16.7-17.3c10.3,0,16.7,7.7,16.7,17.3c0,9.6-6.4,17.4-16.7,17.4C2444.8,1162.1,2438.4,1154.3,2438.4,1144.7
						 M2466.2,1144.7c0-6.7-4-12.7-11.2-12.7c-7.2,0-11.2,6-11.2,12.7c0,6.8,4,12.8,11.2,12.8
						C2462.3,1157.6,2466.2,1151.5,2466.2,1144.7"/>
					<path style="clip-path:url(#SVGID_00000052077766565283161320000001283481040682774461_);fill:#005CB9;" d="M2489.6,1170.2
						c8.4,0,8.7-7.4,8.7-8.9v-33h5.2v33c0,2.1-0.3,13.5-13.9,13.5V1170.2z M2500.9,1116.6c1.7,0,3.2,1.4,3.2,3.2s-1.4,3.1-3.2,3.1
						c-1.7,0-3.1-1.4-3.1-3.1S2499.2,1116.6,2500.9,1116.6"/>
					<path style="clip-path:url(#SVGID_00000052077766565283161320000001283481040682774461_);fill:#005CB9;" d="M2514.4,1148.6
						v-0.3v-20.1h5.2v20.3c0,1.2,0.3,9,8.8,9c8.7,0,8.9-7.9,8.9-9.2v-20.1h5.2v20.1v0.3c0,2.1-0.5,13.5-14.1,13.5
						C2514.9,1162.1,2514.4,1150.7,2514.4,1148.6"/>
					<path style="clip-path:url(#SVGID_00000052077766565283161320000001283481040682774461_);fill:#005CB9;" d="M2550.2,1156.9
						l2.6-3.7c2.3,2.5,6.5,4.7,11.2,4.7c5.1,0,8-2.4,8-5.7c0-8-20.9-3.1-20.9-15.3c0-5.2,4.5-9.5,12.5-9.5c5.8,0,9.8,2.1,12.5,4.8
						l-2.5,3.6c-2-2.4-5.6-4.2-10-4.2c-4.7,0-7.5,2.3-7.5,5.2c0,7.2,20.9,2.5,20.9,15.3c0,5.5-4.5,10-13.1,10
						C2558.2,1162.1,2553.6,1160.4,2550.2,1156.9"/>
					<path style="clip-path:url(#SVGID_00000052077766565283161320000001283481040682774461_);fill:#005CB9;" d="M2592.7,1148.6
						c0,1.4,0.2,9,8.7,9v4.6c-13.6,0-13.9-11.4-13.9-13.5v-15.9h-5.9v-4.5h5.9v-9h5.2v9h8.7v4.5h-8.7V1148.6z"/>
					<path style="clip-path:url(#SVGID_00000052077766565283161320000001283481040682774461_);fill:#005CB9;" d="M2606.7,1144.7
						c0-9.6,7-17.3,16.6-17.3c10.2,0,16.2,7.8,16.2,17.7v1.3h-27.3c0.4,6.2,4.8,11.1,12.1,11.1c3.9,0,7.5-1.5,10.2-4.2l2.8,3.7
						c-3.4,3.3-7.9,5.1-13.4,5.1C2613.9,1162.1,2606.7,1155.1,2606.7,1144.7 M2634.3,1142.6c-0.1-4.9-3.4-10.6-11.1-10.6
						c-7.2,0-10.8,5.6-11,10.6H2634.3z"/>
					
						<rect x="1853.1" y="1184.2" style="clip-path:url(#SVGID_00000052077766565283161320000001283481040682774461_);fill:#005CB9;" width="11.2" height="45.6"/>
					<path style="clip-path:url(#SVGID_00000052077766565283161320000001283481040682774461_);fill:#005CB9;" d="M1870.1,1213.2
						c0-9.6,7.2-17.3,17.6-17.3c9.3,0,16.6,7,16.6,18.7v2.1h-22.7c0.8,2.7,3.4,5.4,7.8,5.4c1.8,0,5.5-0.8,7.5-2.1l4.5,7
						c-3.2,2.5-8.8,3.7-13.4,3.7C1878,1230.6,1870.1,1224.1,1870.1,1213.2 M1887.7,1204.5c-4.2,0-5.8,3.3-6.2,5.3h12.3
						C1893.3,1207.4,1892.1,1204.5,1887.7,1204.5"/>
					<path style="clip-path:url(#SVGID_00000052077766565283161320000001283481040682774461_);fill:#005CB9;" d="M1940.5,1206.6v8.4
						c0,3.1,0.9,5.6,5.6,5.6v10c-11.3,0-16.8-7.5-16.8-16.8v-7.1h-5.5v-9.9h5.5v-9.4h11.2v9.4h6.6v9.9H1940.5z"/>
					<path style="clip-path:url(#SVGID_00000052077766565283161320000001283481040682774461_);fill:#005CB9;" d="M1950.4,1213.2
						c0-9.6,7.2-17.3,17.6-17.3c9.3,0,16.6,7,16.6,18.7v2.1h-22.7c0.8,2.7,3.4,5.4,7.8,5.4c1.8,0,5.5-0.8,7.5-2.1l4.5,7
						c-3.2,2.5-8.8,3.7-13.4,3.7C1958.3,1230.6,1950.4,1224.1,1950.4,1213.2 M1968,1204.5c-4.2,0-5.8,3.3-6.2,5.3h12.3
						C1973.6,1207.4,1972.4,1204.5,1968,1204.5"/>
					<path style="clip-path:url(#SVGID_00000052077766565283161320000001283481040682774461_);fill:#005CB9;" d="M2012.3,1229.8
						v-18.4c0-3.9-2.1-5.4-5.5-5.4c-3.1,0-5.8,2.2-5.8,7.1v16.6h-11.2v-33h11.2v4.3c2.2-2.8,6.3-5.2,12-5.2c5.3,0,8.5,2.5,9.8,6
						c2.3-2.9,6-6,12.7-6c7.2,0,10.5,4.5,10.5,10.2v23.7h-11.2v-18.4c0-3.9-2.1-5.4-5.5-5.4c-6.1,0-5.8,7.1-5.8,7.1v16.6H2012.3z"/>
					<path style="clip-path:url(#SVGID_00000052077766565283161320000001283481040682774461_);fill:#005CB9;" d="M2064.9,1225.6
						L2064.9,1225.6l-0.1,16.8h-11.2v-45.6h11.2v4.3h0.1c2.9-4.5,7.2-5.2,9.2-5.2c9.3,0,15.3,8.1,15.3,17.3
						c0,9.3-6.3,17.4-15.3,17.4C2072,1230.6,2067.7,1230.1,2064.9,1225.6 M2077.7,1213.2c0-4.1-2.3-7.2-6.4-7.2
						c-4.2,0-6.5,3.1-6.5,7.2c0,4.2,2.3,7.3,6.5,7.3C2075.4,1220.5,2077.7,1217.4,2077.7,1213.2"/>
					<path style="clip-path:url(#SVGID_00000052077766565283161320000001283481040682774461_);fill:#005CB9;" d="M2093.5,1225.8
						c1.5-2.6,2.9-4.9,4.5-7.5c2.8,2.1,8.1,4,11.6,4c3,0,3.9-0.8,3.9-2c0-1.6-2.2-1.9-5.1-2.3c-5.3-0.8-13.8-2.7-13.8-11.1
						c0-5.8,5.1-11,14.2-11c5.1,0,9.9,1.6,13.6,4c-1.4,2.6-2.6,4.6-4,7.1c-2.2-1.6-5.9-3.1-9.5-3.1c-2.1,0-3.6,0.8-3.6,2.1
						c0,1.3,2.1,1.6,4.8,2.1c5.3,0.8,14,2.9,14,11.4c0,6.4-5.7,11.2-15.1,11.2C2103.1,1230.6,2097,1228.8,2093.5,1225.8"/>
					<path style="clip-path:url(#SVGID_00000052077766565283161320000001283481040682774461_);fill:#005CB9;" d="M2145.1,1213.2
						c0-9.2,6-17.3,15.3-17.3c2,0,6.3,0.8,9.2,5.2h0.1v-16.9h11.2v45.6h-11.2v-4.2h-0.1c-2.9,4.5-7.1,5-9.2,5
						C2151.4,1230.6,2145.1,1222.5,2145.1,1213.2 M2169.7,1213.2c0-4.1-2.3-7.2-6.5-7.2c-4.1,0-6.4,3.1-6.4,7.2
						c0,4.2,2.3,7.3,6.4,7.3C2167.4,1220.5,2169.7,1217.4,2169.7,1213.2"/>
					<path style="clip-path:url(#SVGID_00000052077766565283161320000001283481040682774461_);fill:#005CB9;" d="M2186.7,1213.2
						c0-9.6,7.2-17.3,17.6-17.3c9.3,0,16.6,7,16.6,18.7v2.1h-22.7c0.8,2.7,3.4,5.4,7.8,5.4c1.8,0,5.5-0.8,7.5-2.1l4.5,7
						c-3.2,2.5-8.8,3.7-13.4,3.7C2194.6,1230.6,2186.7,1224.1,2186.7,1213.2 M2204.3,1204.5c-4.2,0-5.8,3.3-6.2,5.3h12.3
						C2210,1207.4,2208.7,1204.5,2204.3,1204.5"/>
					<polygon style="clip-path:url(#SVGID_00000052077766565283161320000001283481040682774461_);fill:#005CB9;" points="
						2251.5,1229.8 2239.2,1196.8 2250.9,1196.8 2257.6,1217.6 2264.5,1196.8 2276.3,1196.8 2263.9,1229.8 					"/>
					<path style="clip-path:url(#SVGID_00000052077766565283161320000001283481040682774461_);fill:#005CB9;" d="M2277.7,1213.2
						c0-9.2,6.6-17.3,18.1-17.3c11.4,0,18.1,8.1,18.1,17.3c0,9.3-6.7,17.4-18.1,17.4C2284.3,1230.6,2277.7,1222.5,2277.7,1213.2
						 M2302.3,1213.2c0-4.1-2.3-7.2-6.5-7.2c-4.1,0-6.4,3.1-6.4,7.2c0,4.2,2.3,7.3,6.4,7.3
						C2299.9,1220.5,2302.3,1217.4,2302.3,1213.2"/>
					<path style="clip-path:url(#SVGID_00000052077766565283161320000001283481040682774461_);fill:#005CB9;" d="M2318,1225.8
						c1.5-2.6,2.9-4.9,4.5-7.5c2.8,2.1,8.2,4,11.6,4c3,0,3.9-0.8,3.9-2c0-1.6-2.2-1.9-5.1-2.3c-5.3-0.8-13.8-2.7-13.8-11.1
						c0-5.8,5.1-11,14.2-11c5.1,0,9.9,1.6,13.6,4c-1.4,2.6-2.6,4.6-4,7.1c-2.2-1.6-5.9-3.1-9.5-3.1c-2.1,0-3.6,0.8-3.6,2.1
						c0,1.3,2.1,1.6,4.8,2.1c5.3,0.8,14,2.9,14,11.4c0,6.4-5.7,11.2-15.1,11.2C2327.6,1230.6,2321.5,1228.8,2318,1225.8"/>
					<path style="clip-path:url(#SVGID_00000052077766565283161320000001283481040682774461_);fill:#005CB9;" d="M2385.5,1206.6v8.4
						c0,3.1,0.9,5.6,5.6,5.6v10c-11.3,0-16.8-7.5-16.8-16.8v-7.1h-5.5v-9.9h5.5v-9.4h11.2v9.4h6.6v9.9H2385.5z"/>
					<path style="clip-path:url(#SVGID_00000052077766565283161320000001283481040682774461_);fill:#005CB9;" d="M2397.2,1229.8v-33
						h11.2v4.3c2.3-2.8,6.6-5.3,10.1-5.3v10.8c-0.6-0.1-1.3-0.1-2.3-0.1c-3.2,0-7.9,0.9-7.9,6.7v16.6H2397.2z"/>
					<path style="clip-path:url(#SVGID_00000052077766565283161320000001283481040682774461_);fill:#005CB9;" d="M2421.8,1213.2
						c0-9.2,6-17.3,15.3-17.3c2,0,6.3,0.8,9.2,5.2h0.1v-4.3h11.2v33h-11.2v-4.2h-0.1c-2.9,4.5-7.1,5-9.2,5
						C2428.1,1230.6,2421.8,1222.5,2421.8,1213.2 M2446.4,1213.2c0-4.1-2.3-7.2-6.5-7.2c-4.1,0-6.4,3.1-6.4,7.2
						c0,4.2,2.3,7.3,6.4,7.3C2444.1,1220.5,2446.4,1217.4,2446.4,1213.2"/>
					<polygon style="clip-path:url(#SVGID_00000052077766565283161320000001283481040682774461_);fill:#005CB9;" points="
						2473.7,1229.8 2461.4,1196.8 2473.1,1196.8 2479.8,1217.6 2486.7,1196.8 2498.5,1196.8 2486.1,1229.8 					"/>
					<path style="clip-path:url(#SVGID_00000052077766565283161320000001283481040682774461_);fill:#005CB9;" d="M2499.9,1213.2
						c0-9.2,6-17.3,15.3-17.3c2,0,6.3,0.8,9.2,5.2h0.1v-4.3h11.2v33h-11.2v-4.2h-0.1c-2.9,4.5-7.1,5-9.2,5
						C2506.2,1230.6,2499.9,1222.5,2499.9,1213.2 M2524.5,1213.2c0-4.1-2.3-7.2-6.5-7.2c-4.1,0-6.4,3.1-6.4,7.2
						c0,4.2,2.3,7.3,6.4,7.3C2522.1,1220.5,2524.5,1217.4,2524.5,1213.2"/>
					<path style="clip-path:url(#SVGID_00000052077766565283161320000001283481040682774461_);fill:#005CB9;" d="M2576.9,1196.8
						v16.9c0,9.9-6.5,16.9-16.8,16.9c-11.3,0-16.8-7.6-16.8-16.9v-16.9h11.2v18.1c0,3.1,0.9,5.6,5.6,5.6c4.7,0,5.6-2.5,5.6-5.6
						v-18.1H2576.9z"/>
					<path style="clip-path:url(#SVGID_00000052077766565283161320000001283481040682774461_);fill:#005CB9;" d="M2603.8,1229.8
						l-5.5-9.6l-5.5,9.6h-12.1l10.4-17l-9.9-16h12.3l4.7,8.6c1.4-2.6,3.4-6,4.7-8.6h12.2l-9.8,16l10.6,17H2603.8z"/>
					<path style="clip-path:url(#SVGID_00000052077766565283161320000001283481040682774461_);fill:#005CB9;" d="M2752.1,355.8
						c0,80.4-65.2,145.6-145.6,145.6c-80.4,0-145.6-65.2-145.6-145.6s65.2-145.6,145.6-145.6C2687,210.3,2752.1,275.4,2752.1,355.8"
						/>
					<path style="clip-path:url(#SVGID_00000052077766565283161320000001283481040682774461_);fill:#FFD100;" d="M2508.2,445.9
						v-28.5h11.7c5.8,0,9.1,3.9,9.1,8.6c0,4.7-3.3,8.6-9.1,8.6h-8.1v11.3H2508.2z M2519.4,431.4c3.5,0,5.8-2.2,5.8-5.4
						c0-3.2-2.4-5.4-5.8-5.4h-7.6v10.9H2519.4z"/>
					<path style="clip-path:url(#SVGID_00000052077766565283161320000001283481040682774461_);fill:#FFD100;" d="M2558.7,445.9h-4.2
						l-3.1-8.1h-13.3l-3.2,8.1h-4.1l11.7-28.5h4.5L2558.7,445.9z M2539.3,434.7h11l-5.5-13.7L2539.3,434.7z"/>
					<path style="clip-path:url(#SVGID_00000052077766565283161320000001283481040682774461_);fill:#FFD100;" d="M2579.4,445.9
						l-7.4-11.3h-5.8v11.3h-3.6v-28.5h11.7c5.3,0,9.2,3.3,9.2,8.6c0,5.1-3.6,8-7.6,8.3l7.9,11.6H2579.4z M2573.8,431.4
						c3.5,0,5.9-2.3,5.9-5.5c0-3.3-2.4-5.4-5.9-5.4h-7.6v10.9H2573.8z"/>
					<path style="clip-path:url(#SVGID_00000052077766565283161320000001283481040682774461_);fill:#FFD100;" d="M2597.5,443.1
						l1.9-2.7c1.2,1.5,2.9,2.8,5.5,2.8c3.6,0,5.8-2.4,5.8-6v-19.9h3.6v19.9c0,6.2-4.1,9.1-9.2,9.1
						C2602,446.4,2599.5,445.4,2597.5,443.1"/>
					<path style="clip-path:url(#SVGID_00000052077766565283161320000001283481040682774461_);fill:#FFD100;" d="M2620,431.7
						c0-8.4,5.9-14.8,14.5-14.8c8.6,0,14.5,6.3,14.5,14.8s-5.9,14.8-14.5,14.8C2625.8,446.4,2620,440.1,2620,431.7 M2645.2,431.7
						c0-6.7-4.2-11.6-10.7-11.6c-6.5,0-10.7,4.9-10.7,11.6c0,6.6,4.2,11.6,10.7,11.6C2640.9,443.3,2645.2,438.3,2645.2,431.7"/>
					<path style="clip-path:url(#SVGID_00000052077766565283161320000001283481040682774461_);fill:#FFD100;" d="M2654.6,434.8
						v-17.5h3.6v17.4c0,5.2,2.9,8.5,8.2,8.5c5.4,0,8.3-3.3,8.3-8.5v-17.4h3.6v17.4c0,7.1-4,11.6-11.9,11.6
						C2658.6,446.4,2654.6,441.8,2654.6,434.8"/>
					<path style="clip-path:url(#SVGID_00000052077766565283161320000001283481040682774461_);fill:#FFD100;" d="M2702,445.9
						l-7.4-11.3h-5.8v11.3h-3.6v-28.5h11.7c5.3,0,9.2,3.3,9.2,8.6c0,5.1-3.6,8-7.6,8.3l7.9,11.6H2702z M2696.4,431.4
						c3.5,0,5.9-2.3,5.9-5.5c0-3.3-2.4-5.4-5.9-5.4h-7.6v10.9H2696.4z"/>
					<polygon style="clip-path:url(#SVGID_00000052077766565283161320000001283481040682774461_);fill:#FFD100;" points="
						2544.8,406.6 2544.8,332.1 2527.4,349.5 2514.8,336.4 2547.8,303.9 2567.2,303.9 2567.2,406.6 					"/>
					<path style="clip-path:url(#SVGID_00000052077766565283161320000001283481040682774461_);fill:#FFD100;" d="M2578.3,355.3
						c0-26.5,13.4-53,43.5-53c30,0,43.5,26.5,43.5,53s-13.4,53.2-43.5,53.2C2591.7,408.5,2578.3,381.8,2578.3,355.3 M2642.4,355.3
						c0-19-5.5-33.6-20.6-33.6c-14.9,0-20.6,14.6-20.6,33.6c0,19,5.7,33.7,20.6,33.7C2636.7,389.1,2642.4,374.3,2642.4,355.3"/>
					<path style="clip-path:url(#SVGID_00000052077766565283161320000001283481040682774461_);fill:#FFD100;" d="M2667,315.2h2.2
						c3.5-11,13.9-18,26.7-18c11.5,0,18.2,6.1,21.9,12.6l-9.6,4.6c-2.2-4.2-6.9-7.5-12.2-7.5c-6.5,0-11.7,3.2-14.5,8.3h17.3
						c1.7,0,3.1,1.4,3.1,3.1c0,1.7-1.4,3-3.1,3h-19.1c-0.2,0.8-0.2,1.6-0.2,2.5c0,0.8,0,1.5,0.1,2.2h19.2c1.7,0,3.1,1.4,3.1,3.1
						c0,1.7-1.4,3-3.1,3h-17.3c2.7,5.2,7.9,8.6,14.6,8.6c5.3,0,10.1-3.3,12.2-7.5l9.6,4.5c-3.7,6.4-10.4,12.6-21.9,12.6
						c-12.9,0-23.3-7.1-26.8-18.3h-2.2c-1.7,0-3-1.3-3-3c0-1.7,1.3-3.1,3-3.1h1.1c-0.1-0.7-0.1-1.5-0.1-2.2c0-0.8,0-1.6,0.1-2.5
						h-1.1c-1.7,0-3-1.3-3-3C2664,316.5,2665.3,315.2,2667,315.2"/>
					<path style="clip-path:url(#SVGID_00000052077766565283161320000001283481040682774461_);fill:#FFD100;" d="M2524.9,290.7h-3.3
						l-2.5-6.5h-10.7l-2.6,6.5h-3.3l9.4-22.8h3.6L2524.9,290.7z M2509.3,281.7h8.8l-4.4-11L2509.3,281.7z M2514.5,263.9
						c0.2,0.2,0.3,0.5,0.3,0.8c0,0.3-0.1,0.6-0.3,0.8c-0.2,0.2-0.5,0.3-0.8,0.3c-0.3,0-0.6-0.1-0.8-0.3l-2.7-2.7
						c-0.2-0.2-0.3-0.5-0.3-0.8c0-0.3,0.1-0.5,0.3-0.8c0.2-0.2,0.5-0.3,0.8-0.3c0.3,0,0.5,0.1,0.8,0.3L2514.5,263.9z"/>
					<path style="clip-path:url(#SVGID_00000052077766565283161320000001283481040682774461_);fill:#FFD100;" d="M2537,290.7v-22.8
						h9.4c4.7,0,7.3,3.1,7.3,6.9s-2.7,6.9-7.3,6.9h-6.5v9.1H2537z M2546,279.1c2.8,0,4.7-1.8,4.7-4.3s-1.9-4.3-4.7-4.3h-6.1v8.7
						H2546z"/>
					<path style="clip-path:url(#SVGID_00000052077766565283161320000001283481040682774461_);fill:#FFD100;" d="M2577.4,290.7h-3.3
						l-2.5-6.5h-10.7l-2.6,6.5h-3.3l9.4-22.8h3.6L2577.4,290.7z M2561.9,281.7h8.8l-4.4-11L2561.9,281.7z"/>
					<path style="clip-path:url(#SVGID_00000052077766565283161320000001283481040682774461_);fill:#FFD100;" d="M2593.9,290.7
						l-5.9-9.1h-4.7v9.1h-2.9v-22.8h9.4c4.2,0,7.3,2.7,7.3,6.9c0,4.1-2.9,6.4-6.1,6.6l6.3,9.3H2593.9z M2589.5,279.1
						c2.8,0,4.7-1.8,4.7-4.4c0-2.6-1.9-4.3-4.7-4.3h-6.1v8.7H2589.5z"/>
					<polygon style="clip-path:url(#SVGID_00000052077766565283161320000001283481040682774461_);fill:#FFD100;" points="
						2607.5,290.7 2607.5,270.4 2600.1,270.4 2600.1,267.8 2617.8,267.8 2617.8,270.4 2610.4,270.4 2610.4,290.7 					"/>
					
						<rect x="2621.6" y="267.8" style="clip-path:url(#SVGID_00000052077766565283161320000001283481040682774461_);fill:#FFD100;" width="2.9" height="22.8"/>
					<path style="clip-path:url(#SVGID_00000052077766565283161320000001283481040682774461_);fill:#FFD100;" d="M2643.5,290.7
						l-5.9-9.1h-4.7v9.1h-2.9v-22.8h9.4c4.2,0,7.3,2.7,7.3,6.9c0,4.1-2.9,6.4-6.1,6.6l6.3,9.3H2643.5z M2639,279.1
						c2.8,0,4.7-1.8,4.7-4.4c0-2.6-1.9-4.3-4.7-4.3h-6.1v8.7H2639z"/>
					<path style="clip-path:url(#SVGID_00000052077766565283161320000001283481040682774461_);fill:#FFD100;" d="M2660.3,290.7
						v-22.8h8c7.3,0,11.9,5,11.9,11.4c0,6.5-4.7,11.4-11.9,11.4H2660.3z M2668.2,288.1c5.6,0,8.9-4,8.9-8.9c0-4.9-3.2-8.9-8.9-8.9
						h-5.1v17.8H2668.2z"/>
					<polygon style="clip-path:url(#SVGID_00000052077766565283161320000001283481040682774461_);fill:#FFD100;" points="
						2684.7,290.7 2684.7,267.8 2700,267.8 2700,270.4 2687.6,270.4 2687.6,277.7 2698,277.7 2698,280.3 2687.6,280.3 2687.6,288.1 
						2700,288.1 2700,290.7 					"/>
					<path style="clip-path:url(#SVGID_00000052077766565283161320000001283481040682774461_);fill:#005CB9;" d="M2313.2,391h14.6
						v-25.5h-14.6V391z M2330.6,375.1v7.1h24.3c2,0,3.6-1.6,3.6-3.6c0-2-1.6-3.6-3.6-3.6H2330.6z M2232.2,274.3
						c40.9,0,78.1,18.9,102.1,51.1l-8.3-1.4c-2.7-0.4-5.4,0.5-7.2,2.5c-1.5,1.6-2.3,3.8-2.1,6.1c0.3,3.6,3.2,6.7,7,7.3l28.2,4.7
						c0.4,0.1,0.7,0.1,1.1,0.1l0.2,0c3.6,0,6.8-2.5,7.7-6l7.4-28.7c0.6-2.4,0.1-4.9-1.4-6.9s-3.9-3.1-6.4-3.1l-0.5,0
						c-3.4,0.2-6.3,2.7-7.2,6.2l-2.6,10.1c-26.5-36.7-67.7-58.8-113.4-60.1l-0.2-12.9l7.8-0.1c4.7-0.1,8.5-3.9,8.4-8.6
						c-0.1-4.7-3.9-8.4-8.5-8.4h-0.1l-32.5,0.4c-4.7,0.1-8.5,3.9-8.4,8.6c0.1,4.7,3.9,8.4,8.5,8.4h0.1l7.6-0.1l0.2,13
						c0,0.1,0,0.1,0,0.2c-73.1,6.2-130.8,66.6-132.9,141c-0.9,32.9,9.7,63.3,27.6,88.2c1.8,2.5,3.7,5,5.7,7.4c1.6,2,3.3,3.9,5,5.8
						c1.7,1.9,4.2,3,6.7,3h0c3.1,0,5.8-1.5,7.6-4c2.3-3.4,1.9-8.2-1-11.4c-1.4-1.6-2.9-3.2-4.3-4.9c-15.8-19.2-25.6-42.4-28.2-67.2
						l-0.2-2.3l-0.3,0c-0.4-4.4-0.5-8.9-0.4-13.5C2106.6,330.1,2163.6,274.3,2232.2,274.3 M2169.3,410.5c2.3,0,8,0.4,12.1,4.4
						c5.3,5.1,2.7,13.4,2.4,14.3c0,0.1-0.1,0.2-0.1,0.3l-11.6,25.5c-1.2,2.6-2.4,5.8-2.7,11c-0.3,5.2,1.6,10.2,5.4,14.1
						c4.1,4.3,9.8,6.7,15.7,6.7c8.9,0,16.6-7.4,20.2-14.8l0.6-1.2c0.3-0.5,0.5-0.9,0.8-1.4l23.2-51.9h-25.8c-1.1,0-10.8-0.2-18.3-7
						c-8.4-7.7-8.2-19.5-8.2-20l0-44.9h-14.2c-9.9,0-17.6,8.5-17.6,15.8v33.1c0,7.3,7.7,15.8,17.6,15.8
						C2168.7,410.5,2169,410.5,2169.3,410.5 M2271,345.8v64.7h4.1c15.8,0,29.5-7.7,35.1-18.9v-26.8c-5.6-11.3-19.4-19-35.1-19H2271z
						 M2375.3,399.3c-2.2-2.2-5.3-3.2-8.5-2.6c-4.1,0.8-7.1,4.5-7.2,8.8c-0.1,2.1-0.2,4.3-0.4,6.5c-0.9,11.5-3.4,22.7-7.3,33.4
						l0,0.3c-18.5,49.7-67.7,84.9-123.4,83.2c-13.3-0.4-26-2.9-37.9-7l10.1-5.8c2.1-1.2,3.6-3.4,3.9-5.8c0.4-2.4-0.4-4.9-2.2-6.7
						c-2.4-2.6-6.8-3.1-10-1.2l-24.7,14.2c-0.3,0.2-0.6,0.4-0.9,0.6c-3,2.3-4,6.3-2.4,9.7l12.5,26.9c1.3,2.8,4.2,4.6,7.3,4.6
						c2,0,4-0.8,5.5-2.2c2.5-2.3,3.2-6.1,1.7-9.4l-3-6.5c12.5,4,25.8,6.3,39.6,6.7c1.4,0,2.9,0.1,4.3,0.1
						c37.9,0,73.9-14.6,101.2-41.1c3.5-3.4,6.7-6.9,9.8-10.6l0.2,0.3l2.1-2.6c18.4-22.8,29.4-50.4,31.7-79.6
						c0.2-2.6,0.3-5.2,0.4-7.6C2377.9,403.5,2377,401.1,2375.3,399.3 M2190,390.8c0,0,0,0.3,0,0.6v0c0,0.3,0,0.6,0.1,1
						c0,0,0,0,0,0.1c0,0.4,0.1,0.8,0.1,1.2c0,0.1,0,0.2,0,0.2c0.1,0.4,0.2,0.9,0.3,1.4c0,0.1,0.1,0.3,0.1,0.4
						c0.1,0.5,0.3,1.1,0.4,1.6c0,0.1,0.1,0.2,0.1,0.3c0.2,0.5,0.4,1.1,0.6,1.6c0,0.1,0.1,0.2,0.1,0.3c0.3,0.6,0.6,1.2,0.9,1.8
						c0.1,0.1,0.1,0.3,0.2,0.4c0.3,0.6,0.7,1.2,1.2,1.7c0.1,0.1,0.2,0.2,0.2,0.3c0.5,0.6,1,1.1,1.6,1.7c5.6,5.1,13.4,5.1,13.5,5.1
						h54.5v-64.7H2190V390.8z M2206.2,356.2h28.9c2,0,3.6,1.6,3.6,3.6c0,2-1.6,3.6-3.6,3.6h-28.9c-2,0-3.6-1.6-3.6-3.6
						C2202.7,357.8,2204.3,356.2,2206.2,356.2 M2206.2,371.7h28.9c2,0,3.6,1.6,3.6,3.6c0,2-1.6,3.6-3.6,3.6h-28.9
						c-2,0-3.6-1.6-3.6-3.6C2202.7,373.3,2204.3,371.7,2206.2,371.7"/>
				</g>
			</g>
		</g>
	</g>
	
		<line style="clip-path:url(#SVGID_00000091005563379694287510000000532850777285623176_);fill:none;stroke:#FFFFFF;stroke-width:6;stroke-miterlimit:10;" x1="1488.2" y1="1502.4" x2="1488.2" y2="-14.2"/>
</g>
</svg>
