<?xml version="1.0" encoding="utf-8"?>
<!-- Generator: Adobe Illustrator 26.5.0, SVG Export Plug-In . SVG Version: 6.00 Build 0)  -->
<svg version="1.1" id="Calque_1" xmlns="http://www.w3.org/2000/svg" xmlns:xlink="http://www.w3.org/1999/xlink" x="0px" y="0px"
	 viewBox="0 0 2976.4 1488.2" style="enable-background:new 0 0 2976.4 1488.2;" xml:space="preserve">
<style type="text/css">
	.st0{display:none;fill:none;stroke:#FFFFFF;stroke-width:6;stroke-miterlimit:10;}
	.st1{clip-path:url(#SVGID_00000139279355754262933370000004676415504003309457_);}
	.st2{clip-path:url(#SVGID_00000067212741301619293690000017433254052327754418_);}
	.st3{clip-path:url(#SVGID_00000159466101520838647760000017236654353983540882_);fill:#005CB9;}
	.st4{clip-path:url(#SVGID_00000159466101520838647760000017236654353983540882_);}
	.st5{fill:#FFFFFF;}
	.st6{font-family:'CastoBlack-Black';}
	.st7{font-size:174.4565px;}
	.st8{font-family:'CastoRegular';}
	.st9{font-size:69.7826px;}
	.st10{clip-path:url(#SVGID_00000015335080387598741100000007877131901359622566_);fill:#FFFFFF;}
	.st11{clip-path:url(#SVGID_00000137123994458460812450000002736464315369812147_);}
	.st12{clip-path:url(#SVGID_00000155843652056998808670000013083894251309286844_);fill:#FFD100;}
	.st13{clip-path:url(#SVGID_00000155843652056998808670000013083894251309286844_);}
	.st14{fill:#005CB9;}
	.st15{clip-path:url(#SVGID_00000083080416034016012600000001431591961239405446_);fill:#005CB9;}
</style>
<line class="st0" x1="1488.2" y1="1502.4" x2="1488.2" y2="-14.2"/>
<g>
	<defs>
		<rect id="SVGID_1_" width="2976.4" height="1488.2"/>
	</defs>
	<clipPath id="SVGID_00000023256866937010909100000008832750512370038947_">
		<use xlink:href="#SVGID_1_"  style="overflow:visible;"/>
	</clipPath>
	<g style="clip-path:url(#SVGID_00000023256866937010909100000008832750512370038947_);">
		<defs>
			<rect id="SVGID_00000085945206691252529970000014769391692058394242_" x="-14.2" y="-14.2" width="1502.4" height="1516.5"/>
		</defs>
		<clipPath id="SVGID_00000148652864230609564610000012031451788361991571_">
			<use xlink:href="#SVGID_00000085945206691252529970000014769391692058394242_"  style="overflow:visible;"/>
		</clipPath>
		<g style="clip-path:url(#SVGID_00000148652864230609564610000012031451788361991571_);">
			<g>
				<defs>
					<rect id="SVGID_00000033351275876879034270000007877572131803839627_" x="-14.2" y="-14.2" width="1516.5" height="1516.5"/>
				</defs>
				<clipPath id="SVGID_00000004515552485312562240000008531787146341931912_">
					<use xlink:href="#SVGID_00000033351275876879034270000007877572131803839627_"  style="overflow:visible;"/>
				</clipPath>
				
					<rect x="-14.2" y="-14.2" style="clip-path:url(#SVGID_00000004515552485312562240000008531787146341931912_);fill:#005CB9;" width="1516.5" height="1516.5"/>
				<g style="clip-path:url(#SVGID_00000004515552485312562240000008531787146341931912_);">
					<text transform="matrix(1 0 0 1 352.1809 804.8099)" class="st5 st6 st7">avantage</text>
				</g>
				<g style="clip-path:url(#SVGID_00000004515552485312562240000008531787146341931912_);">
					<text transform="matrix(1 0 0 1 532.3948 938.618)" class="st5 st6 st7">carte</text>
				</g>
				<g style="clip-path:url(#SVGID_00000004515552485312562240000008531787146341931912_);">
					<text transform="matrix(1.0071 0 0 1 471.9544 1099.8918)" class="st5 st8 st9">Carte castorama</text>
				</g>
				<g style="clip-path:url(#SVGID_00000004515552485312562240000008531787146341931912_);">
					<text transform="matrix(1 0 0 1 430.844 1169.6741)" class="st5 st6 st9">Bien accompagné, </text>
				</g>
				<g style="clip-path:url(#SVGID_00000004515552485312562240000008531787146341931912_);">
					<text transform="matrix(1 0 0 1 402.8616 1239.4568)" class="st5 st6 st9">en avant les projets !</text>
				</g>
				<g style="clip-path:url(#SVGID_00000004515552485312562240000008531787146341931912_);">
					<defs>
						<rect id="SVGID_00000021809845361489830410000006156943113723742111_" x="-14.2" y="-14.2" width="1516.5" height="1516.5"/>
					</defs>
					<clipPath id="SVGID_00000155840760521065874340000018430587612103742865_">
						<use xlink:href="#SVGID_00000021809845361489830410000006156943113723742111_"  style="overflow:visible;"/>
					</clipPath>
					<path style="clip-path:url(#SVGID_00000155840760521065874340000018430587612103742865_);fill:#FFFFFF;" d="M950.6,417.9
						c-0.1-29.6-24.1-53.5-53.8-53.4l-8.1,0l30,83.1c5.6,15.6,4.9,32.4-2.2,47.4c-7,15-19.5,26.4-35.1,32L685,598l212.5-0.6
						c29.6-0.1,53.5-24.2,53.4-53.8L950.6,417.9z"/>
					<path style="clip-path:url(#SVGID_00000155840760521065874340000018430587612103742865_);fill:#FFFFFF;" d="M902.9,453.3
						l-34.9-96.6l-273.3,98.8c-1.9,0.7-3.8,1-5.7,1c-6.9,0-13.4-4.3-15.9-11.2c-3.2-8.8,1.4-18.5,10.2-21.6l272-98.3
						c-8.3-12.3-22.2-20.2-37.4-20.2c-5.2,0-10.4,0.9-15.4,2.7L567,393c-23.4,8.5-35.6,34.4-27.1,57.8l42.8,118.3
						c8.2,22.7,34.8,35.4,57.8,27.1l235.3-85.1c11.3-4.1,20.4-12.4,25.5-23.3C906.4,476.9,907,464.6,902.9,453.3"/>
				</g>
			</g>
		</g>
	</g>
	<g style="clip-path:url(#SVGID_00000023256866937010909100000008832750512370038947_);">
		<defs>
			<rect id="SVGID_00000080922569256063287790000008133472933936727207_" x="1488.2" y="-14.2" width="1502.4" height="1516.5"/>
		</defs>
		<clipPath id="SVGID_00000075127571928548970270000008660162247652228008_">
			<use xlink:href="#SVGID_00000080922569256063287790000008133472933936727207_"  style="overflow:visible;"/>
		</clipPath>
		<g style="clip-path:url(#SVGID_00000075127571928548970270000008660162247652228008_);">
			<g>
				<defs>
					<rect id="SVGID_00000040557759239287562740000002840422336195762858_" x="1474" y="-14.2" width="1516.5" height="1516.5"/>
				</defs>
				<clipPath id="SVGID_00000155129287229461372240000008668477469382461570_">
					<use xlink:href="#SVGID_00000040557759239287562740000002840422336195762858_"  style="overflow:visible;"/>
				</clipPath>
				
					<rect x="1474.2" y="-13.9" style="clip-path:url(#SVGID_00000155129287229461372240000008668477469382461570_);fill:#FFD100;" width="1516.4" height="1516.2"/>
				<g style="clip-path:url(#SVGID_00000155129287229461372240000008668477469382461570_);">
					<text transform="matrix(1 0 0 1 1879.5076 805.1097)" class="st14 st6 st7">livraison</text>
				</g>
				<g style="clip-path:url(#SVGID_00000155129287229461372240000008668477469382461570_);">
					<text transform="matrix(1 0 0 1 1810.2478 938.9178)" class="st14 st6 st7">à domicile</text>
				</g>
				<g style="clip-path:url(#SVGID_00000155129287229461372240000008668477469382461570_);">
					<text transform="matrix(1 0 0 1 1843.1824 1100.1877)" class="st14 st8 st9">Pas de temps à perdre ?</text>
				</g>
				<g style="clip-path:url(#SVGID_00000155129287229461372240000008668477469382461570_);">
					<text transform="matrix(1 0 0 1 2055.6707 1169.9705)" class="st14 st6 st9">Gagnez-en</text>
				</g>
				<g style="clip-path:url(#SVGID_00000155129287229461372240000008668477469382461570_);">
					<defs>
						<rect id="SVGID_00000001637348015166515790000003062997121523858603_" x="1474" y="-14.2" width="1516.5" height="1516.5"/>
					</defs>
					<clipPath id="SVGID_00000062189219647416509060000012944996265227134122_">
						<use xlink:href="#SVGID_00000001637348015166515790000003062997121523858603_"  style="overflow:visible;"/>
					</clipPath>
					<path style="clip-path:url(#SVGID_00000062189219647416509060000012944996265227134122_);fill:#005CB9;" d="M2358.3,511.7
						c-23.6,0-44.1,15.7-44.1,43.7c0,27.9,20.7,43.6,44.1,43.6c23.4,0,43.9-15.8,43.9-43.6C2402.3,527.4,2381.7,511.7,2358.3,511.7"
						/>
					<path style="clip-path:url(#SVGID_00000062189219647416509060000012944996265227134122_);fill:#005CB9;" d="M2107.8,511.7
						c-23.6,0-44.1,15.7-44.1,43.7c0,27.9,20.8,43.6,44.1,43.6c23.4,0,44-15.8,44-43.6C2151.8,527.4,2131.3,511.7,2107.8,511.7"/>
					<path style="clip-path:url(#SVGID_00000062189219647416509060000012944996265227134122_);fill:#005CB9;" d="M2459,514.3h-2.5
						v-25.6v-19.9v-10c0-63.3-51.4-114.7-114.7-114.7c-3.2,0-6.2,0.2-9.4,0.4c-11.4-23.1-35-38.9-62.5-38.9h-183.2
						c-38.5,0-69.7,31.2-69.7,69.8v93.5v19.9v25.6h-11.2c-9.2,0-16.5,7.4-16.5,16.5c0,9.1,7.4,16.5,16.5,16.5h35.1l1-6.8
						c6.4-33.3,34.4-51.9,66-51.9c33.4,0,62.9,21,66.7,58.6h117c3.8-37.6,33.4-58.6,67-58.6c31.3,0,59.2,18.4,65.7,51.7l1,7h6.1
						h27.6c9.2,0,16.5-7.4,16.5-16.5C2475.6,521.7,2468.2,514.3,2459,514.3 M2369.5,450.7c-11,0-20.1-8.3-21.3-19v-59.2
						c43.2,0,78.2,35,78.2,78.2H2369.5z"/>
				</g>
			</g>
		</g>
	</g>
</g>
</svg>
