<?xml version="1.0" encoding="utf-8"?>
<!-- Generator: Adobe Illustrator 26.5.0, SVG Export Plug-In . SVG Version: 6.00 Build 0)  -->
<svg version="1.1" id="Calque_1" xmlns="http://www.w3.org/2000/svg" xmlns:xlink="http://www.w3.org/1999/xlink" x="0px" y="0px"
	 viewBox="0 0 2976.4 1488.2" style="enable-background:new 0 0 2976.4 1488.2;" xml:space="preserve">
<style type="text/css">
	.st0{display:none;fill:none;stroke:#FFFFFF;stroke-width:0.6;stroke-miterlimit:10;}
	.st1{clip-path:url(#SVGID_00000041999389195952639500000001261539172498592418_);}
	.st2{clip-path:url(#SVGID_00000002378683281562223180000007781032287043633049_);}
	.st3{clip-path:url(#SVGID_00000029027238954154418520000001053934772010612916_);fill:#FFD100;}
	.st4{clip-path:url(#SVGID_00000029027238954154418520000001053934772010612916_);}
	.st5{fill:#005CB9;}
	.st6{font-family:'CastoBlack-Black';}
	.st7{font-size:174.4565px;}
	.st8{font-family:'CastoRegular';}
	.st9{font-size:69.7826px;}
	.st10{clip-path:url(#SVGID_00000112610807683397798410000000347181778331348415_);fill:#005CB9;}
	.st11{clip-path:url(#SVGID_00000065787787632526071950000009553947138247161021_);}
	.st12{clip-path:url(#SVGID_00000096773796984206060140000013989568128770202762_);fill:#005CB9;}
	.st13{clip-path:url(#SVGID_00000096773796984206060140000013989568128770202762_);}
	.st14{clip-path:url(#SVGID_00000178898876116386096170000014174010752131131066_);fill:#FFFFFF;}
</style>
<line class="st0" x1="1488.2" y1="819.9" x2="1488.2" y2="668.3"/>
<g>
	<defs>
		<rect id="SVGID_1_" width="2976.4" height="1488.2"/>
	</defs>
	<clipPath id="SVGID_00000137133602202866932650000015887658608214399928_">
		<use xlink:href="#SVGID_1_"  style="overflow:visible;"/>
	</clipPath>
	<g style="clip-path:url(#SVGID_00000137133602202866932650000015887658608214399928_);">
		<defs>
			<rect id="SVGID_00000172419979788146637540000001983705112325816509_" x="-14.2" y="-14.2" width="1502.4" height="1516.5"/>
		</defs>
		<clipPath id="SVGID_00000160184643545893161610000008230026208310982802_">
			<use xlink:href="#SVGID_00000172419979788146637540000001983705112325816509_"  style="overflow:visible;"/>
		</clipPath>
		<g style="clip-path:url(#SVGID_00000160184643545893161610000008230026208310982802_);">
			<g>
				<defs>
					<rect id="SVGID_00000096769970565670203310000012534597016610901151_" x="-14.2" y="-14.2" width="1516.5" height="1516.5"/>
				</defs>
				<clipPath id="SVGID_00000062904795188506329520000015976403358271814299_">
					<use xlink:href="#SVGID_00000096769970565670203310000012534597016610901151_"  style="overflow:visible;"/>
				</clipPath>
				
					<rect x="-14.2" y="-14.2" style="clip-path:url(#SVGID_00000062904795188506329520000015976403358271814299_);fill:#FFD100;" width="1516.5" height="1516.5"/>
				<g style="clip-path:url(#SVGID_00000062904795188506329520000015976403358271814299_);">
					<text transform="matrix(1 0 0 1 410.8011 804.8109)" class="st5 st6 st7">location</text>
				</g>
				<g style="clip-path:url(#SVGID_00000062904795188506329520000015976403358271814299_);">
					<text transform="matrix(1 0 0 1 284.3196 938.619)" class="st5 st6 st7">de véhicule</text>
				</g>
				<g style="clip-path:url(#SVGID_00000062904795188506329520000015976403358271814299_);">
					<text transform="matrix(1 0 0 1 393.4397 1099.8918)" class="st5 st8 st9">Besoin d’un véhicule ?</text>
				</g>
				<g style="clip-path:url(#SVGID_00000062904795188506329520000015976403358271814299_);">
					<text transform="matrix(1 0 0 1 370.0628 1169.6746)" class="st5 st6 st9">Louez un véhicule pour</text>
				</g>
				<g style="clip-path:url(#SVGID_00000062904795188506329520000015976403358271814299_);">
					<text transform="matrix(1 0 0 1 384.7864 1239.4568)" class="st5 st6 st9">8,90€ par demi-heure</text>
				</g>
				<g style="clip-path:url(#SVGID_00000062904795188506329520000015976403358271814299_);">
					<defs>
						<rect id="SVGID_00000021077303968764604120000012818788151945198517_" x="-14.2" y="-14.2" width="1516.5" height="1516.5"/>
					</defs>
					<clipPath id="SVGID_00000168092064531506228450000002985708018050933653_">
						<use xlink:href="#SVGID_00000021077303968764604120000012818788151945198517_"  style="overflow:visible;"/>
					</clipPath>
					<path style="clip-path:url(#SVGID_00000168092064531506228450000002985708018050933653_);fill:#005CB9;" d="M655.5,412.4
						c0.6,4.1,4.5,6.9,8.8,6.2c4.2-0.7,7.1-4.7,6.5-8.8c-4-27,14.1-53.6,42.4-61.9c27.3-8.1,55.2,3.3,66.5,27
						c1.8,3.8,6.4,5.3,10.3,3.5c0.3-0.1,0.5-0.2,0.7-0.4c3.4-2.1,4.7-6.3,3-9.8c-14.4-30.3-50-45-84.6-34.8
						C673.4,343.8,650.3,377.8,655.5,412.4"/>
					<path style="clip-path:url(#SVGID_00000168092064531506228450000002985708018050933653_);fill:#005CB9;" d="M1006.9,491
						l-5.5-3.5c-0.6,0.7-1.3,1.3-2.2,1.7c-2.2,1.1-4.9,1-7.1-0.4c-3.4-2.2-4.3-6.7-2.1-10l0.4-0.7l-5.9-4.3l-0.5,0.8
						c-0.8,1.2-1.8,2-2.9,2.5c-2.2,1.1-4.9,1-7.1-0.4c-3.4-2.2-4.3-6.7-2.1-10l1-1.7l-6.5-4.7l-0.6,0.9c-0.7,1.1-1.7,2-2.9,2.5
						c-2.2,1.1-4.9,1-7.2-0.4c-3.3-2.1-4.3-6.6-2.2-10l1.1-1.7l-47.1-34.6c0.4-3.6-1.2-7.3-4.5-9.5c-2.9-1.9-6.5-2.1-9.5-0.8
						l-0.1-0.1c3-11.4,3.5-23.4,1.3-35.2c-3.9-21.3-15.8-39.7-33.5-52c-24-16.6-55.2-19-81.5-6.2c-8.1,3.9-15.4,9.2-21.8,15.6
						c13.4,4.9,25.1,13.2,33.6,24.6c3.7-0.4,7.6,0.2,11.1,1.8c5.4,2.4,9.5,6.7,11.5,12.2c4,10.5-0.7,22.6-10.8,27.5
						c-0.5,0.3-1.1,0.6-1.7,0.8c-5.5,2.1-11.4,1.9-16.7-0.4c-5.4-2.4-9.5-6.7-11.6-12.2c-1.3-3.3-1.6-6.8-1.3-10.1
						c-6.7-10.8-17.7-18.1-30.2-20.9c-12.3,26.6-8.9,57.6,7.8,81c-4.2,2.3-9.1,4.3-14.8,5.6c-5.4,1.3-10.5,1.7-15.1,1.5
						c-0.6-23.4-11.5-48.3-32.2-67.2c-0.5-0.4-0.9-0.8-1.4-1.2c-6.8,8.8-10.6,19.4-10.4,30.4c1,1.6,1.9,3.2,2.5,5
						c3.2,9.8-1.4,20.5-10.7,25.1c-0.8,0.4-1.7,0.8-2.7,1.1c-10.9,3.5-22.6-2.5-26.1-13.4c-3.1-9.6,1.3-20.3,10.3-24.9
						c1.3-13.9,6.6-27.1,15.1-38.4c-23.9-12.1-50.7-13.7-72.3-3.2c-7.2,3.5-13.6,8.3-18.9,14.1l-82.9,90.7
						c-27.4,30-20.4,81,15.5,113.9c28.2,25.7,66.7,33.5,95.8,19.4c7.2-3.5,13.5-8.3,18.9-14.1l82.9-90.7
						c7.7-8.4,12.6-18.5,15.1-29.4c6.3,0.4,13.2-0.1,20.7-1.9c5.9-1.4,11.1-3.3,15.8-5.6c2.4-1.2,4.7-2.5,6.7-3.8
						c2.4,2.2,5.1,4.3,7.8,6.1c24,16.6,55.2,19.1,81.5,6.3c5.7-2.8,11-6.3,15.9-10.3c0.1,3.3,1.7,6.4,4.6,8.3
						c3.1,2.1,6.9,2.2,10,0.7c0.9-0.4,1.8-1.1,2.5-1.8l34.8,19.6l14.7,9.6l1.7-2.6c2.2-3.3,6.6-4.3,10-2.1c3.4,2.2,4.3,6.6,2.2,10
						l-1.7,2.6l6.8,4.4l1-1.6c2.2-3.3,6.6-4.3,10-2.1c3.4,2.1,4.3,6.6,2.2,10l-1.1,1.6l6.2,4l0.8-1.3c2.2-3.4,6.6-4.3,10-2.1
						c3.4,2.1,4.3,6.6,2.2,10l-0.9,1.4l1.6,1c0.5,0.3,0.9,0.5,1.3,0.7l2.5,1.6c5.3,3.4,11.7,3.6,17,1c2.8-1.4,5.2-3.4,6.9-6.2
						C1017.3,507,1014.9,496.3,1006.9,491"/>
				</g>
			</g>
		</g>
	</g>
	<g style="clip-path:url(#SVGID_00000137133602202866932650000015887658608214399928_);">
		<defs>
			<rect id="SVGID_00000127751072211579883490000012905356058576252544_" x="1488.2" y="-14.2" width="1502.4" height="1516.5"/>
		</defs>
		<clipPath id="SVGID_00000039092216421795820940000000107215541541759905_">
			<use xlink:href="#SVGID_00000127751072211579883490000012905356058576252544_"  style="overflow:visible;"/>
		</clipPath>
		<g style="clip-path:url(#SVGID_00000039092216421795820940000000107215541541759905_);">
			<g>
				<defs>
					<rect id="SVGID_00000145743238011300711420000017439064358907177886_" x="1474" y="-14.2" width="1516.5" height="1516.5"/>
				</defs>
				<clipPath id="SVGID_00000000220600381058392410000002548704520971289224_">
					<use xlink:href="#SVGID_00000145743238011300711420000017439064358907177886_"  style="overflow:visible;"/>
				</clipPath>
				
					<rect x="1474" y="-14.2" style="clip-path:url(#SVGID_00000000220600381058392410000002548704520971289224_);fill:#005CB9;" width="1516.5" height="1516.5"/>
				<g style="clip-path:url(#SVGID_00000000220600381058392410000002548704520971289224_);">
					<defs>
						<rect id="SVGID_00000183250223969262091880000002137922601505487520_" x="1474" y="-14.2" width="1516.5" height="1516.5"/>
					</defs>
					<clipPath id="SVGID_00000033370457730911076090000000263417001833598387_">
						<use xlink:href="#SVGID_00000183250223969262091880000002137922601505487520_"  style="overflow:visible;"/>
					</clipPath>
					<path style="clip-path:url(#SVGID_00000033370457730911076090000000263417001833598387_);fill:#FFFFFF;" d="M1833.9,1080.5
						c0,7.3-5,12.3-13.5,12.3h-21.2v-45.7h18.9c8.2,0,13.1,4.8,13.1,11.6c0,5.4-3.5,9.2-7.5,10.3
						C1829.9,1069.6,1833.9,1075.1,1833.9,1080.5 M1805,1067h12.1c5.3,0,8-3.2,8-7.3c0-4.1-2.7-7.4-8-7.4H1805V1067z M1819.3,1087.8
						c5.3,0,8.6-3,8.6-7.9c0-4.2-2.9-7.9-8.6-7.9H1805v15.8H1819.3z"/>
					<path style="clip-path:url(#SVGID_00000033370457730911076090000000263417001833598387_);fill:#FFFFFF;" d="M1841,1076.3
						c0-9.6,7-17.3,16.6-17.3c10.2,0,16.2,7.8,16.2,17.7v1.3h-27.3c0.4,6.2,4.8,11.1,12.1,11.1c3.9,0,7.5-1.5,10.2-4.2l2.8,3.7
						c-3.4,3.3-7.9,5.1-13.4,5.1C1848.2,1093.7,1841,1086.6,1841,1076.3 M1868.6,1074.1c-0.1-4.9-3.4-10.6-11.1-10.6
						c-7.2,0-10.8,5.6-11,10.6H1868.6z"/>
					<path style="clip-path:url(#SVGID_00000033370457730911076090000000263417001833598387_);fill:#FFFFFF;" d="M1879.5,1088.5
						l2.6-3.7c2.3,2.5,6.5,4.7,11.2,4.7c5.1,0,8-2.4,8-5.7c0-8-20.9-3.1-20.9-15.3c0-5.2,4.5-9.5,12.5-9.5c5.8,0,9.8,2.1,12.5,4.8
						l-2.5,3.6c-2-2.4-5.6-4.2-10-4.2c-4.7,0-7.5,2.3-7.5,5.2c0,7.2,20.9,2.5,20.9,15.3c0,5.5-4.5,10-13.1,10
						C1887.5,1093.7,1882.9,1091.9,1879.5,1088.5"/>
					<path style="clip-path:url(#SVGID_00000033370457730911076090000000263417001833598387_);fill:#FFFFFF;" d="M1912.8,1076.3
						c0-9.6,6.4-17.3,16.7-17.3s16.7,7.7,16.7,17.3c0,9.6-6.4,17.4-16.7,17.4S1912.8,1085.9,1912.8,1076.3 M1940.7,1076.3
						c0-6.7-4-12.7-11.2-12.7s-11.2,6-11.2,12.7c0,6.8,4,12.8,11.2,12.8S1940.7,1083,1940.7,1076.3"/>
					<path style="clip-path:url(#SVGID_00000033370457730911076090000000263417001833598387_);fill:#FFFFFF;" d="M1957.7,1048.1
						c1.7,0,3.2,1.4,3.2,3.2s-1.4,3.1-3.2,3.1c-1.7,0-3.1-1.4-3.1-3.1S1956,1048.1,1957.7,1048.1 M1955.1,1059.8h5.2v33.1h-5.2
						V1059.8z"/>
					<path style="clip-path:url(#SVGID_00000033370457730911076090000000263417001833598387_);fill:#FFFFFF;" d="M1994.2,1092.8
						v-21.6c0-5.9-3.1-7.7-7.7-7.7c-4.1,0-10,2.9-10,12.7v16.6h-5.2v-33.1h5.2v4.8c2.4-2.8,7-5.6,12.1-5.6c7,0,10.7,3.5,10.7,10.7
						v23.2H1994.2z"/>
					<path style="clip-path:url(#SVGID_00000033370457730911076090000000263417001833598387_);fill:#FFFFFF;" d="M2058.4,1047.2
						v45.7h-5.2v-4.9c-3.1,4.6-7.8,5.7-10.7,5.7c-10.3,0-16.7-7.8-16.7-17.4c0-9.6,6.4-17.3,16.7-17.3c2.6,0,7.5,1,10.7,5.8v-17.5
						H2058.4z M2053.7,1076.3c0-6.7-4-12.7-11.2-12.7c-7.2,0-11.2,6-11.2,12.7c0,6.8,4,12.8,11.2,12.8
						C2049.7,1089.1,2053.7,1083,2053.7,1076.3"/>
					<path style="clip-path:url(#SVGID_00000033370457730911076090000000263417001833598387_);fill:#FFFFFF;" d="M2068,1058.7
						c1.2-1,2.1-2.9,2.1-4.9c0-0.3-0.1-0.5-0.1-0.8c-1.5-0.5-2.2-1.5-2.2-3.1c0-2,1.5-3.4,3.6-3.4c2.6,0,4.4,2.1,4.4,4.9
						c0,4.4-3.4,8.2-7.8,8.6V1058.7z"/>
					<path style="clip-path:url(#SVGID_00000033370457730911076090000000263417001833598387_);fill:#FFFFFF;" d="M2084.8,1080.2
						v-0.3v-20.1h5.2v20.3c0,1.2,0.3,9,8.8,9c8.7,0,8.9-7.9,8.9-9.2v-20.1h5.2v20.1v0.3c0,2.1-0.5,13.5-14.1,13.5
						C2085.3,1093.7,2084.8,1082.2,2084.8,1080.2"/>
					<path style="clip-path:url(#SVGID_00000033370457730911076090000000263417001833598387_);fill:#FFFFFF;" d="M2146.2,1092.8
						v-21.6c0-5.9-3.1-7.7-7.7-7.7c-4.1,0-10,2.9-10,12.7v16.6h-5.2v-33.1h5.2v4.8c2.4-2.8,7-5.6,12.1-5.6c7,0,10.7,3.5,10.7,10.7
						v23.2H2146.2z"/>
					<path style="clip-path:url(#SVGID_00000033370457730911076090000000263417001833598387_);fill:#FFFFFF;" d="M2177.9,1076.3
						c0-9.8,6.8-17.3,16.8-17.3c6.1,0,9.7,2.5,12.3,5.8l-3.5,3.1c-2.2-3-5.1-4.2-8.6-4.2c-7.1,0-11.7,5.4-11.7,12.7
						c0,7.3,4.6,12.8,11.7,12.8c3.5,0,6.4-1.4,8.6-4.3l3.5,3.2c-2.6,3.3-6.2,5.8-12.3,5.8
						C2184.7,1093.7,2177.9,1086.1,2177.9,1076.3"/>
					<path style="clip-path:url(#SVGID_00000033370457730911076090000000263417001833598387_);fill:#FFFFFF;" d="M2212.5,1076.3
						c0-9.6,6.4-17.3,16.7-17.3s16.7,7.7,16.7,17.3c0,9.6-6.4,17.4-16.7,17.4S2212.5,1085.9,2212.5,1076.3 M2240.3,1076.3
						c0-6.7-4-12.7-11.2-12.7c-7.2,0-11.2,6-11.2,12.7c0,6.8,4,12.8,11.2,12.8C2236.4,1089.1,2240.3,1083,2240.3,1076.3"/>
					<path style="clip-path:url(#SVGID_00000033370457730911076090000000263417001833598387_);fill:#FFFFFF;" d="M2254.3,1080.2
						v-0.3v-20.1h5.2v20.3c0,1.2,0.3,9,8.8,9c8.7,0,8.9-7.9,8.9-9.2v-20.1h5.2v20.1v0.3c0,2.1-0.5,13.5-14.1,13.5
						C2254.8,1093.7,2254.3,1082.2,2254.3,1080.2"/>
					<path style="clip-path:url(#SVGID_00000033370457730911076090000000263417001833598387_);fill:#FFFFFF;" d="M2298.1,1059.8v4.9
						c3.2-4.7,8.1-5.8,10.7-5.8c10.3,0,16.7,7.7,16.7,17.3c0,9.6-6.4,17.4-16.7,17.4c-2.9,0-7.6-1.1-10.7-5.7v17.5h-5.2v-45.7
						H2298.1z M2319.9,1076.3c0-6.7-4-12.7-11.2-12.7c-7.2,0-11.2,6-11.2,12.7c0,6.8,4,12.8,11.2,12.8
						C2315.9,1089.1,2319.9,1083,2319.9,1076.3"/>
					<path style="clip-path:url(#SVGID_00000033370457730911076090000000263417001833598387_);fill:#FFFFFF;" d="M2382.6,1047.2
						v45.7h-5.2v-4.9c-3.1,4.6-7.8,5.7-10.7,5.7c-10.3,0-16.7-7.8-16.7-17.4c0-9.6,6.4-17.3,16.7-17.3c2.6,0,7.5,1,10.7,5.8v-17.5
						H2382.6z M2377.8,1076.3c0-6.7-4-12.7-11.2-12.7c-7.2,0-11.2,6-11.2,12.7c0,6.8,4,12.8,11.2,12.8
						C2373.9,1089.1,2377.8,1083,2377.8,1076.3"/>
					<path style="clip-path:url(#SVGID_00000033370457730911076090000000263417001833598387_);fill:#FFFFFF;" d="M2391,1076.3
						c0-9.6,7-17.3,16.6-17.3c10.2,0,16.2,7.8,16.2,17.7v1.3h-27.3c0.4,6.2,4.8,11.1,12.1,11.1c3.9,0,7.5-1.5,10.2-4.2l2.8,3.7
						c-3.4,3.3-7.9,5.1-13.4,5.1C2398.2,1093.7,2391,1086.6,2391,1076.3 M2418.7,1074.1c-0.1-4.9-3.4-10.6-11.1-10.6
						c-7.2,0-10.8,5.6-11,10.6H2418.7z"/>
					<path style="clip-path:url(#SVGID_00000033370457730911076090000000263417001833598387_);fill:#FFFFFF;" d="M2501.1,1069.6
						v23.2h-5.1v-21.6c0-5.3-2.5-7.3-6.4-7.6c-7.2,0-11.2,4.6-11.2,9.6v19.7h-5.1v-21.6c0-5.9-3.1-7.7-7.6-7.7
						c-4.1,0-10,2.9-10,12.7v16.6h-5.2v-33.1h5.2v4.8c2.4-2.8,7-5.6,12.1-5.6c5.2,0,8.6,2,9.9,6c2.7-3.4,6.6-6,12.7-6
						C2497.4,1058.9,2501.1,1062.4,2501.1,1069.6"/>
					<path style="clip-path:url(#SVGID_00000033370457730911076090000000263417001833598387_);fill:#FFFFFF;" d="M2542.1,1059.8
						v33.1h-5.2v-4.9c-3.1,4.6-7.8,5.7-10.7,5.7c-10.3,0-16.7-7.8-16.7-17.4c0-9.6,6.4-17.3,16.7-17.3c2.6,0,7.5,1,10.7,5.8v-4.9
						H2542.1z M2537.4,1076.3c0-6.7-4-12.7-11.2-12.7c-7.2,0-11.2,6-11.2,12.7c0,6.8,4,12.8,11.2,12.8
						C2533.4,1089.1,2537.4,1083,2537.4,1076.3"/>
					<path style="clip-path:url(#SVGID_00000033370457730911076090000000263417001833598387_);fill:#FFFFFF;" d="M2555.6,1048.1
						c1.7,0,3.2,1.4,3.2,3.2s-1.4,3.1-3.2,3.1c-1.7,0-3.1-1.4-3.1-3.1S2553.9,1048.1,2555.6,1048.1 M2553,1059.8h5.2v33.1h-5.2
						V1059.8z"/>
					<path style="clip-path:url(#SVGID_00000033370457730911076090000000263417001833598387_);fill:#FFFFFF;" d="M2592,1092.8v-21.6
						c0-5.9-3.1-7.7-7.7-7.7c-4.1,0-10,2.9-10,12.7v16.6h-5.2v-33.1h5.2v4.8c2.4-2.8,7-5.6,12.1-5.6c7,0,10.7,3.5,10.7,10.7v23.2
						H2592z"/>
					<path style="clip-path:url(#SVGID_00000033370457730911076090000000263417001833598387_);fill:#FFFFFF;" d="M2637.2,1071.3v6.4
						c0,1.4-1.2,2.5-2.5,2.5c-1.4,0-2.5-1.1-2.5-2.5v-11.1c11.9,0,12.5-7,12.5-8.5v-0.3c0-3.4-2.7-6.4-8.1-6.4
						c-5.3,0-8.6,2.2-11.2,5.6l-3.5-3.7c3.4-4.3,8.5-7,15.1-7c7.7,0,13.7,4.1,13.7,11.7C2650.6,1063.2,2648.1,1069.5,2637.2,1071.3
						 M2634.6,1086.5c2,0,3.6,1.6,3.6,3.6c0,2-1.6,3.5-3.6,3.5c-2,0-3.5-1.5-3.5-3.5C2631.1,1088,2632.6,1086.5,2634.6,1086.5"/>
					<path style="clip-path:url(#SVGID_00000033370457730911076090000000263417001833598387_);fill:#FFFFFF;" d="M1750.7,1161.3
						v-45.6h19.7c13.8,0,24.2,8.2,24.2,22.7c0,14.6-10.4,22.9-24.2,22.9H1750.7z M1781.8,1138.4c0-6.6-3.8-11.5-11.4-11.5h-7.2v23.1
						h7.1C1777.6,1150.1,1781.8,1144.6,1781.8,1138.4"/>
					<path style="clip-path:url(#SVGID_00000033370457730911076090000000263417001833598387_);fill:#FFFFFF;" d="M1797.7,1144.7
						c0-9.6,7.2-17.3,17.6-17.3c9.3,0,16.6,7,16.6,18.7v2.1h-22.7c0.8,2.7,3.4,5.4,7.8,5.4c1.8,0,5.5-0.8,7.5-2.1l4.5,7
						c-3.2,2.5-8.8,3.7-13.4,3.7C1805.5,1162.1,1797.7,1155.6,1797.7,1144.7 M1815.3,1136c-4.2,0-5.8,3.3-6.2,5.3h12.3
						C1820.9,1138.9,1819.6,1136,1815.3,1136"/>
					<path style="clip-path:url(#SVGID_00000033370457730911076090000000263417001833598387_);fill:#FFFFFF;" d="M1835.3,1157.3
						c1.5-2.6,2.9-4.9,4.5-7.5c2.8,2.1,8.1,4,11.6,4c3,0,3.9-0.8,3.9-2c0-1.6-2.2-1.9-5.1-2.3c-5.3-0.8-13.8-2.7-13.8-11.1
						c0-5.8,5.1-11,14.2-11c5.1,0,9.9,1.6,13.6,4c-1.4,2.6-2.6,4.6-4,7.1c-2.2-1.6-5.9-3.1-9.5-3.1c-2.1,0-3.6,0.8-3.6,2.1
						s2.1,1.6,4.8,2.1c5.3,0.8,14,2.9,14,11.4c0,6.4-5.7,11.2-15.1,11.2C1844.8,1162.1,1838.7,1160.3,1835.3,1157.3"/>
					<path style="clip-path:url(#SVGID_00000033370457730911076090000000263417001833598387_);fill:#FFFFFF;" d="M1899.9,1157.1
						L1899.9,1157.1l-0.1,4.2h-11.2v-45.6h11.2v16.9h0.1c2.9-4.5,7.2-5.2,9.2-5.2c9.3,0,15.3,8.1,15.3,17.3
						c0,9.3-6.3,17.4-15.3,17.4C1907,1162.1,1902.8,1161.6,1899.9,1157.1 M1912.8,1144.7c0-4.1-2.3-7.2-6.4-7.2
						c-4.2,0-6.5,3.1-6.5,7.2c0,4.2,2.3,7.3,6.5,7.3C1910.4,1152.1,1912.8,1148.9,1912.8,1144.7"/>
					<path style="clip-path:url(#SVGID_00000033370457730911076090000000263417001833598387_);fill:#FFFFFF;" d="M1930.2,1161.3v-33
						h11.2v4.3c2.3-2.8,6.6-5.3,10.1-5.3v10.8c-0.6-0.1-1.3-0.1-2.3-0.1c-3.2,0-7.9,0.9-7.9,6.7v16.6H1930.2z"/>
					<path style="clip-path:url(#SVGID_00000033370457730911076090000000263417001833598387_);fill:#FFFFFF;" d="M1956.6,1117
						c0-3.1,2.5-5.5,5.7-5.5c3,0,5.5,2.4,5.5,5.5c0,3-2.5,5.5-5.5,5.5C1959.1,1122.5,1956.6,1120,1956.6,1117 M1956.6,1128.3h11.2
						v33h-11.2V1128.3z"/>
					<path style="clip-path:url(#SVGID_00000033370457730911076090000000263417001833598387_);fill:#FFFFFF;" d="M1973.6,1144.7
						c0-10.5,7.9-17.3,18-17.3c7,0,11.3,3.1,13.3,5.8l-7.1,7c-1.2-1.5-3.1-2.6-5.7-2.6c-3.8,0-7.1,2.5-7.1,7.2
						c0,4.7,3.3,7.3,7.1,7.3c2.5,0,4.6-1.3,5.8-2.7c2.5,2.5,4.5,4.7,7,7.1c-2,2.6-6.4,5.7-13.3,5.7
						C1981.5,1162.1,1973.6,1155.3,1973.6,1144.7"/>
					<path style="clip-path:url(#SVGID_00000033370457730911076090000000263417001833598387_);fill:#FFFFFF;" d="M2008.4,1144.7
						c0-9.2,6.6-17.3,18.1-17.3c11.4,0,18.1,8.1,18.1,17.3c0,9.3-6.7,17.4-18.1,17.4C2015,1162.1,2008.4,1154.1,2008.4,1144.7
						 M2032.9,1144.7c0-4.1-2.3-7.2-6.5-7.2c-4.1,0-6.4,3.1-6.4,7.2c0,4.2,2.3,7.3,6.4,7.3
						C2030.6,1152.1,2032.9,1148.9,2032.9,1144.7"/>
					
						<rect x="2050.4" y="1115.7" style="clip-path:url(#SVGID_00000033370457730911076090000000263417001833598387_);fill:#FFFFFF;" width="11.2" height="45.6"/>
					<path style="clip-path:url(#SVGID_00000033370457730911076090000000263417001833598387_);fill:#FFFFFF;" d="M2067.5,1144.7
						c0-9.6,7.2-17.3,17.6-17.3c9.3,0,16.6,7,16.6,18.7v2.1H2079c0.8,2.7,3.4,5.4,7.8,5.4c1.8,0,5.5-0.8,7.5-2.1l4.5,7
						c-3.2,2.5-8.8,3.7-13.4,3.7C2075.3,1162.1,2067.5,1155.6,2067.5,1144.7 M2085.1,1136c-4.2,0-5.8,3.3-6.2,5.3h12.3
						C2090.7,1138.9,2089.4,1136,2085.1,1136"/>
					<path style="clip-path:url(#SVGID_00000033370457730911076090000000263417001833598387_);fill:#FFFFFF;" d="M2140.5,1128.3
						v16.9c0,9.9-6.5,16.9-16.8,16.9c-11.3,0-16.8-7.6-16.8-16.9v-16.9h11.2v18.1c0,3.1,0.9,5.6,5.6,5.6c4.7,0,5.6-2.5,5.6-5.6
						v-18.1H2140.5z"/>
					<path style="clip-path:url(#SVGID_00000033370457730911076090000000263417001833598387_);fill:#FFFFFF;" d="M2148,1161.3v-33
						h11.2v4.3c2.3-2.8,6.6-5.3,10.1-5.3v10.8c-0.6-0.1-1.3-0.1-2.3-0.1c-3.2,0-7.9,0.9-7.9,6.7v16.6H2148z"/>
					<path style="clip-path:url(#SVGID_00000033370457730911076090000000263417001833598387_);fill:#FFFFFF;" d="M2172.6,1157.3
						c1.5-2.6,2.9-4.9,4.5-7.5c2.8,2.1,8.1,4,11.6,4c3,0,3.9-0.8,3.9-2c0-1.6-2.2-1.9-5.1-2.3c-5.3-0.8-13.8-2.7-13.8-11.1
						c0-5.8,5.1-11,14.2-11c5.1,0,9.9,1.6,13.6,4c-1.4,2.6-2.6,4.6-4,7.1c-2.2-1.6-5.9-3.1-9.5-3.1c-2.1,0-3.6,0.8-3.6,2.1
						s2.1,1.6,4.8,2.1c5.3,0.8,14,2.9,14,11.4c0,6.4-5.7,11.2-15.1,11.2C2182.2,1162.1,2176.1,1160.3,2172.6,1157.3"/>
					<polygon style="clip-path:url(#SVGID_00000033370457730911076090000000263417001833598387_);fill:#FFFFFF;" points="
						2234.5,1161.3 2222.2,1128.3 2233.9,1128.3 2240.6,1149.1 2247.5,1128.3 2259.3,1128.3 2246.9,1161.3 					"/>
					<path style="clip-path:url(#SVGID_00000033370457730911076090000000263417001833598387_);fill:#FFFFFF;" d="M2260.7,1144.7
						c0-9.2,6.6-17.3,18.1-17.3c11.4,0,18.1,8.1,18.1,17.3c0,9.3-6.7,17.4-18.1,17.4C2267.3,1162.1,2260.7,1154.1,2260.7,1144.7
						 M2285.3,1144.7c0-4.1-2.3-7.2-6.5-7.2c-4.1,0-6.4,3.1-6.4,7.2c0,4.2,2.3,7.3,6.4,7.3C2283,1152.1,2285.3,1148.9,2285.3,1144.7
						"/>
					<path style="clip-path:url(#SVGID_00000033370457730911076090000000263417001833598387_);fill:#FFFFFF;" d="M2336.4,1128.3
						v16.9c0,9.9-6.5,16.9-16.8,16.9c-11.3,0-16.8-7.6-16.8-16.9v-16.9h11.2v18.1c0,3.1,0.9,5.6,5.6,5.6c4.7,0,5.6-2.5,5.6-5.6
						v-18.1H2336.4z"/>
					<path style="clip-path:url(#SVGID_00000033370457730911076090000000263417001833598387_);fill:#FFFFFF;" d="M2342.3,1157.3
						c1.5-2.6,2.9-4.9,4.5-7.5c2.8,2.1,8.2,4,11.6,4c3,0,3.9-0.8,3.9-2c0-1.6-2.2-1.9-5.1-2.3c-5.3-0.8-13.8-2.7-13.8-11.1
						c0-5.8,5.1-11,14.2-11c5.1,0,9.9,1.6,13.6,4c-1.4,2.6-2.6,4.6-4,7.1c-2.2-1.6-5.9-3.1-9.5-3.1c-2.1,0-3.6,0.8-3.6,2.1
						s2.1,1.6,4.8,2.1c5.3,0.8,14,2.9,14,11.4c0,6.4-5.7,11.2-15.1,11.2C2351.8,1162.1,2345.7,1160.3,2342.3,1157.3"/>
					<path style="clip-path:url(#SVGID_00000033370457730911076090000000263417001833598387_);fill:#FFFFFF;" d="M2393.9,1144.7
						c0-9.2,6-17.3,15.3-17.3c2,0,6.3,0.8,9.2,5.2h0.1v-4.3h11.2v33h-11.2v-4.2h-0.1c-2.9,4.5-7.1,5-9.2,5
						C2400.2,1162.1,2393.9,1154.1,2393.9,1144.7 M2418.5,1144.7c0-4.1-2.3-7.2-6.5-7.2c-4.1,0-6.4,3.1-6.4,7.2
						c0,4.2,2.3,7.3,6.4,7.3C2416.1,1152.1,2418.5,1148.9,2418.5,1144.7"/>
					<path style="clip-path:url(#SVGID_00000033370457730911076090000000263417001833598387_);fill:#FFFFFF;" d="M2437.2,1117
						c0-3.1,2.5-5.5,5.7-5.5c3,0,5.5,2.4,5.5,5.5c0,3-2.5,5.5-5.5,5.5C2439.8,1122.5,2437.2,1120,2437.2,1117 M2437.2,1128.3h11.2
						v33h-11.2V1128.3z"/>
					<path style="clip-path:url(#SVGID_00000033370457730911076090000000263417001833598387_);fill:#FFFFFF;" d="M2454.3,1144.7
						c0-9.2,6-17.3,15.3-17.3c2,0,6.3,0.8,9.2,5.2h0.1v-16.9h11.2v45.6h-11.2v-4.2h-0.1c-2.9,4.5-7.1,5-9.2,5
						C2460.6,1162.1,2454.3,1154.1,2454.3,1144.7 M2478.9,1144.7c0-4.1-2.3-7.2-6.5-7.2c-4.1,0-6.4,3.1-6.4,7.2
						c0,4.2,2.3,7.3,6.4,7.3C2476.5,1152.1,2478.9,1148.9,2478.9,1144.7"/>
					<path style="clip-path:url(#SVGID_00000033370457730911076090000000263417001833598387_);fill:#FFFFFF;" d="M2495.9,1144.7
						c0-9.6,7.2-17.3,17.6-17.3c9.3,0,16.6,7,16.6,18.7v2.1h-22.7c0.8,2.7,3.4,5.4,7.8,5.4c1.8,0,5.5-0.8,7.5-2.1l4.5,7
						c-3.2,2.5-8.8,3.7-13.4,3.7C2503.8,1162.1,2495.9,1155.6,2495.9,1144.7 M2513.5,1136c-4.2,0-5.8,3.3-6.2,5.3h12.3
						C2519.1,1138.9,2517.9,1136,2513.5,1136"/>
					<path style="clip-path:url(#SVGID_00000033370457730911076090000000263417001833598387_);fill:#FFFFFF;" d="M2557.8,1161.3
						V1143c0-3.9-2.1-5.4-5.5-5.4c-3.1,0-5.8,2.2-5.8,7.1v16.6h-11.2v-33h11.2v4.3c2.2-2.8,6.3-5.2,12-5.2c7.2,0,10.5,4.5,10.5,10.2
						v23.7H2557.8z"/>
					<path style="clip-path:url(#SVGID_00000033370457730911076090000000263417001833598387_);fill:#FFFFFF;" d="M2590.7,1138.2v8.4
						c0,3.1,0.9,5.6,5.6,5.6v10c-11.3,0-16.8-7.5-16.8-16.8v-7.1h-5.5v-9.9h5.5v-9.4h11.2v9.4h6.6v9.9H2590.7z"/>
					<path style="clip-path:url(#SVGID_00000033370457730911076090000000263417001833598387_);fill:#FFFFFF;" d="M2617.5,1157.3
						c1.5-2.6,2.9-4.9,4.5-7.5c2.8,2.1,8.1,4,11.6,4c3,0,3.9-0.8,3.9-2c0-1.6-2.2-1.9-5.1-2.3c-5.3-0.8-13.8-2.7-13.8-11.1
						c0-5.8,5.1-11,14.2-11c5.1,0,9.9,1.6,13.6,4c-1.4,2.6-2.6,4.6-4,7.1c-2.2-1.6-5.9-3.1-9.5-3.1c-2.1,0-3.6,0.8-3.6,2.1
						s2.1,1.6,4.8,2.1c5.3,0.8,14,2.9,14,11.4c0,6.4-5.7,11.2-15.1,11.2C2627.1,1162.1,2621,1160.3,2617.5,1157.3"/>
					<path style="clip-path:url(#SVGID_00000033370457730911076090000000263417001833598387_);fill:#FFFFFF;" d="M2687.7,1128.3
						v16.9c0,9.9-6.5,16.9-16.8,16.9c-11.3,0-16.8-7.6-16.8-16.9v-16.9h11.2v18.1c0,3.1,0.9,5.6,5.6,5.6c4.7,0,5.6-2.5,5.6-5.6
						v-18.1H2687.7z"/>
					<path style="clip-path:url(#SVGID_00000033370457730911076090000000263417001833598387_);fill:#FFFFFF;" d="M2695.2,1161.3v-33
						h11.2v4.3c2.3-2.8,6.6-5.3,10.1-5.3v10.8c-0.6-0.1-1.3-0.1-2.3-0.1c-3.2,0-7.9,0.9-7.9,6.7v16.6H2695.2z"/>
					<path style="clip-path:url(#SVGID_00000033370457730911076090000000263417001833598387_);fill:#FFFFFF;" d="M1844.9,1229.8
						v-18.4c0-3.9-2.1-5.4-5.5-5.4c-3.1,0-5.8,2.2-5.8,7.1v16.6h-11.2v-33h11.2v4.3c2.2-2.8,6.3-5.2,12-5.2
						c7.2,0,10.5,4.5,10.5,10.2v23.7H1844.9z"/>
					<path style="clip-path:url(#SVGID_00000033370457730911076090000000263417001833598387_);fill:#FFFFFF;" d="M1862,1213.2
						c0-9.6,7.2-17.3,17.6-17.3c9.3,0,16.6,7,16.6,18.7v2.1h-22.7c0.8,2.7,3.4,5.4,7.8,5.4c1.8,0,5.5-0.8,7.5-2.1l4.5,7
						c-3.2,2.5-8.8,3.7-13.4,3.7C1869.8,1230.6,1862,1224.1,1862,1213.2 M1879.6,1204.5c-4.2,0-5.8,3.3-6.2,5.3h12.3
						C1885.2,1207.4,1883.9,1204.5,1879.6,1204.5"/>
					<path style="clip-path:url(#SVGID_00000033370457730911076090000000263417001833598387_);fill:#FFFFFF;" d="M1899.6,1213.2
						c0-9.6,7.2-17.3,17.6-17.3c9.3,0,16.6,7,16.6,18.7v2.1h-22.7c0.8,2.7,3.4,5.4,7.8,5.4c1.8,0,5.5-0.8,7.5-2.1l4.5,7
						c-3.2,2.5-8.8,3.7-13.4,3.7C1907.4,1230.6,1899.6,1224.1,1899.6,1213.2 M1917.2,1204.5c-4.2,0-5.8,3.3-6.2,5.3h12.3
						C1922.8,1207.4,1921.5,1204.5,1917.2,1204.5"/>
					<path style="clip-path:url(#SVGID_00000033370457730911076090000000263417001833598387_);fill:#FFFFFF;" d="M1937.1,1213.2
						c0-9.2,6-17.3,15.3-17.3c2,0,6.3,0.8,9.2,5.2h0.1v-16.9h11.2v45.6h-11.2v-4.2h-0.1c-2.9,4.5-7.1,5-9.2,5
						C1943.4,1230.6,1937.1,1222.5,1937.1,1213.2 M1961.7,1213.2c0-4.1-2.3-7.2-6.5-7.2c-4.1,0-6.4,3.1-6.4,7.2
						c0,4.2,2.3,7.3,6.4,7.3C1959.4,1220.5,1961.7,1217.4,1961.7,1213.2"/>
					<path style="clip-path:url(#SVGID_00000033370457730911076090000000263417001833598387_);fill:#FFFFFF;" d="M2003,1229.8v-18.4
						c0-3.9-2.1-5.4-5.5-5.4c-3.1,0-5.8,2.2-5.8,7.1v16.6h-11.2v-45.6h11.2v16.9c2.2-2.8,6.3-5.2,12-5.2c7.2,0,10.5,4.5,10.5,10.2
						v23.7H2003z"/>
					<path style="clip-path:url(#SVGID_00000033370457730911076090000000263417001833598387_);fill:#FFFFFF;" d="M2020.1,1213.2
						c0-9.6,7.2-17.3,17.6-17.3c9.3,0,16.6,7,16.6,18.7v2.1h-22.7c0.8,2.7,3.4,5.4,7.8,5.4c1.8,0,5.5-0.8,7.5-2.1l4.5,7
						c-3.2,2.5-8.8,3.7-13.4,3.7C2027.9,1230.6,2020.1,1224.1,2020.1,1213.2 M2037.7,1204.5c-4.2,0-5.8,3.3-6.2,5.3h12.3
						C2043.3,1207.4,2042.1,1204.5,2037.7,1204.5"/>
					
						<rect x="2059.4" y="1184.2" style="clip-path:url(#SVGID_00000033370457730911076090000000263417001833598387_);fill:#FFFFFF;" width="11.2" height="45.6"/>
					<path style="clip-path:url(#SVGID_00000033370457730911076090000000263417001833598387_);fill:#FFFFFF;" d="M2089.4,1225.6
						L2089.4,1225.6l-0.1,16.8h-11.2v-45.6h11.2v4.3h0.1c2.9-4.5,7.2-5.2,9.2-5.2c9.3,0,15.3,8.1,15.3,17.3
						c0,9.3-6.3,17.4-15.3,17.4C2096.6,1230.6,2092.3,1230.1,2089.4,1225.6 M2102.3,1213.2c0-4.1-2.3-7.2-6.4-7.2
						c-4.2,0-6.5,3.1-6.5,7.2c0,4.2,2.3,7.3,6.5,7.3C2100,1220.5,2102.3,1217.4,2102.3,1213.2"/>
					<path style="clip-path:url(#SVGID_00000033370457730911076090000000263417001833598387_);fill:#FFFFFF;" d="M2118.9,1223.6
						c0-3.8,3.3-7,7.1-7c3.9,0,7.1,3.2,7.1,7s-3.2,7-7.1,7C2122.2,1230.6,2118.9,1227.5,2118.9,1223.6"/>
					<path style="clip-path:url(#SVGID_00000033370457730911076090000000263417001833598387_);fill:#FFFFFF;" d="M2137.9,1213.2
						c0-10.5,7.9-17.3,18-17.3c7,0,11.3,3.1,13.3,5.8l-7.1,7c-1.2-1.5-3.1-2.6-5.7-2.6c-3.8,0-7.1,2.5-7.1,7.2
						c0,4.7,3.3,7.3,7.1,7.3c2.5,0,4.6-1.3,5.8-2.7c2.5,2.5,4.5,4.7,7,7.1c-2,2.6-6.4,5.7-13.3,5.7
						C2145.7,1230.6,2137.9,1223.8,2137.9,1213.2"/>
					<path style="clip-path:url(#SVGID_00000033370457730911076090000000263417001833598387_);fill:#FFFFFF;" d="M2172.6,1213.2
						c0-9.2,6.6-17.3,18.1-17.3c11.4,0,18.1,8.1,18.1,17.3c0,9.3-6.7,17.4-18.1,17.4C2179.2,1230.6,2172.6,1222.5,2172.6,1213.2
						 M2197.2,1213.2c0-4.1-2.3-7.2-6.5-7.2c-4.1,0-6.4,3.1-6.4,7.2c0,4.2,2.3,7.3,6.4,7.3
						C2194.8,1220.5,2197.2,1217.4,2197.2,1213.2"/>
					<path style="clip-path:url(#SVGID_00000033370457730911076090000000263417001833598387_);fill:#FFFFFF;" d="M2237.1,1229.8
						v-18.4c0-3.9-2.1-5.4-5.5-5.4c-3.1,0-5.8,2.2-5.8,7.1v16.6h-11.2v-33h11.2v4.3c2.2-2.8,6.3-5.2,12-5.2c5.3,0,8.5,2.5,9.8,6
						c2.3-2.9,6-6,12.7-6c7.2,0,10.5,4.5,10.5,10.2v23.7h-11.2v-18.4c0-3.9-2.1-5.4-5.5-5.4c-6.1,0-5.8,7.1-5.8,7.1v16.6H2237.1z"/>
					<path style="clip-path:url(#SVGID_00000033370457730911076090000000263417001833598387_);fill:#FFFFFF;" d="M2281.2,1228.9
						c-0.5,1.8-2.3,2.7-4.1,2.1c-1.7-0.5-2.7-2.4-2.1-4.2l13.7-42.1c0.5-1.8,2.5-2.9,4.2-2.2c1.7,0.6,2.7,2.4,2.1,4.2L2281.2,1228.9
						z"/>
					<path style="clip-path:url(#SVGID_00000033370457730911076090000000263417001833598387_);fill:#FFFFFF;" d="M2297.3,1213.2
						c0-10.5,7.9-17.3,18-17.3c7,0,11.3,3.1,13.3,5.8l-7.1,7c-1.2-1.5-3.1-2.6-5.7-2.6c-3.8,0-7.1,2.5-7.1,7.2
						c0,4.7,3.3,7.3,7.1,7.3c2.5,0,4.6-1.3,5.8-2.7c2.5,2.5,4.5,4.7,7,7.1c-2,2.6-6.4,5.7-13.3,5.7
						C2305.2,1230.6,2297.3,1223.8,2297.3,1213.2"/>
					<path style="clip-path:url(#SVGID_00000033370457730911076090000000263417001833598387_);fill:#FFFFFF;" d="M2332.1,1213.2
						c0-9.2,6-17.3,15.3-17.3c2,0,6.3,0.8,9.2,5.2h0.1v-4.3h11.2v33h-11.2v-4.2h-0.1c-2.9,4.5-7.1,5-9.2,5
						C2338.4,1230.6,2332.1,1222.5,2332.1,1213.2 M2356.6,1213.2c0-4.1-2.3-7.2-6.5-7.2c-4.1,0-6.4,3.1-6.4,7.2
						c0,4.2,2.3,7.3,6.4,7.3C2354.3,1220.5,2356.6,1217.4,2356.6,1213.2"/>
					<path style="clip-path:url(#SVGID_00000033370457730911076090000000263417001833598387_);fill:#FFFFFF;" d="M2373.7,1225.8
						c1.5-2.6,2.9-4.9,4.5-7.5c2.8,2.1,8.2,4,11.6,4c3,0,3.9-0.8,3.9-2c0-1.6-2.2-1.9-5.1-2.3c-5.3-0.8-13.8-2.7-13.8-11.1
						c0-5.8,5.1-11,14.2-11c5.1,0,9.9,1.6,13.6,4c-1.4,2.6-2.6,4.6-4,7.1c-2.2-1.6-5.9-3.1-9.5-3.1c-2.1,0-3.6,0.8-3.6,2.1
						c0,1.3,2.1,1.6,4.8,2.1c5.3,0.8,14,2.9,14,11.4c0,6.4-5.7,11.2-15.1,11.2C2383.3,1230.6,2377.2,1228.8,2373.7,1225.8"/>
					<path style="clip-path:url(#SVGID_00000033370457730911076090000000263417001833598387_);fill:#FFFFFF;" d="M2424.3,1206.6v8.4
						c0,3.1,0.9,5.6,5.6,5.6v10c-11.3,0-16.8-7.5-16.8-16.8v-7.1h-5.5v-9.9h5.5v-9.4h11.2v9.4h6.6v9.9H2424.3z"/>
					<path style="clip-path:url(#SVGID_00000033370457730911076090000000263417001833598387_);fill:#FFFFFF;" d="M2434.2,1213.2
						c0-9.2,6.6-17.3,18.1-17.3c11.4,0,18.1,8.1,18.1,17.3c0,9.3-6.7,17.4-18.1,17.4C2440.9,1230.6,2434.2,1222.5,2434.2,1213.2
						 M2458.8,1213.2c0-4.1-2.3-7.2-6.5-7.2c-4.1,0-6.4,3.1-6.4,7.2c0,4.2,2.3,7.3,6.4,7.3
						C2456.5,1220.5,2458.8,1217.4,2458.8,1213.2"/>
					<path style="clip-path:url(#SVGID_00000033370457730911076090000000263417001833598387_);fill:#FFFFFF;" d="M2476.3,1229.8v-33
						h11.2v4.3c2.3-2.8,6.6-5.3,10.1-5.3v10.8c-0.6-0.1-1.3-0.1-2.3-0.1c-3.2,0-7.9,0.9-7.9,6.7v16.6H2476.3z"/>
					<path style="clip-path:url(#SVGID_00000033370457730911076090000000263417001833598387_);fill:#FFFFFF;" d="M2500.9,1213.2
						c0-9.2,6-17.3,15.3-17.3c2,0,6.3,0.8,9.2,5.2h0.1v-4.3h11.2v33h-11.2v-4.2h-0.1c-2.9,4.5-7.1,5-9.2,5
						C2507.2,1230.6,2500.9,1222.5,2500.9,1213.2 M2525.5,1213.2c0-4.1-2.3-7.2-6.5-7.2c-4.1,0-6.4,3.1-6.4,7.2
						c0,4.2,2.3,7.3,6.4,7.3C2523.2,1220.5,2525.5,1217.4,2525.5,1213.2"/>
					<path style="clip-path:url(#SVGID_00000033370457730911076090000000263417001833598387_);fill:#FFFFFF;" d="M2566.8,1229.8
						v-18.4c0-3.9-2.1-5.4-5.5-5.4c-3.1,0-5.8,2.2-5.8,7.1v16.6h-11.2v-33h11.2v4.3c2.2-2.8,6.3-5.2,12-5.2c5.3,0,8.5,2.5,9.8,6
						c2.3-2.9,6-6,12.7-6c7.2,0,10.5,4.5,10.5,10.2v23.7h-11.2v-18.4c0-3.9-2.1-5.4-5.5-5.4c-6.1,0-5.8,7.1-5.8,7.1v16.6H2566.8z"/>
					<path style="clip-path:url(#SVGID_00000033370457730911076090000000263417001833598387_);fill:#FFFFFF;" d="M2606.4,1213.2
						c0-9.2,6-17.3,15.3-17.3c2,0,6.3,0.8,9.2,5.2h0.1v-4.3h11.2v33H2631v-4.2h-0.1c-2.9,4.5-7.1,5-9.2,5
						C2612.7,1230.6,2606.4,1222.5,2606.4,1213.2 M2631,1213.2c0-4.1-2.3-7.2-6.5-7.2c-4.1,0-6.4,3.1-6.4,7.2c0,4.2,2.3,7.3,6.4,7.3
						C2628.6,1220.5,2631,1217.4,2631,1213.2"/>
					<path style="clip-path:url(#SVGID_00000033370457730911076090000000263417001833598387_);fill:#FFFFFF;" d="M1782.2,693.5
						c0-7.7,6.3-13.7,14.2-13.7c7.5,0,13.9,6,13.9,13.7c0,7.5-6.3,13.7-13.9,13.7C1788.6,707.2,1782.2,701,1782.2,693.5
						 M1782.2,721.7h28.1v82.5h-28.1V721.7z"/>
					<path style="clip-path:url(#SVGID_00000033370457730911076090000000263417001833598387_);fill:#FFFFFF;" d="M1885.4,804.2
						v-45.9c0-9.8-5.3-13.5-13.7-13.5c-7.7,0-14.6,5.5-14.6,17.8v41.6h-28.1v-82.5h28.1v10.8c5.5-7,15.7-13,30-13
						c18,0,26.4,11.3,26.4,25.5v59.2H1885.4z"/>
					<path style="clip-path:url(#SVGID_00000033370457730911076090000000263417001833598387_);fill:#FFFFFF;" d="M1928.1,794.3
						c3.8-6.5,7.4-12.3,11.1-18.8c7,5.1,20.4,9.9,29.1,9.9c7.5,0,9.8-2.1,9.8-5c0-4.1-5.5-4.8-12.7-5.8
						c-13.4-2.1-34.4-6.7-34.4-27.7c0-14.6,12.7-27.4,35.6-27.4c12.8,0,24.8,3.9,33.9,10.1c-3.4,6.5-6.5,11.5-9.9,17.8
						c-5.5-3.9-14.7-7.9-23.8-7.9c-5.3,0-9.1,1.9-9.1,5.1c0,3.3,5.1,4.1,12,5.1c13.2,2.1,34.9,7.2,34.9,28.6
						c0,16.1-14.2,27.9-37.8,27.9C1952,806.3,1936.8,801.7,1928.1,794.3"/>
					<path style="clip-path:url(#SVGID_00000033370457730911076090000000263417001833598387_);fill:#FFFFFF;" d="M2054.6,746.4v20.9
						c0,7.7,2.2,14,14,14v25c-28.2,0-42.1-18.8-42.1-42.1v-17.8h-13.7v-24.7h13.7v-23.5h28.1v23.5h16.6v24.7H2054.6z"/>
					<path style="clip-path:url(#SVGID_00000033370457730911076090000000263417001833598387_);fill:#FFFFFF;" d="M2079.4,762.8
						c0-23.1,15.1-43.3,38.3-43.3c5,0,15.7,1.9,22.9,13h0.2v-10.8h28.1v82.5h-28.1v-10.4h-0.2c-7.2,11.1-17.8,12.5-22.9,12.5
						C2095.2,806.3,2079.4,786.1,2079.4,762.8 M2140.9,762.8c0-10.3-5.8-18-16.3-18c-10.3,0-16.1,7.7-16.1,18
						c0,10.4,5.8,18.3,16.1,18.3C2135,781.1,2140.9,773.3,2140.9,762.8"/>
					
						<rect x="2187.8" y="690.2" style="clip-path:url(#SVGID_00000033370457730911076090000000263417001833598387_);fill:#FFFFFF;" width="28.1" height="114"/>
					
						<rect x="2234.7" y="690.2" style="clip-path:url(#SVGID_00000033370457730911076090000000263417001833598387_);fill:#FFFFFF;" width="28.1" height="114"/>
					<path style="clip-path:url(#SVGID_00000033370457730911076090000000263417001833598387_);fill:#FFFFFF;" d="M2277.3,762.8
						c0-23.1,15.1-43.3,38.3-43.3c5,0,15.8,1.9,22.9,13h0.2v-10.8h28.1v82.5h-28.1v-10.4h-0.2c-7.2,11.1-17.8,12.5-22.9,12.5
						C2293.1,806.3,2277.3,786.1,2277.3,762.8 M2338.8,762.8c0-10.3-5.8-18-16.3-18c-10.3,0-16.1,7.7-16.1,18
						c0,10.4,5.8,18.3,16.1,18.3C2332.9,781.1,2338.8,773.3,2338.8,762.8"/>
					<path style="clip-path:url(#SVGID_00000033370457730911076090000000263417001833598387_);fill:#FFFFFF;" d="M2421.1,746.4v20.9
						c0,7.7,2.2,14,14,14v25c-28.2,0-42.1-18.8-42.1-42.1v-17.8h-13.7v-24.7h13.7v-23.5h28.1v23.5h16.6v24.7H2421.1z"/>
					<path style="clip-path:url(#SVGID_00000033370457730911076090000000263417001833598387_);fill:#FFFFFF;" d="M2450.2,693.5
						c0-7.7,6.3-13.7,14.2-13.7c7.5,0,13.9,6,13.9,13.7c0,7.5-6.3,13.7-13.9,13.7C2456.5,707.2,2450.2,701,2450.2,693.5
						 M2450.2,721.7h28.1v82.5h-28.1V721.7z"/>
					<path style="clip-path:url(#SVGID_00000033370457730911076090000000263417001833598387_);fill:#FFFFFF;" d="M2492.8,762.8
						c0-23.1,16.6-43.3,45.2-43.3c28.6,0,45.4,20.2,45.4,43.3c0,23.3-16.8,43.5-45.4,43.5C2509.4,806.3,2492.8,786.1,2492.8,762.8
						 M2554.3,762.8c0-10.3-5.8-18-16.3-18c-10.3,0-16.1,7.7-16.1,18c0,10.4,5.8,18.3,16.1,18.3
						C2548.5,781.1,2554.3,773.3,2554.3,762.8"/>
					<path style="clip-path:url(#SVGID_00000033370457730911076090000000263417001833598387_);fill:#FFFFFF;" d="M2654.3,804.2
						v-45.9c0-9.8-5.3-13.5-13.7-13.5c-7.7,0-14.6,5.5-14.6,17.8v41.6h-28.1v-82.5h28.1v10.8c5.5-7,15.7-13,30-13
						c18,0,26.4,11.3,26.4,25.5v59.2H2654.3z"/>
					<path style="clip-path:url(#SVGID_00000033370457730911076090000000263417001833598387_);fill:#FFFFFF;" d="M1821.5,897.5
						c0-23.1,15.1-43.3,38.3-43.3c5,0,15.8,1.9,22.9,13h0.2v-10.8h28.1v82.5H1883v-10.4h-0.2c-7.2,11.1-17.8,12.5-22.9,12.5
						C1837.3,941,1821.5,920.8,1821.5,897.5 M1869.3,832.8c1.9,1.9,2.7,4.3,2.7,6.7c0,2.4-0.9,5-2.7,6.8c-2.1,1.9-4.3,2.9-6.8,2.9
						c-2.2,0-5-1.4-6.8-2.9l-10.8-11c-2.1-1.7-2.9-4.1-2.9-6.7c0-2.4,0.9-5,2.9-7c1.7-1.7,4.5-2.7,6.7-2.7c2.6,0,5,1,6.8,2.9
						L1869.3,832.8z M1883,897.5c0-10.3-5.8-18-16.3-18c-10.3,0-16.1,7.7-16.1,18c0,10.4,5.8,18.3,16.1,18.3
						C1877.1,915.8,1883,907.9,1883,897.5"/>
					<path style="clip-path:url(#SVGID_00000033370457730911076090000000263417001833598387_);fill:#FFFFFF;" d="M1965.8,897.5
						c0-23.1,15.1-43.3,38.3-43.3c5,0,15.7,1.9,22.9,13h0.2v-42.3h28.1v114h-28.1v-10.4h-0.2c-7.2,11.1-17.8,12.5-22.9,12.5
						C1981.6,941,1965.8,920.8,1965.8,897.5 M2027.3,897.5c0-10.3-5.8-18-16.3-18c-10.3,0-16.1,7.7-16.1,18
						c0,10.4,5.8,18.3,16.1,18.3C2021.5,915.8,2027.3,907.9,2027.3,897.5"/>
					<path style="clip-path:url(#SVGID_00000033370457730911076090000000263417001833598387_);fill:#FFFFFF;" d="M2069.9,897.5
						c0-23.1,16.6-43.3,45.2-43.3c28.6,0,45.4,20.2,45.4,43.3c0,23.3-16.8,43.5-45.4,43.5C2086.5,941,2069.9,920.8,2069.9,897.5
						 M2131.4,897.5c0-10.3-5.8-18-16.3-18c-10.3,0-16.1,7.7-16.1,18c0,10.4,5.8,18.3,16.1,18.3
						C2125.5,915.8,2131.4,907.9,2131.4,897.5"/>
					<path style="clip-path:url(#SVGID_00000033370457730911076090000000263417001833598387_);fill:#FFFFFF;" d="M2231.3,938.9V893
						c0-9.8-5.3-13.5-13.7-13.5c-7.7,0-14.6,5.5-14.6,17.8v41.6H2175v-82.5h28.1v10.8c5.5-7,15.7-13,30-13
						c13.2,0,21.2,6.2,24.5,15.1c5.7-7.4,14.9-15.1,31.8-15.1c18,0,26.4,11.3,26.4,25.5v59.2h-28.1V893c0-9.8-5.3-13.5-13.7-13.5
						c-15.2,0-14.6,17.8-14.6,17.8v41.6H2231.3z"/>
					<path style="clip-path:url(#SVGID_00000033370457730911076090000000263417001833598387_);fill:#FFFFFF;" d="M2334.6,828.2
						c0-7.7,6.3-13.7,14.2-13.7c7.5,0,13.9,6,13.9,13.7c0,7.5-6.3,13.7-13.9,13.7C2340.9,841.9,2334.6,835.7,2334.6,828.2
						 M2334.6,856.4h28.1v82.5h-28.1V856.4z"/>
					<path style="clip-path:url(#SVGID_00000033370457730911076090000000263417001833598387_);fill:#FFFFFF;" d="M2377.2,897.5
						c0-26.2,19.7-43.3,45-43.3c17.5,0,28.2,7.7,33.2,14.4l-17.6,17.5c-2.9-3.8-7.7-6.5-14.2-6.5c-9.4,0-17.6,6.2-17.6,18
						c0,11.8,8.2,18.3,17.6,18.3c6.3,0,11.5-3.3,14.4-6.7c6.3,6.3,11.3,11.6,17.5,17.6c-5,6.5-15.9,14.2-33.2,14.2
						C2396.9,941,2377.2,923.9,2377.2,897.5"/>
					<path style="clip-path:url(#SVGID_00000033370457730911076090000000263417001833598387_);fill:#FFFFFF;" d="M2468.3,828.2
						c0-7.7,6.3-13.7,14.2-13.7c7.5,0,13.9,6,13.9,13.7c0,7.5-6.3,13.7-13.9,13.7C2474.6,841.9,2468.3,835.7,2468.3,828.2
						 M2468.3,856.4h28.1v82.5h-28.1V856.4z"/>
					
						<rect x="2515.2" y="824.9" style="clip-path:url(#SVGID_00000033370457730911076090000000263417001833598387_);fill:#FFFFFF;" width="28.1" height="114"/>
					<path style="clip-path:url(#SVGID_00000033370457730911076090000000263417001833598387_);fill:#FFFFFF;" d="M2557.8,897.5
						c0-24,18-43.3,44-43.3c23.3,0,41.4,17.5,41.4,46.7v5.1h-56.7c1.9,6.8,8.6,13.5,19.5,13.5c4.4,0,13.9-2.1,18.8-5.3l11.3,17.5
						c-8,6.3-21.9,9.2-33.6,9.2C2577.5,941,2557.8,924.7,2557.8,897.5 M2601.8,875.6c-10.4,0-14.4,8.2-15.4,13.2h30.6
						C2615.8,882.9,2612.8,875.6,2601.8,875.6"/>
					<path style="clip-path:url(#SVGID_00000033370457730911076090000000263417001833598387_);fill:#FFFFFF;" d="M2360.6,573.3V565
						c0-46.7-30.4-86.5-70.3-100.6l-18.7,15.4c-0.3,0.2-0.7,0.4-1,0.4c-0.2,0-0.3,0-0.5-0.1c-0.5-0.2-0.9-0.6-1.1-1.1l-6.1-20.1
						l-0.2,0l-9,35.8v-0.2l0,0.1l0-0.1v0.2l-9-35.8l0,0l-6.1,20.1c-0.2,0.5-0.6,0.9-1.1,1.1c-0.2,0-0.3,0.1-0.5,0.1
						c-0.4,0-0.7-0.1-1-0.4l-18.7-15.4c-16.1,5.7-30.6,15.5-42.2,28.3c0.2,0.8,0.4,1.5,0.8,2.1l0,0c5.5,7.1,8.5,15.6,8.6,24.6
						l0.6,47.3c0.1,6.3-1.3,12.5-3.9,18h168.3c0,0,5,0,8.1-3.1C2361.1,578,2360.6,573.3,2360.6,573.3 M2297.7,522.7H2285
						c-4.2,0-7.6-3.4-7.6-7.6c0-4.2,3.4-7.6,7.6-7.6h12.7c4.2,0,7.6,3.4,7.6,7.6C2305.3,519.3,2301.9,522.7,2297.7,522.7"/>
					<path style="clip-path:url(#SVGID_00000033370457730911076090000000263417001833598387_);fill:#FFFFFF;" d="M2254.7,313.4
						c-34.4,0-62.3,27.9-62.3,62.3c0,34.4,27.9,62.3,62.3,62.3c34.4,0,62.3-27.9,62.3-62.3C2317,341.3,2289.1,313.4,2254.7,313.4
						 M2255.2,423.4c-27.7,0-39-26.9-39-26.9h76C2292.1,396.5,2282.8,423.4,2255.2,423.4"/>
					<path style="clip-path:url(#SVGID_00000033370457730911076090000000263417001833598387_);fill:#FFFFFF;" d="M2143.8,363.2
						l-18.1,0.2c-0.7,0-1.3,0.5-1.4,1.2l-7.6,35c-0.1,0.5,0.1,1,0.4,1.4l7.8,7.4l0.5,41.4c0,1,0.4,2,1.2,2.7
						c0.7,0.7,1.7,1.1,2.7,1.1l13.6-0.2c1,0,2-0.4,2.7-1.2c0.7-0.7,1.1-1.7,1.1-2.7l-0.5-43.2l6.2-6.3l0,0c0.4-0.4,0.5-0.9,0.4-1.4
						l-7.5-34.4C2145.1,363.6,2144.5,363.2,2143.8,363.2"/>
					<path style="clip-path:url(#SVGID_00000033370457730911076090000000263417001833598387_);fill:#FFFFFF;" d="M2168,519.4
						c-0.1-7.1-2.5-13.6-6.6-18.9l0,0c-1.8-2.5-2.9-5.7-2.9-9.3c-0.1-5.9,2.8-11.1,6.9-13.4l0.5-0.2l0,0l0,0c0,0,0,0,0,0
						c0.1-0.1,0.3-0.2,0.4-0.2c0,0,0.1-0.1,0.1-0.1c0.1-0.1,0.2-0.2,0.3-0.4c0,0,0,0,0,0c0.1-0.1,0.2-0.3,0.2-0.4c0,0,0-0.1,0-0.1
						c0-0.2,0.1-0.4,0.1-0.5l-0.2-12.6c0-1.2-1-2.1-2.1-2.1l-59,0.7c-1.2,0-2.1,1-2.1,2.1l0.2,12.6c0,0.2,0,0.4,0.1,0.5
						c0,0,0,0.1,0,0.1c0.1,0.2,0.1,0.3,0.2,0.4c0,0,0,0,0,0c0.1,0.1,0.2,0.3,0.3,0.4c0,0,0.1,0.1,0.1,0.1c0.1,0.1,0.3,0.2,0.4,0.2
						c0,0,0,0,0.1,0l0,0c0,0,0,0,0,0l0.5,0.2c4.2,2.2,7.2,7.3,7.3,13.2c0,3.7-0.8,6.9-2.6,9.5c-3.9,5.3-6.2,11.9-6.1,18.9l0.6,50
						c0.2,17.4,14.6,31.4,32,31.2l0.4,0c17.4-0.2,31.4-14.6,31.2-32L2168,519.4z M2130.3,575.9c-1.2,1.2-2.9,2-4.7,2
						c-3.7,0-6.7-2.9-6.8-6.6l-0.6-52c0-3.7,2.9-6.7,6.6-6.8c3.7,0,6.7,2.9,6.8,6.6l0.6,52C2132.2,573,2131.5,574.6,2130.3,575.9
						 M2153.3,575.6c-1.2,1.2-2.9,2-4.7,2c-3.7,0-6.7-2.9-6.8-6.6l-0.6-52c0-3.7,2.9-6.7,6.6-6.8c3.7,0,6.7,2.9,6.8,6.6l0.6,52
						C2155.2,572.7,2154.5,574.4,2153.3,575.6"/>
					<polygon style="clip-path:url(#SVGID_00000033370457730911076090000000263417001833598387_);fill:#FFFFFF;" points="
						2266.5,459.3 2271.4,475.7 2287.7,462.3 2284.6,453.2 					"/>
					<polygon style="clip-path:url(#SVGID_00000033370457730911076090000000263417001833598387_);fill:#FFFFFF;" points="
						2236.2,475.7 2241.2,459.3 2223,453.2 2219.9,462.3 					"/>
				</g>
			</g>
		</g>
	</g>
</g>
</svg>
