<?xml version="1.0" encoding="utf-8"?>
<!-- Generator: Adobe Illustrator 26.5.0, SVG Export Plug-In . SVG Version: 6.00 Build 0)  -->
<svg version="1.1" id="Calque_1" xmlns="http://www.w3.org/2000/svg" xmlns:xlink="http://www.w3.org/1999/xlink" x="0px" y="0px"
	 viewBox="0 0 2976.4 1488.2" style="enable-background:new 0 0 2976.4 1488.2;" xml:space="preserve">
<style type="text/css">
	.st0{clip-path:url(#SVGID_00000175291953632179507820000000677392856583455901_);}
	.st1{clip-path:url(#SVGID_00000155105563869969427320000018087595671160576398_);}
	.st2{clip-path:url(#SVGID_00000047052913639846145960000004054109093678700981_);fill:#FFD100;}
	.st3{clip-path:url(#SVGID_00000047052913639846145960000004054109093678700981_);}
	.st4{fill:#005CB9;}
	.st5{font-family:'CastoBlack-Black';}
	.st6{font-size:174.4565px;}
	.st7{font-family:'CastoRegular';}
	.st8{font-size:69.7826px;}
	.st9{clip-path:url(#SVGID_00000151523398400420658490000001809268560278514623_);fill:#005CB9;}
	.st10{clip-path:url(#SVGID_00000171702001257086317930000010915678628207070369_);}
	.st11{clip-path:url(#SVGID_00000117654488740708740320000000714652578265560194_);fill:#FFD100;}
	.st12{clip-path:url(#SVGID_00000117654488740708740320000000714652578265560194_);}
	.st13{clip-path:url(#SVGID_00000121275552764126422070000016020113709046566544_);fill:#005CB9;}
	
		.st14{clip-path:url(#SVGID_00000175291953632179507820000000677392856583455901_);fill:none;stroke:#FFFFFF;stroke-width:6;stroke-miterlimit:10;}
</style>
<g>
	<defs>
		<rect id="SVGID_1_" width="2976.4" height="1488.2"/>
	</defs>
	<clipPath id="SVGID_00000180331113943357830710000005293923376521356968_">
		<use xlink:href="#SVGID_1_"  style="overflow:visible;"/>
	</clipPath>
	<g style="clip-path:url(#SVGID_00000180331113943357830710000005293923376521356968_);">
		<defs>
			<rect id="SVGID_00000057105899422059298590000015311596305095769778_" x="-14.2" y="-14.2" width="1502.4" height="1516.5"/>
		</defs>
		<clipPath id="SVGID_00000166638158736734491410000014933472093409930156_">
			<use xlink:href="#SVGID_00000057105899422059298590000015311596305095769778_"  style="overflow:visible;"/>
		</clipPath>
		<g style="clip-path:url(#SVGID_00000166638158736734491410000014933472093409930156_);">
			<g>
				<defs>
					<rect id="SVGID_00000176735525714759949120000000156639591456367760_" x="-14.2" y="-14.2" width="1516.5" height="1516.5"/>
				</defs>
				<clipPath id="SVGID_00000017480944156274385520000013281095623710815908_">
					<use xlink:href="#SVGID_00000176735525714759949120000000156639591456367760_"  style="overflow:visible;"/>
				</clipPath>
				
					<rect x="-14.2" y="-14.2" style="clip-path:url(#SVGID_00000017480944156274385520000013281095623710815908_);fill:#FFD100;" width="1516.5" height="1516.5"/>
				<g style="clip-path:url(#SVGID_00000017480944156274385520000013281095623710815908_);">
					<text transform="matrix(1 0 0 1 410.8011 804.8109)" class="st4 st5 st6">location</text>
				</g>
				<g style="clip-path:url(#SVGID_00000017480944156274385520000013281095623710815908_);">
					<text transform="matrix(1 0 0 1 284.3196 938.619)" class="st4 st5 st6">de véhicule</text>
				</g>
				<g style="clip-path:url(#SVGID_00000017480944156274385520000013281095623710815908_);">
					<text transform="matrix(1 0 0 1 393.4397 1099.8918)" class="st4 st7 st8">Besoin d’un véhicule ?</text>
				</g>
				<g style="clip-path:url(#SVGID_00000017480944156274385520000013281095623710815908_);">
					<text transform="matrix(1 0 0 1 370.0628 1169.6746)" class="st4 st5 st8">Louez un véhicule pour</text>
				</g>
				<g style="clip-path:url(#SVGID_00000017480944156274385520000013281095623710815908_);">
					<text transform="matrix(1 0 0 1 384.7864 1239.4568)" class="st4 st5 st8">8,90€ par demi-heure</text>
				</g>
				<g style="clip-path:url(#SVGID_00000017480944156274385520000013281095623710815908_);">
					<defs>
						<rect id="SVGID_00000181792315197648153810000009313352476795006339_" x="-14.2" y="-14.2" width="1516.5" height="1516.5"/>
					</defs>
					<clipPath id="SVGID_00000096038088186918327140000007650444302749445524_">
						<use xlink:href="#SVGID_00000181792315197648153810000009313352476795006339_"  style="overflow:visible;"/>
					</clipPath>
					<path style="clip-path:url(#SVGID_00000096038088186918327140000007650444302749445524_);fill:#005CB9;" d="M655.5,412.4
						c0.6,4.1,4.5,6.9,8.8,6.2c4.2-0.7,7.1-4.7,6.5-8.8c-4-27,14.1-53.6,42.4-61.9c27.3-8.1,55.2,3.3,66.5,27
						c1.8,3.8,6.4,5.3,10.3,3.5c0.3-0.1,0.5-0.2,0.7-0.4c3.4-2.1,4.7-6.3,3-9.8c-14.4-30.3-50-45-84.6-34.8
						C673.4,343.8,650.3,377.8,655.5,412.4"/>
					<path style="clip-path:url(#SVGID_00000096038088186918327140000007650444302749445524_);fill:#005CB9;" d="M1006.9,491
						l-5.5-3.5c-0.6,0.7-1.3,1.3-2.2,1.7c-2.2,1.1-4.9,1-7.1-0.4c-3.4-2.2-4.3-6.7-2.1-10l0.4-0.7l-5.9-4.3l-0.5,0.8
						c-0.8,1.2-1.8,2-2.9,2.5c-2.2,1.1-4.9,1-7.1-0.4c-3.4-2.2-4.3-6.7-2.1-10l1-1.7l-6.5-4.7l-0.6,0.9c-0.7,1.1-1.7,2-2.9,2.5
						c-2.2,1.1-4.9,1-7.2-0.4c-3.3-2.1-4.3-6.6-2.2-10l1.1-1.7l-47.1-34.6c0.4-3.6-1.2-7.3-4.5-9.5c-2.9-1.9-6.5-2.1-9.5-0.8
						l-0.1-0.1c3-11.4,3.5-23.4,1.3-35.2c-3.9-21.3-15.8-39.7-33.5-52c-24-16.6-55.2-19-81.5-6.2c-8.1,3.9-15.4,9.2-21.8,15.6
						c13.4,4.9,25.1,13.2,33.6,24.6c3.7-0.4,7.6,0.2,11.1,1.8c5.4,2.4,9.5,6.7,11.5,12.2c4,10.5-0.7,22.6-10.8,27.5
						c-0.5,0.3-1.1,0.6-1.7,0.8c-5.5,2.1-11.4,1.9-16.7-0.4c-5.4-2.4-9.5-6.7-11.6-12.2c-1.3-3.3-1.6-6.8-1.3-10.1
						c-6.7-10.8-17.7-18.1-30.2-20.9c-12.3,26.6-8.9,57.6,7.8,81c-4.2,2.3-9.1,4.3-14.8,5.6c-5.4,1.3-10.5,1.7-15.1,1.5
						c-0.6-23.4-11.5-48.3-32.2-67.2c-0.5-0.4-0.9-0.8-1.4-1.2c-6.8,8.8-10.6,19.4-10.4,30.4c1,1.6,1.9,3.2,2.5,5
						c3.2,9.8-1.4,20.5-10.7,25.1c-0.8,0.4-1.7,0.8-2.7,1.1c-10.9,3.5-22.6-2.5-26.1-13.4c-3.1-9.6,1.3-20.3,10.3-24.9
						c1.3-13.9,6.6-27.1,15.1-38.4c-23.9-12.1-50.7-13.7-72.3-3.2c-7.2,3.5-13.6,8.3-18.9,14.1l-82.9,90.7
						c-27.4,30-20.4,81,15.5,113.9c28.2,25.7,66.7,33.5,95.8,19.4c7.2-3.5,13.5-8.3,18.9-14.1l82.9-90.7
						c7.7-8.4,12.6-18.5,15.1-29.4c6.3,0.4,13.2-0.1,20.7-1.9c5.9-1.4,11.1-3.3,15.8-5.6c2.4-1.2,4.7-2.5,6.7-3.8
						c2.4,2.2,5.1,4.3,7.8,6.1c24,16.6,55.2,19.1,81.5,6.3c5.7-2.8,11-6.3,15.9-10.3c0.1,3.3,1.7,6.4,4.6,8.3
						c3.1,2.1,6.9,2.2,10,0.7c0.9-0.4,1.8-1.1,2.5-1.8l34.8,19.6l14.7,9.6l1.7-2.6c2.2-3.3,6.6-4.3,10-2.1c3.4,2.2,4.3,6.6,2.2,10
						l-1.7,2.6l6.8,4.4l1-1.6c2.2-3.3,6.6-4.3,10-2.1c3.4,2.1,4.3,6.6,2.2,10l-1.1,1.6l6.2,4l0.8-1.3c2.2-3.4,6.6-4.3,10-2.1
						c3.4,2.1,4.3,6.6,2.2,10l-0.9,1.4l1.6,1c0.5,0.3,0.9,0.5,1.3,0.7l2.5,1.6c5.3,3.4,11.7,3.6,17,1c2.8-1.4,5.2-3.4,6.9-6.2
						C1017.3,507,1014.9,496.3,1006.9,491"/>
				</g>
			</g>
		</g>
	</g>
	<g style="clip-path:url(#SVGID_00000180331113943357830710000005293923376521356968_);">
		<defs>
			<rect id="SVGID_00000171683498709277669940000006987417597942194864_" x="1488.2" y="-14.2" width="1502.4" height="1516.5"/>
		</defs>
		<clipPath id="SVGID_00000135685397374008041290000008537500006867363495_">
			<use xlink:href="#SVGID_00000171683498709277669940000006987417597942194864_"  style="overflow:visible;"/>
		</clipPath>
		<g style="clip-path:url(#SVGID_00000135685397374008041290000008537500006867363495_);">
			<g>
				<defs>
					<rect id="SVGID_00000001650558441228549070000014674918776668460962_" x="1474" y="-14.2" width="1516.5" height="1516.5"/>
				</defs>
				<clipPath id="SVGID_00000090283432871153522170000005783002162203035037_">
					<use xlink:href="#SVGID_00000001650558441228549070000014674918776668460962_"  style="overflow:visible;"/>
				</clipPath>
				
					<rect x="1474" y="-14.2" style="clip-path:url(#SVGID_00000090283432871153522170000005783002162203035037_);fill:#FFD100;" width="1516.5" height="1516.5"/>
				<g style="clip-path:url(#SVGID_00000090283432871153522170000005783002162203035037_);">
					<text transform="matrix(1 0 0 1 1898.99 804.8109)" class="st4 st5 st6">location</text>
				</g>
				<g style="clip-path:url(#SVGID_00000090283432871153522170000005783002162203035037_);">
					<text transform="matrix(1 0 0 1 1772.5085 938.619)" class="st4 st5 st6">de véhicule</text>
				</g>
				<g style="clip-path:url(#SVGID_00000090283432871153522170000005783002162203035037_);">
					<text transform="matrix(1 0 0 1 1881.6287 1099.8918)" class="st4 st7 st8">Besoin d’un véhicule ?</text>
				</g>
				<g style="clip-path:url(#SVGID_00000090283432871153522170000005783002162203035037_);">
					<text transform="matrix(1 0 0 1 1858.2517 1169.6746)" class="st4 st5 st8">Louez un véhicule pour</text>
				</g>
				<g style="clip-path:url(#SVGID_00000090283432871153522170000005783002162203035037_);">
					<text transform="matrix(1 0 0 1 1872.9753 1239.4568)" class="st4 st5 st8">8,90€ par demi-heure</text>
				</g>
				<g style="clip-path:url(#SVGID_00000090283432871153522170000005783002162203035037_);">
					<defs>
						<rect id="SVGID_00000015321872129161065400000012083266819479836300_" x="1474" y="-14.2" width="1516.5" height="1516.5"/>
					</defs>
					<clipPath id="SVGID_00000111178768205634762910000009613116383536763819_">
						<use xlink:href="#SVGID_00000015321872129161065400000012083266819479836300_"  style="overflow:visible;"/>
					</clipPath>
					<path style="clip-path:url(#SVGID_00000111178768205634762910000009613116383536763819_);fill:#005CB9;" d="M2143.7,412.4
						c0.6,4.1,4.5,6.9,8.8,6.2c4.2-0.7,7.1-4.7,6.5-8.8c-4-27,14.1-53.6,42.4-61.9c27.3-8.1,55.2,3.3,66.5,27
						c1.8,3.8,6.4,5.3,10.3,3.5c0.3-0.1,0.5-0.2,0.7-0.4c3.4-2.1,4.7-6.3,3-9.8c-14.4-30.3-50-45-84.6-34.8
						C2161.6,343.8,2138.5,377.8,2143.7,412.4"/>
					<path style="clip-path:url(#SVGID_00000111178768205634762910000009613116383536763819_);fill:#005CB9;" d="M2495.1,491
						l-5.5-3.5c-0.6,0.7-1.3,1.3-2.2,1.7c-2.2,1.1-4.9,1-7.1-0.4c-3.4-2.2-4.3-6.7-2.1-10l0.4-0.7l-5.9-4.3l-0.5,0.8
						c-0.8,1.2-1.8,2-2.9,2.5c-2.2,1.1-4.9,1-7.1-0.4c-3.4-2.2-4.3-6.7-2.1-10l1-1.7l-6.5-4.7l-0.6,0.9c-0.7,1.1-1.7,2-2.9,2.5
						c-2.2,1.1-4.9,1-7.2-0.4c-3.3-2.1-4.3-6.6-2.2-10l1.1-1.7l-47.1-34.6c0.4-3.6-1.2-7.3-4.5-9.5c-2.9-1.9-6.5-2.1-9.5-0.8
						l-0.1-0.1c3-11.4,3.5-23.4,1.3-35.2c-3.9-21.3-15.8-39.7-33.5-52c-24-16.6-55.2-19-81.5-6.2c-8.1,3.9-15.4,9.2-21.8,15.6
						c13.4,4.9,25.1,13.2,33.6,24.6c3.7-0.4,7.6,0.2,11.1,1.8c5.4,2.4,9.5,6.7,11.5,12.2c4,10.5-0.7,22.6-10.8,27.5
						c-0.5,0.3-1.1,0.6-1.7,0.8c-5.5,2.1-11.4,1.9-16.7-0.4c-5.4-2.4-9.5-6.7-11.6-12.2c-1.3-3.3-1.6-6.8-1.3-10.1
						c-6.7-10.8-17.7-18.1-30.2-20.9c-12.3,26.6-8.9,57.6,7.8,81c-4.2,2.3-9.1,4.3-14.8,5.6c-5.4,1.3-10.5,1.7-15.1,1.5
						c-0.6-23.4-11.5-48.3-32.2-67.2c-0.5-0.4-0.9-0.8-1.4-1.2c-6.8,8.8-10.6,19.4-10.4,30.4c1,1.6,1.9,3.2,2.5,5
						c3.2,9.8-1.4,20.5-10.7,25.1c-0.8,0.4-1.7,0.8-2.7,1.1c-10.9,3.5-22.6-2.5-26.1-13.4c-3.1-9.6,1.3-20.3,10.3-24.9
						c1.3-13.9,6.6-27.1,15.1-38.4c-23.9-12.1-50.7-13.7-72.3-3.2c-7.2,3.5-13.6,8.3-18.9,14.1l-82.9,90.7
						c-27.4,30-20.4,81,15.5,113.9c28.2,25.7,66.7,33.5,95.8,19.4c7.2-3.5,13.5-8.3,18.9-14.1l82.9-90.7
						c7.7-8.4,12.6-18.5,15.1-29.4c6.3,0.4,13.2-0.1,20.7-1.9c5.9-1.4,11.1-3.3,15.8-5.6c2.4-1.2,4.7-2.5,6.7-3.8
						c2.4,2.2,5.1,4.3,7.8,6.1c24,16.6,55.2,19.1,81.5,6.3c5.7-2.8,11-6.3,15.9-10.3c0.1,3.3,1.7,6.4,4.6,8.3
						c3.1,2.1,6.9,2.2,10,0.7c0.9-0.4,1.8-1.1,2.5-1.8l34.8,19.6l14.7,9.6l1.7-2.6c2.2-3.3,6.6-4.3,10-2.1c3.4,2.2,4.3,6.6,2.2,10
						l-1.7,2.6l6.8,4.4l1-1.6c2.2-3.3,6.6-4.3,10-2.1c3.4,2.1,4.3,6.6,2.2,10l-1.1,1.6l6.2,4l0.9-1.3c2.2-3.4,6.6-4.3,10-2.1
						c3.4,2.1,4.3,6.6,2.2,10l-0.9,1.4l1.6,1c0.5,0.3,0.9,0.5,1.3,0.7l2.5,1.6c5.3,3.4,11.7,3.6,17,1c2.8-1.4,5.2-3.4,6.9-6.2
						C2505.4,507,2503.1,496.3,2495.1,491"/>
				</g>
			</g>
		</g>
	</g>
	
		<line style="clip-path:url(#SVGID_00000180331113943357830710000005293923376521356968_);fill:none;stroke:#FFFFFF;stroke-width:6;stroke-miterlimit:10;" x1="1488.2" y1="1502.4" x2="1488.2" y2="-14.2"/>
</g>
</svg>
