<?xml version="1.0" encoding="utf-8"?>
<!-- Generator: Adobe Illustrator 26.5.0, SVG Export Plug-In . SVG Version: 6.00 Build 0)  -->
<svg version="1.1" id="Calque_1" xmlns="http://www.w3.org/2000/svg" xmlns:xlink="http://www.w3.org/1999/xlink" x="0px" y="0px"
	 viewBox="0 0 2976.4 1488.2" style="enable-background:new 0 0 2976.4 1488.2;" xml:space="preserve">
<style type="text/css">
	.st0{clip-path:url(#SVGID_00000171713921525757472190000009715739910998419637_);}
	.st1{clip-path:url(#SVGID_00000090296648235016732240000005190361986541941645_);}
	.st2{clip-path:url(#SVGID_00000008837592945847597200000010972327720414941371_);fill:#FFD100;}
	.st3{clip-path:url(#SVGID_00000008837592945847597200000010972327720414941371_);}
	.st4{fill:#005CB9;}
	.st5{font-family:'CastoBlack-Black';}
	.st6{font-size:174.4565px;}
	.st7{font-family:'CastoRegular';}
	.st8{font-size:69.7826px;}
	.st9{clip-path:url(#SVGID_00000177484372377507608490000009478610969310537114_);fill:#005CB9;}
	.st10{clip-path:url(#SVGID_00000150793887378729164440000008869726134509973176_);}
	.st11{clip-path:url(#SVGID_00000101792395587066569600000005710503329903917497_);fill:#FFD100;}
	.st12{clip-path:url(#SVGID_00000101792395587066569600000005710503329903917497_);}
	.st13{clip-path:url(#SVGID_00000174573400771573819640000007615247372946550715_);fill:#005CB9;}
	
		.st14{clip-path:url(#SVGID_00000171713921525757472190000009715739910998419637_);fill:none;stroke:#FFFFFF;stroke-width:6;stroke-miterlimit:10;}
</style>
<g>
	<defs>
		<rect id="SVGID_1_" width="2976.4" height="1488.2"/>
	</defs>
	<clipPath id="SVGID_00000183221267732073597570000009402094337247864458_">
		<use xlink:href="#SVGID_1_"  style="overflow:visible;"/>
	</clipPath>
	<g style="clip-path:url(#SVGID_00000183221267732073597570000009402094337247864458_);">
		<defs>
			<rect id="SVGID_00000093864109650577946830000011735324664273640074_" x="-14.2" y="-14.2" width="1502.4" height="1516.5"/>
		</defs>
		<clipPath id="SVGID_00000078037936608287823340000013304218858105878439_">
			<use xlink:href="#SVGID_00000093864109650577946830000011735324664273640074_"  style="overflow:visible;"/>
		</clipPath>
		<g style="clip-path:url(#SVGID_00000078037936608287823340000013304218858105878439_);">
			<g>
				<defs>
					<rect id="SVGID_00000075152109558741957620000017913684559832123520_" x="-14.2" y="-14.2" width="1516.5" height="1516.5"/>
				</defs>
				<clipPath id="SVGID_00000008865843648234220550000010234703276328099462_">
					<use xlink:href="#SVGID_00000075152109558741957620000017913684559832123520_"  style="overflow:visible;"/>
				</clipPath>
				
					<rect x="-14" y="-13.9" style="clip-path:url(#SVGID_00000008865843648234220550000010234703276328099462_);fill:#FFD100;" width="1516.4" height="1516.2"/>
				<g style="clip-path:url(#SVGID_00000008865843648234220550000010234703276328099462_);">
					<text transform="matrix(1 0 0 1 391.3186 805.1097)" class="st4 st5 st6">livraison</text>
				</g>
				<g style="clip-path:url(#SVGID_00000008865843648234220550000010234703276328099462_);">
					<text transform="matrix(1 0 0 1 322.0589 938.9178)" class="st4 st5 st6">à domicile</text>
				</g>
				<g style="clip-path:url(#SVGID_00000008865843648234220550000010234703276328099462_);">
					<text transform="matrix(1 0 0 1 354.9934 1100.1877)" class="st4 st7 st8">Pas de temps à perdre ?</text>
				</g>
				<g style="clip-path:url(#SVGID_00000008865843648234220550000010234703276328099462_);">
					<text transform="matrix(1 0 0 1 567.4818 1169.9705)" class="st4 st5 st8">Gagnez-en</text>
				</g>
				<g style="clip-path:url(#SVGID_00000008865843648234220550000010234703276328099462_);">
					<defs>
						<rect id="SVGID_00000134242052963073563950000000802695111834705054_" x="-14.2" y="-14.2" width="1516.5" height="1516.5"/>
					</defs>
					<clipPath id="SVGID_00000022551452772228985380000006228927410054597806_">
						<use xlink:href="#SVGID_00000134242052963073563950000000802695111834705054_"  style="overflow:visible;"/>
					</clipPath>
					<path style="clip-path:url(#SVGID_00000022551452772228985380000006228927410054597806_);fill:#005CB9;" d="M870.2,511.7
						c-23.6,0-44.1,15.7-44.1,43.7c0,27.9,20.7,43.6,44.1,43.6c23.4,0,43.9-15.8,43.9-43.6C914.1,527.4,893.5,511.7,870.2,511.7"/>
					<path style="clip-path:url(#SVGID_00000022551452772228985380000006228927410054597806_);fill:#005CB9;" d="M619.6,511.7
						c-23.6,0-44.1,15.7-44.1,43.7c0,27.9,20.8,43.6,44.1,43.6c23.4,0,44-15.8,44-43.6C663.6,527.4,643.1,511.7,619.6,511.7"/>
					<path style="clip-path:url(#SVGID_00000022551452772228985380000006228927410054597806_);fill:#005CB9;" d="M970.8,514.3h-2.5
						v-25.6v-19.9v-10c0-63.3-51.4-114.7-114.7-114.7c-3.2,0-6.2,0.2-9.4,0.4c-11.4-23.1-35-38.9-62.5-38.9H598.5
						c-38.5,0-69.7,31.2-69.7,69.8v93.5v19.9v25.6h-11.2c-9.2,0-16.5,7.4-16.5,16.5c0,9.1,7.4,16.5,16.5,16.5h35.1l1-6.8
						c6.4-33.3,34.4-51.9,66-51.9c33.4,0,62.9,21,66.7,58.6h117c3.8-37.6,33.4-58.6,67-58.6c31.3,0,59.2,18.4,65.7,51.7l1,7h6.1
						h27.6c9.2,0,16.5-7.4,16.5-16.5C987.4,521.7,980,514.3,970.8,514.3 M881.3,450.7c-11,0-20.1-8.3-21.3-19v-59.2
						c43.2,0,78.2,35,78.2,78.2H881.3z"/>
				</g>
			</g>
		</g>
	</g>
	<g style="clip-path:url(#SVGID_00000183221267732073597570000009402094337247864458_);">
		<defs>
			<rect id="SVGID_00000075158163245197406760000000949148027131502230_" x="1488.2" y="-14.2" width="1502.4" height="1516.5"/>
		</defs>
		<clipPath id="SVGID_00000168799521049595574970000001316930311634377644_">
			<use xlink:href="#SVGID_00000075158163245197406760000000949148027131502230_"  style="overflow:visible;"/>
		</clipPath>
		<g style="clip-path:url(#SVGID_00000168799521049595574970000001316930311634377644_);">
			<g>
				<defs>
					<rect id="SVGID_00000152959197226008042960000013870363220848715659_" x="1474" y="-14.2" width="1516.5" height="1516.5"/>
				</defs>
				<clipPath id="SVGID_00000069383508240595797390000001018139036287821759_">
					<use xlink:href="#SVGID_00000152959197226008042960000013870363220848715659_"  style="overflow:visible;"/>
				</clipPath>
				
					<rect x="1474.2" y="-13.9" style="clip-path:url(#SVGID_00000069383508240595797390000001018139036287821759_);fill:#FFD100;" width="1516.4" height="1516.2"/>
				<g style="clip-path:url(#SVGID_00000069383508240595797390000001018139036287821759_);">
					<text transform="matrix(1 0 0 1 1879.5076 805.1097)" class="st4 st5 st6">livraison</text>
				</g>
				<g style="clip-path:url(#SVGID_00000069383508240595797390000001018139036287821759_);">
					<text transform="matrix(1 0 0 1 1810.2478 938.9178)" class="st4 st5 st6">à domicile</text>
				</g>
				<g style="clip-path:url(#SVGID_00000069383508240595797390000001018139036287821759_);">
					<text transform="matrix(1 0 0 1 1843.1824 1100.1877)" class="st4 st7 st8">Pas de temps à perdre ?</text>
				</g>
				<g style="clip-path:url(#SVGID_00000069383508240595797390000001018139036287821759_);">
					<text transform="matrix(1 0 0 1 2055.6707 1169.9705)" class="st4 st5 st8">Gagnez-en</text>
				</g>
				<g style="clip-path:url(#SVGID_00000069383508240595797390000001018139036287821759_);">
					<defs>
						<rect id="SVGID_00000063620815885108050480000016579563644798318236_" x="1474" y="-14.2" width="1516.5" height="1516.5"/>
					</defs>
					<clipPath id="SVGID_00000023255812211547583990000006890858458304769951_">
						<use xlink:href="#SVGID_00000063620815885108050480000016579563644798318236_"  style="overflow:visible;"/>
					</clipPath>
					<path style="clip-path:url(#SVGID_00000023255812211547583990000006890858458304769951_);fill:#005CB9;" d="M2358.3,511.7
						c-23.6,0-44.1,15.7-44.1,43.7c0,27.9,20.7,43.6,44.1,43.6c23.4,0,43.9-15.8,43.9-43.6C2402.3,527.4,2381.7,511.7,2358.3,511.7"
						/>
					<path style="clip-path:url(#SVGID_00000023255812211547583990000006890858458304769951_);fill:#005CB9;" d="M2107.8,511.7
						c-23.6,0-44.1,15.7-44.1,43.7c0,27.9,20.8,43.6,44.1,43.6c23.4,0,44-15.8,44-43.6C2151.8,527.4,2131.3,511.7,2107.8,511.7"/>
					<path style="clip-path:url(#SVGID_00000023255812211547583990000006890858458304769951_);fill:#005CB9;" d="M2459,514.3h-2.5
						v-25.6v-19.9v-10c0-63.3-51.4-114.7-114.7-114.7c-3.2,0-6.2,0.2-9.4,0.4c-11.4-23.1-35-38.9-62.5-38.9h-183.2
						c-38.5,0-69.7,31.2-69.7,69.8v93.5v19.9v25.6h-11.2c-9.2,0-16.5,7.4-16.5,16.5c0,9.1,7.4,16.5,16.5,16.5h35.1l1-6.8
						c6.4-33.3,34.4-51.9,66-51.9c33.4,0,62.9,21,66.7,58.6h117c3.8-37.6,33.4-58.6,67-58.6c31.3,0,59.2,18.4,65.7,51.7l1,7h6.1
						h27.6c9.2,0,16.5-7.4,16.5-16.5C2475.6,521.7,2468.2,514.3,2459,514.3 M2369.5,450.7c-11,0-20.1-8.3-21.3-19v-59.2
						c43.2,0,78.2,35,78.2,78.2H2369.5z"/>
				</g>
			</g>
		</g>
	</g>
	
		<line style="clip-path:url(#SVGID_00000183221267732073597570000009402094337247864458_);fill:none;stroke:#FFFFFF;stroke-width:6;stroke-miterlimit:10;" x1="1488.2" y1="1502.4" x2="1488.2" y2="-14.2"/>
</g>
</svg>
