<?xml version="1.0" encoding="utf-8"?>
<!-- Generator: Adobe Illustrator 26.5.0, SVG Export Plug-In . SVG Version: 6.00 Build 0)  -->
<svg version="1.1" id="Calque_1" xmlns="http://www.w3.org/2000/svg" xmlns:xlink="http://www.w3.org/1999/xlink" x="0px" y="0px"
	 viewBox="0 0 2976.4 1488.2" style="enable-background:new 0 0 2976.4 1488.2;" xml:space="preserve">
<style type="text/css">
	.st0{display:none;fill:none;stroke:#FFFFFF;stroke-width:6;stroke-miterlimit:10;}
	.st1{clip-path:url(#SVGID_00000033361153002546193530000006631998103234253466_);}
	.st2{clip-path:url(#SVGID_00000062194239133458380020000014215084850678252984_);}
	.st3{clip-path:url(#SVGID_00000129902450889333902780000010279855695813747844_);fill:#FFD100;}
	.st4{clip-path:url(#SVGID_00000126301908421286256220000016406367491843824553_);}
	.st5{enable-background:new    ;}
	.st6{fill:#005CB9;}
	.st7{clip-path:url(#SVGID_00000088847007026458733800000004006792362365567885_);}
	.st8{clip-path:url(#SVGID_00000096738438080833589520000013970601832221219203_);}
	.st9{clip-path:url(#SVGID_00000139980359422566577980000005341801013057901705_);}
	.st10{clip-path:url(#SVGID_00000119101028284067537210000014441921701093647499_);}
	.st11{clip-path:url(#SVGID_00000052815756781178990480000000556255307340208568_);}
	.st12{clip-path:url(#SVGID_00000009562659037675228150000005865381998836251567_);fill:#005CB9;}
	.st13{clip-path:url(#SVGID_00000119097733117403255050000013767093235925846400_);fill:#005CB9;}
	.st14{clip-path:url(#SVGID_00000023262158169334562890000012891879516084839068_);}
	.st15{clip-path:url(#SVGID_00000007402180338490163200000003217781086532584358_);}
	.st16{clip-path:url(#SVGID_00000069389174251873004130000005442327531965476266_);fill:#005CB9;}
	.st17{clip-path:url(#SVGID_00000127034156167624857570000009897104580720556985_);}
	.st18{fill:#FFFFFF;}
	.st19{clip-path:url(#SVGID_00000121264508577108654620000006426850716181002633_);}
	.st20{clip-path:url(#SVGID_00000147203356397542469940000013311366043302263195_);}
	.st21{clip-path:url(#SVGID_00000153691693598280105230000018268936925707948937_);}
	.st22{clip-path:url(#SVGID_00000091732931445126493030000013555345281078226356_);}
	.st23{clip-path:url(#SVGID_00000088849579290524243510000017962360187365751970_);}
	.st24{clip-path:url(#SVGID_00000170255735945716270580000006686819454593306509_);fill:#FFFFFF;}
	.st25{clip-path:url(#SVGID_00000142889942860692859490000005299971386084559023_);fill:#FFFFFF;}
</style>
<line class="st0" x1="1488.2" y1="1502.4" x2="1488.2" y2="-14.2"/>
<g>
	<g>
		<defs>
			<rect id="SVGID_1_" y="0" width="2976.4" height="1488.2"/>
		</defs>
		<clipPath id="SVGID_00000147905149082002011230000015218907256575081648_">
			<use xlink:href="#SVGID_1_"  style="overflow:visible;"/>
		</clipPath>
		<g style="clip-path:url(#SVGID_00000147905149082002011230000015218907256575081648_);">
			<g>
				<defs>
					<rect id="SVGID_00000137820912298655937940000002792584153403005337_" x="-14.2" y="-14.2" width="1502.4" height="1516.5"/>
				</defs>
				<clipPath id="SVGID_00000171717053861622286450000012164303565601058455_">
					<use xlink:href="#SVGID_00000137820912298655937940000002792584153403005337_"  style="overflow:visible;"/>
				</clipPath>
				<g style="clip-path:url(#SVGID_00000171717053861622286450000012164303565601058455_);">
					<g>
						<g>
							<defs>
								
									<rect id="SVGID_00000098215014336107930050000006735429109559067062_" x="-14.2" y="-14.2" width="1516.5" height="1516.5"/>
							</defs>
							<clipPath id="SVGID_00000132773644077927636170000013952493140564485536_">
								<use xlink:href="#SVGID_00000098215014336107930050000006735429109559067062_"  style="overflow:visible;"/>
							</clipPath>
							
								<rect x="-14.2" y="-14.2" style="clip-path:url(#SVGID_00000132773644077927636170000013952493140564485536_);fill:#FFD100;" width="1516.5" height="1516.5"/>
						</g>
						<g>
							<defs>
								
									<rect id="SVGID_00000074408954807009441560000007568988045546252726_" x="-14.2" y="-14.2" width="1516.5" height="1516.5"/>
							</defs>
							<clipPath id="SVGID_00000152978663467000195530000011884506162785861303_">
								<use xlink:href="#SVGID_00000074408954807009441560000007568988045546252726_"  style="overflow:visible;"/>
							</clipPath>
							<g style="clip-path:url(#SVGID_00000152978663467000195530000011884506162785861303_);">
								<g class="st5">
									<path class="st6" d="M420.4,804.8V688.6H449v116.2H420.4z"/>
									<path class="st6" d="M463.8,762.6c0-23.6,16.9-44.1,46.1-44.1s46.2,20.6,46.2,44.1c0,23.7-17.1,44.3-46.2,44.3
										S463.8,786.3,463.8,762.6z M526.5,762.6c0-10.5-5.9-18.3-16.6-18.3c-10.5,0-16.4,7.9-16.4,18.3c0,10.6,5.9,18.7,16.4,18.7
										C520.5,781.3,526.5,773.2,526.5,762.6z"/>
									<path class="st6" d="M566.6,762.6c0-26.7,20.1-44.1,45.9-44.1c17.8,0,28.8,7.9,33.8,14.7l-18,17.8c-3-3.8-7.9-6.6-14.5-6.6
										c-9.6,0-18,6.3-18,18.3s8.4,18.7,18,18.7c6.5,0,11.7-3.3,14.7-6.8c6.5,6.5,11.5,11.9,17.8,18c-5.1,6.6-16.2,14.5-33.8,14.5
										C586.6,806.9,566.6,789.5,566.6,762.6z"/>
									<path class="st6" d="M655,762.6c0-23.6,15.4-44.1,39.1-44.1c5.1,0,16.1,1.9,23.4,13.3h0.2v-11h28.6v84.1h-28.6v-10.6h-0.2
										c-7.3,11.3-18.1,12.7-23.4,12.7C671.1,806.9,655,786.3,655,762.6z M717.7,762.6c0-10.5-5.9-18.3-16.6-18.3
										c-10.5,0-16.4,7.9-16.4,18.3c0,10.6,5.9,18.7,16.4,18.7C711.7,781.3,717.7,773.2,717.7,762.6z"/>
									<path class="st6" d="M801.6,745.8v21.3c0,7.8,2.3,14.3,14.3,14.3v25.5c-28.8,0-42.9-19.2-42.9-42.9v-18.1h-14v-25.1h14
										v-23.9h28.6v23.9h16.9v25.1H801.6z"/>
									<path class="st6" d="M831.2,691.9c0-7.9,6.5-14,14.5-14c7.7,0,14.1,6.1,14.1,14c0,7.7-6.5,14-14.1,14
										C837.7,705.9,831.2,699.6,831.2,691.9z M831.2,804.8v-84.1h28.6v84.1H831.2z"/>
									<path class="st6" d="M874.7,762.6c0-23.6,16.9-44.1,46.1-44.1S967,739,967,762.6c0,23.7-17.1,44.3-46.2,44.3
										S874.7,786.3,874.7,762.6z M937.3,762.6c0-10.5-5.9-18.3-16.6-18.3c-10.5,0-16.4,7.9-16.4,18.3c0,10.6,5.9,18.7,16.4,18.7
										C931.4,781.3,937.3,773.2,937.3,762.6z"/>
									<path class="st6" d="M1039.2,804.8v-46.8c0-9.9-5.4-13.8-14-13.8c-7.9,0-14.8,5.6-14.8,18.1v42.4h-28.6v-84.1h28.6v11
										c5.6-7.2,16-13.3,30.5-13.3c18.3,0,26.9,11.5,26.9,26v60.4H1039.2z"/>
								</g>
							</g>
						</g>
						<g>
							<defs>
								
									<rect id="SVGID_00000167389176631785414540000000866411022182575799_" x="-14.2" y="-14.2" width="1516.5" height="1516.5"/>
							</defs>
							<clipPath id="SVGID_00000057141714324871854420000005218901898111641731_">
								<use xlink:href="#SVGID_00000167389176631785414540000000866411022182575799_"  style="overflow:visible;"/>
							</clipPath>
							<g style="clip-path:url(#SVGID_00000057141714324871854420000005218901898111641731_);">
								<g class="st5">
									<path class="st6" d="M289.6,896.4c0-23.6,15.4-44.1,39.1-44.1c5.1,0,16,1.9,23.4,13.3h0.2v-43.1h28.6v116.2h-28.6V928H352
										c-7.3,11.3-18.1,12.7-23.4,12.7C305.6,940.7,289.6,920.1,289.6,896.4z M352.2,896.4c0-10.5-5.9-18.3-16.6-18.3
										c-10.5,0-16.4,7.9-16.4,18.3c0,10.6,5.9,18.7,16.4,18.7C346.3,915.1,352.2,907,352.2,896.4z"/>
									<path class="st6" d="M395.6,896.4c0-24.4,18.3-44.1,44.8-44.1c23.7,0,42.2,17.8,42.2,47.6v5.2h-57.7
										c1.9,7,8.7,13.8,19.9,13.8c4.5,0,14.1-2.1,19.2-5.4l11.5,17.8c-8.2,6.5-22.3,9.4-34.2,9.4
										C415.7,940.7,395.6,924.1,395.6,896.4z M440.5,874.1c-10.6,0-14.7,8.4-15.7,13.4H456C454.8,881.6,451.6,874.1,440.5,874.1z
										"/>
									<path class="st6" d="M560.5,938.6l-31.2-84.1h29.8l17.1,53l17.4-53h30.2l-31.8,84.1H560.5z"/>
									<path class="st6" d="M625.6,896.4c0-24.4,18.3-44.1,44.8-44.1c23.7,0,42.2,17.8,42.2,47.6v5.2h-57.7
										c1.9,7,8.7,13.8,19.9,13.8c4.5,0,14.1-2.1,19.2-5.4l11.5,17.8c-8.2,6.5-22.3,9.4-34.2,9.4
										C645.6,940.7,625.6,924.1,625.6,896.4z M670.4,874.1c-10.6,0-14.7,8.4-15.7,13.4h31.2C684.7,881.6,681.6,874.1,670.4,874.1
										z M670.7,819.3c2.1-1.9,4.4-3,7.2-3c2.3,0,4.9,1,6.8,2.8c1.9,2.1,2.8,4.5,2.8,7.2c0,2.6-0.9,5.1-2.8,6.8l-11.2,11.2
										c-1.6,1.7-4.4,3-6.8,3c-2.6,0-5.1-1-7-3c-2.1-1.9-3-4.4-3-7c0-2.3,0.9-4.9,3-6.8L670.7,819.3z"/>
									<path class="st6" d="M780.8,938.6v-46.8c0-9.9-5.4-13.8-14-13.8c-7.9,0-14.8,5.6-14.8,18.1v42.4h-28.6V822.4H752v43.1
										c5.6-7.2,16-13.3,30.5-13.3c18.3,0,26.9,11.5,26.9,26v60.4H780.8z"/>
									<path class="st6" d="M828.6,825.7c0-7.9,6.5-14,14.5-14c7.7,0,14.1,6.1,14.1,14c0,7.7-6.5,14-14.1,14
										C835.1,839.7,828.6,833.4,828.6,825.7z M828.6,938.6v-84.1h28.6v84.1H828.6z"/>
									<path class="st6" d="M872.1,896.4c0-26.7,20.1-44.1,45.9-44.1c17.8,0,28.8,7.9,33.8,14.7l-18,17.8c-3-3.8-7.9-6.6-14.5-6.6
										c-9.6,0-18,6.3-18,18.3s8.4,18.7,18,18.7c6.5,0,11.7-3.3,14.7-6.8c6.5,6.5,11.5,11.9,17.8,18c-5.1,6.6-16.2,14.5-33.8,14.5
										C892.1,940.7,872.1,923.3,872.1,896.4z"/>
									<path class="st6" d="M1050.7,854.5v43.1c0,25.3-16.6,43.1-42.9,43.1c-28.8,0-42.9-19.4-42.9-43.1v-43.1h28.6v46.2
										c0,7.9,2.3,14.3,14.3,14.3c11.9,0,14.3-6.5,14.3-14.3v-46.2H1050.7z"/>
									<path class="st6" d="M1069.9,938.6V822.4h28.6v116.2H1069.9z"/>
									<path class="st6" d="M1113.3,896.4c0-24.4,18.3-44.1,44.8-44.1c23.7,0,42.2,17.8,42.2,47.6v5.2h-57.7
										c1.9,7,8.7,13.8,19.9,13.8c4.5,0,14.1-2.1,19.2-5.4l11.5,17.8c-8.2,6.5-22.3,9.4-34.2,9.4
										C1133.4,940.7,1113.3,924.1,1113.3,896.4z M1158.2,874.1c-10.6,0-14.7,8.4-15.7,13.4h31.2
										C1172.5,881.6,1169.3,874.1,1158.2,874.1z"/>
								</g>
							</g>
						</g>
						<g>
							<defs>
								
									<rect id="SVGID_00000101086646250795535650000016715777939700187573_" x="-14.2" y="-14.2" width="1516.5" height="1516.5"/>
							</defs>
							<clipPath id="SVGID_00000031913892156779601770000000800815972945265298_">
								<use xlink:href="#SVGID_00000101086646250795535650000016715777939700187573_"  style="overflow:visible;"/>
							</clipPath>
							<g style="clip-path:url(#SVGID_00000031913892156779601770000000800815972945265298_);">
								<g class="st5">
									<path class="st6" d="M434.4,1087.3c0,7.5-5.1,12.6-13.7,12.6H399v-46.5h19.3c8.3,0,13.3,4.9,13.3,11.9
										c0,5.5-3.6,9.4-7.6,10.5C430.3,1076.2,434.4,1081.8,434.4,1087.3z M405,1073.5h12.4c5.4,0,8.2-3.2,8.2-7.5
										c0-4.2-2.8-7.5-8.2-7.5H405V1073.5z M419.5,1094.7c5.4,0,8.7-3.1,8.7-8c0-4.3-3-8-8.7-8H405v16H419.5z"/>
									<path class="st6" d="M441.6,1083c0-9.8,7.1-17.7,17-17.7c10.4,0,16.5,8,16.5,18.1v1.3h-27.8c0.4,6.3,4.9,11.3,12.3,11.3
										c4,0,7.7-1.5,10.4-4.3l2.9,3.8c-3.5,3.3-8.1,5.2-13.7,5.2C448.9,1100.7,441.6,1093.5,441.6,1083z M469.8,1080.8
										c-0.1-5-3.5-10.8-11.3-10.8c-7.3,0-11,5.7-11.2,10.8H469.8z"/>
									<path class="st6" d="M480.8,1095.4l2.7-3.8c2.3,2.6,6.6,4.8,11.4,4.8c5.2,0,8.2-2.4,8.2-5.8c0-8.2-21.3-3.1-21.3-15.6
										c0-5.3,4.5-9.7,12.8-9.7c5.9,0,10,2.2,12.7,4.9l-2.5,3.6c-2-2.4-5.7-4.3-10.2-4.3c-4.7,0-7.7,2.3-7.7,5.3
										c0,7.3,21.3,2.5,21.3,15.6c0,5.7-4.6,10.2-13.4,10.2C489,1100.7,484.3,1099,480.8,1095.4z"/>
									<path class="st6" d="M514.8,1083c0-9.8,6.6-17.7,17-17.7s17,7.9,17,17.7c0,9.8-6.6,17.7-17,17.7S514.8,1092.8,514.8,1083z
										 M543.2,1083c0-6.8-4-13-11.4-13c-7.3,0-11.4,6.1-11.4,13c0,6.9,4,13,11.4,13C539.1,1096.1,543.2,1089.9,543.2,1083z"/>
									<path class="st6" d="M560.6,1054.3c1.7,0,3.2,1.5,3.2,3.2s-1.5,3.1-3.2,3.1s-3.1-1.4-3.1-3.1S558.8,1054.3,560.6,1054.3z
										 M557.9,1099.9v-33.7h5.3v33.7H557.9z"/>
									<path class="st6" d="M597.7,1099.9v-22c0-6-3.1-7.8-7.8-7.8c-4.2,0-10.2,2.9-10.2,13v16.9h-5.3v-33.7h5.3v4.9
										c2.4-2.9,7.1-5.7,12.4-5.7c7.1,0,10.9,3.6,10.9,10.9v23.7H597.7z"/>
									<path class="st6" d="M663.1,1053.3v46.5h-5.3v-5c-3.1,4.7-8,5.8-10.9,5.8c-10.5,0-17-8-17-17.7c0-9.8,6.6-17.7,17-17.7
										c2.7,0,7.7,1,10.9,5.9v-17.9H663.1z M658.3,1083c0-6.8-4-13-11.4-13c-7.3,0-11.4,6.1-11.4,13c0,6.9,4,13,11.4,13
										C654.3,1096.1,658.3,1089.9,658.3,1083z"/>
									<path class="st6" d="M673,1065.1c1.2-1,2.2-3,2.2-5c0-0.3-0.1-0.5-0.1-0.8c-1.5-0.6-2.2-1.5-2.2-3.2c0-2,1.5-3.5,3.7-3.5
										c2.7,0,4.5,2.1,4.5,5c0,4.5-3.5,8.4-8,8.8V1065.1z"/>
									<path class="st6" d="M690.1,1087v-0.3c0-0.8,0-20.5,0-20.5h5.3v20.7c0,1.3,0.3,9.2,9,9.2c8.9,0,9.1-8,9.1-9.4
										c0-0.5,0-20.5,0-20.5h5.3c0,0,0,19.7,0,20.5v0.3c0,2.1-0.5,13.7-14.4,13.7C690.6,1100.7,690.1,1089.1,690.1,1087z"/>
									<path class="st6" d="M752.7,1099.9v-22c0-6-3.1-7.8-7.8-7.8c-4.2,0-10.2,2.9-10.2,13v16.9h-5.3v-33.7h5.3v4.9
										c2.4-2.9,7.1-5.7,12.4-5.7c7.1,0,10.9,3.6,10.9,10.9v23.7H752.7z"/>
									<path class="st6" d="M796.1,1099.9l-14.3-33.7h5.9l11.4,27.6l11.4-27.6h5.8l-14.3,33.7H796.1z"/>
									<path class="st6" d="M819.9,1083c0-9.8,7.1-17.7,17-17.7c10.4,0,16.5,8,16.5,18.1v1.3h-27.8c0.4,6.3,4.9,11.3,12.3,11.3
										c4,0,7.7-1.5,10.4-4.3l2.9,3.8c-3.5,3.3-8.1,5.2-13.7,5.2C827.2,1100.7,819.9,1093.5,819.9,1083z M848.1,1080.8
										c-0.1-5-3.5-10.8-11.3-10.8c-7.3,0-11,5.7-11.2,10.8H848.1z M837.7,1051.8c0.5-0.5,1-0.7,1.6-0.7c0.6,0,1.2,0.2,1.7,0.7
										c0.5,0.5,0.7,1,0.7,1.6c0,0.6-0.2,1.2-0.7,1.6l-5.6,5.6c-0.4,0.4-1,0.7-1.7,0.7c-0.6,0-1.1-0.2-1.6-0.7
										c-0.4-0.4-0.6-1-0.6-1.6c0-0.6,0.2-1.2,0.6-1.6L837.7,1051.8z"/>
									<path class="st6" d="M885.3,1099.9v-22c0-6-3.1-7.8-7.8-7.8c-4.2,0-10.2,2.9-10.2,13v16.9H862v-46.5h5.3v17.7
										c2.4-2.9,7.1-5.7,12.4-5.7c7.1,0,11,3.6,11,10.9v23.7H885.3z"/>
									<path class="st6" d="M904.3,1054.3c1.7,0,3.2,1.5,3.2,3.2s-1.5,3.1-3.2,3.1s-3.1-1.4-3.1-3.1S902.6,1054.3,904.3,1054.3z
										 M901.7,1099.9v-33.7h5.3v33.7H901.7z"/>
									<path class="st6" d="M916.1,1083c0-10,6.9-17.7,17.2-17.7c6.2,0,9.9,2.5,12.6,5.9l-3.6,3.1c-2.2-3.1-5.2-4.3-8.7-4.3
										c-7.3,0-11.9,5.5-11.9,13c0,7.5,4.7,13,11.9,13c3.6,0,6.5-1.4,8.7-4.4l3.6,3.2c-2.7,3.3-6.3,5.9-12.6,5.9
										C923,1100.7,916.1,1093,916.1,1083z"/>
									<path class="st6" d="M953.4,1087v-0.3c0-0.8,0-20.5,0-20.5h5.3v20.7c0,1.3,0.3,9.2,9,9.2c8.9,0,9.1-8,9.1-9.4
										c0-0.5,0-20.5,0-20.5h5.3c0,0,0,19.7,0,20.5v0.3c0,2.1-0.5,13.7-14.4,13.7C953.9,1100.7,953.4,1089.1,953.4,1087z"/>
									<path class="st6" d="M992.7,1099.9v-46.5h5.3v46.5H992.7z"/>
									<path class="st6" d="M1006.6,1083c0-9.8,7.1-17.7,17-17.7c10.4,0,16.5,8,16.5,18.1v1.3h-27.8c0.4,6.3,4.9,11.3,12.3,11.3
										c4,0,7.7-1.5,10.4-4.3l2.9,3.8c-3.5,3.3-8.1,5.2-13.7,5.2C1013.9,1100.7,1006.6,1093.5,1006.6,1083z M1034.8,1080.8
										c-0.1-5-3.5-10.8-11.3-10.8c-7.3,0-11,5.7-11.2,10.8H1034.8z"/>
									<path class="st6" d="M1078.8,1078v6.6c0,1.5-1.2,2.6-2.6,2.6c-1.5,0-2.6-1.1-2.6-2.6v-11.3c12.1,0,12.8-7.1,12.8-8.7
										c0-0.2,0-0.3,0-0.3c0-3.5-2.7-6.5-8.3-6.5c-5.4,0-8.7,2.2-11.4,5.7l-3.6-3.8c3.4-4.4,8.7-7.1,15.4-7.1
										c7.8,0,14,4.2,14,11.9C1092.6,1069.7,1090,1076.1,1078.8,1078z M1076.3,1093.4c2,0,3.6,1.6,3.6,3.6c0,2-1.6,3.6-3.6,3.6
										s-3.6-1.5-3.6-3.6C1072.7,1095,1074.2,1093.4,1076.3,1093.4z"/>
								</g>
							</g>
						</g>
						<g>
							<defs>
								
									<rect id="SVGID_00000070113636606503877850000006793366286742832553_" x="-14.2" y="-14.2" width="1516.5" height="1516.5"/>
							</defs>
							<clipPath id="SVGID_00000090260330318708018840000003949879851112362145_">
								<use xlink:href="#SVGID_00000070113636606503877850000006793366286742832553_"  style="overflow:visible;"/>
							</clipPath>
							<g style="clip-path:url(#SVGID_00000090260330318708018840000003949879851112362145_);">
								<g class="st5">
									<path class="st6" d="M374.1,1169.7v-46.5h12.8v35h17.5v11.4H374.1z"/>
									<path class="st6" d="M408.4,1152.8c0-9.4,6.8-17.7,18.4-17.7c11.7,0,18.5,8.2,18.5,17.7c0,9.5-6.8,17.7-18.5,17.7
										C415.2,1170.5,408.4,1162.3,408.4,1152.8z M433.5,1152.8c0-4.2-2.4-7.3-6.6-7.3c-4.2,0-6.6,3.1-6.6,7.3
										c0,4.3,2.4,7.5,6.6,7.5C431.1,1160.3,433.5,1157,433.5,1152.8z"/>
									<path class="st6" d="M485.6,1136v17.2c0,10.1-6.6,17.2-17.2,17.2c-11.5,0-17.2-7.7-17.2-17.2V1136h11.4v18.5
										c0,3.1,0.9,5.7,5.7,5.7c4.7,0,5.7-2.6,5.7-5.7V1136H485.6z"/>
									<path class="st6" d="M491.6,1152.8c0-9.8,7.3-17.7,17.9-17.7c9.5,0,16.9,7.1,16.9,19v2.1h-23.1c0.8,2.8,3.5,5.5,8,5.5
										c1.8,0,5.7-0.8,7.7-2.2l4.6,7.1c-3.3,2.6-8.9,3.8-13.7,3.8C499.6,1170.5,491.6,1163.9,491.6,1152.8z M509.5,1143.9
										c-4.3,0-5.9,3.3-6.3,5.4h12.5C515.2,1146.9,514,1143.9,509.5,1143.9z"/>
									<path class="st6" d="M529.9,1169.7v-8.7l12.6-14.9h-12.6v-10h27.9v8.3l-12.8,15.2h13.1v10.1H529.9z"/>
									<path class="st6" d="M615.6,1136v17.2c0,10.1-6.6,17.2-17.2,17.2c-11.5,0-17.2-7.7-17.2-17.2V1136h11.4v18.5
										c0,3.1,0.9,5.7,5.7,5.7c4.7,0,5.7-2.6,5.7-5.7V1136H615.6z"/>
									<path class="st6" d="M646.2,1169.7V1151c0-4-2.2-5.5-5.6-5.5c-3.1,0-5.9,2.2-5.9,7.3v17h-11.4V1136h11.4v4.4
										c2.2-2.9,6.4-5.3,12.2-5.3c7.3,0,10.7,4.6,10.7,10.4v24.1H646.2z"/>
									<path class="st6" d="M691.2,1169.7l-12.5-33.6h11.9l6.8,21.2l7-21.2h12.1l-12.7,33.6H691.2z"/>
									<path class="st6" d="M717.2,1152.8c0-9.8,7.3-17.7,17.9-17.7c9.5,0,16.9,7.1,16.9,19v2.1h-23.1c0.8,2.8,3.5,5.5,8,5.5
										c1.8,0,5.7-0.8,7.7-2.2l4.6,7.1c-3.3,2.6-8.9,3.8-13.7,3.8C725.3,1170.5,717.2,1163.9,717.2,1152.8z M735.2,1143.9
										c-4.3,0-5.9,3.3-6.3,5.4h12.5C740.9,1146.9,739.6,1143.9,735.2,1143.9z M735.3,1121.9c0.8-0.8,1.7-1.2,2.9-1.2
										c0.9,0,2,0.4,2.7,1.1c0.8,0.8,1.1,1.8,1.1,2.9s-0.3,2-1.1,2.7l-4.5,4.5c-0.6,0.7-1.7,1.2-2.7,1.2c-1,0-2-0.4-2.8-1.2
										c-0.8-0.8-1.2-1.7-1.2-2.8c0-0.9,0.3-2,1.2-2.7L735.3,1121.9z"/>
									<path class="st6" d="M779.3,1169.7V1151c0-4-2.2-5.5-5.6-5.5c-3.1,0-5.9,2.2-5.9,7.3v17h-11.4v-46.5h11.4v17.2
										c2.2-2.9,6.4-5.3,12.2-5.3c7.3,0,10.7,4.6,10.7,10.4v24.1H779.3z"/>
									<path class="st6" d="M798.5,1124.5c0-3.1,2.6-5.6,5.8-5.6c3.1,0,5.7,2.4,5.7,5.6c0,3.1-2.6,5.6-5.7,5.6
										C801,1130.1,798.5,1127.6,798.5,1124.5z M798.5,1169.7V1136h11.4v33.6H798.5z"/>
									<path class="st6" d="M815.8,1152.8c0-10.7,8-17.7,18.4-17.7c7.1,0,11.5,3.1,13.5,5.9l-7.2,7.1c-1.2-1.5-3.1-2.7-5.8-2.7
										c-3.8,0-7.2,2.5-7.2,7.3c0,4.8,3.3,7.5,7.2,7.5c2.6,0,4.7-1.3,5.9-2.7c2.6,2.6,4.6,4.7,7.1,7.2c-2,2.7-6.5,5.8-13.5,5.8
										C823.9,1170.5,815.8,1163.5,815.8,1152.8z"/>
									<path class="st6" d="M887.3,1136v17.2c0,10.1-6.6,17.2-17.2,17.2c-11.5,0-17.2-7.7-17.2-17.2V1136h11.4v18.5
										c0,3.1,0.9,5.7,5.7,5.7c4.7,0,5.7-2.6,5.7-5.7V1136H887.3z"/>
									<path class="st6" d="M895,1169.7v-46.5h11.4v46.5H895z"/>
									<path class="st6" d="M912.3,1152.8c0-9.8,7.3-17.7,17.9-17.7c9.5,0,16.9,7.1,16.9,19v2.1h-23.1c0.8,2.8,3.5,5.5,8,5.5
										c1.8,0,5.7-0.8,7.7-2.2l4.6,7.1c-3.3,2.6-8.9,3.8-13.7,3.8C920.4,1170.5,912.3,1163.9,912.3,1152.8z M930.3,1143.9
										c-4.3,0-5.9,3.3-6.3,5.4h12.5C936,1146.9,934.7,1143.9,930.3,1143.9z"/>
									<path class="st6" d="M981.1,1165.4L981.1,1165.4l-0.1,17.1h-11.4V1136h11.4v4.4h0.1c2.9-4.5,7.3-5.3,9.3-5.3
										c9.5,0,15.6,8.2,15.6,17.7c0,9.5-6.4,17.7-15.6,17.7C988.4,1170.5,984.1,1170,981.1,1165.4z M994.3,1152.8
										c0-4.2-2.4-7.3-6.6-7.3c-4.3,0-6.6,3.1-6.6,7.3c0,4.3,2.4,7.5,6.6,7.5C991.9,1160.3,994.3,1157,994.3,1152.8z"/>
									<path class="st6" d="M1010.3,1152.8c0-9.4,6.8-17.7,18.4-17.7c11.7,0,18.5,8.2,18.5,17.7c0,9.5-6.8,17.7-18.5,17.7
										C1017.1,1170.5,1010.3,1162.3,1010.3,1152.8z M1035.4,1152.8c0-4.2-2.4-7.3-6.6-7.3c-4.2,0-6.6,3.1-6.6,7.3
										c0,4.3,2.4,7.5,6.6,7.5C1033,1160.3,1035.4,1157,1035.4,1152.8z"/>
									<path class="st6" d="M1087.5,1136v17.2c0,10.1-6.6,17.2-17.2,17.2c-11.5,0-17.2-7.7-17.2-17.2V1136h11.4v18.5
										c0,3.1,0.9,5.7,5.7,5.7c4.7,0,5.7-2.6,5.7-5.7V1136H1087.5z"/>
									<path class="st6" d="M1095.2,1169.7V1136h11.4v4.4c2.3-2.9,6.8-5.4,10.3-5.4v11c-0.6-0.1-1.3-0.1-2.3-0.1
										c-3.3,0-8,0.9-8,6.8v17H1095.2z"/>
								</g>
							</g>
						</g>
						<g>
							<defs>
								
									<rect id="SVGID_00000165203979234557419360000007151855544068126129_" x="-14.2" y="-14.2" width="1516.5" height="1516.5"/>
							</defs>
							<clipPath id="SVGID_00000021087288697769617090000012907163241123409852_">
								<use xlink:href="#SVGID_00000165203979234557419360000007151855544068126129_"  style="overflow:visible;"/>
							</clipPath>
							<g style="clip-path:url(#SVGID_00000021087288697769617090000012907163241123409852_);">
								<g class="st5">
									<path class="st6" d="M425.9,1227.2c0,9.4-9.4,13.1-19.5,13.1c-10.1,0-19.5-3.7-19.5-13.1c0-5.2,3.2-9.4,9.1-11.9
										c-4.7-1.8-6.9-5.9-6.9-10.4c0-7.2,8.1-13,17.3-13s17.3,5.9,17.3,13c0,4.5-2.3,8.6-6.9,10.4
										C422.7,1217.8,425.9,1221.9,425.9,1227.2z M413.4,1225.9c0-2.6-3.1-4.7-7-4.7c-3.9,0-7,2.1-7,4.7s3.1,4.7,7,4.7
										C410.3,1230.6,413.4,1228.5,413.4,1225.9z M400.9,1206.1c0,2.3,2,4.1,5.5,4.1c3.4,0,5.5-1.8,5.5-4.1s-2.1-4.1-5.5-4.1
										C402.9,1202,400.9,1203.8,400.9,1206.1z"/>
									<path class="st6" d="M430.8,1247.8c2.2-1.7,3.7-5.4,3.7-8.8c0-0.4,0-0.9-0.1-1.4c-2.9-0.9-4-2.8-4-5.7
										c0-3.6,2.9-6.1,6.6-6.1c4.6,0,7.8,3.8,7.8,8.9c0,8-6.1,14.9-14,15.6V1247.8z"/>
									<path class="st6" d="M448.6,1208.4c0-10,8-16.7,18.7-16.7c14.9,0,21.7,10.5,21.7,24.2c0,15.7-9.8,24.3-23.9,24.3
										c-5,0-10.1-1.5-13.9-3.8l5.4-10.2c2.7,1.9,5.1,2.3,8.4,2.3c4.3,0,9.4-2.4,10.5-8.2c-3.4,2.6-7.9,3.5-11.2,3.5
										C456.3,1223.8,448.6,1218.3,448.6,1208.4z M461.8,1208c0,2.5,3.1,4.6,7.1,4.6c3.9,0,7-2.1,7-4.6c0-2.5-3.1-4.6-7-4.6
										C464.9,1203.4,461.8,1205.5,461.8,1208z"/>
									<path class="st6" d="M491.1,1216c0-12.8,6.6-24.2,20.1-24.2s20.1,11.4,20.1,24.2s-6.6,24.3-20.1,24.3
										S491.1,1228.8,491.1,1216z M518.3,1216c0-8.5-2.1-12.5-7-12.5c-4.9,0-7,4-7,12.5c0,8.5,2.2,12.6,7,12.6
										C516.2,1228.6,518.3,1224.5,518.3,1216z"/>
									<path class="st6" d="M535,1208.1h1.5c3.3-10,12.6-16.4,23.9-16.4c11.9,0,17.7,6.7,20.5,13.1l-11.1,5.4
										c-1.5-3.8-5.2-6.8-9.4-6.8c-3.6,0-6.9,1.8-9.5,4.7h10.3c1.6,0,2.9,1.3,2.9,2.9c0,1.6-1.3,2.8-2.9,2.8h-12.6
										c-0.1,1.2-0.1,1.7-0.1,2.2c0,0.6,0,1.2,0.1,2h12.6c1.6,0,2.9,1.3,2.9,2.9c0,1.6-1.3,2.9-2.9,2.9h-10.5
										c2.7,3,6.1,4.9,9.6,4.9c4.3,0,8-3,9.4-6.8c3.9,1.8,7.2,3.5,11.1,5.2c-2.8,6.2-8.7,13.2-20.5,13.2
										c-11.3,0-20.7-6.4-23.9-16.5H535c-1.6,0-2.9-1.3-2.9-2.9c0-1.6,1.3-2.9,2.9-2.9h0.3v-2c0-0.5,0-1,0.1-2.2H535
										c-1.6,0-2.8-1.2-2.8-2.8C532.2,1209.4,533.4,1208.1,535,1208.1z"/>
									<path class="st6" d="M613.5,1235.2L613.5,1235.2l-0.1,17.1H602v-46.5h11.4v4.4h0.1c2.9-4.5,7.3-5.3,9.4-5.3
										c9.5,0,15.6,8.2,15.6,17.7c0,9.5-6.4,17.7-15.6,17.7C620.8,1240.3,616.5,1239.7,613.5,1235.2z M626.6,1222.6
										c0-4.2-2.4-7.3-6.6-7.3c-4.3,0-6.6,3.1-6.6,7.3c0,4.3,2.4,7.5,6.6,7.5C624.3,1230,626.6,1226.8,626.6,1222.6z"/>
									<path class="st6" d="M642.7,1222.6c0-9.4,6.1-17.7,15.6-17.7c2,0,6.4,0.8,9.4,5.3h0.1v-4.4h11.4v33.6h-11.4v-4.3h-0.1
										c-2.9,4.5-7.3,5.1-9.4,5.1C649.1,1240.3,642.7,1232.1,642.7,1222.6z M667.7,1222.6c0-4.2-2.4-7.3-6.6-7.3
										c-4.2,0-6.6,3.1-6.6,7.3c0,4.3,2.4,7.5,6.6,7.5C665.4,1230,667.7,1226.8,667.7,1222.6z"/>
									<path class="st6" d="M686.9,1239.5v-33.6h11.4v4.4c2.3-2.9,6.8-5.4,10.3-5.4v11c-0.6-0.1-1.3-0.1-2.3-0.1
										c-3.3,0-8,0.9-8,6.8v17H686.9z"/>
									<path class="st6" d="M729.2,1222.6c0-9.4,6.1-17.7,15.6-17.7c2,0,6.4,0.8,9.4,5.3h0.1V1193h11.4v46.5h-11.4v-4.3h-0.1
										c-2.9,4.5-7.3,5.1-9.4,5.1C735.6,1240.3,729.2,1232.1,729.2,1222.6z M754.3,1222.6c0-4.2-2.4-7.3-6.6-7.3
										c-4.2,0-6.6,3.1-6.6,7.3c0,4.3,2.4,7.5,6.6,7.5C751.9,1230,754.3,1226.8,754.3,1222.6z"/>
									<path class="st6" d="M771.7,1222.6c0-9.8,7.3-17.7,17.9-17.7c9.5,0,16.9,7.1,16.9,19v2.1h-23.1c0.8,2.8,3.5,5.5,8,5.5
										c1.8,0,5.7-0.8,7.7-2.2l4.6,7.1c-3.3,2.6-8.9,3.8-13.7,3.8C779.7,1240.3,771.7,1233.7,771.7,1222.6z M789.6,1213.6
										c-4.3,0-5.9,3.3-6.3,5.4h12.5C795.3,1216.6,794.1,1213.6,789.6,1213.6z"/>
									<path class="st6" d="M834.7,1239.5v-18.7c0-4-2.2-5.5-5.6-5.5c-3.1,0-5.9,2.2-5.9,7.3v17h-11.4v-33.6h11.4v4.4
										c2.2-2.9,6.4-5.3,12.2-5.3c5.4,0,8.7,2.5,10,6.1c2.3-3,6.1-6.1,13-6.1c7.3,0,10.7,4.6,10.7,10.4v24.1h-11.4v-18.7
										c0-4-2.2-5.5-5.6-5.5c-6.2,0-5.9,7.3-5.9,7.3v17H834.7z"/>
									<path class="st6" d="M876.7,1194.3c0-3.1,2.6-5.6,5.8-5.6c3.1,0,5.7,2.4,5.7,5.6c0,3.1-2.6,5.6-5.7,5.6
										C879.3,1199.9,876.7,1197.4,876.7,1194.3z M876.7,1239.5v-33.6h11.4v33.6H876.7z"/>
									<path class="st6" d="M898.2,1217.8h11.7c2.7,0,4.8,2.2,4.8,4.8c0,2.7-2.2,4.8-4.8,4.8h-11.7c-2.7,0-4.8-2.2-4.8-4.8
										C893.4,1219.9,895.6,1217.8,898.2,1217.8z"/>
									<path class="st6" d="M942.7,1239.5v-18.7c0-4-2.2-5.5-5.6-5.5c-3.1,0-5.9,2.2-5.9,7.3v17h-11.4V1193h11.4v17.2
										c2.2-2.9,6.4-5.3,12.2-5.3c7.3,0,10.7,4.6,10.7,10.4v24.1H942.7z"/>
									<path class="st6" d="M960.1,1222.6c0-9.8,7.3-17.7,17.9-17.7c9.5,0,16.9,7.1,16.9,19v2.1h-23.1c0.8,2.8,3.5,5.5,8,5.5
										c1.8,0,5.7-0.8,7.7-2.2l4.6,7.1c-3.3,2.6-8.9,3.8-13.7,3.8C968.1,1240.3,960.1,1233.7,960.1,1222.6z M978,1213.6
										c-4.3,0-5.9,3.3-6.3,5.4h12.5C983.7,1216.6,982.5,1213.6,978,1213.6z"/>
									<path class="st6" d="M1034.5,1205.8v17.2c0,10.1-6.6,17.2-17.2,17.2c-11.5,0-17.2-7.7-17.2-17.2v-17.2h11.4v18.5
										c0,3.1,0.9,5.7,5.7,5.7c4.7,0,5.7-2.6,5.7-5.7v-18.5H1034.5z"/>
									<path class="st6" d="M1042.1,1239.5v-33.6h11.4v4.4c2.3-2.9,6.8-5.4,10.3-5.4v11c-0.6-0.1-1.3-0.1-2.3-0.1
										c-3.3,0-8,0.9-8,6.8v17H1042.1z"/>
									<path class="st6" d="M1067.2,1222.6c0-9.8,7.3-17.7,17.9-17.7c9.5,0,16.9,7.1,16.9,19v2.1H1079c0.8,2.8,3.5,5.5,8,5.5
										c1.8,0,5.7-0.8,7.7-2.2l4.6,7.1c-3.3,2.6-8.9,3.8-13.7,3.8C1075.3,1240.3,1067.2,1233.7,1067.2,1222.6z M1085.2,1213.6
										c-4.3,0-5.9,3.3-6.3,5.4h12.5C1090.9,1216.6,1089.6,1213.6,1085.2,1213.6z"/>
								</g>
							</g>
						</g>
						<g>
							<defs>
								
									<rect id="SVGID_00000114051816435930604690000016840481794982002569_" x="-14.2" y="-14.2" width="1516.5" height="1516.5"/>
							</defs>
							<clipPath id="SVGID_00000060719232106092552600000001636366602675354296_">
								<use xlink:href="#SVGID_00000114051816435930604690000016840481794982002569_"  style="overflow:visible;"/>
							</clipPath>
							<g style="clip-path:url(#SVGID_00000060719232106092552600000001636366602675354296_);">
								<g>
									<defs>
										
											<rect id="SVGID_00000080172393816275170710000002751190315467676083_" x="-14.2" y="-14.2" width="1516.5" height="1516.5"/>
									</defs>
									<clipPath id="SVGID_00000063616442246393770810000006110092578548059824_">
										<use xlink:href="#SVGID_00000080172393816275170710000002751190315467676083_"  style="overflow:visible;"/>
									</clipPath>
									<path style="clip-path:url(#SVGID_00000063616442246393770810000006110092578548059824_);fill:#005CB9;" d="M655.5,412.4
										c0.6,4.1,4.5,6.9,8.8,6.2c4.2-0.7,7.1-4.7,6.5-8.8c-4-27,14.1-53.6,42.4-61.9c27.3-8.1,55.2,3.3,66.5,27
										c1.8,3.8,6.4,5.3,10.3,3.5c0.3-0.1,0.5-0.2,0.7-0.4c3.4-2.1,4.7-6.3,3-9.8c-14.4-30.3-50-45-84.6-34.8
										C673.4,343.8,650.3,377.8,655.5,412.4"/>
								</g>
								<g>
									<defs>
										
											<rect id="SVGID_00000111193249934661199470000011041298273661092006_" x="-14.2" y="-14.2" width="1516.5" height="1516.5"/>
									</defs>
									<clipPath id="SVGID_00000037655144019432297780000017624727043098815644_">
										<use xlink:href="#SVGID_00000111193249934661199470000011041298273661092006_"  style="overflow:visible;"/>
									</clipPath>
									<path style="clip-path:url(#SVGID_00000037655144019432297780000017624727043098815644_);fill:#005CB9;" d="M1006.9,491
										l-5.5-3.5c-0.6,0.7-1.3,1.3-2.2,1.7c-2.2,1.1-4.9,1-7.1-0.4c-3.4-2.2-4.3-6.7-2.1-10l0.4-0.7l-5.9-4.3l-0.5,0.8
										c-0.8,1.2-1.8,2-2.9,2.5c-2.2,1.1-4.9,1-7.1-0.4c-3.4-2.2-4.3-6.7-2.1-10l1-1.7l-6.5-4.7l-0.6,0.9c-0.7,1.1-1.7,2-2.9,2.5
										c-2.2,1.1-4.9,1-7.2-0.4c-3.3-2.1-4.3-6.6-2.2-10l1.1-1.7L907.5,417c0.4-3.6-1.2-7.3-4.5-9.5c-2.9-1.9-6.5-2.1-9.5-0.8
										l-0.1-0.1c3-11.4,3.5-23.4,1.3-35.2c-3.9-21.3-15.8-39.7-33.5-52c-24-16.6-55.2-19-81.5-6.2c-8.1,3.9-15.4,9.2-21.8,15.6
										c13.4,4.9,25.1,13.2,33.6,24.6c3.7-0.4,7.6,0.2,11.1,1.8c5.4,2.4,9.5,6.7,11.5,12.2c4,10.5-0.7,22.6-10.8,27.5
										c-0.5,0.3-1.1,0.6-1.7,0.8c-5.5,2.1-11.4,1.9-16.7-0.4c-5.4-2.4-9.5-6.7-11.6-12.2c-1.3-3.3-1.6-6.8-1.3-10.1
										c-6.7-10.8-17.7-18.1-30.2-20.9c-12.3,26.6-8.9,57.6,7.8,81c-4.2,2.3-9.1,4.3-14.8,5.6c-5.4,1.3-10.5,1.7-15.1,1.5
										c-0.6-23.4-11.5-48.3-32.2-67.2c-0.5-0.4-0.9-0.8-1.4-1.2c-6.8,8.8-10.6,19.4-10.4,30.4c1,1.6,1.9,3.2,2.5,5
										c3.2,9.8-1.4,20.5-10.7,25.1c-0.8,0.4-1.7,0.8-2.7,1.1c-10.9,3.5-22.6-2.5-26.1-13.4c-3.1-9.6,1.3-20.3,10.3-24.9
										c1.3-13.9,6.6-27.1,15.1-38.4c-23.9-12.1-50.7-13.7-72.3-3.2c-7.2,3.5-13.6,8.3-18.9,14.1L490,458.3
										c-27.4,30-20.4,81,15.5,113.9c28.2,25.7,66.7,33.5,95.8,19.4c7.2-3.5,13.5-8.3,18.9-14.1l82.9-90.7
										c7.7-8.4,12.6-18.5,15.1-29.4c6.3,0.4,13.2-0.1,20.7-1.9c5.9-1.4,11.1-3.3,15.8-5.6c2.4-1.2,4.7-2.5,6.7-3.8
										c2.4,2.2,5.1,4.3,7.8,6.1c24,16.6,55.2,19.1,81.5,6.3c5.7-2.8,11-6.3,15.9-10.3c0.1,3.3,1.7,6.4,4.6,8.3
										c3.1,2.1,6.9,2.2,10,0.7c0.9-0.4,1.8-1.1,2.5-1.8l34.8,19.6l14.7,9.6l1.7-2.6c2.2-3.3,6.6-4.3,10-2.1
										c3.4,2.2,4.3,6.6,2.2,10l-1.7,2.6l6.8,4.4l1-1.6c2.2-3.3,6.6-4.3,10-2.1c3.4,2.1,4.3,6.6,2.2,10l-1.1,1.6l6.2,4l0.8-1.3
										c2.2-3.4,6.6-4.3,10-2.1c3.4,2.1,4.3,6.6,2.2,10l-0.9,1.4l1.6,1c0.5,0.3,0.9,0.5,1.3,0.7l2.5,1.6c5.3,3.4,11.7,3.6,17,1
										c2.8-1.4,5.2-3.4,6.9-6.2C1017.3,507,1014.9,496.3,1006.9,491"/>
								</g>
							</g>
						</g>
					</g>
				</g>
			</g>
		</g>
	</g>
	<g>
		<defs>
			<rect id="SVGID_00000141433047500661703120000003885209018155158451_" y="0" width="2976.4" height="1488.2"/>
		</defs>
		<clipPath id="SVGID_00000154393875238949029710000004969710346728831419_">
			<use xlink:href="#SVGID_00000141433047500661703120000003885209018155158451_"  style="overflow:visible;"/>
		</clipPath>
		<g style="clip-path:url(#SVGID_00000154393875238949029710000004969710346728831419_);">
			<g>
				<defs>
					<rect id="SVGID_00000098907468896639160530000011958289909668947842_" x="1488.2" y="-14.2" width="1502.4" height="1516.5"/>
				</defs>
				<clipPath id="SVGID_00000065772287441220633030000006264776829861650318_">
					<use xlink:href="#SVGID_00000098907468896639160530000011958289909668947842_"  style="overflow:visible;"/>
				</clipPath>
				<g style="clip-path:url(#SVGID_00000065772287441220633030000006264776829861650318_);">
					<g>
						<g>
							<defs>
								<rect id="SVGID_00000069381264867720213940000016127179458562459061_" x="1474" y="-14.2" width="1516.5" height="1516.5"/>
							</defs>
							<clipPath id="SVGID_00000137096521206638024890000013300101153286569344_">
								<use xlink:href="#SVGID_00000069381264867720213940000016127179458562459061_"  style="overflow:visible;"/>
							</clipPath>
							
								<rect x="1474" y="-14.2" style="clip-path:url(#SVGID_00000137096521206638024890000013300101153286569344_);fill:#005CB9;" width="1516.5" height="1516.5"/>
						</g>
						<g>
							<defs>
								<rect id="SVGID_00000133513612639494000000000005169040438241287330_" x="1474" y="-14.2" width="1516.5" height="1516.5"/>
							</defs>
							<clipPath id="SVGID_00000054266044217142379490000003108704098241877154_">
								<use xlink:href="#SVGID_00000133513612639494000000000005169040438241287330_"  style="overflow:visible;"/>
							</clipPath>
							<g style="clip-path:url(#SVGID_00000054266044217142379490000003108704098241877154_);">
								<g class="st5">
									<path class="st18" d="M1845.6,762.6c0-23.6,15.4-44.1,39.1-44.1c5.1,0,16,1.9,23.4,13.3h0.2v-11h28.6v84.1h-28.6v-10.6
										h-0.2c-7.3,11.3-18.1,12.7-23.4,12.7C1861.7,806.9,1845.6,786.3,1845.6,762.6z M1908.2,762.6c0-10.5-5.9-18.3-16.6-18.3
										c-10.5,0-16.4,7.9-16.4,18.3c0,10.6,5.9,18.7,16.4,18.7C1902.3,781.3,1908.2,773.2,1908.2,762.6z"/>
									<path class="st18" d="M1977.7,804.8l-31.2-84.1h29.8l17.1,53l17.4-53h30.2l-31.8,84.1H1977.7z"/>
									<path class="st18" d="M2044.5,762.6c0-23.6,15.4-44.1,39.1-44.1c5.1,0,16,1.9,23.4,13.3h0.2v-11h28.6v84.1h-28.6v-10.6
										h-0.2c-7.3,11.3-18.1,12.7-23.4,12.7C2060.5,806.9,2044.5,786.3,2044.5,762.6z M2107.1,762.6c0-10.5-5.9-18.3-16.6-18.3
										c-10.5,0-16.4,7.9-16.4,18.3c0,10.6,5.9,18.7,16.4,18.7C2101.2,781.3,2107.1,773.2,2107.1,762.6z"/>
									<path class="st18" d="M2212.3,804.8v-46.8c0-9.9-5.4-13.8-14-13.8c-7.9,0-14.8,5.6-14.8,18.1v42.4h-28.6v-84.1h28.6v11
										c5.6-7.2,16-13.3,30.5-13.3c18.3,0,26.9,11.5,26.9,26v60.4H2212.3z"/>
									<path class="st18" d="M2296.2,745.8v21.3c0,7.8,2.3,14.3,14.3,14.3v25.5c-28.8,0-42.9-19.2-42.9-42.9v-18.1h-14v-25.1h14
										v-23.9h28.6v23.9h16.9v25.1H2296.2z"/>
									<path class="st18" d="M2321.5,762.6c0-23.6,15.4-44.1,39.1-44.1c5.1,0,16,1.9,23.4,13.3h0.2v-11h28.6v84.1h-28.6v-10.6
										h-0.2c-7.3,11.3-18.1,12.7-23.4,12.7C2337.6,806.9,2321.5,786.3,2321.5,762.6z M2384.1,762.6c0-10.5-5.9-18.3-16.6-18.3
										c-10.5,0-16.4,7.9-16.4,18.3c0,10.6,5.9,18.7,16.4,18.7C2378.2,781.3,2384.1,773.2,2384.1,762.6z"/>
									<path class="st18" d="M2427.6,762.6c0-23.6,15.4-44.1,39.1-44.1c5.1,0,16,1.9,23.4,13.3h0.2v-11h28.6V797
										c0,36.3-29.1,43.1-49.4,43.1c-13.8,0-26.3-3.7-36.6-11.7l11.5-20.4c6.8,5.8,16.4,8.5,25.1,8.5c7.7,0,20.8-3.1,20.8-18.3v-4
										h-0.2c-7.3,11.3-18.1,11.9-23.4,11.9C2443.6,806,2427.6,786.3,2427.6,762.6z M2490.2,762.6c0-10.5-5.9-18.3-16.6-18.3
										c-10.5,0-16.4,7.9-16.4,18.3c0,10.6,5.9,18.7,16.4,18.7C2484.3,781.3,2490.2,773.2,2490.2,762.6z"/>
									<path class="st18" d="M2533.6,762.6c0-24.4,18.3-44.1,44.8-44.1c23.7,0,42.2,17.8,42.2,47.6v5.2H2563
										c1.9,7,8.7,13.8,19.9,13.8c4.5,0,14.1-2.1,19.2-5.4l11.5,17.8c-8.2,6.5-22.3,9.4-34.2,9.4
										C2553.7,806.9,2533.6,790.3,2533.6,762.6z M2578.5,740.3c-10.6,0-14.7,8.4-15.7,13.4h31.2
										C2592.8,747.8,2589.6,740.3,2578.5,740.3z"/>
								</g>
							</g>
						</g>
						<g>
							<defs>
								<rect id="SVGID_00000121270936723699748460000010294777019900590268_" x="1474" y="-14.2" width="1516.5" height="1516.5"/>
							</defs>
							<clipPath id="SVGID_00000147904615797343528190000003003166689545544849_">
								<use xlink:href="#SVGID_00000121270936723699748460000010294777019900590268_"  style="overflow:visible;"/>
							</clipPath>
							<g style="clip-path:url(#SVGID_00000147904615797343528190000003003166689545544849_);">
								<g class="st5">
									<path class="st18" d="M2025.8,896.4c0-26.7,20.1-44.1,45.9-44.1c17.8,0,28.8,7.9,33.8,14.7l-18,17.8
										c-3-3.8-7.9-6.6-14.5-6.6c-9.6,0-18,6.3-18,18.3s8.4,18.7,18,18.7c6.5,0,11.7-3.3,14.7-6.8c6.5,6.5,11.5,11.9,17.8,18
										c-5.1,6.6-16.2,14.5-33.8,14.5C2045.9,940.7,2025.8,923.3,2025.8,896.4z"/>
									<path class="st18" d="M2114.3,896.4c0-23.6,15.4-44.1,39.1-44.1c5.1,0,16,1.9,23.4,13.3h0.2v-11h28.6v84.1h-28.6V928h-0.2
										c-7.3,11.3-18.1,12.7-23.4,12.7C2130.3,940.7,2114.3,920.1,2114.3,896.4z M2176.9,896.4c0-10.5-5.9-18.3-16.6-18.3
										c-10.5,0-16.4,7.9-16.4,18.3c0,10.6,5.9,18.7,16.4,18.7C2171,915.1,2176.9,907,2176.9,896.4z"/>
									<path class="st18" d="M2224.7,938.6v-84.1h28.6v11c5.8-7.2,16.9-13.6,25.8-13.6v27.6c-1.6-0.3-3.3-0.3-5.8-0.3
										c-8.2,0-20.1,2.3-20.1,17.1v42.4H2224.7z"/>
									<path class="st18" d="M2328,879.7v21.3c0,7.8,2.3,14.3,14.3,14.3v25.5c-28.8,0-42.9-19.2-42.9-42.9v-18.1h-14v-25.1h14
										v-23.9h28.6v23.9h16.9v25.1H2328z"/>
									<path class="st18" d="M2353.3,896.4c0-24.4,18.3-44.1,44.8-44.1c23.7,0,42.2,17.8,42.2,47.6v5.2h-57.7
										c1.9,7,8.7,13.8,19.9,13.8c4.5,0,14.1-2.1,19.2-5.4l11.5,17.8c-8.2,6.5-22.3,9.4-34.2,9.4
										C2373.3,940.7,2353.3,924.1,2353.3,896.4z M2398.1,874.1c-10.6,0-14.7,8.4-15.7,13.4h31.2
										C2412.4,881.6,2409.3,874.1,2398.1,874.1z"/>
								</g>
							</g>
						</g>
						<g>
							<defs>
								<rect id="SVGID_00000005949814156319097280000002160118461680146848_" x="1474" y="-14.2" width="1516.5" height="1516.5"/>
							</defs>
							<clipPath id="SVGID_00000181076506684113343750000000150845558798065037_">
								<use xlink:href="#SVGID_00000005949814156319097280000002160118461680146848_"  style="overflow:visible;"/>
							</clipPath>
							<g style="clip-path:url(#SVGID_00000181076506684113343750000000150845558798065037_);">
								<g class="st5">
									<path class="st18" d="M1963.8,1076.7c0-14.3,10.8-24.1,24.6-24.1c8.4,0,14.3,3.9,18.1,9.2l-4.9,2.7
										c-2.7-4-7.8-6.8-13.2-6.8c-10.5,0-18.4,7.7-18.4,18.9c0,11,7.9,18.9,18.4,18.9c5.4,0,10.5-2.9,13.2-6.8l5,2.7
										c-4,5.4-9.8,9.3-18.2,9.3C1974.6,1100.7,1963.8,1091,1963.8,1076.7z"/>
									<path class="st18" d="M2045.4,1066.2v33.7h-5.3v-5c-3.2,4.7-8,5.8-11,5.8c-10.5,0-17.1-8-17.1-17.7
										c0-9.8,6.6-17.7,17.1-17.7c2.7,0,7.7,1,11,5.9v-5H2045.4z M2040.5,1083c0-6.8-4.1-13-11.5-13s-11.5,6.1-11.5,13
										c0,6.9,4.1,13,11.5,13S2040.5,1089.9,2040.5,1083z"/>
									<path class="st18" d="M2073.9,1071.1c-0.7-0.1-1.4-0.1-2.2-0.1c-4.2,0-10.3,2-10.3,12v16.9h-5.3v-33.7h5.3v4.9
										c2.5-2.9,7.2-5.7,12.4-5.7V1071.1z"/>
									<path class="st18" d="M2087.8,1086.9c0,1.5,0.2,9.1,8.9,9.1v4.7c-13.9,0-14.3-11.7-14.3-13.7v-16.2h-6v-4.6h6
										c0-5.1,0-9.2,0-9.2h5.3c0,0,0,4.1,0,9.2h8.9v4.6h-8.9V1086.9z"/>
									<path class="st18" d="M2102.1,1083c0-9.8,7.2-17.7,17.1-17.7c10.5,0,16.7,8,16.7,18.1v1.3h-28c0.4,6.3,4.9,11.3,12.4,11.3
										c4,0,7.7-1.5,10.5-4.3l2.9,3.8c-3.5,3.3-8.2,5.2-13.8,5.2C2109.5,1100.7,2102.1,1093.5,2102.1,1083z M2130.5,1080.8
										c-0.1-5-3.5-10.8-11.4-10.8c-7.4,0-11,5.7-11.3,10.8H2130.5z"/>
									<path class="st18" d="M2161,1083c0-10,7-17.7,17.3-17.7c6.3,0,10,2.5,12.7,5.9l-3.6,3.1c-2.2-3.1-5.2-4.3-8.8-4.3
										c-7.3,0-12,5.5-12,13c0,7.5,4.7,13,12,13c3.6,0,6.5-1.4,8.8-4.4l3.6,3.2c-2.7,3.3-6.4,5.9-12.7,5.9
										C2168,1100.7,2161,1093,2161,1083z"/>
									<path class="st18" d="M2229.9,1066.2v33.7h-5.3v-5c-3.2,4.7-8,5.8-11,5.8c-10.5,0-17.1-8-17.1-17.7
										c0-9.8,6.6-17.7,17.1-17.7c2.7,0,7.7,1,11,5.9v-5H2229.9z M2225.1,1083c0-6.8-4.1-13-11.5-13s-11.5,6.1-11.5,13
										c0,6.9,4.1,13,11.5,13S2225.1,1089.9,2225.1,1083z"/>
									<path class="st18" d="M2237.7,1095.4l2.7-3.8c2.3,2.6,6.7,4.8,11.5,4.8c5.3,0,8.2-2.4,8.2-5.8c0-8.2-21.4-3.1-21.4-15.6
										c0-5.3,4.6-9.7,12.9-9.7c5.9,0,10,2.2,12.8,4.9l-2.5,3.6c-2-2.4-5.8-4.3-10.3-4.3c-4.8,0-7.7,2.3-7.7,5.3
										c0,7.3,21.4,2.5,21.4,15.6c0,5.7-4.6,10.2-13.5,10.2C2246,1100.7,2241.3,1099,2237.7,1095.4z"/>
									<path class="st18" d="M2281.4,1086.9c0,1.5,0.2,9.1,8.9,9.1v4.7c-13.9,0-14.3-11.7-14.3-13.7v-16.2h-6v-4.6h6
										c0-5.1,0-9.2,0-9.2h5.3c0,0,0,4.1,0,9.2h8.9v4.6h-8.9V1086.9z"/>
									<path class="st18" d="M2295.6,1083c0-9.8,6.6-17.7,17.1-17.7s17.1,7.9,17.1,17.7c0,9.8-6.6,17.7-17.1,17.7
										S2295.6,1092.8,2295.6,1083z M2324.3,1083c0-6.8-4.1-13-11.5-13s-11.5,6.1-11.5,13c0,6.9,4.1,13,11.5,13
										S2324.3,1089.9,2324.3,1083z"/>
									<path class="st18" d="M2356.4,1071.1c-0.7-0.1-1.4-0.1-2.2-0.1c-4.2,0-10.3,2-10.3,12v16.9h-5.3v-33.7h5.3v4.9
										c2.5-2.9,7.2-5.7,12.4-5.7V1071.1z"/>
									<path class="st18" d="M2394.3,1066.2v33.7h-5.3v-5c-3.2,4.7-8,5.8-11,5.8c-10.5,0-17.1-8-17.1-17.7
										c0-9.8,6.6-17.7,17.1-17.7c2.7,0,7.7,1,11,5.9v-5H2394.3z M2389.5,1083c0-6.8-4.1-13-11.5-13s-11.5,6.1-11.5,13
										c0,6.9,4.1,13,11.5,13S2389.5,1089.9,2389.5,1083z"/>
									<path class="st18" d="M2457,1076.2v23.7h-5.3v-22c0-5.4-2.6-7.5-6.6-7.7c-7.4,0-11.5,4.7-11.5,9.8v20h-5.3v-22
										c0-6-3.2-7.8-7.8-7.8c-4.2,0-10.3,2.9-10.3,13v16.9h-5.3v-33.7h5.3v4.9c2.5-2.9,7.2-5.7,12.4-5.7c5.3,0,8.8,2,10.2,6.1
										c2.7-3.5,6.7-6.1,13.1-6.1C2453.2,1065.4,2457,1068.9,2457,1076.2z"/>
									<path class="st18" d="M2499.1,1066.2v33.7h-5.3v-5c-3.2,4.7-8,5.8-11,5.8c-10.5,0-17.1-8-17.1-17.7
										c0-9.8,6.6-17.7,17.1-17.7c2.7,0,7.7,1,11,5.9v-5H2499.1z M2494.3,1083c0-6.8-4.1-13-11.5-13s-11.5,6.1-11.5,13
										c0,6.9,4.1,13,11.5,13S2494.3,1089.9,2494.3,1083z"/>
								</g>
							</g>
						</g>
						<g>
							<defs>
								<rect id="SVGID_00000155857659676207583930000008953456880716514205_" x="1474" y="-14.2" width="1516.5" height="1516.5"/>
							</defs>
							<clipPath id="SVGID_00000045588084378632003460000015574734848841507980_">
								<use xlink:href="#SVGID_00000155857659676207583930000008953456880716514205_"  style="overflow:visible;"/>
							</clipPath>
							<g style="clip-path:url(#SVGID_00000045588084378632003460000015574734848841507980_);">
								<g class="st5">
									<path class="st18" d="M1964.7,1157.3c0,6.3-4.1,12.4-13,12.4h-28.5v-46.5h25.6c9.1,0,13.1,7,13.1,12.3
										c0,5-3.3,8.9-6.8,10.3C1961.3,1146.6,1964.7,1151.9,1964.7,1157.3z M1936.1,1140.8h9.4c1.8,0,3.3-1.4,3.3-3.5
										c0-2-1.5-3.3-3.3-3.3h-9.4V1140.8z M1951.6,1155.2c0-2-1.5-3.6-3.8-3.6h-11.7v7.2h11.7
										C1950.2,1158.8,1951.6,1157.4,1951.6,1155.2z"/>
									<path class="st18" d="M1970,1124.5c0-3.1,2.6-5.6,5.8-5.6c3.1,0,5.7,2.4,5.7,5.6c0,3.1-2.6,5.6-5.7,5.6
										C1972.6,1130.1,1970,1127.6,1970,1124.5z M1970,1169.7V1136h11.4v33.6H1970z"/>
									<path class="st18" d="M1987.3,1152.8c0-9.8,7.3-17.7,17.9-17.7c9.5,0,16.9,7.1,16.9,19v2.1h-23.1c0.8,2.8,3.5,5.5,8,5.5
										c1.8,0,5.7-0.8,7.7-2.2l4.6,7.1c-3.3,2.6-8.9,3.8-13.7,3.8C1995.4,1170.5,1987.3,1163.9,1987.3,1152.8z M2005.3,1143.9
										c-4.3,0-5.9,3.3-6.3,5.4h12.5C2011,1146.9,2009.7,1143.9,2005.3,1143.9z"/>
									<path class="st18" d="M2050.4,1169.7V1151c0-4-2.2-5.5-5.6-5.5c-3.1,0-5.9,2.2-5.9,7.3v17h-11.4V1136h11.4v4.4
										c2.2-2.9,6.4-5.3,12.2-5.3c7.3,0,10.7,4.6,10.7,10.4v24.1H2050.4z"/>
									<path class="st18" d="M2085,1152.8c0-9.4,6.1-17.7,15.6-17.7c2,0,6.4,0.8,9.4,5.3h0.1v-4.4h11.4v33.6H2110v-4.3h-0.1
										c-2.9,4.5-7.3,5.1-9.4,5.1C2091.4,1170.5,2085,1162.3,2085,1152.8z M2110,1152.8c0-4.2-2.4-7.3-6.6-7.3
										c-4.2,0-6.6,3.1-6.6,7.3c0,4.3,2.4,7.5,6.6,7.5C2107.7,1160.3,2110,1157,2110,1152.8z"/>
									<path class="st18" d="M2127.4,1152.8c0-10.7,8-17.7,18.4-17.7c7.1,0,11.5,3.1,13.5,5.9l-7.2,7.1c-1.2-1.5-3.1-2.7-5.8-2.7
										c-3.8,0-7.2,2.5-7.2,7.3c0,4.8,3.3,7.5,7.2,7.5c2.6,0,4.7-1.3,5.9-2.7c2.6,2.6,4.6,4.7,7.1,7.2c-2,2.7-6.5,5.8-13.5,5.8
										C2135.4,1170.5,2127.4,1163.5,2127.4,1152.8z"/>
									<path class="st18" d="M2162.8,1152.8c0-10.7,8-17.7,18.4-17.7c7.1,0,11.5,3.1,13.5,5.9l-7.2,7.1c-1.2-1.5-3.1-2.7-5.8-2.7
										c-3.8,0-7.2,2.5-7.2,7.3c0,4.8,3.3,7.5,7.2,7.5c2.6,0,4.7-1.3,5.9-2.7c2.6,2.6,4.6,4.7,7.1,7.2c-2,2.7-6.5,5.8-13.5,5.8
										C2170.8,1170.5,2162.8,1163.5,2162.8,1152.8z"/>
									<path class="st18" d="M2198.2,1152.8c0-9.4,6.8-17.7,18.4-17.7c11.7,0,18.5,8.2,18.5,17.7c0,9.5-6.8,17.7-18.5,17.7
										C2204.9,1170.5,2198.2,1162.3,2198.2,1152.8z M2223.2,1152.8c0-4.2-2.4-7.3-6.6-7.3c-4.2,0-6.6,3.1-6.6,7.3
										c0,4.3,2.4,7.5,6.6,7.5C2220.8,1160.3,2223.2,1157,2223.2,1152.8z"/>
									<path class="st18" d="M2264,1169.7V1151c0-4-2.2-5.5-5.6-5.5c-3.1,0-5.9,2.2-5.9,7.3v17H2241V1136h11.4v4.4
										c2.2-2.9,6.4-5.3,12.2-5.3c5.4,0,8.7,2.5,10,6.1c2.3-3,6.1-6.1,13-6.1c7.3,0,10.7,4.6,10.7,10.4v24.1h-11.4V1151
										c0-4-2.2-5.5-5.6-5.5c-6.2,0-5.9,7.3-5.9,7.3v17H2264z"/>
									<path class="st18" d="M2317.6,1165.4L2317.6,1165.4l-0.1,17.1H2306V1136h11.4v4.4h0.1c2.9-4.5,7.3-5.3,9.3-5.3
										c9.5,0,15.6,8.2,15.6,17.7c0,9.5-6.4,17.7-15.6,17.7C2324.8,1170.5,2320.5,1170,2317.6,1165.4z M2330.7,1152.8
										c0-4.2-2.4-7.3-6.6-7.3c-4.3,0-6.6,3.1-6.6,7.3c0,4.3,2.4,7.5,6.6,7.5C2328.3,1160.3,2330.7,1157,2330.7,1152.8z"/>
									<path class="st18" d="M2346.7,1152.8c0-9.4,6.1-17.7,15.6-17.7c2,0,6.4,0.8,9.4,5.3h0.1v-4.4h11.4v33.6h-11.4v-4.3h-0.1
										c-2.9,4.5-7.3,5.1-9.4,5.1C2353.1,1170.5,2346.7,1162.3,2346.7,1152.8z M2371.8,1152.8c0-4.2-2.4-7.3-6.6-7.3
										c-4.2,0-6.6,3.1-6.6,7.3c0,4.3,2.4,7.5,6.6,7.5C2369.4,1160.3,2371.8,1157,2371.8,1152.8z"/>
									<path class="st18" d="M2389.2,1152.8c0-9.4,6.1-17.7,15.6-17.7c2,0,6.4,0.8,9.4,5.3h0.1v-4.4h11.4v30.5
										c0,14.5-11.7,17.2-19.7,17.2c-5.5,0-10.5-1.5-14.7-4.7l4.6-8.2c2.7,2.3,6.6,3.4,10,3.4c3.1,0,8.3-1.3,8.3-7.3v-1.6h-0.1
										c-2.9,4.5-7.3,4.7-9.4,4.7C2395.6,1170.2,2389.2,1162.3,2389.2,1152.8z M2414.2,1152.8c0-4.2-2.4-7.3-6.6-7.3
										c-4.2,0-6.6,3.1-6.6,7.3c0,4.3,2.4,7.5,6.6,7.5C2411.8,1160.3,2414.2,1157,2414.2,1152.8z"/>
									<path class="st18" d="M2456.3,1169.7V1151c0-4-2.2-5.5-5.6-5.5c-3.1,0-5.9,2.2-5.9,7.3v17h-11.4V1136h11.4v4.4
										c2.2-2.9,6.4-5.3,12.2-5.3c7.3,0,10.7,4.6,10.7,10.4v24.1H2456.3z"/>
									<path class="st18" d="M2473,1152.8c0-9.8,7.3-17.7,17.9-17.7c9.5,0,16.9,7.1,16.9,19v2.1h-23.1c0.8,2.8,3.5,5.5,8,5.5
										c1.8,0,5.7-0.8,7.7-2.2l4.6,7.1c-3.3,2.6-8.9,3.8-13.7,3.8C2481,1170.5,2473,1163.9,2473,1152.8z M2490.9,1143.9
										c-4.3,0-5.9,3.3-6.3,5.4h12.5C2496.6,1146.9,2495.4,1143.9,2490.9,1143.9z M2491,1121.9c0.8-0.8,1.7-1.2,2.9-1.2
										c0.9,0,2,0.4,2.7,1.1c0.8,0.8,1.1,1.8,1.1,2.9s-0.3,2-1.1,2.7l-4.5,4.5c-0.6,0.7-1.7,1.2-2.7,1.2c-1,0-2-0.4-2.8-1.2
										c-0.8-0.8-1.2-1.7-1.2-2.8c0-0.9,0.3-2,1.2-2.7L2491,1121.9z"/>
									<path class="st18" d="M2511.6,1178c2.2-1.7,3.7-5.4,3.7-8.8c0-0.4,0-0.9-0.1-1.4c-2.9-0.9-4-2.8-4-5.7
										c0-3.6,2.9-6.1,6.6-6.1c4.6,0,7.8,3.8,7.8,8.9c0,8-6.1,14.9-14,15.6V1178z"/>
								</g>
							</g>
						</g>
						<g>
							<defs>
								<rect id="SVGID_00000014631726609185305130000007358309571855734943_" x="1474" y="-14.2" width="1516.5" height="1516.5"/>
							</defs>
							<clipPath id="SVGID_00000154395343889509369860000011734410142720796334_">
								<use xlink:href="#SVGID_00000014631726609185305130000007358309571855734943_"  style="overflow:visible;"/>
							</clipPath>
							<g style="clip-path:url(#SVGID_00000154395343889509369860000011734410142720796334_);">
								<g class="st5">
									<path class="st18" d="M1893.1,1222.6c0-9.8,7.3-17.7,17.9-17.7c9.5,0,16.9,7.1,16.9,19v2.1h-23.1c0.8,2.8,3.5,5.5,8,5.5
										c1.8,0,5.7-0.8,7.7-2.2l4.6,7.1c-3.3,2.6-8.9,3.8-13.7,3.8C1901.2,1240.3,1893.1,1233.7,1893.1,1222.6z M1911.1,1213.6
										c-4.3,0-5.9,3.3-6.3,5.4h12.5C1916.8,1216.6,1915.5,1213.6,1911.1,1213.6z"/>
									<path class="st18" d="M1956.2,1239.5v-18.7c0-4-2.2-5.5-5.6-5.5c-3.1,0-5.9,2.2-5.9,7.3v17h-11.4v-33.6h11.4v4.4
										c2.2-2.9,6.4-5.3,12.2-5.3c7.3,0,10.7,4.6,10.7,10.4v24.1H1956.2z"/>
									<path class="st18" d="M1990.8,1222.6c0-9.4,6.1-17.7,15.6-17.7c2,0,6.4,0.8,9.4,5.3h0.1v-4.4h11.4v33.6h-11.4v-4.3h-0.1
										c-2.9,4.5-7.3,5.1-9.4,5.1C1997.2,1240.3,1990.8,1232.1,1990.8,1222.6z M2015.8,1222.6c0-4.2-2.4-7.3-6.6-7.3
										c-4.2,0-6.6,3.1-6.6,7.3c0,4.3,2.4,7.5,6.6,7.5C2013.4,1230,2015.8,1226.8,2015.8,1222.6z"/>
									<path class="st18" d="M2043.6,1239.5l-12.5-33.6h11.9l6.8,21.2l7-21.2h12.1l-12.7,33.6H2043.6z"/>
									<path class="st18" d="M2070.3,1222.6c0-9.4,6.1-17.7,15.6-17.7c2,0,6.4,0.8,9.4,5.3h0.1v-4.4h11.4v33.6h-11.4v-4.3h-0.1
										c-2.9,4.5-7.3,5.1-9.4,5.1C2076.7,1240.3,2070.3,1232.1,2070.3,1222.6z M2095.4,1222.6c0-4.2-2.4-7.3-6.6-7.3
										c-4.2,0-6.6,3.1-6.6,7.3c0,4.3,2.4,7.5,6.6,7.5C2093,1230,2095.4,1226.8,2095.4,1222.6z"/>
									<path class="st18" d="M2137.4,1239.5v-18.7c0-4-2.2-5.5-5.6-5.5c-3.1,0-5.9,2.2-5.9,7.3v17h-11.4v-33.6h11.4v4.4
										c2.2-2.9,6.4-5.3,12.2-5.3c7.3,0,10.7,4.6,10.7,10.4v24.1H2137.4z"/>
									<path class="st18" d="M2171,1215.9v8.5c0,3.1,0.9,5.7,5.7,5.7v10.2c-11.5,0-17.2-7.7-17.2-17.2v-7.3h-5.6v-10h5.6v-9.6
										h11.4v9.6h6.8v10H2171z"/>
									<path class="st18" d="M2200.1,1239.5V1193h11.4v46.5H2200.1z"/>
									<path class="st18" d="M2217.5,1222.6c0-9.8,7.3-17.7,17.9-17.7c9.5,0,16.9,7.1,16.9,19v2.1h-23.1c0.8,2.8,3.5,5.5,8,5.5
										c1.8,0,5.7-0.8,7.7-2.2l4.6,7.1c-3.3,2.6-8.9,3.8-13.7,3.8C2225.5,1240.3,2217.5,1233.7,2217.5,1222.6z M2235.4,1213.6
										c-4.3,0-5.9,3.3-6.3,5.4h12.5C2241.1,1216.6,2239.9,1213.6,2235.4,1213.6z"/>
									<path class="st18" d="M2255.8,1235.4c1.5-2.7,3-5,4.5-7.7c2.9,2.1,8.3,4,11.9,4c3.1,0,4-0.8,4-2c0-1.7-2.2-2-5.2-2.4
										c-5.4-0.8-14-2.7-14-11.3c0-5.9,5.2-11.2,14.5-11.2c5.2,0,10.1,1.6,13.8,4.1c-1.4,2.7-2.7,4.7-4,7.3
										c-2.2-1.6-6-3.2-9.7-3.2c-2.2,0-3.7,0.8-3.7,2.1c0,1.3,2.1,1.7,4.9,2.1c5.4,0.8,14.2,2.9,14.2,11.7
										c0,6.6-5.8,11.4-15.4,11.4C2265.6,1240.3,2259.4,1238.4,2255.8,1235.4z"/>
									<path class="st18" d="M2321.7,1235.2L2321.7,1235.2l-0.1,17.1h-11.4v-46.5h11.4v4.4h0.1c2.9-4.5,7.3-5.3,9.3-5.3
										c9.5,0,15.6,8.2,15.6,17.7c0,9.5-6.4,17.7-15.6,17.7C2328.9,1240.3,2324.6,1239.7,2321.7,1235.2z M2334.8,1222.6
										c0-4.2-2.4-7.3-6.6-7.3c-4.3,0-6.6,3.1-6.6,7.3c0,4.3,2.4,7.5,6.6,7.5C2332.4,1230,2334.8,1226.8,2334.8,1222.6z"/>
									<path class="st18" d="M2352.6,1239.5v-33.6h11.4v4.4c2.3-2.9,6.8-5.4,10.3-5.4v11c-0.6-0.1-1.3-0.1-2.3-0.1
										c-3.3,0-8,0.9-8,6.8v17H2352.6z"/>
									<path class="st18" d="M2377.7,1222.6c0-9.4,6.8-17.7,18.4-17.7c11.7,0,18.5,8.2,18.5,17.7c0,9.5-6.8,17.7-18.5,17.7
										C2384.5,1240.3,2377.7,1232.1,2377.7,1222.6z M2402.8,1222.6c0-4.2-2.4-7.3-6.6-7.3c-4.2,0-6.6,3.1-6.6,7.3
										c0,4.3,2.4,7.5,6.6,7.5C2400.4,1230,2402.8,1226.8,2402.8,1222.6z"/>
									<path class="st18" d="M2415.3,1243.4c4.8,0,5.7-2.6,5.7-5.7v-31.8h11.4v30.6c0,9.4-5.7,17.1-17.2,17.1
										C2415.3,1253.6,2415.3,1253.6,2415.3,1243.4z M2420.9,1194.3c0-3.1,2.6-5.6,5.8-5.6c3.1,0,5.7,2.4,5.7,5.6
										c0,3.1-2.6,5.6-5.7,5.6C2423.5,1199.9,2420.9,1197.4,2420.9,1194.3z"/>
									<path class="st18" d="M2438.3,1222.6c0-9.8,7.3-17.7,17.9-17.7c9.5,0,16.9,7.1,16.9,19v2.1h-23.1c0.8,2.8,3.5,5.5,8,5.5
										c1.8,0,5.7-0.8,7.7-2.2l4.6,7.1c-3.3,2.6-8.9,3.8-13.7,3.8C2446.4,1240.3,2438.3,1233.7,2438.3,1222.6z M2456.3,1213.6
										c-4.3,0-5.9,3.3-6.3,5.4h12.5C2462,1216.6,2460.7,1213.6,2456.3,1213.6z"/>
									<path class="st18" d="M2492.8,1215.9v8.5c0,3.1,0.9,5.7,5.7,5.7v10.2c-11.5,0-17.2-7.7-17.2-17.2v-7.3h-5.6v-10h5.6v-9.6
										h11.4v9.6h6.8v10H2492.8z"/>
									<path class="st18" d="M2503,1235.4c1.5-2.7,3-5,4.5-7.7c2.9,2.1,8.3,4,11.9,4c3.1,0,4-0.8,4-2c0-1.7-2.2-2-5.2-2.4
										c-5.4-0.8-14-2.7-14-11.3c0-5.9,5.2-11.2,14.5-11.2c5.2,0,10.1,1.6,13.8,4.1c-1.4,2.7-2.7,4.7-4,7.3
										c-2.2-1.6-6-3.2-9.7-3.2c-2.2,0-3.7,0.8-3.7,2.1c0,1.3,2.1,1.7,4.9,2.1c5.4,0.8,14.2,2.9,14.2,11.7
										c0,6.6-5.8,11.4-15.4,11.4C2512.7,1240.3,2506.5,1238.4,2503,1235.4z"/>
									<path class="st18" d="M2558.2,1234.9c0-3,2.5-5.4,5.4-5.4c3.1,0,5.5,2.4,5.5,5.4c0,2.9-2.4,5.4-5.5,5.4
										C2560.7,1240.2,2558.2,1237.8,2558.2,1234.9z M2558.3,1192.5h10.7v28.2c0,3-2.4,5.4-5.4,5.4c-3,0-5.4-2.4-5.4-5.4V1192.5z"
										/>
								</g>
							</g>
						</g>
						<g>
							<defs>
								<rect id="SVGID_00000036953764756423175820000013519268307698173590_" x="1474" y="-14.2" width="1516.5" height="1516.5"/>
							</defs>
							<clipPath id="SVGID_00000116935151022088910570000010650579586706182275_">
								<use xlink:href="#SVGID_00000036953764756423175820000013519268307698173590_"  style="overflow:visible;"/>
							</clipPath>
							<g style="clip-path:url(#SVGID_00000116935151022088910570000010650579586706182275_);">
								<g>
									<defs>
										
											<rect id="SVGID_00000142152303000737569670000002904083533047357855_" x="1474" y="-14.2" width="1516.5" height="1516.5"/>
									</defs>
									<clipPath id="SVGID_00000059273474192338142810000001754440422370676376_">
										<use xlink:href="#SVGID_00000142152303000737569670000002904083533047357855_"  style="overflow:visible;"/>
									</clipPath>
									<path style="clip-path:url(#SVGID_00000059273474192338142810000001754440422370676376_);fill:#FFFFFF;" d="M2438.8,417.9
										c-0.1-29.6-24.1-53.5-53.8-53.4h-8.1l30,83.1c5.6,15.6,4.9,32.4-2.2,47.4c-7,15-19.5,26.4-35.1,32l-196.4,71l212.5-0.6
										c29.6-0.1,53.5-24.2,53.4-53.8L2438.8,417.9z"/>
								</g>
								<g>
									<defs>
										
											<rect id="SVGID_00000013911502148749696590000010861961769814983052_" x="1474" y="-14.2" width="1516.5" height="1516.5"/>
									</defs>
									<clipPath id="SVGID_00000057116038680060552620000018421238487238215830_">
										<use xlink:href="#SVGID_00000013911502148749696590000010861961769814983052_"  style="overflow:visible;"/>
									</clipPath>
									<path style="clip-path:url(#SVGID_00000057116038680060552620000018421238487238215830_);fill:#FFFFFF;" d="M2391.1,453.3
										l-34.9-96.6l-273.3,98.8c-1.9,0.7-3.8,1-5.7,1c-6.9,0-13.4-4.3-15.9-11.2c-3.2-8.8,1.4-18.5,10.2-21.6l272-98.3
										c-8.3-12.3-22.2-20.2-37.4-20.2c-5.2,0-10.4,0.9-15.4,2.7L2055.2,393c-23.4,8.5-35.6,34.4-27.1,57.8l42.8,118.3
										c8.2,22.7,34.8,35.4,57.8,27.1l235.3-85.1c11.3-4.1,20.4-12.4,25.5-23.3C2394.6,476.9,2395.2,464.6,2391.1,453.3"/>
								</g>
							</g>
						</g>
					</g>
				</g>
			</g>
		</g>
	</g>
</g>
</svg>
