<?xml version="1.0" encoding="utf-8"?>
<!-- Generator: Adobe Illustrator 26.5.0, SVG Export Plug-In . SVG Version: 6.00 Build 0)  -->
<svg version="1.1" id="Calque_1" xmlns="http://www.w3.org/2000/svg" xmlns:xlink="http://www.w3.org/1999/xlink" x="0px" y="0px"
	 viewBox="0 0 2976.4 1488.2" style="enable-background:new 0 0 2976.4 1488.2;" xml:space="preserve">
<style type="text/css">
	.st0{clip-path:url(#SVGID_00000139274416467820395760000010170121764126362256_);}
	.st1{clip-path:url(#SVGID_00000182514039790549117470000005803066631408088733_);}
	.st2{clip-path:url(#SVGID_00000031183251694515724990000015634138026970598558_);fill:#005CB9;}
	.st3{clip-path:url(#SVGID_00000031183251694515724990000015634138026970598558_);}
	.st4{clip-path:url(#SVGID_00000092449369913223165640000006588409339520480673_);fill:#FFFFFF;}
	.st5{clip-path:url(#SVGID_00000172417761050768941740000015808994497946930340_);}
	.st6{clip-path:url(#SVGID_00000073684564143118242910000008934751599565984698_);fill:#005CB9;}
	.st7{clip-path:url(#SVGID_00000073684564143118242910000008934751599565984698_);}
	.st8{fill:#FFFFFF;}
	.st9{font-family:'CastoBlack-Black';}
	.st10{font-size:174.4565px;}
	.st11{font-family:'CastoRegular';}
	.st12{font-size:69.7826px;}
	.st13{clip-path:url(#SVGID_00000060724220301814150720000017394760669736742275_);fill:#FFFFFF;}
	
		.st14{clip-path:url(#SVGID_00000139274416467820395760000010170121764126362256_);fill:none;stroke:#FFFFFF;stroke-width:6;stroke-miterlimit:10;}
</style>
<g>
	<defs>
		<rect id="SVGID_1_" width="2976.4" height="1488.2"/>
	</defs>
	<clipPath id="SVGID_00000074401850505246730860000000446966186198357676_">
		<use xlink:href="#SVGID_1_"  style="overflow:visible;"/>
	</clipPath>
	<g style="clip-path:url(#SVGID_00000074401850505246730860000000446966186198357676_);">
		<defs>
			<rect id="SVGID_00000060714744841452162970000009037782476390848654_" x="-14.2" y="-14.2" width="1502.4" height="1516.5"/>
		</defs>
		<clipPath id="SVGID_00000168822097606733896780000015828467424003307953_">
			<use xlink:href="#SVGID_00000060714744841452162970000009037782476390848654_"  style="overflow:visible;"/>
		</clipPath>
		<g style="clip-path:url(#SVGID_00000168822097606733896780000015828467424003307953_);">
			<g>
				<defs>
					<rect id="SVGID_00000128442798870012644370000001981459549955338626_" x="-14.2" y="-14.2" width="1516.5" height="1516.5"/>
				</defs>
				<clipPath id="SVGID_00000039100017956600347440000004384368420207992254_">
					<use xlink:href="#SVGID_00000128442798870012644370000001981459549955338626_"  style="overflow:visible;"/>
				</clipPath>
				
					<rect x="-14.2" y="-14.2" style="clip-path:url(#SVGID_00000039100017956600347440000004384368420207992254_);fill:#005CB9;" width="1516.5" height="1516.5"/>
				<g style="clip-path:url(#SVGID_00000039100017956600347440000004384368420207992254_);">
					<defs>
						<rect id="SVGID_00000182518036284094702470000007505165815440574854_" x="-14.2" y="-14.2" width="1516.5" height="1516.5"/>
					</defs>
					<clipPath id="SVGID_00000121239273279357600230000011041695348281501346_">
						<use xlink:href="#SVGID_00000182518036284094702470000007505165815440574854_"  style="overflow:visible;"/>
					</clipPath>
					<path style="clip-path:url(#SVGID_00000121239273279357600230000011041695348281501346_);fill:#FFFFFF;" d="M345.7,1080.5
						c0,7.3-5,12.3-13.5,12.3H311v-45.7h18.9c8.1,0,13.1,4.8,13.1,11.6c0,5.4-3.5,9.2-7.5,10.3
						C341.7,1069.6,345.7,1075.1,345.7,1080.5 M316.8,1067H329c5.3,0,8-3.2,8-7.3c0-4.1-2.7-7.4-8-7.4h-12.1V1067z M331.1,1087.8
						c5.3,0,8.6-3,8.6-7.9c0-4.2-2.9-7.9-8.6-7.9h-14.3v15.8H331.1z"/>
					<path style="clip-path:url(#SVGID_00000121239273279357600230000011041695348281501346_);fill:#FFFFFF;" d="M352.8,1076.3
						c0-9.6,7-17.3,16.6-17.3c10.2,0,16.2,7.8,16.2,17.7v1.3h-27.3c0.4,6.2,4.8,11.1,12.1,11.1c3.9,0,7.5-1.5,10.2-4.2l2.8,3.7
						c-3.4,3.3-7.9,5.1-13.4,5.1C360,1093.7,352.8,1086.6,352.8,1076.3 M380.4,1074.1c-0.1-4.9-3.4-10.6-11.1-10.6
						c-7.2,0-10.8,5.6-11,10.6H380.4z"/>
					<path style="clip-path:url(#SVGID_00000121239273279357600230000011041695348281501346_);fill:#FFFFFF;" d="M391.3,1088.5
						l2.6-3.7c2.3,2.5,6.5,4.7,11.2,4.7c5.1,0,8-2.4,8-5.7c0-8-20.9-3.1-20.9-15.3c0-5.2,4.5-9.5,12.5-9.5c5.8,0,9.8,2.1,12.5,4.8
						l-2.5,3.6c-2-2.4-5.6-4.2-10-4.2c-4.7,0-7.5,2.3-7.5,5.2c0,7.2,20.9,2.5,20.9,15.3c0,5.5-4.5,10-13.1,10
						C399.3,1093.7,394.7,1091.9,391.3,1088.5"/>
					<path style="clip-path:url(#SVGID_00000121239273279357600230000011041695348281501346_);fill:#FFFFFF;" d="M424.6,1076.3
						c0-9.6,6.4-17.3,16.7-17.3s16.7,7.7,16.7,17.3c0,9.6-6.4,17.4-16.7,17.4S424.6,1085.9,424.6,1076.3 M452.5,1076.3
						c0-6.7-4-12.7-11.2-12.7s-11.2,6-11.2,12.7c0,6.8,4,12.8,11.2,12.8S452.5,1083,452.5,1076.3"/>
					<path style="clip-path:url(#SVGID_00000121239273279357600230000011041695348281501346_);fill:#FFFFFF;" d="M469.5,1048.1
						c1.7,0,3.1,1.4,3.1,3.2s-1.4,3.1-3.1,3.1s-3.1-1.4-3.1-3.1S467.8,1048.1,469.5,1048.1 M466.9,1059.8h5.2v33.1h-5.2V1059.8z"/>
					<path style="clip-path:url(#SVGID_00000121239273279357600230000011041695348281501346_);fill:#FFFFFF;" d="M506,1092.8v-21.6
						c0-5.9-3.1-7.7-7.7-7.7c-4.1,0-10,2.9-10,12.7v16.6h-5.2v-33.1h5.2v4.8c2.4-2.8,7-5.6,12.1-5.6c7,0,10.7,3.5,10.7,10.7v23.2
						H506z"/>
					<path style="clip-path:url(#SVGID_00000121239273279357600230000011041695348281501346_);fill:#FFFFFF;" d="M570.2,1047.2v45.7
						H565v-4.9c-3.1,4.6-7.8,5.7-10.7,5.7c-10.3,0-16.7-7.8-16.7-17.4c0-9.6,6.4-17.3,16.7-17.3c2.6,0,7.5,1,10.7,5.8v-17.5H570.2z
						 M565.5,1076.3c0-6.7-4-12.7-11.2-12.7c-7.2,0-11.2,6-11.2,12.7c0,6.8,4,12.8,11.2,12.8C561.5,1089.1,565.5,1083,565.5,1076.3"
						/>
					<path style="clip-path:url(#SVGID_00000121239273279357600230000011041695348281501346_);fill:#FFFFFF;" d="M579.9,1058.7
						c1.2-1,2.1-2.9,2.1-4.9c0-0.3-0.1-0.5-0.1-0.8c-1.5-0.5-2.2-1.5-2.2-3.1c0-2,1.5-3.4,3.6-3.4c2.6,0,4.4,2.1,4.4,4.9
						c0,4.4-3.4,8.2-7.8,8.6V1058.7z"/>
					<path style="clip-path:url(#SVGID_00000121239273279357600230000011041695348281501346_);fill:#FFFFFF;" d="M596.6,1080.2v-0.3
						v-20.1h5.2v20.3c0,1.2,0.3,9,8.8,9c8.7,0,8.9-7.9,8.9-9.2v-20.1h5.2v20.1v0.3c0,2.1-0.5,13.5-14.1,13.5
						C597.1,1093.7,596.6,1082.2,596.6,1080.2"/>
					<path style="clip-path:url(#SVGID_00000121239273279357600230000011041695348281501346_);fill:#FFFFFF;" d="M658.1,1092.8
						v-21.6c0-5.9-3.1-7.7-7.7-7.7c-4.1,0-10,2.9-10,12.7v16.6h-5.2v-33.1h5.2v4.8c2.4-2.8,7-5.6,12.1-5.6c7,0,10.7,3.5,10.7,10.7
						v23.2H658.1z"/>
					<path style="clip-path:url(#SVGID_00000121239273279357600230000011041695348281501346_);fill:#FFFFFF;" d="M689.7,1076.3
						c0-9.8,6.8-17.3,16.8-17.3c6.1,0,9.7,2.5,12.3,5.8l-3.5,3.1c-2.2-3-5.1-4.2-8.6-4.2c-7.1,0-11.7,5.4-11.7,12.7
						c0,7.3,4.6,12.8,11.7,12.8c3.5,0,6.4-1.4,8.6-4.3l3.5,3.2c-2.6,3.3-6.2,5.8-12.3,5.8C696.5,1093.7,689.7,1086.1,689.7,1076.3"
						/>
					<path style="clip-path:url(#SVGID_00000121239273279357600230000011041695348281501346_);fill:#FFFFFF;" d="M724.3,1076.3
						c0-9.6,6.4-17.3,16.7-17.3c10.3,0,16.7,7.7,16.7,17.3c0,9.6-6.4,17.4-16.7,17.4C730.7,1093.7,724.3,1085.9,724.3,1076.3
						 M752.1,1076.3c0-6.7-4-12.7-11.2-12.7c-7.2,0-11.2,6-11.2,12.7c0,6.8,4,12.8,11.2,12.8C748.2,1089.1,752.1,1083,752.1,1076.3"
						/>
					<path style="clip-path:url(#SVGID_00000121239273279357600230000011041695348281501346_);fill:#FFFFFF;" d="M766.1,1080.2v-0.3
						v-20.1h5.2v20.3c0,1.2,0.3,9,8.8,9c8.7,0,8.9-7.9,8.9-9.2v-20.1h5.2v20.1v0.3c0,2.1-0.5,13.5-14.1,13.5
						C766.6,1093.7,766.1,1082.2,766.1,1080.2"/>
					<path style="clip-path:url(#SVGID_00000121239273279357600230000011041695348281501346_);fill:#FFFFFF;" d="M809.9,1059.8v4.9
						c3.2-4.7,8.1-5.8,10.7-5.8c10.3,0,16.7,7.7,16.7,17.3c0,9.6-6.4,17.4-16.7,17.4c-2.9,0-7.6-1.1-10.7-5.7v17.5h-5.2v-45.7H809.9
						z M831.7,1076.3c0-6.7-4-12.7-11.2-12.7c-7.2,0-11.2,6-11.2,12.7c0,6.8,4,12.8,11.2,12.8C827.7,1089.1,831.7,1083,831.7,1076.3
						"/>
					<path style="clip-path:url(#SVGID_00000121239273279357600230000011041695348281501346_);fill:#FFFFFF;" d="M894.4,1047.2v45.7
						h-5.2v-4.9c-3.1,4.6-7.8,5.7-10.7,5.7c-10.3,0-16.7-7.8-16.7-17.4c0-9.6,6.4-17.3,16.7-17.3c2.6,0,7.5,1,10.7,5.8v-17.5H894.4z
						 M889.6,1076.3c0-6.7-4-12.7-11.2-12.7c-7.2,0-11.2,6-11.2,12.7c0,6.8,4,12.8,11.2,12.8C885.7,1089.1,889.6,1083,889.6,1076.3"
						/>
					<path style="clip-path:url(#SVGID_00000121239273279357600230000011041695348281501346_);fill:#FFFFFF;" d="M902.9,1076.3
						c0-9.6,7-17.3,16.6-17.3c10.2,0,16.2,7.8,16.2,17.7v1.3h-27.3c0.4,6.2,4.8,11.1,12.1,11.1c3.9,0,7.5-1.5,10.2-4.2l2.8,3.7
						c-3.4,3.3-7.9,5.1-13.4,5.1C910,1093.7,902.9,1086.6,902.9,1076.3 M930.5,1074.1c-0.1-4.9-3.4-10.6-11.1-10.6
						c-7.2,0-10.8,5.6-11,10.6H930.5z"/>
					<path style="clip-path:url(#SVGID_00000121239273279357600230000011041695348281501346_);fill:#FFFFFF;" d="M1012.9,1069.6
						v23.2h-5.1v-21.6c0-5.3-2.5-7.3-6.4-7.6c-7.2,0-11.2,4.6-11.2,9.6v19.7H985v-21.6c0-5.9-3.1-7.7-7.6-7.7c-4.1,0-10,2.9-10,12.7
						v16.6h-5.2v-33.1h5.2v4.8c2.4-2.8,7-5.6,12.1-5.6c5.2,0,8.6,2,9.9,6c2.7-3.4,6.6-6,12.7-6
						C1009.2,1058.9,1012.9,1062.4,1012.9,1069.6"/>
					<path style="clip-path:url(#SVGID_00000121239273279357600230000011041695348281501346_);fill:#FFFFFF;" d="M1053.9,1059.8
						v33.1h-5.2v-4.9c-3.1,4.6-7.8,5.7-10.7,5.7c-10.3,0-16.7-7.8-16.7-17.4c0-9.6,6.4-17.3,16.7-17.3c2.6,0,7.5,1,10.7,5.8v-4.9
						H1053.9z M1049.2,1076.3c0-6.7-4-12.7-11.2-12.7c-7.2,0-11.2,6-11.2,12.7c0,6.8,4,12.8,11.2,12.8
						C1045.2,1089.1,1049.2,1083,1049.2,1076.3"/>
					<path style="clip-path:url(#SVGID_00000121239273279357600230000011041695348281501346_);fill:#FFFFFF;" d="M1067.4,1048.1
						c1.7,0,3.2,1.4,3.2,3.2s-1.4,3.1-3.2,3.1c-1.7,0-3.1-1.4-3.1-3.1S1065.7,1048.1,1067.4,1048.1 M1064.8,1059.8h5.2v33.1h-5.2
						V1059.8z"/>
					<path style="clip-path:url(#SVGID_00000121239273279357600230000011041695348281501346_);fill:#FFFFFF;" d="M1103.8,1092.8
						v-21.6c0-5.9-3.1-7.7-7.7-7.7c-4.1,0-10,2.9-10,12.7v16.6h-5.2v-33.1h5.2v4.8c2.4-2.8,7-5.6,12.1-5.6c7,0,10.7,3.5,10.7,10.7
						v23.2H1103.8z"/>
					<path style="clip-path:url(#SVGID_00000121239273279357600230000011041695348281501346_);fill:#FFFFFF;" d="M1149,1071.3v6.4
						c0,1.4-1.2,2.5-2.5,2.5c-1.4,0-2.5-1.1-2.5-2.5v-11.1c11.9,0,12.5-7,12.5-8.5v-0.3c0-3.4-2.7-6.4-8.1-6.4
						c-5.3,0-8.6,2.2-11.2,5.6l-3.5-3.7c3.4-4.3,8.5-7,15.1-7c7.7,0,13.7,4.1,13.7,11.7C1162.5,1063.2,1159.9,1069.5,1149,1071.3
						 M1146.4,1086.5c2,0,3.6,1.6,3.6,3.6c0,2-1.6,3.5-3.6,3.5c-2,0-3.5-1.5-3.5-3.5C1142.9,1088,1144.4,1086.5,1146.4,1086.5"/>
					<path style="clip-path:url(#SVGID_00000121239273279357600230000011041695348281501346_);fill:#FFFFFF;" d="M262.5,1161.3
						v-45.6h19.7c13.8,0,24.2,8.2,24.2,22.7c0,14.6-10.4,22.9-24.2,22.9H262.5z M293.7,1138.4c0-6.6-3.8-11.5-11.4-11.5h-7.2v23.1
						h7.1C289.4,1150.1,293.7,1144.6,293.7,1138.4"/>
					<path style="clip-path:url(#SVGID_00000121239273279357600230000011041695348281501346_);fill:#FFFFFF;" d="M309.5,1144.7
						c0-9.6,7.2-17.3,17.6-17.3c9.3,0,16.6,7,16.6,18.7v2.1H321c0.8,2.7,3.4,5.4,7.8,5.4c1.8,0,5.5-0.8,7.5-2.1l4.5,7
						c-3.2,2.5-8.8,3.7-13.4,3.7C317.3,1162.1,309.5,1155.6,309.5,1144.7 M327.1,1136c-4.2,0-5.8,3.3-6.2,5.3h12.3
						C332.7,1138.9,331.5,1136,327.1,1136"/>
					<path style="clip-path:url(#SVGID_00000121239273279357600230000011041695348281501346_);fill:#FFFFFF;" d="M347.1,1157.3
						c1.5-2.6,2.9-4.9,4.5-7.5c2.8,2.1,8.1,4,11.6,4c3,0,3.9-0.8,3.9-2c0-1.6-2.2-1.9-5.1-2.3c-5.3-0.8-13.8-2.7-13.8-11.1
						c0-5.8,5.1-11,14.2-11c5.1,0,9.9,1.6,13.6,4c-1.4,2.6-2.6,4.6-4,7.1c-2.2-1.6-5.9-3.1-9.5-3.1c-2.1,0-3.6,0.8-3.6,2.1
						s2.1,1.6,4.8,2.1c5.3,0.8,14,2.9,14,11.4c0,6.4-5.7,11.2-15.1,11.2C356.7,1162.1,350.6,1160.3,347.1,1157.3"/>
					<path style="clip-path:url(#SVGID_00000121239273279357600230000011041695348281501346_);fill:#FFFFFF;" d="M411.7,1157.1
						L411.7,1157.1l-0.1,4.2h-11.2v-45.6h11.2v16.9h0.1c2.9-4.5,7.2-5.2,9.2-5.2c9.3,0,15.3,8.1,15.3,17.3c0,9.3-6.3,17.4-15.3,17.4
						C418.8,1162.1,414.6,1161.6,411.7,1157.1 M424.6,1144.7c0-4.1-2.3-7.2-6.4-7.2c-4.2,0-6.5,3.1-6.5,7.2c0,4.2,2.3,7.3,6.5,7.3
						C422.3,1152.1,424.6,1148.9,424.6,1144.7"/>
					<path style="clip-path:url(#SVGID_00000121239273279357600230000011041695348281501346_);fill:#FFFFFF;" d="M442,1161.3v-33
						h11.2v4.3c2.3-2.8,6.6-5.3,10.1-5.3v10.8c-0.6-0.1-1.3-0.1-2.3-0.1c-3.2,0-7.9,0.9-7.9,6.7v16.6H442z"/>
					<path style="clip-path:url(#SVGID_00000121239273279357600230000011041695348281501346_);fill:#FFFFFF;" d="M468.4,1117
						c0-3.1,2.5-5.5,5.7-5.5c3,0,5.5,2.4,5.5,5.5c0,3-2.5,5.5-5.5,5.5C470.9,1122.5,468.4,1120,468.4,1117 M468.4,1128.3h11.2v33
						h-11.2V1128.3z"/>
					<path style="clip-path:url(#SVGID_00000121239273279357600230000011041695348281501346_);fill:#FFFFFF;" d="M485.5,1144.7
						c0-10.5,7.9-17.3,18-17.3c7,0,11.3,3.1,13.3,5.8l-7.1,7c-1.2-1.5-3.1-2.6-5.7-2.6c-3.8,0-7.1,2.5-7.1,7.2
						c0,4.7,3.3,7.3,7.1,7.3c2.5,0,4.6-1.3,5.8-2.7c2.5,2.5,4.5,4.7,7,7.1c-2,2.6-6.4,5.7-13.3,5.7
						C493.3,1162.1,485.5,1155.3,485.5,1144.7"/>
					<path style="clip-path:url(#SVGID_00000121239273279357600230000011041695348281501346_);fill:#FFFFFF;" d="M520.2,1144.7
						c0-9.2,6.6-17.3,18.1-17.3c11.4,0,18.1,8.1,18.1,17.3c0,9.3-6.7,17.4-18.1,17.4C526.8,1162.1,520.2,1154.1,520.2,1144.7
						 M544.8,1144.7c0-4.1-2.3-7.2-6.5-7.2c-4.1,0-6.4,3.1-6.4,7.2c0,4.2,2.3,7.3,6.4,7.3C542.4,1152.1,544.8,1148.9,544.8,1144.7"
						/>
					
						<rect x="562.2" y="1115.7" style="clip-path:url(#SVGID_00000121239273279357600230000011041695348281501346_);fill:#FFFFFF;" width="11.2" height="45.6"/>
					<path style="clip-path:url(#SVGID_00000121239273279357600230000011041695348281501346_);fill:#FFFFFF;" d="M579.3,1144.7
						c0-9.6,7.2-17.3,17.6-17.3c9.3,0,16.6,7,16.6,18.7v2.1h-22.7c0.8,2.7,3.4,5.4,7.8,5.4c1.8,0,5.5-0.8,7.5-2.1l4.5,7
						c-3.2,2.5-8.8,3.7-13.4,3.7C587.1,1162.1,579.3,1155.6,579.3,1144.7 M596.9,1136c-4.2,0-5.8,3.3-6.2,5.3H603
						C602.5,1138.9,601.3,1136,596.9,1136"/>
					<path style="clip-path:url(#SVGID_00000121239273279357600230000011041695348281501346_);fill:#FFFFFF;" d="M652.3,1128.3v16.9
						c0,9.9-6.5,16.9-16.8,16.9c-11.3,0-16.8-7.6-16.8-16.9v-16.9h11.2v18.1c0,3.1,0.9,5.6,5.6,5.6c4.7,0,5.6-2.5,5.6-5.6v-18.1
						H652.3z"/>
					<path style="clip-path:url(#SVGID_00000121239273279357600230000011041695348281501346_);fill:#FFFFFF;" d="M659.8,1161.3v-33
						H671v4.3c2.3-2.8,6.6-5.3,10.1-5.3v10.8c-0.6-0.1-1.3-0.1-2.3-0.1c-3.2,0-7.9,0.9-7.9,6.7v16.6H659.8z"/>
					<path style="clip-path:url(#SVGID_00000121239273279357600230000011041695348281501346_);fill:#FFFFFF;" d="M684.4,1157.3
						c1.5-2.6,2.9-4.9,4.5-7.5c2.8,2.1,8.2,4,11.6,4c3,0,3.9-0.8,3.9-2c0-1.6-2.2-1.9-5.1-2.3c-5.3-0.8-13.8-2.7-13.8-11.1
						c0-5.8,5.1-11,14.2-11c5.1,0,9.9,1.6,13.6,4c-1.4,2.6-2.6,4.6-4,7.1c-2.2-1.6-5.9-3.1-9.5-3.1c-2.1,0-3.6,0.8-3.6,2.1
						s2.1,1.6,4.8,2.1c5.3,0.8,14,2.9,14,11.4c0,6.4-5.7,11.2-15.1,11.2C694,1162.1,687.9,1160.3,684.4,1157.3"/>
					<polygon style="clip-path:url(#SVGID_00000121239273279357600230000011041695348281501346_);fill:#FFFFFF;" points="
						746.3,1161.3 734,1128.3 745.7,1128.3 752.4,1149.1 759.3,1128.3 771.1,1128.3 758.7,1161.3 					"/>
					<path style="clip-path:url(#SVGID_00000121239273279357600230000011041695348281501346_);fill:#FFFFFF;" d="M772.5,1144.7
						c0-9.2,6.6-17.3,18.1-17.3c11.4,0,18.1,8.1,18.1,17.3c0,9.3-6.7,17.4-18.1,17.4C779.2,1162.1,772.5,1154.1,772.5,1144.7
						 M797.1,1144.7c0-4.1-2.3-7.2-6.5-7.2c-4.1,0-6.4,3.1-6.4,7.2c0,4.2,2.3,7.3,6.4,7.3C794.8,1152.1,797.1,1148.9,797.1,1144.7"
						/>
					<path style="clip-path:url(#SVGID_00000121239273279357600230000011041695348281501346_);fill:#FFFFFF;" d="M848.2,1128.3v16.9
						c0,9.9-6.5,16.9-16.8,16.9c-11.3,0-16.8-7.6-16.8-16.9v-16.9h11.2v18.1c0,3.1,0.9,5.6,5.6,5.6c4.7,0,5.6-2.5,5.6-5.6v-18.1
						H848.2z"/>
					<path style="clip-path:url(#SVGID_00000121239273279357600230000011041695348281501346_);fill:#FFFFFF;" d="M854.1,1157.3
						c1.5-2.6,2.9-4.9,4.5-7.5c2.8,2.1,8.2,4,11.6,4c3,0,3.9-0.8,3.9-2c0-1.6-2.2-1.9-5.1-2.3c-5.3-0.8-13.8-2.7-13.8-11.1
						c0-5.8,5.1-11,14.2-11c5.1,0,9.9,1.6,13.6,4c-1.4,2.6-2.6,4.6-4,7.1c-2.2-1.6-5.9-3.1-9.5-3.1c-2.1,0-3.6,0.8-3.6,2.1
						s2.1,1.6,4.8,2.1c5.3,0.8,14,2.9,14,11.4c0,6.4-5.7,11.2-15.1,11.2C863.7,1162.1,857.6,1160.3,854.1,1157.3"/>
					<path style="clip-path:url(#SVGID_00000121239273279357600230000011041695348281501346_);fill:#FFFFFF;" d="M905.7,1144.7
						c0-9.2,6-17.3,15.3-17.3c2,0,6.3,0.8,9.2,5.2h0.1v-4.3h11.2v33h-11.2v-4.2h-0.1c-2.9,4.5-7.1,5-9.2,5
						C912,1162.1,905.7,1154.1,905.7,1144.7 M930.3,1144.7c0-4.1-2.3-7.2-6.5-7.2c-4.1,0-6.4,3.1-6.4,7.2c0,4.2,2.3,7.3,6.4,7.3
						C928,1152.1,930.3,1148.9,930.3,1144.7"/>
					<path style="clip-path:url(#SVGID_00000121239273279357600230000011041695348281501346_);fill:#FFFFFF;" d="M949,1117
						c0-3.1,2.5-5.5,5.7-5.5c3,0,5.5,2.4,5.5,5.5c0,3-2.5,5.5-5.5,5.5C951.6,1122.5,949,1120,949,1117 M949,1128.3h11.2v33H949
						V1128.3z"/>
					<path style="clip-path:url(#SVGID_00000121239273279357600230000011041695348281501346_);fill:#FFFFFF;" d="M966.1,1144.7
						c0-9.2,6-17.3,15.3-17.3c2,0,6.3,0.8,9.2,5.2h0.1v-16.9h11.2v45.6h-11.2v-4.2h-0.1c-2.9,4.5-7.1,5-9.2,5
						C972.4,1162.1,966.1,1154.1,966.1,1144.7 M990.7,1144.7c0-4.1-2.3-7.2-6.5-7.2c-4.1,0-6.4,3.1-6.4,7.2c0,4.2,2.3,7.3,6.4,7.3
						C988.4,1152.1,990.7,1148.9,990.7,1144.7"/>
					<path style="clip-path:url(#SVGID_00000121239273279357600230000011041695348281501346_);fill:#FFFFFF;" d="M1007.7,1144.7
						c0-9.6,7.2-17.3,17.6-17.3c9.3,0,16.6,7,16.6,18.7v2.1h-22.7c0.8,2.7,3.4,5.4,7.8,5.4c1.8,0,5.5-0.8,7.5-2.1l4.5,7
						c-3.2,2.5-8.8,3.7-13.4,3.7C1015.6,1162.1,1007.7,1155.6,1007.7,1144.7 M1025.3,1136c-4.2,0-5.8,3.3-6.2,5.3h12.3
						C1030.9,1138.9,1029.7,1136,1025.3,1136"/>
					<path style="clip-path:url(#SVGID_00000121239273279357600230000011041695348281501346_);fill:#FFFFFF;" d="M1069.6,1161.3
						V1143c0-3.9-2.1-5.4-5.5-5.4c-3.1,0-5.8,2.2-5.8,7.1v16.6H1047v-33h11.2v4.3c2.2-2.8,6.3-5.2,12-5.2c7.2,0,10.5,4.5,10.5,10.2
						v23.7H1069.6z"/>
					<path style="clip-path:url(#SVGID_00000121239273279357600230000011041695348281501346_);fill:#FFFFFF;" d="M1102.5,1138.2v8.4
						c0,3.1,0.9,5.6,5.6,5.6v10c-11.3,0-16.8-7.5-16.8-16.8v-7.1h-5.5v-9.9h5.5v-9.4h11.2v9.4h6.6v9.9H1102.5z"/>
					<path style="clip-path:url(#SVGID_00000121239273279357600230000011041695348281501346_);fill:#FFFFFF;" d="M1129.3,1157.3
						c1.5-2.6,2.9-4.9,4.5-7.5c2.8,2.1,8.1,4,11.6,4c3,0,3.9-0.8,3.9-2c0-1.6-2.2-1.9-5.1-2.3c-5.3-0.8-13.8-2.7-13.8-11.1
						c0-5.8,5.1-11,14.2-11c5.1,0,9.9,1.6,13.6,4c-1.4,2.6-2.6,4.6-4,7.1c-2.2-1.6-5.9-3.1-9.5-3.1c-2.1,0-3.6,0.8-3.6,2.1
						s2.1,1.6,4.8,2.1c5.3,0.8,14,2.9,14,11.4c0,6.4-5.7,11.2-15.1,11.2C1138.9,1162.1,1132.8,1160.3,1129.3,1157.3"/>
					<path style="clip-path:url(#SVGID_00000121239273279357600230000011041695348281501346_);fill:#FFFFFF;" d="M1199.5,1128.3
						v16.9c0,9.9-6.5,16.9-16.8,16.9c-11.3,0-16.8-7.6-16.8-16.9v-16.9h11.2v18.1c0,3.1,0.9,5.6,5.6,5.6c4.7,0,5.6-2.5,5.6-5.6
						v-18.1H1199.5z"/>
					<path style="clip-path:url(#SVGID_00000121239273279357600230000011041695348281501346_);fill:#FFFFFF;" d="M1207,1161.3v-33
						h11.2v4.3c2.3-2.8,6.6-5.3,10.1-5.3v10.8c-0.6-0.1-1.3-0.1-2.3-0.1c-3.2,0-7.9,0.9-7.9,6.7v16.6H1207z"/>
					<path style="clip-path:url(#SVGID_00000121239273279357600230000011041695348281501346_);fill:#FFFFFF;" d="M356.7,1229.8
						v-18.4c0-3.9-2.1-5.4-5.5-5.4c-3.1,0-5.8,2.2-5.8,7.1v16.6h-11.2v-33h11.2v4.3c2.2-2.8,6.3-5.2,12-5.2
						c7.2,0,10.5,4.5,10.5,10.2v23.7H356.7z"/>
					<path style="clip-path:url(#SVGID_00000121239273279357600230000011041695348281501346_);fill:#FFFFFF;" d="M373.8,1213.2
						c0-9.6,7.2-17.3,17.6-17.3c9.3,0,16.6,7,16.6,18.7v2.1h-22.7c0.8,2.7,3.4,5.4,7.8,5.4c1.8,0,5.5-0.8,7.5-2.1l4.5,7
						c-3.2,2.5-8.8,3.7-13.4,3.7C381.6,1230.6,373.8,1224.1,373.8,1213.2 M391.4,1204.5c-4.2,0-5.8,3.3-6.2,5.3h12.3
						C397,1207.4,395.8,1204.5,391.4,1204.5"/>
					<path style="clip-path:url(#SVGID_00000121239273279357600230000011041695348281501346_);fill:#FFFFFF;" d="M411.4,1213.2
						c0-9.6,7.2-17.3,17.6-17.3c9.3,0,16.6,7,16.6,18.7v2.1h-22.7c0.8,2.7,3.4,5.4,7.8,5.4c1.8,0,5.5-0.8,7.5-2.1l4.5,7
						c-3.2,2.5-8.8,3.7-13.4,3.7C419.2,1230.6,411.4,1224.1,411.4,1213.2 M429,1204.5c-4.2,0-5.8,3.3-6.2,5.3h12.3
						C434.6,1207.4,433.3,1204.5,429,1204.5"/>
					<path style="clip-path:url(#SVGID_00000121239273279357600230000011041695348281501346_);fill:#FFFFFF;" d="M449,1213.2
						c0-9.2,6-17.3,15.3-17.3c2,0,6.3,0.8,9.2,5.2h0.1v-16.9h11.2v45.6h-11.2v-4.2h-0.1c-2.9,4.5-7.1,5-9.2,5
						C455.3,1230.6,449,1222.5,449,1213.2 M473.5,1213.2c0-4.1-2.3-7.2-6.5-7.2c-4.1,0-6.4,3.1-6.4,7.2c0,4.2,2.3,7.3,6.4,7.3
						C471.2,1220.5,473.5,1217.4,473.5,1213.2"/>
					<path style="clip-path:url(#SVGID_00000121239273279357600230000011041695348281501346_);fill:#FFFFFF;" d="M514.8,1229.8
						v-18.4c0-3.9-2.1-5.4-5.5-5.4c-3.1,0-5.8,2.2-5.8,7.1v16.6h-11.2v-45.6h11.2v16.9c2.2-2.8,6.3-5.2,12-5.2
						c7.2,0,10.5,4.5,10.5,10.2v23.7H514.8z"/>
					<path style="clip-path:url(#SVGID_00000121239273279357600230000011041695348281501346_);fill:#FFFFFF;" d="M531.9,1213.2
						c0-9.6,7.2-17.3,17.6-17.3c9.3,0,16.6,7,16.6,18.7v2.1h-22.7c0.8,2.7,3.4,5.4,7.8,5.4c1.8,0,5.5-0.8,7.5-2.1l4.5,7
						c-3.2,2.5-8.8,3.7-13.4,3.7C539.8,1230.6,531.9,1224.1,531.9,1213.2 M549.5,1204.5c-4.2,0-5.8,3.3-6.2,5.3h12.3
						C555.1,1207.4,553.9,1204.5,549.5,1204.5"/>
					
						<rect x="571.2" y="1184.2" style="clip-path:url(#SVGID_00000121239273279357600230000011041695348281501346_);fill:#FFFFFF;" width="11.2" height="45.6"/>
					<path style="clip-path:url(#SVGID_00000121239273279357600230000011041695348281501346_);fill:#FFFFFF;" d="M601.3,1225.6
						L601.3,1225.6l-0.1,16.8H590v-45.6h11.2v4.3h0.1c2.9-4.5,7.2-5.2,9.2-5.2c9.3,0,15.3,8.1,15.3,17.3c0,9.3-6.3,17.4-15.3,17.4
						C608.4,1230.6,604.1,1230.1,601.3,1225.6 M614.1,1213.2c0-4.1-2.3-7.2-6.4-7.2c-4.2,0-6.5,3.1-6.5,7.2c0,4.2,2.3,7.3,6.5,7.3
						C611.8,1220.5,614.1,1217.4,614.1,1213.2"/>
					<path style="clip-path:url(#SVGID_00000121239273279357600230000011041695348281501346_);fill:#FFFFFF;" d="M630.7,1223.6
						c0-3.8,3.3-7,7.1-7c3.9,0,7.1,3.2,7.1,7s-3.2,7-7.1,7C634,1230.6,630.7,1227.5,630.7,1223.6"/>
					<path style="clip-path:url(#SVGID_00000121239273279357600230000011041695348281501346_);fill:#FFFFFF;" d="M649.7,1213.2
						c0-10.5,7.9-17.3,18-17.3c7,0,11.3,3.1,13.3,5.8l-7.1,7c-1.2-1.5-3.1-2.6-5.7-2.6c-3.8,0-7.1,2.5-7.1,7.2
						c0,4.7,3.3,7.3,7.1,7.3c2.5,0,4.6-1.3,5.8-2.7c2.5,2.5,4.5,4.7,7,7.1c-2,2.6-6.4,5.7-13.3,5.7
						C657.5,1230.6,649.7,1223.8,649.7,1213.2"/>
					<path style="clip-path:url(#SVGID_00000121239273279357600230000011041695348281501346_);fill:#FFFFFF;" d="M684.4,1213.2
						c0-9.2,6.6-17.3,18.1-17.3c11.4,0,18.1,8.1,18.1,17.3c0,9.3-6.7,17.4-18.1,17.4C691,1230.6,684.4,1222.5,684.4,1213.2
						 M709,1213.2c0-4.1-2.3-7.2-6.5-7.2c-4.1,0-6.4,3.1-6.4,7.2c0,4.2,2.3,7.3,6.4,7.3C706.6,1220.5,709,1217.4,709,1213.2"/>
					<path style="clip-path:url(#SVGID_00000121239273279357600230000011041695348281501346_);fill:#FFFFFF;" d="M749,1229.8v-18.4
						c0-3.9-2.1-5.4-5.5-5.4c-3.1,0-5.8,2.2-5.8,7.1v16.6h-11.2v-33h11.2v4.3c2.2-2.8,6.3-5.2,12-5.2c5.3,0,8.5,2.5,9.8,6
						c2.3-2.9,6-6,12.7-6c7.2,0,10.5,4.5,10.5,10.2v23.7h-11.2v-18.4c0-3.9-2.1-5.4-5.5-5.4c-6.1,0-5.8,7.1-5.8,7.1v16.6H749z"/>
					<path style="clip-path:url(#SVGID_00000121239273279357600230000011041695348281501346_);fill:#FFFFFF;" d="M793,1228.9
						c-0.5,1.8-2.3,2.7-4.1,2.1c-1.7-0.5-2.7-2.4-2.1-4.2l13.7-42.1c0.5-1.8,2.5-2.9,4.2-2.2c1.7,0.6,2.7,2.4,2.1,4.2L793,1228.9z"
						/>
					<path style="clip-path:url(#SVGID_00000121239273279357600230000011041695348281501346_);fill:#FFFFFF;" d="M809.1,1213.2
						c0-10.5,7.9-17.3,18-17.3c7,0,11.3,3.1,13.3,5.8l-7.1,7c-1.2-1.5-3.1-2.6-5.7-2.6c-3.8,0-7.1,2.5-7.1,7.2
						c0,4.7,3.3,7.3,7.1,7.3c2.5,0,4.6-1.3,5.8-2.7c2.5,2.5,4.5,4.7,7,7.1c-2,2.6-6.4,5.7-13.3,5.7
						C817,1230.6,809.1,1223.8,809.1,1213.2"/>
					<path style="clip-path:url(#SVGID_00000121239273279357600230000011041695348281501346_);fill:#FFFFFF;" d="M843.9,1213.2
						c0-9.2,6-17.3,15.3-17.3c2,0,6.3,0.8,9.2,5.2h0.1v-4.3h11.2v33h-11.2v-4.2h-0.1c-2.9,4.5-7.1,5-9.2,5
						C850.2,1230.6,843.9,1222.5,843.9,1213.2 M868.4,1213.2c0-4.1-2.3-7.2-6.5-7.2c-4.1,0-6.4,3.1-6.4,7.2c0,4.2,2.3,7.3,6.4,7.3
						C866.1,1220.5,868.4,1217.4,868.4,1213.2"/>
					<path style="clip-path:url(#SVGID_00000121239273279357600230000011041695348281501346_);fill:#FFFFFF;" d="M885.5,1225.8
						c1.5-2.6,2.9-4.9,4.5-7.5c2.8,2.1,8.2,4,11.6,4c3,0,3.9-0.8,3.9-2c0-1.6-2.2-1.9-5.1-2.3c-5.3-0.8-13.8-2.7-13.8-11.1
						c0-5.8,5.1-11,14.2-11c5.1,0,9.9,1.6,13.6,4c-1.4,2.6-2.6,4.6-4,7.1c-2.2-1.6-5.9-3.1-9.5-3.1c-2.1,0-3.6,0.8-3.6,2.1
						c0,1.3,2.1,1.6,4.8,2.1c5.3,0.8,14,2.9,14,11.4c0,6.4-5.7,11.2-15.1,11.2C895.1,1230.6,889,1228.8,885.5,1225.8"/>
					<path style="clip-path:url(#SVGID_00000121239273279357600230000011041695348281501346_);fill:#FFFFFF;" d="M936.1,1206.6v8.4
						c0,3.1,0.9,5.6,5.6,5.6v10c-11.3,0-16.8-7.5-16.8-16.8v-7.1h-5.5v-9.9h5.5v-9.4h11.2v9.4h6.6v9.9H936.1z"/>
					<path style="clip-path:url(#SVGID_00000121239273279357600230000011041695348281501346_);fill:#FFFFFF;" d="M946,1213.2
						c0-9.2,6.6-17.3,18.1-17.3c11.4,0,18.1,8.1,18.1,17.3c0,9.3-6.7,17.4-18.1,17.4C952.7,1230.6,946,1222.5,946,1213.2
						 M970.6,1213.2c0-4.1-2.3-7.2-6.5-7.2c-4.1,0-6.4,3.1-6.4,7.2c0,4.2,2.3,7.3,6.4,7.3C968.3,1220.5,970.6,1217.4,970.6,1213.2"
						/>
					<path style="clip-path:url(#SVGID_00000121239273279357600230000011041695348281501346_);fill:#FFFFFF;" d="M988.1,1229.8v-33
						h11.2v4.3c2.3-2.8,6.6-5.3,10.1-5.3v10.8c-0.6-0.1-1.3-0.1-2.3-0.1c-3.2,0-7.9,0.9-7.9,6.7v16.6H988.1z"/>
					<path style="clip-path:url(#SVGID_00000121239273279357600230000011041695348281501346_);fill:#FFFFFF;" d="M1012.7,1213.2
						c0-9.2,6-17.3,15.3-17.3c2,0,6.3,0.8,9.2,5.2h0.1v-4.3h11.2v33h-11.2v-4.2h-0.1c-2.9,4.5-7.1,5-9.2,5
						C1019,1230.6,1012.7,1222.5,1012.7,1213.2 M1037.3,1213.2c0-4.1-2.3-7.2-6.5-7.2c-4.1,0-6.4,3.1-6.4,7.2c0,4.2,2.3,7.3,6.4,7.3
						C1035,1220.5,1037.3,1217.4,1037.3,1213.2"/>
					<path style="clip-path:url(#SVGID_00000121239273279357600230000011041695348281501346_);fill:#FFFFFF;" d="M1078.6,1229.8
						v-18.4c0-3.9-2.1-5.4-5.5-5.4c-3.1,0-5.8,2.2-5.8,7.1v16.6h-11.2v-33h11.2v4.3c2.2-2.8,6.3-5.2,12-5.2c5.3,0,8.5,2.5,9.8,6
						c2.3-2.9,6-6,12.7-6c7.2,0,10.5,4.5,10.5,10.2v23.7h-11.2v-18.4c0-3.9-2.1-5.4-5.5-5.4c-6.1,0-5.8,7.1-5.8,7.1v16.6H1078.6z"/>
					<path style="clip-path:url(#SVGID_00000121239273279357600230000011041695348281501346_);fill:#FFFFFF;" d="M1118.2,1213.2
						c0-9.2,6-17.3,15.3-17.3c2,0,6.3,0.8,9.2,5.2h0.1v-4.3h11.2v33h-11.2v-4.2h-0.1c-2.9,4.5-7.1,5-9.2,5
						C1124.5,1230.6,1118.2,1222.5,1118.2,1213.2 M1142.8,1213.2c0-4.1-2.3-7.2-6.5-7.2c-4.1,0-6.4,3.1-6.4,7.2
						c0,4.2,2.3,7.3,6.4,7.3C1140.4,1220.5,1142.8,1217.4,1142.8,1213.2"/>
					<path style="clip-path:url(#SVGID_00000121239273279357600230000011041695348281501346_);fill:#FFFFFF;" d="M294,693.5
						c0-7.7,6.3-13.7,14.2-13.7c7.5,0,13.9,6,13.9,13.7c0,7.5-6.3,13.7-13.9,13.7C300.4,707.2,294,701,294,693.5 M294,721.7h28.1
						v82.5H294V721.7z"/>
					<path style="clip-path:url(#SVGID_00000121239273279357600230000011041695348281501346_);fill:#FFFFFF;" d="M397.3,804.2v-45.9
						c0-9.8-5.3-13.5-13.7-13.5c-7.7,0-14.6,5.5-14.6,17.8v41.6h-28.1v-82.5H369v10.8c5.5-7,15.7-13,30-13c18,0,26.4,11.3,26.4,25.5
						v59.2H397.3z"/>
					<path style="clip-path:url(#SVGID_00000121239273279357600230000011041695348281501346_);fill:#FFFFFF;" d="M439.9,794.3
						c3.8-6.5,7.4-12.3,11.1-18.8c7,5.1,20.4,9.9,29.1,9.9c7.5,0,9.8-2.1,9.8-5c0-4.1-5.5-4.8-12.7-5.8
						c-13.4-2.1-34.4-6.7-34.4-27.7c0-14.6,12.7-27.4,35.6-27.4c12.8,0,24.8,3.9,33.9,10.1c-3.4,6.5-6.5,11.5-9.9,17.8
						c-5.5-3.9-14.7-7.9-23.8-7.9c-5.3,0-9.1,1.9-9.1,5.1c0,3.3,5.1,4.1,12,5.1c13.2,2.1,34.9,7.2,34.9,28.6
						c0,16.1-14.2,27.9-37.8,27.9C463.9,806.3,448.6,801.7,439.9,794.3"/>
					<path style="clip-path:url(#SVGID_00000121239273279357600230000011041695348281501346_);fill:#FFFFFF;" d="M566.4,746.4v20.9
						c0,7.7,2.2,14,14,14v25c-28.2,0-42.1-18.8-42.1-42.1v-17.8h-13.7v-24.7h13.7v-23.5h28.1v23.5H583v24.7H566.4z"/>
					<path style="clip-path:url(#SVGID_00000121239273279357600230000011041695348281501346_);fill:#FFFFFF;" d="M591.2,762.8
						c0-23.1,15.1-43.3,38.3-43.3c5,0,15.7,1.9,22.9,13h0.2v-10.8h28.1v82.5h-28.1v-10.4h-0.2c-7.2,11.1-17.8,12.5-22.9,12.5
						C607,806.3,591.2,786.1,591.2,762.8 M652.7,762.8c0-10.3-5.8-18-16.3-18c-10.3,0-16.1,7.7-16.1,18c0,10.4,5.8,18.3,16.1,18.3
						C646.9,781.1,652.7,773.3,652.7,762.8"/>
					
						<rect x="699.6" y="690.2" style="clip-path:url(#SVGID_00000121239273279357600230000011041695348281501346_);fill:#FFFFFF;" width="28.1" height="114"/>
					
						<rect x="746.5" y="690.2" style="clip-path:url(#SVGID_00000121239273279357600230000011041695348281501346_);fill:#FFFFFF;" width="28.1" height="114"/>
					<path style="clip-path:url(#SVGID_00000121239273279357600230000011041695348281501346_);fill:#FFFFFF;" d="M789.1,762.8
						c0-23.1,15.1-43.3,38.3-43.3c5,0,15.8,1.9,22.9,13h0.2v-10.8h28.1v82.5h-28.1v-10.4h-0.2c-7.2,11.1-17.8,12.5-22.9,12.5
						C804.9,806.3,789.1,786.1,789.1,762.8 M850.6,762.8c0-10.3-5.8-18-16.3-18c-10.3,0-16.1,7.7-16.1,18c0,10.4,5.8,18.3,16.1,18.3
						C844.8,781.1,850.6,773.3,850.6,762.8"/>
					<path style="clip-path:url(#SVGID_00000121239273279357600230000011041695348281501346_);fill:#FFFFFF;" d="M932.9,746.4v20.9
						c0,7.7,2.2,14,14,14v25c-28.2,0-42.1-18.8-42.1-42.1v-17.8h-13.7v-24.7h13.7v-23.5h28.1v23.5h16.6v24.7H932.9z"/>
					<path style="clip-path:url(#SVGID_00000121239273279357600230000011041695348281501346_);fill:#FFFFFF;" d="M962,693.5
						c0-7.7,6.3-13.7,14.2-13.7c7.5,0,13.9,6,13.9,13.7c0,7.5-6.3,13.7-13.9,13.7C968.4,707.2,962,701,962,693.5 M962,721.7h28.1
						v82.5H962V721.7z"/>
					<path style="clip-path:url(#SVGID_00000121239273279357600230000011041695348281501346_);fill:#FFFFFF;" d="M1004.6,762.8
						c0-23.1,16.6-43.3,45.2-43.3c28.6,0,45.4,20.2,45.4,43.3c0,23.3-16.8,43.5-45.4,43.5C1021.3,806.3,1004.6,786.1,1004.6,762.8
						 M1066.1,762.8c0-10.3-5.8-18-16.3-18c-10.3,0-16.1,7.7-16.1,18c0,10.4,5.8,18.3,16.1,18.3
						C1060.3,781.1,1066.1,773.3,1066.1,762.8"/>
					<path style="clip-path:url(#SVGID_00000121239273279357600230000011041695348281501346_);fill:#FFFFFF;" d="M1166.1,804.2
						v-45.9c0-9.8-5.3-13.5-13.7-13.5c-7.7,0-14.6,5.5-14.6,17.8v41.6h-28.1v-82.5h28.1v10.8c5.5-7,15.7-13,30-13
						c18,0,26.4,11.3,26.4,25.5v59.2H1166.1z"/>
					<path style="clip-path:url(#SVGID_00000121239273279357600230000011041695348281501346_);fill:#FFFFFF;" d="M333.3,897.5
						c0-23.1,15.1-43.3,38.3-43.3c5,0,15.8,1.9,22.9,13h0.2v-10.8h28.1v82.5h-28.1v-10.4h-0.2c-7.2,11.1-17.8,12.5-22.9,12.5
						C349.1,941,333.3,920.8,333.3,897.5 M381.1,832.8c1.9,1.9,2.7,4.3,2.7,6.7c0,2.4-0.9,5-2.7,6.8c-2.1,1.9-4.3,2.9-6.8,2.9
						c-2.2,0-5-1.4-6.8-2.9l-10.8-11c-2.1-1.7-2.9-4.1-2.9-6.7c0-2.4,0.9-5,2.9-7c1.7-1.7,4.5-2.7,6.7-2.7c2.6,0,5,1,6.8,2.9
						L381.1,832.8z M394.8,897.5c0-10.3-5.8-18-16.3-18c-10.3,0-16.1,7.7-16.1,18c0,10.4,5.8,18.3,16.1,18.3
						C389,915.8,394.8,907.9,394.8,897.5"/>
					<path style="clip-path:url(#SVGID_00000121239273279357600230000011041695348281501346_);fill:#FFFFFF;" d="M477.6,897.5
						c0-23.1,15.1-43.3,38.3-43.3c5,0,15.7,1.9,22.9,13h0.2v-42.3h28.1v114h-28.1v-10.4h-0.2c-7.2,11.1-17.8,12.5-22.9,12.5
						C493.4,941,477.6,920.8,477.6,897.5 M539.1,897.5c0-10.3-5.8-18-16.3-18c-10.3,0-16.1,7.7-16.1,18c0,10.4,5.8,18.3,16.1,18.3
						C533.3,915.8,539.1,907.9,539.1,897.5"/>
					<path style="clip-path:url(#SVGID_00000121239273279357600230000011041695348281501346_);fill:#FFFFFF;" d="M581.7,897.5
						c0-23.1,16.6-43.3,45.2-43.3s45.4,20.2,45.4,43.3c0,23.3-16.8,43.5-45.4,43.5S581.7,920.8,581.7,897.5 M643.2,897.5
						c0-10.3-5.8-18-16.3-18c-10.3,0-16.1,7.7-16.1,18c0,10.4,5.8,18.3,16.1,18.3C637.4,915.8,643.2,907.9,643.2,897.5"/>
					<path style="clip-path:url(#SVGID_00000121239273279357600230000011041695348281501346_);fill:#FFFFFF;" d="M743.2,938.9V893
						c0-9.8-5.3-13.5-13.7-13.5c-7.7,0-14.6,5.5-14.6,17.8v41.6h-28.1v-82.5h28.1v10.8c5.5-7,15.7-13,30-13
						c13.2,0,21.2,6.2,24.5,15.1c5.7-7.4,14.9-15.1,31.8-15.1c18,0,26.4,11.3,26.4,25.5v59.2h-28.1V893c0-9.8-5.3-13.5-13.7-13.5
						c-15.2,0-14.6,17.8-14.6,17.8v41.6H743.2z"/>
					<path style="clip-path:url(#SVGID_00000121239273279357600230000011041695348281501346_);fill:#FFFFFF;" d="M846.4,828.2
						c0-7.7,6.3-13.7,14.2-13.7c7.5,0,13.9,6,13.9,13.7c0,7.5-6.3,13.7-13.9,13.7C852.7,841.9,846.4,835.7,846.4,828.2 M846.4,856.4
						h28.1v82.5h-28.1V856.4z"/>
					<path style="clip-path:url(#SVGID_00000121239273279357600230000011041695348281501346_);fill:#FFFFFF;" d="M889,897.5
						c0-26.2,19.7-43.3,45-43.3c17.5,0,28.2,7.7,33.2,14.4L949.6,886c-2.9-3.8-7.7-6.5-14.2-6.5c-9.4,0-17.6,6.2-17.6,18
						c0,11.8,8.2,18.3,17.6,18.3c6.3,0,11.5-3.3,14.4-6.7c6.3,6.3,11.3,11.6,17.5,17.6c-5,6.5-15.9,14.2-33.2,14.2
						C908.7,941,889,923.9,889,897.5"/>
					<path style="clip-path:url(#SVGID_00000121239273279357600230000011041695348281501346_);fill:#FFFFFF;" d="M980.1,828.2
						c0-7.7,6.3-13.7,14.2-13.7c7.5,0,13.9,6,13.9,13.7c0,7.5-6.3,13.7-13.9,13.7C986.4,841.9,980.1,835.7,980.1,828.2 M980.1,856.4
						h28.1v82.5h-28.1V856.4z"/>
					
						<rect x="1027" y="824.9" style="clip-path:url(#SVGID_00000121239273279357600230000011041695348281501346_);fill:#FFFFFF;" width="28.1" height="114"/>
					<path style="clip-path:url(#SVGID_00000121239273279357600230000011041695348281501346_);fill:#FFFFFF;" d="M1069.6,897.5
						c0-24,18-43.3,44-43.3c23.3,0,41.4,17.5,41.4,46.7v5.1h-56.7c1.9,6.8,8.6,13.5,19.5,13.5c4.4,0,13.9-2.1,18.8-5.3l11.3,17.5
						c-8,6.3-21.9,9.2-33.6,9.2C1089.3,941,1069.6,924.7,1069.6,897.5 M1113.6,875.6c-10.4,0-14.4,8.2-15.4,13.2h30.6
						C1127.6,882.9,1124.6,875.6,1113.6,875.6"/>
					<path style="clip-path:url(#SVGID_00000121239273279357600230000011041695348281501346_);fill:#FFFFFF;" d="M872.5,573.3V565
						c0-46.7-30.4-86.5-70.3-100.6l-18.7,15.4c-0.3,0.2-0.7,0.4-1,0.4c-0.2,0-0.3,0-0.5-0.1c-0.5-0.2-0.9-0.6-1.1-1.1l-6.1-20.1
						l-0.2,0l-9,35.8v-0.2l0,0.1l0-0.1v0.2l-9-35.8l0,0l-6.1,20.1c-0.2,0.5-0.6,0.9-1.1,1.1c-0.2,0-0.3,0.1-0.5,0.1
						c-0.4,0-0.7-0.1-1-0.4l-18.7-15.4c-16.1,5.7-30.6,15.5-42.2,28.3c0.2,0.8,0.4,1.5,0.8,2.1l0,0c5.5,7.1,8.5,15.6,8.6,24.6
						l0.6,47.3c0.1,6.3-1.3,12.5-3.9,18h168.3c0,0,5,0,8.1-3.1C872.9,578,872.5,573.3,872.5,573.3 M809.5,522.7h-12.7
						c-4.2,0-7.6-3.4-7.6-7.6c0-4.2,3.4-7.6,7.6-7.6h12.7c4.2,0,7.6,3.4,7.6,7.6C817.2,519.3,813.7,522.7,809.5,522.7"/>
					<path style="clip-path:url(#SVGID_00000121239273279357600230000011041695348281501346_);fill:#FFFFFF;" d="M766.5,313.4
						c-34.4,0-62.3,27.9-62.3,62.3c0,34.4,27.9,62.3,62.3,62.3c34.4,0,62.3-27.9,62.3-62.3C828.8,341.3,800.9,313.4,766.5,313.4
						 M767,423.4c-27.7,0-39-26.9-39-26.9h76C803.9,396.5,794.7,423.4,767,423.4"/>
					<path style="clip-path:url(#SVGID_00000121239273279357600230000011041695348281501346_);fill:#FFFFFF;" d="M655.6,363.2
						l-18.1,0.2c-0.7,0-1.3,0.5-1.4,1.2l-7.6,35c-0.1,0.5,0.1,1,0.4,1.4l7.8,7.4l0.5,41.4c0,1,0.4,2,1.2,2.7
						c0.7,0.7,1.7,1.1,2.7,1.1l13.6-0.2c1,0,2-0.4,2.7-1.2c0.7-0.7,1.1-1.7,1.1-2.7l-0.5-43.2l6.2-6.3l0,0c0.4-0.4,0.5-0.9,0.4-1.4
						l-7.5-34.4C656.9,363.6,656.3,363.2,655.6,363.2"/>
					<path style="clip-path:url(#SVGID_00000121239273279357600230000011041695348281501346_);fill:#FFFFFF;" d="M679.8,519.4
						c-0.1-7.1-2.5-13.6-6.6-18.9l0,0c-1.8-2.5-2.9-5.7-2.9-9.3c-0.1-5.9,2.8-11.1,7-13.4l0.5-0.2l0,0l0,0c0,0,0,0,0,0
						c0.1-0.1,0.3-0.2,0.4-0.2c0,0,0.1-0.1,0.1-0.1c0.1-0.1,0.2-0.2,0.3-0.4c0,0,0,0,0,0c0.1-0.1,0.2-0.3,0.2-0.4c0,0,0-0.1,0-0.1
						c0-0.2,0.1-0.4,0.1-0.5l-0.2-12.6c0-1.2-1-2.1-2.1-2.1l-59,0.7c-1.2,0-2.1,1-2.1,2.1l0.2,12.6c0,0.2,0,0.4,0.1,0.5
						c0,0,0,0.1,0,0.1c0.1,0.2,0.1,0.3,0.2,0.4c0,0,0,0,0,0c0.1,0.1,0.2,0.3,0.3,0.4c0,0,0.1,0.1,0.1,0.1c0.1,0.1,0.3,0.2,0.4,0.2
						c0,0,0,0,0,0l0,0c0,0,0,0,0,0l0.5,0.2c4.2,2.2,7.2,7.3,7.3,13.2c0,3.7-0.8,6.9-2.6,9.5c-3.9,5.3-6.2,11.9-6.1,18.9l0.6,50
						c0.2,17.4,14.6,31.4,32,31.2l0.4,0c17.4-0.2,31.4-14.6,31.2-32L679.8,519.4z M642.1,575.9c-1.2,1.2-2.9,2-4.7,2
						c-3.7,0-6.7-2.9-6.8-6.6l-0.6-52c0-3.7,2.9-6.7,6.6-6.8c3.7,0,6.7,2.9,6.8,6.6l0.6,52C644,573,643.3,574.6,642.1,575.9
						 M665.1,575.6c-1.2,1.2-2.9,2-4.7,2c-3.7,0-6.7-2.9-6.8-6.6l-0.6-52c0-3.7,2.9-6.7,6.6-6.8c3.7,0,6.7,2.9,6.8,6.6l0.6,52
						C667,572.7,666.3,574.4,665.1,575.6"/>
					<polygon style="clip-path:url(#SVGID_00000121239273279357600230000011041695348281501346_);fill:#FFFFFF;" points="
						778.3,459.3 783.3,475.7 799.5,462.3 796.4,453.2 					"/>
					<polygon style="clip-path:url(#SVGID_00000121239273279357600230000011041695348281501346_);fill:#FFFFFF;" points="748,475.7 
						753,459.3 734.8,453.2 731.7,462.3 					"/>
				</g>
			</g>
		</g>
	</g>
	<g style="clip-path:url(#SVGID_00000074401850505246730860000000446966186198357676_);">
		<defs>
			<rect id="SVGID_00000132804644061690322710000003724081312542219923_" x="1488.2" y="-14.2" width="1502.4" height="1516.5"/>
		</defs>
		<clipPath id="SVGID_00000151542751654986995380000006603440069193887895_">
			<use xlink:href="#SVGID_00000132804644061690322710000003724081312542219923_"  style="overflow:visible;"/>
		</clipPath>
		<g style="clip-path:url(#SVGID_00000151542751654986995380000006603440069193887895_);">
			<g>
				<defs>
					<rect id="SVGID_00000101077573052338079720000017977432379676877732_" x="1474" y="-14.2" width="1516.5" height="1516.5"/>
				</defs>
				<clipPath id="SVGID_00000055688911960592162700000004379240640236736169_">
					<use xlink:href="#SVGID_00000101077573052338079720000017977432379676877732_"  style="overflow:visible;"/>
				</clipPath>
				
					<rect x="1474" y="-14.2" style="clip-path:url(#SVGID_00000055688911960592162700000004379240640236736169_);fill:#005CB9;" width="1516.5" height="1516.5"/>
				<g style="clip-path:url(#SVGID_00000055688911960592162700000004379240640236736169_);">
					<text transform="matrix(1 0 0 1 1840.3699 804.8099)" class="st8 st9 st10">avantage</text>
				</g>
				<g style="clip-path:url(#SVGID_00000055688911960592162700000004379240640236736169_);">
					<text transform="matrix(1 0 0 1 2020.5837 938.618)" class="st8 st9 st10">carte</text>
				</g>
				<g style="clip-path:url(#SVGID_00000055688911960592162700000004379240640236736169_);">
					<text transform="matrix(1.0071 0 0 1 1960.1433 1099.8918)" class="st8 st11 st12">Carte castorama</text>
				</g>
				<g style="clip-path:url(#SVGID_00000055688911960592162700000004379240640236736169_);">
					<text transform="matrix(1 0 0 1 1919.033 1169.6741)" class="st8 st9 st12">Bien accompagné, </text>
				</g>
				<g style="clip-path:url(#SVGID_00000055688911960592162700000004379240640236736169_);">
					<text transform="matrix(1 0 0 1 1891.0505 1239.4568)" class="st8 st9 st12">en avant les projets !</text>
				</g>
				<g style="clip-path:url(#SVGID_00000055688911960592162700000004379240640236736169_);">
					<defs>
						<rect id="SVGID_00000095318376846746081730000015110892694461810853_" x="1474" y="-14.2" width="1516.5" height="1516.5"/>
					</defs>
					<clipPath id="SVGID_00000062193931097024942690000014904803480190160024_">
						<use xlink:href="#SVGID_00000095318376846746081730000015110892694461810853_"  style="overflow:visible;"/>
					</clipPath>
					<path style="clip-path:url(#SVGID_00000062193931097024942690000014904803480190160024_);fill:#FFFFFF;" d="M2438.8,417.9
						c-0.1-29.6-24.1-53.5-53.8-53.4l-8.1,0l30,83.1c5.6,15.6,4.9,32.4-2.2,47.4c-7,15-19.5,26.4-35.1,32L2173.2,598l212.5-0.6
						c29.6-0.1,53.5-24.2,53.4-53.8L2438.8,417.9z"/>
					<path style="clip-path:url(#SVGID_00000062193931097024942690000014904803480190160024_);fill:#FFFFFF;" d="M2391.1,453.3
						l-34.9-96.6l-273.3,98.8c-1.9,0.7-3.8,1-5.7,1c-6.9,0-13.4-4.3-15.9-11.2c-3.2-8.8,1.4-18.5,10.2-21.6l272-98.3
						c-8.3-12.3-22.2-20.2-37.4-20.2c-5.2,0-10.4,0.9-15.4,2.7L2055.2,393c-23.4,8.5-35.6,34.4-27.1,57.8l42.8,118.3
						c8.2,22.7,34.8,35.4,57.8,27.1l235.3-85.1c11.3-4.1,20.4-12.4,25.5-23.3C2394.6,476.9,2395.2,464.6,2391.1,453.3"/>
				</g>
			</g>
		</g>
	</g>
	
		<line style="clip-path:url(#SVGID_00000074401850505246730860000000446966186198357676_);fill:none;stroke:#FFFFFF;stroke-width:6;stroke-miterlimit:10;" x1="1488.2" y1="1502.4" x2="1488.2" y2="-14.2"/>
</g>
</svg>
