<?xml version="1.0" encoding="utf-8"?>
<!-- Generator: Adobe Illustrator 26.5.0, SVG Export Plug-In . SVG Version: 6.00 Build 0)  -->
<svg version="1.1" id="Calque_1" xmlns="http://www.w3.org/2000/svg" xmlns:xlink="http://www.w3.org/1999/xlink" x="0px" y="0px"
	 viewBox="0 0 2976.4 1488.2" style="enable-background:new 0 0 2976.4 1488.2;" xml:space="preserve">
<style type="text/css">
	.st0{display:none;fill:none;stroke:#FFFFFF;stroke-width:6;stroke-miterlimit:10;}
	.st1{clip-path:url(#SVGID_00000159444231356389232070000014903202838359593362_);}
	.st2{clip-path:url(#SVGID_00000125590618753779557630000013757491820979802241_);}
	.st3{clip-path:url(#SVGID_00000062870842555944559450000015954731846601348005_);fill:#FFD100;}
	.st4{clip-path:url(#SVGID_00000060730854217987143150000008341980747012124572_);}
	.st5{enable-background:new    ;}
	.st6{fill:#005CB9;}
	.st7{clip-path:url(#SVGID_00000160168755936311350250000008427800478202829487_);}
	.st8{clip-path:url(#SVGID_00000060733960537896215250000010795517040871146679_);}
	.st9{clip-path:url(#SVGID_00000064331110043887685160000005531508762106114726_);}
	.st10{clip-path:url(#SVGID_00000072998634327985718620000009520552303013863598_);}
	.st11{clip-path:url(#SVGID_00000009578886003299713160000012248330471202168245_);fill:#005CB9;}
	.st12{clip-path:url(#SVGID_00000154420222954641264160000004168965463303152798_);fill:#005CB9;}
	.st13{clip-path:url(#SVGID_00000035513760543667628810000016344088648140070062_);fill:#005CB9;}
	.st14{clip-path:url(#SVGID_00000001663130219540708970000005152872869405474209_);}
	.st15{clip-path:url(#SVGID_00000116200642557037302070000013696340397096431501_);}
	.st16{clip-path:url(#SVGID_00000020397089512802866560000004213351691226853807_);fill:#005CB9;}
	.st17{clip-path:url(#SVGID_00000134221737196880735760000013570874174868521654_);}
	.st18{fill:#FFFFFF;}
	.st19{clip-path:url(#SVGID_00000044158163650461474140000010336188104658602411_);}
	.st20{clip-path:url(#SVGID_00000049200430618003330460000002684551795668919449_);}
	.st21{clip-path:url(#SVGID_00000135656228042742832780000000517218041337315757_);}
	.st22{clip-path:url(#SVGID_00000129174585789883034490000011986486548361277625_);}
	.st23{clip-path:url(#SVGID_00000121260630500391036990000013574086421411499661_);}
	.st24{clip-path:url(#SVGID_00000172423591877690864140000003035873141834220929_);fill:#FFFFFF;}
	.st25{clip-path:url(#SVGID_00000125592857550794128230000009344632191883765642_);fill:#FFFFFF;}
</style>
<line class="st0" x1="1488.2" y1="1502.4" x2="1488.2" y2="-14.2"/>
<g>
	<g>
		<defs>
			<rect id="SVGID_1_" y="0" width="2976.4" height="1488.2"/>
		</defs>
		<clipPath id="SVGID_00000060728698836387660280000010305227888226140084_">
			<use xlink:href="#SVGID_1_"  style="overflow:visible;"/>
		</clipPath>
		<g style="clip-path:url(#SVGID_00000060728698836387660280000010305227888226140084_);">
			<g>
				<defs>
					<rect id="SVGID_00000168099450603277317420000010184992095326311845_" x="-14.2" y="-14.2" width="1502.4" height="1516.5"/>
				</defs>
				<clipPath id="SVGID_00000073716420049377672840000007346461843079439242_">
					<use xlink:href="#SVGID_00000168099450603277317420000010184992095326311845_"  style="overflow:visible;"/>
				</clipPath>
				<g style="clip-path:url(#SVGID_00000073716420049377672840000007346461843079439242_);">
					<g>
						<g>
							<defs>
								
									<rect id="SVGID_00000163776872428740753410000011305054824732011403_" x="-14.2" y="-14.2" width="1516.5" height="1516.5"/>
							</defs>
							<clipPath id="SVGID_00000010287903082229479890000016064424296191250357_">
								<use xlink:href="#SVGID_00000163776872428740753410000011305054824732011403_"  style="overflow:visible;"/>
							</clipPath>
							
								<rect x="-14" y="-13.9" style="clip-path:url(#SVGID_00000010287903082229479890000016064424296191250357_);fill:#FFD100;" width="1516.4" height="1516.2"/>
						</g>
						<g>
							<defs>
								
									<rect id="SVGID_00000009570423344402392540000008396240443594886287_" x="-14.2" y="-14.2" width="1516.5" height="1516.5"/>
							</defs>
							<clipPath id="SVGID_00000167364702301581644560000013370933925978104450_">
								<use xlink:href="#SVGID_00000009570423344402392540000008396240443594886287_"  style="overflow:visible;"/>
							</clipPath>
							<g style="clip-path:url(#SVGID_00000167364702301581644560000013370933925978104450_);">
								<g class="st5">
									<path class="st6" d="M400.9,805.1V688.9h28.6v116.2H400.9z"/>
									<path class="st6" d="M448.7,692.2c0-7.9,6.5-14,14.5-14c7.7,0,14.1,6.1,14.1,14c0,7.7-6.5,14-14.1,14
										C455.2,706.2,448.7,699.9,448.7,692.2z M448.7,805.1V721h28.6v84.1H448.7z"/>
									<path class="st6" d="M518.1,805.1L486.9,721h29.8l17.1,53l17.4-53h30.2l-31.8,84.1H518.1z"/>
									<path class="st6" d="M589.3,805.1V721h28.6v11c5.8-7.2,16.9-13.6,25.8-13.6V746c-1.6-0.3-3.3-0.3-5.8-0.3
										c-8.2,0-20.1,2.3-20.1,17.1v42.4H589.3z"/>
									<path class="st6" d="M652.1,762.9c0-23.6,15.4-44.1,39.1-44.1c5.1,0,16,1.9,23.4,13.3h0.2v-11h28.6v84.1h-28.6v-10.6h-0.2
										c-7.3,11.3-18.1,12.7-23.4,12.7C668.2,807.2,652.1,786.6,652.1,762.9z M714.8,762.9c0-10.5-5.9-18.3-16.6-18.3
										c-10.5,0-16.4,7.9-16.4,18.3c0,10.6,5.9,18.7,16.4,18.7C708.8,781.6,714.8,773.5,714.8,762.9z"/>
									<path class="st6" d="M762.6,692.2c0-7.9,6.5-14,14.5-14c7.7,0,14.1,6.1,14.1,14c0,7.7-6.5,14-14.1,14
										C769,706.2,762.6,699.9,762.6,692.2z M762.6,805.1V721h28.6v84.1H762.6z"/>
									<path class="st6" d="M806,795c3.8-6.6,7.5-12.6,11.3-19.2c7.2,5.2,20.8,10.1,29.7,10.1c7.7,0,9.9-2.1,9.9-5.1
										c0-4.2-5.6-4.9-12.9-5.9c-13.6-2.1-35.1-6.8-35.1-28.3c0-14.8,12.9-27.9,36.3-27.9c13.1,0,25.3,4,34.5,10.3
										c-3.5,6.6-6.6,11.7-10.1,18.1c-5.6-4-15-8-24.2-8c-5.4,0-9.2,1.9-9.2,5.2s5.2,4.2,12.2,5.2c13.4,2.1,35.6,7.3,35.6,29.1
										c0,16.4-14.5,28.4-38.6,28.4C830.4,807.2,814.9,802.5,806,795z"/>
									<path class="st6" d="M894.4,762.9c0-23.6,16.9-44.1,46.1-44.1s46.2,20.6,46.2,44.1c0,23.7-17.1,44.3-46.2,44.3
										S894.4,786.6,894.4,762.9z M957.1,762.9c0-10.5-5.9-18.3-16.6-18.3c-10.5,0-16.4,7.9-16.4,18.3c0,10.6,5.9,18.7,16.4,18.7
										C951.1,781.6,957.1,773.5,957.1,762.9z"/>
									<path class="st6" d="M1058.9,805.1v-46.8c0-9.9-5.4-13.8-14-13.8c-7.9,0-14.8,5.6-14.8,18.1v42.4h-28.6V721h28.6v11
										c5.6-7.2,16-13.3,30.5-13.3c18.3,0,26.9,11.5,26.9,26v60.4H1058.9z"/>
								</g>
							</g>
						</g>
						<g>
							<defs>
								
									<rect id="SVGID_00000048498563460744443650000014481192837028156592_" x="-14.2" y="-14.2" width="1516.5" height="1516.5"/>
							</defs>
							<clipPath id="SVGID_00000083779998985357937870000012877386865586699949_">
								<use xlink:href="#SVGID_00000048498563460744443650000014481192837028156592_"  style="overflow:visible;"/>
							</clipPath>
							<g style="clip-path:url(#SVGID_00000083779998985357937870000012877386865586699949_);">
								<g class="st5">
									<path class="st6" d="M325.7,896.7c0-23.6,15.4-44.1,39.1-44.1c5.1,0,16,1.9,23.4,13.3h0.2v-11H417v84.1h-28.6v-10.6h-0.2
										c-7.3,11.3-18.1,12.7-23.4,12.7C341.8,941,325.7,920.4,325.7,896.7z M374.4,830.8c1.9,1.9,2.8,4.4,2.8,6.8s-0.9,5.1-2.8,7
										c-2.1,1.9-4.4,3-7,3c-2.3,0-5.1-1.4-7-3l-11-11.2c-2.1-1.7-3-4.2-3-6.8c0-2.4,0.9-5.1,3-7.2c1.7-1.7,4.5-2.8,6.8-2.8
										c2.6,0,5.1,1,7,3L374.4,830.8z M388.4,896.7c0-10.5-5.9-18.3-16.6-18.3c-10.5,0-16.4,7.9-16.4,18.3
										c0,10.6,5.9,18.7,16.4,18.7C382.4,915.4,388.4,907.3,388.4,896.7z"/>
									<path class="st6" d="M472.8,896.7c0-23.6,15.4-44.1,39.1-44.1c5.1,0,16,1.9,23.4,13.3h0.2v-43.1H564v116.2h-28.6v-10.6
										h-0.2c-7.3,11.3-18.1,12.7-23.4,12.7C488.8,941,472.8,920.4,472.8,896.7z M535.4,896.7c0-10.5-5.9-18.3-16.6-18.3
										c-10.5,0-16.4,7.9-16.4,18.3c0,10.6,5.9,18.7,16.4,18.7C529.5,915.4,535.4,907.3,535.4,896.7z"/>
									<path class="st6" d="M578.9,896.7c0-23.6,16.9-44.1,46.1-44.1s46.2,20.6,46.2,44.1c0,23.7-17.1,44.3-46.2,44.3
										S578.9,920.4,578.9,896.7z M641.5,896.7c0-10.5-5.9-18.3-16.6-18.3c-10.5,0-16.4,7.9-16.4,18.3c0,10.6,5.9,18.7,16.4,18.7
										C635.6,915.4,641.5,907.3,641.5,896.7z"/>
									<path class="st6" d="M743.4,938.9v-46.8c0-9.9-5.4-13.8-14-13.8c-7.9,0-14.8,5.6-14.8,18.1v42.4H686v-84.1h28.6v11
										c5.6-7.2,16-13.3,30.5-13.3c13.4,0,21.6,6.3,24.9,15.4c5.8-7.5,15.2-15.4,32.4-15.4c18.3,0,26.9,11.5,26.9,26v60.4h-28.6
										v-46.8c0-9.9-5.4-13.8-14-13.8c-15.5,0-14.8,18.1-14.8,18.1v42.4H743.4z"/>
									<path class="st6" d="M848.6,826c0-7.9,6.5-14,14.5-14c7.7,0,14.1,6.1,14.1,14c0,7.7-6.5,14-14.1,14
										C855,840,848.6,833.7,848.6,826z M848.6,938.9v-84.1h28.6v84.1H848.6z"/>
									<path class="st6" d="M892,896.7c0-26.7,20.1-44.1,45.9-44.1c17.8,0,28.8,7.9,33.8,14.7l-18,17.8c-3-3.8-7.9-6.6-14.5-6.6
										c-9.6,0-18,6.3-18,18.3s8.4,18.7,18,18.7c6.5,0,11.7-3.3,14.7-6.8c6.5,6.5,11.5,11.9,17.8,18c-5.1,6.6-16.2,14.5-33.8,14.5
										C912.1,941,892,923.6,892,896.7z"/>
									<path class="st6" d="M984.8,826c0-7.9,6.5-14,14.5-14c7.7,0,14.1,6.1,14.1,14c0,7.7-6.5,14-14.1,14
										C991.3,840,984.8,833.7,984.8,826z M984.8,938.9v-84.1h28.6v84.1H984.8z"/>
									<path class="st6" d="M1032.6,938.9V822.7h28.6v116.2H1032.6z"/>
									<path class="st6" d="M1076,896.7c0-24.4,18.3-44.1,44.8-44.1c23.7,0,42.2,17.8,42.2,47.6v5.2h-57.7
										c1.9,7,8.7,13.8,19.9,13.8c4.5,0,14.1-2.1,19.2-5.4l11.5,17.8c-8.2,6.5-22.3,9.4-34.2,9.4
										C1096.1,941,1076,924.4,1076,896.7z M1120.9,874.4c-10.6,0-14.7,8.4-15.7,13.4h31.2C1135.2,881.9,1132,874.4,1120.9,874.4z
										"/>
								</g>
							</g>
						</g>
						<g>
							<defs>
								
									<rect id="SVGID_00000026842893561625055290000007425938748636546970_" x="-14.2" y="-14.2" width="1516.5" height="1516.5"/>
							</defs>
							<clipPath id="SVGID_00000024703913560232283790000012462307984806726799_">
								<use xlink:href="#SVGID_00000026842893561625055290000007425938748636546970_"  style="overflow:visible;"/>
							</clipPath>
							<g style="clip-path:url(#SVGID_00000024703913560232283790000012462307984806726799_);">
								<g class="st5">
									<path class="st6" d="M360.5,1100.2v-46.5h19.1c9.5,0,14.9,6.4,14.9,14c0,7.6-5.4,14-14.9,14h-13.2v18.5H360.5z
										 M378.9,1076.5c5.7,0,9.5-3.6,9.5-8.9s-3.8-8.9-9.5-8.9h-12.4v17.7H378.9z"/>
									<path class="st6" d="M433.2,1066.5v33.7h-5.3v-5c-3.1,4.7-8,5.8-10.9,5.8c-10.5,0-17-8-17-17.7c0-9.8,6.6-17.7,17-17.7
										c2.7,0,7.7,1,10.9,5.9v-5H433.2z M428.4,1083.3c0-6.8-4-13-11.4-13c-7.3,0-11.4,6.1-11.4,13c0,6.9,4,13,11.4,13
										C424.4,1096.3,428.4,1090.2,428.4,1083.3z"/>
									<path class="st6" d="M441,1095.7l2.7-3.8c2.3,2.6,6.6,4.8,11.4,4.8c5.2,0,8.2-2.4,8.2-5.8c0-8.2-21.3-3.1-21.3-15.6
										c0-5.3,4.5-9.7,12.8-9.7c5.9,0,10,2.2,12.7,4.9l-2.5,3.6c-2-2.4-5.7-4.3-10.2-4.3c-4.7,0-7.7,2.3-7.7,5.3
										c0,7.3,21.3,2.5,21.3,15.6c0,5.7-4.6,10.2-13.4,10.2C449.1,1101,444.5,1099.3,441,1095.7z"/>
									<path class="st6" d="M526.6,1053.6v46.5h-5.3v-5c-3.1,4.7-8,5.8-10.9,5.8c-10.5,0-17-8-17-17.7c0-9.8,6.6-17.7,17-17.7
										c2.7,0,7.7,1,10.9,5.9v-17.9H526.6z M521.8,1083.3c0-6.8-4-13-11.4-13c-7.3,0-11.4,6.1-11.4,13c0,6.9,4,13,11.4,13
										C517.7,1096.3,521.8,1090.2,521.8,1083.3z"/>
									<path class="st6" d="M535.2,1083.3c0-9.8,7.1-17.7,17-17.7c10.4,0,16.5,8,16.5,18.1v1.3H541c0.4,6.3,4.9,11.3,12.3,11.3
										c4,0,7.7-1.5,10.4-4.3l2.9,3.8c-3.5,3.3-8.1,5.2-13.7,5.2C542.6,1101,535.2,1093.8,535.2,1083.3z M563.4,1081.1
										c-0.1-5-3.5-10.8-11.3-10.8c-7.3,0-11,5.7-11.2,10.8H563.4z"/>
									<path class="st6" d="M603.1,1087.2c0,1.5,0.2,9.1,8.9,9.1v4.7c-13.8,0-14.2-11.7-14.2-13.7v-16.2h-6v-4.6h6
										c0-5.1,0-9.2,0-9.2h5.3c0,0,0,4.1,0,9.2h8.9v4.6h-8.9V1087.2z"/>
									<path class="st6" d="M617.3,1083.3c0-9.8,7.1-17.7,17-17.7c10.4,0,16.5,8,16.5,18.1v1.3H623c0.4,6.3,4.9,11.3,12.3,11.3
										c4,0,7.7-1.5,10.4-4.3l2.9,3.8c-3.5,3.3-8.1,5.2-13.7,5.2C624.6,1101,617.3,1093.8,617.3,1083.3z M645.5,1081.1
										c-0.1-5-3.5-10.8-11.3-10.8c-7.3,0-11,5.7-11.2,10.8H645.5z"/>
									<path class="st6" d="M711,1076.5v23.7h-5.2v-22c0-5.4-2.6-7.5-6.6-7.7c-7.3,0-11.4,4.7-11.4,9.8v20h-5.2v-22
										c0-6-3.1-7.8-7.7-7.8c-4.2,0-10.2,2.9-10.2,13v16.9h-5.3v-33.7h5.3v4.9c2.4-2.9,7.1-5.7,12.4-5.7c5.3,0,8.7,2,10.1,6.1
										c2.7-3.5,6.7-6.1,13-6.1C707.2,1065.6,711,1069.2,711,1076.5z"/>
									<path class="st6" d="M726.9,1066.5v5c3.2-4.8,8.2-5.9,10.9-5.9c10.5,0,17,7.9,17,17.7c0,9.8-6.6,17.7-17,17.7
										c-2.9,0-7.7-1.1-10.9-5.8v17.9h-5.3v-46.6H726.9z M749.2,1083.3c0-6.8-4-13-11.4-13c-7.3,0-11.4,6.1-11.4,13
										c0,6.9,4,13,11.4,13C745.1,1096.3,749.2,1090.2,749.2,1083.3z"/>
									<path class="st6" d="M760.6,1095.7l2.7-3.8c2.3,2.6,6.6,4.8,11.4,4.8c5.2,0,8.2-2.4,8.2-5.8c0-8.2-21.3-3.1-21.3-15.6
										c0-5.3,4.5-9.7,12.8-9.7c5.9,0,10,2.2,12.7,4.9l-2.5,3.6c-2-2.4-5.7-4.3-10.2-4.3c-4.7,0-7.7,2.3-7.7,5.3
										c0,7.3,21.3,2.5,21.3,15.6c0,5.7-4.6,10.2-13.4,10.2C768.7,1101,764.1,1099.3,760.6,1095.7z"/>
									<path class="st6" d="M846.2,1066.5v33.7h-5.3v-5c-3.1,4.7-8,5.8-10.9,5.8c-10.5,0-17-8-17-17.7c0-9.8,6.6-17.7,17-17.7
										c2.7,0,7.7,1,10.9,5.9v-5H846.2z M841.4,1083.3c0-6.8-4-13-11.4-13c-7.3,0-11.4,6.1-11.4,13c0,6.9,4,13,11.4,13
										C837.3,1096.3,841.4,1090.2,841.4,1083.3z M835.7,1059.3c0,0.6-0.2,1.2-0.6,1.6c-0.5,0.5-1,0.7-1.6,0.7
										c-0.6,0-1.3-0.3-1.7-0.7l-5.6-5.6c-0.5-0.4-0.7-1-0.7-1.6c0-0.6,0.2-1.1,0.7-1.6c0.5-0.5,1-0.7,1.7-0.7
										c0.6,0,1.1,0.2,1.6,0.7l5.6,5.6C835.5,1058.1,835.7,1058.7,835.7,1059.3z"/>
									<path class="st6" d="M880.6,1066.5v5c3.2-4.8,8.2-5.9,10.9-5.9c10.5,0,17,7.9,17,17.7c0,9.8-6.6,17.7-17,17.7
										c-2.9,0-7.7-1.1-10.9-5.8v17.9h-5.3v-46.6H880.6z M902.8,1083.3c0-6.8-4-13-11.4-13c-7.3,0-11.4,6.1-11.4,13
										c0,6.9,4,13,11.4,13C898.8,1096.3,902.8,1090.2,902.8,1083.3z"/>
									<path class="st6" d="M915.1,1083.3c0-9.8,7.1-17.7,17-17.7c10.4,0,16.5,8,16.5,18.1v1.3h-27.8c0.4,6.3,4.9,11.3,12.3,11.3
										c4,0,7.7-1.5,10.4-4.3l2.9,3.8c-3.5,3.3-8.1,5.2-13.7,5.2C922.5,1101,915.1,1093.8,915.1,1083.3z M943.3,1081.1
										c-0.1-5-3.5-10.8-11.3-10.8c-7.3,0-11,5.7-11.2,10.8H943.3z"/>
									<path class="st6" d="M974.9,1071.4c-0.7-0.1-1.4-0.1-2.2-0.1c-4.2,0-10.2,2-10.2,12v16.9h-5.3v-33.7h5.3v4.9
										c2.4-2.9,7.1-5.7,12.4-5.7V1071.4z"/>
									<path class="st6" d="M1012.5,1053.6v46.5h-5.3v-5c-3.1,4.7-8,5.8-10.9,5.8c-10.5,0-17-8-17-17.7c0-9.8,6.6-17.7,17-17.7
										c2.7,0,7.7,1,10.9,5.9v-17.9H1012.5z M1007.7,1083.3c0-6.8-4-13-11.4-13c-7.3,0-11.4,6.1-11.4,13c0,6.9,4,13,11.4,13
										C1003.7,1096.3,1007.7,1090.2,1007.7,1083.3z"/>
									<path class="st6" d="M1040.8,1071.4c-0.7-0.1-1.4-0.1-2.2-0.1c-4.2,0-10.2,2-10.2,12v16.9h-5.3v-33.7h5.3v4.9
										c2.4-2.9,7.1-5.7,12.4-5.7V1071.4z"/>
									<path class="st6" d="M1045.3,1083.3c0-9.8,7.1-17.7,17-17.7c10.4,0,16.5,8,16.5,18.1v1.3h-27.8c0.4,6.3,4.9,11.3,12.3,11.3
										c4,0,7.7-1.5,10.4-4.3l2.9,3.8c-3.5,3.3-8.1,5.2-13.7,5.2C1052.7,1101,1045.3,1093.8,1045.3,1083.3z M1073.5,1081.1
										c-0.1-5-3.5-10.8-11.3-10.8c-7.3,0-11,5.7-11.2,10.8H1073.5z"/>
									<path class="st6" d="M1117.6,1078.3v6.6c0,1.5-1.2,2.6-2.6,2.6c-1.5,0-2.6-1.1-2.6-2.6v-11.3c12.1,0,12.8-7.1,12.8-8.7
										c0-0.2,0-0.3,0-0.3c0-3.5-2.7-6.5-8.3-6.5c-5.4,0-8.7,2.2-11.4,5.7l-3.6-3.8c3.4-4.4,8.7-7.1,15.4-7.1
										c7.8,0,14,4.2,14,11.9C1131.3,1070,1128.7,1076.4,1117.6,1078.3z M1115,1093.7c2,0,3.6,1.6,3.6,3.6c0,2-1.6,3.6-3.6,3.6
										s-3.6-1.5-3.6-3.6C1111.4,1095.3,1113,1093.7,1115,1093.7z"/>
								</g>
							</g>
						</g>
						<g>
							<defs>
								
									<rect id="SVGID_00000171712691257347911240000017426057209528318388_" x="-14.2" y="-14.2" width="1516.5" height="1516.5"/>
							</defs>
							<clipPath id="SVGID_00000078003773608193127080000008592020469334691482_">
								<use xlink:href="#SVGID_00000171712691257347911240000017426057209528318388_"  style="overflow:visible;"/>
							</clipPath>
							<g style="clip-path:url(#SVGID_00000078003773608193127080000008592020469334691482_);">
								<g class="st5">
									<path class="st6" d="M617,1155c-3.5,9.3-12.6,15.8-23.4,15.8c-13.9,0-24.7-9.8-24.7-24c0-14.8,11.2-24,24.9-24
										c10.3,0,16.6,5.7,19.5,11.5l-10.8,5.7c-1.5-2.9-4.7-5.7-8.7-5.7c-7.1,0-11.8,5.6-11.8,12.5c0,7,4.5,12.4,11.6,12.4
										c4.3,0,8-1.7,9.6-4.9h-5.4c-3,0-6-2.6-6-5.7c0-3.2,3-5.7,6-5.7H617V1155z"/>
									<path class="st6" d="M621.2,1153.1c0-9.4,6.1-17.7,15.6-17.7c2,0,6.4,0.8,9.4,5.3h0.1v-4.4h11.4v33.6h-11.4v-4.3h-0.1
										c-2.9,4.5-7.3,5.1-9.4,5.1C627.6,1170.8,621.2,1162.6,621.2,1153.1z M646.3,1153.1c0-4.2-2.4-7.3-6.6-7.3
										c-4.2,0-6.6,3.1-6.6,7.3c0,4.3,2.4,7.5,6.6,7.5C643.9,1160.6,646.3,1157.3,646.3,1153.1z"/>
									<path class="st6" d="M663.6,1153.1c0-9.4,6.1-17.7,15.6-17.7c2,0,6.4,0.8,9.4,5.3h0.1v-4.4h11.4v30.5
										c0,14.5-11.7,17.2-19.7,17.2c-5.5,0-10.5-1.5-14.7-4.7l4.6-8.2c2.7,2.3,6.6,3.4,10,3.4c3.1,0,8.3-1.3,8.3-7.3v-1.6h-0.1
										c-2.9,4.5-7.3,4.7-9.4,4.7C670.1,1170.5,663.6,1162.6,663.6,1153.1z M688.7,1153.1c0-4.2-2.4-7.3-6.6-7.3
										c-4.2,0-6.6,3.1-6.6,7.3c0,4.3,2.4,7.5,6.6,7.5C686.3,1160.6,688.7,1157.3,688.7,1153.1z"/>
									<path class="st6" d="M730.8,1170v-18.7c0-4-2.2-5.5-5.6-5.5c-3.1,0-5.9,2.2-5.9,7.3v17h-11.4v-33.6h11.4v4.4
										c2.2-2.9,6.4-5.3,12.2-5.3c7.3,0,10.7,4.6,10.7,10.4v24.1H730.8z"/>
									<path class="st6" d="M748.1,1153.1c0-9.8,7.3-17.7,17.9-17.7c9.5,0,16.9,7.1,16.9,19v2.1h-23.1c0.8,2.8,3.5,5.5,8,5.5
										c1.8,0,5.7-0.8,7.7-2.2l4.6,7.1c-3.3,2.6-8.9,3.8-13.7,3.8C756.2,1170.8,748.1,1164.2,748.1,1153.1z M766.1,1144.2
										c-4.3,0-5.9,3.3-6.3,5.4h12.5C771.8,1147.2,770.5,1144.2,766.1,1144.2z"/>
									<path class="st6" d="M786.5,1170v-8.7l12.6-14.9h-12.6v-10h27.9v8.3l-12.8,15.2h13.1v10.1H786.5z"/>
									<path class="st6" d="M823,1148.3h11.7c2.7,0,4.8,2.2,4.8,4.8c0,2.7-2.2,4.8-4.8,4.8H823c-2.7,0-4.8-2.2-4.8-4.8
										C818.1,1150.4,820.3,1148.3,823,1148.3z"/>
									<path class="st6" d="M842.7,1153.1c0-9.8,7.3-17.7,17.9-17.7c9.5,0,16.9,7.1,16.9,19v2.1h-23.1c0.8,2.8,3.5,5.5,8,5.5
										c1.8,0,5.7-0.8,7.7-2.2l4.6,7.1c-3.3,2.6-8.9,3.8-13.7,3.8C850.7,1170.8,842.7,1164.2,842.7,1153.1z M860.6,1144.2
										c-4.3,0-5.9,3.3-6.3,5.4h12.5C866.4,1147.2,865.1,1144.2,860.6,1144.2z"/>
									<path class="st6" d="M905.7,1170v-18.7c0-4-2.2-5.5-5.6-5.5c-3.1,0-5.9,2.2-5.9,7.3v17h-11.4v-33.6h11.4v4.4
										c2.2-2.9,6.4-5.3,12.2-5.3c7.3,0,10.7,4.6,10.7,10.4v24.1H905.7z"/>
								</g>
							</g>
						</g>
						<g>
							<defs>
								
									<rect id="SVGID_00000163043666126620319800000008518269348501654913_" x="-14.2" y="-14.2" width="1516.5" height="1516.5"/>
							</defs>
							<clipPath id="SVGID_00000029015363617013047630000009204881534312648069_">
								<use xlink:href="#SVGID_00000163043666126620319800000008518269348501654913_"  style="overflow:visible;"/>
							</clipPath>
							<g style="clip-path:url(#SVGID_00000029015363617013047630000009204881534312648069_);">
								<g>
									<defs>
										
											<rect id="SVGID_00000101102316268855579450000008729137947821383065_" x="-14.2" y="-14.2" width="1516.5" height="1516.5"/>
									</defs>
									<clipPath id="SVGID_00000026145188058699781540000015855653755482677394_">
										<use xlink:href="#SVGID_00000101102316268855579450000008729137947821383065_"  style="overflow:visible;"/>
									</clipPath>
									<path style="clip-path:url(#SVGID_00000026145188058699781540000015855653755482677394_);fill:#005CB9;" d="M870.2,511.7
										c-23.6,0-44.1,15.7-44.1,43.7c0,27.9,20.7,43.6,44.1,43.6c23.4,0,43.9-15.8,43.9-43.6C914.1,527.4,893.5,511.7,870.2,511.7
										"/>
								</g>
								<g>
									<defs>
										
											<rect id="SVGID_00000126301464722491207790000018268666798160988830_" x="-14.2" y="-14.2" width="1516.5" height="1516.5"/>
									</defs>
									<clipPath id="SVGID_00000137108356266610764610000011370356733922345893_">
										<use xlink:href="#SVGID_00000126301464722491207790000018268666798160988830_"  style="overflow:visible;"/>
									</clipPath>
									<path style="clip-path:url(#SVGID_00000137108356266610764610000011370356733922345893_);fill:#005CB9;" d="M619.6,511.7
										c-23.6,0-44.1,15.7-44.1,43.7c0,27.9,20.8,43.6,44.1,43.6c23.4,0,44-15.8,44-43.6C663.6,527.4,643.1,511.7,619.6,511.7"/>
								</g>
								<g>
									<defs>
										
											<rect id="SVGID_00000090986008775325822900000014284919074307666322_" x="-14.2" y="-14.2" width="1516.5" height="1516.5"/>
									</defs>
									<clipPath id="SVGID_00000129920151079778236880000005207350166564729273_">
										<use xlink:href="#SVGID_00000090986008775325822900000014284919074307666322_"  style="overflow:visible;"/>
									</clipPath>
									<path style="clip-path:url(#SVGID_00000129920151079778236880000005207350166564729273_);fill:#005CB9;" d="M970.8,514.3
										h-2.5v-25.6v-19.9v-10c0-63.3-51.4-114.7-114.7-114.7c-3.2,0-6.2,0.2-9.4,0.4c-11.4-23.1-35-38.9-62.5-38.9H598.5
										c-38.5,0-69.7,31.2-69.7,69.8v93.5v19.9v25.6h-11.2c-9.2,0-16.5,7.4-16.5,16.5s7.4,16.5,16.5,16.5h35.1l1-6.8
										c6.4-33.3,34.4-51.9,66-51.9c33.4,0,62.9,21,66.7,58.6h117c3.8-37.6,33.4-58.6,67-58.6c31.3,0,59.2,18.4,65.7,51.7l1,7h6.1
										h27.6c9.2,0,16.5-7.4,16.5-16.5C987.4,521.7,980,514.3,970.8,514.3 M881.3,450.7c-11,0-20.1-8.3-21.3-19v-59.2
										c43.2,0,78.2,35,78.2,78.2H881.3z"/>
								</g>
							</g>
						</g>
					</g>
				</g>
			</g>
		</g>
	</g>
	<g>
		<defs>
			<rect id="SVGID_00000079453919626460399810000012425978830558659000_" y="0" width="2976.4" height="1488.2"/>
		</defs>
		<clipPath id="SVGID_00000104699789047540152500000007692362470793372589_">
			<use xlink:href="#SVGID_00000079453919626460399810000012425978830558659000_"  style="overflow:visible;"/>
		</clipPath>
		<g style="clip-path:url(#SVGID_00000104699789047540152500000007692362470793372589_);">
			<g>
				<defs>
					<rect id="SVGID_00000072998250475570984330000015906391480241253308_" x="1488.2" y="-14.2" width="1502.4" height="1516.5"/>
				</defs>
				<clipPath id="SVGID_00000170993374797201553090000004463348073460059564_">
					<use xlink:href="#SVGID_00000072998250475570984330000015906391480241253308_"  style="overflow:visible;"/>
				</clipPath>
				<g style="clip-path:url(#SVGID_00000170993374797201553090000004463348073460059564_);">
					<g>
						<g>
							<defs>
								<rect id="SVGID_00000076588005325430754330000016298575202358727560_" x="1474" y="-14.2" width="1516.5" height="1516.5"/>
							</defs>
							<clipPath id="SVGID_00000102537590483387516530000010466425950469328529_">
								<use xlink:href="#SVGID_00000076588005325430754330000016298575202358727560_"  style="overflow:visible;"/>
							</clipPath>
							
								<rect x="1474" y="-14.2" style="clip-path:url(#SVGID_00000102537590483387516530000010466425950469328529_);fill:#005CB9;" width="1516.5" height="1516.5"/>
						</g>
						<g>
							<defs>
								<rect id="SVGID_00000138548294693122239580000017996392558310946193_" x="1474" y="-14.2" width="1516.5" height="1516.5"/>
							</defs>
							<clipPath id="SVGID_00000125574445635515682840000006772219745827069605_">
								<use xlink:href="#SVGID_00000138548294693122239580000017996392558310946193_"  style="overflow:visible;"/>
							</clipPath>
							<g style="clip-path:url(#SVGID_00000125574445635515682840000006772219745827069605_);">
								<g class="st5">
									<path class="st18" d="M1845.6,762.6c0-23.6,15.4-44.1,39.1-44.1c5.1,0,16,1.9,23.4,13.3h0.2v-11h28.6v84.1h-28.6v-10.6
										h-0.2c-7.3,11.3-18.1,12.7-23.4,12.7C1861.7,806.9,1845.6,786.3,1845.6,762.6z M1908.2,762.6c0-10.5-5.9-18.3-16.6-18.3
										c-10.5,0-16.4,7.9-16.4,18.3c0,10.6,5.9,18.7,16.4,18.7C1902.3,781.3,1908.2,773.2,1908.2,762.6z"/>
									<path class="st18" d="M1977.7,804.8l-31.2-84.1h29.8l17.1,53l17.4-53h30.2l-31.8,84.1H1977.7z"/>
									<path class="st18" d="M2044.5,762.6c0-23.6,15.4-44.1,39.1-44.1c5.1,0,16,1.9,23.4,13.3h0.2v-11h28.6v84.1h-28.6v-10.6
										h-0.2c-7.3,11.3-18.1,12.7-23.4,12.7C2060.5,806.9,2044.5,786.3,2044.5,762.6z M2107.1,762.6c0-10.5-5.9-18.3-16.6-18.3
										c-10.5,0-16.4,7.9-16.4,18.3c0,10.6,5.9,18.7,16.4,18.7C2101.2,781.3,2107.1,773.2,2107.1,762.6z"/>
									<path class="st18" d="M2212.3,804.8v-46.8c0-9.9-5.4-13.8-14-13.8c-7.9,0-14.8,5.6-14.8,18.1v42.4h-28.6v-84.1h28.6v11
										c5.6-7.2,16-13.3,30.5-13.3c18.3,0,26.9,11.5,26.9,26v60.4H2212.3z"/>
									<path class="st18" d="M2296.2,745.8v21.3c0,7.8,2.3,14.3,14.3,14.3v25.5c-28.8,0-42.9-19.2-42.9-42.9v-18.1h-14v-25.1h14
										v-23.9h28.6v23.9h16.9v25.1H2296.2z"/>
									<path class="st18" d="M2321.5,762.6c0-23.6,15.4-44.1,39.1-44.1c5.1,0,16,1.9,23.4,13.3h0.2v-11h28.6v84.1h-28.6v-10.6
										h-0.2c-7.3,11.3-18.1,12.7-23.4,12.7C2337.6,806.9,2321.5,786.3,2321.5,762.6z M2384.1,762.6c0-10.5-5.9-18.3-16.6-18.3
										c-10.5,0-16.4,7.9-16.4,18.3c0,10.6,5.9,18.7,16.4,18.7C2378.2,781.3,2384.1,773.2,2384.1,762.6z"/>
									<path class="st18" d="M2427.6,762.6c0-23.6,15.4-44.1,39.1-44.1c5.1,0,16,1.9,23.4,13.3h0.2v-11h28.6V797
										c0,36.3-29.1,43.1-49.4,43.1c-13.8,0-26.3-3.7-36.6-11.7l11.5-20.4c6.8,5.8,16.4,8.5,25.1,8.5c7.7,0,20.8-3.1,20.8-18.3v-4
										h-0.2c-7.3,11.3-18.1,11.9-23.4,11.9C2443.6,806,2427.6,786.3,2427.6,762.6z M2490.2,762.6c0-10.5-5.9-18.3-16.6-18.3
										c-10.5,0-16.4,7.9-16.4,18.3c0,10.6,5.9,18.7,16.4,18.7C2484.3,781.3,2490.2,773.2,2490.2,762.6z"/>
									<path class="st18" d="M2533.6,762.6c0-24.4,18.3-44.1,44.8-44.1c23.7,0,42.2,17.8,42.2,47.6v5.2H2563
										c1.9,7,8.7,13.8,19.9,13.8c4.5,0,14.1-2.1,19.2-5.4l11.5,17.8c-8.2,6.5-22.3,9.4-34.2,9.4
										C2553.7,806.9,2533.6,790.3,2533.6,762.6z M2578.5,740.3c-10.6,0-14.7,8.4-15.7,13.4h31.2
										C2592.8,747.8,2589.6,740.3,2578.5,740.3z"/>
								</g>
							</g>
						</g>
						<g>
							<defs>
								<rect id="SVGID_00000117642120081756747830000012443754770162808504_" x="1474" y="-14.2" width="1516.5" height="1516.5"/>
							</defs>
							<clipPath id="SVGID_00000046313061390055283410000017738772069244293022_">
								<use xlink:href="#SVGID_00000117642120081756747830000012443754770162808504_"  style="overflow:visible;"/>
							</clipPath>
							<g style="clip-path:url(#SVGID_00000046313061390055283410000017738772069244293022_);">
								<g class="st5">
									<path class="st18" d="M2025.8,896.4c0-26.7,20.1-44.1,45.9-44.1c17.8,0,28.8,7.9,33.8,14.7l-18,17.8
										c-3-3.8-7.9-6.6-14.5-6.6c-9.6,0-18,6.3-18,18.3s8.4,18.7,18,18.7c6.5,0,11.7-3.3,14.7-6.8c6.5,6.5,11.5,11.9,17.8,18
										c-5.1,6.6-16.2,14.5-33.8,14.5C2045.9,940.7,2025.8,923.3,2025.8,896.4z"/>
									<path class="st18" d="M2114.3,896.4c0-23.6,15.4-44.1,39.1-44.1c5.1,0,16,1.9,23.4,13.3h0.2v-11h28.6v84.1h-28.6V928h-0.2
										c-7.3,11.3-18.1,12.7-23.4,12.7C2130.3,940.7,2114.3,920.1,2114.3,896.4z M2176.9,896.4c0-10.5-5.9-18.3-16.6-18.3
										c-10.5,0-16.4,7.9-16.4,18.3c0,10.6,5.9,18.7,16.4,18.7C2171,915.1,2176.9,907,2176.9,896.4z"/>
									<path class="st18" d="M2224.7,938.6v-84.1h28.6v11c5.8-7.2,16.9-13.6,25.8-13.6v27.6c-1.6-0.3-3.3-0.3-5.8-0.3
										c-8.2,0-20.1,2.3-20.1,17.1v42.4H2224.7z"/>
									<path class="st18" d="M2328,879.7v21.3c0,7.8,2.3,14.3,14.3,14.3v25.5c-28.8,0-42.9-19.2-42.9-42.9v-18.1h-14v-25.1h14
										v-23.9h28.6v23.9h16.9v25.1H2328z"/>
									<path class="st18" d="M2353.3,896.4c0-24.4,18.3-44.1,44.8-44.1c23.7,0,42.2,17.8,42.2,47.6v5.2h-57.7
										c1.9,7,8.7,13.8,19.9,13.8c4.5,0,14.1-2.1,19.2-5.4l11.5,17.8c-8.2,6.5-22.3,9.4-34.2,9.4
										C2373.3,940.7,2353.3,924.1,2353.3,896.4z M2398.1,874.1c-10.6,0-14.7,8.4-15.7,13.4h31.2
										C2412.4,881.6,2409.3,874.1,2398.1,874.1z"/>
								</g>
							</g>
						</g>
						<g>
							<defs>
								<rect id="SVGID_00000167386134697909363030000012738191753716742560_" x="1474" y="-14.2" width="1516.5" height="1516.5"/>
							</defs>
							<clipPath id="SVGID_00000084489807773026758600000011558629878337105076_">
								<use xlink:href="#SVGID_00000167386134697909363030000012738191753716742560_"  style="overflow:visible;"/>
							</clipPath>
							<g style="clip-path:url(#SVGID_00000084489807773026758600000011558629878337105076_);">
								<g class="st5">
									<path class="st18" d="M1963.8,1076.7c0-14.3,10.8-24.1,24.6-24.1c8.4,0,14.3,3.9,18.1,9.2l-4.9,2.7
										c-2.7-4-7.8-6.8-13.2-6.8c-10.5,0-18.4,7.7-18.4,18.9c0,11,7.9,18.9,18.4,18.9c5.4,0,10.5-2.9,13.2-6.8l5,2.7
										c-4,5.4-9.8,9.3-18.2,9.3C1974.6,1100.7,1963.8,1091,1963.8,1076.7z"/>
									<path class="st18" d="M2045.4,1066.2v33.7h-5.3v-5c-3.2,4.7-8,5.8-11,5.8c-10.5,0-17.1-8-17.1-17.7
										c0-9.8,6.6-17.7,17.1-17.7c2.7,0,7.7,1,11,5.9v-5H2045.4z M2040.5,1083c0-6.8-4.1-13-11.5-13s-11.5,6.1-11.5,13
										c0,6.9,4.1,13,11.5,13S2040.5,1089.9,2040.5,1083z"/>
									<path class="st18" d="M2073.9,1071.1c-0.7-0.1-1.4-0.1-2.2-0.1c-4.2,0-10.3,2-10.3,12v16.9h-5.3v-33.7h5.3v4.9
										c2.5-2.9,7.2-5.7,12.4-5.7V1071.1z"/>
									<path class="st18" d="M2087.8,1086.9c0,1.5,0.2,9.1,8.9,9.1v4.7c-13.9,0-14.3-11.7-14.3-13.7v-16.2h-6v-4.6h6
										c0-5.1,0-9.2,0-9.2h5.3c0,0,0,4.1,0,9.2h8.9v4.6h-8.9V1086.9z"/>
									<path class="st18" d="M2102.1,1083c0-9.8,7.2-17.7,17.1-17.7c10.5,0,16.7,8,16.7,18.1v1.3h-28c0.4,6.3,4.9,11.3,12.4,11.3
										c4,0,7.7-1.5,10.5-4.3l2.9,3.8c-3.5,3.3-8.2,5.2-13.8,5.2C2109.5,1100.7,2102.1,1093.5,2102.1,1083z M2130.5,1080.8
										c-0.1-5-3.5-10.8-11.4-10.8c-7.4,0-11,5.7-11.3,10.8H2130.5z"/>
									<path class="st18" d="M2161,1083c0-10,7-17.7,17.3-17.7c6.3,0,10,2.5,12.7,5.9l-3.6,3.1c-2.2-3.1-5.2-4.3-8.8-4.3
										c-7.3,0-12,5.5-12,13c0,7.5,4.7,13,12,13c3.6,0,6.5-1.4,8.8-4.4l3.6,3.2c-2.7,3.3-6.4,5.9-12.7,5.9
										C2168,1100.7,2161,1093,2161,1083z"/>
									<path class="st18" d="M2229.9,1066.2v33.7h-5.3v-5c-3.2,4.7-8,5.8-11,5.8c-10.5,0-17.1-8-17.1-17.7
										c0-9.8,6.6-17.7,17.1-17.7c2.7,0,7.7,1,11,5.9v-5H2229.9z M2225.1,1083c0-6.8-4.1-13-11.5-13s-11.5,6.1-11.5,13
										c0,6.9,4.1,13,11.5,13S2225.1,1089.9,2225.1,1083z"/>
									<path class="st18" d="M2237.7,1095.4l2.7-3.8c2.3,2.6,6.7,4.8,11.5,4.8c5.3,0,8.2-2.4,8.2-5.8c0-8.2-21.4-3.1-21.4-15.6
										c0-5.3,4.6-9.7,12.9-9.7c5.9,0,10,2.2,12.8,4.9l-2.5,3.6c-2-2.4-5.8-4.3-10.3-4.3c-4.8,0-7.7,2.3-7.7,5.3
										c0,7.3,21.4,2.5,21.4,15.6c0,5.7-4.6,10.2-13.5,10.2C2246,1100.7,2241.3,1099,2237.7,1095.4z"/>
									<path class="st18" d="M2281.4,1086.9c0,1.5,0.2,9.1,8.9,9.1v4.7c-13.9,0-14.3-11.7-14.3-13.7v-16.2h-6v-4.6h6
										c0-5.1,0-9.2,0-9.2h5.3c0,0,0,4.1,0,9.2h8.9v4.6h-8.9V1086.9z"/>
									<path class="st18" d="M2295.6,1083c0-9.8,6.6-17.7,17.1-17.7s17.1,7.9,17.1,17.7c0,9.8-6.6,17.7-17.1,17.7
										S2295.6,1092.8,2295.6,1083z M2324.3,1083c0-6.8-4.1-13-11.5-13s-11.5,6.1-11.5,13c0,6.9,4.1,13,11.5,13
										S2324.3,1089.9,2324.3,1083z"/>
									<path class="st18" d="M2356.4,1071.1c-0.7-0.1-1.4-0.1-2.2-0.1c-4.2,0-10.3,2-10.3,12v16.9h-5.3v-33.7h5.3v4.9
										c2.5-2.9,7.2-5.7,12.4-5.7V1071.1z"/>
									<path class="st18" d="M2394.3,1066.2v33.7h-5.3v-5c-3.2,4.7-8,5.8-11,5.8c-10.5,0-17.1-8-17.1-17.7
										c0-9.8,6.6-17.7,17.1-17.7c2.7,0,7.7,1,11,5.9v-5H2394.3z M2389.5,1083c0-6.8-4.1-13-11.5-13s-11.5,6.1-11.5,13
										c0,6.9,4.1,13,11.5,13S2389.5,1089.9,2389.5,1083z"/>
									<path class="st18" d="M2457,1076.2v23.7h-5.3v-22c0-5.4-2.6-7.5-6.6-7.7c-7.4,0-11.5,4.7-11.5,9.8v20h-5.3v-22
										c0-6-3.2-7.8-7.8-7.8c-4.2,0-10.3,2.9-10.3,13v16.9h-5.3v-33.7h5.3v4.9c2.5-2.9,7.2-5.7,12.4-5.7c5.3,0,8.8,2,10.2,6.1
										c2.7-3.5,6.7-6.1,13.1-6.1C2453.2,1065.4,2457,1068.9,2457,1076.2z"/>
									<path class="st18" d="M2499.1,1066.2v33.7h-5.3v-5c-3.2,4.7-8,5.8-11,5.8c-10.5,0-17.1-8-17.1-17.7
										c0-9.8,6.6-17.7,17.1-17.7c2.7,0,7.7,1,11,5.9v-5H2499.1z M2494.3,1083c0-6.8-4.1-13-11.5-13s-11.5,6.1-11.5,13
										c0,6.9,4.1,13,11.5,13S2494.3,1089.9,2494.3,1083z"/>
								</g>
							</g>
						</g>
						<g>
							<defs>
								<rect id="SVGID_00000103964897400090165160000012220924044808764323_" x="1474" y="-14.2" width="1516.5" height="1516.5"/>
							</defs>
							<clipPath id="SVGID_00000088126926103078898560000013341240277083499963_">
								<use xlink:href="#SVGID_00000103964897400090165160000012220924044808764323_"  style="overflow:visible;"/>
							</clipPath>
							<g style="clip-path:url(#SVGID_00000088126926103078898560000013341240277083499963_);">
								<g class="st5">
									<path class="st18" d="M1964.7,1157.3c0,6.3-4.1,12.4-13,12.4h-28.5v-46.5h25.6c9.1,0,13.1,7,13.1,12.3
										c0,5-3.3,8.9-6.8,10.3C1961.3,1146.6,1964.7,1151.9,1964.7,1157.3z M1936.1,1140.8h9.4c1.8,0,3.3-1.4,3.3-3.5
										c0-2-1.5-3.3-3.3-3.3h-9.4V1140.8z M1951.6,1155.2c0-2-1.5-3.6-3.8-3.6h-11.7v7.2h11.7
										C1950.2,1158.8,1951.6,1157.4,1951.6,1155.2z"/>
									<path class="st18" d="M1970,1124.5c0-3.1,2.6-5.6,5.8-5.6c3.1,0,5.7,2.4,5.7,5.6c0,3.1-2.6,5.6-5.7,5.6
										C1972.6,1130.1,1970,1127.6,1970,1124.5z M1970,1169.7V1136h11.4v33.6H1970z"/>
									<path class="st18" d="M1987.3,1152.8c0-9.8,7.3-17.7,17.9-17.7c9.5,0,16.9,7.1,16.9,19v2.1h-23.1c0.8,2.8,3.5,5.5,8,5.5
										c1.8,0,5.7-0.8,7.7-2.2l4.6,7.1c-3.3,2.6-8.9,3.8-13.7,3.8C1995.4,1170.5,1987.3,1163.9,1987.3,1152.8z M2005.3,1143.9
										c-4.3,0-5.9,3.3-6.3,5.4h12.5C2011,1146.9,2009.7,1143.9,2005.3,1143.9z"/>
									<path class="st18" d="M2050.4,1169.7V1151c0-4-2.2-5.5-5.6-5.5c-3.1,0-5.9,2.2-5.9,7.3v17h-11.4V1136h11.4v4.4
										c2.2-2.9,6.4-5.3,12.2-5.3c7.3,0,10.7,4.6,10.7,10.4v24.1H2050.4z"/>
									<path class="st18" d="M2085,1152.8c0-9.4,6.1-17.7,15.6-17.7c2,0,6.4,0.8,9.4,5.3h0.1v-4.4h11.4v33.6H2110v-4.3h-0.1
										c-2.9,4.5-7.3,5.1-9.4,5.1C2091.4,1170.5,2085,1162.3,2085,1152.8z M2110,1152.8c0-4.2-2.4-7.3-6.6-7.3
										c-4.2,0-6.6,3.1-6.6,7.3c0,4.3,2.4,7.5,6.6,7.5C2107.7,1160.3,2110,1157,2110,1152.8z"/>
									<path class="st18" d="M2127.4,1152.8c0-10.7,8-17.7,18.4-17.7c7.1,0,11.5,3.1,13.5,5.9l-7.2,7.1c-1.2-1.5-3.1-2.7-5.8-2.7
										c-3.8,0-7.2,2.5-7.2,7.3c0,4.8,3.3,7.5,7.2,7.5c2.6,0,4.7-1.3,5.9-2.7c2.6,2.6,4.6,4.7,7.1,7.2c-2,2.7-6.5,5.8-13.5,5.8
										C2135.4,1170.5,2127.4,1163.5,2127.4,1152.8z"/>
									<path class="st18" d="M2162.8,1152.8c0-10.7,8-17.7,18.4-17.7c7.1,0,11.5,3.1,13.5,5.9l-7.2,7.1c-1.2-1.5-3.1-2.7-5.8-2.7
										c-3.8,0-7.2,2.5-7.2,7.3c0,4.8,3.3,7.5,7.2,7.5c2.6,0,4.7-1.3,5.9-2.7c2.6,2.6,4.6,4.7,7.1,7.2c-2,2.7-6.5,5.8-13.5,5.8
										C2170.8,1170.5,2162.8,1163.5,2162.8,1152.8z"/>
									<path class="st18" d="M2198.2,1152.8c0-9.4,6.8-17.7,18.4-17.7c11.7,0,18.5,8.2,18.5,17.7c0,9.5-6.8,17.7-18.5,17.7
										C2204.9,1170.5,2198.2,1162.3,2198.2,1152.8z M2223.2,1152.8c0-4.2-2.4-7.3-6.6-7.3c-4.2,0-6.6,3.1-6.6,7.3
										c0,4.3,2.4,7.5,6.6,7.5C2220.8,1160.3,2223.2,1157,2223.2,1152.8z"/>
									<path class="st18" d="M2264,1169.7V1151c0-4-2.2-5.5-5.6-5.5c-3.1,0-5.9,2.2-5.9,7.3v17H2241V1136h11.4v4.4
										c2.2-2.9,6.4-5.3,12.2-5.3c5.4,0,8.7,2.5,10,6.1c2.3-3,6.1-6.1,13-6.1c7.3,0,10.7,4.6,10.7,10.4v24.1h-11.4V1151
										c0-4-2.2-5.5-5.6-5.5c-6.2,0-5.9,7.3-5.9,7.3v17H2264z"/>
									<path class="st18" d="M2317.6,1165.4L2317.6,1165.4l-0.1,17.1H2306V1136h11.4v4.4h0.1c2.9-4.5,7.3-5.3,9.3-5.3
										c9.5,0,15.6,8.2,15.6,17.7c0,9.5-6.4,17.7-15.6,17.7C2324.8,1170.5,2320.5,1170,2317.6,1165.4z M2330.7,1152.8
										c0-4.2-2.4-7.3-6.6-7.3c-4.3,0-6.6,3.1-6.6,7.3c0,4.3,2.4,7.5,6.6,7.5C2328.3,1160.3,2330.7,1157,2330.7,1152.8z"/>
									<path class="st18" d="M2346.7,1152.8c0-9.4,6.1-17.7,15.6-17.7c2,0,6.4,0.8,9.4,5.3h0.1v-4.4h11.4v33.6h-11.4v-4.3h-0.1
										c-2.9,4.5-7.3,5.1-9.4,5.1C2353.1,1170.5,2346.7,1162.3,2346.7,1152.8z M2371.8,1152.8c0-4.2-2.4-7.3-6.6-7.3
										c-4.2,0-6.6,3.1-6.6,7.3c0,4.3,2.4,7.5,6.6,7.5C2369.4,1160.3,2371.8,1157,2371.8,1152.8z"/>
									<path class="st18" d="M2389.2,1152.8c0-9.4,6.1-17.7,15.6-17.7c2,0,6.4,0.8,9.4,5.3h0.1v-4.4h11.4v30.5
										c0,14.5-11.7,17.2-19.7,17.2c-5.5,0-10.5-1.5-14.7-4.7l4.6-8.2c2.7,2.3,6.6,3.4,10,3.4c3.1,0,8.3-1.3,8.3-7.3v-1.6h-0.1
										c-2.9,4.5-7.3,4.7-9.4,4.7C2395.6,1170.2,2389.2,1162.3,2389.2,1152.8z M2414.2,1152.8c0-4.2-2.4-7.3-6.6-7.3
										c-4.2,0-6.6,3.1-6.6,7.3c0,4.3,2.4,7.5,6.6,7.5C2411.8,1160.3,2414.2,1157,2414.2,1152.8z"/>
									<path class="st18" d="M2456.3,1169.7V1151c0-4-2.2-5.5-5.6-5.5c-3.1,0-5.9,2.2-5.9,7.3v17h-11.4V1136h11.4v4.4
										c2.2-2.9,6.4-5.3,12.2-5.3c7.3,0,10.7,4.6,10.7,10.4v24.1H2456.3z"/>
									<path class="st18" d="M2473,1152.8c0-9.8,7.3-17.7,17.9-17.7c9.5,0,16.9,7.1,16.9,19v2.1h-23.1c0.8,2.8,3.5,5.5,8,5.5
										c1.8,0,5.7-0.8,7.7-2.2l4.6,7.1c-3.3,2.6-8.9,3.8-13.7,3.8C2481,1170.5,2473,1163.9,2473,1152.8z M2490.9,1143.9
										c-4.3,0-5.9,3.3-6.3,5.4h12.5C2496.6,1146.9,2495.4,1143.9,2490.9,1143.9z M2491,1121.9c0.8-0.8,1.7-1.2,2.9-1.2
										c0.9,0,2,0.4,2.7,1.1c0.8,0.8,1.1,1.8,1.1,2.9s-0.3,2-1.1,2.7l-4.5,4.5c-0.6,0.7-1.7,1.2-2.7,1.2c-1,0-2-0.4-2.8-1.2
										c-0.8-0.8-1.2-1.7-1.2-2.8c0-0.9,0.3-2,1.2-2.7L2491,1121.9z"/>
									<path class="st18" d="M2511.6,1178c2.2-1.7,3.7-5.4,3.7-8.8c0-0.4,0-0.9-0.1-1.4c-2.9-0.9-4-2.8-4-5.7
										c0-3.6,2.9-6.1,6.6-6.1c4.6,0,7.8,3.8,7.8,8.9c0,8-6.1,14.9-14,15.6V1178z"/>
								</g>
							</g>
						</g>
						<g>
							<defs>
								<rect id="SVGID_00000143584364651173880440000014117995993151861132_" x="1474" y="-14.2" width="1516.5" height="1516.5"/>
							</defs>
							<clipPath id="SVGID_00000104676817878850155920000010520295935449790134_">
								<use xlink:href="#SVGID_00000143584364651173880440000014117995993151861132_"  style="overflow:visible;"/>
							</clipPath>
							<g style="clip-path:url(#SVGID_00000104676817878850155920000010520295935449790134_);">
								<g class="st5">
									<path class="st18" d="M1893.1,1222.6c0-9.8,7.3-17.7,17.9-17.7c9.5,0,16.9,7.1,16.9,19v2.1h-23.1c0.8,2.8,3.5,5.5,8,5.5
										c1.8,0,5.7-0.8,7.7-2.2l4.6,7.1c-3.3,2.6-8.9,3.8-13.7,3.8C1901.2,1240.3,1893.1,1233.7,1893.1,1222.6z M1911.1,1213.6
										c-4.3,0-5.9,3.3-6.3,5.4h12.5C1916.8,1216.6,1915.5,1213.6,1911.1,1213.6z"/>
									<path class="st18" d="M1956.2,1239.5v-18.7c0-4-2.2-5.5-5.6-5.5c-3.1,0-5.9,2.2-5.9,7.3v17h-11.4v-33.6h11.4v4.4
										c2.2-2.9,6.4-5.3,12.2-5.3c7.3,0,10.7,4.6,10.7,10.4v24.1H1956.2z"/>
									<path class="st18" d="M1990.8,1222.6c0-9.4,6.1-17.7,15.6-17.7c2,0,6.4,0.8,9.4,5.3h0.1v-4.4h11.4v33.6h-11.4v-4.3h-0.1
										c-2.9,4.5-7.3,5.1-9.4,5.1C1997.2,1240.3,1990.8,1232.1,1990.8,1222.6z M2015.8,1222.6c0-4.2-2.4-7.3-6.6-7.3
										c-4.2,0-6.6,3.1-6.6,7.3c0,4.3,2.4,7.5,6.6,7.5C2013.4,1230,2015.8,1226.8,2015.8,1222.6z"/>
									<path class="st18" d="M2043.6,1239.5l-12.5-33.6h11.9l6.8,21.2l7-21.2h12.1l-12.7,33.6H2043.6z"/>
									<path class="st18" d="M2070.3,1222.6c0-9.4,6.1-17.7,15.6-17.7c2,0,6.4,0.8,9.4,5.3h0.1v-4.4h11.4v33.6h-11.4v-4.3h-0.1
										c-2.9,4.5-7.3,5.1-9.4,5.1C2076.7,1240.3,2070.3,1232.1,2070.3,1222.6z M2095.4,1222.6c0-4.2-2.4-7.3-6.6-7.3
										c-4.2,0-6.6,3.1-6.6,7.3c0,4.3,2.4,7.5,6.6,7.5C2093,1230,2095.4,1226.8,2095.4,1222.6z"/>
									<path class="st18" d="M2137.4,1239.5v-18.7c0-4-2.2-5.5-5.6-5.5c-3.1,0-5.9,2.2-5.9,7.3v17h-11.4v-33.6h11.4v4.4
										c2.2-2.9,6.4-5.3,12.2-5.3c7.3,0,10.7,4.6,10.7,10.4v24.1H2137.4z"/>
									<path class="st18" d="M2171,1215.9v8.5c0,3.1,0.9,5.7,5.7,5.7v10.2c-11.5,0-17.2-7.7-17.2-17.2v-7.3h-5.6v-10h5.6v-9.6
										h11.4v9.6h6.8v10H2171z"/>
									<path class="st18" d="M2200.1,1239.5V1193h11.4v46.5H2200.1z"/>
									<path class="st18" d="M2217.5,1222.6c0-9.8,7.3-17.7,17.9-17.7c9.5,0,16.9,7.1,16.9,19v2.1h-23.1c0.8,2.8,3.5,5.5,8,5.5
										c1.8,0,5.7-0.8,7.7-2.2l4.6,7.1c-3.3,2.6-8.9,3.8-13.7,3.8C2225.5,1240.3,2217.5,1233.7,2217.5,1222.6z M2235.4,1213.6
										c-4.3,0-5.9,3.3-6.3,5.4h12.5C2241.1,1216.6,2239.9,1213.6,2235.4,1213.6z"/>
									<path class="st18" d="M2255.8,1235.4c1.5-2.7,3-5,4.5-7.7c2.9,2.1,8.3,4,11.9,4c3.1,0,4-0.8,4-2c0-1.7-2.2-2-5.2-2.4
										c-5.4-0.8-14-2.7-14-11.3c0-5.9,5.2-11.2,14.5-11.2c5.2,0,10.1,1.6,13.8,4.1c-1.4,2.7-2.7,4.7-4,7.3
										c-2.2-1.6-6-3.2-9.7-3.2c-2.2,0-3.7,0.8-3.7,2.1c0,1.3,2.1,1.7,4.9,2.1c5.4,0.8,14.2,2.9,14.2,11.7
										c0,6.6-5.8,11.4-15.4,11.4C2265.6,1240.3,2259.4,1238.4,2255.8,1235.4z"/>
									<path class="st18" d="M2321.7,1235.2L2321.7,1235.2l-0.1,17.1h-11.4v-46.5h11.4v4.4h0.1c2.9-4.5,7.3-5.3,9.3-5.3
										c9.5,0,15.6,8.2,15.6,17.7c0,9.5-6.4,17.7-15.6,17.7C2328.9,1240.3,2324.6,1239.7,2321.7,1235.2z M2334.8,1222.6
										c0-4.2-2.4-7.3-6.6-7.3c-4.3,0-6.6,3.1-6.6,7.3c0,4.3,2.4,7.5,6.6,7.5C2332.4,1230,2334.8,1226.8,2334.8,1222.6z"/>
									<path class="st18" d="M2352.6,1239.5v-33.6h11.4v4.4c2.3-2.9,6.8-5.4,10.3-5.4v11c-0.6-0.1-1.3-0.1-2.3-0.1
										c-3.3,0-8,0.9-8,6.8v17H2352.6z"/>
									<path class="st18" d="M2377.7,1222.6c0-9.4,6.8-17.7,18.4-17.7c11.7,0,18.5,8.2,18.5,17.7c0,9.5-6.8,17.7-18.5,17.7
										C2384.5,1240.3,2377.7,1232.1,2377.7,1222.6z M2402.8,1222.6c0-4.2-2.4-7.3-6.6-7.3c-4.2,0-6.6,3.1-6.6,7.3
										c0,4.3,2.4,7.5,6.6,7.5C2400.4,1230,2402.8,1226.8,2402.8,1222.6z"/>
									<path class="st18" d="M2415.3,1243.4c4.8,0,5.7-2.6,5.7-5.7v-31.8h11.4v30.6c0,9.4-5.7,17.1-17.2,17.1
										C2415.3,1253.6,2415.3,1253.6,2415.3,1243.4z M2420.9,1194.3c0-3.1,2.6-5.6,5.8-5.6c3.1,0,5.7,2.4,5.7,5.6
										c0,3.1-2.6,5.6-5.7,5.6C2423.5,1199.9,2420.9,1197.4,2420.9,1194.3z"/>
									<path class="st18" d="M2438.3,1222.6c0-9.8,7.3-17.7,17.9-17.7c9.5,0,16.9,7.1,16.9,19v2.1h-23.1c0.8,2.8,3.5,5.5,8,5.5
										c1.8,0,5.7-0.8,7.7-2.2l4.6,7.1c-3.3,2.6-8.9,3.8-13.7,3.8C2446.4,1240.3,2438.3,1233.7,2438.3,1222.6z M2456.3,1213.6
										c-4.3,0-5.9,3.3-6.3,5.4h12.5C2462,1216.6,2460.7,1213.6,2456.3,1213.6z"/>
									<path class="st18" d="M2492.8,1215.9v8.5c0,3.1,0.9,5.7,5.7,5.7v10.2c-11.5,0-17.2-7.7-17.2-17.2v-7.3h-5.6v-10h5.6v-9.6
										h11.4v9.6h6.8v10H2492.8z"/>
									<path class="st18" d="M2503,1235.4c1.5-2.7,3-5,4.5-7.7c2.9,2.1,8.3,4,11.9,4c3.1,0,4-0.8,4-2c0-1.7-2.2-2-5.2-2.4
										c-5.4-0.8-14-2.7-14-11.3c0-5.9,5.2-11.2,14.5-11.2c5.2,0,10.1,1.6,13.8,4.1c-1.4,2.7-2.7,4.7-4,7.3
										c-2.2-1.6-6-3.2-9.7-3.2c-2.2,0-3.7,0.8-3.7,2.1c0,1.3,2.1,1.7,4.9,2.1c5.4,0.8,14.2,2.9,14.2,11.7
										c0,6.6-5.8,11.4-15.4,11.4C2512.7,1240.3,2506.5,1238.4,2503,1235.4z"/>
									<path class="st18" d="M2558.2,1234.9c0-3,2.5-5.4,5.4-5.4c3.1,0,5.5,2.4,5.5,5.4c0,2.9-2.4,5.4-5.5,5.4
										C2560.7,1240.2,2558.2,1237.8,2558.2,1234.9z M2558.3,1192.5h10.7v28.2c0,3-2.4,5.4-5.4,5.4c-3,0-5.4-2.4-5.4-5.4V1192.5z"
										/>
								</g>
							</g>
						</g>
						<g>
							<defs>
								<rect id="SVGID_00000129921349989639713010000018250031806421180290_" x="1474" y="-14.2" width="1516.5" height="1516.5"/>
							</defs>
							<clipPath id="SVGID_00000026135773764932379300000014592591681864022668_">
								<use xlink:href="#SVGID_00000129921349989639713010000018250031806421180290_"  style="overflow:visible;"/>
							</clipPath>
							<g style="clip-path:url(#SVGID_00000026135773764932379300000014592591681864022668_);">
								<g>
									<defs>
										
											<rect id="SVGID_00000068676324553861386120000004083887452068099753_" x="1474" y="-14.2" width="1516.5" height="1516.5"/>
									</defs>
									<clipPath id="SVGID_00000114041147165168512060000017700126049886129810_">
										<use xlink:href="#SVGID_00000068676324553861386120000004083887452068099753_"  style="overflow:visible;"/>
									</clipPath>
									<path style="clip-path:url(#SVGID_00000114041147165168512060000017700126049886129810_);fill:#FFFFFF;" d="M2438.8,417.9
										c-0.1-29.6-24.1-53.5-53.8-53.4h-8.1l30,83.1c5.6,15.6,4.9,32.4-2.2,47.4c-7,15-19.5,26.4-35.1,32l-196.4,71l212.5-0.6
										c29.6-0.1,53.5-24.2,53.4-53.8L2438.8,417.9z"/>
								</g>
								<g>
									<defs>
										
											<rect id="SVGID_00000040536754384821900320000010728995181340731821_" x="1474" y="-14.2" width="1516.5" height="1516.5"/>
									</defs>
									<clipPath id="SVGID_00000073681934200307147060000003988874471032039839_">
										<use xlink:href="#SVGID_00000040536754384821900320000010728995181340731821_"  style="overflow:visible;"/>
									</clipPath>
									<path style="clip-path:url(#SVGID_00000073681934200307147060000003988874471032039839_);fill:#FFFFFF;" d="M2391.1,453.3
										l-34.9-96.6l-273.3,98.8c-1.9,0.7-3.8,1-5.7,1c-6.9,0-13.4-4.3-15.9-11.2c-3.2-8.8,1.4-18.5,10.2-21.6l272-98.3
										c-8.3-12.3-22.2-20.2-37.4-20.2c-5.2,0-10.4,0.9-15.4,2.7L2055.2,393c-23.4,8.5-35.6,34.4-27.1,57.8l42.8,118.3
										c8.2,22.7,34.8,35.4,57.8,27.1l235.3-85.1c11.3-4.1,20.4-12.4,25.5-23.3C2394.6,476.9,2395.2,464.6,2391.1,453.3"/>
								</g>
							</g>
						</g>
					</g>
				</g>
			</g>
		</g>
	</g>
</g>
</svg>
