<?xml version="1.0" encoding="utf-8"?>
<!-- Generator: Adobe Illustrator 26.5.0, SVG Export Plug-In . SVG Version: 6.00 Build 0)  -->
<svg version="1.1" id="Calque_1" xmlns="http://www.w3.org/2000/svg" xmlns:xlink="http://www.w3.org/1999/xlink" x="0px" y="0px"
	 viewBox="0 0 2976.4 1488.2" style="enable-background:new 0 0 2976.4 1488.2;" xml:space="preserve">
<style type="text/css">
	.st0{display:none;fill:none;stroke:#FFFFFF;stroke-width:0.6;stroke-miterlimit:10;}
	.st1{clip-path:url(#SVGID_00000028291636076220743790000011160695478463988867_);}
	.st2{clip-path:url(#SVGID_00000044176582005660761120000010718551839614334104_);}
	.st3{clip-path:url(#SVGID_00000101818216172825145600000013258287993595927693_);fill:#FFD100;}
	.st4{clip-path:url(#SVGID_00000101818216172825145600000013258287993595927693_);fill:#005CB9;}
	.st5{clip-path:url(#SVGID_00000101818216172825145600000013258287993595927693_);}
	.st6{clip-path:url(#SVGID_00000052784403467401546220000006274052284041562768_);fill:#005CB9;}
	.st7{clip-path:url(#SVGID_00000052784403467401546220000006274052284041562768_);fill:#FFD100;}
	.st8{clip-path:url(#SVGID_00000165929210305631586530000001492316874236267963_);}
	.st9{clip-path:url(#SVGID_00000036225333792161731040000004115832862167964067_);fill:#005CB9;}
	.st10{clip-path:url(#SVGID_00000036225333792161731040000004115832862167964067_);}
	.st11{clip-path:url(#SVGID_00000147906399365954977990000008125011748206272663_);fill:#FFFFFF;}
</style>
<line class="st0" x1="1488.2" y1="819.9" x2="1488.2" y2="668.3"/>
<g>
	<defs>
		<rect id="SVGID_1_" width="2976.4" height="1488.2"/>
	</defs>
	<clipPath id="SVGID_00000157266517905466269300000015411395781239564676_">
		<use xlink:href="#SVGID_1_"  style="overflow:visible;"/>
	</clipPath>
	<g style="clip-path:url(#SVGID_00000157266517905466269300000015411395781239564676_);">
		<defs>
			<rect id="SVGID_00000152976833863971414150000006028514416613142968_" x="-14.2" y="-14.2" width="1502.4" height="1516.5"/>
		</defs>
		<clipPath id="SVGID_00000078018131736611223100000014316003203469135003_">
			<use xlink:href="#SVGID_00000152976833863971414150000006028514416613142968_"  style="overflow:visible;"/>
		</clipPath>
		<g style="clip-path:url(#SVGID_00000078018131736611223100000014316003203469135003_);">
			<g>
				<defs>
					<rect id="SVGID_00000019657162150749858620000007658356009975872410_" x="-14.2" y="-14.2" width="1516.5" height="1516.5"/>
				</defs>
				<clipPath id="SVGID_00000072272371524989875000000015731626242920812700_">
					<use xlink:href="#SVGID_00000019657162150749858620000007658356009975872410_"  style="overflow:visible;"/>
				</clipPath>
				
					<rect x="-14.2" y="-14.2" style="clip-path:url(#SVGID_00000072272371524989875000000015731626242920812700_);fill:#FFD100;" width="1516.5" height="1516.5"/>
				
					<rect x="426.4" y="689.7" style="clip-path:url(#SVGID_00000072272371524989875000000015731626242920812700_);fill:#005CB9;" width="28.1" height="114"/>
				<g style="clip-path:url(#SVGID_00000072272371524989875000000015731626242920812700_);">
					<defs>
						<rect id="SVGID_00000002352945724501344880000010446474892792023996_" x="-14.2" y="-14.2" width="1516.5" height="1516.5"/>
					</defs>
					<clipPath id="SVGID_00000122716942438313723610000010381068055277375364_">
						<use xlink:href="#SVGID_00000002352945724501344880000010446474892792023996_"  style="overflow:visible;"/>
					</clipPath>
					<path style="clip-path:url(#SVGID_00000122716942438313723610000010381068055277375364_);fill:#005CB9;" d="M469.1,762.2
						c0-23.1,16.6-43.3,45.2-43.3s45.4,20.2,45.4,43.3c0,23.3-16.8,43.5-45.4,43.5S469.1,785.5,469.1,762.2 M530.5,762.2
						c0-10.3-5.8-18-16.3-18c-10.3,0-16.1,7.7-16.1,18c0,10.4,5.8,18.3,16.1,18.3C524.7,780.6,530.5,772.7,530.5,762.2"/>
					<path style="clip-path:url(#SVGID_00000122716942438313723610000010381068055277375364_);fill:#005CB9;" d="M569.9,762.2
						c0-26.2,19.7-43.3,45-43.3c17.5,0,28.2,7.7,33.2,14.4l-17.6,17.5c-2.9-3.8-7.7-6.5-14.2-6.5c-9.4,0-17.6,6.2-17.6,18
						c0,11.8,8.2,18.3,17.6,18.3c6.3,0,11.5-3.3,14.4-6.7c6.3,6.3,11.3,11.6,17.5,17.6c-5,6.5-15.9,14.2-33.2,14.2
						C589.6,805.7,569.9,788.6,569.9,762.2"/>
					<path style="clip-path:url(#SVGID_00000122716942438313723610000010381068055277375364_);fill:#005CB9;" d="M656.7,762.2
						c0-23.1,15.1-43.3,38.3-43.3c5,0,15.7,1.9,22.9,13h0.2v-10.8h28.1v82.5h-28.1v-10.4H718c-7.2,11.1-17.8,12.5-22.9,12.5
						C672.4,805.7,656.7,785.5,656.7,762.2 M718.2,762.2c0-10.3-5.8-18-16.3-18c-10.3,0-16.1,7.7-16.1,18c0,10.4,5.8,18.3,16.1,18.3
						C712.3,780.6,718.2,772.7,718.2,762.2"/>
					<path style="clip-path:url(#SVGID_00000122716942438313723610000010381068055277375364_);fill:#005CB9;" d="M800.5,745.8v20.9
						c0,7.7,2.2,14,14,14v25c-28.2,0-42.1-18.8-42.1-42.1v-17.8h-13.7v-24.7h13.7v-23.5h28.1v23.5h16.6v24.7H800.5z"/>
					<path style="clip-path:url(#SVGID_00000122716942438313723610000010381068055277375364_);fill:#005CB9;" d="M829.6,692.9
						c0-7.7,6.3-13.7,14.2-13.7c7.5,0,13.9,6,13.9,13.7c0,7.5-6.3,13.7-13.9,13.7C835.9,706.6,829.6,700.5,829.6,692.9 M829.6,721.2
						h28.1v82.5h-28.1V721.2z"/>
					<path style="clip-path:url(#SVGID_00000122716942438313723610000010381068055277375364_);fill:#005CB9;" d="M872.2,762.2
						c0-23.1,16.6-43.3,45.2-43.3c28.6,0,45.4,20.2,45.4,43.3c0,23.3-16.8,43.5-45.4,43.5C888.8,805.7,872.2,785.5,872.2,762.2
						 M933.7,762.2c0-10.3-5.8-18-16.3-18c-10.3,0-16.1,7.7-16.1,18c0,10.4,5.8,18.3,16.1,18.3C927.9,780.6,933.7,772.7,933.7,762.2
						"/>
					<path style="clip-path:url(#SVGID_00000122716942438313723610000010381068055277375364_);fill:#005CB9;" d="M1033.7,803.7
						v-45.9c0-9.8-5.3-13.5-13.7-13.5c-7.7,0-14.6,5.5-14.6,17.8v41.6h-28.1v-82.5h28.1v10.8c5.5-7,15.7-13,30-13
						c18,0,26.4,11.3,26.4,25.5v59.2H1033.7z"/>
					<path style="clip-path:url(#SVGID_00000122716942438313723610000010381068055277375364_);fill:#005CB9;" d="M293.1,893.5
						c0-23.1,15.1-43.3,38.3-43.3c5,0,15.7,1.9,22.9,13h0.2v-42.3h28.1v114h-28.1v-10.4h-0.2c-7.2,11.1-17.8,12.5-22.9,12.5
						C308.8,937,293.1,916.8,293.1,893.5 M354.5,893.5c0-10.3-5.8-18-16.3-18c-10.3,0-16.1,7.7-16.1,18c0,10.4,5.8,18.3,16.1,18.3
						C348.7,911.8,354.5,903.9,354.5,893.5"/>
					<path style="clip-path:url(#SVGID_00000122716942438313723610000010381068055277375364_);fill:#005CB9;" d="M397.2,893.5
						c0-24,18-43.3,44-43.3c23.3,0,41.4,17.5,41.4,46.7v5.1h-56.7c1.9,6.8,8.6,13.5,19.5,13.5c4.5,0,13.9-2.1,18.8-5.3l11.3,17.5
						c-8,6.3-21.9,9.2-33.6,9.2C416.9,937,397.2,920.7,397.2,893.5 M441.2,871.6c-10.4,0-14.4,8.2-15.4,13.2h30.6
						C455.2,878.9,452.1,871.6,441.2,871.6"/>
					<path style="clip-path:url(#SVGID_00000122716942438313723610000010381068055277375364_);fill:#005CB9;" d="M594,934.9V889
						c0-9.8-5.3-13.5-13.7-13.5c-7.7,0-14.6,5.5-14.6,17.8v41.6h-28.1v-82.5h28.1v10.8c5.5-7,15.7-13,30-13
						c13.2,0,21.2,6.2,24.5,15.1c5.6-7.4,14.9-15.1,31.8-15.1c18,0,26.4,11.3,26.4,25.5v59.2h-28.1V889c0-9.8-5.3-13.5-13.7-13.5
						c-15.2,0-14.6,17.8-14.6,17.8v41.6H594z"/>
					<path style="clip-path:url(#SVGID_00000122716942438313723610000010381068055277375364_);fill:#005CB9;" d="M693,893.5
						c0-23.1,15.1-43.3,38.3-43.3c5,0,15.8,1.9,22.9,13h0.2v-10.8h28.1v82.5h-28.1v-10.4h-0.2c-7.2,11.1-17.8,12.5-22.9,12.5
						C708.7,937,693,916.8,693,893.5 M754.4,893.5c0-10.3-5.8-18-16.3-18c-10.3,0-16.1,7.7-16.1,18c0,10.4,5.8,18.3,16.1,18.3
						C748.6,911.8,754.4,903.9,754.4,893.5"/>
					<path style="clip-path:url(#SVGID_00000122716942438313723610000010381068055277375364_);fill:#005CB9;" d="M836.8,877.1V898
						c0,7.7,2.2,14,14,14v25c-28.2,0-42.1-18.8-42.1-42.1v-17.8H795v-24.7h13.7V829h28.1v23.5h16.6v24.7H836.8z"/>
					<path style="clip-path:url(#SVGID_00000122716942438313723610000010381068055277375364_);fill:#005CB9;" d="M859.9,893.5
						c0-24,18-43.3,44-43.3c23.3,0,41.4,17.5,41.4,46.7v5.1h-56.7c1.9,6.8,8.6,13.5,19.5,13.5c4.5,0,13.9-2.1,18.8-5.3l11.3,17.5
						c-8,6.3-21.9,9.2-33.6,9.2C879.6,937,859.9,920.7,859.9,893.5 M903.9,871.6c-10.4,0-14.4,8.2-15.4,13.2h30.6
						C917.9,878.9,914.9,871.6,903.9,871.6 M904.2,817.8c2.1-1.9,4.3-2.9,7-2.9c2.2,0,4.8,1,6.7,2.7c1.9,2.1,2.7,4.5,2.7,7
						c0,2.6-0.9,5-2.7,6.7l-11,11c-1.5,1.7-4.3,2.9-6.7,2.9c-2.6,0-5-1-6.8-2.9c-2.1-1.9-2.9-4.3-2.9-6.8c0-2.2,0.9-4.8,2.9-6.7
						L904.2,817.8z"/>
					<path style="clip-path:url(#SVGID_00000122716942438313723610000010381068055277375364_);fill:#005CB9;" d="M955.9,934.9v-82.5
						H984v10.8c5.6-7,16.6-13.4,25.3-13.4v27c-1.5-0.3-3.3-0.3-5.6-0.3c-8,0-19.7,2.2-19.7,16.8v41.6H955.9z"/>
					<path style="clip-path:url(#SVGID_00000122716942438313723610000010381068055277375364_);fill:#005CB9;" d="M1021.9,824.2
						c0-7.7,6.3-13.7,14.2-13.7c7.5,0,13.9,6,13.9,13.7c0,7.5-6.3,13.7-13.9,13.7C1028.2,837.9,1021.9,831.7,1021.9,824.2
						 M1021.9,852.4h28.1v82.5h-28.1V852.4z"/>
					<path style="clip-path:url(#SVGID_00000122716942438313723610000010381068055277375364_);fill:#005CB9;" d="M1064.5,893.5
						c0-24,18-43.3,44-43.3c23.3,0,41.4,17.5,41.4,46.7v5.1h-56.7c1.9,6.8,8.6,13.5,19.5,13.5c4.4,0,13.9-2.1,18.8-5.3l11.3,17.5
						c-8,6.3-21.9,9.2-33.6,9.2C1084.2,937,1064.5,920.7,1064.5,893.5 M1108.5,871.6c-10.4,0-14.4,8.2-15.4,13.2h30.6
						C1122.5,878.9,1119.4,871.6,1108.5,871.6"/>
					
						<rect x="1162.7" y="820.9" style="clip-path:url(#SVGID_00000122716942438313723610000010381068055277375364_);fill:#005CB9;" width="28.1" height="114"/>
					<path style="clip-path:url(#SVGID_00000122716942438313723610000010381068055277375364_);fill:#005CB9;" d="M465.5,1080.5
						c0,7.3-5,12.3-13.5,12.3h-21.2v-45.7h18.9c8.1,0,13.1,4.8,13.1,11.6c0,5.4-3.5,9.2-7.5,10.3
						C461.5,1069.6,465.5,1075.1,465.5,1080.5 M436.6,1067h12.1c5.3,0,8-3.2,8-7.3c0-4.1-2.7-7.4-8-7.4h-12.1V1067z M450.9,1087.8
						c5.3,0,8.6-3,8.6-7.9c0-4.2-2.9-7.9-8.6-7.9h-14.3v15.8H450.9z"/>
					<path style="clip-path:url(#SVGID_00000122716942438313723610000010381068055277375364_);fill:#005CB9;" d="M472.5,1076.3
						c0-9.6,7-17.3,16.6-17.3c10.2,0,16.2,7.8,16.2,17.7v1.3h-27.3c0.4,6.2,4.8,11.1,12.1,11.1c3.9,0,7.5-1.5,10.2-4.2l2.8,3.7
						c-3.4,3.3-7.9,5.1-13.4,5.1C479.7,1093.7,472.5,1086.6,472.5,1076.3 M500.2,1074.1c-0.1-4.9-3.4-10.6-11.1-10.6
						c-7.2,0-10.8,5.6-11,10.6H500.2z"/>
					<path style="clip-path:url(#SVGID_00000122716942438313723610000010381068055277375364_);fill:#005CB9;" d="M511,1088.5
						l2.6-3.7c2.3,2.5,6.5,4.7,11.2,4.7c5.1,0,8-2.4,8-5.7c0-8-20.9-3.1-20.9-15.3c0-5.2,4.5-9.5,12.5-9.5c5.8,0,9.8,2.1,12.5,4.8
						l-2.5,3.6c-2-2.4-5.6-4.2-10-4.2c-4.7,0-7.5,2.3-7.5,5.2c0,7.2,20.9,2.5,20.9,15.3c0,5.5-4.5,10-13.1,10
						C519,1093.7,514.5,1091.9,511,1088.5"/>
					<path style="clip-path:url(#SVGID_00000122716942438313723610000010381068055277375364_);fill:#005CB9;" d="M544.4,1076.3
						c0-9.6,6.4-17.3,16.7-17.3c10.3,0,16.7,7.7,16.7,17.3c0,9.6-6.4,17.4-16.7,17.4C550.8,1093.7,544.4,1085.9,544.4,1076.3
						 M572.2,1076.3c0-6.7-4-12.7-11.2-12.7c-7.2,0-11.2,6-11.2,12.7c0,6.8,4,12.8,11.2,12.8C568.3,1089.1,572.2,1083,572.2,1076.3"
						/>
					<path style="clip-path:url(#SVGID_00000122716942438313723610000010381068055277375364_);fill:#005CB9;" d="M589.3,1048.1
						c1.7,0,3.2,1.4,3.2,3.2s-1.4,3.1-3.2,3.1c-1.7,0-3.1-1.4-3.1-3.1S587.6,1048.1,589.3,1048.1 M586.7,1059.8h5.2v33.1h-5.2
						V1059.8z"/>
					<path style="clip-path:url(#SVGID_00000122716942438313723610000010381068055277375364_);fill:#005CB9;" d="M625.7,1092.8
						v-21.6c0-5.9-3.1-7.7-7.7-7.7c-4.1,0-10,2.9-10,12.7v16.6h-5.2v-33.1h5.2v4.8c2.4-2.8,7-5.6,12.1-5.6c7,0,10.7,3.5,10.7,10.7
						v23.2H625.7z"/>
					<path style="clip-path:url(#SVGID_00000122716942438313723610000010381068055277375364_);fill:#005CB9;" d="M690,1047.2v45.7
						h-5.2v-4.9c-3.1,4.6-7.8,5.7-10.7,5.7c-10.3,0-16.7-7.8-16.7-17.4c0-9.6,6.4-17.3,16.7-17.3c2.6,0,7.5,1,10.7,5.8v-17.5H690z
						 M685.2,1076.3c0-6.7-4-12.7-11.2-12.7c-7.2,0-11.2,6-11.2,12.7c0,6.8,4,12.8,11.2,12.8C681.3,1089.1,685.2,1083,685.2,1076.3"
						/>
					<path style="clip-path:url(#SVGID_00000122716942438313723610000010381068055277375364_);fill:#005CB9;" d="M698.5,1076.3
						c0-9.6,7-17.3,16.6-17.3c10.2,0,16.2,7.8,16.2,17.7v1.3h-27.3c0.4,6.2,4.8,11.1,12.1,11.1c3.9,0,7.5-1.5,10.2-4.2l2.8,3.7
						c-3.4,3.3-7.9,5.1-13.4,5.1C705.6,1093.7,698.5,1086.6,698.5,1076.3 M726.1,1074.1c-0.1-4.9-3.4-10.6-11.1-10.6
						c-7.2,0-10.8,5.6-11,10.6H726.1z"/>
					<path style="clip-path:url(#SVGID_00000122716942438313723610000010381068055277375364_);fill:#005CB9;" d="M808.5,1069.6v23.2
						h-5.1v-21.6c0-5.3-2.5-7.3-6.4-7.6c-7.2,0-11.2,4.6-11.2,9.6v19.7h-5.1v-21.6c0-5.9-3.1-7.7-7.6-7.7c-4.1,0-10,2.9-10,12.7
						v16.6h-5.2v-33.1h5.2v4.8c2.4-2.8,7-5.6,12.1-5.6c5.2,0,8.6,2,9.9,6c2.7-3.4,6.6-6,12.7-6
						C804.8,1058.9,808.5,1062.4,808.5,1069.6"/>
					<path style="clip-path:url(#SVGID_00000122716942438313723610000010381068055277375364_);fill:#005CB9;" d="M849.5,1059.8v33.1
						h-5.2v-4.9c-3.1,4.6-7.8,5.7-10.7,5.7c-10.3,0-16.7-7.8-16.7-17.4c0-9.6,6.4-17.3,16.7-17.3c2.6,0,7.5,1,10.7,5.8v-4.9H849.5z
						 M844.8,1076.3c0-6.7-4-12.7-11.2-12.7c-7.2,0-11.2,6-11.2,12.7c0,6.8,4,12.8,11.2,12.8C840.8,1089.1,844.8,1083,844.8,1076.3"
						/>
					<path style="clip-path:url(#SVGID_00000122716942438313723610000010381068055277375364_);fill:#005CB9;" d="M867.1,1080.1
						c0,1.4,0.2,9,8.7,9v4.6c-13.6,0-13.9-11.4-13.9-13.5v-15.9H856v-4.5h5.9v-9h5.2v9h8.7v4.5h-8.7V1080.1z"/>
					<path style="clip-path:url(#SVGID_00000122716942438313723610000010381068055277375364_);fill:#005CB9;" d="M881.1,1076.3
						c0-9.6,7-17.3,16.6-17.3c10.2,0,16.2,7.8,16.2,17.7v1.3h-27.3c0.4,6.2,4.8,11.1,12.1,11.1c3.9,0,7.5-1.5,10.2-4.2l2.8,3.7
						c-3.4,3.3-7.9,5.1-13.4,5.1C888.3,1093.7,881.1,1086.6,881.1,1076.3 M908.7,1074.1c-0.1-4.9-3.4-10.6-11.1-10.6
						c-7.2,0-10.8,5.6-11,10.6H908.7z M898.5,1045.7c0.5-0.5,1-0.7,1.6-0.7c0.6,0,1.2,0.2,1.6,0.7c0.5,0.5,0.7,1,0.7,1.6
						s-0.2,1.2-0.7,1.6l-5.5,5.5c-0.4,0.4-1,0.7-1.6,0.7c-0.5,0-1.1-0.2-1.6-0.7c-0.4-0.4-0.6-1-0.6-1.6c0-0.6,0.2-1.2,0.6-1.6
						L898.5,1045.7z"/>
					<path style="clip-path:url(#SVGID_00000122716942438313723610000010381068055277375364_);fill:#005CB9;" d="M939.7,1064.6
						c-0.7-0.1-1.4-0.1-2.1-0.1c-4.1,0-10,1.9-10,11.8v16.6h-5.2v-33.1h5.2v4.8c2.4-2.8,7-5.6,12.1-5.6V1064.6z"/>
					<path style="clip-path:url(#SVGID_00000122716942438313723610000010381068055277375364_);fill:#005CB9;" d="M949.1,1048.1
						c1.7,0,3.2,1.4,3.2,3.2s-1.4,3.1-3.2,3.1c-1.7,0-3.1-1.4-3.1-3.1S947.4,1048.1,949.1,1048.1 M946.5,1059.8h5.2v33.1h-5.2
						V1059.8z"/>
					<path style="clip-path:url(#SVGID_00000122716942438313723610000010381068055277375364_);fill:#005CB9;" d="M960.8,1076.3
						c0-9.6,7-17.3,16.6-17.3c10.2,0,16.2,7.8,16.2,17.7v1.3h-27.3c0.4,6.2,4.8,11.1,12.1,11.1c3.9,0,7.5-1.5,10.2-4.2l2.8,3.7
						c-3.4,3.3-7.9,5.1-13.4,5.1C968,1093.7,960.8,1086.6,960.8,1076.3 M988.5,1074.1c-0.1-4.9-3.4-10.6-11.1-10.6
						c-7.2,0-10.8,5.6-11,10.6H988.5z"/>
					
						<rect x="1002.1" y="1047.2" style="clip-path:url(#SVGID_00000122716942438313723610000010381068055277375364_);fill:#005CB9;" width="5.2" height="45.7"/>
					<path style="clip-path:url(#SVGID_00000122716942438313723610000010381068055277375364_);fill:#005CB9;" d="M1047.3,1071.3v6.4
						c0,1.4-1.2,2.5-2.5,2.5c-1.4,0-2.5-1.1-2.5-2.5v-11.1c11.9,0,12.5-7,12.5-8.5v-0.3c0-3.4-2.7-6.4-8.1-6.4
						c-5.3,0-8.6,2.2-11.2,5.6l-3.5-3.7c3.4-4.3,8.5-7,15.1-7c7.7,0,13.7,4.1,13.7,11.7C1060.8,1063.2,1058.2,1069.5,1047.3,1071.3
						 M1044.7,1086.5c2,0,3.6,1.6,3.6,3.6c0,2-1.6,3.5-3.6,3.5c-2,0-3.5-1.5-3.5-3.5C1041.3,1088,1042.8,1086.5,1044.7,1086.5"/>
					<polygon style="clip-path:url(#SVGID_00000122716942438313723610000010381068055277375364_);fill:#005CB9;" points="
						338.3,1161.3 338.3,1115.6 344.1,1115.6 344.1,1156.3 365.7,1156.3 365.7,1161.3 					"/>
					<path style="clip-path:url(#SVGID_00000122716942438313723610000010381068055277375364_);fill:#005CB9;" d="M371.3,1144.7
						c0-9.6,6.4-17.3,16.7-17.3c10.3,0,16.7,7.7,16.7,17.3c0,9.6-6.4,17.4-16.7,17.4C377.7,1162.1,371.3,1154.3,371.3,1144.7
						 M399.1,1144.7c0-6.7-4-12.7-11.2-12.7c-7.2,0-11.2,6-11.2,12.7c0,6.8,4,12.8,11.2,12.8
						C395.2,1157.6,399.1,1151.5,399.1,1144.7"/>
					<path style="clip-path:url(#SVGID_00000122716942438313723610000010381068055277375364_);fill:#005CB9;" d="M413.1,1148.6v-0.3
						v-20.1h5.2v20.3c0,1.2,0.3,9,8.8,9c8.7,0,8.9-7.9,8.9-9.2v-20.1h5.2v20.1v0.3c0,2.1-0.5,13.5-14.1,13.5
						C413.6,1162.1,413.1,1150.7,413.1,1148.6"/>
					<path style="clip-path:url(#SVGID_00000122716942438313723610000010381068055277375364_);fill:#005CB9;" d="M449.7,1144.7
						c0-9.6,7-17.3,16.6-17.3c10.2,0,16.2,7.8,16.2,17.7v1.3h-27.3c0.4,6.2,4.8,11.1,12.1,11.1c3.9,0,7.5-1.5,10.2-4.2l2.8,3.7
						c-3.4,3.3-7.9,5.1-13.4,5.1C456.9,1162.1,449.7,1155.1,449.7,1144.7 M477.4,1142.6c-0.1-4.9-3.4-10.6-11.1-10.6
						c-7.2,0-10.8,5.6-11,10.6H477.4z"/>
					<polygon style="clip-path:url(#SVGID_00000122716942438313723610000010381068055277375364_);fill:#005CB9;" points="
						489.5,1161.3 489.5,1157.3 508.1,1132.8 489.5,1132.8 489.5,1128.2 514.9,1128.2 514.9,1132.1 496.2,1156.8 515.2,1156.8 
						515.2,1161.3 					"/>
					<path style="clip-path:url(#SVGID_00000122716942438313723610000010381068055277375364_);fill:#005CB9;" d="M542.1,1148.6v-0.3
						v-20.1h5.2v20.3c0,1.2,0.3,9,8.8,9c8.7,0,8.9-7.9,8.9-9.2v-20.1h5.2v20.1v0.3c0,2.1-0.5,13.5-14.1,13.5
						C542.6,1162.1,542.1,1150.7,542.1,1148.6"/>
					<path style="clip-path:url(#SVGID_00000122716942438313723610000010381068055277375364_);fill:#005CB9;" d="M603.5,1161.3
						v-21.6c0-5.9-3.1-7.7-7.7-7.7c-4.1,0-10,2.9-10,12.7v16.6h-5.2v-33.1h5.2v4.8c2.4-2.8,7-5.6,12.1-5.6c7,0,10.7,3.5,10.7,10.7
						v23.2H603.5z"/>
					<path style="clip-path:url(#SVGID_00000122716942438313723610000010381068055277375364_);fill:#005CB9;" d="M635.2,1144.7
						c0-9.6,6.4-17.3,16.7-17.3c10.3,0,16.7,7.7,16.7,17.3c0,9.6-6.4,17.4-16.7,17.4C641.6,1162.1,635.2,1154.3,635.2,1144.7
						 M663.1,1144.7c0-6.7-4-12.7-11.2-12.7c-7.2,0-11.2,6-11.2,12.7c0,6.8,4,12.8,11.2,12.8
						C659.1,1157.6,663.1,1151.5,663.1,1144.7"/>
					<path style="clip-path:url(#SVGID_00000122716942438313723610000010381068055277375364_);fill:#005CB9;" d="M677,1148.6v-0.3
						v-20.1h5.2v20.3c0,1.2,0.3,9,8.8,9c8.7,0,8.9-7.9,8.9-9.2v-20.1h5.2v20.1v0.3c0,2.1-0.5,13.5-14.1,13.5
						C677.5,1162.1,677,1150.7,677,1148.6"/>
					<path style="clip-path:url(#SVGID_00000122716942438313723610000010381068055277375364_);fill:#005CB9;" d="M722.8,1148.6
						c0,1.4,0.2,9,8.7,9v4.6c-13.6,0-13.9-11.4-13.9-13.5v-15.9h-5.9v-4.5h5.9v-9h5.2v9h8.7v4.5h-8.7V1148.6z"/>
					<path style="clip-path:url(#SVGID_00000122716942438313723610000010381068055277375364_);fill:#005CB9;" d="M741.7,1116.6
						c1.7,0,3.1,1.4,3.1,3.2s-1.4,3.1-3.1,3.1c-1.7,0-3.1-1.4-3.1-3.1S740,1116.6,741.7,1116.6 M739.1,1128.2h5.2v33.1h-5.2V1128.2z
						"/>
					
						<rect x="755.3" y="1115.6" style="clip-path:url(#SVGID_00000122716942438313723610000010381068055277375364_);fill:#005CB9;" width="5.2" height="45.7"/>
					<path style="clip-path:url(#SVGID_00000122716942438313723610000010381068055277375364_);fill:#005CB9;" d="M819.6,1115.6v45.7
						h-5.2v-4.9c-3.1,4.6-7.8,5.7-10.7,5.7c-10.3,0-16.7-7.8-16.7-17.4c0-9.6,6.4-17.3,16.7-17.3c2.6,0,7.5,1,10.7,5.8v-17.5H819.6z
						 M814.9,1144.7c0-6.7-4-12.7-11.2-12.7c-7.2,0-11.2,6-11.2,12.7c0,6.8,4,12.8,11.2,12.8
						C810.9,1157.6,814.9,1151.5,814.9,1144.7"/>
					<path style="clip-path:url(#SVGID_00000122716942438313723610000010381068055277375364_);fill:#005CB9;" d="M828.1,1144.7
						c0-9.6,7-17.3,16.6-17.3c10.2,0,16.2,7.8,16.2,17.7v1.3h-27.3c0.4,6.2,4.8,11.1,12.1,11.1c3.9,0,7.5-1.5,10.2-4.2l2.8,3.7
						c-3.4,3.3-7.9,5.1-13.4,5.1C835.3,1162.1,828.1,1155.1,828.1,1144.7 M855.7,1142.6c-0.1-4.9-3.4-10.6-11.1-10.6
						c-7.2,0-10.8,5.6-11,10.6H855.7z"/>
					<path style="clip-path:url(#SVGID_00000122716942438313723610000010381068055277375364_);fill:#005CB9;" d="M892.7,1128.2v4.9
						c3.2-4.7,8.1-5.8,10.7-5.8c10.3,0,16.7,7.7,16.7,17.3c0,9.6-6.4,17.4-16.7,17.4c-2.9,0-7.6-1.1-10.7-5.7v17.5h-5.2v-45.7H892.7
						z M914.5,1144.7c0-6.7-4-12.7-11.2-12.7c-7.2,0-11.2,6-11.2,12.7c0,6.8,4,12.8,11.2,12.8
						C910.5,1157.6,914.5,1151.5,914.5,1144.7"/>
					<path style="clip-path:url(#SVGID_00000122716942438313723610000010381068055277375364_);fill:#005CB9;" d="M945.8,1133.1
						c-0.7-0.1-1.4-0.1-2.1-0.1c-4.1,0-10,1.9-10,11.8v16.6h-5.2v-33.1h5.2v4.8c2.4-2.8,7-5.6,12.1-5.6V1133.1z"/>
					<path style="clip-path:url(#SVGID_00000122716942438313723610000010381068055277375364_);fill:#005CB9;" d="M950.2,1144.7
						c0-9.6,6.4-17.3,16.7-17.3c10.3,0,16.7,7.7,16.7,17.3c0,9.6-6.4,17.4-16.7,17.4C956.6,1162.1,950.2,1154.3,950.2,1144.7
						 M978,1144.7c0-6.7-4-12.7-11.2-12.7c-7.2,0-11.2,6-11.2,12.7c0,6.8,4,12.8,11.2,12.8C974.1,1157.6,978,1151.5,978,1144.7"/>
					<path style="clip-path:url(#SVGID_00000122716942438313723610000010381068055277375364_);fill:#005CB9;" d="M1001.4,1170.2
						c8.4,0,8.7-7.4,8.7-8.9v-33h5.2v33c0,2.1-0.3,13.5-13.9,13.5V1170.2z M1012.7,1116.6c1.7,0,3.2,1.4,3.2,3.2s-1.4,3.1-3.2,3.1
						s-3.1-1.4-3.1-3.1S1011,1116.6,1012.7,1116.6"/>
					<path style="clip-path:url(#SVGID_00000122716942438313723610000010381068055277375364_);fill:#005CB9;" d="M1026.3,1148.6
						v-0.3v-20.1h5.2v20.3c0,1.2,0.3,9,8.8,9c8.7,0,8.9-7.9,8.9-9.2v-20.1h5.2v20.1v0.3c0,2.1-0.5,13.5-14.1,13.5
						C1026.7,1162.1,1026.3,1150.7,1026.3,1148.6"/>
					<path style="clip-path:url(#SVGID_00000122716942438313723610000010381068055277375364_);fill:#005CB9;" d="M1062,1156.9
						l2.6-3.7c2.3,2.5,6.5,4.7,11.2,4.7c5.1,0,8-2.4,8-5.7c0-8-20.9-3.1-20.9-15.3c0-5.2,4.5-9.5,12.5-9.5c5.8,0,9.8,2.1,12.5,4.8
						l-2.5,3.6c-2-2.4-5.6-4.2-10-4.2c-4.7,0-7.5,2.3-7.5,5.2c0,7.2,20.9,2.5,20.9,15.3c0,5.5-4.5,10-13.1,10
						C1070,1162.1,1065.4,1160.4,1062,1156.9"/>
					<path style="clip-path:url(#SVGID_00000122716942438313723610000010381068055277375364_);fill:#005CB9;" d="M1104.5,1148.6
						c0,1.4,0.2,9,8.7,9v4.6c-13.6,0-13.9-11.4-13.9-13.5v-15.9h-5.9v-4.5h5.9v-9h5.2v9h8.7v4.5h-8.7V1148.6z"/>
					<path style="clip-path:url(#SVGID_00000122716942438313723610000010381068055277375364_);fill:#005CB9;" d="M1118.5,1144.7
						c0-9.6,7-17.3,16.6-17.3c10.2,0,16.2,7.8,16.2,17.7v1.3h-27.3c0.4,6.2,4.8,11.1,12.1,11.1c3.9,0,7.5-1.5,10.2-4.2l2.8,3.7
						c-3.4,3.3-7.9,5.1-13.4,5.1C1125.7,1162.1,1118.5,1155.1,1118.5,1144.7 M1146.2,1142.6c-0.1-4.9-3.4-10.6-11.1-10.6
						c-7.2,0-10.8,5.6-11,10.6H1146.2z"/>
					
						<rect x="364.9" y="1184.2" style="clip-path:url(#SVGID_00000122716942438313723610000010381068055277375364_);fill:#005CB9;" width="11.2" height="45.6"/>
					<path style="clip-path:url(#SVGID_00000122716942438313723610000010381068055277375364_);fill:#005CB9;" d="M381.9,1213.2
						c0-9.6,7.2-17.3,17.6-17.3c9.3,0,16.6,7,16.6,18.7v2.1h-22.7c0.8,2.7,3.4,5.4,7.8,5.4c1.8,0,5.5-0.8,7.5-2.1l4.5,7
						c-3.2,2.5-8.8,3.7-13.4,3.7C389.8,1230.6,381.9,1224.1,381.9,1213.2 M399.5,1204.5c-4.2,0-5.8,3.3-6.2,5.3h12.3
						C405.1,1207.4,403.9,1204.5,399.5,1204.5"/>
					<path style="clip-path:url(#SVGID_00000122716942438313723610000010381068055277375364_);fill:#005CB9;" d="M452.3,1206.6v8.4
						c0,3.1,0.9,5.6,5.6,5.6v10c-11.3,0-16.8-7.5-16.8-16.8v-7.1h-5.5v-9.9h5.5v-9.4h11.2v9.4h6.6v9.9H452.3z"/>
					<path style="clip-path:url(#SVGID_00000122716942438313723610000010381068055277375364_);fill:#005CB9;" d="M462.2,1213.2
						c0-9.6,7.2-17.3,17.6-17.3c9.3,0,16.6,7,16.6,18.7v2.1h-22.7c0.8,2.7,3.4,5.4,7.8,5.4c1.8,0,5.5-0.8,7.5-2.1l4.5,7
						c-3.2,2.5-8.8,3.7-13.4,3.7C470.1,1230.6,462.2,1224.1,462.2,1213.2 M479.8,1204.5c-4.2,0-5.8,3.3-6.2,5.3h12.3
						C485.5,1207.4,484.2,1204.5,479.8,1204.5"/>
					<path style="clip-path:url(#SVGID_00000122716942438313723610000010381068055277375364_);fill:#005CB9;" d="M524.1,1229.8
						v-18.4c0-3.9-2.1-5.4-5.5-5.4c-3.1,0-5.8,2.2-5.8,7.1v16.6h-11.2v-33h11.2v4.3c2.2-2.8,6.3-5.2,12-5.2c5.3,0,8.5,2.5,9.8,6
						c2.3-2.9,6-6,12.7-6c7.2,0,10.5,4.5,10.5,10.2v23.7h-11.2v-18.4c0-3.9-2.1-5.4-5.5-5.4c-6.1,0-5.8,7.1-5.8,7.1v16.6H524.1z"/>
					<path style="clip-path:url(#SVGID_00000122716942438313723610000010381068055277375364_);fill:#005CB9;" d="M576.7,1225.6
						L576.7,1225.6l-0.1,16.8h-11.2v-45.6h11.2v4.3h0.1c2.9-4.5,7.2-5.2,9.2-5.2c9.3,0,15.3,8.1,15.3,17.3c0,9.3-6.3,17.4-15.3,17.4
						C583.8,1230.6,579.5,1230.1,576.7,1225.6 M589.5,1213.2c0-4.1-2.3-7.2-6.4-7.2c-4.2,0-6.5,3.1-6.5,7.2c0,4.2,2.3,7.3,6.5,7.3
						C587.2,1220.5,589.5,1217.4,589.5,1213.2"/>
					<path style="clip-path:url(#SVGID_00000122716942438313723610000010381068055277375364_);fill:#005CB9;" d="M605.3,1225.8
						c1.5-2.6,2.9-4.9,4.5-7.5c2.8,2.1,8.1,4,11.6,4c3,0,3.9-0.8,3.9-2c0-1.6-2.2-1.9-5.1-2.3c-5.3-0.8-13.8-2.7-13.8-11.1
						c0-5.8,5.1-11,14.2-11c5.1,0,9.9,1.6,13.6,4c-1.4,2.6-2.6,4.6-4,7.1c-2.2-1.6-5.9-3.1-9.5-3.1c-2.1,0-3.6,0.8-3.6,2.1
						c0,1.3,2.1,1.6,4.8,2.1c5.3,0.8,14,2.9,14,11.4c0,6.4-5.7,11.2-15.1,11.2C614.9,1230.6,608.8,1228.8,605.3,1225.8"/>
					<path style="clip-path:url(#SVGID_00000122716942438313723610000010381068055277375364_);fill:#005CB9;" d="M656.9,1213.2
						c0-9.2,6-17.3,15.3-17.3c2,0,6.3,0.8,9.2,5.2h0.1v-16.9h11.2v45.6h-11.2v-4.2h-0.1c-2.9,4.5-7.1,5-9.2,5
						C663.2,1230.6,656.9,1222.5,656.9,1213.2 M681.5,1213.2c0-4.1-2.3-7.2-6.5-7.2c-4.1,0-6.4,3.1-6.4,7.2c0,4.2,2.3,7.3,6.4,7.3
						C679.2,1220.5,681.5,1217.4,681.5,1213.2"/>
					<path style="clip-path:url(#SVGID_00000122716942438313723610000010381068055277375364_);fill:#005CB9;" d="M698.6,1213.2
						c0-9.6,7.2-17.3,17.6-17.3c9.3,0,16.6,7,16.6,18.7v2.1h-22.7c0.8,2.7,3.4,5.4,7.8,5.4c1.8,0,5.5-0.8,7.5-2.1l4.5,7
						c-3.2,2.5-8.8,3.7-13.4,3.7C706.4,1230.6,698.6,1224.1,698.6,1213.2 M716.2,1204.5c-4.2,0-5.8,3.3-6.2,5.3h12.3
						C721.8,1207.4,720.5,1204.5,716.2,1204.5"/>
					<polygon style="clip-path:url(#SVGID_00000122716942438313723610000010381068055277375364_);fill:#005CB9;" points="
						763.3,1229.8 751,1196.8 762.7,1196.8 769.4,1217.6 776.3,1196.8 788.1,1196.8 775.7,1229.8 					"/>
					<path style="clip-path:url(#SVGID_00000122716942438313723610000010381068055277375364_);fill:#005CB9;" d="M789.5,1213.2
						c0-9.2,6.6-17.3,18.1-17.3c11.4,0,18.1,8.1,18.1,17.3c0,9.3-6.7,17.4-18.1,17.4C796.1,1230.6,789.5,1222.5,789.5,1213.2
						 M814.1,1213.2c0-4.1-2.3-7.2-6.5-7.2c-4.1,0-6.4,3.1-6.4,7.2c0,4.2,2.3,7.3,6.4,7.3C811.7,1220.5,814.1,1217.4,814.1,1213.2"
						/>
					<path style="clip-path:url(#SVGID_00000122716942438313723610000010381068055277375364_);fill:#005CB9;" d="M829.8,1225.8
						c1.5-2.6,2.9-4.9,4.5-7.5c2.8,2.1,8.2,4,11.6,4c3,0,3.9-0.8,3.9-2c0-1.6-2.2-1.9-5.1-2.3c-5.3-0.8-13.8-2.7-13.8-11.1
						c0-5.8,5.1-11,14.2-11c5.1,0,9.9,1.6,13.6,4c-1.4,2.6-2.6,4.6-4,7.1c-2.2-1.6-5.9-3.1-9.5-3.1c-2.1,0-3.6,0.8-3.6,2.1
						c0,1.3,2.1,1.6,4.8,2.1c5.3,0.8,14,2.9,14,11.4c0,6.4-5.7,11.2-15.1,11.2C839.4,1230.6,833.3,1228.8,829.8,1225.8"/>
					<path style="clip-path:url(#SVGID_00000122716942438313723610000010381068055277375364_);fill:#005CB9;" d="M897.3,1206.6v8.4
						c0,3.1,0.9,5.6,5.6,5.6v10c-11.3,0-16.8-7.5-16.8-16.8v-7.1h-5.5v-9.9h5.5v-9.4h11.2v9.4h6.6v9.9H897.3z"/>
					<path style="clip-path:url(#SVGID_00000122716942438313723610000010381068055277375364_);fill:#005CB9;" d="M909,1229.8v-33
						h11.2v4.3c2.3-2.8,6.6-5.3,10.1-5.3v10.8c-0.6-0.1-1.3-0.1-2.3-0.1c-3.2,0-7.9,0.9-7.9,6.7v16.6H909z"/>
					<path style="clip-path:url(#SVGID_00000122716942438313723610000010381068055277375364_);fill:#005CB9;" d="M933.6,1213.2
						c0-9.2,6-17.3,15.3-17.3c2,0,6.3,0.8,9.2,5.2h0.1v-4.3h11.2v33h-11.2v-4.2h-0.1c-2.9,4.5-7.1,5-9.2,5
						C939.9,1230.6,933.6,1222.5,933.6,1213.2 M958.2,1213.2c0-4.1-2.3-7.2-6.5-7.2c-4.1,0-6.4,3.1-6.4,7.2c0,4.2,2.3,7.3,6.4,7.3
						C955.9,1220.5,958.2,1217.4,958.2,1213.2"/>
					<polygon style="clip-path:url(#SVGID_00000122716942438313723610000010381068055277375364_);fill:#005CB9;" points="
						985.5,1229.8 973.2,1196.8 984.9,1196.8 991.6,1217.6 998.5,1196.8 1010.3,1196.8 997.9,1229.8 					"/>
					<path style="clip-path:url(#SVGID_00000122716942438313723610000010381068055277375364_);fill:#005CB9;" d="M1011.7,1213.2
						c0-9.2,6-17.3,15.3-17.3c2,0,6.3,0.8,9.2,5.2h0.1v-4.3h11.2v33h-11.2v-4.2h-0.1c-2.9,4.5-7.1,5-9.2,5
						C1018,1230.6,1011.7,1222.5,1011.7,1213.2 M1036.3,1213.2c0-4.1-2.3-7.2-6.5-7.2c-4.1,0-6.4,3.1-6.4,7.2c0,4.2,2.3,7.3,6.4,7.3
						C1034,1220.5,1036.3,1217.4,1036.3,1213.2"/>
					<path style="clip-path:url(#SVGID_00000122716942438313723610000010381068055277375364_);fill:#005CB9;" d="M1088.7,1196.8
						v16.9c0,9.9-6.5,16.9-16.8,16.9c-11.3,0-16.8-7.6-16.8-16.9v-16.9h11.2v18.1c0,3.1,0.9,5.6,5.6,5.6c4.7,0,5.6-2.5,5.6-5.6
						v-18.1H1088.7z"/>
					<path style="clip-path:url(#SVGID_00000122716942438313723610000010381068055277375364_);fill:#005CB9;" d="M1115.6,1229.8
						l-5.5-9.6l-5.5,9.6h-12.1l10.4-17l-9.9-16h12.3l4.7,8.6c1.4-2.6,3.4-6,4.7-8.6h12.2l-9.8,16l10.6,17H1115.6z"/>
					<path style="clip-path:url(#SVGID_00000122716942438313723610000010381068055277375364_);fill:#005CB9;" d="M1264,355.8
						c0,80.4-65.2,145.6-145.6,145.6c-80.4,0-145.6-65.2-145.6-145.6s65.2-145.6,145.6-145.6C1198.8,210.3,1264,275.4,1264,355.8"/>
					<path style="clip-path:url(#SVGID_00000122716942438313723610000010381068055277375364_);fill:#FFD100;" d="M1020,445.9v-28.5
						h11.7c5.8,0,9.1,3.9,9.1,8.6c0,4.7-3.3,8.6-9.1,8.6h-8.1v11.3H1020z M1031.2,431.4c3.5,0,5.8-2.2,5.8-5.4
						c0-3.2-2.4-5.4-5.8-5.4h-7.6v10.9H1031.2z"/>
					<path style="clip-path:url(#SVGID_00000122716942438313723610000010381068055277375364_);fill:#FFD100;" d="M1070.5,445.9h-4.2
						l-3.1-8.1h-13.3l-3.2,8.1h-4.1l11.7-28.5h4.5L1070.5,445.9z M1051.1,434.7h11l-5.5-13.7L1051.1,434.7z"/>
					<path style="clip-path:url(#SVGID_00000122716942438313723610000010381068055277375364_);fill:#FFD100;" d="M1091.2,445.9
						l-7.4-11.3h-5.8v11.3h-3.6v-28.5h11.7c5.3,0,9.2,3.3,9.2,8.6c0,5.1-3.6,8-7.6,8.3l7.9,11.6H1091.2z M1085.6,431.4
						c3.5,0,5.9-2.3,5.9-5.5c0-3.3-2.4-5.4-5.9-5.4h-7.6v10.9H1085.6z"/>
					<path style="clip-path:url(#SVGID_00000122716942438313723610000010381068055277375364_);fill:#FFD100;" d="M1109.3,443.1
						l1.9-2.7c1.2,1.5,2.9,2.8,5.5,2.8c3.6,0,5.8-2.4,5.8-6v-19.9h3.6v19.9c0,6.2-4.1,9.1-9.2,9.1
						C1113.8,446.4,1111.3,445.4,1109.3,443.1"/>
					<path style="clip-path:url(#SVGID_00000122716942438313723610000010381068055277375364_);fill:#FFD100;" d="M1131.8,431.7
						c0-8.4,5.9-14.8,14.5-14.8c8.6,0,14.5,6.3,14.5,14.8s-5.9,14.8-14.5,14.8C1137.6,446.4,1131.8,440.1,1131.8,431.7 M1157,431.7
						c0-6.7-4.2-11.6-10.7-11.6c-6.5,0-10.7,4.9-10.7,11.6c0,6.6,4.2,11.6,10.7,11.6C1152.7,443.3,1157,438.3,1157,431.7"/>
					<path style="clip-path:url(#SVGID_00000122716942438313723610000010381068055277375364_);fill:#FFD100;" d="M1166.4,434.8
						v-17.5h3.6v17.4c0,5.2,2.9,8.5,8.2,8.5c5.4,0,8.3-3.3,8.3-8.5v-17.4h3.6v17.4c0,7.1-4,11.6-11.9,11.6
						C1170.4,446.4,1166.4,441.8,1166.4,434.8"/>
					<path style="clip-path:url(#SVGID_00000122716942438313723610000010381068055277375364_);fill:#FFD100;" d="M1213.8,445.9
						l-7.4-11.3h-5.8v11.3h-3.6v-28.5h11.7c5.3,0,9.2,3.3,9.2,8.6c0,5.1-3.6,8-7.6,8.3l7.9,11.6H1213.8z M1208.2,431.4
						c3.5,0,5.9-2.3,5.9-5.5c0-3.3-2.4-5.4-5.9-5.4h-7.6v10.9H1208.2z"/>
					<polygon style="clip-path:url(#SVGID_00000122716942438313723610000010381068055277375364_);fill:#FFD100;" points="
						1056.6,406.6 1056.6,332.1 1039.2,349.5 1026.6,336.4 1059.6,303.9 1079,303.9 1079,406.6 					"/>
					<path style="clip-path:url(#SVGID_00000122716942438313723610000010381068055277375364_);fill:#FFD100;" d="M1090.1,355.3
						c0-26.5,13.4-53,43.5-53c30,0,43.5,26.5,43.5,53s-13.4,53.2-43.5,53.2C1103.5,408.5,1090.1,381.8,1090.1,355.3 M1154.2,355.3
						c0-19-5.5-33.6-20.6-33.6c-14.9,0-20.6,14.6-20.6,33.6c0,19,5.7,33.7,20.6,33.7C1148.5,389.1,1154.2,374.3,1154.2,355.3"/>
					<path style="clip-path:url(#SVGID_00000122716942438313723610000010381068055277375364_);fill:#FFD100;" d="M1178.8,315.2h2.2
						c3.5-11,13.9-18,26.7-18c11.5,0,18.2,6.1,21.9,12.6l-9.6,4.6c-2.2-4.2-6.9-7.5-12.2-7.5c-6.5,0-11.7,3.2-14.5,8.3h17.3
						c1.7,0,3.1,1.4,3.1,3.1c0,1.7-1.4,3-3.1,3h-19.1c-0.2,0.8-0.2,1.6-0.2,2.5c0,0.8,0,1.5,0.1,2.2h19.2c1.7,0,3.1,1.4,3.1,3.1
						c0,1.7-1.4,3-3.1,3h-17.3c2.7,5.2,7.9,8.6,14.6,8.6c5.3,0,10.1-3.3,12.2-7.5l9.6,4.5c-3.7,6.4-10.4,12.6-21.9,12.6
						c-12.9,0-23.3-7.1-26.8-18.3h-2.2c-1.7,0-3-1.3-3-3c0-1.7,1.3-3.1,3-3.1h1.1c-0.1-0.7-0.1-1.5-0.1-2.2c0-0.8,0-1.6,0.1-2.5
						h-1.1c-1.7,0-3-1.3-3-3C1175.8,316.5,1177.1,315.2,1178.8,315.2"/>
					<path style="clip-path:url(#SVGID_00000122716942438313723610000010381068055277375364_);fill:#FFD100;" d="M1036.7,290.7h-3.3
						l-2.5-6.5h-10.7l-2.6,6.5h-3.3l9.4-22.8h3.6L1036.7,290.7z M1021.2,281.7h8.8l-4.4-11L1021.2,281.7z M1026.3,263.9
						c0.2,0.2,0.3,0.5,0.3,0.8c0,0.3-0.1,0.6-0.3,0.8c-0.2,0.2-0.5,0.3-0.8,0.3c-0.3,0-0.6-0.1-0.8-0.3l-2.7-2.7
						c-0.2-0.2-0.3-0.5-0.3-0.8c0-0.3,0.1-0.5,0.3-0.8c0.2-0.2,0.5-0.3,0.8-0.3c0.3,0,0.5,0.1,0.8,0.3L1026.3,263.9z"/>
					<path style="clip-path:url(#SVGID_00000122716942438313723610000010381068055277375364_);fill:#FFD100;" d="M1048.8,290.7
						v-22.8h9.4c4.7,0,7.3,3.1,7.3,6.9s-2.7,6.9-7.3,6.9h-6.5v9.1H1048.8z M1057.8,279.1c2.8,0,4.7-1.8,4.7-4.3s-1.9-4.3-4.7-4.3
						h-6.1v8.7H1057.8z"/>
					<path style="clip-path:url(#SVGID_00000122716942438313723610000010381068055277375364_);fill:#FFD100;" d="M1089.2,290.7h-3.3
						l-2.5-6.5h-10.7l-2.6,6.5h-3.3l9.4-22.8h3.6L1089.2,290.7z M1073.7,281.7h8.8l-4.4-11L1073.7,281.7z"/>
					<path style="clip-path:url(#SVGID_00000122716942438313723610000010381068055277375364_);fill:#FFD100;" d="M1105.8,290.7
						l-5.9-9.1h-4.7v9.1h-2.9v-22.8h9.4c4.2,0,7.3,2.7,7.3,6.9c0,4.1-2.9,6.4-6.1,6.6l6.3,9.3H1105.8z M1101.3,279.1
						c2.8,0,4.7-1.8,4.7-4.4c0-2.6-1.9-4.3-4.7-4.3h-6.1v8.7H1101.3z"/>
					<polygon style="clip-path:url(#SVGID_00000122716942438313723610000010381068055277375364_);fill:#FFD100;" points="
						1119.3,290.7 1119.3,270.4 1112,270.4 1112,267.8 1129.6,267.8 1129.6,270.4 1122.2,270.4 1122.2,290.7 					"/>
					
						<rect x="1133.5" y="267.8" style="clip-path:url(#SVGID_00000122716942438313723610000010381068055277375364_);fill:#FFD100;" width="2.9" height="22.8"/>
					<path style="clip-path:url(#SVGID_00000122716942438313723610000010381068055277375364_);fill:#FFD100;" d="M1155.3,290.7
						l-5.9-9.1h-4.7v9.1h-2.9v-22.8h9.4c4.2,0,7.3,2.7,7.3,6.9c0,4.1-2.9,6.4-6.1,6.6l6.3,9.3H1155.3z M1150.8,279.1
						c2.8,0,4.7-1.8,4.7-4.4c0-2.6-1.9-4.3-4.7-4.3h-6.1v8.7H1150.8z"/>
					<path style="clip-path:url(#SVGID_00000122716942438313723610000010381068055277375364_);fill:#FFD100;" d="M1172.1,290.7
						v-22.8h8c7.3,0,11.9,5,11.9,11.4c0,6.5-4.7,11.4-11.9,11.4H1172.1z M1180.1,288.1c5.6,0,8.9-4,8.9-8.9c0-4.9-3.2-8.9-8.9-8.9
						h-5.1v17.8H1180.1z"/>
					<polygon style="clip-path:url(#SVGID_00000122716942438313723610000010381068055277375364_);fill:#FFD100;" points="
						1196.6,290.7 1196.6,267.8 1211.8,267.8 1211.8,270.4 1199.4,270.4 1199.4,277.7 1209.8,277.7 1209.8,280.3 1199.4,280.3 
						1199.4,288.1 1211.8,288.1 1211.8,290.7 					"/>
					<path style="clip-path:url(#SVGID_00000122716942438313723610000010381068055277375364_);fill:#005CB9;" d="M825,391h14.6
						v-25.5H825V391z M842.5,375.1v7.1h24.3c2,0,3.6-1.6,3.6-3.6c0-2-1.6-3.6-3.6-3.6H842.5z M744,274.3
						c40.9,0,78.1,18.9,102.1,51.1l-8.3-1.4c-2.7-0.4-5.4,0.5-7.2,2.5c-1.5,1.6-2.3,3.8-2.1,6.1c0.3,3.6,3.2,6.7,7,7.3l28.2,4.7
						c0.4,0.1,0.7,0.1,1.1,0.1l0.2,0c3.6,0,6.8-2.5,7.7-6l7.4-28.7c0.6-2.4,0.1-4.9-1.4-6.9s-3.9-3.1-6.4-3.1l-0.5,0
						c-3.4,0.2-6.3,2.7-7.2,6.2l-2.6,10.1c-26.5-36.7-67.7-58.8-113.4-60.1l-0.2-12.9l7.8-0.1c4.7-0.1,8.5-3.9,8.4-8.6
						c-0.1-4.7-3.9-8.4-8.5-8.4H756l-32.5,0.4c-4.7,0.1-8.5,3.9-8.4,8.6c0.1,4.7,3.9,8.4,8.5,8.4h0.1l7.6-0.1l0.2,13
						c0,0.1,0,0.1,0,0.2c-73.1,6.2-130.8,66.6-132.9,141c-0.9,32.9,9.7,63.3,27.6,88.2c1.8,2.5,3.7,5,5.7,7.4c1.6,2,3.3,3.9,5,5.8
						c1.7,1.9,4.2,3,6.7,3h0c3.1,0,5.8-1.5,7.6-4c2.3-3.4,1.9-8.2-1-11.4c-1.4-1.6-2.9-3.2-4.3-4.9c-15.8-19.2-25.6-42.4-28.2-67.2
						l-0.2-2.3l-0.3,0c-0.4-4.4-0.5-8.9-0.4-13.5C618.5,330.1,675.5,274.3,744,274.3 M681.1,410.5c2.3,0,8,0.4,12.1,4.4
						c5.3,5.1,2.7,13.4,2.4,14.3c0,0.1-0.1,0.2-0.1,0.3L683.9,455c-1.2,2.6-2.4,5.8-2.7,11c-0.3,5.2,1.6,10.2,5.4,14.1
						c4.1,4.3,9.8,6.7,15.7,6.7c8.9,0,16.6-7.4,20.2-14.8l0.6-1.2c0.3-0.5,0.5-0.9,0.8-1.4l23.2-51.9h-25.8c-1.1,0-10.8-0.2-18.3-7
						c-8.4-7.7-8.2-19.5-8.2-20l0-44.9h-14.2c-9.9,0-17.6,8.5-17.6,15.8v33.1c0,7.3,7.7,15.8,17.6,15.8
						C680.5,410.5,680.8,410.5,681.1,410.5 M782.9,345.8v64.7h4.1c15.8,0,29.5-7.7,35-18.9v-26.8c-5.6-11.3-19.4-19-35-19H782.9z
						 M887.1,399.3c-2.2-2.2-5.3-3.2-8.5-2.6c-4.1,0.8-7.1,4.5-7.2,8.8c-0.1,2.1-0.2,4.3-0.4,6.5c-0.9,11.5-3.4,22.7-7.3,33.4l0,0.3
						c-18.5,49.7-67.7,84.9-123.4,83.2c-13.3-0.4-26-2.9-37.9-7l10.1-5.8c2.1-1.2,3.6-3.4,3.9-5.8c0.4-2.4-0.4-4.9-2.2-6.7
						c-2.4-2.6-6.8-3.1-10-1.2l-24.7,14.2c-0.3,0.2-0.6,0.4-0.9,0.6c-3,2.3-4,6.3-2.4,9.7l12.5,26.9c1.3,2.8,4.2,4.6,7.3,4.6
						c2,0,4-0.8,5.5-2.2c2.5-2.3,3.2-6.1,1.7-9.4l-3-6.5c12.5,4,25.8,6.3,39.6,6.7c1.4,0,2.9,0.1,4.3,0.1
						c37.9,0,73.9-14.6,101.2-41.1c3.5-3.4,6.7-6.9,9.8-10.6l0.2,0.3l2.1-2.6c18.4-22.8,29.4-50.4,31.7-79.6
						c0.2-2.6,0.3-5.2,0.4-7.6C889.7,403.5,888.8,401.1,887.1,399.3 M701.8,390.8c0,0,0,0.3,0,0.6v0c0,0.3,0,0.6,0.1,1
						c0,0,0,0,0,0.1c0,0.4,0.1,0.8,0.1,1.2c0,0.1,0,0.2,0,0.2c0.1,0.4,0.2,0.9,0.3,1.4c0,0.1,0.1,0.3,0.1,0.4
						c0.1,0.5,0.3,1.1,0.4,1.6c0,0.1,0.1,0.2,0.1,0.3c0.2,0.5,0.4,1.1,0.6,1.6c0,0.1,0.1,0.2,0.1,0.3c0.3,0.6,0.6,1.2,0.9,1.8
						c0.1,0.1,0.1,0.3,0.2,0.4c0.3,0.6,0.7,1.2,1.2,1.7c0.1,0.1,0.2,0.2,0.2,0.3c0.5,0.6,1,1.1,1.6,1.7c5.6,5.1,13.4,5.1,13.5,5.1
						h54.5v-64.7h-73.9V390.8z M718,356.2h28.9c2,0,3.6,1.6,3.6,3.6c0,2-1.6,3.6-3.6,3.6H718c-2,0-3.6-1.6-3.6-3.6
						C714.5,357.8,716.1,356.2,718,356.2 M718,371.7h28.9c2,0,3.6,1.6,3.6,3.6c0,2-1.6,3.6-3.6,3.6H718c-2,0-3.6-1.6-3.6-3.6
						C714.5,373.3,716.1,371.7,718,371.7"/>
				</g>
			</g>
		</g>
	</g>
	<g style="clip-path:url(#SVGID_00000157266517905466269300000015411395781239564676_);">
		<defs>
			<rect id="SVGID_00000104667311255171206490000002354464829125906840_" x="1488.2" y="-14.2" width="1502.4" height="1516.5"/>
		</defs>
		<clipPath id="SVGID_00000029763957609143310800000016692942095751906700_">
			<use xlink:href="#SVGID_00000104667311255171206490000002354464829125906840_"  style="overflow:visible;"/>
		</clipPath>
		<g style="clip-path:url(#SVGID_00000029763957609143310800000016692942095751906700_);">
			<g>
				<defs>
					<rect id="SVGID_00000043457639132903012010000006665645896171835571_" x="1474" y="-14.2" width="1516.5" height="1516.5"/>
				</defs>
				<clipPath id="SVGID_00000107565002241112442340000016016562056984807299_">
					<use xlink:href="#SVGID_00000043457639132903012010000006665645896171835571_"  style="overflow:visible;"/>
				</clipPath>
				
					<rect x="1474" y="-14.2" style="clip-path:url(#SVGID_00000107565002241112442340000016016562056984807299_);fill:#005CB9;" width="1516.5" height="1516.5"/>
				<g style="clip-path:url(#SVGID_00000107565002241112442340000016016562056984807299_);">
					<defs>
						<rect id="SVGID_00000142871387459598824230000006867729350039403141_" x="1474" y="-14.2" width="1516.5" height="1516.5"/>
					</defs>
					<clipPath id="SVGID_00000111882872082942311010000010540835109032507269_">
						<use xlink:href="#SVGID_00000142871387459598824230000006867729350039403141_"  style="overflow:visible;"/>
					</clipPath>
					<path style="clip-path:url(#SVGID_00000111882872082942311010000010540835109032507269_);fill:#FFFFFF;" d="M1833.9,1080.5
						c0,7.3-5,12.3-13.5,12.3h-21.2v-45.7h18.9c8.2,0,13.1,4.8,13.1,11.6c0,5.4-3.5,9.2-7.5,10.3
						C1829.9,1069.6,1833.9,1075.1,1833.9,1080.5 M1805,1067h12.1c5.3,0,8-3.2,8-7.3c0-4.1-2.7-7.4-8-7.4H1805V1067z M1819.3,1087.8
						c5.3,0,8.6-3,8.6-7.9c0-4.2-2.9-7.9-8.6-7.9H1805v15.8H1819.3z"/>
					<path style="clip-path:url(#SVGID_00000111882872082942311010000010540835109032507269_);fill:#FFFFFF;" d="M1841,1076.3
						c0-9.6,7-17.3,16.6-17.3c10.2,0,16.2,7.8,16.2,17.7v1.3h-27.3c0.4,6.2,4.8,11.1,12.1,11.1c3.9,0,7.5-1.5,10.2-4.2l2.8,3.7
						c-3.4,3.3-7.9,5.1-13.4,5.1C1848.2,1093.7,1841,1086.6,1841,1076.3 M1868.6,1074.1c-0.1-4.9-3.4-10.6-11.1-10.6
						c-7.2,0-10.8,5.6-11,10.6H1868.6z"/>
					<path style="clip-path:url(#SVGID_00000111882872082942311010000010540835109032507269_);fill:#FFFFFF;" d="M1879.5,1088.5
						l2.6-3.7c2.3,2.5,6.5,4.7,11.2,4.7c5.1,0,8-2.4,8-5.7c0-8-20.9-3.1-20.9-15.3c0-5.2,4.5-9.5,12.5-9.5c5.8,0,9.8,2.1,12.5,4.8
						l-2.5,3.6c-2-2.4-5.6-4.2-10-4.2c-4.7,0-7.5,2.3-7.5,5.2c0,7.2,20.9,2.5,20.9,15.3c0,5.5-4.5,10-13.1,10
						C1887.5,1093.7,1882.9,1091.9,1879.5,1088.5"/>
					<path style="clip-path:url(#SVGID_00000111882872082942311010000010540835109032507269_);fill:#FFFFFF;" d="M1912.8,1076.3
						c0-9.6,6.4-17.3,16.7-17.3s16.7,7.7,16.7,17.3c0,9.6-6.4,17.4-16.7,17.4S1912.8,1085.9,1912.8,1076.3 M1940.7,1076.3
						c0-6.7-4-12.7-11.2-12.7s-11.2,6-11.2,12.7c0,6.8,4,12.8,11.2,12.8S1940.7,1083,1940.7,1076.3"/>
					<path style="clip-path:url(#SVGID_00000111882872082942311010000010540835109032507269_);fill:#FFFFFF;" d="M1957.7,1048.1
						c1.7,0,3.2,1.4,3.2,3.2s-1.4,3.1-3.2,3.1c-1.7,0-3.1-1.4-3.1-3.1S1956,1048.1,1957.7,1048.1 M1955.1,1059.8h5.2v33.1h-5.2
						V1059.8z"/>
					<path style="clip-path:url(#SVGID_00000111882872082942311010000010540835109032507269_);fill:#FFFFFF;" d="M1994.2,1092.8
						v-21.6c0-5.9-3.1-7.7-7.7-7.7c-4.1,0-10,2.9-10,12.7v16.6h-5.2v-33.1h5.2v4.8c2.4-2.8,7-5.6,12.1-5.6c7,0,10.7,3.5,10.7,10.7
						v23.2H1994.2z"/>
					<path style="clip-path:url(#SVGID_00000111882872082942311010000010540835109032507269_);fill:#FFFFFF;" d="M2058.4,1047.2
						v45.7h-5.2v-4.9c-3.1,4.6-7.8,5.7-10.7,5.7c-10.3,0-16.7-7.8-16.7-17.4c0-9.6,6.4-17.3,16.7-17.3c2.6,0,7.5,1,10.7,5.8v-17.5
						H2058.4z M2053.7,1076.3c0-6.7-4-12.7-11.2-12.7c-7.2,0-11.2,6-11.2,12.7c0,6.8,4,12.8,11.2,12.8
						C2049.7,1089.1,2053.7,1083,2053.7,1076.3"/>
					<path style="clip-path:url(#SVGID_00000111882872082942311010000010540835109032507269_);fill:#FFFFFF;" d="M2068,1058.7
						c1.2-1,2.1-2.9,2.1-4.9c0-0.3-0.1-0.5-0.1-0.8c-1.5-0.5-2.2-1.5-2.2-3.1c0-2,1.5-3.4,3.6-3.4c2.6,0,4.4,2.1,4.4,4.9
						c0,4.4-3.4,8.2-7.8,8.6V1058.7z"/>
					<path style="clip-path:url(#SVGID_00000111882872082942311010000010540835109032507269_);fill:#FFFFFF;" d="M2084.8,1080.2
						v-0.3v-20.1h5.2v20.3c0,1.2,0.3,9,8.8,9c8.7,0,8.9-7.9,8.9-9.2v-20.1h5.2v20.1v0.3c0,2.1-0.5,13.5-14.1,13.5
						C2085.3,1093.7,2084.8,1082.2,2084.8,1080.2"/>
					<path style="clip-path:url(#SVGID_00000111882872082942311010000010540835109032507269_);fill:#FFFFFF;" d="M2146.2,1092.8
						v-21.6c0-5.9-3.1-7.7-7.7-7.7c-4.1,0-10,2.9-10,12.7v16.6h-5.2v-33.1h5.2v4.8c2.4-2.8,7-5.6,12.1-5.6c7,0,10.7,3.5,10.7,10.7
						v23.2H2146.2z"/>
					<path style="clip-path:url(#SVGID_00000111882872082942311010000010540835109032507269_);fill:#FFFFFF;" d="M2177.9,1076.3
						c0-9.8,6.8-17.3,16.8-17.3c6.1,0,9.7,2.5,12.3,5.8l-3.5,3.1c-2.2-3-5.1-4.2-8.6-4.2c-7.1,0-11.7,5.4-11.7,12.7
						c0,7.3,4.6,12.8,11.7,12.8c3.5,0,6.4-1.4,8.6-4.3l3.5,3.2c-2.6,3.3-6.2,5.8-12.3,5.8
						C2184.7,1093.7,2177.9,1086.1,2177.9,1076.3"/>
					<path style="clip-path:url(#SVGID_00000111882872082942311010000010540835109032507269_);fill:#FFFFFF;" d="M2212.5,1076.3
						c0-9.6,6.4-17.3,16.7-17.3s16.7,7.7,16.7,17.3c0,9.6-6.4,17.4-16.7,17.4S2212.5,1085.9,2212.5,1076.3 M2240.3,1076.3
						c0-6.7-4-12.7-11.2-12.7c-7.2,0-11.2,6-11.2,12.7c0,6.8,4,12.8,11.2,12.8C2236.4,1089.1,2240.3,1083,2240.3,1076.3"/>
					<path style="clip-path:url(#SVGID_00000111882872082942311010000010540835109032507269_);fill:#FFFFFF;" d="M2254.3,1080.2
						v-0.3v-20.1h5.2v20.3c0,1.2,0.3,9,8.8,9c8.7,0,8.9-7.9,8.9-9.2v-20.1h5.2v20.1v0.3c0,2.1-0.5,13.5-14.1,13.5
						C2254.8,1093.7,2254.3,1082.2,2254.3,1080.2"/>
					<path style="clip-path:url(#SVGID_00000111882872082942311010000010540835109032507269_);fill:#FFFFFF;" d="M2298.1,1059.8v4.9
						c3.2-4.7,8.1-5.8,10.7-5.8c10.3,0,16.7,7.7,16.7,17.3c0,9.6-6.4,17.4-16.7,17.4c-2.9,0-7.6-1.1-10.7-5.7v17.5h-5.2v-45.7
						H2298.1z M2319.9,1076.3c0-6.7-4-12.7-11.2-12.7c-7.2,0-11.2,6-11.2,12.7c0,6.8,4,12.8,11.2,12.8
						C2315.9,1089.1,2319.9,1083,2319.9,1076.3"/>
					<path style="clip-path:url(#SVGID_00000111882872082942311010000010540835109032507269_);fill:#FFFFFF;" d="M2382.6,1047.2
						v45.7h-5.2v-4.9c-3.1,4.6-7.8,5.7-10.7,5.7c-10.3,0-16.7-7.8-16.7-17.4c0-9.6,6.4-17.3,16.7-17.3c2.6,0,7.5,1,10.7,5.8v-17.5
						H2382.6z M2377.8,1076.3c0-6.7-4-12.7-11.2-12.7c-7.2,0-11.2,6-11.2,12.7c0,6.8,4,12.8,11.2,12.8
						C2373.9,1089.1,2377.8,1083,2377.8,1076.3"/>
					<path style="clip-path:url(#SVGID_00000111882872082942311010000010540835109032507269_);fill:#FFFFFF;" d="M2391,1076.3
						c0-9.6,7-17.3,16.6-17.3c10.2,0,16.2,7.8,16.2,17.7v1.3h-27.3c0.4,6.2,4.8,11.1,12.1,11.1c3.9,0,7.5-1.5,10.2-4.2l2.8,3.7
						c-3.4,3.3-7.9,5.1-13.4,5.1C2398.2,1093.7,2391,1086.6,2391,1076.3 M2418.7,1074.1c-0.1-4.9-3.4-10.6-11.1-10.6
						c-7.2,0-10.8,5.6-11,10.6H2418.7z"/>
					<path style="clip-path:url(#SVGID_00000111882872082942311010000010540835109032507269_);fill:#FFFFFF;" d="M2501.1,1069.6
						v23.2h-5.1v-21.6c0-5.3-2.5-7.3-6.4-7.6c-7.2,0-11.2,4.6-11.2,9.6v19.7h-5.1v-21.6c0-5.9-3.1-7.7-7.6-7.7
						c-4.1,0-10,2.9-10,12.7v16.6h-5.2v-33.1h5.2v4.8c2.4-2.8,7-5.6,12.1-5.6c5.2,0,8.6,2,9.9,6c2.7-3.4,6.6-6,12.7-6
						C2497.4,1058.9,2501.1,1062.4,2501.1,1069.6"/>
					<path style="clip-path:url(#SVGID_00000111882872082942311010000010540835109032507269_);fill:#FFFFFF;" d="M2542.1,1059.8
						v33.1h-5.2v-4.9c-3.1,4.6-7.8,5.7-10.7,5.7c-10.3,0-16.7-7.8-16.7-17.4c0-9.6,6.4-17.3,16.7-17.3c2.6,0,7.5,1,10.7,5.8v-4.9
						H2542.1z M2537.4,1076.3c0-6.7-4-12.7-11.2-12.7c-7.2,0-11.2,6-11.2,12.7c0,6.8,4,12.8,11.2,12.8
						C2533.4,1089.1,2537.4,1083,2537.4,1076.3"/>
					<path style="clip-path:url(#SVGID_00000111882872082942311010000010540835109032507269_);fill:#FFFFFF;" d="M2555.6,1048.1
						c1.7,0,3.2,1.4,3.2,3.2s-1.4,3.1-3.2,3.1c-1.7,0-3.1-1.4-3.1-3.1S2553.9,1048.1,2555.6,1048.1 M2553,1059.8h5.2v33.1h-5.2
						V1059.8z"/>
					<path style="clip-path:url(#SVGID_00000111882872082942311010000010540835109032507269_);fill:#FFFFFF;" d="M2592,1092.8v-21.6
						c0-5.9-3.1-7.7-7.7-7.7c-4.1,0-10,2.9-10,12.7v16.6h-5.2v-33.1h5.2v4.8c2.4-2.8,7-5.6,12.1-5.6c7,0,10.7,3.5,10.7,10.7v23.2
						H2592z"/>
					<path style="clip-path:url(#SVGID_00000111882872082942311010000010540835109032507269_);fill:#FFFFFF;" d="M2637.2,1071.3v6.4
						c0,1.4-1.2,2.5-2.5,2.5c-1.4,0-2.5-1.1-2.5-2.5v-11.1c11.9,0,12.5-7,12.5-8.5v-0.3c0-3.4-2.7-6.4-8.1-6.4
						c-5.3,0-8.6,2.2-11.2,5.6l-3.5-3.7c3.4-4.3,8.5-7,15.1-7c7.7,0,13.7,4.1,13.7,11.7C2650.6,1063.2,2648.1,1069.5,2637.2,1071.3
						 M2634.6,1086.5c2,0,3.6,1.6,3.6,3.6c0,2-1.6,3.5-3.6,3.5c-2,0-3.5-1.5-3.5-3.5C2631.1,1088,2632.6,1086.5,2634.6,1086.5"/>
					<path style="clip-path:url(#SVGID_00000111882872082942311010000010540835109032507269_);fill:#FFFFFF;" d="M1750.7,1161.3
						v-45.6h19.7c13.8,0,24.2,8.2,24.2,22.7c0,14.6-10.4,22.9-24.2,22.9H1750.7z M1781.8,1138.4c0-6.6-3.8-11.5-11.4-11.5h-7.2v23.1
						h7.1C1777.6,1150.1,1781.8,1144.6,1781.8,1138.4"/>
					<path style="clip-path:url(#SVGID_00000111882872082942311010000010540835109032507269_);fill:#FFFFFF;" d="M1797.7,1144.7
						c0-9.6,7.2-17.3,17.6-17.3c9.3,0,16.6,7,16.6,18.7v2.1h-22.7c0.8,2.7,3.4,5.4,7.8,5.4c1.8,0,5.5-0.8,7.5-2.1l4.5,7
						c-3.2,2.5-8.8,3.7-13.4,3.7C1805.5,1162.1,1797.7,1155.6,1797.7,1144.7 M1815.3,1136c-4.2,0-5.8,3.3-6.2,5.3h12.3
						C1820.9,1138.9,1819.6,1136,1815.3,1136"/>
					<path style="clip-path:url(#SVGID_00000111882872082942311010000010540835109032507269_);fill:#FFFFFF;" d="M1835.3,1157.3
						c1.5-2.6,2.9-4.9,4.5-7.5c2.8,2.1,8.1,4,11.6,4c3,0,3.9-0.8,3.9-2c0-1.6-2.2-1.9-5.1-2.3c-5.3-0.8-13.8-2.7-13.8-11.1
						c0-5.8,5.1-11,14.2-11c5.1,0,9.9,1.6,13.6,4c-1.4,2.6-2.6,4.6-4,7.1c-2.2-1.6-5.9-3.1-9.5-3.1c-2.1,0-3.6,0.8-3.6,2.1
						s2.1,1.6,4.8,2.1c5.3,0.8,14,2.9,14,11.4c0,6.4-5.7,11.2-15.1,11.2C1844.8,1162.1,1838.7,1160.3,1835.3,1157.3"/>
					<path style="clip-path:url(#SVGID_00000111882872082942311010000010540835109032507269_);fill:#FFFFFF;" d="M1899.9,1157.1
						L1899.9,1157.1l-0.1,4.2h-11.2v-45.6h11.2v16.9h0.1c2.9-4.5,7.2-5.2,9.2-5.2c9.3,0,15.3,8.1,15.3,17.3
						c0,9.3-6.3,17.4-15.3,17.4C1907,1162.1,1902.8,1161.6,1899.9,1157.1 M1912.8,1144.7c0-4.1-2.3-7.2-6.4-7.2
						c-4.2,0-6.5,3.1-6.5,7.2c0,4.2,2.3,7.3,6.5,7.3C1910.4,1152.1,1912.8,1148.9,1912.8,1144.7"/>
					<path style="clip-path:url(#SVGID_00000111882872082942311010000010540835109032507269_);fill:#FFFFFF;" d="M1930.2,1161.3v-33
						h11.2v4.3c2.3-2.8,6.6-5.3,10.1-5.3v10.8c-0.6-0.1-1.3-0.1-2.3-0.1c-3.2,0-7.9,0.9-7.9,6.7v16.6H1930.2z"/>
					<path style="clip-path:url(#SVGID_00000111882872082942311010000010540835109032507269_);fill:#FFFFFF;" d="M1956.6,1117
						c0-3.1,2.5-5.5,5.7-5.5c3,0,5.5,2.4,5.5,5.5c0,3-2.5,5.5-5.5,5.5C1959.1,1122.5,1956.6,1120,1956.6,1117 M1956.6,1128.3h11.2
						v33h-11.2V1128.3z"/>
					<path style="clip-path:url(#SVGID_00000111882872082942311010000010540835109032507269_);fill:#FFFFFF;" d="M1973.6,1144.7
						c0-10.5,7.9-17.3,18-17.3c7,0,11.3,3.1,13.3,5.8l-7.1,7c-1.2-1.5-3.1-2.6-5.7-2.6c-3.8,0-7.1,2.5-7.1,7.2
						c0,4.7,3.3,7.3,7.1,7.3c2.5,0,4.6-1.3,5.8-2.7c2.5,2.5,4.5,4.7,7,7.1c-2,2.6-6.4,5.7-13.3,5.7
						C1981.5,1162.1,1973.6,1155.3,1973.6,1144.7"/>
					<path style="clip-path:url(#SVGID_00000111882872082942311010000010540835109032507269_);fill:#FFFFFF;" d="M2008.4,1144.7
						c0-9.2,6.6-17.3,18.1-17.3c11.4,0,18.1,8.1,18.1,17.3c0,9.3-6.7,17.4-18.1,17.4C2015,1162.1,2008.4,1154.1,2008.4,1144.7
						 M2032.9,1144.7c0-4.1-2.3-7.2-6.5-7.2c-4.1,0-6.4,3.1-6.4,7.2c0,4.2,2.3,7.3,6.4,7.3
						C2030.6,1152.1,2032.9,1148.9,2032.9,1144.7"/>
					
						<rect x="2050.4" y="1115.7" style="clip-path:url(#SVGID_00000111882872082942311010000010540835109032507269_);fill:#FFFFFF;" width="11.2" height="45.6"/>
					<path style="clip-path:url(#SVGID_00000111882872082942311010000010540835109032507269_);fill:#FFFFFF;" d="M2067.5,1144.7
						c0-9.6,7.2-17.3,17.6-17.3c9.3,0,16.6,7,16.6,18.7v2.1H2079c0.8,2.7,3.4,5.4,7.8,5.4c1.8,0,5.5-0.8,7.5-2.1l4.5,7
						c-3.2,2.5-8.8,3.7-13.4,3.7C2075.3,1162.1,2067.5,1155.6,2067.5,1144.7 M2085.1,1136c-4.2,0-5.8,3.3-6.2,5.3h12.3
						C2090.7,1138.9,2089.4,1136,2085.1,1136"/>
					<path style="clip-path:url(#SVGID_00000111882872082942311010000010540835109032507269_);fill:#FFFFFF;" d="M2140.5,1128.3
						v16.9c0,9.9-6.5,16.9-16.8,16.9c-11.3,0-16.8-7.6-16.8-16.9v-16.9h11.2v18.1c0,3.1,0.9,5.6,5.6,5.6c4.7,0,5.6-2.5,5.6-5.6
						v-18.1H2140.5z"/>
					<path style="clip-path:url(#SVGID_00000111882872082942311010000010540835109032507269_);fill:#FFFFFF;" d="M2148,1161.3v-33
						h11.2v4.3c2.3-2.8,6.6-5.3,10.1-5.3v10.8c-0.6-0.1-1.3-0.1-2.3-0.1c-3.2,0-7.9,0.9-7.9,6.7v16.6H2148z"/>
					<path style="clip-path:url(#SVGID_00000111882872082942311010000010540835109032507269_);fill:#FFFFFF;" d="M2172.6,1157.3
						c1.5-2.6,2.9-4.9,4.5-7.5c2.8,2.1,8.1,4,11.6,4c3,0,3.9-0.8,3.9-2c0-1.6-2.2-1.9-5.1-2.3c-5.3-0.8-13.8-2.7-13.8-11.1
						c0-5.8,5.1-11,14.2-11c5.1,0,9.9,1.6,13.6,4c-1.4,2.6-2.6,4.6-4,7.1c-2.2-1.6-5.9-3.1-9.5-3.1c-2.1,0-3.6,0.8-3.6,2.1
						s2.1,1.6,4.8,2.1c5.3,0.8,14,2.9,14,11.4c0,6.4-5.7,11.2-15.1,11.2C2182.2,1162.1,2176.1,1160.3,2172.6,1157.3"/>
					<polygon style="clip-path:url(#SVGID_00000111882872082942311010000010540835109032507269_);fill:#FFFFFF;" points="
						2234.5,1161.3 2222.2,1128.3 2233.9,1128.3 2240.6,1149.1 2247.5,1128.3 2259.3,1128.3 2246.9,1161.3 					"/>
					<path style="clip-path:url(#SVGID_00000111882872082942311010000010540835109032507269_);fill:#FFFFFF;" d="M2260.7,1144.7
						c0-9.2,6.6-17.3,18.1-17.3c11.4,0,18.1,8.1,18.1,17.3c0,9.3-6.7,17.4-18.1,17.4C2267.3,1162.1,2260.7,1154.1,2260.7,1144.7
						 M2285.3,1144.7c0-4.1-2.3-7.2-6.5-7.2c-4.1,0-6.4,3.1-6.4,7.2c0,4.2,2.3,7.3,6.4,7.3C2283,1152.1,2285.3,1148.9,2285.3,1144.7
						"/>
					<path style="clip-path:url(#SVGID_00000111882872082942311010000010540835109032507269_);fill:#FFFFFF;" d="M2336.4,1128.3
						v16.9c0,9.9-6.5,16.9-16.8,16.9c-11.3,0-16.8-7.6-16.8-16.9v-16.9h11.2v18.1c0,3.1,0.9,5.6,5.6,5.6c4.7,0,5.6-2.5,5.6-5.6
						v-18.1H2336.4z"/>
					<path style="clip-path:url(#SVGID_00000111882872082942311010000010540835109032507269_);fill:#FFFFFF;" d="M2342.3,1157.3
						c1.5-2.6,2.9-4.9,4.5-7.5c2.8,2.1,8.2,4,11.6,4c3,0,3.9-0.8,3.9-2c0-1.6-2.2-1.9-5.1-2.3c-5.3-0.8-13.8-2.7-13.8-11.1
						c0-5.8,5.1-11,14.2-11c5.1,0,9.9,1.6,13.6,4c-1.4,2.6-2.6,4.6-4,7.1c-2.2-1.6-5.9-3.1-9.5-3.1c-2.1,0-3.6,0.8-3.6,2.1
						s2.1,1.6,4.8,2.1c5.3,0.8,14,2.9,14,11.4c0,6.4-5.7,11.2-15.1,11.2C2351.8,1162.1,2345.7,1160.3,2342.3,1157.3"/>
					<path style="clip-path:url(#SVGID_00000111882872082942311010000010540835109032507269_);fill:#FFFFFF;" d="M2393.9,1144.7
						c0-9.2,6-17.3,15.3-17.3c2,0,6.3,0.8,9.2,5.2h0.1v-4.3h11.2v33h-11.2v-4.2h-0.1c-2.9,4.5-7.1,5-9.2,5
						C2400.2,1162.1,2393.9,1154.1,2393.9,1144.7 M2418.5,1144.7c0-4.1-2.3-7.2-6.5-7.2c-4.1,0-6.4,3.1-6.4,7.2
						c0,4.2,2.3,7.3,6.4,7.3C2416.1,1152.1,2418.5,1148.9,2418.5,1144.7"/>
					<path style="clip-path:url(#SVGID_00000111882872082942311010000010540835109032507269_);fill:#FFFFFF;" d="M2437.2,1117
						c0-3.1,2.5-5.5,5.7-5.5c3,0,5.5,2.4,5.5,5.5c0,3-2.5,5.5-5.5,5.5C2439.8,1122.5,2437.2,1120,2437.2,1117 M2437.2,1128.3h11.2
						v33h-11.2V1128.3z"/>
					<path style="clip-path:url(#SVGID_00000111882872082942311010000010540835109032507269_);fill:#FFFFFF;" d="M2454.3,1144.7
						c0-9.2,6-17.3,15.3-17.3c2,0,6.3,0.8,9.2,5.2h0.1v-16.9h11.2v45.6h-11.2v-4.2h-0.1c-2.9,4.5-7.1,5-9.2,5
						C2460.6,1162.1,2454.3,1154.1,2454.3,1144.7 M2478.9,1144.7c0-4.1-2.3-7.2-6.5-7.2c-4.1,0-6.4,3.1-6.4,7.2
						c0,4.2,2.3,7.3,6.4,7.3C2476.5,1152.1,2478.9,1148.9,2478.9,1144.7"/>
					<path style="clip-path:url(#SVGID_00000111882872082942311010000010540835109032507269_);fill:#FFFFFF;" d="M2495.9,1144.7
						c0-9.6,7.2-17.3,17.6-17.3c9.3,0,16.6,7,16.6,18.7v2.1h-22.7c0.8,2.7,3.4,5.4,7.8,5.4c1.8,0,5.5-0.8,7.5-2.1l4.5,7
						c-3.2,2.5-8.8,3.7-13.4,3.7C2503.8,1162.1,2495.9,1155.6,2495.9,1144.7 M2513.5,1136c-4.2,0-5.8,3.3-6.2,5.3h12.3
						C2519.1,1138.9,2517.9,1136,2513.5,1136"/>
					<path style="clip-path:url(#SVGID_00000111882872082942311010000010540835109032507269_);fill:#FFFFFF;" d="M2557.8,1161.3
						V1143c0-3.9-2.1-5.4-5.5-5.4c-3.1,0-5.8,2.2-5.8,7.1v16.6h-11.2v-33h11.2v4.3c2.2-2.8,6.3-5.2,12-5.2c7.2,0,10.5,4.5,10.5,10.2
						v23.7H2557.8z"/>
					<path style="clip-path:url(#SVGID_00000111882872082942311010000010540835109032507269_);fill:#FFFFFF;" d="M2590.7,1138.2v8.4
						c0,3.1,0.9,5.6,5.6,5.6v10c-11.3,0-16.8-7.5-16.8-16.8v-7.1h-5.5v-9.9h5.5v-9.4h11.2v9.4h6.6v9.9H2590.7z"/>
					<path style="clip-path:url(#SVGID_00000111882872082942311010000010540835109032507269_);fill:#FFFFFF;" d="M2617.5,1157.3
						c1.5-2.6,2.9-4.9,4.5-7.5c2.8,2.1,8.1,4,11.6,4c3,0,3.9-0.8,3.9-2c0-1.6-2.2-1.9-5.1-2.3c-5.3-0.8-13.8-2.7-13.8-11.1
						c0-5.8,5.1-11,14.2-11c5.1,0,9.9,1.6,13.6,4c-1.4,2.6-2.6,4.6-4,7.1c-2.2-1.6-5.9-3.1-9.5-3.1c-2.1,0-3.6,0.8-3.6,2.1
						s2.1,1.6,4.8,2.1c5.3,0.8,14,2.9,14,11.4c0,6.4-5.7,11.2-15.1,11.2C2627.1,1162.1,2621,1160.3,2617.5,1157.3"/>
					<path style="clip-path:url(#SVGID_00000111882872082942311010000010540835109032507269_);fill:#FFFFFF;" d="M2687.7,1128.3
						v16.9c0,9.9-6.5,16.9-16.8,16.9c-11.3,0-16.8-7.6-16.8-16.9v-16.9h11.2v18.1c0,3.1,0.9,5.6,5.6,5.6c4.7,0,5.6-2.5,5.6-5.6
						v-18.1H2687.7z"/>
					<path style="clip-path:url(#SVGID_00000111882872082942311010000010540835109032507269_);fill:#FFFFFF;" d="M2695.2,1161.3v-33
						h11.2v4.3c2.3-2.8,6.6-5.3,10.1-5.3v10.8c-0.6-0.1-1.3-0.1-2.3-0.1c-3.2,0-7.9,0.9-7.9,6.7v16.6H2695.2z"/>
					<path style="clip-path:url(#SVGID_00000111882872082942311010000010540835109032507269_);fill:#FFFFFF;" d="M1844.9,1229.8
						v-18.4c0-3.9-2.1-5.4-5.5-5.4c-3.1,0-5.8,2.2-5.8,7.1v16.6h-11.2v-33h11.2v4.3c2.2-2.8,6.3-5.2,12-5.2
						c7.2,0,10.5,4.5,10.5,10.2v23.7H1844.9z"/>
					<path style="clip-path:url(#SVGID_00000111882872082942311010000010540835109032507269_);fill:#FFFFFF;" d="M1862,1213.2
						c0-9.6,7.2-17.3,17.6-17.3c9.3,0,16.6,7,16.6,18.7v2.1h-22.7c0.8,2.7,3.4,5.4,7.8,5.4c1.8,0,5.5-0.8,7.5-2.1l4.5,7
						c-3.2,2.5-8.8,3.7-13.4,3.7C1869.8,1230.6,1862,1224.1,1862,1213.2 M1879.6,1204.5c-4.2,0-5.8,3.3-6.2,5.3h12.3
						C1885.2,1207.4,1883.9,1204.5,1879.6,1204.5"/>
					<path style="clip-path:url(#SVGID_00000111882872082942311010000010540835109032507269_);fill:#FFFFFF;" d="M1899.6,1213.2
						c0-9.6,7.2-17.3,17.6-17.3c9.3,0,16.6,7,16.6,18.7v2.1h-22.7c0.8,2.7,3.4,5.4,7.8,5.4c1.8,0,5.5-0.8,7.5-2.1l4.5,7
						c-3.2,2.5-8.8,3.7-13.4,3.7C1907.4,1230.6,1899.6,1224.1,1899.6,1213.2 M1917.2,1204.5c-4.2,0-5.8,3.3-6.2,5.3h12.3
						C1922.8,1207.4,1921.5,1204.5,1917.2,1204.5"/>
					<path style="clip-path:url(#SVGID_00000111882872082942311010000010540835109032507269_);fill:#FFFFFF;" d="M1937.1,1213.2
						c0-9.2,6-17.3,15.3-17.3c2,0,6.3,0.8,9.2,5.2h0.1v-16.9h11.2v45.6h-11.2v-4.2h-0.1c-2.9,4.5-7.1,5-9.2,5
						C1943.4,1230.6,1937.1,1222.5,1937.1,1213.2 M1961.7,1213.2c0-4.1-2.3-7.2-6.5-7.2c-4.1,0-6.4,3.1-6.4,7.2
						c0,4.2,2.3,7.3,6.4,7.3C1959.4,1220.5,1961.7,1217.4,1961.7,1213.2"/>
					<path style="clip-path:url(#SVGID_00000111882872082942311010000010540835109032507269_);fill:#FFFFFF;" d="M2003,1229.8v-18.4
						c0-3.9-2.1-5.4-5.5-5.4c-3.1,0-5.8,2.2-5.8,7.1v16.6h-11.2v-45.6h11.2v16.9c2.2-2.8,6.3-5.2,12-5.2c7.2,0,10.5,4.5,10.5,10.2
						v23.7H2003z"/>
					<path style="clip-path:url(#SVGID_00000111882872082942311010000010540835109032507269_);fill:#FFFFFF;" d="M2020.1,1213.2
						c0-9.6,7.2-17.3,17.6-17.3c9.3,0,16.6,7,16.6,18.7v2.1h-22.7c0.8,2.7,3.4,5.4,7.8,5.4c1.8,0,5.5-0.8,7.5-2.1l4.5,7
						c-3.2,2.5-8.8,3.7-13.4,3.7C2027.9,1230.6,2020.1,1224.1,2020.1,1213.2 M2037.7,1204.5c-4.2,0-5.8,3.3-6.2,5.3h12.3
						C2043.3,1207.4,2042.1,1204.5,2037.7,1204.5"/>
					
						<rect x="2059.4" y="1184.2" style="clip-path:url(#SVGID_00000111882872082942311010000010540835109032507269_);fill:#FFFFFF;" width="11.2" height="45.6"/>
					<path style="clip-path:url(#SVGID_00000111882872082942311010000010540835109032507269_);fill:#FFFFFF;" d="M2089.4,1225.6
						L2089.4,1225.6l-0.1,16.8h-11.2v-45.6h11.2v4.3h0.1c2.9-4.5,7.2-5.2,9.2-5.2c9.3,0,15.3,8.1,15.3,17.3
						c0,9.3-6.3,17.4-15.3,17.4C2096.6,1230.6,2092.3,1230.1,2089.4,1225.6 M2102.3,1213.2c0-4.1-2.3-7.2-6.4-7.2
						c-4.2,0-6.5,3.1-6.5,7.2c0,4.2,2.3,7.3,6.5,7.3C2100,1220.5,2102.3,1217.4,2102.3,1213.2"/>
					<path style="clip-path:url(#SVGID_00000111882872082942311010000010540835109032507269_);fill:#FFFFFF;" d="M2118.9,1223.6
						c0-3.8,3.3-7,7.1-7c3.9,0,7.1,3.2,7.1,7s-3.2,7-7.1,7C2122.2,1230.6,2118.9,1227.5,2118.9,1223.6"/>
					<path style="clip-path:url(#SVGID_00000111882872082942311010000010540835109032507269_);fill:#FFFFFF;" d="M2137.9,1213.2
						c0-10.5,7.9-17.3,18-17.3c7,0,11.3,3.1,13.3,5.8l-7.1,7c-1.2-1.5-3.1-2.6-5.7-2.6c-3.8,0-7.1,2.5-7.1,7.2
						c0,4.7,3.3,7.3,7.1,7.3c2.5,0,4.6-1.3,5.8-2.7c2.5,2.5,4.5,4.7,7,7.1c-2,2.6-6.4,5.7-13.3,5.7
						C2145.7,1230.6,2137.9,1223.8,2137.9,1213.2"/>
					<path style="clip-path:url(#SVGID_00000111882872082942311010000010540835109032507269_);fill:#FFFFFF;" d="M2172.6,1213.2
						c0-9.2,6.6-17.3,18.1-17.3c11.4,0,18.1,8.1,18.1,17.3c0,9.3-6.7,17.4-18.1,17.4C2179.2,1230.6,2172.6,1222.5,2172.6,1213.2
						 M2197.2,1213.2c0-4.1-2.3-7.2-6.5-7.2c-4.1,0-6.4,3.1-6.4,7.2c0,4.2,2.3,7.3,6.4,7.3
						C2194.8,1220.5,2197.2,1217.4,2197.2,1213.2"/>
					<path style="clip-path:url(#SVGID_00000111882872082942311010000010540835109032507269_);fill:#FFFFFF;" d="M2237.1,1229.8
						v-18.4c0-3.9-2.1-5.4-5.5-5.4c-3.1,0-5.8,2.2-5.8,7.1v16.6h-11.2v-33h11.2v4.3c2.2-2.8,6.3-5.2,12-5.2c5.3,0,8.5,2.5,9.8,6
						c2.3-2.9,6-6,12.7-6c7.2,0,10.5,4.5,10.5,10.2v23.7h-11.2v-18.4c0-3.9-2.1-5.4-5.5-5.4c-6.1,0-5.8,7.1-5.8,7.1v16.6H2237.1z"/>
					<path style="clip-path:url(#SVGID_00000111882872082942311010000010540835109032507269_);fill:#FFFFFF;" d="M2281.2,1228.9
						c-0.5,1.8-2.3,2.7-4.1,2.1c-1.7-0.5-2.7-2.4-2.1-4.2l13.7-42.1c0.5-1.8,2.5-2.9,4.2-2.2c1.7,0.6,2.7,2.4,2.1,4.2L2281.2,1228.9
						z"/>
					<path style="clip-path:url(#SVGID_00000111882872082942311010000010540835109032507269_);fill:#FFFFFF;" d="M2297.3,1213.2
						c0-10.5,7.9-17.3,18-17.3c7,0,11.3,3.1,13.3,5.8l-7.1,7c-1.2-1.5-3.1-2.6-5.7-2.6c-3.8,0-7.1,2.5-7.1,7.2
						c0,4.7,3.3,7.3,7.1,7.3c2.5,0,4.6-1.3,5.8-2.7c2.5,2.5,4.5,4.7,7,7.1c-2,2.6-6.4,5.7-13.3,5.7
						C2305.2,1230.6,2297.3,1223.8,2297.3,1213.2"/>
					<path style="clip-path:url(#SVGID_00000111882872082942311010000010540835109032507269_);fill:#FFFFFF;" d="M2332.1,1213.2
						c0-9.2,6-17.3,15.3-17.3c2,0,6.3,0.8,9.2,5.2h0.1v-4.3h11.2v33h-11.2v-4.2h-0.1c-2.9,4.5-7.1,5-9.2,5
						C2338.4,1230.6,2332.1,1222.5,2332.1,1213.2 M2356.6,1213.2c0-4.1-2.3-7.2-6.5-7.2c-4.1,0-6.4,3.1-6.4,7.2
						c0,4.2,2.3,7.3,6.4,7.3C2354.3,1220.5,2356.6,1217.4,2356.6,1213.2"/>
					<path style="clip-path:url(#SVGID_00000111882872082942311010000010540835109032507269_);fill:#FFFFFF;" d="M2373.7,1225.8
						c1.5-2.6,2.9-4.9,4.5-7.5c2.8,2.1,8.2,4,11.6,4c3,0,3.9-0.8,3.9-2c0-1.6-2.2-1.9-5.1-2.3c-5.3-0.8-13.8-2.7-13.8-11.1
						c0-5.8,5.1-11,14.2-11c5.1,0,9.9,1.6,13.6,4c-1.4,2.6-2.6,4.6-4,7.1c-2.2-1.6-5.9-3.1-9.5-3.1c-2.1,0-3.6,0.8-3.6,2.1
						c0,1.3,2.1,1.6,4.8,2.1c5.3,0.8,14,2.9,14,11.4c0,6.4-5.7,11.2-15.1,11.2C2383.3,1230.6,2377.2,1228.8,2373.7,1225.8"/>
					<path style="clip-path:url(#SVGID_00000111882872082942311010000010540835109032507269_);fill:#FFFFFF;" d="M2424.3,1206.6v8.4
						c0,3.1,0.9,5.6,5.6,5.6v10c-11.3,0-16.8-7.5-16.8-16.8v-7.1h-5.5v-9.9h5.5v-9.4h11.2v9.4h6.6v9.9H2424.3z"/>
					<path style="clip-path:url(#SVGID_00000111882872082942311010000010540835109032507269_);fill:#FFFFFF;" d="M2434.2,1213.2
						c0-9.2,6.6-17.3,18.1-17.3c11.4,0,18.1,8.1,18.1,17.3c0,9.3-6.7,17.4-18.1,17.4C2440.9,1230.6,2434.2,1222.5,2434.2,1213.2
						 M2458.8,1213.2c0-4.1-2.3-7.2-6.5-7.2c-4.1,0-6.4,3.1-6.4,7.2c0,4.2,2.3,7.3,6.4,7.3
						C2456.5,1220.5,2458.8,1217.4,2458.8,1213.2"/>
					<path style="clip-path:url(#SVGID_00000111882872082942311010000010540835109032507269_);fill:#FFFFFF;" d="M2476.3,1229.8v-33
						h11.2v4.3c2.3-2.8,6.6-5.3,10.1-5.3v10.8c-0.6-0.1-1.3-0.1-2.3-0.1c-3.2,0-7.9,0.9-7.9,6.7v16.6H2476.3z"/>
					<path style="clip-path:url(#SVGID_00000111882872082942311010000010540835109032507269_);fill:#FFFFFF;" d="M2500.9,1213.2
						c0-9.2,6-17.3,15.3-17.3c2,0,6.3,0.8,9.2,5.2h0.1v-4.3h11.2v33h-11.2v-4.2h-0.1c-2.9,4.5-7.1,5-9.2,5
						C2507.2,1230.6,2500.9,1222.5,2500.9,1213.2 M2525.5,1213.2c0-4.1-2.3-7.2-6.5-7.2c-4.1,0-6.4,3.1-6.4,7.2
						c0,4.2,2.3,7.3,6.4,7.3C2523.2,1220.5,2525.5,1217.4,2525.5,1213.2"/>
					<path style="clip-path:url(#SVGID_00000111882872082942311010000010540835109032507269_);fill:#FFFFFF;" d="M2566.8,1229.8
						v-18.4c0-3.9-2.1-5.4-5.5-5.4c-3.1,0-5.8,2.2-5.8,7.1v16.6h-11.2v-33h11.2v4.3c2.2-2.8,6.3-5.2,12-5.2c5.3,0,8.5,2.5,9.8,6
						c2.3-2.9,6-6,12.7-6c7.2,0,10.5,4.5,10.5,10.2v23.7h-11.2v-18.4c0-3.9-2.1-5.4-5.5-5.4c-6.1,0-5.8,7.1-5.8,7.1v16.6H2566.8z"/>
					<path style="clip-path:url(#SVGID_00000111882872082942311010000010540835109032507269_);fill:#FFFFFF;" d="M2606.4,1213.2
						c0-9.2,6-17.3,15.3-17.3c2,0,6.3,0.8,9.2,5.2h0.1v-4.3h11.2v33H2631v-4.2h-0.1c-2.9,4.5-7.1,5-9.2,5
						C2612.7,1230.6,2606.4,1222.5,2606.4,1213.2 M2631,1213.2c0-4.1-2.3-7.2-6.5-7.2c-4.1,0-6.4,3.1-6.4,7.2c0,4.2,2.3,7.3,6.4,7.3
						C2628.6,1220.5,2631,1217.4,2631,1213.2"/>
					<path style="clip-path:url(#SVGID_00000111882872082942311010000010540835109032507269_);fill:#FFFFFF;" d="M1782.2,693.5
						c0-7.7,6.3-13.7,14.2-13.7c7.5,0,13.9,6,13.9,13.7c0,7.5-6.3,13.7-13.9,13.7C1788.6,707.2,1782.2,701,1782.2,693.5
						 M1782.2,721.7h28.1v82.5h-28.1V721.7z"/>
					<path style="clip-path:url(#SVGID_00000111882872082942311010000010540835109032507269_);fill:#FFFFFF;" d="M1885.4,804.2
						v-45.9c0-9.8-5.3-13.5-13.7-13.5c-7.7,0-14.6,5.5-14.6,17.8v41.6h-28.1v-82.5h28.1v10.8c5.5-7,15.7-13,30-13
						c18,0,26.4,11.3,26.4,25.5v59.2H1885.4z"/>
					<path style="clip-path:url(#SVGID_00000111882872082942311010000010540835109032507269_);fill:#FFFFFF;" d="M1928.1,794.3
						c3.8-6.5,7.4-12.3,11.1-18.8c7,5.1,20.4,9.9,29.1,9.9c7.5,0,9.8-2.1,9.8-5c0-4.1-5.5-4.8-12.7-5.8
						c-13.4-2.1-34.4-6.7-34.4-27.7c0-14.6,12.7-27.4,35.6-27.4c12.8,0,24.8,3.9,33.9,10.1c-3.4,6.5-6.5,11.5-9.9,17.8
						c-5.5-3.9-14.7-7.9-23.8-7.9c-5.3,0-9.1,1.9-9.1,5.1c0,3.3,5.1,4.1,12,5.1c13.2,2.1,34.9,7.2,34.9,28.6
						c0,16.1-14.2,27.9-37.8,27.9C1952,806.3,1936.8,801.7,1928.1,794.3"/>
					<path style="clip-path:url(#SVGID_00000111882872082942311010000010540835109032507269_);fill:#FFFFFF;" d="M2054.6,746.4v20.9
						c0,7.7,2.2,14,14,14v25c-28.2,0-42.1-18.8-42.1-42.1v-17.8h-13.7v-24.7h13.7v-23.5h28.1v23.5h16.6v24.7H2054.6z"/>
					<path style="clip-path:url(#SVGID_00000111882872082942311010000010540835109032507269_);fill:#FFFFFF;" d="M2079.4,762.8
						c0-23.1,15.1-43.3,38.3-43.3c5,0,15.7,1.9,22.9,13h0.2v-10.8h28.1v82.5h-28.1v-10.4h-0.2c-7.2,11.1-17.8,12.5-22.9,12.5
						C2095.2,806.3,2079.4,786.1,2079.4,762.8 M2140.9,762.8c0-10.3-5.8-18-16.3-18c-10.3,0-16.1,7.7-16.1,18
						c0,10.4,5.8,18.3,16.1,18.3C2135,781.1,2140.9,773.3,2140.9,762.8"/>
					
						<rect x="2187.8" y="690.2" style="clip-path:url(#SVGID_00000111882872082942311010000010540835109032507269_);fill:#FFFFFF;" width="28.1" height="114"/>
					
						<rect x="2234.7" y="690.2" style="clip-path:url(#SVGID_00000111882872082942311010000010540835109032507269_);fill:#FFFFFF;" width="28.1" height="114"/>
					<path style="clip-path:url(#SVGID_00000111882872082942311010000010540835109032507269_);fill:#FFFFFF;" d="M2277.3,762.8
						c0-23.1,15.1-43.3,38.3-43.3c5,0,15.8,1.9,22.9,13h0.2v-10.8h28.1v82.5h-28.1v-10.4h-0.2c-7.2,11.1-17.8,12.5-22.9,12.5
						C2293.1,806.3,2277.3,786.1,2277.3,762.8 M2338.8,762.8c0-10.3-5.8-18-16.3-18c-10.3,0-16.1,7.7-16.1,18
						c0,10.4,5.8,18.3,16.1,18.3C2332.9,781.1,2338.8,773.3,2338.8,762.8"/>
					<path style="clip-path:url(#SVGID_00000111882872082942311010000010540835109032507269_);fill:#FFFFFF;" d="M2421.1,746.4v20.9
						c0,7.7,2.2,14,14,14v25c-28.2,0-42.1-18.8-42.1-42.1v-17.8h-13.7v-24.7h13.7v-23.5h28.1v23.5h16.6v24.7H2421.1z"/>
					<path style="clip-path:url(#SVGID_00000111882872082942311010000010540835109032507269_);fill:#FFFFFF;" d="M2450.2,693.5
						c0-7.7,6.3-13.7,14.2-13.7c7.5,0,13.9,6,13.9,13.7c0,7.5-6.3,13.7-13.9,13.7C2456.5,707.2,2450.2,701,2450.2,693.5
						 M2450.2,721.7h28.1v82.5h-28.1V721.7z"/>
					<path style="clip-path:url(#SVGID_00000111882872082942311010000010540835109032507269_);fill:#FFFFFF;" d="M2492.8,762.8
						c0-23.1,16.6-43.3,45.2-43.3c28.6,0,45.4,20.2,45.4,43.3c0,23.3-16.8,43.5-45.4,43.5C2509.4,806.3,2492.8,786.1,2492.8,762.8
						 M2554.3,762.8c0-10.3-5.8-18-16.3-18c-10.3,0-16.1,7.7-16.1,18c0,10.4,5.8,18.3,16.1,18.3
						C2548.5,781.1,2554.3,773.3,2554.3,762.8"/>
					<path style="clip-path:url(#SVGID_00000111882872082942311010000010540835109032507269_);fill:#FFFFFF;" d="M2654.3,804.2
						v-45.9c0-9.8-5.3-13.5-13.7-13.5c-7.7,0-14.6,5.5-14.6,17.8v41.6h-28.1v-82.5h28.1v10.8c5.5-7,15.7-13,30-13
						c18,0,26.4,11.3,26.4,25.5v59.2H2654.3z"/>
					<path style="clip-path:url(#SVGID_00000111882872082942311010000010540835109032507269_);fill:#FFFFFF;" d="M1821.5,897.5
						c0-23.1,15.1-43.3,38.3-43.3c5,0,15.8,1.9,22.9,13h0.2v-10.8h28.1v82.5H1883v-10.4h-0.2c-7.2,11.1-17.8,12.5-22.9,12.5
						C1837.3,941,1821.5,920.8,1821.5,897.5 M1869.3,832.8c1.9,1.9,2.7,4.3,2.7,6.7c0,2.4-0.9,5-2.7,6.8c-2.1,1.9-4.3,2.9-6.8,2.9
						c-2.2,0-5-1.4-6.8-2.9l-10.8-11c-2.1-1.7-2.9-4.1-2.9-6.7c0-2.4,0.9-5,2.9-7c1.7-1.7,4.5-2.7,6.7-2.7c2.6,0,5,1,6.8,2.9
						L1869.3,832.8z M1883,897.5c0-10.3-5.8-18-16.3-18c-10.3,0-16.1,7.7-16.1,18c0,10.4,5.8,18.3,16.1,18.3
						C1877.1,915.8,1883,907.9,1883,897.5"/>
					<path style="clip-path:url(#SVGID_00000111882872082942311010000010540835109032507269_);fill:#FFFFFF;" d="M1965.8,897.5
						c0-23.1,15.1-43.3,38.3-43.3c5,0,15.7,1.9,22.9,13h0.2v-42.3h28.1v114h-28.1v-10.4h-0.2c-7.2,11.1-17.8,12.5-22.9,12.5
						C1981.6,941,1965.8,920.8,1965.8,897.5 M2027.3,897.5c0-10.3-5.8-18-16.3-18c-10.3,0-16.1,7.7-16.1,18
						c0,10.4,5.8,18.3,16.1,18.3C2021.5,915.8,2027.3,907.9,2027.3,897.5"/>
					<path style="clip-path:url(#SVGID_00000111882872082942311010000010540835109032507269_);fill:#FFFFFF;" d="M2069.9,897.5
						c0-23.1,16.6-43.3,45.2-43.3c28.6,0,45.4,20.2,45.4,43.3c0,23.3-16.8,43.5-45.4,43.5C2086.5,941,2069.9,920.8,2069.9,897.5
						 M2131.4,897.5c0-10.3-5.8-18-16.3-18c-10.3,0-16.1,7.7-16.1,18c0,10.4,5.8,18.3,16.1,18.3
						C2125.5,915.8,2131.4,907.9,2131.4,897.5"/>
					<path style="clip-path:url(#SVGID_00000111882872082942311010000010540835109032507269_);fill:#FFFFFF;" d="M2231.3,938.9V893
						c0-9.8-5.3-13.5-13.7-13.5c-7.7,0-14.6,5.5-14.6,17.8v41.6H2175v-82.5h28.1v10.8c5.5-7,15.7-13,30-13
						c13.2,0,21.2,6.2,24.5,15.1c5.7-7.4,14.9-15.1,31.8-15.1c18,0,26.4,11.3,26.4,25.5v59.2h-28.1V893c0-9.8-5.3-13.5-13.7-13.5
						c-15.2,0-14.6,17.8-14.6,17.8v41.6H2231.3z"/>
					<path style="clip-path:url(#SVGID_00000111882872082942311010000010540835109032507269_);fill:#FFFFFF;" d="M2334.6,828.2
						c0-7.7,6.3-13.7,14.2-13.7c7.5,0,13.9,6,13.9,13.7c0,7.5-6.3,13.7-13.9,13.7C2340.9,841.9,2334.6,835.7,2334.6,828.2
						 M2334.6,856.4h28.1v82.5h-28.1V856.4z"/>
					<path style="clip-path:url(#SVGID_00000111882872082942311010000010540835109032507269_);fill:#FFFFFF;" d="M2377.2,897.5
						c0-26.2,19.7-43.3,45-43.3c17.5,0,28.2,7.7,33.2,14.4l-17.6,17.5c-2.9-3.8-7.7-6.5-14.2-6.5c-9.4,0-17.6,6.2-17.6,18
						c0,11.8,8.2,18.3,17.6,18.3c6.3,0,11.5-3.3,14.4-6.7c6.3,6.3,11.3,11.6,17.5,17.6c-5,6.5-15.9,14.2-33.2,14.2
						C2396.9,941,2377.2,923.9,2377.2,897.5"/>
					<path style="clip-path:url(#SVGID_00000111882872082942311010000010540835109032507269_);fill:#FFFFFF;" d="M2468.3,828.2
						c0-7.7,6.3-13.7,14.2-13.7c7.5,0,13.9,6,13.9,13.7c0,7.5-6.3,13.7-13.9,13.7C2474.6,841.9,2468.3,835.7,2468.3,828.2
						 M2468.3,856.4h28.1v82.5h-28.1V856.4z"/>
					
						<rect x="2515.2" y="824.9" style="clip-path:url(#SVGID_00000111882872082942311010000010540835109032507269_);fill:#FFFFFF;" width="28.1" height="114"/>
					<path style="clip-path:url(#SVGID_00000111882872082942311010000010540835109032507269_);fill:#FFFFFF;" d="M2557.8,897.5
						c0-24,18-43.3,44-43.3c23.3,0,41.4,17.5,41.4,46.7v5.1h-56.7c1.9,6.8,8.6,13.5,19.5,13.5c4.4,0,13.9-2.1,18.8-5.3l11.3,17.5
						c-8,6.3-21.9,9.2-33.6,9.2C2577.5,941,2557.8,924.7,2557.8,897.5 M2601.8,875.6c-10.4,0-14.4,8.2-15.4,13.2h30.6
						C2615.8,882.9,2612.8,875.6,2601.8,875.6"/>
					<path style="clip-path:url(#SVGID_00000111882872082942311010000010540835109032507269_);fill:#FFFFFF;" d="M2360.6,573.3V565
						c0-46.7-30.4-86.5-70.3-100.6l-18.7,15.4c-0.3,0.2-0.7,0.4-1,0.4c-0.2,0-0.3,0-0.5-0.1c-0.5-0.2-0.9-0.6-1.1-1.1l-6.1-20.1
						l-0.2,0l-9,35.8v-0.2l0,0.1l0-0.1v0.2l-9-35.8l0,0l-6.1,20.1c-0.2,0.5-0.6,0.9-1.1,1.1c-0.2,0-0.3,0.1-0.5,0.1
						c-0.4,0-0.7-0.1-1-0.4l-18.7-15.4c-16.1,5.7-30.6,15.5-42.2,28.3c0.2,0.8,0.4,1.5,0.8,2.1l0,0c5.5,7.1,8.5,15.6,8.6,24.6
						l0.6,47.3c0.1,6.3-1.3,12.5-3.9,18h168.3c0,0,5,0,8.1-3.1C2361.1,578,2360.6,573.3,2360.6,573.3 M2297.7,522.7H2285
						c-4.2,0-7.6-3.4-7.6-7.6c0-4.2,3.4-7.6,7.6-7.6h12.7c4.2,0,7.6,3.4,7.6,7.6C2305.3,519.3,2301.9,522.7,2297.7,522.7"/>
					<path style="clip-path:url(#SVGID_00000111882872082942311010000010540835109032507269_);fill:#FFFFFF;" d="M2254.7,313.4
						c-34.4,0-62.3,27.9-62.3,62.3c0,34.4,27.9,62.3,62.3,62.3c34.4,0,62.3-27.9,62.3-62.3C2317,341.3,2289.1,313.4,2254.7,313.4
						 M2255.2,423.4c-27.7,0-39-26.9-39-26.9h76C2292.1,396.5,2282.8,423.4,2255.2,423.4"/>
					<path style="clip-path:url(#SVGID_00000111882872082942311010000010540835109032507269_);fill:#FFFFFF;" d="M2143.8,363.2
						l-18.1,0.2c-0.7,0-1.3,0.5-1.4,1.2l-7.6,35c-0.1,0.5,0.1,1,0.4,1.4l7.8,7.4l0.5,41.4c0,1,0.4,2,1.2,2.7
						c0.7,0.7,1.7,1.1,2.7,1.1l13.6-0.2c1,0,2-0.4,2.7-1.2c0.7-0.7,1.1-1.7,1.1-2.7l-0.5-43.2l6.2-6.3l0,0c0.4-0.4,0.5-0.9,0.4-1.4
						l-7.5-34.4C2145.1,363.6,2144.5,363.2,2143.8,363.2"/>
					<path style="clip-path:url(#SVGID_00000111882872082942311010000010540835109032507269_);fill:#FFFFFF;" d="M2168,519.4
						c-0.1-7.1-2.5-13.6-6.6-18.9l0,0c-1.8-2.5-2.9-5.7-2.9-9.3c-0.1-5.9,2.8-11.1,6.9-13.4l0.5-0.2l0,0l0,0c0,0,0,0,0,0
						c0.1-0.1,0.3-0.2,0.4-0.2c0,0,0.1-0.1,0.1-0.1c0.1-0.1,0.2-0.2,0.3-0.4c0,0,0,0,0,0c0.1-0.1,0.2-0.3,0.2-0.4c0,0,0-0.1,0-0.1
						c0-0.2,0.1-0.4,0.1-0.5l-0.2-12.6c0-1.2-1-2.1-2.1-2.1l-59,0.7c-1.2,0-2.1,1-2.1,2.1l0.2,12.6c0,0.2,0,0.4,0.1,0.5
						c0,0,0,0.1,0,0.1c0.1,0.2,0.1,0.3,0.2,0.4c0,0,0,0,0,0c0.1,0.1,0.2,0.3,0.3,0.4c0,0,0.1,0.1,0.1,0.1c0.1,0.1,0.3,0.2,0.4,0.2
						c0,0,0,0,0.1,0l0,0c0,0,0,0,0,0l0.5,0.2c4.2,2.2,7.2,7.3,7.3,13.2c0,3.7-0.8,6.9-2.6,9.5c-3.9,5.3-6.2,11.9-6.1,18.9l0.6,50
						c0.2,17.4,14.6,31.4,32,31.2l0.4,0c17.4-0.2,31.4-14.6,31.2-32L2168,519.4z M2130.3,575.9c-1.2,1.2-2.9,2-4.7,2
						c-3.7,0-6.7-2.9-6.8-6.6l-0.6-52c0-3.7,2.9-6.7,6.6-6.8c3.7,0,6.7,2.9,6.8,6.6l0.6,52C2132.2,573,2131.5,574.6,2130.3,575.9
						 M2153.3,575.6c-1.2,1.2-2.9,2-4.7,2c-3.7,0-6.7-2.9-6.8-6.6l-0.6-52c0-3.7,2.9-6.7,6.6-6.8c3.7,0,6.7,2.9,6.8,6.6l0.6,52
						C2155.2,572.7,2154.5,574.4,2153.3,575.6"/>
					<polygon style="clip-path:url(#SVGID_00000111882872082942311010000010540835109032507269_);fill:#FFFFFF;" points="
						2266.5,459.3 2271.4,475.7 2287.7,462.3 2284.6,453.2 					"/>
					<polygon style="clip-path:url(#SVGID_00000111882872082942311010000010540835109032507269_);fill:#FFFFFF;" points="
						2236.2,475.7 2241.2,459.3 2223,453.2 2219.9,462.3 					"/>
				</g>
			</g>
		</g>
	</g>
</g>
</svg>
