<?xml version="1.0" encoding="utf-8"?>
<!-- Generator: Adobe Illustrator 26.5.0, SVG Export Plug-In . SVG Version: 6.00 Build 0)  -->
<svg version="1.1" id="Calque_1" xmlns="http://www.w3.org/2000/svg" xmlns:xlink="http://www.w3.org/1999/xlink" x="0px" y="0px"
	 viewBox="0 0 2976.4 1488.2" style="enable-background:new 0 0 2976.4 1488.2;" xml:space="preserve">
<style type="text/css">
	.st0{clip-path:url(#SVGID_00000128446653775514191860000014497657602292151993_);}
	.st1{clip-path:url(#SVGID_00000181798681470465453470000008866068722661578173_);}
	.st2{clip-path:url(#SVGID_00000125586743573586241520000001429384513812341644_);fill:#FFD100;}
	.st3{clip-path:url(#SVGID_00000125586743573586241520000001429384513812341644_);fill:#005CB9;}
	.st4{clip-path:url(#SVGID_00000125586743573586241520000001429384513812341644_);}
	.st5{clip-path:url(#SVGID_00000001645144880058438570000015693520493918745531_);fill:#005CB9;}
	.st6{clip-path:url(#SVGID_00000001645144880058438570000015693520493918745531_);fill:#FFD100;}
	.st7{clip-path:url(#SVGID_00000044151891365185155670000002433642370910694309_);}
	.st8{clip-path:url(#SVGID_00000056421677094251842310000000143668515405945758_);fill:#FFD100;}
	.st9{clip-path:url(#SVGID_00000056421677094251842310000000143668515405945758_);}
	.st10{fill:#005CB9;}
	.st11{font-family:'CastoBlack-Black';}
	.st12{font-size:174.4565px;}
	.st13{font-family:'CastoRegular';}
	.st14{font-size:69.7826px;}
	.st15{clip-path:url(#SVGID_00000032613616874816846110000004706496572469641110_);fill:#005CB9;}
	
		.st16{clip-path:url(#SVGID_00000128446653775514191860000014497657602292151993_);fill:none;stroke:#FFFFFF;stroke-width:6;stroke-miterlimit:10;}
</style>
<g>
	<defs>
		<rect id="SVGID_1_" width="2976.4" height="1488.2"/>
	</defs>
	<clipPath id="SVGID_00000026850242397415217950000010693594689250103690_">
		<use xlink:href="#SVGID_1_"  style="overflow:visible;"/>
	</clipPath>
	<g style="clip-path:url(#SVGID_00000026850242397415217950000010693594689250103690_);">
		<defs>
			<rect id="SVGID_00000137116390229797291260000003625908398501784484_" x="-14.2" y="-14.2" width="1502.4" height="1516.5"/>
		</defs>
		<clipPath id="SVGID_00000030473704057074564660000003316364586997358740_">
			<use xlink:href="#SVGID_00000137116390229797291260000003625908398501784484_"  style="overflow:visible;"/>
		</clipPath>
		<g style="clip-path:url(#SVGID_00000030473704057074564660000003316364586997358740_);">
			<g>
				<defs>
					<rect id="SVGID_00000178198858980748872990000016961446725951619256_" x="-14.2" y="-14.2" width="1516.5" height="1516.5"/>
				</defs>
				<clipPath id="SVGID_00000047779989970796882050000010287631136261979284_">
					<use xlink:href="#SVGID_00000178198858980748872990000016961446725951619256_"  style="overflow:visible;"/>
				</clipPath>
				
					<rect x="-14.2" y="-14.2" style="clip-path:url(#SVGID_00000047779989970796882050000010287631136261979284_);fill:#FFD100;" width="1516.5" height="1516.5"/>
				
					<rect x="426.4" y="689.7" style="clip-path:url(#SVGID_00000047779989970796882050000010287631136261979284_);fill:#005CB9;" width="28.1" height="114"/>
				<g style="clip-path:url(#SVGID_00000047779989970796882050000010287631136261979284_);">
					<defs>
						<rect id="SVGID_00000103954119209377701170000000172800545382608532_" x="-14.2" y="-14.2" width="1516.5" height="1516.5"/>
					</defs>
					<clipPath id="SVGID_00000060715700804902753640000007464814453509333139_">
						<use xlink:href="#SVGID_00000103954119209377701170000000172800545382608532_"  style="overflow:visible;"/>
					</clipPath>
					<path style="clip-path:url(#SVGID_00000060715700804902753640000007464814453509333139_);fill:#005CB9;" d="M469.1,762.2
						c0-23.1,16.6-43.3,45.2-43.3s45.4,20.2,45.4,43.3c0,23.3-16.8,43.5-45.4,43.5S469.1,785.5,469.1,762.2 M530.5,762.2
						c0-10.3-5.8-18-16.3-18c-10.3,0-16.1,7.7-16.1,18c0,10.4,5.8,18.3,16.1,18.3C524.7,780.6,530.5,772.7,530.5,762.2"/>
					<path style="clip-path:url(#SVGID_00000060715700804902753640000007464814453509333139_);fill:#005CB9;" d="M569.9,762.2
						c0-26.2,19.7-43.3,45-43.3c17.5,0,28.2,7.7,33.2,14.4l-17.6,17.5c-2.9-3.8-7.7-6.5-14.2-6.5c-9.4,0-17.6,6.2-17.6,18
						c0,11.8,8.2,18.3,17.6,18.3c6.3,0,11.5-3.3,14.4-6.7c6.3,6.3,11.3,11.6,17.5,17.6c-5,6.5-15.9,14.2-33.2,14.2
						C589.6,805.7,569.9,788.6,569.9,762.2"/>
					<path style="clip-path:url(#SVGID_00000060715700804902753640000007464814453509333139_);fill:#005CB9;" d="M656.7,762.2
						c0-23.1,15.1-43.3,38.3-43.3c5,0,15.7,1.9,22.9,13h0.2v-10.8h28.1v82.5h-28.1v-10.4H718c-7.2,11.1-17.8,12.5-22.9,12.5
						C672.4,805.7,656.7,785.5,656.7,762.2 M718.2,762.2c0-10.3-5.8-18-16.3-18c-10.3,0-16.1,7.7-16.1,18c0,10.4,5.8,18.3,16.1,18.3
						C712.3,780.6,718.2,772.7,718.2,762.2"/>
					<path style="clip-path:url(#SVGID_00000060715700804902753640000007464814453509333139_);fill:#005CB9;" d="M800.5,745.8v20.9
						c0,7.7,2.2,14,14,14v25c-28.2,0-42.1-18.8-42.1-42.1v-17.8h-13.7v-24.7h13.7v-23.5h28.1v23.5h16.6v24.7H800.5z"/>
					<path style="clip-path:url(#SVGID_00000060715700804902753640000007464814453509333139_);fill:#005CB9;" d="M829.6,692.9
						c0-7.7,6.3-13.7,14.2-13.7c7.5,0,13.9,6,13.9,13.7c0,7.5-6.3,13.7-13.9,13.7C835.9,706.6,829.6,700.5,829.6,692.9 M829.6,721.2
						h28.1v82.5h-28.1V721.2z"/>
					<path style="clip-path:url(#SVGID_00000060715700804902753640000007464814453509333139_);fill:#005CB9;" d="M872.2,762.2
						c0-23.1,16.6-43.3,45.2-43.3c28.6,0,45.4,20.2,45.4,43.3c0,23.3-16.8,43.5-45.4,43.5C888.8,805.7,872.2,785.5,872.2,762.2
						 M933.7,762.2c0-10.3-5.8-18-16.3-18c-10.3,0-16.1,7.7-16.1,18c0,10.4,5.8,18.3,16.1,18.3C927.9,780.6,933.7,772.7,933.7,762.2
						"/>
					<path style="clip-path:url(#SVGID_00000060715700804902753640000007464814453509333139_);fill:#005CB9;" d="M1033.7,803.7
						v-45.9c0-9.8-5.3-13.5-13.7-13.5c-7.7,0-14.6,5.5-14.6,17.8v41.6h-28.1v-82.5h28.1v10.8c5.5-7,15.7-13,30-13
						c18,0,26.4,11.3,26.4,25.5v59.2H1033.7z"/>
					<path style="clip-path:url(#SVGID_00000060715700804902753640000007464814453509333139_);fill:#005CB9;" d="M293.1,893.5
						c0-23.1,15.1-43.3,38.3-43.3c5,0,15.7,1.9,22.9,13h0.2v-42.3h28.1v114h-28.1v-10.4h-0.2c-7.2,11.1-17.8,12.5-22.9,12.5
						C308.8,937,293.1,916.8,293.1,893.5 M354.5,893.5c0-10.3-5.8-18-16.3-18c-10.3,0-16.1,7.7-16.1,18c0,10.4,5.8,18.3,16.1,18.3
						C348.7,911.8,354.5,903.9,354.5,893.5"/>
					<path style="clip-path:url(#SVGID_00000060715700804902753640000007464814453509333139_);fill:#005CB9;" d="M397.2,893.5
						c0-24,18-43.3,44-43.3c23.3,0,41.4,17.5,41.4,46.7v5.1h-56.7c1.9,6.8,8.6,13.5,19.5,13.5c4.5,0,13.9-2.1,18.8-5.3l11.3,17.5
						c-8,6.3-21.9,9.2-33.6,9.2C416.9,937,397.2,920.7,397.2,893.5 M441.2,871.6c-10.4,0-14.4,8.2-15.4,13.2h30.6
						C455.2,878.9,452.1,871.6,441.2,871.6"/>
					<path style="clip-path:url(#SVGID_00000060715700804902753640000007464814453509333139_);fill:#005CB9;" d="M594,934.9V889
						c0-9.8-5.3-13.5-13.7-13.5c-7.7,0-14.6,5.5-14.6,17.8v41.6h-28.1v-82.5h28.1v10.8c5.5-7,15.7-13,30-13
						c13.2,0,21.2,6.2,24.5,15.1c5.6-7.4,14.9-15.1,31.8-15.1c18,0,26.4,11.3,26.4,25.5v59.2h-28.1V889c0-9.8-5.3-13.5-13.7-13.5
						c-15.2,0-14.6,17.8-14.6,17.8v41.6H594z"/>
					<path style="clip-path:url(#SVGID_00000060715700804902753640000007464814453509333139_);fill:#005CB9;" d="M693,893.5
						c0-23.1,15.1-43.3,38.3-43.3c5,0,15.8,1.9,22.9,13h0.2v-10.8h28.1v82.5h-28.1v-10.4h-0.2c-7.2,11.1-17.8,12.5-22.9,12.5
						C708.7,937,693,916.8,693,893.5 M754.4,893.5c0-10.3-5.8-18-16.3-18c-10.3,0-16.1,7.7-16.1,18c0,10.4,5.8,18.3,16.1,18.3
						C748.6,911.8,754.4,903.9,754.4,893.5"/>
					<path style="clip-path:url(#SVGID_00000060715700804902753640000007464814453509333139_);fill:#005CB9;" d="M836.8,877.1V898
						c0,7.7,2.2,14,14,14v25c-28.2,0-42.1-18.8-42.1-42.1v-17.8H795v-24.7h13.7V829h28.1v23.5h16.6v24.7H836.8z"/>
					<path style="clip-path:url(#SVGID_00000060715700804902753640000007464814453509333139_);fill:#005CB9;" d="M859.9,893.5
						c0-24,18-43.3,44-43.3c23.3,0,41.4,17.5,41.4,46.7v5.1h-56.7c1.9,6.8,8.6,13.5,19.5,13.5c4.5,0,13.9-2.1,18.8-5.3l11.3,17.5
						c-8,6.3-21.9,9.2-33.6,9.2C879.6,937,859.9,920.7,859.9,893.5 M903.9,871.6c-10.4,0-14.4,8.2-15.4,13.2h30.6
						C917.9,878.9,914.9,871.6,903.9,871.6 M904.2,817.8c2.1-1.9,4.3-2.9,7-2.9c2.2,0,4.8,1,6.7,2.7c1.9,2.1,2.7,4.5,2.7,7
						c0,2.6-0.9,5-2.7,6.7l-11,11c-1.5,1.7-4.3,2.9-6.7,2.9c-2.6,0-5-1-6.8-2.9c-2.1-1.9-2.9-4.3-2.9-6.8c0-2.2,0.9-4.8,2.9-6.7
						L904.2,817.8z"/>
					<path style="clip-path:url(#SVGID_00000060715700804902753640000007464814453509333139_);fill:#005CB9;" d="M955.9,934.9v-82.5
						H984v10.8c5.6-7,16.6-13.4,25.3-13.4v27c-1.5-0.3-3.3-0.3-5.6-0.3c-8,0-19.7,2.2-19.7,16.8v41.6H955.9z"/>
					<path style="clip-path:url(#SVGID_00000060715700804902753640000007464814453509333139_);fill:#005CB9;" d="M1021.9,824.2
						c0-7.7,6.3-13.7,14.2-13.7c7.5,0,13.9,6,13.9,13.7c0,7.5-6.3,13.7-13.9,13.7C1028.2,837.9,1021.9,831.7,1021.9,824.2
						 M1021.9,852.4h28.1v82.5h-28.1V852.4z"/>
					<path style="clip-path:url(#SVGID_00000060715700804902753640000007464814453509333139_);fill:#005CB9;" d="M1064.5,893.5
						c0-24,18-43.3,44-43.3c23.3,0,41.4,17.5,41.4,46.7v5.1h-56.7c1.9,6.8,8.6,13.5,19.5,13.5c4.4,0,13.9-2.1,18.8-5.3l11.3,17.5
						c-8,6.3-21.9,9.2-33.6,9.2C1084.2,937,1064.5,920.7,1064.5,893.5 M1108.5,871.6c-10.4,0-14.4,8.2-15.4,13.2h30.6
						C1122.5,878.9,1119.4,871.6,1108.5,871.6"/>
					
						<rect x="1162.7" y="820.9" style="clip-path:url(#SVGID_00000060715700804902753640000007464814453509333139_);fill:#005CB9;" width="28.1" height="114"/>
					<path style="clip-path:url(#SVGID_00000060715700804902753640000007464814453509333139_);fill:#005CB9;" d="M465.5,1080.5
						c0,7.3-5,12.3-13.5,12.3h-21.2v-45.7h18.9c8.1,0,13.1,4.8,13.1,11.6c0,5.4-3.5,9.2-7.5,10.3
						C461.5,1069.6,465.5,1075.1,465.5,1080.5 M436.6,1067h12.1c5.3,0,8-3.2,8-7.3c0-4.1-2.7-7.4-8-7.4h-12.1V1067z M450.9,1087.8
						c5.3,0,8.6-3,8.6-7.9c0-4.2-2.9-7.9-8.6-7.9h-14.3v15.8H450.9z"/>
					<path style="clip-path:url(#SVGID_00000060715700804902753640000007464814453509333139_);fill:#005CB9;" d="M472.5,1076.3
						c0-9.6,7-17.3,16.6-17.3c10.2,0,16.2,7.8,16.2,17.7v1.3h-27.3c0.4,6.2,4.8,11.1,12.1,11.1c3.9,0,7.5-1.5,10.2-4.2l2.8,3.7
						c-3.4,3.3-7.9,5.1-13.4,5.1C479.7,1093.7,472.5,1086.6,472.5,1076.3 M500.2,1074.1c-0.1-4.9-3.4-10.6-11.1-10.6
						c-7.2,0-10.8,5.6-11,10.6H500.2z"/>
					<path style="clip-path:url(#SVGID_00000060715700804902753640000007464814453509333139_);fill:#005CB9;" d="M511,1088.5
						l2.6-3.7c2.3,2.5,6.5,4.7,11.2,4.7c5.1,0,8-2.4,8-5.7c0-8-20.9-3.1-20.9-15.3c0-5.2,4.5-9.5,12.5-9.5c5.8,0,9.8,2.1,12.5,4.8
						l-2.5,3.6c-2-2.4-5.6-4.2-10-4.2c-4.7,0-7.5,2.3-7.5,5.2c0,7.2,20.9,2.5,20.9,15.3c0,5.5-4.5,10-13.1,10
						C519,1093.7,514.5,1091.9,511,1088.5"/>
					<path style="clip-path:url(#SVGID_00000060715700804902753640000007464814453509333139_);fill:#005CB9;" d="M544.4,1076.3
						c0-9.6,6.4-17.3,16.7-17.3c10.3,0,16.7,7.7,16.7,17.3c0,9.6-6.4,17.4-16.7,17.4C550.8,1093.7,544.4,1085.9,544.4,1076.3
						 M572.2,1076.3c0-6.7-4-12.7-11.2-12.7c-7.2,0-11.2,6-11.2,12.7c0,6.8,4,12.8,11.2,12.8C568.3,1089.1,572.2,1083,572.2,1076.3"
						/>
					<path style="clip-path:url(#SVGID_00000060715700804902753640000007464814453509333139_);fill:#005CB9;" d="M589.3,1048.1
						c1.7,0,3.2,1.4,3.2,3.2s-1.4,3.1-3.2,3.1c-1.7,0-3.1-1.4-3.1-3.1S587.6,1048.1,589.3,1048.1 M586.7,1059.8h5.2v33.1h-5.2
						V1059.8z"/>
					<path style="clip-path:url(#SVGID_00000060715700804902753640000007464814453509333139_);fill:#005CB9;" d="M625.7,1092.8
						v-21.6c0-5.9-3.1-7.7-7.7-7.7c-4.1,0-10,2.9-10,12.7v16.6h-5.2v-33.1h5.2v4.8c2.4-2.8,7-5.6,12.1-5.6c7,0,10.7,3.5,10.7,10.7
						v23.2H625.7z"/>
					<path style="clip-path:url(#SVGID_00000060715700804902753640000007464814453509333139_);fill:#005CB9;" d="M690,1047.2v45.7
						h-5.2v-4.9c-3.1,4.6-7.8,5.7-10.7,5.7c-10.3,0-16.7-7.8-16.7-17.4c0-9.6,6.4-17.3,16.7-17.3c2.6,0,7.5,1,10.7,5.8v-17.5H690z
						 M685.2,1076.3c0-6.7-4-12.7-11.2-12.7c-7.2,0-11.2,6-11.2,12.7c0,6.8,4,12.8,11.2,12.8C681.3,1089.1,685.2,1083,685.2,1076.3"
						/>
					<path style="clip-path:url(#SVGID_00000060715700804902753640000007464814453509333139_);fill:#005CB9;" d="M698.5,1076.3
						c0-9.6,7-17.3,16.6-17.3c10.2,0,16.2,7.8,16.2,17.7v1.3h-27.3c0.4,6.2,4.8,11.1,12.1,11.1c3.9,0,7.5-1.5,10.2-4.2l2.8,3.7
						c-3.4,3.3-7.9,5.1-13.4,5.1C705.6,1093.7,698.5,1086.6,698.5,1076.3 M726.1,1074.1c-0.1-4.9-3.4-10.6-11.1-10.6
						c-7.2,0-10.8,5.6-11,10.6H726.1z"/>
					<path style="clip-path:url(#SVGID_00000060715700804902753640000007464814453509333139_);fill:#005CB9;" d="M808.5,1069.6v23.2
						h-5.1v-21.6c0-5.3-2.5-7.3-6.4-7.6c-7.2,0-11.2,4.6-11.2,9.6v19.7h-5.1v-21.6c0-5.9-3.1-7.7-7.6-7.7c-4.1,0-10,2.9-10,12.7
						v16.6h-5.2v-33.1h5.2v4.8c2.4-2.8,7-5.6,12.1-5.6c5.2,0,8.6,2,9.9,6c2.7-3.4,6.6-6,12.7-6
						C804.8,1058.9,808.5,1062.4,808.5,1069.6"/>
					<path style="clip-path:url(#SVGID_00000060715700804902753640000007464814453509333139_);fill:#005CB9;" d="M849.5,1059.8v33.1
						h-5.2v-4.9c-3.1,4.6-7.8,5.7-10.7,5.7c-10.3,0-16.7-7.8-16.7-17.4c0-9.6,6.4-17.3,16.7-17.3c2.6,0,7.5,1,10.7,5.8v-4.9H849.5z
						 M844.8,1076.3c0-6.7-4-12.7-11.2-12.7c-7.2,0-11.2,6-11.2,12.7c0,6.8,4,12.8,11.2,12.8C840.8,1089.1,844.8,1083,844.8,1076.3"
						/>
					<path style="clip-path:url(#SVGID_00000060715700804902753640000007464814453509333139_);fill:#005CB9;" d="M867.1,1080.1
						c0,1.4,0.2,9,8.7,9v4.6c-13.6,0-13.9-11.4-13.9-13.5v-15.9H856v-4.5h5.9v-9h5.2v9h8.7v4.5h-8.7V1080.1z"/>
					<path style="clip-path:url(#SVGID_00000060715700804902753640000007464814453509333139_);fill:#005CB9;" d="M881.1,1076.3
						c0-9.6,7-17.3,16.6-17.3c10.2,0,16.2,7.8,16.2,17.7v1.3h-27.3c0.4,6.2,4.8,11.1,12.1,11.1c3.9,0,7.5-1.5,10.2-4.2l2.8,3.7
						c-3.4,3.3-7.9,5.1-13.4,5.1C888.3,1093.7,881.1,1086.6,881.1,1076.3 M908.7,1074.1c-0.1-4.9-3.4-10.6-11.1-10.6
						c-7.2,0-10.8,5.6-11,10.6H908.7z M898.5,1045.7c0.5-0.5,1-0.7,1.6-0.7c0.6,0,1.2,0.2,1.6,0.7c0.5,0.5,0.7,1,0.7,1.6
						s-0.2,1.2-0.7,1.6l-5.5,5.5c-0.4,0.4-1,0.7-1.6,0.7c-0.5,0-1.1-0.2-1.6-0.7c-0.4-0.4-0.6-1-0.6-1.6c0-0.6,0.2-1.2,0.6-1.6
						L898.5,1045.7z"/>
					<path style="clip-path:url(#SVGID_00000060715700804902753640000007464814453509333139_);fill:#005CB9;" d="M939.7,1064.6
						c-0.7-0.1-1.4-0.1-2.1-0.1c-4.1,0-10,1.9-10,11.8v16.6h-5.2v-33.1h5.2v4.8c2.4-2.8,7-5.6,12.1-5.6V1064.6z"/>
					<path style="clip-path:url(#SVGID_00000060715700804902753640000007464814453509333139_);fill:#005CB9;" d="M949.1,1048.1
						c1.7,0,3.2,1.4,3.2,3.2s-1.4,3.1-3.2,3.1c-1.7,0-3.1-1.4-3.1-3.1S947.4,1048.1,949.1,1048.1 M946.5,1059.8h5.2v33.1h-5.2
						V1059.8z"/>
					<path style="clip-path:url(#SVGID_00000060715700804902753640000007464814453509333139_);fill:#005CB9;" d="M960.8,1076.3
						c0-9.6,7-17.3,16.6-17.3c10.2,0,16.2,7.8,16.2,17.7v1.3h-27.3c0.4,6.2,4.8,11.1,12.1,11.1c3.9,0,7.5-1.5,10.2-4.2l2.8,3.7
						c-3.4,3.3-7.9,5.1-13.4,5.1C968,1093.7,960.8,1086.6,960.8,1076.3 M988.5,1074.1c-0.1-4.9-3.4-10.6-11.1-10.6
						c-7.2,0-10.8,5.6-11,10.6H988.5z"/>
					
						<rect x="1002.1" y="1047.2" style="clip-path:url(#SVGID_00000060715700804902753640000007464814453509333139_);fill:#005CB9;" width="5.2" height="45.7"/>
					<path style="clip-path:url(#SVGID_00000060715700804902753640000007464814453509333139_);fill:#005CB9;" d="M1047.3,1071.3v6.4
						c0,1.4-1.2,2.5-2.5,2.5c-1.4,0-2.5-1.1-2.5-2.5v-11.1c11.9,0,12.5-7,12.5-8.5v-0.3c0-3.4-2.7-6.4-8.1-6.4
						c-5.3,0-8.6,2.2-11.2,5.6l-3.5-3.7c3.4-4.3,8.5-7,15.1-7c7.7,0,13.7,4.1,13.7,11.7C1060.8,1063.2,1058.2,1069.5,1047.3,1071.3
						 M1044.7,1086.5c2,0,3.6,1.6,3.6,3.6c0,2-1.6,3.5-3.6,3.5c-2,0-3.5-1.5-3.5-3.5C1041.3,1088,1042.8,1086.5,1044.7,1086.5"/>
					<polygon style="clip-path:url(#SVGID_00000060715700804902753640000007464814453509333139_);fill:#005CB9;" points="
						338.3,1161.3 338.3,1115.6 344.1,1115.6 344.1,1156.3 365.7,1156.3 365.7,1161.3 					"/>
					<path style="clip-path:url(#SVGID_00000060715700804902753640000007464814453509333139_);fill:#005CB9;" d="M371.3,1144.7
						c0-9.6,6.4-17.3,16.7-17.3c10.3,0,16.7,7.7,16.7,17.3c0,9.6-6.4,17.4-16.7,17.4C377.7,1162.1,371.3,1154.3,371.3,1144.7
						 M399.1,1144.7c0-6.7-4-12.7-11.2-12.7c-7.2,0-11.2,6-11.2,12.7c0,6.8,4,12.8,11.2,12.8
						C395.2,1157.6,399.1,1151.5,399.1,1144.7"/>
					<path style="clip-path:url(#SVGID_00000060715700804902753640000007464814453509333139_);fill:#005CB9;" d="M413.1,1148.6v-0.3
						v-20.1h5.2v20.3c0,1.2,0.3,9,8.8,9c8.7,0,8.9-7.9,8.9-9.2v-20.1h5.2v20.1v0.3c0,2.1-0.5,13.5-14.1,13.5
						C413.6,1162.1,413.1,1150.7,413.1,1148.6"/>
					<path style="clip-path:url(#SVGID_00000060715700804902753640000007464814453509333139_);fill:#005CB9;" d="M449.7,1144.7
						c0-9.6,7-17.3,16.6-17.3c10.2,0,16.2,7.8,16.2,17.7v1.3h-27.3c0.4,6.2,4.8,11.1,12.1,11.1c3.9,0,7.5-1.5,10.2-4.2l2.8,3.7
						c-3.4,3.3-7.9,5.1-13.4,5.1C456.9,1162.1,449.7,1155.1,449.7,1144.7 M477.4,1142.6c-0.1-4.9-3.4-10.6-11.1-10.6
						c-7.2,0-10.8,5.6-11,10.6H477.4z"/>
					<polygon style="clip-path:url(#SVGID_00000060715700804902753640000007464814453509333139_);fill:#005CB9;" points="
						489.5,1161.3 489.5,1157.3 508.1,1132.8 489.5,1132.8 489.5,1128.2 514.9,1128.2 514.9,1132.1 496.2,1156.8 515.2,1156.8 
						515.2,1161.3 					"/>
					<path style="clip-path:url(#SVGID_00000060715700804902753640000007464814453509333139_);fill:#005CB9;" d="M542.1,1148.6v-0.3
						v-20.1h5.2v20.3c0,1.2,0.3,9,8.8,9c8.7,0,8.9-7.9,8.9-9.2v-20.1h5.2v20.1v0.3c0,2.1-0.5,13.5-14.1,13.5
						C542.6,1162.1,542.1,1150.7,542.1,1148.6"/>
					<path style="clip-path:url(#SVGID_00000060715700804902753640000007464814453509333139_);fill:#005CB9;" d="M603.5,1161.3
						v-21.6c0-5.9-3.1-7.7-7.7-7.7c-4.1,0-10,2.9-10,12.7v16.6h-5.2v-33.1h5.2v4.8c2.4-2.8,7-5.6,12.1-5.6c7,0,10.7,3.5,10.7,10.7
						v23.2H603.5z"/>
					<path style="clip-path:url(#SVGID_00000060715700804902753640000007464814453509333139_);fill:#005CB9;" d="M635.2,1144.7
						c0-9.6,6.4-17.3,16.7-17.3c10.3,0,16.7,7.7,16.7,17.3c0,9.6-6.4,17.4-16.7,17.4C641.6,1162.1,635.2,1154.3,635.2,1144.7
						 M663.1,1144.7c0-6.7-4-12.7-11.2-12.7c-7.2,0-11.2,6-11.2,12.7c0,6.8,4,12.8,11.2,12.8
						C659.1,1157.6,663.1,1151.5,663.1,1144.7"/>
					<path style="clip-path:url(#SVGID_00000060715700804902753640000007464814453509333139_);fill:#005CB9;" d="M677,1148.6v-0.3
						v-20.1h5.2v20.3c0,1.2,0.3,9,8.8,9c8.7,0,8.9-7.9,8.9-9.2v-20.1h5.2v20.1v0.3c0,2.1-0.5,13.5-14.1,13.5
						C677.5,1162.1,677,1150.7,677,1148.6"/>
					<path style="clip-path:url(#SVGID_00000060715700804902753640000007464814453509333139_);fill:#005CB9;" d="M722.8,1148.6
						c0,1.4,0.2,9,8.7,9v4.6c-13.6,0-13.9-11.4-13.9-13.5v-15.9h-5.9v-4.5h5.9v-9h5.2v9h8.7v4.5h-8.7V1148.6z"/>
					<path style="clip-path:url(#SVGID_00000060715700804902753640000007464814453509333139_);fill:#005CB9;" d="M741.7,1116.6
						c1.7,0,3.1,1.4,3.1,3.2s-1.4,3.1-3.1,3.1c-1.7,0-3.1-1.4-3.1-3.1S740,1116.6,741.7,1116.6 M739.1,1128.2h5.2v33.1h-5.2V1128.2z
						"/>
					
						<rect x="755.3" y="1115.6" style="clip-path:url(#SVGID_00000060715700804902753640000007464814453509333139_);fill:#005CB9;" width="5.2" height="45.7"/>
					<path style="clip-path:url(#SVGID_00000060715700804902753640000007464814453509333139_);fill:#005CB9;" d="M819.6,1115.6v45.7
						h-5.2v-4.9c-3.1,4.6-7.8,5.7-10.7,5.7c-10.3,0-16.7-7.8-16.7-17.4c0-9.6,6.4-17.3,16.7-17.3c2.6,0,7.5,1,10.7,5.8v-17.5H819.6z
						 M814.9,1144.7c0-6.7-4-12.7-11.2-12.7c-7.2,0-11.2,6-11.2,12.7c0,6.8,4,12.8,11.2,12.8
						C810.9,1157.6,814.9,1151.5,814.9,1144.7"/>
					<path style="clip-path:url(#SVGID_00000060715700804902753640000007464814453509333139_);fill:#005CB9;" d="M828.1,1144.7
						c0-9.6,7-17.3,16.6-17.3c10.2,0,16.2,7.8,16.2,17.7v1.3h-27.3c0.4,6.2,4.8,11.1,12.1,11.1c3.9,0,7.5-1.5,10.2-4.2l2.8,3.7
						c-3.4,3.3-7.9,5.1-13.4,5.1C835.3,1162.1,828.1,1155.1,828.1,1144.7 M855.7,1142.6c-0.1-4.9-3.4-10.6-11.1-10.6
						c-7.2,0-10.8,5.6-11,10.6H855.7z"/>
					<path style="clip-path:url(#SVGID_00000060715700804902753640000007464814453509333139_);fill:#005CB9;" d="M892.7,1128.2v4.9
						c3.2-4.7,8.1-5.8,10.7-5.8c10.3,0,16.7,7.7,16.7,17.3c0,9.6-6.4,17.4-16.7,17.4c-2.9,0-7.6-1.1-10.7-5.7v17.5h-5.2v-45.7H892.7
						z M914.5,1144.7c0-6.7-4-12.7-11.2-12.7c-7.2,0-11.2,6-11.2,12.7c0,6.8,4,12.8,11.2,12.8
						C910.5,1157.6,914.5,1151.5,914.5,1144.7"/>
					<path style="clip-path:url(#SVGID_00000060715700804902753640000007464814453509333139_);fill:#005CB9;" d="M945.8,1133.1
						c-0.7-0.1-1.4-0.1-2.1-0.1c-4.1,0-10,1.9-10,11.8v16.6h-5.2v-33.1h5.2v4.8c2.4-2.8,7-5.6,12.1-5.6V1133.1z"/>
					<path style="clip-path:url(#SVGID_00000060715700804902753640000007464814453509333139_);fill:#005CB9;" d="M950.2,1144.7
						c0-9.6,6.4-17.3,16.7-17.3c10.3,0,16.7,7.7,16.7,17.3c0,9.6-6.4,17.4-16.7,17.4C956.6,1162.1,950.2,1154.3,950.2,1144.7
						 M978,1144.7c0-6.7-4-12.7-11.2-12.7c-7.2,0-11.2,6-11.2,12.7c0,6.8,4,12.8,11.2,12.8C974.1,1157.6,978,1151.5,978,1144.7"/>
					<path style="clip-path:url(#SVGID_00000060715700804902753640000007464814453509333139_);fill:#005CB9;" d="M1001.4,1170.2
						c8.4,0,8.7-7.4,8.7-8.9v-33h5.2v33c0,2.1-0.3,13.5-13.9,13.5V1170.2z M1012.7,1116.6c1.7,0,3.2,1.4,3.2,3.2s-1.4,3.1-3.2,3.1
						s-3.1-1.4-3.1-3.1S1011,1116.6,1012.7,1116.6"/>
					<path style="clip-path:url(#SVGID_00000060715700804902753640000007464814453509333139_);fill:#005CB9;" d="M1026.3,1148.6
						v-0.3v-20.1h5.2v20.3c0,1.2,0.3,9,8.8,9c8.7,0,8.9-7.9,8.9-9.2v-20.1h5.2v20.1v0.3c0,2.1-0.5,13.5-14.1,13.5
						C1026.7,1162.1,1026.3,1150.7,1026.3,1148.6"/>
					<path style="clip-path:url(#SVGID_00000060715700804902753640000007464814453509333139_);fill:#005CB9;" d="M1062,1156.9
						l2.6-3.7c2.3,2.5,6.5,4.7,11.2,4.7c5.1,0,8-2.4,8-5.7c0-8-20.9-3.1-20.9-15.3c0-5.2,4.5-9.5,12.5-9.5c5.8,0,9.8,2.1,12.5,4.8
						l-2.5,3.6c-2-2.4-5.6-4.2-10-4.2c-4.7,0-7.5,2.3-7.5,5.2c0,7.2,20.9,2.5,20.9,15.3c0,5.5-4.5,10-13.1,10
						C1070,1162.1,1065.4,1160.4,1062,1156.9"/>
					<path style="clip-path:url(#SVGID_00000060715700804902753640000007464814453509333139_);fill:#005CB9;" d="M1104.5,1148.6
						c0,1.4,0.2,9,8.7,9v4.6c-13.6,0-13.9-11.4-13.9-13.5v-15.9h-5.9v-4.5h5.9v-9h5.2v9h8.7v4.5h-8.7V1148.6z"/>
					<path style="clip-path:url(#SVGID_00000060715700804902753640000007464814453509333139_);fill:#005CB9;" d="M1118.5,1144.7
						c0-9.6,7-17.3,16.6-17.3c10.2,0,16.2,7.8,16.2,17.7v1.3h-27.3c0.4,6.2,4.8,11.1,12.1,11.1c3.9,0,7.5-1.5,10.2-4.2l2.8,3.7
						c-3.4,3.3-7.9,5.1-13.4,5.1C1125.7,1162.1,1118.5,1155.1,1118.5,1144.7 M1146.2,1142.6c-0.1-4.9-3.4-10.6-11.1-10.6
						c-7.2,0-10.8,5.6-11,10.6H1146.2z"/>
					
						<rect x="364.9" y="1184.2" style="clip-path:url(#SVGID_00000060715700804902753640000007464814453509333139_);fill:#005CB9;" width="11.2" height="45.6"/>
					<path style="clip-path:url(#SVGID_00000060715700804902753640000007464814453509333139_);fill:#005CB9;" d="M381.9,1213.2
						c0-9.6,7.2-17.3,17.6-17.3c9.3,0,16.6,7,16.6,18.7v2.1h-22.7c0.8,2.7,3.4,5.4,7.8,5.4c1.8,0,5.5-0.8,7.5-2.1l4.5,7
						c-3.2,2.5-8.8,3.7-13.4,3.7C389.8,1230.6,381.9,1224.1,381.9,1213.2 M399.5,1204.5c-4.2,0-5.8,3.3-6.2,5.3h12.3
						C405.1,1207.4,403.9,1204.5,399.5,1204.5"/>
					<path style="clip-path:url(#SVGID_00000060715700804902753640000007464814453509333139_);fill:#005CB9;" d="M452.3,1206.6v8.4
						c0,3.1,0.9,5.6,5.6,5.6v10c-11.3,0-16.8-7.5-16.8-16.8v-7.1h-5.5v-9.9h5.5v-9.4h11.2v9.4h6.6v9.9H452.3z"/>
					<path style="clip-path:url(#SVGID_00000060715700804902753640000007464814453509333139_);fill:#005CB9;" d="M462.2,1213.2
						c0-9.6,7.2-17.3,17.6-17.3c9.3,0,16.6,7,16.6,18.7v2.1h-22.7c0.8,2.7,3.4,5.4,7.8,5.4c1.8,0,5.5-0.8,7.5-2.1l4.5,7
						c-3.2,2.5-8.8,3.7-13.4,3.7C470.1,1230.6,462.2,1224.1,462.2,1213.2 M479.8,1204.5c-4.2,0-5.8,3.3-6.2,5.3h12.3
						C485.5,1207.4,484.2,1204.5,479.8,1204.5"/>
					<path style="clip-path:url(#SVGID_00000060715700804902753640000007464814453509333139_);fill:#005CB9;" d="M524.1,1229.8
						v-18.4c0-3.9-2.1-5.4-5.5-5.4c-3.1,0-5.8,2.2-5.8,7.1v16.6h-11.2v-33h11.2v4.3c2.2-2.8,6.3-5.2,12-5.2c5.3,0,8.5,2.5,9.8,6
						c2.3-2.9,6-6,12.7-6c7.2,0,10.5,4.5,10.5,10.2v23.7h-11.2v-18.4c0-3.9-2.1-5.4-5.5-5.4c-6.1,0-5.8,7.1-5.8,7.1v16.6H524.1z"/>
					<path style="clip-path:url(#SVGID_00000060715700804902753640000007464814453509333139_);fill:#005CB9;" d="M576.7,1225.6
						L576.7,1225.6l-0.1,16.8h-11.2v-45.6h11.2v4.3h0.1c2.9-4.5,7.2-5.2,9.2-5.2c9.3,0,15.3,8.1,15.3,17.3c0,9.3-6.3,17.4-15.3,17.4
						C583.8,1230.6,579.5,1230.1,576.7,1225.6 M589.5,1213.2c0-4.1-2.3-7.2-6.4-7.2c-4.2,0-6.5,3.1-6.5,7.2c0,4.2,2.3,7.3,6.5,7.3
						C587.2,1220.5,589.5,1217.4,589.5,1213.2"/>
					<path style="clip-path:url(#SVGID_00000060715700804902753640000007464814453509333139_);fill:#005CB9;" d="M605.3,1225.8
						c1.5-2.6,2.9-4.9,4.5-7.5c2.8,2.1,8.1,4,11.6,4c3,0,3.9-0.8,3.9-2c0-1.6-2.2-1.9-5.1-2.3c-5.3-0.8-13.8-2.7-13.8-11.1
						c0-5.8,5.1-11,14.2-11c5.1,0,9.9,1.6,13.6,4c-1.4,2.6-2.6,4.6-4,7.1c-2.2-1.6-5.9-3.1-9.5-3.1c-2.1,0-3.6,0.8-3.6,2.1
						c0,1.3,2.1,1.6,4.8,2.1c5.3,0.8,14,2.9,14,11.4c0,6.4-5.7,11.2-15.1,11.2C614.9,1230.6,608.8,1228.8,605.3,1225.8"/>
					<path style="clip-path:url(#SVGID_00000060715700804902753640000007464814453509333139_);fill:#005CB9;" d="M656.9,1213.2
						c0-9.2,6-17.3,15.3-17.3c2,0,6.3,0.8,9.2,5.2h0.1v-16.9h11.2v45.6h-11.2v-4.2h-0.1c-2.9,4.5-7.1,5-9.2,5
						C663.2,1230.6,656.9,1222.5,656.9,1213.2 M681.5,1213.2c0-4.1-2.3-7.2-6.5-7.2c-4.1,0-6.4,3.1-6.4,7.2c0,4.2,2.3,7.3,6.4,7.3
						C679.2,1220.5,681.5,1217.4,681.5,1213.2"/>
					<path style="clip-path:url(#SVGID_00000060715700804902753640000007464814453509333139_);fill:#005CB9;" d="M698.6,1213.2
						c0-9.6,7.2-17.3,17.6-17.3c9.3,0,16.6,7,16.6,18.7v2.1h-22.7c0.8,2.7,3.4,5.4,7.8,5.4c1.8,0,5.5-0.8,7.5-2.1l4.5,7
						c-3.2,2.5-8.8,3.7-13.4,3.7C706.4,1230.6,698.6,1224.1,698.6,1213.2 M716.2,1204.5c-4.2,0-5.8,3.3-6.2,5.3h12.3
						C721.8,1207.4,720.5,1204.5,716.2,1204.5"/>
					<polygon style="clip-path:url(#SVGID_00000060715700804902753640000007464814453509333139_);fill:#005CB9;" points="
						763.3,1229.8 751,1196.8 762.7,1196.8 769.4,1217.6 776.3,1196.8 788.1,1196.8 775.7,1229.8 					"/>
					<path style="clip-path:url(#SVGID_00000060715700804902753640000007464814453509333139_);fill:#005CB9;" d="M789.5,1213.2
						c0-9.2,6.6-17.3,18.1-17.3c11.4,0,18.1,8.1,18.1,17.3c0,9.3-6.7,17.4-18.1,17.4C796.1,1230.6,789.5,1222.5,789.5,1213.2
						 M814.1,1213.2c0-4.1-2.3-7.2-6.5-7.2c-4.1,0-6.4,3.1-6.4,7.2c0,4.2,2.3,7.3,6.4,7.3C811.7,1220.5,814.1,1217.4,814.1,1213.2"
						/>
					<path style="clip-path:url(#SVGID_00000060715700804902753640000007464814453509333139_);fill:#005CB9;" d="M829.8,1225.8
						c1.5-2.6,2.9-4.9,4.5-7.5c2.8,2.1,8.2,4,11.6,4c3,0,3.9-0.8,3.9-2c0-1.6-2.2-1.9-5.1-2.3c-5.3-0.8-13.8-2.7-13.8-11.1
						c0-5.8,5.1-11,14.2-11c5.1,0,9.9,1.6,13.6,4c-1.4,2.6-2.6,4.6-4,7.1c-2.2-1.6-5.9-3.1-9.5-3.1c-2.1,0-3.6,0.8-3.6,2.1
						c0,1.3,2.1,1.6,4.8,2.1c5.3,0.8,14,2.9,14,11.4c0,6.4-5.7,11.2-15.1,11.2C839.4,1230.6,833.3,1228.8,829.8,1225.8"/>
					<path style="clip-path:url(#SVGID_00000060715700804902753640000007464814453509333139_);fill:#005CB9;" d="M897.3,1206.6v8.4
						c0,3.1,0.9,5.6,5.6,5.6v10c-11.3,0-16.8-7.5-16.8-16.8v-7.1h-5.5v-9.9h5.5v-9.4h11.2v9.4h6.6v9.9H897.3z"/>
					<path style="clip-path:url(#SVGID_00000060715700804902753640000007464814453509333139_);fill:#005CB9;" d="M909,1229.8v-33
						h11.2v4.3c2.3-2.8,6.6-5.3,10.1-5.3v10.8c-0.6-0.1-1.3-0.1-2.3-0.1c-3.2,0-7.9,0.9-7.9,6.7v16.6H909z"/>
					<path style="clip-path:url(#SVGID_00000060715700804902753640000007464814453509333139_);fill:#005CB9;" d="M933.6,1213.2
						c0-9.2,6-17.3,15.3-17.3c2,0,6.3,0.8,9.2,5.2h0.1v-4.3h11.2v33h-11.2v-4.2h-0.1c-2.9,4.5-7.1,5-9.2,5
						C939.9,1230.6,933.6,1222.5,933.6,1213.2 M958.2,1213.2c0-4.1-2.3-7.2-6.5-7.2c-4.1,0-6.4,3.1-6.4,7.2c0,4.2,2.3,7.3,6.4,7.3
						C955.9,1220.5,958.2,1217.4,958.2,1213.2"/>
					<polygon style="clip-path:url(#SVGID_00000060715700804902753640000007464814453509333139_);fill:#005CB9;" points="
						985.5,1229.8 973.2,1196.8 984.9,1196.8 991.6,1217.6 998.5,1196.8 1010.3,1196.8 997.9,1229.8 					"/>
					<path style="clip-path:url(#SVGID_00000060715700804902753640000007464814453509333139_);fill:#005CB9;" d="M1011.7,1213.2
						c0-9.2,6-17.3,15.3-17.3c2,0,6.3,0.8,9.2,5.2h0.1v-4.3h11.2v33h-11.2v-4.2h-0.1c-2.9,4.5-7.1,5-9.2,5
						C1018,1230.6,1011.7,1222.5,1011.7,1213.2 M1036.3,1213.2c0-4.1-2.3-7.2-6.5-7.2c-4.1,0-6.4,3.1-6.4,7.2c0,4.2,2.3,7.3,6.4,7.3
						C1034,1220.5,1036.3,1217.4,1036.3,1213.2"/>
					<path style="clip-path:url(#SVGID_00000060715700804902753640000007464814453509333139_);fill:#005CB9;" d="M1088.7,1196.8
						v16.9c0,9.9-6.5,16.9-16.8,16.9c-11.3,0-16.8-7.6-16.8-16.9v-16.9h11.2v18.1c0,3.1,0.9,5.6,5.6,5.6c4.7,0,5.6-2.5,5.6-5.6
						v-18.1H1088.7z"/>
					<path style="clip-path:url(#SVGID_00000060715700804902753640000007464814453509333139_);fill:#005CB9;" d="M1115.6,1229.8
						l-5.5-9.6l-5.5,9.6h-12.1l10.4-17l-9.9-16h12.3l4.7,8.6c1.4-2.6,3.4-6,4.7-8.6h12.2l-9.8,16l10.6,17H1115.6z"/>
					<path style="clip-path:url(#SVGID_00000060715700804902753640000007464814453509333139_);fill:#005CB9;" d="M1264,355.8
						c0,80.4-65.2,145.6-145.6,145.6c-80.4,0-145.6-65.2-145.6-145.6s65.2-145.6,145.6-145.6C1198.8,210.3,1264,275.4,1264,355.8"/>
					<path style="clip-path:url(#SVGID_00000060715700804902753640000007464814453509333139_);fill:#FFD100;" d="M1020,445.9v-28.5
						h11.7c5.8,0,9.1,3.9,9.1,8.6c0,4.7-3.3,8.6-9.1,8.6h-8.1v11.3H1020z M1031.2,431.4c3.5,0,5.8-2.2,5.8-5.4
						c0-3.2-2.4-5.4-5.8-5.4h-7.6v10.9H1031.2z"/>
					<path style="clip-path:url(#SVGID_00000060715700804902753640000007464814453509333139_);fill:#FFD100;" d="M1070.5,445.9h-4.2
						l-3.1-8.1h-13.3l-3.2,8.1h-4.1l11.7-28.5h4.5L1070.5,445.9z M1051.1,434.7h11l-5.5-13.7L1051.1,434.7z"/>
					<path style="clip-path:url(#SVGID_00000060715700804902753640000007464814453509333139_);fill:#FFD100;" d="M1091.2,445.9
						l-7.4-11.3h-5.8v11.3h-3.6v-28.5h11.7c5.3,0,9.2,3.3,9.2,8.6c0,5.1-3.6,8-7.6,8.3l7.9,11.6H1091.2z M1085.6,431.4
						c3.5,0,5.9-2.3,5.9-5.5c0-3.3-2.4-5.4-5.9-5.4h-7.6v10.9H1085.6z"/>
					<path style="clip-path:url(#SVGID_00000060715700804902753640000007464814453509333139_);fill:#FFD100;" d="M1109.3,443.1
						l1.9-2.7c1.2,1.5,2.9,2.8,5.5,2.8c3.6,0,5.8-2.4,5.8-6v-19.9h3.6v19.9c0,6.2-4.1,9.1-9.2,9.1
						C1113.8,446.4,1111.3,445.4,1109.3,443.1"/>
					<path style="clip-path:url(#SVGID_00000060715700804902753640000007464814453509333139_);fill:#FFD100;" d="M1131.8,431.7
						c0-8.4,5.9-14.8,14.5-14.8c8.6,0,14.5,6.3,14.5,14.8s-5.9,14.8-14.5,14.8C1137.6,446.4,1131.8,440.1,1131.8,431.7 M1157,431.7
						c0-6.7-4.2-11.6-10.7-11.6c-6.5,0-10.7,4.9-10.7,11.6c0,6.6,4.2,11.6,10.7,11.6C1152.7,443.3,1157,438.3,1157,431.7"/>
					<path style="clip-path:url(#SVGID_00000060715700804902753640000007464814453509333139_);fill:#FFD100;" d="M1166.4,434.8
						v-17.5h3.6v17.4c0,5.2,2.9,8.5,8.2,8.5c5.4,0,8.3-3.3,8.3-8.5v-17.4h3.6v17.4c0,7.1-4,11.6-11.9,11.6
						C1170.4,446.4,1166.4,441.8,1166.4,434.8"/>
					<path style="clip-path:url(#SVGID_00000060715700804902753640000007464814453509333139_);fill:#FFD100;" d="M1213.8,445.9
						l-7.4-11.3h-5.8v11.3h-3.6v-28.5h11.7c5.3,0,9.2,3.3,9.2,8.6c0,5.1-3.6,8-7.6,8.3l7.9,11.6H1213.8z M1208.2,431.4
						c3.5,0,5.9-2.3,5.9-5.5c0-3.3-2.4-5.4-5.9-5.4h-7.6v10.9H1208.2z"/>
					<polygon style="clip-path:url(#SVGID_00000060715700804902753640000007464814453509333139_);fill:#FFD100;" points="
						1056.6,406.6 1056.6,332.1 1039.2,349.5 1026.6,336.4 1059.6,303.9 1079,303.9 1079,406.6 					"/>
					<path style="clip-path:url(#SVGID_00000060715700804902753640000007464814453509333139_);fill:#FFD100;" d="M1090.1,355.3
						c0-26.5,13.4-53,43.5-53c30,0,43.5,26.5,43.5,53s-13.4,53.2-43.5,53.2C1103.5,408.5,1090.1,381.8,1090.1,355.3 M1154.2,355.3
						c0-19-5.5-33.6-20.6-33.6c-14.9,0-20.6,14.6-20.6,33.6c0,19,5.7,33.7,20.6,33.7C1148.5,389.1,1154.2,374.3,1154.2,355.3"/>
					<path style="clip-path:url(#SVGID_00000060715700804902753640000007464814453509333139_);fill:#FFD100;" d="M1178.8,315.2h2.2
						c3.5-11,13.9-18,26.7-18c11.5,0,18.2,6.1,21.9,12.6l-9.6,4.6c-2.2-4.2-6.9-7.5-12.2-7.5c-6.5,0-11.7,3.2-14.5,8.3h17.3
						c1.7,0,3.1,1.4,3.1,3.1c0,1.7-1.4,3-3.1,3h-19.1c-0.2,0.8-0.2,1.6-0.2,2.5c0,0.8,0,1.5,0.1,2.2h19.2c1.7,0,3.1,1.4,3.1,3.1
						c0,1.7-1.4,3-3.1,3h-17.3c2.7,5.2,7.9,8.6,14.6,8.6c5.3,0,10.1-3.3,12.2-7.5l9.6,4.5c-3.7,6.4-10.4,12.6-21.9,12.6
						c-12.9,0-23.3-7.1-26.8-18.3h-2.2c-1.7,0-3-1.3-3-3c0-1.7,1.3-3.1,3-3.1h1.1c-0.1-0.7-0.1-1.5-0.1-2.2c0-0.8,0-1.6,0.1-2.5
						h-1.1c-1.7,0-3-1.3-3-3C1175.8,316.5,1177.1,315.2,1178.8,315.2"/>
					<path style="clip-path:url(#SVGID_00000060715700804902753640000007464814453509333139_);fill:#FFD100;" d="M1036.7,290.7h-3.3
						l-2.5-6.5h-10.7l-2.6,6.5h-3.3l9.4-22.8h3.6L1036.7,290.7z M1021.2,281.7h8.8l-4.4-11L1021.2,281.7z M1026.3,263.9
						c0.2,0.2,0.3,0.5,0.3,0.8c0,0.3-0.1,0.6-0.3,0.8c-0.2,0.2-0.5,0.3-0.8,0.3c-0.3,0-0.6-0.1-0.8-0.3l-2.7-2.7
						c-0.2-0.2-0.3-0.5-0.3-0.8c0-0.3,0.1-0.5,0.3-0.8c0.2-0.2,0.5-0.3,0.8-0.3c0.3,0,0.5,0.1,0.8,0.3L1026.3,263.9z"/>
					<path style="clip-path:url(#SVGID_00000060715700804902753640000007464814453509333139_);fill:#FFD100;" d="M1048.8,290.7
						v-22.8h9.4c4.7,0,7.3,3.1,7.3,6.9s-2.7,6.9-7.3,6.9h-6.5v9.1H1048.8z M1057.8,279.1c2.8,0,4.7-1.8,4.7-4.3s-1.9-4.3-4.7-4.3
						h-6.1v8.7H1057.8z"/>
					<path style="clip-path:url(#SVGID_00000060715700804902753640000007464814453509333139_);fill:#FFD100;" d="M1089.2,290.7h-3.3
						l-2.5-6.5h-10.7l-2.6,6.5h-3.3l9.4-22.8h3.6L1089.2,290.7z M1073.7,281.7h8.8l-4.4-11L1073.7,281.7z"/>
					<path style="clip-path:url(#SVGID_00000060715700804902753640000007464814453509333139_);fill:#FFD100;" d="M1105.8,290.7
						l-5.9-9.1h-4.7v9.1h-2.9v-22.8h9.4c4.2,0,7.3,2.7,7.3,6.9c0,4.1-2.9,6.4-6.1,6.6l6.3,9.3H1105.8z M1101.3,279.1
						c2.8,0,4.7-1.8,4.7-4.4c0-2.6-1.9-4.3-4.7-4.3h-6.1v8.7H1101.3z"/>
					<polygon style="clip-path:url(#SVGID_00000060715700804902753640000007464814453509333139_);fill:#FFD100;" points="
						1119.3,290.7 1119.3,270.4 1112,270.4 1112,267.8 1129.6,267.8 1129.6,270.4 1122.2,270.4 1122.2,290.7 					"/>
					
						<rect x="1133.5" y="267.8" style="clip-path:url(#SVGID_00000060715700804902753640000007464814453509333139_);fill:#FFD100;" width="2.9" height="22.8"/>
					<path style="clip-path:url(#SVGID_00000060715700804902753640000007464814453509333139_);fill:#FFD100;" d="M1155.3,290.7
						l-5.9-9.1h-4.7v9.1h-2.9v-22.8h9.4c4.2,0,7.3,2.7,7.3,6.9c0,4.1-2.9,6.4-6.1,6.6l6.3,9.3H1155.3z M1150.8,279.1
						c2.8,0,4.7-1.8,4.7-4.4c0-2.6-1.9-4.3-4.7-4.3h-6.1v8.7H1150.8z"/>
					<path style="clip-path:url(#SVGID_00000060715700804902753640000007464814453509333139_);fill:#FFD100;" d="M1172.1,290.7
						v-22.8h8c7.3,0,11.9,5,11.9,11.4c0,6.5-4.7,11.4-11.9,11.4H1172.1z M1180.1,288.1c5.6,0,8.9-4,8.9-8.9c0-4.9-3.2-8.9-8.9-8.9
						h-5.1v17.8H1180.1z"/>
					<polygon style="clip-path:url(#SVGID_00000060715700804902753640000007464814453509333139_);fill:#FFD100;" points="
						1196.6,290.7 1196.6,267.8 1211.8,267.8 1211.8,270.4 1199.4,270.4 1199.4,277.7 1209.8,277.7 1209.8,280.3 1199.4,280.3 
						1199.4,288.1 1211.8,288.1 1211.8,290.7 					"/>
					<path style="clip-path:url(#SVGID_00000060715700804902753640000007464814453509333139_);fill:#005CB9;" d="M825,391h14.6
						v-25.5H825V391z M842.5,375.1v7.1h24.3c2,0,3.6-1.6,3.6-3.6c0-2-1.6-3.6-3.6-3.6H842.5z M744,274.3
						c40.9,0,78.1,18.9,102.1,51.1l-8.3-1.4c-2.7-0.4-5.4,0.5-7.2,2.5c-1.5,1.6-2.3,3.8-2.1,6.1c0.3,3.6,3.2,6.7,7,7.3l28.2,4.7
						c0.4,0.1,0.7,0.1,1.1,0.1l0.2,0c3.6,0,6.8-2.5,7.7-6l7.4-28.7c0.6-2.4,0.1-4.9-1.4-6.9s-3.9-3.1-6.4-3.1l-0.5,0
						c-3.4,0.2-6.3,2.7-7.2,6.2l-2.6,10.1c-26.5-36.7-67.7-58.8-113.4-60.1l-0.2-12.9l7.8-0.1c4.7-0.1,8.5-3.9,8.4-8.6
						c-0.1-4.7-3.9-8.4-8.5-8.4H756l-32.5,0.4c-4.7,0.1-8.5,3.9-8.4,8.6c0.1,4.7,3.9,8.4,8.5,8.4h0.1l7.6-0.1l0.2,13
						c0,0.1,0,0.1,0,0.2c-73.1,6.2-130.8,66.6-132.9,141c-0.9,32.9,9.7,63.3,27.6,88.2c1.8,2.5,3.7,5,5.7,7.4c1.6,2,3.3,3.9,5,5.8
						c1.7,1.9,4.2,3,6.7,3h0c3.1,0,5.8-1.5,7.6-4c2.3-3.4,1.9-8.2-1-11.4c-1.4-1.6-2.9-3.2-4.3-4.9c-15.8-19.2-25.6-42.4-28.2-67.2
						l-0.2-2.3l-0.3,0c-0.4-4.4-0.5-8.9-0.4-13.5C618.5,330.1,675.5,274.3,744,274.3 M681.1,410.5c2.3,0,8,0.4,12.1,4.4
						c5.3,5.1,2.7,13.4,2.4,14.3c0,0.1-0.1,0.2-0.1,0.3L683.9,455c-1.2,2.6-2.4,5.8-2.7,11c-0.3,5.2,1.6,10.2,5.4,14.1
						c4.1,4.3,9.8,6.7,15.7,6.7c8.9,0,16.6-7.4,20.2-14.8l0.6-1.2c0.3-0.5,0.5-0.9,0.8-1.4l23.2-51.9h-25.8c-1.1,0-10.8-0.2-18.3-7
						c-8.4-7.7-8.2-19.5-8.2-20l0-44.9h-14.2c-9.9,0-17.6,8.5-17.6,15.8v33.1c0,7.3,7.7,15.8,17.6,15.8
						C680.5,410.5,680.8,410.5,681.1,410.5 M782.9,345.8v64.7h4.1c15.8,0,29.5-7.7,35-18.9v-26.8c-5.6-11.3-19.4-19-35-19H782.9z
						 M887.1,399.3c-2.2-2.2-5.3-3.2-8.5-2.6c-4.1,0.8-7.1,4.5-7.2,8.8c-0.1,2.1-0.2,4.3-0.4,6.5c-0.9,11.5-3.4,22.7-7.3,33.4l0,0.3
						c-18.5,49.7-67.7,84.9-123.4,83.2c-13.3-0.4-26-2.9-37.9-7l10.1-5.8c2.1-1.2,3.6-3.4,3.9-5.8c0.4-2.4-0.4-4.9-2.2-6.7
						c-2.4-2.6-6.8-3.1-10-1.2l-24.7,14.2c-0.3,0.2-0.6,0.4-0.9,0.6c-3,2.3-4,6.3-2.4,9.7l12.5,26.9c1.3,2.8,4.2,4.6,7.3,4.6
						c2,0,4-0.8,5.5-2.2c2.5-2.3,3.2-6.1,1.7-9.4l-3-6.5c12.5,4,25.8,6.3,39.6,6.7c1.4,0,2.9,0.1,4.3,0.1
						c37.9,0,73.9-14.6,101.2-41.1c3.5-3.4,6.7-6.9,9.8-10.6l0.2,0.3l2.1-2.6c18.4-22.8,29.4-50.4,31.7-79.6
						c0.2-2.6,0.3-5.2,0.4-7.6C889.7,403.5,888.8,401.1,887.1,399.3 M701.8,390.8c0,0,0,0.3,0,0.6v0c0,0.3,0,0.6,0.1,1
						c0,0,0,0,0,0.1c0,0.4,0.1,0.8,0.1,1.2c0,0.1,0,0.2,0,0.2c0.1,0.4,0.2,0.9,0.3,1.4c0,0.1,0.1,0.3,0.1,0.4
						c0.1,0.5,0.3,1.1,0.4,1.6c0,0.1,0.1,0.2,0.1,0.3c0.2,0.5,0.4,1.1,0.6,1.6c0,0.1,0.1,0.2,0.1,0.3c0.3,0.6,0.6,1.2,0.9,1.8
						c0.1,0.1,0.1,0.3,0.2,0.4c0.3,0.6,0.7,1.2,1.2,1.7c0.1,0.1,0.2,0.2,0.2,0.3c0.5,0.6,1,1.1,1.6,1.7c5.6,5.1,13.4,5.1,13.5,5.1
						h54.5v-64.7h-73.9V390.8z M718,356.2h28.9c2,0,3.6,1.6,3.6,3.6c0,2-1.6,3.6-3.6,3.6H718c-2,0-3.6-1.6-3.6-3.6
						C714.5,357.8,716.1,356.2,718,356.2 M718,371.7h28.9c2,0,3.6,1.6,3.6,3.6c0,2-1.6,3.6-3.6,3.6H718c-2,0-3.6-1.6-3.6-3.6
						C714.5,373.3,716.1,371.7,718,371.7"/>
				</g>
			</g>
		</g>
	</g>
	<g style="clip-path:url(#SVGID_00000026850242397415217950000010693594689250103690_);">
		<defs>
			<rect id="SVGID_00000165193490547760123850000016358643543774332604_" x="1488.2" y="-14.2" width="1502.4" height="1516.5"/>
		</defs>
		<clipPath id="SVGID_00000145756375523648041430000004683869099198941827_">
			<use xlink:href="#SVGID_00000165193490547760123850000016358643543774332604_"  style="overflow:visible;"/>
		</clipPath>
		<g style="clip-path:url(#SVGID_00000145756375523648041430000004683869099198941827_);">
			<g>
				<defs>
					<rect id="SVGID_00000160174267960346429140000003040985469398251165_" x="1474" y="-14.2" width="1516.5" height="1516.5"/>
				</defs>
				<clipPath id="SVGID_00000166656247931596963580000006544051125370082207_">
					<use xlink:href="#SVGID_00000160174267960346429140000003040985469398251165_"  style="overflow:visible;"/>
				</clipPath>
				
					<rect x="1474" y="-14.2" style="clip-path:url(#SVGID_00000166656247931596963580000006544051125370082207_);fill:#FFD100;" width="1516.5" height="1516.5"/>
				<g style="clip-path:url(#SVGID_00000166656247931596963580000006544051125370082207_);">
					<text transform="matrix(1 0 0 1 1898.99 804.8109)" class="st10 st11 st12">location</text>
				</g>
				<g style="clip-path:url(#SVGID_00000166656247931596963580000006544051125370082207_);">
					<text transform="matrix(1 0 0 1 1772.5085 938.619)" class="st10 st11 st12">de véhicule</text>
				</g>
				<g style="clip-path:url(#SVGID_00000166656247931596963580000006544051125370082207_);">
					<text transform="matrix(1 0 0 1 1881.6287 1099.8918)" class="st10 st13 st14">Besoin d’un véhicule ?</text>
				</g>
				<g style="clip-path:url(#SVGID_00000166656247931596963580000006544051125370082207_);">
					<text transform="matrix(1 0 0 1 1858.2517 1169.6746)" class="st10 st11 st14">Louez un véhicule pour</text>
				</g>
				<g style="clip-path:url(#SVGID_00000166656247931596963580000006544051125370082207_);">
					<text transform="matrix(1 0 0 1 1872.9753 1239.4568)" class="st10 st11 st14">8,90€ par demi-heure</text>
				</g>
				<g style="clip-path:url(#SVGID_00000166656247931596963580000006544051125370082207_);">
					<defs>
						<rect id="SVGID_00000085218189494985588030000017981086298169888160_" x="1474" y="-14.2" width="1516.5" height="1516.5"/>
					</defs>
					<clipPath id="SVGID_00000016788627735422579060000007374536379009750172_">
						<use xlink:href="#SVGID_00000085218189494985588030000017981086298169888160_"  style="overflow:visible;"/>
					</clipPath>
					<path style="clip-path:url(#SVGID_00000016788627735422579060000007374536379009750172_);fill:#005CB9;" d="M2143.7,412.4
						c0.6,4.1,4.5,6.9,8.8,6.2c4.2-0.7,7.1-4.7,6.5-8.8c-4-27,14.1-53.6,42.4-61.9c27.3-8.1,55.2,3.3,66.5,27
						c1.8,3.8,6.4,5.3,10.3,3.5c0.3-0.1,0.5-0.2,0.7-0.4c3.4-2.1,4.7-6.3,3-9.8c-14.4-30.3-50-45-84.6-34.8
						C2161.6,343.8,2138.5,377.8,2143.7,412.4"/>
					<path style="clip-path:url(#SVGID_00000016788627735422579060000007374536379009750172_);fill:#005CB9;" d="M2495.1,491
						l-5.5-3.5c-0.6,0.7-1.3,1.3-2.2,1.7c-2.2,1.1-4.9,1-7.1-0.4c-3.4-2.2-4.3-6.7-2.1-10l0.4-0.7l-5.9-4.3l-0.5,0.8
						c-0.8,1.2-1.8,2-2.9,2.5c-2.2,1.1-4.9,1-7.1-0.4c-3.4-2.2-4.3-6.7-2.1-10l1-1.7l-6.5-4.7l-0.6,0.9c-0.7,1.1-1.7,2-2.9,2.5
						c-2.2,1.1-4.9,1-7.2-0.4c-3.3-2.1-4.3-6.6-2.2-10l1.1-1.7l-47.1-34.6c0.4-3.6-1.2-7.3-4.5-9.5c-2.9-1.9-6.5-2.1-9.5-0.8
						l-0.1-0.1c3-11.4,3.5-23.4,1.3-35.2c-3.9-21.3-15.8-39.7-33.5-52c-24-16.6-55.2-19-81.5-6.2c-8.1,3.9-15.4,9.2-21.8,15.6
						c13.4,4.9,25.1,13.2,33.6,24.6c3.7-0.4,7.6,0.2,11.1,1.8c5.4,2.4,9.5,6.7,11.5,12.2c4,10.5-0.7,22.6-10.8,27.5
						c-0.5,0.3-1.1,0.6-1.7,0.8c-5.5,2.1-11.4,1.9-16.7-0.4c-5.4-2.4-9.5-6.7-11.6-12.2c-1.3-3.3-1.6-6.8-1.3-10.1
						c-6.7-10.8-17.7-18.1-30.2-20.9c-12.3,26.6-8.9,57.6,7.8,81c-4.2,2.3-9.1,4.3-14.8,5.6c-5.4,1.3-10.5,1.7-15.1,1.5
						c-0.6-23.4-11.5-48.3-32.2-67.2c-0.5-0.4-0.9-0.8-1.4-1.2c-6.8,8.8-10.6,19.4-10.4,30.4c1,1.6,1.9,3.2,2.5,5
						c3.2,9.8-1.4,20.5-10.7,25.1c-0.8,0.4-1.7,0.8-2.7,1.1c-10.9,3.5-22.6-2.5-26.1-13.4c-3.1-9.6,1.3-20.3,10.3-24.9
						c1.3-13.9,6.6-27.1,15.1-38.4c-23.9-12.1-50.7-13.7-72.3-3.2c-7.2,3.5-13.6,8.3-18.9,14.1l-82.9,90.7
						c-27.4,30-20.4,81,15.5,113.9c28.2,25.7,66.7,33.5,95.8,19.4c7.2-3.5,13.5-8.3,18.9-14.1l82.9-90.7
						c7.7-8.4,12.6-18.5,15.1-29.4c6.3,0.4,13.2-0.1,20.7-1.9c5.9-1.4,11.1-3.3,15.8-5.6c2.4-1.2,4.7-2.5,6.7-3.8
						c2.4,2.2,5.1,4.3,7.8,6.1c24,16.6,55.2,19.1,81.5,6.3c5.7-2.8,11-6.3,15.9-10.3c0.1,3.3,1.7,6.4,4.6,8.3
						c3.1,2.1,6.9,2.2,10,0.7c0.9-0.4,1.8-1.1,2.5-1.8l34.8,19.6l14.7,9.6l1.7-2.6c2.2-3.3,6.6-4.3,10-2.1c3.4,2.2,4.3,6.6,2.2,10
						l-1.7,2.6l6.8,4.4l1-1.6c2.2-3.3,6.6-4.3,10-2.1c3.4,2.1,4.3,6.6,2.2,10l-1.1,1.6l6.2,4l0.9-1.3c2.2-3.4,6.6-4.3,10-2.1
						c3.4,2.1,4.3,6.6,2.2,10l-0.9,1.4l1.6,1c0.5,0.3,0.9,0.5,1.3,0.7l2.5,1.6c5.3,3.4,11.7,3.6,17,1c2.8-1.4,5.2-3.4,6.9-6.2
						C2505.4,507,2503.1,496.3,2495.1,491"/>
				</g>
			</g>
		</g>
	</g>
	
		<line style="clip-path:url(#SVGID_00000026850242397415217950000010693594689250103690_);fill:none;stroke:#FFFFFF;stroke-width:6;stroke-miterlimit:10;" x1="1488.2" y1="1502.4" x2="1488.2" y2="-14.2"/>
</g>
</svg>
