<?xml version="1.0" encoding="utf-8"?>
<!-- Generator: Adobe Illustrator 26.5.0, SVG Export Plug-In . SVG Version: 6.00 Build 0)  -->
<svg version="1.1" id="Calque_1" xmlns="http://www.w3.org/2000/svg" xmlns:xlink="http://www.w3.org/1999/xlink" x="0px" y="0px"
	 viewBox="0 0 2976.4 1488.2" style="enable-background:new 0 0 2976.4 1488.2;" xml:space="preserve">
<style type="text/css">
	.st0{display:none;fill:none;stroke:#FFFFFF;stroke-width:0.6;stroke-miterlimit:10;}
	.st1{clip-path:url(#SVGID_00000103954489550228736780000003905552040775544732_);}
	.st2{clip-path:url(#SVGID_00000063615412373026862540000006416162494771719862_);}
	.st3{clip-path:url(#SVGID_00000132074087948449953070000017348949770098352049_);fill:#005CB9;}
	.st4{clip-path:url(#SVGID_00000132074087948449953070000017348949770098352049_);}
	.st5{clip-path:url(#SVGID_00000124144362143313986470000004824707747245131174_);fill:#FFFFFF;}
	.st6{clip-path:url(#SVGID_00000041976351750802437100000017659268097187847095_);}
	.st7{clip-path:url(#SVGID_00000115495111531125560020000015045276626995017890_);fill:#FFD100;}
	.st8{clip-path:url(#SVGID_00000115495111531125560020000015045276626995017890_);fill:#005CB9;}
	.st9{clip-path:url(#SVGID_00000115495111531125560020000015045276626995017890_);}
	.st10{clip-path:url(#SVGID_00000161611142662169489230000001183099984003011472_);fill:#005CB9;}
	.st11{clip-path:url(#SVGID_00000161611142662169489230000001183099984003011472_);fill:#FFD100;}
</style>
<line class="st0" x1="1488.2" y1="819.9" x2="1488.2" y2="668.3"/>
<g>
	<defs>
		<rect id="SVGID_1_" width="2976.4" height="1488.2"/>
	</defs>
	<clipPath id="SVGID_00000133514363728226418560000001122804923488922266_">
		<use xlink:href="#SVGID_1_"  style="overflow:visible;"/>
	</clipPath>
	<g style="clip-path:url(#SVGID_00000133514363728226418560000001122804923488922266_);">
		<defs>
			<rect id="SVGID_00000117673867638308072820000007645888314746519180_" x="-14.2" y="-14.2" width="1502.4" height="1516.5"/>
		</defs>
		<clipPath id="SVGID_00000135658099496146166410000003137208532318058390_">
			<use xlink:href="#SVGID_00000117673867638308072820000007645888314746519180_"  style="overflow:visible;"/>
		</clipPath>
		<g style="clip-path:url(#SVGID_00000135658099496146166410000003137208532318058390_);">
			<g>
				<defs>
					<rect id="SVGID_00000010293520872141936140000011099245146263606950_" x="-14.2" y="-14.2" width="1516.5" height="1516.5"/>
				</defs>
				<clipPath id="SVGID_00000082349201603735437850000002072713393005909681_">
					<use xlink:href="#SVGID_00000010293520872141936140000011099245146263606950_"  style="overflow:visible;"/>
				</clipPath>
				
					<rect x="-14.2" y="-14.2" style="clip-path:url(#SVGID_00000082349201603735437850000002072713393005909681_);fill:#005CB9;" width="1516.5" height="1516.5"/>
				<g style="clip-path:url(#SVGID_00000082349201603735437850000002072713393005909681_);">
					<defs>
						<rect id="SVGID_00000066505539156221428300000009043787697010561667_" x="-14.2" y="-14.2" width="1516.5" height="1516.5"/>
					</defs>
					<clipPath id="SVGID_00000154410052583151372710000008036215905545409188_">
						<use xlink:href="#SVGID_00000066505539156221428300000009043787697010561667_"  style="overflow:visible;"/>
					</clipPath>
					<path style="clip-path:url(#SVGID_00000154410052583151372710000008036215905545409188_);fill:#FFFFFF;" d="M345.7,1080.5
						c0,7.3-5,12.3-13.5,12.3H311v-45.7h18.9c8.1,0,13.1,4.8,13.1,11.6c0,5.4-3.5,9.2-7.5,10.3
						C341.7,1069.6,345.7,1075.1,345.7,1080.5 M316.8,1067H329c5.3,0,8-3.2,8-7.3c0-4.1-2.7-7.4-8-7.4h-12.1V1067z M331.1,1087.8
						c5.3,0,8.6-3,8.6-7.9c0-4.2-2.9-7.9-8.6-7.9h-14.3v15.8H331.1z"/>
					<path style="clip-path:url(#SVGID_00000154410052583151372710000008036215905545409188_);fill:#FFFFFF;" d="M352.8,1076.3
						c0-9.6,7-17.3,16.6-17.3c10.2,0,16.2,7.8,16.2,17.7v1.3h-27.3c0.4,6.2,4.8,11.1,12.1,11.1c3.9,0,7.5-1.5,10.2-4.2l2.8,3.7
						c-3.4,3.3-7.9,5.1-13.4,5.1C360,1093.7,352.8,1086.6,352.8,1076.3 M380.4,1074.1c-0.1-4.9-3.4-10.6-11.1-10.6
						c-7.2,0-10.8,5.6-11,10.6H380.4z"/>
					<path style="clip-path:url(#SVGID_00000154410052583151372710000008036215905545409188_);fill:#FFFFFF;" d="M391.3,1088.5
						l2.6-3.7c2.3,2.5,6.5,4.7,11.2,4.7c5.1,0,8-2.4,8-5.7c0-8-20.9-3.1-20.9-15.3c0-5.2,4.5-9.5,12.5-9.5c5.8,0,9.8,2.1,12.5,4.8
						l-2.5,3.6c-2-2.4-5.6-4.2-10-4.2c-4.7,0-7.5,2.3-7.5,5.2c0,7.2,20.9,2.5,20.9,15.3c0,5.5-4.5,10-13.1,10
						C399.3,1093.7,394.7,1091.9,391.3,1088.5"/>
					<path style="clip-path:url(#SVGID_00000154410052583151372710000008036215905545409188_);fill:#FFFFFF;" d="M424.6,1076.3
						c0-9.6,6.4-17.3,16.7-17.3s16.7,7.7,16.7,17.3c0,9.6-6.4,17.4-16.7,17.4S424.6,1085.9,424.6,1076.3 M452.5,1076.3
						c0-6.7-4-12.7-11.2-12.7s-11.2,6-11.2,12.7c0,6.8,4,12.8,11.2,12.8S452.5,1083,452.5,1076.3"/>
					<path style="clip-path:url(#SVGID_00000154410052583151372710000008036215905545409188_);fill:#FFFFFF;" d="M469.5,1048.1
						c1.7,0,3.1,1.4,3.1,3.2s-1.4,3.1-3.1,3.1s-3.1-1.4-3.1-3.1S467.8,1048.1,469.5,1048.1 M466.9,1059.8h5.2v33.1h-5.2V1059.8z"/>
					<path style="clip-path:url(#SVGID_00000154410052583151372710000008036215905545409188_);fill:#FFFFFF;" d="M506,1092.8v-21.6
						c0-5.9-3.1-7.7-7.7-7.7c-4.1,0-10,2.9-10,12.7v16.6h-5.2v-33.1h5.2v4.8c2.4-2.8,7-5.6,12.1-5.6c7,0,10.7,3.5,10.7,10.7v23.2
						H506z"/>
					<path style="clip-path:url(#SVGID_00000154410052583151372710000008036215905545409188_);fill:#FFFFFF;" d="M570.2,1047.2v45.7
						H565v-4.9c-3.1,4.6-7.8,5.7-10.7,5.7c-10.3,0-16.7-7.8-16.7-17.4c0-9.6,6.4-17.3,16.7-17.3c2.6,0,7.5,1,10.7,5.8v-17.5H570.2z
						 M565.5,1076.3c0-6.7-4-12.7-11.2-12.7c-7.2,0-11.2,6-11.2,12.7c0,6.8,4,12.8,11.2,12.8C561.5,1089.1,565.5,1083,565.5,1076.3"
						/>
					<path style="clip-path:url(#SVGID_00000154410052583151372710000008036215905545409188_);fill:#FFFFFF;" d="M579.9,1058.7
						c1.2-1,2.1-2.9,2.1-4.9c0-0.3-0.1-0.5-0.1-0.8c-1.5-0.5-2.2-1.5-2.2-3.1c0-2,1.5-3.4,3.6-3.4c2.6,0,4.4,2.1,4.4,4.9
						c0,4.4-3.4,8.2-7.8,8.6V1058.7z"/>
					<path style="clip-path:url(#SVGID_00000154410052583151372710000008036215905545409188_);fill:#FFFFFF;" d="M596.6,1080.2v-0.3
						v-20.1h5.2v20.3c0,1.2,0.3,9,8.8,9c8.7,0,8.9-7.9,8.9-9.2v-20.1h5.2v20.1v0.3c0,2.1-0.5,13.5-14.1,13.5
						C597.1,1093.7,596.6,1082.2,596.6,1080.2"/>
					<path style="clip-path:url(#SVGID_00000154410052583151372710000008036215905545409188_);fill:#FFFFFF;" d="M658.1,1092.8
						v-21.6c0-5.9-3.1-7.7-7.7-7.7c-4.1,0-10,2.9-10,12.7v16.6h-5.2v-33.1h5.2v4.8c2.4-2.8,7-5.6,12.1-5.6c7,0,10.7,3.5,10.7,10.7
						v23.2H658.1z"/>
					<path style="clip-path:url(#SVGID_00000154410052583151372710000008036215905545409188_);fill:#FFFFFF;" d="M689.7,1076.3
						c0-9.8,6.8-17.3,16.8-17.3c6.1,0,9.7,2.5,12.3,5.8l-3.5,3.1c-2.2-3-5.1-4.2-8.6-4.2c-7.1,0-11.7,5.4-11.7,12.7
						c0,7.3,4.6,12.8,11.7,12.8c3.5,0,6.4-1.4,8.6-4.3l3.5,3.2c-2.6,3.3-6.2,5.8-12.3,5.8C696.5,1093.7,689.7,1086.1,689.7,1076.3"
						/>
					<path style="clip-path:url(#SVGID_00000154410052583151372710000008036215905545409188_);fill:#FFFFFF;" d="M724.3,1076.3
						c0-9.6,6.4-17.3,16.7-17.3c10.3,0,16.7,7.7,16.7,17.3c0,9.6-6.4,17.4-16.7,17.4C730.7,1093.7,724.3,1085.9,724.3,1076.3
						 M752.1,1076.3c0-6.7-4-12.7-11.2-12.7c-7.2,0-11.2,6-11.2,12.7c0,6.8,4,12.8,11.2,12.8C748.2,1089.1,752.1,1083,752.1,1076.3"
						/>
					<path style="clip-path:url(#SVGID_00000154410052583151372710000008036215905545409188_);fill:#FFFFFF;" d="M766.1,1080.2v-0.3
						v-20.1h5.2v20.3c0,1.2,0.3,9,8.8,9c8.7,0,8.9-7.9,8.9-9.2v-20.1h5.2v20.1v0.3c0,2.1-0.5,13.5-14.1,13.5
						C766.6,1093.7,766.1,1082.2,766.1,1080.2"/>
					<path style="clip-path:url(#SVGID_00000154410052583151372710000008036215905545409188_);fill:#FFFFFF;" d="M809.9,1059.8v4.9
						c3.2-4.7,8.1-5.8,10.7-5.8c10.3,0,16.7,7.7,16.7,17.3c0,9.6-6.4,17.4-16.7,17.4c-2.9,0-7.6-1.1-10.7-5.7v17.5h-5.2v-45.7H809.9
						z M831.7,1076.3c0-6.7-4-12.7-11.2-12.7c-7.2,0-11.2,6-11.2,12.7c0,6.8,4,12.8,11.2,12.8C827.7,1089.1,831.7,1083,831.7,1076.3
						"/>
					<path style="clip-path:url(#SVGID_00000154410052583151372710000008036215905545409188_);fill:#FFFFFF;" d="M894.4,1047.2v45.7
						h-5.2v-4.9c-3.1,4.6-7.8,5.7-10.7,5.7c-10.3,0-16.7-7.8-16.7-17.4c0-9.6,6.4-17.3,16.7-17.3c2.6,0,7.5,1,10.7,5.8v-17.5H894.4z
						 M889.6,1076.3c0-6.7-4-12.7-11.2-12.7c-7.2,0-11.2,6-11.2,12.7c0,6.8,4,12.8,11.2,12.8C885.7,1089.1,889.6,1083,889.6,1076.3"
						/>
					<path style="clip-path:url(#SVGID_00000154410052583151372710000008036215905545409188_);fill:#FFFFFF;" d="M902.9,1076.3
						c0-9.6,7-17.3,16.6-17.3c10.2,0,16.2,7.8,16.2,17.7v1.3h-27.3c0.4,6.2,4.8,11.1,12.1,11.1c3.9,0,7.5-1.5,10.2-4.2l2.8,3.7
						c-3.4,3.3-7.9,5.1-13.4,5.1C910,1093.7,902.9,1086.6,902.9,1076.3 M930.5,1074.1c-0.1-4.9-3.4-10.6-11.1-10.6
						c-7.2,0-10.8,5.6-11,10.6H930.5z"/>
					<path style="clip-path:url(#SVGID_00000154410052583151372710000008036215905545409188_);fill:#FFFFFF;" d="M1012.9,1069.6
						v23.2h-5.1v-21.6c0-5.3-2.5-7.3-6.4-7.6c-7.2,0-11.2,4.6-11.2,9.6v19.7H985v-21.6c0-5.9-3.1-7.7-7.6-7.7c-4.1,0-10,2.9-10,12.7
						v16.6h-5.2v-33.1h5.2v4.8c2.4-2.8,7-5.6,12.1-5.6c5.2,0,8.6,2,9.9,6c2.7-3.4,6.6-6,12.7-6
						C1009.2,1058.9,1012.9,1062.4,1012.9,1069.6"/>
					<path style="clip-path:url(#SVGID_00000154410052583151372710000008036215905545409188_);fill:#FFFFFF;" d="M1053.9,1059.8
						v33.1h-5.2v-4.9c-3.1,4.6-7.8,5.7-10.7,5.7c-10.3,0-16.7-7.8-16.7-17.4c0-9.6,6.4-17.3,16.7-17.3c2.6,0,7.5,1,10.7,5.8v-4.9
						H1053.9z M1049.2,1076.3c0-6.7-4-12.7-11.2-12.7c-7.2,0-11.2,6-11.2,12.7c0,6.8,4,12.8,11.2,12.8
						C1045.2,1089.1,1049.2,1083,1049.2,1076.3"/>
					<path style="clip-path:url(#SVGID_00000154410052583151372710000008036215905545409188_);fill:#FFFFFF;" d="M1067.4,1048.1
						c1.7,0,3.2,1.4,3.2,3.2s-1.4,3.1-3.2,3.1c-1.7,0-3.1-1.4-3.1-3.1S1065.7,1048.1,1067.4,1048.1 M1064.8,1059.8h5.2v33.1h-5.2
						V1059.8z"/>
					<path style="clip-path:url(#SVGID_00000154410052583151372710000008036215905545409188_);fill:#FFFFFF;" d="M1103.8,1092.8
						v-21.6c0-5.9-3.1-7.7-7.7-7.7c-4.1,0-10,2.9-10,12.7v16.6h-5.2v-33.1h5.2v4.8c2.4-2.8,7-5.6,12.1-5.6c7,0,10.7,3.5,10.7,10.7
						v23.2H1103.8z"/>
					<path style="clip-path:url(#SVGID_00000154410052583151372710000008036215905545409188_);fill:#FFFFFF;" d="M1149,1071.3v6.4
						c0,1.4-1.2,2.5-2.5,2.5c-1.4,0-2.5-1.1-2.5-2.5v-11.1c11.9,0,12.5-7,12.5-8.5v-0.3c0-3.4-2.7-6.4-8.1-6.4
						c-5.3,0-8.6,2.2-11.2,5.6l-3.5-3.7c3.4-4.3,8.5-7,15.1-7c7.7,0,13.7,4.1,13.7,11.7C1162.5,1063.2,1159.9,1069.5,1149,1071.3
						 M1146.4,1086.5c2,0,3.6,1.6,3.6,3.6c0,2-1.6,3.5-3.6,3.5c-2,0-3.5-1.5-3.5-3.5C1142.9,1088,1144.4,1086.5,1146.4,1086.5"/>
					<path style="clip-path:url(#SVGID_00000154410052583151372710000008036215905545409188_);fill:#FFFFFF;" d="M262.5,1161.3
						v-45.6h19.7c13.8,0,24.2,8.2,24.2,22.7c0,14.6-10.4,22.9-24.2,22.9H262.5z M293.7,1138.4c0-6.6-3.8-11.5-11.4-11.5h-7.2v23.1
						h7.1C289.4,1150.1,293.7,1144.6,293.7,1138.4"/>
					<path style="clip-path:url(#SVGID_00000154410052583151372710000008036215905545409188_);fill:#FFFFFF;" d="M309.5,1144.7
						c0-9.6,7.2-17.3,17.6-17.3c9.3,0,16.6,7,16.6,18.7v2.1H321c0.8,2.7,3.4,5.4,7.8,5.4c1.8,0,5.5-0.8,7.5-2.1l4.5,7
						c-3.2,2.5-8.8,3.7-13.4,3.7C317.3,1162.1,309.5,1155.6,309.5,1144.7 M327.1,1136c-4.2,0-5.8,3.3-6.2,5.3h12.3
						C332.7,1138.9,331.5,1136,327.1,1136"/>
					<path style="clip-path:url(#SVGID_00000154410052583151372710000008036215905545409188_);fill:#FFFFFF;" d="M347.1,1157.3
						c1.5-2.6,2.9-4.9,4.5-7.5c2.8,2.1,8.1,4,11.6,4c3,0,3.9-0.8,3.9-2c0-1.6-2.2-1.9-5.1-2.3c-5.3-0.8-13.8-2.7-13.8-11.1
						c0-5.8,5.1-11,14.2-11c5.1,0,9.9,1.6,13.6,4c-1.4,2.6-2.6,4.6-4,7.1c-2.2-1.6-5.9-3.1-9.5-3.1c-2.1,0-3.6,0.8-3.6,2.1
						s2.1,1.6,4.8,2.1c5.3,0.8,14,2.9,14,11.4c0,6.4-5.7,11.2-15.1,11.2C356.7,1162.1,350.6,1160.3,347.1,1157.3"/>
					<path style="clip-path:url(#SVGID_00000154410052583151372710000008036215905545409188_);fill:#FFFFFF;" d="M411.7,1157.1
						L411.7,1157.1l-0.1,4.2h-11.2v-45.6h11.2v16.9h0.1c2.9-4.5,7.2-5.2,9.2-5.2c9.3,0,15.3,8.1,15.3,17.3c0,9.3-6.3,17.4-15.3,17.4
						C418.8,1162.1,414.6,1161.6,411.7,1157.1 M424.6,1144.7c0-4.1-2.3-7.2-6.4-7.2c-4.2,0-6.5,3.1-6.5,7.2c0,4.2,2.3,7.3,6.5,7.3
						C422.3,1152.1,424.6,1148.9,424.6,1144.7"/>
					<path style="clip-path:url(#SVGID_00000154410052583151372710000008036215905545409188_);fill:#FFFFFF;" d="M442,1161.3v-33
						h11.2v4.3c2.3-2.8,6.6-5.3,10.1-5.3v10.8c-0.6-0.1-1.3-0.1-2.3-0.1c-3.2,0-7.9,0.9-7.9,6.7v16.6H442z"/>
					<path style="clip-path:url(#SVGID_00000154410052583151372710000008036215905545409188_);fill:#FFFFFF;" d="M468.4,1117
						c0-3.1,2.5-5.5,5.7-5.5c3,0,5.5,2.4,5.5,5.5c0,3-2.5,5.5-5.5,5.5C470.9,1122.5,468.4,1120,468.4,1117 M468.4,1128.3h11.2v33
						h-11.2V1128.3z"/>
					<path style="clip-path:url(#SVGID_00000154410052583151372710000008036215905545409188_);fill:#FFFFFF;" d="M485.5,1144.7
						c0-10.5,7.9-17.3,18-17.3c7,0,11.3,3.1,13.3,5.8l-7.1,7c-1.2-1.5-3.1-2.6-5.7-2.6c-3.8,0-7.1,2.5-7.1,7.2
						c0,4.7,3.3,7.3,7.1,7.3c2.5,0,4.6-1.3,5.8-2.7c2.5,2.5,4.5,4.7,7,7.1c-2,2.6-6.4,5.7-13.3,5.7
						C493.3,1162.1,485.5,1155.3,485.5,1144.7"/>
					<path style="clip-path:url(#SVGID_00000154410052583151372710000008036215905545409188_);fill:#FFFFFF;" d="M520.2,1144.7
						c0-9.2,6.6-17.3,18.1-17.3c11.4,0,18.1,8.1,18.1,17.3c0,9.3-6.7,17.4-18.1,17.4C526.8,1162.1,520.2,1154.1,520.2,1144.7
						 M544.8,1144.7c0-4.1-2.3-7.2-6.5-7.2c-4.1,0-6.4,3.1-6.4,7.2c0,4.2,2.3,7.3,6.4,7.3C542.4,1152.1,544.8,1148.9,544.8,1144.7"
						/>
					
						<rect x="562.2" y="1115.7" style="clip-path:url(#SVGID_00000154410052583151372710000008036215905545409188_);fill:#FFFFFF;" width="11.2" height="45.6"/>
					<path style="clip-path:url(#SVGID_00000154410052583151372710000008036215905545409188_);fill:#FFFFFF;" d="M579.3,1144.7
						c0-9.6,7.2-17.3,17.6-17.3c9.3,0,16.6,7,16.6,18.7v2.1h-22.7c0.8,2.7,3.4,5.4,7.8,5.4c1.8,0,5.5-0.8,7.5-2.1l4.5,7
						c-3.2,2.5-8.8,3.7-13.4,3.7C587.1,1162.1,579.3,1155.6,579.3,1144.7 M596.9,1136c-4.2,0-5.8,3.3-6.2,5.3H603
						C602.5,1138.9,601.3,1136,596.9,1136"/>
					<path style="clip-path:url(#SVGID_00000154410052583151372710000008036215905545409188_);fill:#FFFFFF;" d="M652.3,1128.3v16.9
						c0,9.9-6.5,16.9-16.8,16.9c-11.3,0-16.8-7.6-16.8-16.9v-16.9h11.2v18.1c0,3.1,0.9,5.6,5.6,5.6c4.7,0,5.6-2.5,5.6-5.6v-18.1
						H652.3z"/>
					<path style="clip-path:url(#SVGID_00000154410052583151372710000008036215905545409188_);fill:#FFFFFF;" d="M659.8,1161.3v-33
						H671v4.3c2.3-2.8,6.6-5.3,10.1-5.3v10.8c-0.6-0.1-1.3-0.1-2.3-0.1c-3.2,0-7.9,0.9-7.9,6.7v16.6H659.8z"/>
					<path style="clip-path:url(#SVGID_00000154410052583151372710000008036215905545409188_);fill:#FFFFFF;" d="M684.4,1157.3
						c1.5-2.6,2.9-4.9,4.5-7.5c2.8,2.1,8.2,4,11.6,4c3,0,3.9-0.8,3.9-2c0-1.6-2.2-1.9-5.1-2.3c-5.3-0.8-13.8-2.7-13.8-11.1
						c0-5.8,5.1-11,14.2-11c5.1,0,9.9,1.6,13.6,4c-1.4,2.6-2.6,4.6-4,7.1c-2.2-1.6-5.9-3.1-9.5-3.1c-2.1,0-3.6,0.8-3.6,2.1
						s2.1,1.6,4.8,2.1c5.3,0.8,14,2.9,14,11.4c0,6.4-5.7,11.2-15.1,11.2C694,1162.1,687.9,1160.3,684.4,1157.3"/>
					<polygon style="clip-path:url(#SVGID_00000154410052583151372710000008036215905545409188_);fill:#FFFFFF;" points="
						746.3,1161.3 734,1128.3 745.7,1128.3 752.4,1149.1 759.3,1128.3 771.1,1128.3 758.7,1161.3 					"/>
					<path style="clip-path:url(#SVGID_00000154410052583151372710000008036215905545409188_);fill:#FFFFFF;" d="M772.5,1144.7
						c0-9.2,6.6-17.3,18.1-17.3c11.4,0,18.1,8.1,18.1,17.3c0,9.3-6.7,17.4-18.1,17.4C779.2,1162.1,772.5,1154.1,772.5,1144.7
						 M797.1,1144.7c0-4.1-2.3-7.2-6.5-7.2c-4.1,0-6.4,3.1-6.4,7.2c0,4.2,2.3,7.3,6.4,7.3C794.8,1152.1,797.1,1148.9,797.1,1144.7"
						/>
					<path style="clip-path:url(#SVGID_00000154410052583151372710000008036215905545409188_);fill:#FFFFFF;" d="M848.2,1128.3v16.9
						c0,9.9-6.5,16.9-16.8,16.9c-11.3,0-16.8-7.6-16.8-16.9v-16.9h11.2v18.1c0,3.1,0.9,5.6,5.6,5.6c4.7,0,5.6-2.5,5.6-5.6v-18.1
						H848.2z"/>
					<path style="clip-path:url(#SVGID_00000154410052583151372710000008036215905545409188_);fill:#FFFFFF;" d="M854.1,1157.3
						c1.5-2.6,2.9-4.9,4.5-7.5c2.8,2.1,8.2,4,11.6,4c3,0,3.9-0.8,3.9-2c0-1.6-2.2-1.9-5.1-2.3c-5.3-0.8-13.8-2.7-13.8-11.1
						c0-5.8,5.1-11,14.2-11c5.1,0,9.9,1.6,13.6,4c-1.4,2.6-2.6,4.6-4,7.1c-2.2-1.6-5.9-3.1-9.5-3.1c-2.1,0-3.6,0.8-3.6,2.1
						s2.1,1.6,4.8,2.1c5.3,0.8,14,2.9,14,11.4c0,6.4-5.7,11.2-15.1,11.2C863.7,1162.1,857.6,1160.3,854.1,1157.3"/>
					<path style="clip-path:url(#SVGID_00000154410052583151372710000008036215905545409188_);fill:#FFFFFF;" d="M905.7,1144.7
						c0-9.2,6-17.3,15.3-17.3c2,0,6.3,0.8,9.2,5.2h0.1v-4.3h11.2v33h-11.2v-4.2h-0.1c-2.9,4.5-7.1,5-9.2,5
						C912,1162.1,905.7,1154.1,905.7,1144.7 M930.3,1144.7c0-4.1-2.3-7.2-6.5-7.2c-4.1,0-6.4,3.1-6.4,7.2c0,4.2,2.3,7.3,6.4,7.3
						C928,1152.1,930.3,1148.9,930.3,1144.7"/>
					<path style="clip-path:url(#SVGID_00000154410052583151372710000008036215905545409188_);fill:#FFFFFF;" d="M949,1117
						c0-3.1,2.5-5.5,5.7-5.5c3,0,5.5,2.4,5.5,5.5c0,3-2.5,5.5-5.5,5.5C951.6,1122.5,949,1120,949,1117 M949,1128.3h11.2v33H949
						V1128.3z"/>
					<path style="clip-path:url(#SVGID_00000154410052583151372710000008036215905545409188_);fill:#FFFFFF;" d="M966.1,1144.7
						c0-9.2,6-17.3,15.3-17.3c2,0,6.3,0.8,9.2,5.2h0.1v-16.9h11.2v45.6h-11.2v-4.2h-0.1c-2.9,4.5-7.1,5-9.2,5
						C972.4,1162.1,966.1,1154.1,966.1,1144.7 M990.7,1144.7c0-4.1-2.3-7.2-6.5-7.2c-4.1,0-6.4,3.1-6.4,7.2c0,4.2,2.3,7.3,6.4,7.3
						C988.4,1152.1,990.7,1148.9,990.7,1144.7"/>
					<path style="clip-path:url(#SVGID_00000154410052583151372710000008036215905545409188_);fill:#FFFFFF;" d="M1007.7,1144.7
						c0-9.6,7.2-17.3,17.6-17.3c9.3,0,16.6,7,16.6,18.7v2.1h-22.7c0.8,2.7,3.4,5.4,7.8,5.4c1.8,0,5.5-0.8,7.5-2.1l4.5,7
						c-3.2,2.5-8.8,3.7-13.4,3.7C1015.6,1162.1,1007.7,1155.6,1007.7,1144.7 M1025.3,1136c-4.2,0-5.8,3.3-6.2,5.3h12.3
						C1030.9,1138.9,1029.7,1136,1025.3,1136"/>
					<path style="clip-path:url(#SVGID_00000154410052583151372710000008036215905545409188_);fill:#FFFFFF;" d="M1069.6,1161.3
						V1143c0-3.9-2.1-5.4-5.5-5.4c-3.1,0-5.8,2.2-5.8,7.1v16.6H1047v-33h11.2v4.3c2.2-2.8,6.3-5.2,12-5.2c7.2,0,10.5,4.5,10.5,10.2
						v23.7H1069.6z"/>
					<path style="clip-path:url(#SVGID_00000154410052583151372710000008036215905545409188_);fill:#FFFFFF;" d="M1102.5,1138.2v8.4
						c0,3.1,0.9,5.6,5.6,5.6v10c-11.3,0-16.8-7.5-16.8-16.8v-7.1h-5.5v-9.9h5.5v-9.4h11.2v9.4h6.6v9.9H1102.5z"/>
					<path style="clip-path:url(#SVGID_00000154410052583151372710000008036215905545409188_);fill:#FFFFFF;" d="M1129.3,1157.3
						c1.5-2.6,2.9-4.9,4.5-7.5c2.8,2.1,8.1,4,11.6,4c3,0,3.9-0.8,3.9-2c0-1.6-2.2-1.9-5.1-2.3c-5.3-0.8-13.8-2.7-13.8-11.1
						c0-5.8,5.1-11,14.2-11c5.1,0,9.9,1.6,13.6,4c-1.4,2.6-2.6,4.6-4,7.1c-2.2-1.6-5.9-3.1-9.5-3.1c-2.1,0-3.6,0.8-3.6,2.1
						s2.1,1.6,4.8,2.1c5.3,0.8,14,2.9,14,11.4c0,6.4-5.7,11.2-15.1,11.2C1138.9,1162.1,1132.8,1160.3,1129.3,1157.3"/>
					<path style="clip-path:url(#SVGID_00000154410052583151372710000008036215905545409188_);fill:#FFFFFF;" d="M1199.5,1128.3
						v16.9c0,9.9-6.5,16.9-16.8,16.9c-11.3,0-16.8-7.6-16.8-16.9v-16.9h11.2v18.1c0,3.1,0.9,5.6,5.6,5.6c4.7,0,5.6-2.5,5.6-5.6
						v-18.1H1199.5z"/>
					<path style="clip-path:url(#SVGID_00000154410052583151372710000008036215905545409188_);fill:#FFFFFF;" d="M1207,1161.3v-33
						h11.2v4.3c2.3-2.8,6.6-5.3,10.1-5.3v10.8c-0.6-0.1-1.3-0.1-2.3-0.1c-3.2,0-7.9,0.9-7.9,6.7v16.6H1207z"/>
					<path style="clip-path:url(#SVGID_00000154410052583151372710000008036215905545409188_);fill:#FFFFFF;" d="M356.7,1229.8
						v-18.4c0-3.9-2.1-5.4-5.5-5.4c-3.1,0-5.8,2.2-5.8,7.1v16.6h-11.2v-33h11.2v4.3c2.2-2.8,6.3-5.2,12-5.2
						c7.2,0,10.5,4.5,10.5,10.2v23.7H356.7z"/>
					<path style="clip-path:url(#SVGID_00000154410052583151372710000008036215905545409188_);fill:#FFFFFF;" d="M373.8,1213.2
						c0-9.6,7.2-17.3,17.6-17.3c9.3,0,16.6,7,16.6,18.7v2.1h-22.7c0.8,2.7,3.4,5.4,7.8,5.4c1.8,0,5.5-0.8,7.5-2.1l4.5,7
						c-3.2,2.5-8.8,3.7-13.4,3.7C381.6,1230.6,373.8,1224.1,373.8,1213.2 M391.4,1204.5c-4.2,0-5.8,3.3-6.2,5.3h12.3
						C397,1207.4,395.8,1204.5,391.4,1204.5"/>
					<path style="clip-path:url(#SVGID_00000154410052583151372710000008036215905545409188_);fill:#FFFFFF;" d="M411.4,1213.2
						c0-9.6,7.2-17.3,17.6-17.3c9.3,0,16.6,7,16.6,18.7v2.1h-22.7c0.8,2.7,3.4,5.4,7.8,5.4c1.8,0,5.5-0.8,7.5-2.1l4.5,7
						c-3.2,2.5-8.8,3.7-13.4,3.7C419.2,1230.6,411.4,1224.1,411.4,1213.2 M429,1204.5c-4.2,0-5.8,3.3-6.2,5.3h12.3
						C434.6,1207.4,433.3,1204.5,429,1204.5"/>
					<path style="clip-path:url(#SVGID_00000154410052583151372710000008036215905545409188_);fill:#FFFFFF;" d="M449,1213.2
						c0-9.2,6-17.3,15.3-17.3c2,0,6.3,0.8,9.2,5.2h0.1v-16.9h11.2v45.6h-11.2v-4.2h-0.1c-2.9,4.5-7.1,5-9.2,5
						C455.3,1230.6,449,1222.5,449,1213.2 M473.5,1213.2c0-4.1-2.3-7.2-6.5-7.2c-4.1,0-6.4,3.1-6.4,7.2c0,4.2,2.3,7.3,6.4,7.3
						C471.2,1220.5,473.5,1217.4,473.5,1213.2"/>
					<path style="clip-path:url(#SVGID_00000154410052583151372710000008036215905545409188_);fill:#FFFFFF;" d="M514.8,1229.8
						v-18.4c0-3.9-2.1-5.4-5.5-5.4c-3.1,0-5.8,2.2-5.8,7.1v16.6h-11.2v-45.6h11.2v16.9c2.2-2.8,6.3-5.2,12-5.2
						c7.2,0,10.5,4.5,10.5,10.2v23.7H514.8z"/>
					<path style="clip-path:url(#SVGID_00000154410052583151372710000008036215905545409188_);fill:#FFFFFF;" d="M531.9,1213.2
						c0-9.6,7.2-17.3,17.6-17.3c9.3,0,16.6,7,16.6,18.7v2.1h-22.7c0.8,2.7,3.4,5.4,7.8,5.4c1.8,0,5.5-0.8,7.5-2.1l4.5,7
						c-3.2,2.5-8.8,3.7-13.4,3.7C539.8,1230.6,531.9,1224.1,531.9,1213.2 M549.5,1204.5c-4.2,0-5.8,3.3-6.2,5.3h12.3
						C555.1,1207.4,553.9,1204.5,549.5,1204.5"/>
					
						<rect x="571.2" y="1184.2" style="clip-path:url(#SVGID_00000154410052583151372710000008036215905545409188_);fill:#FFFFFF;" width="11.2" height="45.6"/>
					<path style="clip-path:url(#SVGID_00000154410052583151372710000008036215905545409188_);fill:#FFFFFF;" d="M601.3,1225.6
						L601.3,1225.6l-0.1,16.8H590v-45.6h11.2v4.3h0.1c2.9-4.5,7.2-5.2,9.2-5.2c9.3,0,15.3,8.1,15.3,17.3c0,9.3-6.3,17.4-15.3,17.4
						C608.4,1230.6,604.1,1230.1,601.3,1225.6 M614.1,1213.2c0-4.1-2.3-7.2-6.4-7.2c-4.2,0-6.5,3.1-6.5,7.2c0,4.2,2.3,7.3,6.5,7.3
						C611.8,1220.5,614.1,1217.4,614.1,1213.2"/>
					<path style="clip-path:url(#SVGID_00000154410052583151372710000008036215905545409188_);fill:#FFFFFF;" d="M630.7,1223.6
						c0-3.8,3.3-7,7.1-7c3.9,0,7.1,3.2,7.1,7s-3.2,7-7.1,7C634,1230.6,630.7,1227.5,630.7,1223.6"/>
					<path style="clip-path:url(#SVGID_00000154410052583151372710000008036215905545409188_);fill:#FFFFFF;" d="M649.7,1213.2
						c0-10.5,7.9-17.3,18-17.3c7,0,11.3,3.1,13.3,5.8l-7.1,7c-1.2-1.5-3.1-2.6-5.7-2.6c-3.8,0-7.1,2.5-7.1,7.2
						c0,4.7,3.3,7.3,7.1,7.3c2.5,0,4.6-1.3,5.8-2.7c2.5,2.5,4.5,4.7,7,7.1c-2,2.6-6.4,5.7-13.3,5.7
						C657.5,1230.6,649.7,1223.8,649.7,1213.2"/>
					<path style="clip-path:url(#SVGID_00000154410052583151372710000008036215905545409188_);fill:#FFFFFF;" d="M684.4,1213.2
						c0-9.2,6.6-17.3,18.1-17.3c11.4,0,18.1,8.1,18.1,17.3c0,9.3-6.7,17.4-18.1,17.4C691,1230.6,684.4,1222.5,684.4,1213.2
						 M709,1213.2c0-4.1-2.3-7.2-6.5-7.2c-4.1,0-6.4,3.1-6.4,7.2c0,4.2,2.3,7.3,6.4,7.3C706.6,1220.5,709,1217.4,709,1213.2"/>
					<path style="clip-path:url(#SVGID_00000154410052583151372710000008036215905545409188_);fill:#FFFFFF;" d="M749,1229.8v-18.4
						c0-3.9-2.1-5.4-5.5-5.4c-3.1,0-5.8,2.2-5.8,7.1v16.6h-11.2v-33h11.2v4.3c2.2-2.8,6.3-5.2,12-5.2c5.3,0,8.5,2.5,9.8,6
						c2.3-2.9,6-6,12.7-6c7.2,0,10.5,4.5,10.5,10.2v23.7h-11.2v-18.4c0-3.9-2.1-5.4-5.5-5.4c-6.1,0-5.8,7.1-5.8,7.1v16.6H749z"/>
					<path style="clip-path:url(#SVGID_00000154410052583151372710000008036215905545409188_);fill:#FFFFFF;" d="M793,1228.9
						c-0.5,1.8-2.3,2.7-4.1,2.1c-1.7-0.5-2.7-2.4-2.1-4.2l13.7-42.1c0.5-1.8,2.5-2.9,4.2-2.2c1.7,0.6,2.7,2.4,2.1,4.2L793,1228.9z"
						/>
					<path style="clip-path:url(#SVGID_00000154410052583151372710000008036215905545409188_);fill:#FFFFFF;" d="M809.1,1213.2
						c0-10.5,7.9-17.3,18-17.3c7,0,11.3,3.1,13.3,5.8l-7.1,7c-1.2-1.5-3.1-2.6-5.7-2.6c-3.8,0-7.1,2.5-7.1,7.2
						c0,4.7,3.3,7.3,7.1,7.3c2.5,0,4.6-1.3,5.8-2.7c2.5,2.5,4.5,4.7,7,7.1c-2,2.6-6.4,5.7-13.3,5.7
						C817,1230.6,809.1,1223.8,809.1,1213.2"/>
					<path style="clip-path:url(#SVGID_00000154410052583151372710000008036215905545409188_);fill:#FFFFFF;" d="M843.9,1213.2
						c0-9.2,6-17.3,15.3-17.3c2,0,6.3,0.8,9.2,5.2h0.1v-4.3h11.2v33h-11.2v-4.2h-0.1c-2.9,4.5-7.1,5-9.2,5
						C850.2,1230.6,843.9,1222.5,843.9,1213.2 M868.4,1213.2c0-4.1-2.3-7.2-6.5-7.2c-4.1,0-6.4,3.1-6.4,7.2c0,4.2,2.3,7.3,6.4,7.3
						C866.1,1220.5,868.4,1217.4,868.4,1213.2"/>
					<path style="clip-path:url(#SVGID_00000154410052583151372710000008036215905545409188_);fill:#FFFFFF;" d="M885.5,1225.8
						c1.5-2.6,2.9-4.9,4.5-7.5c2.8,2.1,8.2,4,11.6,4c3,0,3.9-0.8,3.9-2c0-1.6-2.2-1.9-5.1-2.3c-5.3-0.8-13.8-2.7-13.8-11.1
						c0-5.8,5.1-11,14.2-11c5.1,0,9.9,1.6,13.6,4c-1.4,2.6-2.6,4.6-4,7.1c-2.2-1.6-5.9-3.1-9.5-3.1c-2.1,0-3.6,0.8-3.6,2.1
						c0,1.3,2.1,1.6,4.8,2.1c5.3,0.8,14,2.9,14,11.4c0,6.4-5.7,11.2-15.1,11.2C895.1,1230.6,889,1228.8,885.5,1225.8"/>
					<path style="clip-path:url(#SVGID_00000154410052583151372710000008036215905545409188_);fill:#FFFFFF;" d="M936.1,1206.6v8.4
						c0,3.1,0.9,5.6,5.6,5.6v10c-11.3,0-16.8-7.5-16.8-16.8v-7.1h-5.5v-9.9h5.5v-9.4h11.2v9.4h6.6v9.9H936.1z"/>
					<path style="clip-path:url(#SVGID_00000154410052583151372710000008036215905545409188_);fill:#FFFFFF;" d="M946,1213.2
						c0-9.2,6.6-17.3,18.1-17.3c11.4,0,18.1,8.1,18.1,17.3c0,9.3-6.7,17.4-18.1,17.4C952.7,1230.6,946,1222.5,946,1213.2
						 M970.6,1213.2c0-4.1-2.3-7.2-6.5-7.2c-4.1,0-6.4,3.1-6.4,7.2c0,4.2,2.3,7.3,6.4,7.3C968.3,1220.5,970.6,1217.4,970.6,1213.2"
						/>
					<path style="clip-path:url(#SVGID_00000154410052583151372710000008036215905545409188_);fill:#FFFFFF;" d="M988.1,1229.8v-33
						h11.2v4.3c2.3-2.8,6.6-5.3,10.1-5.3v10.8c-0.6-0.1-1.3-0.1-2.3-0.1c-3.2,0-7.9,0.9-7.9,6.7v16.6H988.1z"/>
					<path style="clip-path:url(#SVGID_00000154410052583151372710000008036215905545409188_);fill:#FFFFFF;" d="M1012.7,1213.2
						c0-9.2,6-17.3,15.3-17.3c2,0,6.3,0.8,9.2,5.2h0.1v-4.3h11.2v33h-11.2v-4.2h-0.1c-2.9,4.5-7.1,5-9.2,5
						C1019,1230.6,1012.7,1222.5,1012.7,1213.2 M1037.3,1213.2c0-4.1-2.3-7.2-6.5-7.2c-4.1,0-6.4,3.1-6.4,7.2c0,4.2,2.3,7.3,6.4,7.3
						C1035,1220.5,1037.3,1217.4,1037.3,1213.2"/>
					<path style="clip-path:url(#SVGID_00000154410052583151372710000008036215905545409188_);fill:#FFFFFF;" d="M1078.6,1229.8
						v-18.4c0-3.9-2.1-5.4-5.5-5.4c-3.1,0-5.8,2.2-5.8,7.1v16.6h-11.2v-33h11.2v4.3c2.2-2.8,6.3-5.2,12-5.2c5.3,0,8.5,2.5,9.8,6
						c2.3-2.9,6-6,12.7-6c7.2,0,10.5,4.5,10.5,10.2v23.7h-11.2v-18.4c0-3.9-2.1-5.4-5.5-5.4c-6.1,0-5.8,7.1-5.8,7.1v16.6H1078.6z"/>
					<path style="clip-path:url(#SVGID_00000154410052583151372710000008036215905545409188_);fill:#FFFFFF;" d="M1118.2,1213.2
						c0-9.2,6-17.3,15.3-17.3c2,0,6.3,0.8,9.2,5.2h0.1v-4.3h11.2v33h-11.2v-4.2h-0.1c-2.9,4.5-7.1,5-9.2,5
						C1124.5,1230.6,1118.2,1222.5,1118.2,1213.2 M1142.8,1213.2c0-4.1-2.3-7.2-6.5-7.2c-4.1,0-6.4,3.1-6.4,7.2
						c0,4.2,2.3,7.3,6.4,7.3C1140.4,1220.5,1142.8,1217.4,1142.8,1213.2"/>
					<path style="clip-path:url(#SVGID_00000154410052583151372710000008036215905545409188_);fill:#FFFFFF;" d="M294,693.5
						c0-7.7,6.3-13.7,14.2-13.7c7.5,0,13.9,6,13.9,13.7c0,7.5-6.3,13.7-13.9,13.7C300.4,707.2,294,701,294,693.5 M294,721.7h28.1
						v82.5H294V721.7z"/>
					<path style="clip-path:url(#SVGID_00000154410052583151372710000008036215905545409188_);fill:#FFFFFF;" d="M397.3,804.2v-45.9
						c0-9.8-5.3-13.5-13.7-13.5c-7.7,0-14.6,5.5-14.6,17.8v41.6h-28.1v-82.5H369v10.8c5.5-7,15.7-13,30-13c18,0,26.4,11.3,26.4,25.5
						v59.2H397.3z"/>
					<path style="clip-path:url(#SVGID_00000154410052583151372710000008036215905545409188_);fill:#FFFFFF;" d="M439.9,794.3
						c3.8-6.5,7.4-12.3,11.1-18.8c7,5.1,20.4,9.9,29.1,9.9c7.5,0,9.8-2.1,9.8-5c0-4.1-5.5-4.8-12.7-5.8
						c-13.4-2.1-34.4-6.7-34.4-27.7c0-14.6,12.7-27.4,35.6-27.4c12.8,0,24.8,3.9,33.9,10.1c-3.4,6.5-6.5,11.5-9.9,17.8
						c-5.5-3.9-14.7-7.9-23.8-7.9c-5.3,0-9.1,1.9-9.1,5.1c0,3.3,5.1,4.1,12,5.1c13.2,2.1,34.9,7.2,34.9,28.6
						c0,16.1-14.2,27.9-37.8,27.9C463.9,806.3,448.6,801.7,439.9,794.3"/>
					<path style="clip-path:url(#SVGID_00000154410052583151372710000008036215905545409188_);fill:#FFFFFF;" d="M566.4,746.4v20.9
						c0,7.7,2.2,14,14,14v25c-28.2,0-42.1-18.8-42.1-42.1v-17.8h-13.7v-24.7h13.7v-23.5h28.1v23.5H583v24.7H566.4z"/>
					<path style="clip-path:url(#SVGID_00000154410052583151372710000008036215905545409188_);fill:#FFFFFF;" d="M591.2,762.8
						c0-23.1,15.1-43.3,38.3-43.3c5,0,15.7,1.9,22.9,13h0.2v-10.8h28.1v82.5h-28.1v-10.4h-0.2c-7.2,11.1-17.8,12.5-22.9,12.5
						C607,806.3,591.2,786.1,591.2,762.8 M652.7,762.8c0-10.3-5.8-18-16.3-18c-10.3,0-16.1,7.7-16.1,18c0,10.4,5.8,18.3,16.1,18.3
						C646.9,781.1,652.7,773.3,652.7,762.8"/>
					
						<rect x="699.6" y="690.2" style="clip-path:url(#SVGID_00000154410052583151372710000008036215905545409188_);fill:#FFFFFF;" width="28.1" height="114"/>
					
						<rect x="746.5" y="690.2" style="clip-path:url(#SVGID_00000154410052583151372710000008036215905545409188_);fill:#FFFFFF;" width="28.1" height="114"/>
					<path style="clip-path:url(#SVGID_00000154410052583151372710000008036215905545409188_);fill:#FFFFFF;" d="M789.1,762.8
						c0-23.1,15.1-43.3,38.3-43.3c5,0,15.8,1.9,22.9,13h0.2v-10.8h28.1v82.5h-28.1v-10.4h-0.2c-7.2,11.1-17.8,12.5-22.9,12.5
						C804.9,806.3,789.1,786.1,789.1,762.8 M850.6,762.8c0-10.3-5.8-18-16.3-18c-10.3,0-16.1,7.7-16.1,18c0,10.4,5.8,18.3,16.1,18.3
						C844.8,781.1,850.6,773.3,850.6,762.8"/>
					<path style="clip-path:url(#SVGID_00000154410052583151372710000008036215905545409188_);fill:#FFFFFF;" d="M932.9,746.4v20.9
						c0,7.7,2.2,14,14,14v25c-28.2,0-42.1-18.8-42.1-42.1v-17.8h-13.7v-24.7h13.7v-23.5h28.1v23.5h16.6v24.7H932.9z"/>
					<path style="clip-path:url(#SVGID_00000154410052583151372710000008036215905545409188_);fill:#FFFFFF;" d="M962,693.5
						c0-7.7,6.3-13.7,14.2-13.7c7.5,0,13.9,6,13.9,13.7c0,7.5-6.3,13.7-13.9,13.7C968.4,707.2,962,701,962,693.5 M962,721.7h28.1
						v82.5H962V721.7z"/>
					<path style="clip-path:url(#SVGID_00000154410052583151372710000008036215905545409188_);fill:#FFFFFF;" d="M1004.6,762.8
						c0-23.1,16.6-43.3,45.2-43.3c28.6,0,45.4,20.2,45.4,43.3c0,23.3-16.8,43.5-45.4,43.5C1021.3,806.3,1004.6,786.1,1004.6,762.8
						 M1066.1,762.8c0-10.3-5.8-18-16.3-18c-10.3,0-16.1,7.7-16.1,18c0,10.4,5.8,18.3,16.1,18.3
						C1060.3,781.1,1066.1,773.3,1066.1,762.8"/>
					<path style="clip-path:url(#SVGID_00000154410052583151372710000008036215905545409188_);fill:#FFFFFF;" d="M1166.1,804.2
						v-45.9c0-9.8-5.3-13.5-13.7-13.5c-7.7,0-14.6,5.5-14.6,17.8v41.6h-28.1v-82.5h28.1v10.8c5.5-7,15.7-13,30-13
						c18,0,26.4,11.3,26.4,25.5v59.2H1166.1z"/>
					<path style="clip-path:url(#SVGID_00000154410052583151372710000008036215905545409188_);fill:#FFFFFF;" d="M333.3,897.5
						c0-23.1,15.1-43.3,38.3-43.3c5,0,15.8,1.9,22.9,13h0.2v-10.8h28.1v82.5h-28.1v-10.4h-0.2c-7.2,11.1-17.8,12.5-22.9,12.5
						C349.1,941,333.3,920.8,333.3,897.5 M381.1,832.8c1.9,1.9,2.7,4.3,2.7,6.7c0,2.4-0.9,5-2.7,6.8c-2.1,1.9-4.3,2.9-6.8,2.9
						c-2.2,0-5-1.4-6.8-2.9l-10.8-11c-2.1-1.7-2.9-4.1-2.9-6.7c0-2.4,0.9-5,2.9-7c1.7-1.7,4.5-2.7,6.7-2.7c2.6,0,5,1,6.8,2.9
						L381.1,832.8z M394.8,897.5c0-10.3-5.8-18-16.3-18c-10.3,0-16.1,7.7-16.1,18c0,10.4,5.8,18.3,16.1,18.3
						C389,915.8,394.8,907.9,394.8,897.5"/>
					<path style="clip-path:url(#SVGID_00000154410052583151372710000008036215905545409188_);fill:#FFFFFF;" d="M477.6,897.5
						c0-23.1,15.1-43.3,38.3-43.3c5,0,15.7,1.9,22.9,13h0.2v-42.3h28.1v114h-28.1v-10.4h-0.2c-7.2,11.1-17.8,12.5-22.9,12.5
						C493.4,941,477.6,920.8,477.6,897.5 M539.1,897.5c0-10.3-5.8-18-16.3-18c-10.3,0-16.1,7.7-16.1,18c0,10.4,5.8,18.3,16.1,18.3
						C533.3,915.8,539.1,907.9,539.1,897.5"/>
					<path style="clip-path:url(#SVGID_00000154410052583151372710000008036215905545409188_);fill:#FFFFFF;" d="M581.7,897.5
						c0-23.1,16.6-43.3,45.2-43.3s45.4,20.2,45.4,43.3c0,23.3-16.8,43.5-45.4,43.5S581.7,920.8,581.7,897.5 M643.2,897.5
						c0-10.3-5.8-18-16.3-18c-10.3,0-16.1,7.7-16.1,18c0,10.4,5.8,18.3,16.1,18.3C637.4,915.8,643.2,907.9,643.2,897.5"/>
					<path style="clip-path:url(#SVGID_00000154410052583151372710000008036215905545409188_);fill:#FFFFFF;" d="M743.2,938.9V893
						c0-9.8-5.3-13.5-13.7-13.5c-7.7,0-14.6,5.5-14.6,17.8v41.6h-28.1v-82.5h28.1v10.8c5.5-7,15.7-13,30-13
						c13.2,0,21.2,6.2,24.5,15.1c5.7-7.4,14.9-15.1,31.8-15.1c18,0,26.4,11.3,26.4,25.5v59.2h-28.1V893c0-9.8-5.3-13.5-13.7-13.5
						c-15.2,0-14.6,17.8-14.6,17.8v41.6H743.2z"/>
					<path style="clip-path:url(#SVGID_00000154410052583151372710000008036215905545409188_);fill:#FFFFFF;" d="M846.4,828.2
						c0-7.7,6.3-13.7,14.2-13.7c7.5,0,13.9,6,13.9,13.7c0,7.5-6.3,13.7-13.9,13.7C852.7,841.9,846.4,835.7,846.4,828.2 M846.4,856.4
						h28.1v82.5h-28.1V856.4z"/>
					<path style="clip-path:url(#SVGID_00000154410052583151372710000008036215905545409188_);fill:#FFFFFF;" d="M889,897.5
						c0-26.2,19.7-43.3,45-43.3c17.5,0,28.2,7.7,33.2,14.4L949.6,886c-2.9-3.8-7.7-6.5-14.2-6.5c-9.4,0-17.6,6.2-17.6,18
						c0,11.8,8.2,18.3,17.6,18.3c6.3,0,11.5-3.3,14.4-6.7c6.3,6.3,11.3,11.6,17.5,17.6c-5,6.5-15.9,14.2-33.2,14.2
						C908.7,941,889,923.9,889,897.5"/>
					<path style="clip-path:url(#SVGID_00000154410052583151372710000008036215905545409188_);fill:#FFFFFF;" d="M980.1,828.2
						c0-7.7,6.3-13.7,14.2-13.7c7.5,0,13.9,6,13.9,13.7c0,7.5-6.3,13.7-13.9,13.7C986.4,841.9,980.1,835.7,980.1,828.2 M980.1,856.4
						h28.1v82.5h-28.1V856.4z"/>
					
						<rect x="1027" y="824.9" style="clip-path:url(#SVGID_00000154410052583151372710000008036215905545409188_);fill:#FFFFFF;" width="28.1" height="114"/>
					<path style="clip-path:url(#SVGID_00000154410052583151372710000008036215905545409188_);fill:#FFFFFF;" d="M1069.6,897.5
						c0-24,18-43.3,44-43.3c23.3,0,41.4,17.5,41.4,46.7v5.1h-56.7c1.9,6.8,8.6,13.5,19.5,13.5c4.4,0,13.9-2.1,18.8-5.3l11.3,17.5
						c-8,6.3-21.9,9.2-33.6,9.2C1089.3,941,1069.6,924.7,1069.6,897.5 M1113.6,875.6c-10.4,0-14.4,8.2-15.4,13.2h30.6
						C1127.6,882.9,1124.6,875.6,1113.6,875.6"/>
					<path style="clip-path:url(#SVGID_00000154410052583151372710000008036215905545409188_);fill:#FFFFFF;" d="M872.5,573.3V565
						c0-46.7-30.4-86.5-70.3-100.6l-18.7,15.4c-0.3,0.2-0.7,0.4-1,0.4c-0.2,0-0.3,0-0.5-0.1c-0.5-0.2-0.9-0.6-1.1-1.1l-6.1-20.1
						l-0.2,0l-9,35.8v-0.2l0,0.1l0-0.1v0.2l-9-35.8l0,0l-6.1,20.1c-0.2,0.5-0.6,0.9-1.1,1.1c-0.2,0-0.3,0.1-0.5,0.1
						c-0.4,0-0.7-0.1-1-0.4l-18.7-15.4c-16.1,5.7-30.6,15.5-42.2,28.3c0.2,0.8,0.4,1.5,0.8,2.1l0,0c5.5,7.1,8.5,15.6,8.6,24.6
						l0.6,47.3c0.1,6.3-1.3,12.5-3.9,18h168.3c0,0,5,0,8.1-3.1C872.9,578,872.5,573.3,872.5,573.3 M809.5,522.7h-12.7
						c-4.2,0-7.6-3.4-7.6-7.6c0-4.2,3.4-7.6,7.6-7.6h12.7c4.2,0,7.6,3.4,7.6,7.6C817.2,519.3,813.7,522.7,809.5,522.7"/>
					<path style="clip-path:url(#SVGID_00000154410052583151372710000008036215905545409188_);fill:#FFFFFF;" d="M766.5,313.4
						c-34.4,0-62.3,27.9-62.3,62.3c0,34.4,27.9,62.3,62.3,62.3c34.4,0,62.3-27.9,62.3-62.3C828.8,341.3,800.9,313.4,766.5,313.4
						 M767,423.4c-27.7,0-39-26.9-39-26.9h76C803.9,396.5,794.7,423.4,767,423.4"/>
					<path style="clip-path:url(#SVGID_00000154410052583151372710000008036215905545409188_);fill:#FFFFFF;" d="M655.6,363.2
						l-18.1,0.2c-0.7,0-1.3,0.5-1.4,1.2l-7.6,35c-0.1,0.5,0.1,1,0.4,1.4l7.8,7.4l0.5,41.4c0,1,0.4,2,1.2,2.7
						c0.7,0.7,1.7,1.1,2.7,1.1l13.6-0.2c1,0,2-0.4,2.7-1.2c0.7-0.7,1.1-1.7,1.1-2.7l-0.5-43.2l6.2-6.3l0,0c0.4-0.4,0.5-0.9,0.4-1.4
						l-7.5-34.4C656.9,363.6,656.3,363.2,655.6,363.2"/>
					<path style="clip-path:url(#SVGID_00000154410052583151372710000008036215905545409188_);fill:#FFFFFF;" d="M679.8,519.4
						c-0.1-7.1-2.5-13.6-6.6-18.9l0,0c-1.8-2.5-2.9-5.7-2.9-9.3c-0.1-5.9,2.8-11.1,7-13.4l0.5-0.2l0,0l0,0c0,0,0,0,0,0
						c0.1-0.1,0.3-0.2,0.4-0.2c0,0,0.1-0.1,0.1-0.1c0.1-0.1,0.2-0.2,0.3-0.4c0,0,0,0,0,0c0.1-0.1,0.2-0.3,0.2-0.4c0,0,0-0.1,0-0.1
						c0-0.2,0.1-0.4,0.1-0.5l-0.2-12.6c0-1.2-1-2.1-2.1-2.1l-59,0.7c-1.2,0-2.1,1-2.1,2.1l0.2,12.6c0,0.2,0,0.4,0.1,0.5
						c0,0,0,0.1,0,0.1c0.1,0.2,0.1,0.3,0.2,0.4c0,0,0,0,0,0c0.1,0.1,0.2,0.3,0.3,0.4c0,0,0.1,0.1,0.1,0.1c0.1,0.1,0.3,0.2,0.4,0.2
						c0,0,0,0,0,0l0,0c0,0,0,0,0,0l0.5,0.2c4.2,2.2,7.2,7.3,7.3,13.2c0,3.7-0.8,6.9-2.6,9.5c-3.9,5.3-6.2,11.9-6.1,18.9l0.6,50
						c0.2,17.4,14.6,31.4,32,31.2l0.4,0c17.4-0.2,31.4-14.6,31.2-32L679.8,519.4z M642.1,575.9c-1.2,1.2-2.9,2-4.7,2
						c-3.7,0-6.7-2.9-6.8-6.6l-0.6-52c0-3.7,2.9-6.7,6.6-6.8c3.7,0,6.7,2.9,6.8,6.6l0.6,52C644,573,643.3,574.6,642.1,575.9
						 M665.1,575.6c-1.2,1.2-2.9,2-4.7,2c-3.7,0-6.7-2.9-6.8-6.6l-0.6-52c0-3.7,2.9-6.7,6.6-6.8c3.7,0,6.7,2.9,6.8,6.6l0.6,52
						C667,572.7,666.3,574.4,665.1,575.6"/>
					<polygon style="clip-path:url(#SVGID_00000154410052583151372710000008036215905545409188_);fill:#FFFFFF;" points="
						778.3,459.3 783.3,475.7 799.5,462.3 796.4,453.2 					"/>
					<polygon style="clip-path:url(#SVGID_00000154410052583151372710000008036215905545409188_);fill:#FFFFFF;" points="748,475.7 
						753,459.3 734.8,453.2 731.7,462.3 					"/>
				</g>
			</g>
		</g>
	</g>
	<g style="clip-path:url(#SVGID_00000133514363728226418560000001122804923488922266_);">
		<defs>
			<rect id="SVGID_00000013164499219693959210000009461890151169705883_" x="1488.2" y="-14.2" width="1502.4" height="1516.5"/>
		</defs>
		<clipPath id="SVGID_00000057114564186755899550000008986468034424701863_">
			<use xlink:href="#SVGID_00000013164499219693959210000009461890151169705883_"  style="overflow:visible;"/>
		</clipPath>
		<g style="clip-path:url(#SVGID_00000057114564186755899550000008986468034424701863_);">
			<g>
				<defs>
					<rect id="SVGID_00000042703363831009834240000018088160485190298510_" x="1474" y="-14.2" width="1516.5" height="1516.5"/>
				</defs>
				<clipPath id="SVGID_00000137838819259604389420000013707998225233967243_">
					<use xlink:href="#SVGID_00000042703363831009834240000018088160485190298510_"  style="overflow:visible;"/>
				</clipPath>
				
					<rect x="1474" y="-14.2" style="clip-path:url(#SVGID_00000137838819259604389420000013707998225233967243_);fill:#FFD100;" width="1516.5" height="1516.5"/>
				
					<rect x="1914.6" y="689.7" style="clip-path:url(#SVGID_00000137838819259604389420000013707998225233967243_);fill:#005CB9;" width="28.1" height="114"/>
				<g style="clip-path:url(#SVGID_00000137838819259604389420000013707998225233967243_);">
					<defs>
						<rect id="SVGID_00000038375099695061573570000001280173250474483635_" x="1474" y="-14.2" width="1516.5" height="1516.5"/>
					</defs>
					<clipPath id="SVGID_00000070086002208432818510000008430494283392768180_">
						<use xlink:href="#SVGID_00000038375099695061573570000001280173250474483635_"  style="overflow:visible;"/>
					</clipPath>
					<path style="clip-path:url(#SVGID_00000070086002208432818510000008430494283392768180_);fill:#005CB9;" d="M1957.3,762.2
						c0-23.1,16.6-43.3,45.2-43.3s45.4,20.2,45.4,43.3c0,23.3-16.8,43.5-45.4,43.5S1957.3,785.5,1957.3,762.2 M2018.7,762.2
						c0-10.3-5.8-18-16.3-18c-10.3,0-16.1,7.7-16.1,18c0,10.4,5.8,18.3,16.1,18.3C2012.9,780.6,2018.7,772.7,2018.7,762.2"/>
					<path style="clip-path:url(#SVGID_00000070086002208432818510000008430494283392768180_);fill:#005CB9;" d="M2058.1,762.2
						c0-26.2,19.7-43.3,45-43.3c17.5,0,28.2,7.7,33.2,14.4l-17.6,17.5c-2.9-3.8-7.7-6.5-14.2-6.5c-9.4,0-17.6,6.2-17.6,18
						c0,11.8,8.2,18.3,17.6,18.3c6.3,0,11.5-3.3,14.4-6.7c6.3,6.3,11.3,11.6,17.5,17.6c-5,6.5-15.9,14.2-33.2,14.2
						C2077.8,805.7,2058.1,788.6,2058.1,762.2"/>
					<path style="clip-path:url(#SVGID_00000070086002208432818510000008430494283392768180_);fill:#005CB9;" d="M2144.9,762.2
						c0-23.1,15.1-43.3,38.3-43.3c5,0,15.7,1.9,22.9,13h0.2v-10.8h28.1v82.5h-28.1v-10.4h-0.2c-7.2,11.1-17.8,12.5-22.9,12.5
						C2160.6,805.7,2144.9,785.5,2144.9,762.2 M2206.3,762.2c0-10.3-5.8-18-16.3-18c-10.3,0-16.1,7.7-16.1,18
						c0,10.4,5.8,18.3,16.1,18.3C2200.5,780.6,2206.3,772.7,2206.3,762.2"/>
					<path style="clip-path:url(#SVGID_00000070086002208432818510000008430494283392768180_);fill:#005CB9;" d="M2288.7,745.8v20.9
						c0,7.7,2.2,14,14,14v25c-28.2,0-42.1-18.8-42.1-42.1v-17.8h-13.7v-24.7h13.7v-23.5h28.1v23.5h16.6v24.7H2288.7z"/>
					<path style="clip-path:url(#SVGID_00000070086002208432818510000008430494283392768180_);fill:#005CB9;" d="M2317.8,692.9
						c0-7.7,6.3-13.7,14.2-13.7c7.5,0,13.9,6,13.9,13.7c0,7.5-6.3,13.7-13.9,13.7C2324.1,706.6,2317.8,700.5,2317.8,692.9
						 M2317.8,721.2h28.1v82.5h-28.1V721.2z"/>
					<path style="clip-path:url(#SVGID_00000070086002208432818510000008430494283392768180_);fill:#005CB9;" d="M2360.4,762.2
						c0-23.1,16.6-43.3,45.2-43.3c28.6,0,45.4,20.2,45.4,43.3c0,23.3-16.8,43.5-45.4,43.5C2377,805.7,2360.4,785.5,2360.4,762.2
						 M2421.9,762.2c0-10.3-5.8-18-16.3-18c-10.3,0-16.1,7.7-16.1,18c0,10.4,5.8,18.3,16.1,18.3
						C2416.1,780.6,2421.9,772.7,2421.9,762.2"/>
					<path style="clip-path:url(#SVGID_00000070086002208432818510000008430494283392768180_);fill:#005CB9;" d="M2521.8,803.7
						v-45.9c0-9.8-5.3-13.5-13.7-13.5c-7.7,0-14.6,5.5-14.6,17.8v41.6h-28.1v-82.5h28.1v10.8c5.5-7,15.7-13,30-13
						c18,0,26.4,11.3,26.4,25.5v59.2H2521.8z"/>
					<path style="clip-path:url(#SVGID_00000070086002208432818510000008430494283392768180_);fill:#005CB9;" d="M1781.3,893.5
						c0-23.1,15.1-43.3,38.3-43.3c5,0,15.7,1.9,22.9,13h0.2v-42.3h28.1v114h-28.1v-10.4h-0.2c-7.2,11.1-17.8,12.5-22.9,12.5
						C1797,937,1781.3,916.8,1781.3,893.5 M1842.7,893.5c0-10.3-5.8-18-16.3-18c-10.3,0-16.1,7.7-16.1,18c0,10.4,5.8,18.3,16.1,18.3
						C1836.9,911.8,1842.7,903.9,1842.7,893.5"/>
					<path style="clip-path:url(#SVGID_00000070086002208432818510000008430494283392768180_);fill:#005CB9;" d="M1885.4,893.5
						c0-24,18-43.3,44-43.3c23.3,0,41.4,17.5,41.4,46.7v5.1h-56.7c1.9,6.8,8.6,13.5,19.5,13.5c4.5,0,13.9-2.1,18.8-5.3l11.3,17.5
						c-8,6.3-21.9,9.2-33.6,9.2C1905,937,1885.4,920.7,1885.4,893.5 M1929.4,871.6c-10.4,0-14.4,8.2-15.4,13.2h30.6
						C1943.4,878.9,1940.3,871.6,1929.4,871.6"/>
					<path style="clip-path:url(#SVGID_00000070086002208432818510000008430494283392768180_);fill:#005CB9;" d="M2082.2,934.9V889
						c0-9.8-5.3-13.5-13.7-13.5c-7.7,0-14.6,5.5-14.6,17.8v41.6h-28.1v-82.5h28.1v10.8c5.5-7,15.7-13,30-13
						c13.2,0,21.2,6.2,24.5,15.1c5.6-7.4,14.9-15.1,31.8-15.1c18,0,26.4,11.3,26.4,25.5v59.2h-28.1V889c0-9.8-5.3-13.5-13.7-13.5
						c-15.2,0-14.6,17.8-14.6,17.8v41.6H2082.2z"/>
					<path style="clip-path:url(#SVGID_00000070086002208432818510000008430494283392768180_);fill:#005CB9;" d="M2181.2,893.5
						c0-23.1,15.1-43.3,38.3-43.3c5,0,15.8,1.9,22.9,13h0.2v-10.8h28.1v82.5h-28.1v-10.4h-0.2c-7.2,11.1-17.8,12.5-22.9,12.5
						C2196.9,937,2181.2,916.8,2181.2,893.5 M2242.6,893.5c0-10.3-5.8-18-16.3-18c-10.3,0-16.1,7.7-16.1,18
						c0,10.4,5.8,18.3,16.1,18.3C2236.8,911.8,2242.6,903.9,2242.6,893.5"/>
					<path style="clip-path:url(#SVGID_00000070086002208432818510000008430494283392768180_);fill:#005CB9;" d="M2325,877.1V898
						c0,7.7,2.2,14,14,14v25c-28.2,0-42.1-18.8-42.1-42.1v-17.8h-13.7v-24.7h13.7V829h28.1v23.5h16.6v24.7H2325z"/>
					<path style="clip-path:url(#SVGID_00000070086002208432818510000008430494283392768180_);fill:#005CB9;" d="M2348.1,893.5
						c0-24,18-43.3,44-43.3c23.3,0,41.4,17.5,41.4,46.7v5.1h-56.7c1.9,6.8,8.6,13.5,19.5,13.5c4.4,0,13.9-2.1,18.8-5.3l11.3,17.5
						c-8,6.3-21.9,9.2-33.6,9.2C2367.8,937,2348.1,920.7,2348.1,893.5 M2392.1,871.6c-10.4,0-14.4,8.2-15.4,13.2h30.6
						C2406.1,878.9,2403,871.6,2392.1,871.6 M2392.4,817.8c2.1-1.9,4.3-2.9,7-2.9c2.2,0,4.8,1,6.7,2.7c1.9,2.1,2.7,4.5,2.7,7
						c0,2.6-0.9,5-2.7,6.7l-11,11c-1.5,1.7-4.3,2.9-6.7,2.9c-2.6,0-5-1-6.8-2.9c-2.1-1.9-2.9-4.3-2.9-6.8c0-2.2,0.9-4.8,2.9-6.7
						L2392.4,817.8z"/>
					<path style="clip-path:url(#SVGID_00000070086002208432818510000008430494283392768180_);fill:#005CB9;" d="M2444.1,934.9
						v-82.5h28.1v10.8c5.7-7,16.6-13.4,25.3-13.4v27c-1.5-0.3-3.3-0.3-5.6-0.3c-8,0-19.7,2.2-19.7,16.8v41.6H2444.1z"/>
					<path style="clip-path:url(#SVGID_00000070086002208432818510000008430494283392768180_);fill:#005CB9;" d="M2510,824.2
						c0-7.7,6.3-13.7,14.2-13.7c7.5,0,13.9,6,13.9,13.7c0,7.5-6.3,13.7-13.9,13.7C2516.4,837.9,2510,831.7,2510,824.2 M2510,852.4
						h28.1v82.5H2510V852.4z"/>
					<path style="clip-path:url(#SVGID_00000070086002208432818510000008430494283392768180_);fill:#005CB9;" d="M2552.7,893.5
						c0-24,18-43.3,44-43.3c23.3,0,41.4,17.5,41.4,46.7v5.1h-56.7c1.9,6.8,8.6,13.5,19.5,13.5c4.4,0,13.9-2.1,18.8-5.3l11.3,17.5
						c-8,6.3-21.9,9.2-33.6,9.2C2572.4,937,2552.7,920.7,2552.7,893.5 M2596.7,871.6c-10.4,0-14.4,8.2-15.4,13.2h30.6
						C2610.7,878.9,2607.6,871.6,2596.7,871.6"/>
					
						<rect x="2650.9" y="820.9" style="clip-path:url(#SVGID_00000070086002208432818510000008430494283392768180_);fill:#005CB9;" width="28.1" height="114"/>
					<path style="clip-path:url(#SVGID_00000070086002208432818510000008430494283392768180_);fill:#005CB9;" d="M1953.7,1080.5
						c0,7.3-5,12.3-13.5,12.3H1919v-45.7h18.9c8.1,0,13.1,4.8,13.1,11.6c0,5.4-3.5,9.2-7.5,10.3
						C1949.6,1069.6,1953.7,1075.1,1953.7,1080.5 M1924.8,1067h12.1c5.3,0,8-3.2,8-7.3c0-4.1-2.7-7.4-8-7.4h-12.1V1067z
						 M1939.1,1087.8c5.3,0,8.6-3,8.6-7.9c0-4.2-2.9-7.9-8.6-7.9h-14.3v15.8H1939.1z"/>
					<path style="clip-path:url(#SVGID_00000070086002208432818510000008430494283392768180_);fill:#005CB9;" d="M1960.7,1076.3
						c0-9.6,7-17.3,16.6-17.3c10.2,0,16.2,7.8,16.2,17.7v1.3h-27.3c0.4,6.2,4.8,11.1,12.1,11.1c3.9,0,7.5-1.5,10.2-4.2l2.8,3.7
						c-3.4,3.3-7.9,5.1-13.4,5.1C1967.9,1093.7,1960.7,1086.6,1960.7,1076.3 M1988.4,1074.1c-0.1-4.9-3.4-10.6-11.1-10.6
						c-7.2,0-10.8,5.6-11,10.6H1988.4z"/>
					<path style="clip-path:url(#SVGID_00000070086002208432818510000008430494283392768180_);fill:#005CB9;" d="M1999.2,1088.5
						l2.6-3.7c2.3,2.5,6.5,4.7,11.2,4.7c5.1,0,8-2.4,8-5.7c0-8-20.9-3.1-20.9-15.3c0-5.2,4.5-9.5,12.5-9.5c5.8,0,9.8,2.1,12.5,4.8
						l-2.5,3.6c-2-2.4-5.6-4.2-10-4.2c-4.7,0-7.5,2.3-7.5,5.2c0,7.2,20.9,2.5,20.9,15.3c0,5.5-4.5,10-13.1,10
						C2007.2,1093.7,2002.6,1091.9,1999.2,1088.5"/>
					<path style="clip-path:url(#SVGID_00000070086002208432818510000008430494283392768180_);fill:#005CB9;" d="M2032.6,1076.3
						c0-9.6,6.4-17.3,16.7-17.3c10.3,0,16.7,7.7,16.7,17.3c0,9.6-6.4,17.4-16.7,17.4C2039,1093.7,2032.6,1085.9,2032.6,1076.3
						 M2060.4,1076.3c0-6.7-4-12.7-11.2-12.7c-7.2,0-11.2,6-11.2,12.7c0,6.8,4,12.8,11.2,12.8
						C2056.5,1089.1,2060.4,1083,2060.4,1076.3"/>
					<path style="clip-path:url(#SVGID_00000070086002208432818510000008430494283392768180_);fill:#005CB9;" d="M2077.5,1048.1
						c1.7,0,3.1,1.4,3.1,3.2s-1.4,3.1-3.1,3.1c-1.7,0-3.1-1.4-3.1-3.1S2075.8,1048.1,2077.5,1048.1 M2074.9,1059.8h5.2v33.1h-5.2
						V1059.8z"/>
					<path style="clip-path:url(#SVGID_00000070086002208432818510000008430494283392768180_);fill:#005CB9;" d="M2113.9,1092.8
						v-21.6c0-5.9-3.1-7.7-7.7-7.7c-4.1,0-10,2.9-10,12.7v16.6h-5.2v-33.1h5.2v4.8c2.4-2.8,7-5.6,12.1-5.6c7,0,10.7,3.5,10.7,10.7
						v23.2H2113.9z"/>
					<path style="clip-path:url(#SVGID_00000070086002208432818510000008430494283392768180_);fill:#005CB9;" d="M2178.2,1047.2
						v45.7h-5.2v-4.9c-3.1,4.6-7.8,5.7-10.7,5.7c-10.3,0-16.7-7.8-16.7-17.4c0-9.6,6.4-17.3,16.7-17.3c2.6,0,7.5,1,10.7,5.8v-17.5
						H2178.2z M2173.4,1076.3c0-6.7-4-12.7-11.2-12.7c-7.2,0-11.2,6-11.2,12.7c0,6.8,4,12.8,11.2,12.8
						C2169.5,1089.1,2173.4,1083,2173.4,1076.3"/>
					<path style="clip-path:url(#SVGID_00000070086002208432818510000008430494283392768180_);fill:#005CB9;" d="M2186.6,1076.3
						c0-9.6,7-17.3,16.6-17.3c10.2,0,16.2,7.8,16.2,17.7v1.3h-27.3c0.4,6.2,4.8,11.1,12.1,11.1c3.9,0,7.5-1.5,10.2-4.2l2.8,3.7
						c-3.4,3.3-7.9,5.1-13.4,5.1C2193.8,1093.7,2186.6,1086.6,2186.6,1076.3 M2214.3,1074.1c-0.1-4.9-3.4-10.6-11.1-10.6
						c-7.2,0-10.8,5.6-11,10.6H2214.3z"/>
					<path style="clip-path:url(#SVGID_00000070086002208432818510000008430494283392768180_);fill:#005CB9;" d="M2296.7,1069.6
						v23.2h-5.1v-21.6c0-5.3-2.5-7.3-6.4-7.6c-7.2,0-11.2,4.6-11.2,9.6v19.7h-5.1v-21.6c0-5.9-3.1-7.7-7.6-7.7
						c-4.1,0-10,2.9-10,12.7v16.6h-5.2v-33.1h5.2v4.8c2.4-2.8,7-5.6,12.1-5.6c5.2,0,8.6,2,9.9,6c2.7-3.4,6.6-6,12.7-6
						C2293,1058.9,2296.7,1062.4,2296.7,1069.6"/>
					<path style="clip-path:url(#SVGID_00000070086002208432818510000008430494283392768180_);fill:#005CB9;" d="M2337.7,1059.8
						v33.1h-5.2v-4.9c-3.1,4.6-7.8,5.7-10.7,5.7c-10.3,0-16.7-7.8-16.7-17.4c0-9.6,6.4-17.3,16.7-17.3c2.6,0,7.5,1,10.7,5.8v-4.9
						H2337.7z M2333,1076.3c0-6.7-4-12.7-11.2-12.7c-7.2,0-11.2,6-11.2,12.7c0,6.8,4,12.8,11.2,12.8
						C2329,1089.1,2333,1083,2333,1076.3"/>
					<path style="clip-path:url(#SVGID_00000070086002208432818510000008430494283392768180_);fill:#005CB9;" d="M2355.3,1080.1
						c0,1.4,0.2,9,8.7,9v4.6c-13.6,0-13.9-11.4-13.9-13.5v-15.9h-5.9v-4.5h5.9v-9h5.2v9h8.7v4.5h-8.7V1080.1z"/>
					<path style="clip-path:url(#SVGID_00000070086002208432818510000008430494283392768180_);fill:#005CB9;" d="M2369.3,1076.3
						c0-9.6,7-17.3,16.6-17.3c10.2,0,16.2,7.8,16.2,17.7v1.3h-27.3c0.4,6.2,4.8,11.1,12.1,11.1c3.9,0,7.5-1.5,10.2-4.2l2.8,3.7
						c-3.4,3.3-7.9,5.1-13.4,5.1C2376.5,1093.7,2369.3,1086.6,2369.3,1076.3 M2396.9,1074.1c-0.1-4.9-3.4-10.6-11.1-10.6
						c-7.2,0-10.8,5.6-11,10.6H2396.9z M2386.7,1045.7c0.5-0.5,1-0.7,1.6-0.7c0.6,0,1.2,0.2,1.6,0.7c0.5,0.5,0.7,1,0.7,1.6
						s-0.2,1.2-0.7,1.6l-5.5,5.5c-0.4,0.4-1,0.7-1.6,0.7c-0.5,0-1.1-0.2-1.6-0.7c-0.4-0.4-0.6-1-0.6-1.6c0-0.6,0.2-1.2,0.6-1.6
						L2386.7,1045.7z"/>
					<path style="clip-path:url(#SVGID_00000070086002208432818510000008430494283392768180_);fill:#005CB9;" d="M2427.9,1064.6
						c-0.7-0.1-1.4-0.1-2.1-0.1c-4.1,0-10,1.9-10,11.8v16.6h-5.2v-33.1h5.2v4.8c2.4-2.8,7-5.6,12.1-5.6V1064.6z"/>
					<path style="clip-path:url(#SVGID_00000070086002208432818510000008430494283392768180_);fill:#005CB9;" d="M2437.3,1048.1
						c1.7,0,3.2,1.4,3.2,3.2s-1.4,3.1-3.2,3.1c-1.7,0-3.1-1.4-3.1-3.1S2435.6,1048.1,2437.3,1048.1 M2434.7,1059.8h5.2v33.1h-5.2
						V1059.8z"/>
					<path style="clip-path:url(#SVGID_00000070086002208432818510000008430494283392768180_);fill:#005CB9;" d="M2449,1076.3
						c0-9.6,7-17.3,16.6-17.3c10.2,0,16.2,7.8,16.2,17.7v1.3h-27.3c0.4,6.2,4.8,11.1,12.1,11.1c3.9,0,7.5-1.5,10.2-4.2l2.8,3.7
						c-3.4,3.3-7.9,5.1-13.4,5.1C2456.2,1093.7,2449,1086.6,2449,1076.3 M2476.6,1074.1c-0.1-4.9-3.4-10.6-11.1-10.6
						c-7.2,0-10.8,5.6-11,10.6H2476.6z"/>
					
						<rect x="2490.3" y="1047.2" style="clip-path:url(#SVGID_00000070086002208432818510000008430494283392768180_);fill:#005CB9;" width="5.2" height="45.7"/>
					<path style="clip-path:url(#SVGID_00000070086002208432818510000008430494283392768180_);fill:#005CB9;" d="M2535.5,1071.3v6.4
						c0,1.4-1.2,2.5-2.5,2.5c-1.4,0-2.5-1.1-2.5-2.5v-11.1c11.9,0,12.5-7,12.5-8.5v-0.3c0-3.4-2.7-6.4-8.1-6.4
						c-5.3,0-8.6,2.2-11.2,5.6l-3.5-3.7c3.4-4.3,8.5-7,15.1-7c7.7,0,13.7,4.1,13.7,11.7C2549,1063.2,2546.4,1069.5,2535.5,1071.3
						 M2532.9,1086.5c2,0,3.6,1.6,3.6,3.6c0,2-1.6,3.5-3.6,3.5c-2,0-3.5-1.5-3.5-3.5C2529.4,1088,2530.9,1086.5,2532.9,1086.5"/>
					<polygon style="clip-path:url(#SVGID_00000070086002208432818510000008430494283392768180_);fill:#005CB9;" points="
						1826.5,1161.3 1826.5,1115.6 1832.3,1115.6 1832.3,1156.3 1853.9,1156.3 1853.9,1161.3 					"/>
					<path style="clip-path:url(#SVGID_00000070086002208432818510000008430494283392768180_);fill:#005CB9;" d="M1859.5,1144.7
						c0-9.6,6.4-17.3,16.7-17.3c10.3,0,16.7,7.7,16.7,17.3c0,9.6-6.4,17.4-16.7,17.4C1865.9,1162.1,1859.5,1154.3,1859.5,1144.7
						 M1887.3,1144.7c0-6.7-4-12.7-11.2-12.7c-7.2,0-11.2,6-11.2,12.7c0,6.8,4,12.8,11.2,12.8
						C1883.4,1157.6,1887.3,1151.5,1887.3,1144.7"/>
					<path style="clip-path:url(#SVGID_00000070086002208432818510000008430494283392768180_);fill:#005CB9;" d="M1901.3,1148.6
						v-0.3v-20.1h5.2v20.3c0,1.2,0.3,9,8.8,9c8.7,0,8.9-7.9,8.9-9.2v-20.1h5.2v20.1v0.3c0,2.1-0.5,13.5-14.1,13.5
						C1901.8,1162.1,1901.3,1150.7,1901.3,1148.6"/>
					<path style="clip-path:url(#SVGID_00000070086002208432818510000008430494283392768180_);fill:#005CB9;" d="M1937.9,1144.7
						c0-9.6,7-17.3,16.6-17.3c10.2,0,16.2,7.8,16.2,17.7v1.3h-27.3c0.4,6.2,4.8,11.1,12.1,11.1c3.9,0,7.5-1.5,10.2-4.2l2.8,3.7
						c-3.4,3.3-7.9,5.1-13.4,5.1C1945.1,1162.1,1937.9,1155.1,1937.9,1144.7 M1965.6,1142.6c-0.1-4.9-3.4-10.6-11.1-10.6
						c-7.2,0-10.8,5.6-11,10.6H1965.6z"/>
					<polygon style="clip-path:url(#SVGID_00000070086002208432818510000008430494283392768180_);fill:#005CB9;" points="
						1977.6,1161.3 1977.6,1157.3 1996.3,1132.8 1977.6,1132.8 1977.6,1128.2 2003.1,1128.2 2003.1,1132.1 1984.4,1156.8 
						2003.4,1156.8 2003.4,1161.3 					"/>
					<path style="clip-path:url(#SVGID_00000070086002208432818510000008430494283392768180_);fill:#005CB9;" d="M2030.3,1148.6
						v-0.3v-20.1h5.2v20.3c0,1.2,0.3,9,8.8,9c8.7,0,8.9-7.9,8.9-9.2v-20.1h5.2v20.1v0.3c0,2.1-0.5,13.5-14.1,13.5
						C2030.8,1162.1,2030.3,1150.7,2030.3,1148.6"/>
					<path style="clip-path:url(#SVGID_00000070086002208432818510000008430494283392768180_);fill:#005CB9;" d="M2091.7,1161.3
						v-21.6c0-5.9-3.1-7.7-7.7-7.7c-4.1,0-10,2.9-10,12.7v16.6h-5.2v-33.1h5.2v4.8c2.4-2.8,7-5.6,12.1-5.6c7,0,10.7,3.5,10.7,10.7
						v23.2H2091.7z"/>
					<path style="clip-path:url(#SVGID_00000070086002208432818510000008430494283392768180_);fill:#005CB9;" d="M2123.4,1144.7
						c0-9.6,6.4-17.3,16.7-17.3c10.3,0,16.7,7.7,16.7,17.3c0,9.6-6.4,17.4-16.7,17.4C2129.8,1162.1,2123.4,1154.3,2123.4,1144.7
						 M2151.2,1144.7c0-6.7-4-12.7-11.2-12.7c-7.2,0-11.2,6-11.2,12.7c0,6.8,4,12.8,11.2,12.8
						C2147.3,1157.6,2151.2,1151.5,2151.2,1144.7"/>
					<path style="clip-path:url(#SVGID_00000070086002208432818510000008430494283392768180_);fill:#005CB9;" d="M2165.2,1148.6
						v-0.3v-20.1h5.2v20.3c0,1.2,0.3,9,8.8,9c8.7,0,8.9-7.9,8.9-9.2v-20.1h5.2v20.1v0.3c0,2.1-0.5,13.5-14.1,13.5
						C2165.7,1162.1,2165.2,1150.7,2165.2,1148.6"/>
					<path style="clip-path:url(#SVGID_00000070086002208432818510000008430494283392768180_);fill:#005CB9;" d="M2211,1148.6
						c0,1.4,0.2,9,8.7,9v4.6c-13.6,0-13.9-11.4-13.9-13.5v-15.9h-5.9v-4.5h5.9v-9h5.2v9h8.7v4.5h-8.7V1148.6z"/>
					<path style="clip-path:url(#SVGID_00000070086002208432818510000008430494283392768180_);fill:#005CB9;" d="M2229.9,1116.6
						c1.7,0,3.1,1.4,3.1,3.2s-1.4,3.1-3.1,3.1s-3.1-1.4-3.1-3.1S2228.2,1116.6,2229.9,1116.6 M2227.3,1128.2h5.2v33.1h-5.2V1128.2z"
						/>
					
						<rect x="2243.5" y="1115.6" style="clip-path:url(#SVGID_00000070086002208432818510000008430494283392768180_);fill:#005CB9;" width="5.2" height="45.7"/>
					<path style="clip-path:url(#SVGID_00000070086002208432818510000008430494283392768180_);fill:#005CB9;" d="M2307.8,1115.6
						v45.7h-5.2v-4.9c-3.1,4.6-7.8,5.7-10.7,5.7c-10.3,0-16.7-7.8-16.7-17.4c0-9.6,6.4-17.3,16.7-17.3c2.6,0,7.5,1,10.7,5.8v-17.5
						H2307.8z M2303.1,1144.7c0-6.7-4-12.7-11.2-12.7c-7.2,0-11.2,6-11.2,12.7c0,6.8,4,12.8,11.2,12.8
						C2299.1,1157.6,2303.1,1151.5,2303.1,1144.7"/>
					<path style="clip-path:url(#SVGID_00000070086002208432818510000008430494283392768180_);fill:#005CB9;" d="M2316.3,1144.7
						c0-9.6,7-17.3,16.6-17.3c10.2,0,16.2,7.8,16.2,17.7v1.3h-27.3c0.4,6.2,4.8,11.1,12.1,11.1c3.9,0,7.5-1.5,10.2-4.2l2.8,3.7
						c-3.4,3.3-7.9,5.1-13.4,5.1C2323.5,1162.1,2316.3,1155.1,2316.3,1144.7 M2343.9,1142.6c-0.1-4.9-3.4-10.6-11.1-10.6
						c-7.2,0-10.8,5.6-11,10.6H2343.9z"/>
					<path style="clip-path:url(#SVGID_00000070086002208432818510000008430494283392768180_);fill:#005CB9;" d="M2380.8,1128.2v4.9
						c3.2-4.7,8.1-5.8,10.7-5.8c10.3,0,16.7,7.7,16.7,17.3c0,9.6-6.4,17.4-16.7,17.4c-2.9,0-7.6-1.1-10.7-5.7v17.5h-5.2v-45.7
						H2380.8z M2402.7,1144.7c0-6.7-4-12.7-11.2-12.7c-7.2,0-11.2,6-11.2,12.7c0,6.8,4,12.8,11.2,12.8
						C2398.7,1157.6,2402.7,1151.5,2402.7,1144.7"/>
					<path style="clip-path:url(#SVGID_00000070086002208432818510000008430494283392768180_);fill:#005CB9;" d="M2434,1133.1
						c-0.7-0.1-1.4-0.1-2.1-0.1c-4.1,0-10,1.9-10,11.8v16.6h-5.2v-33.1h5.2v4.8c2.4-2.8,7-5.6,12.1-5.6V1133.1z"/>
					<path style="clip-path:url(#SVGID_00000070086002208432818510000008430494283392768180_);fill:#005CB9;" d="M2438.4,1144.7
						c0-9.6,6.4-17.3,16.7-17.3c10.3,0,16.7,7.7,16.7,17.3c0,9.6-6.4,17.4-16.7,17.4C2444.8,1162.1,2438.4,1154.3,2438.4,1144.7
						 M2466.2,1144.7c0-6.7-4-12.7-11.2-12.7c-7.2,0-11.2,6-11.2,12.7c0,6.8,4,12.8,11.2,12.8
						C2462.3,1157.6,2466.2,1151.5,2466.2,1144.7"/>
					<path style="clip-path:url(#SVGID_00000070086002208432818510000008430494283392768180_);fill:#005CB9;" d="M2489.6,1170.2
						c8.4,0,8.7-7.4,8.7-8.9v-33h5.2v33c0,2.1-0.3,13.5-13.9,13.5V1170.2z M2500.9,1116.6c1.7,0,3.2,1.4,3.2,3.2s-1.4,3.1-3.2,3.1
						c-1.7,0-3.1-1.4-3.1-3.1S2499.2,1116.6,2500.9,1116.6"/>
					<path style="clip-path:url(#SVGID_00000070086002208432818510000008430494283392768180_);fill:#005CB9;" d="M2514.4,1148.6
						v-0.3v-20.1h5.2v20.3c0,1.2,0.3,9,8.8,9c8.7,0,8.9-7.9,8.9-9.2v-20.1h5.2v20.1v0.3c0,2.1-0.5,13.5-14.1,13.5
						C2514.9,1162.1,2514.4,1150.7,2514.4,1148.6"/>
					<path style="clip-path:url(#SVGID_00000070086002208432818510000008430494283392768180_);fill:#005CB9;" d="M2550.2,1156.9
						l2.6-3.7c2.3,2.5,6.5,4.7,11.2,4.7c5.1,0,8-2.4,8-5.7c0-8-20.9-3.1-20.9-15.3c0-5.2,4.5-9.5,12.5-9.5c5.8,0,9.8,2.1,12.5,4.8
						l-2.5,3.6c-2-2.4-5.6-4.2-10-4.2c-4.7,0-7.5,2.3-7.5,5.2c0,7.2,20.9,2.5,20.9,15.3c0,5.5-4.5,10-13.1,10
						C2558.2,1162.1,2553.6,1160.4,2550.2,1156.9"/>
					<path style="clip-path:url(#SVGID_00000070086002208432818510000008430494283392768180_);fill:#005CB9;" d="M2592.7,1148.6
						c0,1.4,0.2,9,8.7,9v4.6c-13.6,0-13.9-11.4-13.9-13.5v-15.9h-5.9v-4.5h5.9v-9h5.2v9h8.7v4.5h-8.7V1148.6z"/>
					<path style="clip-path:url(#SVGID_00000070086002208432818510000008430494283392768180_);fill:#005CB9;" d="M2606.7,1144.7
						c0-9.6,7-17.3,16.6-17.3c10.2,0,16.2,7.8,16.2,17.7v1.3h-27.3c0.4,6.2,4.8,11.1,12.1,11.1c3.9,0,7.5-1.5,10.2-4.2l2.8,3.7
						c-3.4,3.3-7.9,5.1-13.4,5.1C2613.9,1162.1,2606.7,1155.1,2606.7,1144.7 M2634.3,1142.6c-0.1-4.9-3.4-10.6-11.1-10.6
						c-7.2,0-10.8,5.6-11,10.6H2634.3z"/>
					
						<rect x="1853.1" y="1184.2" style="clip-path:url(#SVGID_00000070086002208432818510000008430494283392768180_);fill:#005CB9;" width="11.2" height="45.6"/>
					<path style="clip-path:url(#SVGID_00000070086002208432818510000008430494283392768180_);fill:#005CB9;" d="M1870.1,1213.2
						c0-9.6,7.2-17.3,17.6-17.3c9.3,0,16.6,7,16.6,18.7v2.1h-22.7c0.8,2.7,3.4,5.4,7.8,5.4c1.8,0,5.5-0.8,7.5-2.1l4.5,7
						c-3.2,2.5-8.8,3.7-13.4,3.7C1878,1230.6,1870.1,1224.1,1870.1,1213.2 M1887.7,1204.5c-4.2,0-5.8,3.3-6.2,5.3h12.3
						C1893.3,1207.4,1892.1,1204.5,1887.7,1204.5"/>
					<path style="clip-path:url(#SVGID_00000070086002208432818510000008430494283392768180_);fill:#005CB9;" d="M1940.5,1206.6v8.4
						c0,3.1,0.9,5.6,5.6,5.6v10c-11.3,0-16.8-7.5-16.8-16.8v-7.1h-5.5v-9.9h5.5v-9.4h11.2v9.4h6.6v9.9H1940.5z"/>
					<path style="clip-path:url(#SVGID_00000070086002208432818510000008430494283392768180_);fill:#005CB9;" d="M1950.4,1213.2
						c0-9.6,7.2-17.3,17.6-17.3c9.3,0,16.6,7,16.6,18.7v2.1h-22.7c0.8,2.7,3.4,5.4,7.8,5.4c1.8,0,5.5-0.8,7.5-2.1l4.5,7
						c-3.2,2.5-8.8,3.7-13.4,3.7C1958.3,1230.6,1950.4,1224.1,1950.4,1213.2 M1968,1204.5c-4.2,0-5.8,3.3-6.2,5.3h12.3
						C1973.6,1207.4,1972.4,1204.5,1968,1204.5"/>
					<path style="clip-path:url(#SVGID_00000070086002208432818510000008430494283392768180_);fill:#005CB9;" d="M2012.3,1229.8
						v-18.4c0-3.9-2.1-5.4-5.5-5.4c-3.1,0-5.8,2.2-5.8,7.1v16.6h-11.2v-33h11.2v4.3c2.2-2.8,6.3-5.2,12-5.2c5.3,0,8.5,2.5,9.8,6
						c2.3-2.9,6-6,12.7-6c7.2,0,10.5,4.5,10.5,10.2v23.7h-11.2v-18.4c0-3.9-2.1-5.4-5.5-5.4c-6.1,0-5.8,7.1-5.8,7.1v16.6H2012.3z"/>
					<path style="clip-path:url(#SVGID_00000070086002208432818510000008430494283392768180_);fill:#005CB9;" d="M2064.9,1225.6
						L2064.9,1225.6l-0.1,16.8h-11.2v-45.6h11.2v4.3h0.1c2.9-4.5,7.2-5.2,9.2-5.2c9.3,0,15.3,8.1,15.3,17.3
						c0,9.3-6.3,17.4-15.3,17.4C2072,1230.6,2067.7,1230.1,2064.9,1225.6 M2077.7,1213.2c0-4.1-2.3-7.2-6.4-7.2
						c-4.2,0-6.5,3.1-6.5,7.2c0,4.2,2.3,7.3,6.5,7.3C2075.4,1220.5,2077.7,1217.4,2077.7,1213.2"/>
					<path style="clip-path:url(#SVGID_00000070086002208432818510000008430494283392768180_);fill:#005CB9;" d="M2093.5,1225.8
						c1.5-2.6,2.9-4.9,4.5-7.5c2.8,2.1,8.1,4,11.6,4c3,0,3.9-0.8,3.9-2c0-1.6-2.2-1.9-5.1-2.3c-5.3-0.8-13.8-2.7-13.8-11.1
						c0-5.8,5.1-11,14.2-11c5.1,0,9.9,1.6,13.6,4c-1.4,2.6-2.6,4.6-4,7.1c-2.2-1.6-5.9-3.1-9.5-3.1c-2.1,0-3.6,0.8-3.6,2.1
						c0,1.3,2.1,1.6,4.8,2.1c5.3,0.8,14,2.9,14,11.4c0,6.4-5.7,11.2-15.1,11.2C2103.1,1230.6,2097,1228.8,2093.5,1225.8"/>
					<path style="clip-path:url(#SVGID_00000070086002208432818510000008430494283392768180_);fill:#005CB9;" d="M2145.1,1213.2
						c0-9.2,6-17.3,15.3-17.3c2,0,6.3,0.8,9.2,5.2h0.1v-16.9h11.2v45.6h-11.2v-4.2h-0.1c-2.9,4.5-7.1,5-9.2,5
						C2151.4,1230.6,2145.1,1222.5,2145.1,1213.2 M2169.7,1213.2c0-4.1-2.3-7.2-6.5-7.2c-4.1,0-6.4,3.1-6.4,7.2
						c0,4.2,2.3,7.3,6.4,7.3C2167.4,1220.5,2169.7,1217.4,2169.7,1213.2"/>
					<path style="clip-path:url(#SVGID_00000070086002208432818510000008430494283392768180_);fill:#005CB9;" d="M2186.7,1213.2
						c0-9.6,7.2-17.3,17.6-17.3c9.3,0,16.6,7,16.6,18.7v2.1h-22.7c0.8,2.7,3.4,5.4,7.8,5.4c1.8,0,5.5-0.8,7.5-2.1l4.5,7
						c-3.2,2.5-8.8,3.7-13.4,3.7C2194.6,1230.6,2186.7,1224.1,2186.7,1213.2 M2204.3,1204.5c-4.2,0-5.8,3.3-6.2,5.3h12.3
						C2210,1207.4,2208.7,1204.5,2204.3,1204.5"/>
					<polygon style="clip-path:url(#SVGID_00000070086002208432818510000008430494283392768180_);fill:#005CB9;" points="
						2251.5,1229.8 2239.2,1196.8 2250.9,1196.8 2257.6,1217.6 2264.5,1196.8 2276.3,1196.8 2263.9,1229.8 					"/>
					<path style="clip-path:url(#SVGID_00000070086002208432818510000008430494283392768180_);fill:#005CB9;" d="M2277.7,1213.2
						c0-9.2,6.6-17.3,18.1-17.3c11.4,0,18.1,8.1,18.1,17.3c0,9.3-6.7,17.4-18.1,17.4C2284.3,1230.6,2277.7,1222.5,2277.7,1213.2
						 M2302.3,1213.2c0-4.1-2.3-7.2-6.5-7.2c-4.1,0-6.4,3.1-6.4,7.2c0,4.2,2.3,7.3,6.4,7.3
						C2299.9,1220.5,2302.3,1217.4,2302.3,1213.2"/>
					<path style="clip-path:url(#SVGID_00000070086002208432818510000008430494283392768180_);fill:#005CB9;" d="M2318,1225.8
						c1.5-2.6,2.9-4.9,4.5-7.5c2.8,2.1,8.2,4,11.6,4c3,0,3.9-0.8,3.9-2c0-1.6-2.2-1.9-5.1-2.3c-5.3-0.8-13.8-2.7-13.8-11.1
						c0-5.8,5.1-11,14.2-11c5.1,0,9.9,1.6,13.6,4c-1.4,2.6-2.6,4.6-4,7.1c-2.2-1.6-5.9-3.1-9.5-3.1c-2.1,0-3.6,0.8-3.6,2.1
						c0,1.3,2.1,1.6,4.8,2.1c5.3,0.8,14,2.9,14,11.4c0,6.4-5.7,11.2-15.1,11.2C2327.6,1230.6,2321.5,1228.8,2318,1225.8"/>
					<path style="clip-path:url(#SVGID_00000070086002208432818510000008430494283392768180_);fill:#005CB9;" d="M2385.5,1206.6v8.4
						c0,3.1,0.9,5.6,5.6,5.6v10c-11.3,0-16.8-7.5-16.8-16.8v-7.1h-5.5v-9.9h5.5v-9.4h11.2v9.4h6.6v9.9H2385.5z"/>
					<path style="clip-path:url(#SVGID_00000070086002208432818510000008430494283392768180_);fill:#005CB9;" d="M2397.2,1229.8v-33
						h11.2v4.3c2.3-2.8,6.6-5.3,10.1-5.3v10.8c-0.6-0.1-1.3-0.1-2.3-0.1c-3.2,0-7.9,0.9-7.9,6.7v16.6H2397.2z"/>
					<path style="clip-path:url(#SVGID_00000070086002208432818510000008430494283392768180_);fill:#005CB9;" d="M2421.8,1213.2
						c0-9.2,6-17.3,15.3-17.3c2,0,6.3,0.8,9.2,5.2h0.1v-4.3h11.2v33h-11.2v-4.2h-0.1c-2.9,4.5-7.1,5-9.2,5
						C2428.1,1230.6,2421.8,1222.5,2421.8,1213.2 M2446.4,1213.2c0-4.1-2.3-7.2-6.5-7.2c-4.1,0-6.4,3.1-6.4,7.2
						c0,4.2,2.3,7.3,6.4,7.3C2444.1,1220.5,2446.4,1217.4,2446.4,1213.2"/>
					<polygon style="clip-path:url(#SVGID_00000070086002208432818510000008430494283392768180_);fill:#005CB9;" points="
						2473.7,1229.8 2461.4,1196.8 2473.1,1196.8 2479.8,1217.6 2486.7,1196.8 2498.5,1196.8 2486.1,1229.8 					"/>
					<path style="clip-path:url(#SVGID_00000070086002208432818510000008430494283392768180_);fill:#005CB9;" d="M2499.9,1213.2
						c0-9.2,6-17.3,15.3-17.3c2,0,6.3,0.8,9.2,5.2h0.1v-4.3h11.2v33h-11.2v-4.2h-0.1c-2.9,4.5-7.1,5-9.2,5
						C2506.2,1230.6,2499.9,1222.5,2499.9,1213.2 M2524.5,1213.2c0-4.1-2.3-7.2-6.5-7.2c-4.1,0-6.4,3.1-6.4,7.2
						c0,4.2,2.3,7.3,6.4,7.3C2522.1,1220.5,2524.5,1217.4,2524.5,1213.2"/>
					<path style="clip-path:url(#SVGID_00000070086002208432818510000008430494283392768180_);fill:#005CB9;" d="M2576.9,1196.8
						v16.9c0,9.9-6.5,16.9-16.8,16.9c-11.3,0-16.8-7.6-16.8-16.9v-16.9h11.2v18.1c0,3.1,0.9,5.6,5.6,5.6c4.7,0,5.6-2.5,5.6-5.6
						v-18.1H2576.9z"/>
					<path style="clip-path:url(#SVGID_00000070086002208432818510000008430494283392768180_);fill:#005CB9;" d="M2603.8,1229.8
						l-5.5-9.6l-5.5,9.6h-12.1l10.4-17l-9.9-16h12.3l4.7,8.6c1.4-2.6,3.4-6,4.7-8.6h12.2l-9.8,16l10.6,17H2603.8z"/>
					<path style="clip-path:url(#SVGID_00000070086002208432818510000008430494283392768180_);fill:#005CB9;" d="M2752.1,355.8
						c0,80.4-65.2,145.6-145.6,145.6c-80.4,0-145.6-65.2-145.6-145.6s65.2-145.6,145.6-145.6C2687,210.3,2752.1,275.4,2752.1,355.8"
						/>
					<path style="clip-path:url(#SVGID_00000070086002208432818510000008430494283392768180_);fill:#FFD100;" d="M2508.2,445.9
						v-28.5h11.7c5.8,0,9.1,3.9,9.1,8.6c0,4.7-3.3,8.6-9.1,8.6h-8.1v11.3H2508.2z M2519.4,431.4c3.5,0,5.8-2.2,5.8-5.4
						c0-3.2-2.4-5.4-5.8-5.4h-7.6v10.9H2519.4z"/>
					<path style="clip-path:url(#SVGID_00000070086002208432818510000008430494283392768180_);fill:#FFD100;" d="M2558.7,445.9h-4.2
						l-3.1-8.1h-13.3l-3.2,8.1h-4.1l11.7-28.5h4.5L2558.7,445.9z M2539.3,434.7h11l-5.5-13.7L2539.3,434.7z"/>
					<path style="clip-path:url(#SVGID_00000070086002208432818510000008430494283392768180_);fill:#FFD100;" d="M2579.4,445.9
						l-7.4-11.3h-5.8v11.3h-3.6v-28.5h11.7c5.3,0,9.2,3.3,9.2,8.6c0,5.1-3.6,8-7.6,8.3l7.9,11.6H2579.4z M2573.8,431.4
						c3.5,0,5.9-2.3,5.9-5.5c0-3.3-2.4-5.4-5.9-5.4h-7.6v10.9H2573.8z"/>
					<path style="clip-path:url(#SVGID_00000070086002208432818510000008430494283392768180_);fill:#FFD100;" d="M2597.5,443.1
						l1.9-2.7c1.2,1.5,2.9,2.8,5.5,2.8c3.6,0,5.8-2.4,5.8-6v-19.9h3.6v19.9c0,6.2-4.1,9.1-9.2,9.1
						C2602,446.4,2599.5,445.4,2597.5,443.1"/>
					<path style="clip-path:url(#SVGID_00000070086002208432818510000008430494283392768180_);fill:#FFD100;" d="M2620,431.7
						c0-8.4,5.9-14.8,14.5-14.8c8.6,0,14.5,6.3,14.5,14.8s-5.9,14.8-14.5,14.8C2625.8,446.4,2620,440.1,2620,431.7 M2645.2,431.7
						c0-6.7-4.2-11.6-10.7-11.6c-6.5,0-10.7,4.9-10.7,11.6c0,6.6,4.2,11.6,10.7,11.6C2640.9,443.3,2645.2,438.3,2645.2,431.7"/>
					<path style="clip-path:url(#SVGID_00000070086002208432818510000008430494283392768180_);fill:#FFD100;" d="M2654.6,434.8
						v-17.5h3.6v17.4c0,5.2,2.9,8.5,8.2,8.5c5.4,0,8.3-3.3,8.3-8.5v-17.4h3.6v17.4c0,7.1-4,11.6-11.9,11.6
						C2658.6,446.4,2654.6,441.8,2654.6,434.8"/>
					<path style="clip-path:url(#SVGID_00000070086002208432818510000008430494283392768180_);fill:#FFD100;" d="M2702,445.9
						l-7.4-11.3h-5.8v11.3h-3.6v-28.5h11.7c5.3,0,9.2,3.3,9.2,8.6c0,5.1-3.6,8-7.6,8.3l7.9,11.6H2702z M2696.4,431.4
						c3.5,0,5.9-2.3,5.9-5.5c0-3.3-2.4-5.4-5.9-5.4h-7.6v10.9H2696.4z"/>
					<polygon style="clip-path:url(#SVGID_00000070086002208432818510000008430494283392768180_);fill:#FFD100;" points="
						2544.8,406.6 2544.8,332.1 2527.4,349.5 2514.8,336.4 2547.8,303.9 2567.2,303.9 2567.2,406.6 					"/>
					<path style="clip-path:url(#SVGID_00000070086002208432818510000008430494283392768180_);fill:#FFD100;" d="M2578.3,355.3
						c0-26.5,13.4-53,43.5-53c30,0,43.5,26.5,43.5,53s-13.4,53.2-43.5,53.2C2591.7,408.5,2578.3,381.8,2578.3,355.3 M2642.4,355.3
						c0-19-5.5-33.6-20.6-33.6c-14.9,0-20.6,14.6-20.6,33.6c0,19,5.7,33.7,20.6,33.7C2636.7,389.1,2642.4,374.3,2642.4,355.3"/>
					<path style="clip-path:url(#SVGID_00000070086002208432818510000008430494283392768180_);fill:#FFD100;" d="M2667,315.2h2.2
						c3.5-11,13.9-18,26.7-18c11.5,0,18.2,6.1,21.9,12.6l-9.6,4.6c-2.2-4.2-6.9-7.5-12.2-7.5c-6.5,0-11.7,3.2-14.5,8.3h17.3
						c1.7,0,3.1,1.4,3.1,3.1c0,1.7-1.4,3-3.1,3h-19.1c-0.2,0.8-0.2,1.6-0.2,2.5c0,0.8,0,1.5,0.1,2.2h19.2c1.7,0,3.1,1.4,3.1,3.1
						c0,1.7-1.4,3-3.1,3h-17.3c2.7,5.2,7.9,8.6,14.6,8.6c5.3,0,10.1-3.3,12.2-7.5l9.6,4.5c-3.7,6.4-10.4,12.6-21.9,12.6
						c-12.9,0-23.3-7.1-26.8-18.3h-2.2c-1.7,0-3-1.3-3-3c0-1.7,1.3-3.1,3-3.1h1.1c-0.1-0.7-0.1-1.5-0.1-2.2c0-0.8,0-1.6,0.1-2.5
						h-1.1c-1.7,0-3-1.3-3-3C2664,316.5,2665.3,315.2,2667,315.2"/>
					<path style="clip-path:url(#SVGID_00000070086002208432818510000008430494283392768180_);fill:#FFD100;" d="M2524.9,290.7h-3.3
						l-2.5-6.5h-10.7l-2.6,6.5h-3.3l9.4-22.8h3.6L2524.9,290.7z M2509.3,281.7h8.8l-4.4-11L2509.3,281.7z M2514.5,263.9
						c0.2,0.2,0.3,0.5,0.3,0.8c0,0.3-0.1,0.6-0.3,0.8c-0.2,0.2-0.5,0.3-0.8,0.3c-0.3,0-0.6-0.1-0.8-0.3l-2.7-2.7
						c-0.2-0.2-0.3-0.5-0.3-0.8c0-0.3,0.1-0.5,0.3-0.8c0.2-0.2,0.5-0.3,0.8-0.3c0.3,0,0.5,0.1,0.8,0.3L2514.5,263.9z"/>
					<path style="clip-path:url(#SVGID_00000070086002208432818510000008430494283392768180_);fill:#FFD100;" d="M2537,290.7v-22.8
						h9.4c4.7,0,7.3,3.1,7.3,6.9s-2.7,6.9-7.3,6.9h-6.5v9.1H2537z M2546,279.1c2.8,0,4.7-1.8,4.7-4.3s-1.9-4.3-4.7-4.3h-6.1v8.7
						H2546z"/>
					<path style="clip-path:url(#SVGID_00000070086002208432818510000008430494283392768180_);fill:#FFD100;" d="M2577.4,290.7h-3.3
						l-2.5-6.5h-10.7l-2.6,6.5h-3.3l9.4-22.8h3.6L2577.4,290.7z M2561.9,281.7h8.8l-4.4-11L2561.9,281.7z"/>
					<path style="clip-path:url(#SVGID_00000070086002208432818510000008430494283392768180_);fill:#FFD100;" d="M2593.9,290.7
						l-5.9-9.1h-4.7v9.1h-2.9v-22.8h9.4c4.2,0,7.3,2.7,7.3,6.9c0,4.1-2.9,6.4-6.1,6.6l6.3,9.3H2593.9z M2589.5,279.1
						c2.8,0,4.7-1.8,4.7-4.4c0-2.6-1.9-4.3-4.7-4.3h-6.1v8.7H2589.5z"/>
					<polygon style="clip-path:url(#SVGID_00000070086002208432818510000008430494283392768180_);fill:#FFD100;" points="
						2607.5,290.7 2607.5,270.4 2600.1,270.4 2600.1,267.8 2617.8,267.8 2617.8,270.4 2610.4,270.4 2610.4,290.7 					"/>
					
						<rect x="2621.6" y="267.8" style="clip-path:url(#SVGID_00000070086002208432818510000008430494283392768180_);fill:#FFD100;" width="2.9" height="22.8"/>
					<path style="clip-path:url(#SVGID_00000070086002208432818510000008430494283392768180_);fill:#FFD100;" d="M2643.5,290.7
						l-5.9-9.1h-4.7v9.1h-2.9v-22.8h9.4c4.2,0,7.3,2.7,7.3,6.9c0,4.1-2.9,6.4-6.1,6.6l6.3,9.3H2643.5z M2639,279.1
						c2.8,0,4.7-1.8,4.7-4.4c0-2.6-1.9-4.3-4.7-4.3h-6.1v8.7H2639z"/>
					<path style="clip-path:url(#SVGID_00000070086002208432818510000008430494283392768180_);fill:#FFD100;" d="M2660.3,290.7
						v-22.8h8c7.3,0,11.9,5,11.9,11.4c0,6.5-4.7,11.4-11.9,11.4H2660.3z M2668.2,288.1c5.6,0,8.9-4,8.9-8.9c0-4.9-3.2-8.9-8.9-8.9
						h-5.1v17.8H2668.2z"/>
					<polygon style="clip-path:url(#SVGID_00000070086002208432818510000008430494283392768180_);fill:#FFD100;" points="
						2684.7,290.7 2684.7,267.8 2700,267.8 2700,270.4 2687.6,270.4 2687.6,277.7 2698,277.7 2698,280.3 2687.6,280.3 2687.6,288.1 
						2700,288.1 2700,290.7 					"/>
					<path style="clip-path:url(#SVGID_00000070086002208432818510000008430494283392768180_);fill:#005CB9;" d="M2313.2,391h14.6
						v-25.5h-14.6V391z M2330.6,375.1v7.1h24.3c2,0,3.6-1.6,3.6-3.6c0-2-1.6-3.6-3.6-3.6H2330.6z M2232.2,274.3
						c40.9,0,78.1,18.9,102.1,51.1l-8.3-1.4c-2.7-0.4-5.4,0.5-7.2,2.5c-1.5,1.6-2.3,3.8-2.1,6.1c0.3,3.6,3.2,6.7,7,7.3l28.2,4.7
						c0.4,0.1,0.7,0.1,1.1,0.1l0.2,0c3.6,0,6.8-2.5,7.7-6l7.4-28.7c0.6-2.4,0.1-4.9-1.4-6.9s-3.9-3.1-6.4-3.1l-0.5,0
						c-3.4,0.2-6.3,2.7-7.2,6.2l-2.6,10.1c-26.5-36.7-67.7-58.8-113.4-60.1l-0.2-12.9l7.8-0.1c4.7-0.1,8.5-3.9,8.4-8.6
						c-0.1-4.7-3.9-8.4-8.5-8.4h-0.1l-32.5,0.4c-4.7,0.1-8.5,3.9-8.4,8.6c0.1,4.7,3.9,8.4,8.5,8.4h0.1l7.6-0.1l0.2,13
						c0,0.1,0,0.1,0,0.2c-73.1,6.2-130.8,66.6-132.9,141c-0.9,32.9,9.7,63.3,27.6,88.2c1.8,2.5,3.7,5,5.7,7.4c1.6,2,3.3,3.9,5,5.8
						c1.7,1.9,4.2,3,6.7,3h0c3.1,0,5.8-1.5,7.6-4c2.3-3.4,1.9-8.2-1-11.4c-1.4-1.6-2.9-3.2-4.3-4.9c-15.8-19.2-25.6-42.4-28.2-67.2
						l-0.2-2.3l-0.3,0c-0.4-4.4-0.5-8.9-0.4-13.5C2106.6,330.1,2163.6,274.3,2232.2,274.3 M2169.3,410.5c2.3,0,8,0.4,12.1,4.4
						c5.3,5.1,2.7,13.4,2.4,14.3c0,0.1-0.1,0.2-0.1,0.3l-11.6,25.5c-1.2,2.6-2.4,5.8-2.7,11c-0.3,5.2,1.6,10.2,5.4,14.1
						c4.1,4.3,9.8,6.7,15.7,6.7c8.9,0,16.6-7.4,20.2-14.8l0.6-1.2c0.3-0.5,0.5-0.9,0.8-1.4l23.2-51.9h-25.8c-1.1,0-10.8-0.2-18.3-7
						c-8.4-7.7-8.2-19.5-8.2-20l0-44.9h-14.2c-9.9,0-17.6,8.5-17.6,15.8v33.1c0,7.3,7.7,15.8,17.6,15.8
						C2168.7,410.5,2169,410.5,2169.3,410.5 M2271,345.8v64.7h4.1c15.8,0,29.5-7.7,35.1-18.9v-26.8c-5.6-11.3-19.4-19-35.1-19H2271z
						 M2375.3,399.3c-2.2-2.2-5.3-3.2-8.5-2.6c-4.1,0.8-7.1,4.5-7.2,8.8c-0.1,2.1-0.2,4.3-0.4,6.5c-0.9,11.5-3.4,22.7-7.3,33.4
						l0,0.3c-18.5,49.7-67.7,84.9-123.4,83.2c-13.3-0.4-26-2.9-37.9-7l10.1-5.8c2.1-1.2,3.6-3.4,3.9-5.8c0.4-2.4-0.4-4.9-2.2-6.7
						c-2.4-2.6-6.8-3.1-10-1.2l-24.7,14.2c-0.3,0.2-0.6,0.4-0.9,0.6c-3,2.3-4,6.3-2.4,9.7l12.5,26.9c1.3,2.8,4.2,4.6,7.3,4.6
						c2,0,4-0.8,5.5-2.2c2.5-2.3,3.2-6.1,1.7-9.4l-3-6.5c12.5,4,25.8,6.3,39.6,6.7c1.4,0,2.9,0.1,4.3,0.1
						c37.9,0,73.9-14.6,101.2-41.1c3.5-3.4,6.7-6.9,9.8-10.6l0.2,0.3l2.1-2.6c18.4-22.8,29.4-50.4,31.7-79.6
						c0.2-2.6,0.3-5.2,0.4-7.6C2377.9,403.5,2377,401.1,2375.3,399.3 M2190,390.8c0,0,0,0.3,0,0.6v0c0,0.3,0,0.6,0.1,1
						c0,0,0,0,0,0.1c0,0.4,0.1,0.8,0.1,1.2c0,0.1,0,0.2,0,0.2c0.1,0.4,0.2,0.9,0.3,1.4c0,0.1,0.1,0.3,0.1,0.4
						c0.1,0.5,0.3,1.1,0.4,1.6c0,0.1,0.1,0.2,0.1,0.3c0.2,0.5,0.4,1.1,0.6,1.6c0,0.1,0.1,0.2,0.1,0.3c0.3,0.6,0.6,1.2,0.9,1.8
						c0.1,0.1,0.1,0.3,0.2,0.4c0.3,0.6,0.7,1.2,1.2,1.7c0.1,0.1,0.2,0.2,0.2,0.3c0.5,0.6,1,1.1,1.6,1.7c5.6,5.1,13.4,5.1,13.5,5.1
						h54.5v-64.7H2190V390.8z M2206.2,356.2h28.9c2,0,3.6,1.6,3.6,3.6c0,2-1.6,3.6-3.6,3.6h-28.9c-2,0-3.6-1.6-3.6-3.6
						C2202.7,357.8,2204.3,356.2,2206.2,356.2 M2206.2,371.7h28.9c2,0,3.6,1.6,3.6,3.6c0,2-1.6,3.6-3.6,3.6h-28.9
						c-2,0-3.6-1.6-3.6-3.6C2202.7,373.3,2204.3,371.7,2206.2,371.7"/>
				</g>
			</g>
		</g>
	</g>
</g>
</svg>
