<?xml version="1.0" encoding="utf-8"?>
<!-- Generator: Adobe Illustrator 26.5.0, SVG Export Plug-In . SVG Version: 6.00 Build 0)  -->
<svg version="1.1" id="Calque_1" xmlns="http://www.w3.org/2000/svg" xmlns:xlink="http://www.w3.org/1999/xlink" x="0px" y="0px"
	 viewBox="0 0 2976.4 1488.2" style="enable-background:new 0 0 2976.4 1488.2;" xml:space="preserve">
<style type="text/css">
	.st0{clip-path:url(#SVGID_00000044171407767229703200000009617947094027484307_);}
	.st1{clip-path:url(#SVGID_00000004510832687091469200000012606955786269796793_);}
	.st2{clip-path:url(#SVGID_00000166643307192732163970000005319361311455474087_);fill:#005CB9;}
	.st3{clip-path:url(#SVGID_00000166643307192732163970000005319361311455474087_);}
	.st4{fill:#FFFFFF;}
	.st5{font-family:'CastoBlack-Black';}
	.st6{font-size:174.4565px;}
	.st7{font-family:'CastoRegular';}
	.st8{font-size:69.7826px;}
	.st9{clip-path:url(#SVGID_00000045620591945775256230000005356774354622110627_);fill:#FFFFFF;}
	.st10{clip-path:url(#SVGID_00000106857279936665403680000015072501461481820549_);}
	.st11{clip-path:url(#SVGID_00000026857084774969806290000013508016773568749967_);fill:#005CB9;}
	.st12{clip-path:url(#SVGID_00000026857084774969806290000013508016773568749967_);}
	.st13{clip-path:url(#SVGID_00000069384353250517638860000000909174679493266833_);fill:#FFFFFF;}
	
		.st14{clip-path:url(#SVGID_00000044171407767229703200000009617947094027484307_);fill:none;stroke:#FFFFFF;stroke-width:6;stroke-miterlimit:10;}
</style>
<g>
	<defs>
		<rect id="SVGID_1_" width="2976.4" height="1488.2"/>
	</defs>
	<clipPath id="SVGID_00000080194233158538794130000013884212110106196360_">
		<use xlink:href="#SVGID_1_"  style="overflow:visible;"/>
	</clipPath>
	<g style="clip-path:url(#SVGID_00000080194233158538794130000013884212110106196360_);">
		<defs>
			<rect id="SVGID_00000150821050876271143960000004551847508206319022_" x="-14.2" y="-14.2" width="1502.4" height="1516.5"/>
		</defs>
		<clipPath id="SVGID_00000159448317562962526500000018415940356816979125_">
			<use xlink:href="#SVGID_00000150821050876271143960000004551847508206319022_"  style="overflow:visible;"/>
		</clipPath>
		<g style="clip-path:url(#SVGID_00000159448317562962526500000018415940356816979125_);">
			<g>
				<defs>
					<rect id="SVGID_00000067957067311831428090000008632809620536731542_" x="-14.2" y="-14.2" width="1516.5" height="1516.5"/>
				</defs>
				<clipPath id="SVGID_00000111165369705792885120000016447559206027791753_">
					<use xlink:href="#SVGID_00000067957067311831428090000008632809620536731542_"  style="overflow:visible;"/>
				</clipPath>
				
					<rect x="-14.2" y="-14.2" style="clip-path:url(#SVGID_00000111165369705792885120000016447559206027791753_);fill:#005CB9;" width="1516.5" height="1516.5"/>
				<g style="clip-path:url(#SVGID_00000111165369705792885120000016447559206027791753_);">
					<text transform="matrix(1 0 0 1 352.1809 804.8099)" class="st4 st5 st6">avantage</text>
				</g>
				<g style="clip-path:url(#SVGID_00000111165369705792885120000016447559206027791753_);">
					<text transform="matrix(1 0 0 1 532.3948 938.618)" class="st4 st5 st6">carte</text>
				</g>
				<g style="clip-path:url(#SVGID_00000111165369705792885120000016447559206027791753_);">
					<text transform="matrix(1.0071 0 0 1 471.9544 1099.8918)" class="st4 st7 st8">Carte castorama</text>
				</g>
				<g style="clip-path:url(#SVGID_00000111165369705792885120000016447559206027791753_);">
					<text transform="matrix(1 0 0 1 430.844 1169.6741)" class="st4 st5 st8">Bien accompagné, </text>
				</g>
				<g style="clip-path:url(#SVGID_00000111165369705792885120000016447559206027791753_);">
					<text transform="matrix(1 0 0 1 402.8616 1239.4568)" class="st4 st5 st8">en avant les projets !</text>
				</g>
				<g style="clip-path:url(#SVGID_00000111165369705792885120000016447559206027791753_);">
					<defs>
						<rect id="SVGID_00000047765145523586911160000008498109367507974796_" x="-14.2" y="-14.2" width="1516.5" height="1516.5"/>
					</defs>
					<clipPath id="SVGID_00000172404539430541355950000013694255409724900285_">
						<use xlink:href="#SVGID_00000047765145523586911160000008498109367507974796_"  style="overflow:visible;"/>
					</clipPath>
					<path style="clip-path:url(#SVGID_00000172404539430541355950000013694255409724900285_);fill:#FFFFFF;" d="M950.6,417.9
						c-0.1-29.6-24.1-53.5-53.8-53.4l-8.1,0l30,83.1c5.6,15.6,4.9,32.4-2.2,47.4c-7,15-19.5,26.4-35.1,32L685,598l212.5-0.6
						c29.6-0.1,53.5-24.2,53.4-53.8L950.6,417.9z"/>
					<path style="clip-path:url(#SVGID_00000172404539430541355950000013694255409724900285_);fill:#FFFFFF;" d="M902.9,453.3
						l-34.9-96.6l-273.3,98.8c-1.9,0.7-3.8,1-5.7,1c-6.9,0-13.4-4.3-15.9-11.2c-3.2-8.8,1.4-18.5,10.2-21.6l272-98.3
						c-8.3-12.3-22.2-20.2-37.4-20.2c-5.2,0-10.4,0.9-15.4,2.7L567,393c-23.4,8.5-35.6,34.4-27.1,57.8l42.8,118.3
						c8.2,22.7,34.8,35.4,57.8,27.1l235.3-85.1c11.3-4.1,20.4-12.4,25.5-23.3C906.4,476.9,907,464.6,902.9,453.3"/>
				</g>
			</g>
		</g>
	</g>
	<g style="clip-path:url(#SVGID_00000080194233158538794130000013884212110106196360_);">
		<defs>
			<rect id="SVGID_00000116926779208316916230000013309166077149463715_" x="1488.2" y="-14.2" width="1502.4" height="1516.5"/>
		</defs>
		<clipPath id="SVGID_00000017485473882572789300000012409048018597924527_">
			<use xlink:href="#SVGID_00000116926779208316916230000013309166077149463715_"  style="overflow:visible;"/>
		</clipPath>
		<g style="clip-path:url(#SVGID_00000017485473882572789300000012409048018597924527_);">
			<g>
				<defs>
					<rect id="SVGID_00000071519070832805904060000005324529204878213802_" x="1474" y="-14.2" width="1516.5" height="1516.5"/>
				</defs>
				<clipPath id="SVGID_00000069363340210657203490000011812936904763087232_">
					<use xlink:href="#SVGID_00000071519070832805904060000005324529204878213802_"  style="overflow:visible;"/>
				</clipPath>
				
					<rect x="1474" y="-14.2" style="clip-path:url(#SVGID_00000069363340210657203490000011812936904763087232_);fill:#005CB9;" width="1516.5" height="1516.5"/>
				<g style="clip-path:url(#SVGID_00000069363340210657203490000011812936904763087232_);">
					<text transform="matrix(1 0 0 1 1840.3699 804.8099)" class="st4 st5 st6">avantage</text>
				</g>
				<g style="clip-path:url(#SVGID_00000069363340210657203490000011812936904763087232_);">
					<text transform="matrix(1 0 0 1 2020.5837 938.618)" class="st4 st5 st6">carte</text>
				</g>
				<g style="clip-path:url(#SVGID_00000069363340210657203490000011812936904763087232_);">
					<text transform="matrix(1.0071 0 0 1 1960.1433 1099.8918)" class="st4 st7 st8">Carte castorama</text>
				</g>
				<g style="clip-path:url(#SVGID_00000069363340210657203490000011812936904763087232_);">
					<text transform="matrix(1 0 0 1 1919.033 1169.6741)" class="st4 st5 st8">Bien accompagné, </text>
				</g>
				<g style="clip-path:url(#SVGID_00000069363340210657203490000011812936904763087232_);">
					<text transform="matrix(1 0 0 1 1891.0505 1239.4568)" class="st4 st5 st8">en avant les projets !</text>
				</g>
				<g style="clip-path:url(#SVGID_00000069363340210657203490000011812936904763087232_);">
					<defs>
						<rect id="SVGID_00000047041206461860365710000006374424631434642102_" x="1474" y="-14.2" width="1516.5" height="1516.5"/>
					</defs>
					<clipPath id="SVGID_00000174592215786787885650000002262835141061229991_">
						<use xlink:href="#SVGID_00000047041206461860365710000006374424631434642102_"  style="overflow:visible;"/>
					</clipPath>
					<path style="clip-path:url(#SVGID_00000174592215786787885650000002262835141061229991_);fill:#FFFFFF;" d="M2438.8,417.9
						c-0.1-29.6-24.1-53.5-53.8-53.4l-8.1,0l30,83.1c5.6,15.6,4.9,32.4-2.2,47.4c-7,15-19.5,26.4-35.1,32L2173.2,598l212.5-0.6
						c29.6-0.1,53.5-24.2,53.4-53.8L2438.8,417.9z"/>
					<path style="clip-path:url(#SVGID_00000174592215786787885650000002262835141061229991_);fill:#FFFFFF;" d="M2391.1,453.3
						l-34.9-96.6l-273.3,98.8c-1.9,0.7-3.8,1-5.7,1c-6.9,0-13.4-4.3-15.9-11.2c-3.2-8.8,1.4-18.5,10.2-21.6l272-98.3
						c-8.3-12.3-22.2-20.2-37.4-20.2c-5.2,0-10.4,0.9-15.4,2.7L2055.2,393c-23.4,8.5-35.6,34.4-27.1,57.8l42.8,118.3
						c8.2,22.7,34.8,35.4,57.8,27.1l235.3-85.1c11.3-4.1,20.4-12.4,25.5-23.3C2394.6,476.9,2395.2,464.6,2391.1,453.3"/>
				</g>
			</g>
		</g>
	</g>
	
		<line style="clip-path:url(#SVGID_00000080194233158538794130000013884212110106196360_);fill:none;stroke:#FFFFFF;stroke-width:6;stroke-miterlimit:10;" x1="1488.2" y1="1502.4" x2="1488.2" y2="-14.2"/>
</g>
</svg>
