<?xml version="1.0" encoding="utf-8"?>
<!-- Generator: Adobe Illustrator 26.5.0, SVG Export Plug-In . SVG Version: 6.00 Build 0)  -->
<svg version="1.1" id="Calque_1" xmlns="http://www.w3.org/2000/svg" xmlns:xlink="http://www.w3.org/1999/xlink" x="0px" y="0px"
	 viewBox="0 0 2976.4 1488.2" style="enable-background:new 0 0 2976.4 1488.2;" xml:space="preserve">
<style type="text/css">
	.st0{display:none;fill:none;stroke:#FFFFFF;stroke-width:6;stroke-miterlimit:10;}
	.st1{clip-path:url(#SVGID_00000098210331778753404890000007163164130990853807_);}
	.st2{clip-path:url(#SVGID_00000057830975670374410430000015293347341343531150_);}
	.st3{clip-path:url(#SVGID_00000000923283904616310090000006884676184851235480_);fill:#FFD100;}
	.st4{clip-path:url(#SVGID_00000000923283904616310090000006884676184851235480_);}
	.st5{fill:#005CB9;}
	.st6{font-family:'CastoBlack-Black';}
	.st7{font-size:174.4565px;}
	.st8{font-family:'CastoRegular';}
	.st9{font-size:69.7826px;}
	.st10{clip-path:url(#SVGID_00000178893100617824821550000018356446809637293976_);fill:#005CB9;}
	.st11{clip-path:url(#SVGID_00000107574127897092006740000002273835242829572539_);}
	.st12{clip-path:url(#SVGID_00000016071883288656800750000014313395706300006591_);fill:#005CB9;}
	.st13{clip-path:url(#SVGID_00000016071883288656800750000014313395706300006591_);}
	.st14{fill:#FFFFFF;}
	.st15{clip-path:url(#SVGID_00000130627656130627731990000009868392454338991015_);fill:#FFFFFF;}
</style>
<line class="st0" x1="1488.2" y1="1502.4" x2="1488.2" y2="-14.2"/>
<g>
	<defs>
		<rect id="SVGID_1_" width="2976.4" height="1488.2"/>
	</defs>
	<clipPath id="SVGID_00000022532583167947960420000003883935114808604059_">
		<use xlink:href="#SVGID_1_"  style="overflow:visible;"/>
	</clipPath>
	<g style="clip-path:url(#SVGID_00000022532583167947960420000003883935114808604059_);">
		<defs>
			<rect id="SVGID_00000093862486525523497650000006855547730755537025_" x="-14.2" y="-14.2" width="1502.4" height="1516.5"/>
		</defs>
		<clipPath id="SVGID_00000082369402755304190170000011539981196008834970_">
			<use xlink:href="#SVGID_00000093862486525523497650000006855547730755537025_"  style="overflow:visible;"/>
		</clipPath>
		<g style="clip-path:url(#SVGID_00000082369402755304190170000011539981196008834970_);">
			<g>
				<defs>
					<rect id="SVGID_00000137818349048094605250000015871276321207138973_" x="-14.2" y="-14.2" width="1516.5" height="1516.5"/>
				</defs>
				<clipPath id="SVGID_00000147180448003989451520000015302571767527307166_">
					<use xlink:href="#SVGID_00000137818349048094605250000015871276321207138973_"  style="overflow:visible;"/>
				</clipPath>
				
					<rect x="-14" y="-13.9" style="clip-path:url(#SVGID_00000147180448003989451520000015302571767527307166_);fill:#FFD100;" width="1516.4" height="1516.2"/>
				<g style="clip-path:url(#SVGID_00000147180448003989451520000015302571767527307166_);">
					<text transform="matrix(1 0 0 1 391.3186 805.1097)" class="st5 st6 st7">livraison</text>
				</g>
				<g style="clip-path:url(#SVGID_00000147180448003989451520000015302571767527307166_);">
					<text transform="matrix(1 0 0 1 322.0589 938.9178)" class="st5 st6 st7">à domicile</text>
				</g>
				<g style="clip-path:url(#SVGID_00000147180448003989451520000015302571767527307166_);">
					<text transform="matrix(1 0 0 1 354.9934 1100.1877)" class="st5 st8 st9">Pas de temps à perdre ?</text>
				</g>
				<g style="clip-path:url(#SVGID_00000147180448003989451520000015302571767527307166_);">
					<text transform="matrix(1 0 0 1 567.4818 1169.9705)" class="st5 st6 st9">Gagnez-en</text>
				</g>
				<g style="clip-path:url(#SVGID_00000147180448003989451520000015302571767527307166_);">
					<defs>
						<rect id="SVGID_00000011750813911014987440000013049069016530848940_" x="-14.2" y="-14.2" width="1516.5" height="1516.5"/>
					</defs>
					<clipPath id="SVGID_00000106113667412059835090000010204480714261336754_">
						<use xlink:href="#SVGID_00000011750813911014987440000013049069016530848940_"  style="overflow:visible;"/>
					</clipPath>
					<path style="clip-path:url(#SVGID_00000106113667412059835090000010204480714261336754_);fill:#005CB9;" d="M870.2,511.7
						c-23.6,0-44.1,15.7-44.1,43.7c0,27.9,20.7,43.6,44.1,43.6c23.4,0,43.9-15.8,43.9-43.6C914.1,527.4,893.5,511.7,870.2,511.7"/>
					<path style="clip-path:url(#SVGID_00000106113667412059835090000010204480714261336754_);fill:#005CB9;" d="M619.6,511.7
						c-23.6,0-44.1,15.7-44.1,43.7c0,27.9,20.8,43.6,44.1,43.6c23.4,0,44-15.8,44-43.6C663.6,527.4,643.1,511.7,619.6,511.7"/>
					<path style="clip-path:url(#SVGID_00000106113667412059835090000010204480714261336754_);fill:#005CB9;" d="M970.8,514.3h-2.5
						v-25.6v-19.9v-10c0-63.3-51.4-114.7-114.7-114.7c-3.2,0-6.2,0.2-9.4,0.4c-11.4-23.1-35-38.9-62.5-38.9H598.5
						c-38.5,0-69.7,31.2-69.7,69.8v93.5v19.9v25.6h-11.2c-9.2,0-16.5,7.4-16.5,16.5c0,9.1,7.4,16.5,16.5,16.5h35.1l1-6.8
						c6.4-33.3,34.4-51.9,66-51.9c33.4,0,62.9,21,66.7,58.6h117c3.8-37.6,33.4-58.6,67-58.6c31.3,0,59.2,18.4,65.7,51.7l1,7h6.1
						h27.6c9.2,0,16.5-7.4,16.5-16.5C987.4,521.7,980,514.3,970.8,514.3 M881.3,450.7c-11,0-20.1-8.3-21.3-19v-59.2
						c43.2,0,78.2,35,78.2,78.2H881.3z"/>
				</g>
			</g>
		</g>
	</g>
	<g style="clip-path:url(#SVGID_00000022532583167947960420000003883935114808604059_);">
		<defs>
			<rect id="SVGID_00000090275905586445824680000013420718914123981185_" x="1488.2" y="-14.2" width="1502.4" height="1516.5"/>
		</defs>
		<clipPath id="SVGID_00000045604889124442581410000004641818599237344402_">
			<use xlink:href="#SVGID_00000090275905586445824680000013420718914123981185_"  style="overflow:visible;"/>
		</clipPath>
		<g style="clip-path:url(#SVGID_00000045604889124442581410000004641818599237344402_);">
			<g>
				<defs>
					<rect id="SVGID_00000152262200006752348750000007332182966515076525_" x="1474" y="-14.2" width="1516.5" height="1516.5"/>
				</defs>
				<clipPath id="SVGID_00000162341638826974182880000015088013377398663354_">
					<use xlink:href="#SVGID_00000152262200006752348750000007332182966515076525_"  style="overflow:visible;"/>
				</clipPath>
				
					<rect x="1474" y="-14.2" style="clip-path:url(#SVGID_00000162341638826974182880000015088013377398663354_);fill:#005CB9;" width="1516.5" height="1516.5"/>
				<g style="clip-path:url(#SVGID_00000162341638826974182880000015088013377398663354_);">
					<text transform="matrix(1 0 0 1 1840.3699 804.8099)" class="st14 st6 st7">avantage</text>
				</g>
				<g style="clip-path:url(#SVGID_00000162341638826974182880000015088013377398663354_);">
					<text transform="matrix(1 0 0 1 2020.5837 938.618)" class="st14 st6 st7">carte</text>
				</g>
				<g style="clip-path:url(#SVGID_00000162341638826974182880000015088013377398663354_);">
					<text transform="matrix(1.0071 0 0 1 1960.1433 1099.8918)" class="st14 st8 st9">Carte castorama</text>
				</g>
				<g style="clip-path:url(#SVGID_00000162341638826974182880000015088013377398663354_);">
					<text transform="matrix(1 0 0 1 1919.033 1169.6741)" class="st14 st6 st9">Bien accompagné, </text>
				</g>
				<g style="clip-path:url(#SVGID_00000162341638826974182880000015088013377398663354_);">
					<text transform="matrix(1 0 0 1 1891.0505 1239.4568)" class="st14 st6 st9">en avant les projets !</text>
				</g>
				<g style="clip-path:url(#SVGID_00000162341638826974182880000015088013377398663354_);">
					<defs>
						<rect id="SVGID_00000028298476581866201240000009247715630714491300_" x="1474" y="-14.2" width="1516.5" height="1516.5"/>
					</defs>
					<clipPath id="SVGID_00000160164433936585256910000007878701184656360889_">
						<use xlink:href="#SVGID_00000028298476581866201240000009247715630714491300_"  style="overflow:visible;"/>
					</clipPath>
					<path style="clip-path:url(#SVGID_00000160164433936585256910000007878701184656360889_);fill:#FFFFFF;" d="M2438.8,417.9
						c-0.1-29.6-24.1-53.5-53.8-53.4l-8.1,0l30,83.1c5.6,15.6,4.9,32.4-2.2,47.4c-7,15-19.5,26.4-35.1,32L2173.2,598l212.5-0.6
						c29.6-0.1,53.5-24.2,53.4-53.8L2438.8,417.9z"/>
					<path style="clip-path:url(#SVGID_00000160164433936585256910000007878701184656360889_);fill:#FFFFFF;" d="M2391.1,453.3
						l-34.9-96.6l-273.3,98.8c-1.9,0.7-3.8,1-5.7,1c-6.9,0-13.4-4.3-15.9-11.2c-3.2-8.8,1.4-18.5,10.2-21.6l272-98.3
						c-8.3-12.3-22.2-20.2-37.4-20.2c-5.2,0-10.4,0.9-15.4,2.7L2055.2,393c-23.4,8.5-35.6,34.4-27.1,57.8l42.8,118.3
						c8.2,22.7,34.8,35.4,57.8,27.1l235.3-85.1c11.3-4.1,20.4-12.4,25.5-23.3C2394.6,476.9,2395.2,464.6,2391.1,453.3"/>
				</g>
			</g>
		</g>
	</g>
</g>
</svg>
