<?xml version="1.0" encoding="utf-8"?>
<!-- Generator: Adobe Illustrator 26.5.0, SVG Export Plug-In . SVG Version: 6.00 Build 0)  -->
<svg version="1.1" id="Calque_1" xmlns="http://www.w3.org/2000/svg" xmlns:xlink="http://www.w3.org/1999/xlink" x="0px" y="0px"
	 viewBox="0 0 2976.4 2976.4" style="enable-background:new 0 0 2976.4 2976.4;" xml:space="preserve">
<style type="text/css">
	.st0{fill:#D9D8D6;}
	.st1{enable-background:new    ;}
	.st2{fill:#050703;}
</style>
<rect y="0" class="st0" width="2976.4" height="2976.4"/>
<g class="st1">
	<path class="st2" d="M638.5,2052.8c0-76.5,57.5-126.5,131.5-126.5c51,0,82.5,22.5,97,42l-51.5,51c-8.5-11-22.5-19-41.5-19
		c-27.5,0-51.5,18-51.5,52.5s24,53.5,51.5,53.5c18.5,0,33.5-9.5,42-19.5c18.5,18.5,33,34,51,51.5c-14.5,19-46.5,41.5-97,41.5
		C696,2179.8,638.5,2129.8,638.5,2052.8z"/>
	<path class="st2" d="M892,2052.8c0-67.5,44-126.5,112-126.5c14.5,0,46,5.5,67,38h0.5v-31.5h82v241h-82v-30.5h-0.5
		c-21,32.5-52,36.5-67,36.5C938,2179.8,892,2120.8,892,2052.8z M1071.5,2052.8c0-30-17-52.5-47.5-52.5c-30,0-47,22.5-47,52.5
		c0,30.5,17,53.5,47,53.5C1054.5,2106.3,1071.5,2083.3,1071.5,2052.8z"/>
	<path class="st2" d="M1208.4,1850.3c0-22.5,18.5-40,41.5-40c22,0,40.5,17.5,40.5,40c0,22-18.5,40-40.5,40
		C1226.9,1890.3,1208.4,1872.3,1208.4,1850.3z M1208.4,2173.8v-241h82v241H1208.4z"/>
	<path class="st2" d="M1332.9,2144.8c11-19,21.5-36,32.5-55c20.5,15,59.5,29,85,29c22,0,28.5-6,28.5-14.5c0-12-16-14-37-17
		c-39-6-100.5-19.5-100.5-81c0-42.5,37-80,104-80c37.5,0,72.5,11.5,99,29.5c-10,19-19,33.5-29,52c-16-11.5-43-23-69.5-23
		c-15.5,0-26.5,5.5-26.5,15s15,12,35,15c38.5,6,102,21,102,83.5c0,47-41.5,81.5-110.5,81.5
		C1402.9,2179.8,1358.4,2166.3,1332.9,2144.8z"/>
	<path class="st2" d="M1586.4,2144.8c11-19,21.5-36,32.5-55c20.5,15,59.5,29,85,29c22,0,28.5-6,28.5-14.5c0-12-16-14-37-17
		c-39-6-100.5-19.5-100.5-81c0-42.5,37-80,104-80c37.5,0,72.5,11.5,99,29.5c-10,19-19,33.5-29,52c-16-11.5-43-23-69.5-23
		c-15.5,0-26.5,5.5-26.5,15s15,12,35,15c38.5,6,102,21,102,83.5c0,47-41.5,81.5-110.5,81.5
		C1656.4,2179.8,1611.9,2166.3,1586.4,2144.8z"/>
	<path class="st2" d="M1839.9,2052.8c0-70,52.5-126.5,128.5-126.5c68,0,121,51,121,136.5v15h-165.5c5.5,20,25,39.5,57,39.5
		c13,0,40.5-6,55-15.5l33,51c-23.5,18.5-64,27-98,27C1897.4,2179.8,1839.9,2132.3,1839.9,2052.8z M1968.4,1988.8
		c-30.5,0-42,24-45,38.5h89.5C2009.4,2010.3,2000.4,1988.8,1968.4,1988.8z"/>
	<path class="st2" d="M2114.4,2144.8c11-19,21.5-36,32.5-55c20.5,15,59.5,29,85,29c22,0,28.5-6,28.5-14.5c0-12-16-14-37-17
		c-39-6-100.5-19.5-100.5-81c0-42.5,37-80,104-80c37.5,0,72.5,11.5,99,29.5c-10,19-19,33.5-29,52c-16-11.5-43-23-69.5-23
		c-15.5,0-26.5,5.5-26.5,15s15,12,35,15c38.5,6,102,21,102,83.5c0,47-41.5,81.5-110.5,81.5
		C2184.4,2179.8,2139.9,2166.3,2114.4,2144.8z"/>
</g>
<g class="st1">
	<path class="st2" d="M833,2594.8c11-19,21.5-36,32.5-55c20.5,15,59.5,29,85,29c22,0,28.5-6,28.5-14.5c0-12-16-14-37-17
		c-39-6-100.5-19.5-100.5-81c0-42.5,37-80,104-80c37.5,0,72.5,11.5,99,29.5c-10,19-19,33.5-29,52c-16-11.5-43-23-69.5-23
		c-15.5,0-26.5,5.5-26.5,15s15,12,35,15c38.5,6,102,21,102,83.5c0,47-41.5,81.5-110.5,81.5C903,2629.8,858.5,2616.3,833,2594.8z"/>
	<path class="st2" d="M1086.5,2502.8c0-67.5,48.5-126.5,132-126.5s132.5,59,132.5,126.5c0,68-49,127-132.5,127
		S1086.5,2570.8,1086.5,2502.8z M1266,2502.8c0-30-17-52.5-47.5-52.5c-30,0-47,22.5-47,52.5c0,30.5,17,53.5,47,53.5
		C1249,2556.3,1266,2533.3,1266,2502.8z"/>
	<path class="st2" d="M1393.4,2623.8v-241h82v31.5c16.5-20.5,48.5-39,74-39v79c-4.5-1-9.5-1-16.5-1c-23.5,0-57.5,6.5-57.5,49v121.5
		H1393.4z"/>
	<path class="st2" d="M1689.4,2454.8v61c0,22.5,6.5,41,41,41v73c-82.5,0-123-55-123-123v-52h-40v-72h40v-68.5h82v68.5h48.5v72
		H1689.4z"/>
	<path class="st2" d="M1774.4,2300.3c0-22.5,18.5-40,41.5-40c22,0,40.5,17.5,40.5,40c0,22-18.5,40-40.5,40
		C1792.9,2340.3,1774.4,2322.3,1774.4,2300.3z M1774.4,2623.8v-241h82v241H1774.4z"/>
	<path class="st2" d="M1898.9,2502.8c0-70,52.5-126.5,128.5-126.5c68,0,121,51,121,136.5v15h-165.5c5.5,20,25,39.5,57,39.5
		c13,0,40.5-6,55-15.5l33,51c-23.5,18.5-64,27-98,27C1956.4,2629.8,1898.9,2582.3,1898.9,2502.8z M2027.4,2438.8
		c-30.5,0-42,24-45,38.5h89.5C2068.4,2460.3,2059.4,2438.8,2027.4,2438.8z"/>
</g>
<g>
	<path class="st2" d="M1958.7,965c-10.2,0-20.5-3.9-28.3-11.7l-442.2-442.2L1046,953.3c-15.6,15.6-40.9,15.6-56.6,0
		s-15.6-40.9,0-56.6l470.5-470.5c15.6-15.6,40.9-15.6,56.6,0L1987,896.7c15.6,15.6,15.6,40.9,0,56.6
		C1979.2,961.1,1968.9,965,1958.7,965z"/>
	<path class="st2" d="M1488.2,1494.3c-22.1,0-40-17.9-40-40V454.5c0-22.1,17.9-40,40-40c22.1,0,40,17.9,40,40v999.8
		C1528.2,1476.4,1510.3,1494.3,1488.2,1494.3z"/>
	<path class="st2" d="M1488.2,1683.9c-97.3,0-191.6-19.1-280.5-56.6c-85.8-36.3-162.9-88.2-229-154.4
		c-66.2-66.2-118.1-143.2-154.4-229c-37.6-88.9-56.6-183.2-56.6-280.5s19.1-191.6,56.6-280.5c36.3-85.8,88.2-162.9,154.4-229
		c66.2-66.2,143.2-118.1,229-154.4c88.9-37.6,183.2-56.6,280.5-56.6s191.6,19.1,280.5,56.6c85.8,36.3,162.9,88.2,229,154.4
		c66.2,66.2,118.1,143.2,154.4,229c37.6,88.9,56.6,183.2,56.6,280.5s-19.1,191.6-56.6,280.5c-36.3,85.8-88.2,162.9-154.4,229
		s-143.2,118.1-229,154.4C1679.8,1664.9,1585.5,1683.9,1488.2,1683.9z M1488.2,324.9c-86.2,0-169.8,16.9-248.5,50.2
		c-76,32.2-144.3,78.2-203,136.8c-58.6,58.6-104.7,126.9-136.8,203c-33.3,78.7-50.2,162.3-50.2,248.5s16.9,169.8,50.2,248.5
		c32.2,76,78.2,144.3,136.8,203c58.6,58.6,126.9,104.7,203,136.8c78.7,33.3,162.3,50.2,248.5,50.2s169.8-16.9,248.5-50.2
		c76-32.2,144.3-78.2,203-136.8c58.6-58.6,104.7-126.9,136.8-203c33.3-78.7,50.2-162.3,50.2-248.5s-16.9-169.8-50.2-248.5
		c-32.2-76-78.2-144.3-136.8-203s-126.9-104.7-203-136.8C1658,341.8,1574.4,324.9,1488.2,324.9z"/>
</g>
</svg>
