<?xml version="1.0" encoding="utf-8"?>
<!-- Generator: Adobe Illustrator 26.5.0, SVG Export Plug-In . SVG Version: 6.00 Build 0)  -->
<svg version="1.1" id="Calque_1" xmlns="http://www.w3.org/2000/svg" xmlns:xlink="http://www.w3.org/1999/xlink" x="0px" y="0px"
	 viewBox="0 0 2976.4 2976.4" style="enable-background:new 0 0 2976.4 2976.4;" xml:space="preserve">
<style type="text/css">
	.st0{fill:#D9D8D6;}
	.st1{enable-background:new    ;}
	.st2{fill:#050703;}
</style>
<rect y="0" class="st0" width="2976.4" height="2976.4"/>
<g class="st1">
	<path class="st2" d="M638.5,2282.4c0-76.5,57.5-126.5,131.5-126.5c51,0,82.5,22.5,97,42l-51.5,51c-8.5-11-22.5-19-41.5-19
		c-27.5,0-51.5,18-51.5,52.5s24,53.5,51.5,53.5c18.5,0,33.5-9.5,42-19.5c18.5,18.5,33,34,51,51.5c-14.5,19-46.5,41.5-97,41.5
		C696,2409.4,638.5,2359.4,638.5,2282.4z"/>
	<path class="st2" d="M892,2282.4c0-67.5,44-126.5,112-126.5c14.5,0,46,5.5,67,38h0.5v-31.5h82v241h-82v-30.5h-0.5
		c-21,32.5-52,36.5-67,36.5C938,2409.4,892,2350.4,892,2282.4z M1071.5,2282.4c0-30-17-52.5-47.5-52.5c-30,0-47,22.5-47,52.5
		c0,30.5,17,53.5,47,53.5C1054.5,2335.9,1071.5,2312.9,1071.5,2282.4z"/>
	<path class="st2" d="M1208.4,2079.9c0-22.5,18.5-40,41.5-40c22,0,40.5,17.5,40.5,40c0,22-18.5,40-40.5,40
		C1226.9,2119.9,1208.4,2101.9,1208.4,2079.9z M1208.4,2403.4v-241h82v241H1208.4z"/>
	<path class="st2" d="M1332.9,2374.4c11-19,21.5-36,32.5-55c20.5,15,59.5,29,85,29c22,0,28.5-6,28.5-14.5c0-12-16-14-37-17
		c-39-6-100.5-19.5-100.5-81c0-42.5,37-80,104-80c37.5,0,72.5,11.5,99,29.5c-10,19-19,33.5-29,52c-16-11.5-43-23-69.5-23
		c-15.5,0-26.5,5.5-26.5,15s15,12,35,15c38.5,6,102,21,102,83.5c0,47-41.5,81.5-110.5,81.5
		C1402.9,2409.4,1358.4,2395.9,1332.9,2374.4z"/>
	<path class="st2" d="M1586.4,2374.4c11-19,21.5-36,32.5-55c20.5,15,59.5,29,85,29c22,0,28.5-6,28.5-14.5c0-12-16-14-37-17
		c-39-6-100.5-19.5-100.5-81c0-42.5,37-80,104-80c37.5,0,72.5,11.5,99,29.5c-10,19-19,33.5-29,52c-16-11.5-43-23-69.5-23
		c-15.5,0-26.5,5.5-26.5,15s15,12,35,15c38.5,6,102,21,102,83.5c0,47-41.5,81.5-110.5,81.5
		C1656.4,2409.4,1611.9,2395.9,1586.4,2374.4z"/>
	<path class="st2" d="M1839.9,2282.4c0-70,52.5-126.5,128.5-126.5c68,0,121,51,121,136.5v15h-165.5c5.5,20,25,39.5,57,39.5
		c13,0,40.5-6,55-15.5l33,51c-23.5,18.5-64,27-98,27C1897.4,2409.4,1839.9,2361.9,1839.9,2282.4z M1968.4,2218.4
		c-30.5,0-42,24-45,38.5h89.5C2009.4,2239.9,2000.4,2218.4,1968.4,2218.4z"/>
	<path class="st2" d="M2114.4,2374.4c11-19,21.5-36,32.5-55c20.5,15,59.5,29,85,29c22,0,28.5-6,28.5-14.5c0-12-16-14-37-17
		c-39-6-100.5-19.5-100.5-81c0-42.5,37-80,104-80c37.5,0,72.5,11.5,99,29.5c-10,19-19,33.5-29,52c-16-11.5-43-23-69.5-23
		c-15.5,0-26.5,5.5-26.5,15s15,12,35,15c38.5,6,102,21,102,83.5c0,47-41.5,81.5-110.5,81.5
		C2184.4,2409.4,2139.9,2395.9,2114.4,2374.4z"/>
</g>
<g>
	<path class="st2" d="M1958.7,1195.7c-10.2,0-20.5-3.9-28.3-11.7l-442.2-442.2L1046,1184c-15.6,15.6-40.9,15.6-56.6,0
		s-15.6-40.9,0-56.6l470.5-470.5c15.6-15.6,40.9-15.6,56.6,0l470.5,470.5c15.6,15.6,15.6,40.9,0,56.6
		C1979.2,1191.8,1968.9,1195.7,1958.7,1195.7z"/>
	<path class="st2" d="M1488.2,1725c-22.1,0-40-17.9-40-40V685.2c0-22.1,17.9-40,40-40c22.1,0,40,17.9,40,40V1685
		C1528.2,1707.1,1510.3,1725,1488.2,1725z"/>
	<path class="st2" d="M1488.2,1914.6c-97.3,0-191.6-19.1-280.5-56.6c-85.8-36.3-162.9-88.2-229-154.4
		c-66.2-66.2-118.1-143.2-154.4-229c-37.6-88.9-56.6-183.2-56.6-280.5s19.1-191.6,56.6-280.5c36.3-85.8,88.2-162.9,154.4-229
		c66.2-66.2,143.2-118.1,229-154.4c88.9-37.6,183.2-56.6,280.5-56.6s191.6,19.1,280.5,56.6c85.8,36.3,162.9,88.2,229,154.4
		s118.1,143.2,154.4,229c37.6,88.9,56.6,183.2,56.6,280.5s-19.1,191.6-56.6,280.5c-36.3,85.8-88.2,162.9-154.4,229
		s-143.2,118.1-229,154.4C1679.8,1895.6,1585.5,1914.6,1488.2,1914.6z M1488.2,555.6c-86.2,0-169.8,16.9-248.5,50.2
		c-76,32.2-144.3,78.2-203,136.8c-58.6,58.6-104.7,126.9-136.8,203c-33.3,78.7-50.2,162.3-50.2,248.5s16.9,169.8,50.2,248.5
		c32.2,76,78.2,144.3,136.8,203c58.6,58.6,126.9,104.7,203,136.8c78.7,33.3,162.3,50.2,248.5,50.2s169.8-16.9,248.5-50.2
		c76-32.2,144.3-78.2,203-136.8s104.7-126.9,136.8-203c33.3-78.7,50.2-162.3,50.2-248.5s-16.9-169.8-50.2-248.5
		c-32.2-76-78.2-144.3-136.8-203s-126.9-104.7-203-136.8C1658,572.5,1574.4,555.6,1488.2,555.6z"/>
</g>
</svg>
